M48
; DRILL file {KiCad 7.0.1} date Mon Jan  1 19:45:17 2024
; FORMAT={-:-/ absolute / inch / decimal}
; #@! TF.CreationDate,2024-01-01T19:45:17+00:00
; #@! TF.GenerationSoftware,Kicad,Pcbnew,7.0.1
; #@! TF.FileFunction,Plated,1,2,PTH
FMAT,2
INCH
; #@! TA.AperFunction,Plated,PTH,ViaDrill
T1C0.0157
; #@! TA.AperFunction,Plated,PTH,ComponentDrill
T2C0.0433
; #@! TA.AperFunction,Plated,PTH,ComponentDrill
T3C0.0551
; #@! TA.AperFunction,Plated,PTH,ComponentDrill
T4C0.0709
; #@! TA.AperFunction,Plated,PTH,ViaDrill
T5C0.1181
%
G90
G05
T1
X5.5Y-3.7
X5.6Y-3.65
X5.7Y-2.5
X5.7Y-2.6
X5.7Y-2.95
X5.7Y-3.05
X5.7Y-3.7
X5.8Y-4.1
X5.95Y-4.6
X6.0Y-2.65
X6.0Y-3.1
X6.0492Y-4.4571
X6.2Y-2.5
X6.2Y-2.6
X6.2Y-2.95
X6.2Y-3.05
X6.2Y-4.15
X6.2Y-4.25
X6.25Y-3.65
X6.3Y-4.4
X6.4Y-2.6
X6.4Y-3.05
X6.4Y-4.05
X6.55Y-2.95
X6.55Y-3.05
X6.55Y-3.15
X6.55Y-3.25
X6.55Y-3.35
X6.55Y-4.6
X6.65Y-3.15
X6.65Y-3.25
X6.65Y-3.35
X6.75Y-3.15
X6.75Y-3.25
X6.75Y-3.35
X6.85Y-2.95
X6.85Y-3.05
X6.85Y-3.15
X6.85Y-3.25
X6.85Y-3.35
T2
X6.6Y-3.65
X6.7Y-3.65
X6.8Y-3.65
T3
X5.5Y-3.35
X5.9173Y-5.128
X5.9173Y-5.3445
X6.0827Y-5.128
X6.0827Y-5.3445
X6.248Y-5.128
X6.248Y-5.3445
X6.3Y-3.35
X7.3327Y-2.9685
X7.3327Y-3.1339
X7.3327Y-3.2992
X7.3327Y-3.4646
X7.3327Y-3.6299
X7.3327Y-3.7953
X7.3327Y-3.9606
X7.3327Y-4.126
X7.3327Y-4.2913
X7.3327Y-4.4567
X7.3327Y-4.622
X7.3327Y-4.7874
X7.5492Y-2.9685
X7.5492Y-3.1339
X7.5492Y-3.2992
X7.5492Y-3.4646
X7.5492Y-3.6299
X7.5492Y-3.7953
X7.5492Y-3.9606
X7.5492Y-4.126
X7.5492Y-4.2913
X7.5492Y-4.4567
X7.5492Y-4.622
X7.5492Y-4.7874
T4
X5.2089Y-2.5726
X5.2089Y-2.9467
X5.2089Y-3.3207
X5.2089Y-3.6947
X5.2089Y-4.0687
X5.2089Y-4.4427
X5.2089Y-4.8167
X5.2089Y-5.1907
T5
X4.5276Y-2.3228
X4.5276Y-5.4331
X7.6378Y-2.3228
X7.6378Y-5.4331
T0
M30
