%TF.GenerationSoftware,KiCad,Pcbnew,7.0.1*%
%TF.CreationDate,2024-01-01T19:45:24+00:00*%
%TF.ProjectId,PowerDelivery,506f7765-7244-4656-9c69-766572792e6b,rev?*%
%TF.SameCoordinates,Original*%
%TF.FileFunction,Soldermask,Bot*%
%TF.FilePolarity,Negative*%
%FSLAX46Y46*%
G04 Gerber Fmt 4.6, Leading zero omitted, Abs format (unit mm)*
G04 Created by KiCad (PCBNEW 7.0.1) date 2024-01-01 19:45:24*
%MOMM*%
%LPD*%
G01*
G04 APERTURE LIST*
G04 Aperture macros list*
%AMRoundRect*
0 Rectangle with rounded corners*
0 $1 Rounding radius*
0 $2 $3 $4 $5 $6 $7 $8 $9 X,Y pos of 4 corners*
0 Add a 4 corners polygon primitive as box body*
4,1,4,$2,$3,$4,$5,$6,$7,$8,$9,$2,$3,0*
0 Add four circle primitives for the rounded corners*
1,1,$1+$1,$2,$3*
1,1,$1+$1,$4,$5*
1,1,$1+$1,$6,$7*
1,1,$1+$1,$8,$9*
0 Add four rect primitives between the rounded corners*
20,1,$1+$1,$2,$3,$4,$5,0*
20,1,$1+$1,$4,$5,$6,$7,0*
20,1,$1+$1,$6,$7,$8,$9,0*
20,1,$1+$1,$8,$9,$2,$3,0*%
G04 Aperture macros list end*
%ADD10RoundRect,0.250001X-1.099999X-1.399999X1.099999X-1.399999X1.099999X1.399999X-1.099999X1.399999X0*%
%ADD11O,2.700000X3.300000*%
%ADD12C,2.800000*%
%ADD13C,2.400000*%
%ADD14RoundRect,0.250001X1.399999X-1.099999X1.399999X1.099999X-1.399999X1.099999X-1.399999X-1.099999X0*%
%ADD15O,3.300000X2.700000*%
%ADD16O,3.500000X3.500000*%
%ADD17R,1.905000X2.000000*%
%ADD18O,1.905000X2.000000*%
G04 APERTURE END LIST*
D10*
%TO.C,J1*%
X150300000Y-130250000D03*
D11*
X154500000Y-130250000D03*
X158700000Y-130250000D03*
X150300000Y-135750000D03*
X154500000Y-135750000D03*
X158700000Y-135750000D03*
%TD*%
D12*
%TO.C,J3*%
X132305000Y-65345000D03*
X132305000Y-74845000D03*
X132305000Y-84345000D03*
X132305000Y-93845000D03*
X132305000Y-103345000D03*
X132305000Y-112845000D03*
X132305000Y-122345000D03*
X132305000Y-131845000D03*
%TD*%
D13*
%TO.C,R6*%
X139700000Y-85090000D03*
X160020000Y-85090000D03*
%TD*%
D14*
%TO.C,J2*%
X186250000Y-121600000D03*
D15*
X186250000Y-117400000D03*
X186250000Y-113200000D03*
X186250000Y-109000000D03*
X186250000Y-104800000D03*
X186250000Y-100600000D03*
X186250000Y-96400000D03*
X186250000Y-92200000D03*
X186250000Y-88000000D03*
X186250000Y-83800000D03*
X186250000Y-79600000D03*
X186250000Y-75400000D03*
X191750000Y-121600000D03*
X191750000Y-117400000D03*
X191750000Y-113200000D03*
X191750000Y-109000000D03*
X191750000Y-104800000D03*
X191750000Y-100600000D03*
X191750000Y-96400000D03*
X191750000Y-92200000D03*
X191750000Y-88000000D03*
X191750000Y-83800000D03*
X191750000Y-79600000D03*
X191750000Y-75400000D03*
%TD*%
D16*
%TO.C,U4*%
X170180000Y-76050000D03*
D17*
X167640000Y-92710000D03*
D18*
X170180000Y-92710000D03*
X172720000Y-92710000D03*
%TD*%
M02*
