%TF.GenerationSoftware,KiCad,Pcbnew,7.0.1*%
%TF.CreationDate,2024-01-01T19:45:24+00:00*%
%TF.ProjectId,PowerDelivery,506f7765-7244-4656-9c69-766572792e6b,rev?*%
%TF.SameCoordinates,Original*%
%TF.FileFunction,Legend,Top*%
%TF.FilePolarity,Positive*%
%FSLAX46Y46*%
G04 Gerber Fmt 4.6, Leading zero omitted, Abs format (unit mm)*
G04 Created by KiCad (PCBNEW 7.0.1) date 2024-01-01 19:45:24*
%MOMM*%
%LPD*%
G01*
G04 APERTURE LIST*
%ADD10C,0.150000*%
%ADD11C,0.120000*%
G04 APERTURE END LIST*
D10*
%TO.C,R10*%
X147947142Y-93172619D02*
X147613809Y-92696428D01*
X147375714Y-93172619D02*
X147375714Y-92172619D01*
X147375714Y-92172619D02*
X147756666Y-92172619D01*
X147756666Y-92172619D02*
X147851904Y-92220238D01*
X147851904Y-92220238D02*
X147899523Y-92267857D01*
X147899523Y-92267857D02*
X147947142Y-92363095D01*
X147947142Y-92363095D02*
X147947142Y-92505952D01*
X147947142Y-92505952D02*
X147899523Y-92601190D01*
X147899523Y-92601190D02*
X147851904Y-92648809D01*
X147851904Y-92648809D02*
X147756666Y-92696428D01*
X147756666Y-92696428D02*
X147375714Y-92696428D01*
X148899523Y-93172619D02*
X148328095Y-93172619D01*
X148613809Y-93172619D02*
X148613809Y-92172619D01*
X148613809Y-92172619D02*
X148518571Y-92315476D01*
X148518571Y-92315476D02*
X148423333Y-92410714D01*
X148423333Y-92410714D02*
X148328095Y-92458333D01*
X149518571Y-92172619D02*
X149613809Y-92172619D01*
X149613809Y-92172619D02*
X149709047Y-92220238D01*
X149709047Y-92220238D02*
X149756666Y-92267857D01*
X149756666Y-92267857D02*
X149804285Y-92363095D01*
X149804285Y-92363095D02*
X149851904Y-92553571D01*
X149851904Y-92553571D02*
X149851904Y-92791666D01*
X149851904Y-92791666D02*
X149804285Y-92982142D01*
X149804285Y-92982142D02*
X149756666Y-93077380D01*
X149756666Y-93077380D02*
X149709047Y-93125000D01*
X149709047Y-93125000D02*
X149613809Y-93172619D01*
X149613809Y-93172619D02*
X149518571Y-93172619D01*
X149518571Y-93172619D02*
X149423333Y-93125000D01*
X149423333Y-93125000D02*
X149375714Y-93077380D01*
X149375714Y-93077380D02*
X149328095Y-92982142D01*
X149328095Y-92982142D02*
X149280476Y-92791666D01*
X149280476Y-92791666D02*
X149280476Y-92553571D01*
X149280476Y-92553571D02*
X149328095Y-92363095D01*
X149328095Y-92363095D02*
X149375714Y-92267857D01*
X149375714Y-92267857D02*
X149423333Y-92220238D01*
X149423333Y-92220238D02*
X149518571Y-92172619D01*
%TO.C,J1*%
X153962619Y-127133333D02*
X154676904Y-127133333D01*
X154676904Y-127133333D02*
X154819761Y-127180952D01*
X154819761Y-127180952D02*
X154915000Y-127276190D01*
X154915000Y-127276190D02*
X154962619Y-127419047D01*
X154962619Y-127419047D02*
X154962619Y-127514285D01*
X154962619Y-126133333D02*
X154962619Y-126704761D01*
X154962619Y-126419047D02*
X153962619Y-126419047D01*
X153962619Y-126419047D02*
X154105476Y-126514285D01*
X154105476Y-126514285D02*
X154200714Y-126609523D01*
X154200714Y-126609523D02*
X154248333Y-126704761D01*
%TO.C,J3*%
X137826666Y-96832619D02*
X137826666Y-97546904D01*
X137826666Y-97546904D02*
X137779047Y-97689761D01*
X137779047Y-97689761D02*
X137683809Y-97785000D01*
X137683809Y-97785000D02*
X137540952Y-97832619D01*
X137540952Y-97832619D02*
X137445714Y-97832619D01*
X138207619Y-96832619D02*
X138826666Y-96832619D01*
X138826666Y-96832619D02*
X138493333Y-97213571D01*
X138493333Y-97213571D02*
X138636190Y-97213571D01*
X138636190Y-97213571D02*
X138731428Y-97261190D01*
X138731428Y-97261190D02*
X138779047Y-97308809D01*
X138779047Y-97308809D02*
X138826666Y-97404047D01*
X138826666Y-97404047D02*
X138826666Y-97642142D01*
X138826666Y-97642142D02*
X138779047Y-97737380D01*
X138779047Y-97737380D02*
X138731428Y-97785000D01*
X138731428Y-97785000D02*
X138636190Y-97832619D01*
X138636190Y-97832619D02*
X138350476Y-97832619D01*
X138350476Y-97832619D02*
X138255238Y-97785000D01*
X138255238Y-97785000D02*
X138207619Y-97737380D01*
%TO.C,U1*%
X154243095Y-61467619D02*
X154243095Y-62277142D01*
X154243095Y-62277142D02*
X154290714Y-62372380D01*
X154290714Y-62372380D02*
X154338333Y-62420000D01*
X154338333Y-62420000D02*
X154433571Y-62467619D01*
X154433571Y-62467619D02*
X154624047Y-62467619D01*
X154624047Y-62467619D02*
X154719285Y-62420000D01*
X154719285Y-62420000D02*
X154766904Y-62372380D01*
X154766904Y-62372380D02*
X154814523Y-62277142D01*
X154814523Y-62277142D02*
X154814523Y-61467619D01*
X155814523Y-62467619D02*
X155243095Y-62467619D01*
X155528809Y-62467619D02*
X155528809Y-61467619D01*
X155528809Y-61467619D02*
X155433571Y-61610476D01*
X155433571Y-61610476D02*
X155338333Y-61705714D01*
X155338333Y-61705714D02*
X155243095Y-61753333D01*
%TO.C,D1*%
X156741905Y-93172619D02*
X156741905Y-92172619D01*
X156741905Y-92172619D02*
X156980000Y-92172619D01*
X156980000Y-92172619D02*
X157122857Y-92220238D01*
X157122857Y-92220238D02*
X157218095Y-92315476D01*
X157218095Y-92315476D02*
X157265714Y-92410714D01*
X157265714Y-92410714D02*
X157313333Y-92601190D01*
X157313333Y-92601190D02*
X157313333Y-92744047D01*
X157313333Y-92744047D02*
X157265714Y-92934523D01*
X157265714Y-92934523D02*
X157218095Y-93029761D01*
X157218095Y-93029761D02*
X157122857Y-93125000D01*
X157122857Y-93125000D02*
X156980000Y-93172619D01*
X156980000Y-93172619D02*
X156741905Y-93172619D01*
X158265714Y-93172619D02*
X157694286Y-93172619D01*
X157980000Y-93172619D02*
X157980000Y-92172619D01*
X157980000Y-92172619D02*
X157884762Y-92315476D01*
X157884762Y-92315476D02*
X157789524Y-92410714D01*
X157789524Y-92410714D02*
X157694286Y-92458333D01*
%TO.C,R6*%
X149693333Y-85552619D02*
X149360000Y-85076428D01*
X149121905Y-85552619D02*
X149121905Y-84552619D01*
X149121905Y-84552619D02*
X149502857Y-84552619D01*
X149502857Y-84552619D02*
X149598095Y-84600238D01*
X149598095Y-84600238D02*
X149645714Y-84647857D01*
X149645714Y-84647857D02*
X149693333Y-84743095D01*
X149693333Y-84743095D02*
X149693333Y-84885952D01*
X149693333Y-84885952D02*
X149645714Y-84981190D01*
X149645714Y-84981190D02*
X149598095Y-85028809D01*
X149598095Y-85028809D02*
X149502857Y-85076428D01*
X149502857Y-85076428D02*
X149121905Y-85076428D01*
X150550476Y-84552619D02*
X150360000Y-84552619D01*
X150360000Y-84552619D02*
X150264762Y-84600238D01*
X150264762Y-84600238D02*
X150217143Y-84647857D01*
X150217143Y-84647857D02*
X150121905Y-84790714D01*
X150121905Y-84790714D02*
X150074286Y-84981190D01*
X150074286Y-84981190D02*
X150074286Y-85362142D01*
X150074286Y-85362142D02*
X150121905Y-85457380D01*
X150121905Y-85457380D02*
X150169524Y-85505000D01*
X150169524Y-85505000D02*
X150264762Y-85552619D01*
X150264762Y-85552619D02*
X150455238Y-85552619D01*
X150455238Y-85552619D02*
X150550476Y-85505000D01*
X150550476Y-85505000D02*
X150598095Y-85457380D01*
X150598095Y-85457380D02*
X150645714Y-85362142D01*
X150645714Y-85362142D02*
X150645714Y-85124047D01*
X150645714Y-85124047D02*
X150598095Y-85028809D01*
X150598095Y-85028809D02*
X150550476Y-84981190D01*
X150550476Y-84981190D02*
X150455238Y-84933571D01*
X150455238Y-84933571D02*
X150264762Y-84933571D01*
X150264762Y-84933571D02*
X150169524Y-84981190D01*
X150169524Y-84981190D02*
X150121905Y-85028809D01*
X150121905Y-85028809D02*
X150074286Y-85124047D01*
%TO.C,R4*%
X149693333Y-77932619D02*
X149360000Y-77456428D01*
X149121905Y-77932619D02*
X149121905Y-76932619D01*
X149121905Y-76932619D02*
X149502857Y-76932619D01*
X149502857Y-76932619D02*
X149598095Y-76980238D01*
X149598095Y-76980238D02*
X149645714Y-77027857D01*
X149645714Y-77027857D02*
X149693333Y-77123095D01*
X149693333Y-77123095D02*
X149693333Y-77265952D01*
X149693333Y-77265952D02*
X149645714Y-77361190D01*
X149645714Y-77361190D02*
X149598095Y-77408809D01*
X149598095Y-77408809D02*
X149502857Y-77456428D01*
X149502857Y-77456428D02*
X149121905Y-77456428D01*
X150550476Y-77265952D02*
X150550476Y-77932619D01*
X150312381Y-76885000D02*
X150074286Y-77599285D01*
X150074286Y-77599285D02*
X150693333Y-77599285D01*
%TO.C,U3*%
X141478095Y-89307619D02*
X141478095Y-90117142D01*
X141478095Y-90117142D02*
X141525714Y-90212380D01*
X141525714Y-90212380D02*
X141573333Y-90260000D01*
X141573333Y-90260000D02*
X141668571Y-90307619D01*
X141668571Y-90307619D02*
X141859047Y-90307619D01*
X141859047Y-90307619D02*
X141954285Y-90260000D01*
X141954285Y-90260000D02*
X142001904Y-90212380D01*
X142001904Y-90212380D02*
X142049523Y-90117142D01*
X142049523Y-90117142D02*
X142049523Y-89307619D01*
X142430476Y-89307619D02*
X143049523Y-89307619D01*
X143049523Y-89307619D02*
X142716190Y-89688571D01*
X142716190Y-89688571D02*
X142859047Y-89688571D01*
X142859047Y-89688571D02*
X142954285Y-89736190D01*
X142954285Y-89736190D02*
X143001904Y-89783809D01*
X143001904Y-89783809D02*
X143049523Y-89879047D01*
X143049523Y-89879047D02*
X143049523Y-90117142D01*
X143049523Y-90117142D02*
X143001904Y-90212380D01*
X143001904Y-90212380D02*
X142954285Y-90260000D01*
X142954285Y-90260000D02*
X142859047Y-90307619D01*
X142859047Y-90307619D02*
X142573333Y-90307619D01*
X142573333Y-90307619D02*
X142478095Y-90260000D01*
X142478095Y-90260000D02*
X142430476Y-90212380D01*
%TO.C,RV1*%
X147404761Y-112222619D02*
X147071428Y-111746428D01*
X146833333Y-112222619D02*
X146833333Y-111222619D01*
X146833333Y-111222619D02*
X147214285Y-111222619D01*
X147214285Y-111222619D02*
X147309523Y-111270238D01*
X147309523Y-111270238D02*
X147357142Y-111317857D01*
X147357142Y-111317857D02*
X147404761Y-111413095D01*
X147404761Y-111413095D02*
X147404761Y-111555952D01*
X147404761Y-111555952D02*
X147357142Y-111651190D01*
X147357142Y-111651190D02*
X147309523Y-111698809D01*
X147309523Y-111698809D02*
X147214285Y-111746428D01*
X147214285Y-111746428D02*
X146833333Y-111746428D01*
X147690476Y-111222619D02*
X148023809Y-112222619D01*
X148023809Y-112222619D02*
X148357142Y-111222619D01*
X149214285Y-112222619D02*
X148642857Y-112222619D01*
X148928571Y-112222619D02*
X148928571Y-111222619D01*
X148928571Y-111222619D02*
X148833333Y-111365476D01*
X148833333Y-111365476D02*
X148738095Y-111460714D01*
X148738095Y-111460714D02*
X148642857Y-111508333D01*
%TO.C,Q1*%
X158654761Y-109917857D02*
X158559523Y-109870238D01*
X158559523Y-109870238D02*
X158464285Y-109775000D01*
X158464285Y-109775000D02*
X158321428Y-109632142D01*
X158321428Y-109632142D02*
X158226190Y-109584523D01*
X158226190Y-109584523D02*
X158130952Y-109584523D01*
X158178571Y-109822619D02*
X158083333Y-109775000D01*
X158083333Y-109775000D02*
X157988095Y-109679761D01*
X157988095Y-109679761D02*
X157940476Y-109489285D01*
X157940476Y-109489285D02*
X157940476Y-109155952D01*
X157940476Y-109155952D02*
X157988095Y-108965476D01*
X157988095Y-108965476D02*
X158083333Y-108870238D01*
X158083333Y-108870238D02*
X158178571Y-108822619D01*
X158178571Y-108822619D02*
X158369047Y-108822619D01*
X158369047Y-108822619D02*
X158464285Y-108870238D01*
X158464285Y-108870238D02*
X158559523Y-108965476D01*
X158559523Y-108965476D02*
X158607142Y-109155952D01*
X158607142Y-109155952D02*
X158607142Y-109489285D01*
X158607142Y-109489285D02*
X158559523Y-109679761D01*
X158559523Y-109679761D02*
X158464285Y-109775000D01*
X158464285Y-109775000D02*
X158369047Y-109822619D01*
X158369047Y-109822619D02*
X158178571Y-109822619D01*
X159559523Y-109822619D02*
X158988095Y-109822619D01*
X159273809Y-109822619D02*
X159273809Y-108822619D01*
X159273809Y-108822619D02*
X159178571Y-108965476D01*
X159178571Y-108965476D02*
X159083333Y-109060714D01*
X159083333Y-109060714D02*
X158988095Y-109108333D01*
%TO.C,R16*%
X158107142Y-118952619D02*
X157773809Y-118476428D01*
X157535714Y-118952619D02*
X157535714Y-117952619D01*
X157535714Y-117952619D02*
X157916666Y-117952619D01*
X157916666Y-117952619D02*
X158011904Y-118000238D01*
X158011904Y-118000238D02*
X158059523Y-118047857D01*
X158059523Y-118047857D02*
X158107142Y-118143095D01*
X158107142Y-118143095D02*
X158107142Y-118285952D01*
X158107142Y-118285952D02*
X158059523Y-118381190D01*
X158059523Y-118381190D02*
X158011904Y-118428809D01*
X158011904Y-118428809D02*
X157916666Y-118476428D01*
X157916666Y-118476428D02*
X157535714Y-118476428D01*
X159059523Y-118952619D02*
X158488095Y-118952619D01*
X158773809Y-118952619D02*
X158773809Y-117952619D01*
X158773809Y-117952619D02*
X158678571Y-118095476D01*
X158678571Y-118095476D02*
X158583333Y-118190714D01*
X158583333Y-118190714D02*
X158488095Y-118238333D01*
X159916666Y-117952619D02*
X159726190Y-117952619D01*
X159726190Y-117952619D02*
X159630952Y-118000238D01*
X159630952Y-118000238D02*
X159583333Y-118047857D01*
X159583333Y-118047857D02*
X159488095Y-118190714D01*
X159488095Y-118190714D02*
X159440476Y-118381190D01*
X159440476Y-118381190D02*
X159440476Y-118762142D01*
X159440476Y-118762142D02*
X159488095Y-118857380D01*
X159488095Y-118857380D02*
X159535714Y-118905000D01*
X159535714Y-118905000D02*
X159630952Y-118952619D01*
X159630952Y-118952619D02*
X159821428Y-118952619D01*
X159821428Y-118952619D02*
X159916666Y-118905000D01*
X159916666Y-118905000D02*
X159964285Y-118857380D01*
X159964285Y-118857380D02*
X160011904Y-118762142D01*
X160011904Y-118762142D02*
X160011904Y-118524047D01*
X160011904Y-118524047D02*
X159964285Y-118428809D01*
X159964285Y-118428809D02*
X159916666Y-118381190D01*
X159916666Y-118381190D02*
X159821428Y-118333571D01*
X159821428Y-118333571D02*
X159630952Y-118333571D01*
X159630952Y-118333571D02*
X159535714Y-118381190D01*
X159535714Y-118381190D02*
X159488095Y-118428809D01*
X159488095Y-118428809D02*
X159440476Y-118524047D01*
%TO.C,C1*%
X149693333Y-117207380D02*
X149645714Y-117255000D01*
X149645714Y-117255000D02*
X149502857Y-117302619D01*
X149502857Y-117302619D02*
X149407619Y-117302619D01*
X149407619Y-117302619D02*
X149264762Y-117255000D01*
X149264762Y-117255000D02*
X149169524Y-117159761D01*
X149169524Y-117159761D02*
X149121905Y-117064523D01*
X149121905Y-117064523D02*
X149074286Y-116874047D01*
X149074286Y-116874047D02*
X149074286Y-116731190D01*
X149074286Y-116731190D02*
X149121905Y-116540714D01*
X149121905Y-116540714D02*
X149169524Y-116445476D01*
X149169524Y-116445476D02*
X149264762Y-116350238D01*
X149264762Y-116350238D02*
X149407619Y-116302619D01*
X149407619Y-116302619D02*
X149502857Y-116302619D01*
X149502857Y-116302619D02*
X149645714Y-116350238D01*
X149645714Y-116350238D02*
X149693333Y-116397857D01*
X150645714Y-117302619D02*
X150074286Y-117302619D01*
X150360000Y-117302619D02*
X150360000Y-116302619D01*
X150360000Y-116302619D02*
X150264762Y-116445476D01*
X150264762Y-116445476D02*
X150169524Y-116540714D01*
X150169524Y-116540714D02*
X150074286Y-116588333D01*
%TO.C,R8*%
X138263333Y-66502619D02*
X137930000Y-66026428D01*
X137691905Y-66502619D02*
X137691905Y-65502619D01*
X137691905Y-65502619D02*
X138072857Y-65502619D01*
X138072857Y-65502619D02*
X138168095Y-65550238D01*
X138168095Y-65550238D02*
X138215714Y-65597857D01*
X138215714Y-65597857D02*
X138263333Y-65693095D01*
X138263333Y-65693095D02*
X138263333Y-65835952D01*
X138263333Y-65835952D02*
X138215714Y-65931190D01*
X138215714Y-65931190D02*
X138168095Y-65978809D01*
X138168095Y-65978809D02*
X138072857Y-66026428D01*
X138072857Y-66026428D02*
X137691905Y-66026428D01*
X138834762Y-65931190D02*
X138739524Y-65883571D01*
X138739524Y-65883571D02*
X138691905Y-65835952D01*
X138691905Y-65835952D02*
X138644286Y-65740714D01*
X138644286Y-65740714D02*
X138644286Y-65693095D01*
X138644286Y-65693095D02*
X138691905Y-65597857D01*
X138691905Y-65597857D02*
X138739524Y-65550238D01*
X138739524Y-65550238D02*
X138834762Y-65502619D01*
X138834762Y-65502619D02*
X139025238Y-65502619D01*
X139025238Y-65502619D02*
X139120476Y-65550238D01*
X139120476Y-65550238D02*
X139168095Y-65597857D01*
X139168095Y-65597857D02*
X139215714Y-65693095D01*
X139215714Y-65693095D02*
X139215714Y-65740714D01*
X139215714Y-65740714D02*
X139168095Y-65835952D01*
X139168095Y-65835952D02*
X139120476Y-65883571D01*
X139120476Y-65883571D02*
X139025238Y-65931190D01*
X139025238Y-65931190D02*
X138834762Y-65931190D01*
X138834762Y-65931190D02*
X138739524Y-65978809D01*
X138739524Y-65978809D02*
X138691905Y-66026428D01*
X138691905Y-66026428D02*
X138644286Y-66121666D01*
X138644286Y-66121666D02*
X138644286Y-66312142D01*
X138644286Y-66312142D02*
X138691905Y-66407380D01*
X138691905Y-66407380D02*
X138739524Y-66455000D01*
X138739524Y-66455000D02*
X138834762Y-66502619D01*
X138834762Y-66502619D02*
X139025238Y-66502619D01*
X139025238Y-66502619D02*
X139120476Y-66455000D01*
X139120476Y-66455000D02*
X139168095Y-66407380D01*
X139168095Y-66407380D02*
X139215714Y-66312142D01*
X139215714Y-66312142D02*
X139215714Y-66121666D01*
X139215714Y-66121666D02*
X139168095Y-66026428D01*
X139168095Y-66026428D02*
X139120476Y-65978809D01*
X139120476Y-65978809D02*
X139025238Y-65931190D01*
%TO.C,C2*%
X167473333Y-117207380D02*
X167425714Y-117255000D01*
X167425714Y-117255000D02*
X167282857Y-117302619D01*
X167282857Y-117302619D02*
X167187619Y-117302619D01*
X167187619Y-117302619D02*
X167044762Y-117255000D01*
X167044762Y-117255000D02*
X166949524Y-117159761D01*
X166949524Y-117159761D02*
X166901905Y-117064523D01*
X166901905Y-117064523D02*
X166854286Y-116874047D01*
X166854286Y-116874047D02*
X166854286Y-116731190D01*
X166854286Y-116731190D02*
X166901905Y-116540714D01*
X166901905Y-116540714D02*
X166949524Y-116445476D01*
X166949524Y-116445476D02*
X167044762Y-116350238D01*
X167044762Y-116350238D02*
X167187619Y-116302619D01*
X167187619Y-116302619D02*
X167282857Y-116302619D01*
X167282857Y-116302619D02*
X167425714Y-116350238D01*
X167425714Y-116350238D02*
X167473333Y-116397857D01*
X167854286Y-116397857D02*
X167901905Y-116350238D01*
X167901905Y-116350238D02*
X167997143Y-116302619D01*
X167997143Y-116302619D02*
X168235238Y-116302619D01*
X168235238Y-116302619D02*
X168330476Y-116350238D01*
X168330476Y-116350238D02*
X168378095Y-116397857D01*
X168378095Y-116397857D02*
X168425714Y-116493095D01*
X168425714Y-116493095D02*
X168425714Y-116588333D01*
X168425714Y-116588333D02*
X168378095Y-116731190D01*
X168378095Y-116731190D02*
X167806667Y-117302619D01*
X167806667Y-117302619D02*
X168425714Y-117302619D01*
%TO.C,U5*%
X159258095Y-100837619D02*
X159258095Y-101647142D01*
X159258095Y-101647142D02*
X159305714Y-101742380D01*
X159305714Y-101742380D02*
X159353333Y-101790000D01*
X159353333Y-101790000D02*
X159448571Y-101837619D01*
X159448571Y-101837619D02*
X159639047Y-101837619D01*
X159639047Y-101837619D02*
X159734285Y-101790000D01*
X159734285Y-101790000D02*
X159781904Y-101742380D01*
X159781904Y-101742380D02*
X159829523Y-101647142D01*
X159829523Y-101647142D02*
X159829523Y-100837619D01*
X160781904Y-100837619D02*
X160305714Y-100837619D01*
X160305714Y-100837619D02*
X160258095Y-101313809D01*
X160258095Y-101313809D02*
X160305714Y-101266190D01*
X160305714Y-101266190D02*
X160400952Y-101218571D01*
X160400952Y-101218571D02*
X160639047Y-101218571D01*
X160639047Y-101218571D02*
X160734285Y-101266190D01*
X160734285Y-101266190D02*
X160781904Y-101313809D01*
X160781904Y-101313809D02*
X160829523Y-101409047D01*
X160829523Y-101409047D02*
X160829523Y-101647142D01*
X160829523Y-101647142D02*
X160781904Y-101742380D01*
X160781904Y-101742380D02*
X160734285Y-101790000D01*
X160734285Y-101790000D02*
X160639047Y-101837619D01*
X160639047Y-101837619D02*
X160400952Y-101837619D01*
X160400952Y-101837619D02*
X160305714Y-101790000D01*
X160305714Y-101790000D02*
X160258095Y-101742380D01*
%TO.C,R14*%
X147947142Y-107142619D02*
X147613809Y-106666428D01*
X147375714Y-107142619D02*
X147375714Y-106142619D01*
X147375714Y-106142619D02*
X147756666Y-106142619D01*
X147756666Y-106142619D02*
X147851904Y-106190238D01*
X147851904Y-106190238D02*
X147899523Y-106237857D01*
X147899523Y-106237857D02*
X147947142Y-106333095D01*
X147947142Y-106333095D02*
X147947142Y-106475952D01*
X147947142Y-106475952D02*
X147899523Y-106571190D01*
X147899523Y-106571190D02*
X147851904Y-106618809D01*
X147851904Y-106618809D02*
X147756666Y-106666428D01*
X147756666Y-106666428D02*
X147375714Y-106666428D01*
X148899523Y-107142619D02*
X148328095Y-107142619D01*
X148613809Y-107142619D02*
X148613809Y-106142619D01*
X148613809Y-106142619D02*
X148518571Y-106285476D01*
X148518571Y-106285476D02*
X148423333Y-106380714D01*
X148423333Y-106380714D02*
X148328095Y-106428333D01*
X149756666Y-106475952D02*
X149756666Y-107142619D01*
X149518571Y-106095000D02*
X149280476Y-106809285D01*
X149280476Y-106809285D02*
X149899523Y-106809285D01*
%TO.C,J2*%
X182466666Y-97962619D02*
X182466666Y-98676904D01*
X182466666Y-98676904D02*
X182419047Y-98819761D01*
X182419047Y-98819761D02*
X182323809Y-98915000D01*
X182323809Y-98915000D02*
X182180952Y-98962619D01*
X182180952Y-98962619D02*
X182085714Y-98962619D01*
X182895238Y-98057857D02*
X182942857Y-98010238D01*
X182942857Y-98010238D02*
X183038095Y-97962619D01*
X183038095Y-97962619D02*
X183276190Y-97962619D01*
X183276190Y-97962619D02*
X183371428Y-98010238D01*
X183371428Y-98010238D02*
X183419047Y-98057857D01*
X183419047Y-98057857D02*
X183466666Y-98153095D01*
X183466666Y-98153095D02*
X183466666Y-98248333D01*
X183466666Y-98248333D02*
X183419047Y-98391190D01*
X183419047Y-98391190D02*
X182847619Y-98962619D01*
X182847619Y-98962619D02*
X183466666Y-98962619D01*
%TO.C,R9*%
X138263333Y-77932619D02*
X137930000Y-77456428D01*
X137691905Y-77932619D02*
X137691905Y-76932619D01*
X137691905Y-76932619D02*
X138072857Y-76932619D01*
X138072857Y-76932619D02*
X138168095Y-76980238D01*
X138168095Y-76980238D02*
X138215714Y-77027857D01*
X138215714Y-77027857D02*
X138263333Y-77123095D01*
X138263333Y-77123095D02*
X138263333Y-77265952D01*
X138263333Y-77265952D02*
X138215714Y-77361190D01*
X138215714Y-77361190D02*
X138168095Y-77408809D01*
X138168095Y-77408809D02*
X138072857Y-77456428D01*
X138072857Y-77456428D02*
X137691905Y-77456428D01*
X138739524Y-77932619D02*
X138930000Y-77932619D01*
X138930000Y-77932619D02*
X139025238Y-77885000D01*
X139025238Y-77885000D02*
X139072857Y-77837380D01*
X139072857Y-77837380D02*
X139168095Y-77694523D01*
X139168095Y-77694523D02*
X139215714Y-77504047D01*
X139215714Y-77504047D02*
X139215714Y-77123095D01*
X139215714Y-77123095D02*
X139168095Y-77027857D01*
X139168095Y-77027857D02*
X139120476Y-76980238D01*
X139120476Y-76980238D02*
X139025238Y-76932619D01*
X139025238Y-76932619D02*
X138834762Y-76932619D01*
X138834762Y-76932619D02*
X138739524Y-76980238D01*
X138739524Y-76980238D02*
X138691905Y-77027857D01*
X138691905Y-77027857D02*
X138644286Y-77123095D01*
X138644286Y-77123095D02*
X138644286Y-77361190D01*
X138644286Y-77361190D02*
X138691905Y-77456428D01*
X138691905Y-77456428D02*
X138739524Y-77504047D01*
X138739524Y-77504047D02*
X138834762Y-77551666D01*
X138834762Y-77551666D02*
X139025238Y-77551666D01*
X139025238Y-77551666D02*
X139120476Y-77504047D01*
X139120476Y-77504047D02*
X139168095Y-77456428D01*
X139168095Y-77456428D02*
X139215714Y-77361190D01*
%TO.C,R3*%
X149693333Y-66502619D02*
X149360000Y-66026428D01*
X149121905Y-66502619D02*
X149121905Y-65502619D01*
X149121905Y-65502619D02*
X149502857Y-65502619D01*
X149502857Y-65502619D02*
X149598095Y-65550238D01*
X149598095Y-65550238D02*
X149645714Y-65597857D01*
X149645714Y-65597857D02*
X149693333Y-65693095D01*
X149693333Y-65693095D02*
X149693333Y-65835952D01*
X149693333Y-65835952D02*
X149645714Y-65931190D01*
X149645714Y-65931190D02*
X149598095Y-65978809D01*
X149598095Y-65978809D02*
X149502857Y-66026428D01*
X149502857Y-66026428D02*
X149121905Y-66026428D01*
X150026667Y-65502619D02*
X150645714Y-65502619D01*
X150645714Y-65502619D02*
X150312381Y-65883571D01*
X150312381Y-65883571D02*
X150455238Y-65883571D01*
X150455238Y-65883571D02*
X150550476Y-65931190D01*
X150550476Y-65931190D02*
X150598095Y-65978809D01*
X150598095Y-65978809D02*
X150645714Y-66074047D01*
X150645714Y-66074047D02*
X150645714Y-66312142D01*
X150645714Y-66312142D02*
X150598095Y-66407380D01*
X150598095Y-66407380D02*
X150550476Y-66455000D01*
X150550476Y-66455000D02*
X150455238Y-66502619D01*
X150455238Y-66502619D02*
X150169524Y-66502619D01*
X150169524Y-66502619D02*
X150074286Y-66455000D01*
X150074286Y-66455000D02*
X150026667Y-66407380D01*
%TO.C,U4*%
X169418095Y-71592619D02*
X169418095Y-72402142D01*
X169418095Y-72402142D02*
X169465714Y-72497380D01*
X169465714Y-72497380D02*
X169513333Y-72545000D01*
X169513333Y-72545000D02*
X169608571Y-72592619D01*
X169608571Y-72592619D02*
X169799047Y-72592619D01*
X169799047Y-72592619D02*
X169894285Y-72545000D01*
X169894285Y-72545000D02*
X169941904Y-72497380D01*
X169941904Y-72497380D02*
X169989523Y-72402142D01*
X169989523Y-72402142D02*
X169989523Y-71592619D01*
X170894285Y-71925952D02*
X170894285Y-72592619D01*
X170656190Y-71545000D02*
X170418095Y-72259285D01*
X170418095Y-72259285D02*
X171037142Y-72259285D01*
%TO.C,U2*%
X154178095Y-72897619D02*
X154178095Y-73707142D01*
X154178095Y-73707142D02*
X154225714Y-73802380D01*
X154225714Y-73802380D02*
X154273333Y-73850000D01*
X154273333Y-73850000D02*
X154368571Y-73897619D01*
X154368571Y-73897619D02*
X154559047Y-73897619D01*
X154559047Y-73897619D02*
X154654285Y-73850000D01*
X154654285Y-73850000D02*
X154701904Y-73802380D01*
X154701904Y-73802380D02*
X154749523Y-73707142D01*
X154749523Y-73707142D02*
X154749523Y-72897619D01*
X155178095Y-72992857D02*
X155225714Y-72945238D01*
X155225714Y-72945238D02*
X155320952Y-72897619D01*
X155320952Y-72897619D02*
X155559047Y-72897619D01*
X155559047Y-72897619D02*
X155654285Y-72945238D01*
X155654285Y-72945238D02*
X155701904Y-72992857D01*
X155701904Y-72992857D02*
X155749523Y-73088095D01*
X155749523Y-73088095D02*
X155749523Y-73183333D01*
X155749523Y-73183333D02*
X155701904Y-73326190D01*
X155701904Y-73326190D02*
X155130476Y-73897619D01*
X155130476Y-73897619D02*
X155749523Y-73897619D01*
%TO.C,R12*%
X147947142Y-98252619D02*
X147613809Y-97776428D01*
X147375714Y-98252619D02*
X147375714Y-97252619D01*
X147375714Y-97252619D02*
X147756666Y-97252619D01*
X147756666Y-97252619D02*
X147851904Y-97300238D01*
X147851904Y-97300238D02*
X147899523Y-97347857D01*
X147899523Y-97347857D02*
X147947142Y-97443095D01*
X147947142Y-97443095D02*
X147947142Y-97585952D01*
X147947142Y-97585952D02*
X147899523Y-97681190D01*
X147899523Y-97681190D02*
X147851904Y-97728809D01*
X147851904Y-97728809D02*
X147756666Y-97776428D01*
X147756666Y-97776428D02*
X147375714Y-97776428D01*
X148899523Y-98252619D02*
X148328095Y-98252619D01*
X148613809Y-98252619D02*
X148613809Y-97252619D01*
X148613809Y-97252619D02*
X148518571Y-97395476D01*
X148518571Y-97395476D02*
X148423333Y-97490714D01*
X148423333Y-97490714D02*
X148328095Y-97538333D01*
X149280476Y-97347857D02*
X149328095Y-97300238D01*
X149328095Y-97300238D02*
X149423333Y-97252619D01*
X149423333Y-97252619D02*
X149661428Y-97252619D01*
X149661428Y-97252619D02*
X149756666Y-97300238D01*
X149756666Y-97300238D02*
X149804285Y-97347857D01*
X149804285Y-97347857D02*
X149851904Y-97443095D01*
X149851904Y-97443095D02*
X149851904Y-97538333D01*
X149851904Y-97538333D02*
X149804285Y-97681190D01*
X149804285Y-97681190D02*
X149232857Y-98252619D01*
X149232857Y-98252619D02*
X149851904Y-98252619D01*
%TO.C,R2*%
X149693333Y-75392619D02*
X149360000Y-74916428D01*
X149121905Y-75392619D02*
X149121905Y-74392619D01*
X149121905Y-74392619D02*
X149502857Y-74392619D01*
X149502857Y-74392619D02*
X149598095Y-74440238D01*
X149598095Y-74440238D02*
X149645714Y-74487857D01*
X149645714Y-74487857D02*
X149693333Y-74583095D01*
X149693333Y-74583095D02*
X149693333Y-74725952D01*
X149693333Y-74725952D02*
X149645714Y-74821190D01*
X149645714Y-74821190D02*
X149598095Y-74868809D01*
X149598095Y-74868809D02*
X149502857Y-74916428D01*
X149502857Y-74916428D02*
X149121905Y-74916428D01*
X150074286Y-74487857D02*
X150121905Y-74440238D01*
X150121905Y-74440238D02*
X150217143Y-74392619D01*
X150217143Y-74392619D02*
X150455238Y-74392619D01*
X150455238Y-74392619D02*
X150550476Y-74440238D01*
X150550476Y-74440238D02*
X150598095Y-74487857D01*
X150598095Y-74487857D02*
X150645714Y-74583095D01*
X150645714Y-74583095D02*
X150645714Y-74678333D01*
X150645714Y-74678333D02*
X150598095Y-74821190D01*
X150598095Y-74821190D02*
X150026667Y-75392619D01*
X150026667Y-75392619D02*
X150645714Y-75392619D01*
%TO.C,R11*%
X147947142Y-95712619D02*
X147613809Y-95236428D01*
X147375714Y-95712619D02*
X147375714Y-94712619D01*
X147375714Y-94712619D02*
X147756666Y-94712619D01*
X147756666Y-94712619D02*
X147851904Y-94760238D01*
X147851904Y-94760238D02*
X147899523Y-94807857D01*
X147899523Y-94807857D02*
X147947142Y-94903095D01*
X147947142Y-94903095D02*
X147947142Y-95045952D01*
X147947142Y-95045952D02*
X147899523Y-95141190D01*
X147899523Y-95141190D02*
X147851904Y-95188809D01*
X147851904Y-95188809D02*
X147756666Y-95236428D01*
X147756666Y-95236428D02*
X147375714Y-95236428D01*
X148899523Y-95712619D02*
X148328095Y-95712619D01*
X148613809Y-95712619D02*
X148613809Y-94712619D01*
X148613809Y-94712619D02*
X148518571Y-94855476D01*
X148518571Y-94855476D02*
X148423333Y-94950714D01*
X148423333Y-94950714D02*
X148328095Y-94998333D01*
X149851904Y-95712619D02*
X149280476Y-95712619D01*
X149566190Y-95712619D02*
X149566190Y-94712619D01*
X149566190Y-94712619D02*
X149470952Y-94855476D01*
X149470952Y-94855476D02*
X149375714Y-94950714D01*
X149375714Y-94950714D02*
X149280476Y-94998333D01*
%TO.C,R13*%
X147947142Y-104602619D02*
X147613809Y-104126428D01*
X147375714Y-104602619D02*
X147375714Y-103602619D01*
X147375714Y-103602619D02*
X147756666Y-103602619D01*
X147756666Y-103602619D02*
X147851904Y-103650238D01*
X147851904Y-103650238D02*
X147899523Y-103697857D01*
X147899523Y-103697857D02*
X147947142Y-103793095D01*
X147947142Y-103793095D02*
X147947142Y-103935952D01*
X147947142Y-103935952D02*
X147899523Y-104031190D01*
X147899523Y-104031190D02*
X147851904Y-104078809D01*
X147851904Y-104078809D02*
X147756666Y-104126428D01*
X147756666Y-104126428D02*
X147375714Y-104126428D01*
X148899523Y-104602619D02*
X148328095Y-104602619D01*
X148613809Y-104602619D02*
X148613809Y-103602619D01*
X148613809Y-103602619D02*
X148518571Y-103745476D01*
X148518571Y-103745476D02*
X148423333Y-103840714D01*
X148423333Y-103840714D02*
X148328095Y-103888333D01*
X149232857Y-103602619D02*
X149851904Y-103602619D01*
X149851904Y-103602619D02*
X149518571Y-103983571D01*
X149518571Y-103983571D02*
X149661428Y-103983571D01*
X149661428Y-103983571D02*
X149756666Y-104031190D01*
X149756666Y-104031190D02*
X149804285Y-104078809D01*
X149804285Y-104078809D02*
X149851904Y-104174047D01*
X149851904Y-104174047D02*
X149851904Y-104412142D01*
X149851904Y-104412142D02*
X149804285Y-104507380D01*
X149804285Y-104507380D02*
X149756666Y-104555000D01*
X149756666Y-104555000D02*
X149661428Y-104602619D01*
X149661428Y-104602619D02*
X149375714Y-104602619D01*
X149375714Y-104602619D02*
X149280476Y-104555000D01*
X149280476Y-104555000D02*
X149232857Y-104507380D01*
%TO.C,R15*%
X165727142Y-112222619D02*
X165393809Y-111746428D01*
X165155714Y-112222619D02*
X165155714Y-111222619D01*
X165155714Y-111222619D02*
X165536666Y-111222619D01*
X165536666Y-111222619D02*
X165631904Y-111270238D01*
X165631904Y-111270238D02*
X165679523Y-111317857D01*
X165679523Y-111317857D02*
X165727142Y-111413095D01*
X165727142Y-111413095D02*
X165727142Y-111555952D01*
X165727142Y-111555952D02*
X165679523Y-111651190D01*
X165679523Y-111651190D02*
X165631904Y-111698809D01*
X165631904Y-111698809D02*
X165536666Y-111746428D01*
X165536666Y-111746428D02*
X165155714Y-111746428D01*
X166679523Y-112222619D02*
X166108095Y-112222619D01*
X166393809Y-112222619D02*
X166393809Y-111222619D01*
X166393809Y-111222619D02*
X166298571Y-111365476D01*
X166298571Y-111365476D02*
X166203333Y-111460714D01*
X166203333Y-111460714D02*
X166108095Y-111508333D01*
X167584285Y-111222619D02*
X167108095Y-111222619D01*
X167108095Y-111222619D02*
X167060476Y-111698809D01*
X167060476Y-111698809D02*
X167108095Y-111651190D01*
X167108095Y-111651190D02*
X167203333Y-111603571D01*
X167203333Y-111603571D02*
X167441428Y-111603571D01*
X167441428Y-111603571D02*
X167536666Y-111651190D01*
X167536666Y-111651190D02*
X167584285Y-111698809D01*
X167584285Y-111698809D02*
X167631904Y-111794047D01*
X167631904Y-111794047D02*
X167631904Y-112032142D01*
X167631904Y-112032142D02*
X167584285Y-112127380D01*
X167584285Y-112127380D02*
X167536666Y-112175000D01*
X167536666Y-112175000D02*
X167441428Y-112222619D01*
X167441428Y-112222619D02*
X167203333Y-112222619D01*
X167203333Y-112222619D02*
X167108095Y-112175000D01*
X167108095Y-112175000D02*
X167060476Y-112127380D01*
%TO.C,R1*%
X149693333Y-63962619D02*
X149360000Y-63486428D01*
X149121905Y-63962619D02*
X149121905Y-62962619D01*
X149121905Y-62962619D02*
X149502857Y-62962619D01*
X149502857Y-62962619D02*
X149598095Y-63010238D01*
X149598095Y-63010238D02*
X149645714Y-63057857D01*
X149645714Y-63057857D02*
X149693333Y-63153095D01*
X149693333Y-63153095D02*
X149693333Y-63295952D01*
X149693333Y-63295952D02*
X149645714Y-63391190D01*
X149645714Y-63391190D02*
X149598095Y-63438809D01*
X149598095Y-63438809D02*
X149502857Y-63486428D01*
X149502857Y-63486428D02*
X149121905Y-63486428D01*
X150645714Y-63962619D02*
X150074286Y-63962619D01*
X150360000Y-63962619D02*
X150360000Y-62962619D01*
X150360000Y-62962619D02*
X150264762Y-63105476D01*
X150264762Y-63105476D02*
X150169524Y-63200714D01*
X150169524Y-63200714D02*
X150074286Y-63248333D01*
%TO.C,R5*%
X138263333Y-63962619D02*
X137930000Y-63486428D01*
X137691905Y-63962619D02*
X137691905Y-62962619D01*
X137691905Y-62962619D02*
X138072857Y-62962619D01*
X138072857Y-62962619D02*
X138168095Y-63010238D01*
X138168095Y-63010238D02*
X138215714Y-63057857D01*
X138215714Y-63057857D02*
X138263333Y-63153095D01*
X138263333Y-63153095D02*
X138263333Y-63295952D01*
X138263333Y-63295952D02*
X138215714Y-63391190D01*
X138215714Y-63391190D02*
X138168095Y-63438809D01*
X138168095Y-63438809D02*
X138072857Y-63486428D01*
X138072857Y-63486428D02*
X137691905Y-63486428D01*
X139168095Y-62962619D02*
X138691905Y-62962619D01*
X138691905Y-62962619D02*
X138644286Y-63438809D01*
X138644286Y-63438809D02*
X138691905Y-63391190D01*
X138691905Y-63391190D02*
X138787143Y-63343571D01*
X138787143Y-63343571D02*
X139025238Y-63343571D01*
X139025238Y-63343571D02*
X139120476Y-63391190D01*
X139120476Y-63391190D02*
X139168095Y-63438809D01*
X139168095Y-63438809D02*
X139215714Y-63534047D01*
X139215714Y-63534047D02*
X139215714Y-63772142D01*
X139215714Y-63772142D02*
X139168095Y-63867380D01*
X139168095Y-63867380D02*
X139120476Y-63915000D01*
X139120476Y-63915000D02*
X139025238Y-63962619D01*
X139025238Y-63962619D02*
X138787143Y-63962619D01*
X138787143Y-63962619D02*
X138691905Y-63915000D01*
X138691905Y-63915000D02*
X138644286Y-63867380D01*
%TO.C,R7*%
X138263333Y-75392619D02*
X137930000Y-74916428D01*
X137691905Y-75392619D02*
X137691905Y-74392619D01*
X137691905Y-74392619D02*
X138072857Y-74392619D01*
X138072857Y-74392619D02*
X138168095Y-74440238D01*
X138168095Y-74440238D02*
X138215714Y-74487857D01*
X138215714Y-74487857D02*
X138263333Y-74583095D01*
X138263333Y-74583095D02*
X138263333Y-74725952D01*
X138263333Y-74725952D02*
X138215714Y-74821190D01*
X138215714Y-74821190D02*
X138168095Y-74868809D01*
X138168095Y-74868809D02*
X138072857Y-74916428D01*
X138072857Y-74916428D02*
X137691905Y-74916428D01*
X138596667Y-74392619D02*
X139263333Y-74392619D01*
X139263333Y-74392619D02*
X138834762Y-75392619D01*
D11*
%TO.C,R10*%
X152627064Y-93445000D02*
X152172936Y-93445000D01*
X152627064Y-91975000D02*
X152172936Y-91975000D01*
%TO.C,J1*%
X147250000Y-127650000D02*
X147250000Y-130500000D01*
X147490000Y-127890000D02*
X147490000Y-137710000D01*
X147490000Y-137710000D02*
X152690000Y-137710000D01*
X150100000Y-127650000D02*
X147250000Y-127650000D01*
X152690000Y-137710000D02*
X152690000Y-139110000D01*
X152690000Y-139110000D02*
X154500000Y-139110000D01*
X154500000Y-127890000D02*
X147490000Y-127890000D01*
X154500000Y-127890000D02*
X161510000Y-127890000D01*
X156310000Y-137710000D02*
X156310000Y-139110000D01*
X156310000Y-139110000D02*
X154500000Y-139110000D01*
X161510000Y-127890000D02*
X161510000Y-137710000D01*
X161510000Y-137710000D02*
X156310000Y-137710000D01*
%TO.C,J3*%
X136705000Y-59845000D02*
X119105000Y-59845000D01*
X119105000Y-59845000D02*
X119105000Y-137345000D01*
X119105000Y-137345000D02*
X136705000Y-137345000D01*
X136705000Y-137345000D02*
X136705000Y-59845000D01*
%TO.C,U1*%
X155005000Y-62845000D02*
X151555000Y-62845000D01*
X155005000Y-62845000D02*
X156955000Y-62845000D01*
X155005000Y-67965000D02*
X153055000Y-67965000D01*
X155005000Y-67965000D02*
X156955000Y-67965000D01*
%TO.C,D1*%
X161880000Y-93670000D02*
X161880000Y-91750000D01*
X161880000Y-91750000D02*
X159020000Y-91750000D01*
X159020000Y-93670000D02*
X161880000Y-93670000D01*
%TO.C,R6*%
X137860000Y-83090000D02*
X161860000Y-83090000D01*
X161860000Y-83090000D02*
X161860000Y-87090000D01*
X161860000Y-87090000D02*
X137860000Y-87090000D01*
X137860000Y-87090000D02*
X137860000Y-83090000D01*
%TO.C,R4*%
X146092936Y-76735000D02*
X146547064Y-76735000D01*
X146092936Y-78205000D02*
X146547064Y-78205000D01*
%TO.C,U3*%
X140270000Y-90880000D02*
X144210000Y-90880000D01*
X144210000Y-90880000D02*
X144210000Y-95810000D01*
X144210000Y-95810000D02*
X140270000Y-95810000D01*
X140270000Y-95810000D02*
X140270000Y-90880000D01*
%TO.C,RV1*%
X154920000Y-113630000D02*
X154920000Y-109890000D01*
X154920000Y-113630000D02*
X154540000Y-113630000D01*
X154920000Y-109890000D02*
X153640000Y-109890000D01*
X152760000Y-113630000D02*
X152040000Y-113630000D01*
X151160000Y-109890000D02*
X149880000Y-109890000D01*
X150260000Y-113630000D02*
X149880000Y-113630000D01*
X149880000Y-113630000D02*
X149880000Y-109890000D01*
%TO.C,Q1*%
X158750000Y-110200000D02*
X157075000Y-110200000D01*
X158750000Y-110200000D02*
X159400000Y-110200000D01*
X158750000Y-113320000D02*
X158100000Y-113320000D01*
X158750000Y-113320000D02*
X159400000Y-113320000D01*
%TO.C,R16*%
X158977064Y-117575000D02*
X158522936Y-117575000D01*
X158977064Y-116105000D02*
X158522936Y-116105000D01*
%TO.C,C1*%
X152661252Y-117575000D02*
X152138748Y-117575000D01*
X152661252Y-116105000D02*
X152138748Y-116105000D01*
%TO.C,R8*%
X141467064Y-66775000D02*
X141012936Y-66775000D01*
X141467064Y-65305000D02*
X141012936Y-65305000D01*
%TO.C,C2*%
X164606248Y-116105000D02*
X165128752Y-116105000D01*
X164606248Y-117575000D02*
X165128752Y-117575000D01*
%TO.C,U5*%
X160020000Y-102215000D02*
X156570000Y-102215000D01*
X160020000Y-102215000D02*
X161970000Y-102215000D01*
X160020000Y-107335000D02*
X158070000Y-107335000D01*
X160020000Y-107335000D02*
X161970000Y-107335000D01*
%TO.C,R14*%
X152627064Y-107415000D02*
X152172936Y-107415000D01*
X152627064Y-105945000D02*
X152172936Y-105945000D01*
%TO.C,J2*%
X183650000Y-124650000D02*
X186500000Y-124650000D01*
X183890000Y-124410000D02*
X193710000Y-124410000D01*
X193710000Y-124410000D02*
X193710000Y-100310000D01*
X183650000Y-121800000D02*
X183650000Y-124650000D01*
X193710000Y-100310000D02*
X195110000Y-100310000D01*
X195110000Y-100310000D02*
X195110000Y-98500000D01*
X183890000Y-98500000D02*
X183890000Y-124410000D01*
X183890000Y-98500000D02*
X183890000Y-72590000D01*
X193710000Y-96690000D02*
X195110000Y-96690000D01*
X195110000Y-96690000D02*
X195110000Y-98500000D01*
X183890000Y-72590000D02*
X193710000Y-72590000D01*
X193710000Y-72590000D02*
X193710000Y-96690000D01*
%TO.C,R9*%
X141467064Y-78205000D02*
X141012936Y-78205000D01*
X141467064Y-76735000D02*
X141012936Y-76735000D01*
%TO.C,R3*%
X146092936Y-65305000D02*
X146547064Y-65305000D01*
X146092936Y-66775000D02*
X146547064Y-66775000D01*
%TO.C,U4*%
X165060000Y-73130000D02*
X165060000Y-89020000D01*
X165060000Y-73130000D02*
X175300000Y-73130000D01*
X165060000Y-89020000D02*
X175300000Y-89020000D01*
X167640000Y-89020000D02*
X167640000Y-91560000D01*
X170180000Y-89020000D02*
X170180000Y-91560000D01*
X172720000Y-89020000D02*
X172720000Y-91560000D01*
X175300000Y-73130000D02*
X175300000Y-89020000D01*
%TO.C,U2*%
X154940000Y-74275000D02*
X151490000Y-74275000D01*
X154940000Y-74275000D02*
X156890000Y-74275000D01*
X154940000Y-79395000D02*
X152990000Y-79395000D01*
X154940000Y-79395000D02*
X156890000Y-79395000D01*
%TO.C,R12*%
X152172936Y-97055000D02*
X152627064Y-97055000D01*
X152172936Y-98525000D02*
X152627064Y-98525000D01*
%TO.C,R2*%
X146092936Y-74195000D02*
X146547064Y-74195000D01*
X146092936Y-75665000D02*
X146547064Y-75665000D01*
%TO.C,R11*%
X152627064Y-95985000D02*
X152172936Y-95985000D01*
X152627064Y-94515000D02*
X152172936Y-94515000D01*
%TO.C,R13*%
X152172936Y-103405000D02*
X152627064Y-103405000D01*
X152172936Y-104875000D02*
X152627064Y-104875000D01*
%TO.C,R15*%
X164565000Y-111532936D02*
X164565000Y-111987064D01*
X163095000Y-111532936D02*
X163095000Y-111987064D01*
%TO.C,R1*%
X146092936Y-62765000D02*
X146547064Y-62765000D01*
X146092936Y-64235000D02*
X146547064Y-64235000D01*
%TO.C,R5*%
X141012936Y-62765000D02*
X141467064Y-62765000D01*
X141012936Y-64235000D02*
X141467064Y-64235000D01*
%TO.C,R7*%
X141012936Y-74195000D02*
X141467064Y-74195000D01*
X141012936Y-75665000D02*
X141467064Y-75665000D01*
%TD*%
M02*
