G04 #@! TF.GenerationSoftware,KiCad,Pcbnew,9.0.5*
G04 #@! TF.CreationDate,2025-10-18T17:06:12+01:00*
G04 #@! TF.ProjectId,PowerDelivery,506f7765-7244-4656-9c69-766572792e6b,rev?*
G04 #@! TF.SameCoordinates,Original*
G04 #@! TF.FileFunction,Copper,L2,Bot*
G04 #@! TF.FilePolarity,Positive*
%FSLAX46Y46*%
G04 Gerber Fmt 4.6, Leading zero omitted, Abs format (unit mm)*
G04 Created by KiCad (PCBNEW 9.0.5) date 2025-10-18 17:06:12*
%MOMM*%
%LPD*%
G01*
G04 APERTURE LIST*
G04 Aperture macros list*
%AMRoundRect*
0 Rectangle with rounded corners*
0 $1 Rounding radius*
0 $2 $3 $4 $5 $6 $7 $8 $9 X,Y pos of 4 corners*
0 Add a 4 corners polygon primitive as box body*
4,1,4,$2,$3,$4,$5,$6,$7,$8,$9,$2,$3,0*
0 Add four circle primitives for the rounded corners*
1,1,$1+$1,$2,$3*
1,1,$1+$1,$4,$5*
1,1,$1+$1,$6,$7*
1,1,$1+$1,$8,$9*
0 Add four rect primitives between the rounded corners*
20,1,$1+$1,$2,$3,$4,$5,0*
20,1,$1+$1,$4,$5,$6,$7,0*
20,1,$1+$1,$6,$7,$8,$9,0*
20,1,$1+$1,$8,$9,$2,$3,0*%
G04 Aperture macros list end*
G04 #@! TA.AperFunction,ComponentPad*
%ADD10RoundRect,0.250001X-1.399999X1.099999X-1.399999X-1.099999X1.399999X-1.099999X1.399999X1.099999X0*%
G04 #@! TD*
G04 #@! TA.AperFunction,ComponentPad*
%ADD11O,3.300000X2.700000*%
G04 #@! TD*
G04 #@! TA.AperFunction,ComponentPad*
%ADD12C,1.600000*%
G04 #@! TD*
G04 #@! TA.AperFunction,ComponentPad*
%ADD13O,1.600000X1.600000*%
G04 #@! TD*
G04 #@! TA.AperFunction,ComponentPad*
%ADD14R,3.000000X3.000000*%
G04 #@! TD*
G04 #@! TA.AperFunction,ComponentPad*
%ADD15C,3.000000*%
G04 #@! TD*
G04 #@! TA.AperFunction,ComponentPad*
%ADD16R,1.600000X1.600000*%
G04 #@! TD*
G04 #@! TA.AperFunction,ComponentPad*
%ADD17R,2.200000X2.200000*%
G04 #@! TD*
G04 #@! TA.AperFunction,ComponentPad*
%ADD18O,2.200000X2.200000*%
G04 #@! TD*
G04 #@! TA.AperFunction,ComponentPad*
%ADD19C,2.400000*%
G04 #@! TD*
G04 #@! TA.AperFunction,ComponentPad*
%ADD20O,2.400000X2.400000*%
G04 #@! TD*
G04 #@! TA.AperFunction,ComponentPad*
%ADD21C,1.440000*%
G04 #@! TD*
G04 #@! TA.AperFunction,ComponentPad*
%ADD22R,1.500000X1.500000*%
G04 #@! TD*
G04 #@! TA.AperFunction,ComponentPad*
%ADD23C,1.500000*%
G04 #@! TD*
G04 #@! TA.AperFunction,ComponentPad*
%ADD24C,5.700000*%
G04 #@! TD*
G04 #@! TA.AperFunction,ComponentPad*
%ADD25R,2.000000X1.905000*%
G04 #@! TD*
G04 #@! TA.AperFunction,ComponentPad*
%ADD26O,2.000000X1.905000*%
G04 #@! TD*
G04 #@! TA.AperFunction,ComponentPad*
%ADD27R,1.800000X1.800000*%
G04 #@! TD*
G04 #@! TA.AperFunction,ComponentPad*
%ADD28C,1.800000*%
G04 #@! TD*
G04 #@! TA.AperFunction,ComponentPad*
%ADD29R,1.700000X1.700000*%
G04 #@! TD*
G04 #@! TA.AperFunction,ComponentPad*
%ADD30O,1.700000X1.700000*%
G04 #@! TD*
G04 #@! TA.AperFunction,ViaPad*
%ADD31C,1.600000*%
G04 #@! TD*
G04 #@! TA.AperFunction,Conductor*
%ADD32C,1.000000*%
G04 #@! TD*
G04 #@! TA.AperFunction,Conductor*
%ADD33C,0.500000*%
G04 #@! TD*
G04 APERTURE END LIST*
D10*
X141250000Y-122700000D03*
D11*
X141250000Y-126900000D03*
X141250000Y-131100000D03*
X141250000Y-135300000D03*
X135750000Y-122700000D03*
X135750000Y-126900000D03*
X135750000Y-131100000D03*
X135750000Y-135300000D03*
D12*
X172000000Y-77190000D03*
D13*
X172000000Y-84810000D03*
D14*
X120000000Y-72960000D03*
D15*
X120000000Y-78040000D03*
D12*
X164000000Y-92250000D03*
X164000000Y-94750000D03*
D14*
X120000000Y-106460000D03*
D15*
X120000000Y-111540000D03*
D16*
X162700000Y-126700000D03*
D13*
X162700000Y-129240000D03*
X162700000Y-131780000D03*
X162700000Y-134320000D03*
X170320000Y-134320000D03*
X170320000Y-131780000D03*
X170320000Y-129240000D03*
X170320000Y-126700000D03*
D17*
X175500000Y-69690000D03*
D18*
X175500000Y-77310000D03*
D19*
X136840000Y-60500000D03*
D20*
X157160000Y-60500000D03*
D12*
X169690000Y-93500000D03*
D13*
X177310000Y-93500000D03*
D12*
X173750000Y-126000000D03*
X176250000Y-126000000D03*
X150750000Y-116000000D03*
X153250000Y-116000000D03*
X158000000Y-70190000D03*
D13*
X158000000Y-77810000D03*
D16*
X181300000Y-105800000D03*
D13*
X181300000Y-103260000D03*
X181300000Y-100720000D03*
X181300000Y-98180000D03*
X173680000Y-98180000D03*
X173680000Y-100720000D03*
X173680000Y-103260000D03*
X173680000Y-105800000D03*
D12*
X152250000Y-81500000D03*
X149750000Y-81500000D03*
D21*
X158000000Y-93960000D03*
X158000000Y-96500000D03*
X158000000Y-99040000D03*
D22*
X175770000Y-115040000D03*
D23*
X173230000Y-112500000D03*
X175770000Y-109960000D03*
D12*
X180500000Y-113750000D03*
X180500000Y-111250000D03*
X162750000Y-138000000D03*
X165250000Y-138000000D03*
X150690000Y-125000000D03*
D13*
X158310000Y-125000000D03*
D16*
X158300000Y-112300000D03*
D13*
X158300000Y-109760000D03*
X158300000Y-107220000D03*
X158300000Y-104680000D03*
X150680000Y-104680000D03*
X150680000Y-107220000D03*
X150680000Y-109760000D03*
X150680000Y-112300000D03*
D14*
X120000000Y-118960000D03*
D15*
X120000000Y-124040000D03*
D12*
X163000000Y-105310000D03*
D13*
X163000000Y-97690000D03*
D24*
X117000000Y-61000000D03*
D10*
X141250000Y-68400000D03*
D11*
X141250000Y-72600000D03*
X141250000Y-76800000D03*
X141250000Y-81000000D03*
X141250000Y-85200000D03*
X141250000Y-89400000D03*
X141250000Y-93600000D03*
X141250000Y-97800000D03*
X141250000Y-102000000D03*
X141250000Y-106200000D03*
X141250000Y-110400000D03*
X141250000Y-114600000D03*
X135750000Y-68400000D03*
X135750000Y-72600000D03*
X135750000Y-76800000D03*
X135750000Y-81000000D03*
X135750000Y-85200000D03*
X135750000Y-89400000D03*
X135750000Y-93600000D03*
X135750000Y-97800000D03*
X135750000Y-102000000D03*
X135750000Y-106200000D03*
X135750000Y-110400000D03*
X135750000Y-114600000D03*
D24*
X192000000Y-136000000D03*
D12*
X165000000Y-70190000D03*
D13*
X165000000Y-77810000D03*
D12*
X150690000Y-132000000D03*
D13*
X158310000Y-132000000D03*
D25*
X161270000Y-59460000D03*
D26*
X161270000Y-62000000D03*
X161270000Y-64540000D03*
D16*
X163300000Y-81200000D03*
D13*
X160760000Y-81200000D03*
X158220000Y-81200000D03*
X155680000Y-81200000D03*
X155680000Y-88820000D03*
X158220000Y-88820000D03*
X160760000Y-88820000D03*
X163300000Y-88820000D03*
D12*
X173690000Y-90000000D03*
D13*
X181310000Y-90000000D03*
D24*
X192000000Y-61000000D03*
X117000000Y-136000000D03*
D12*
X154500000Y-70190000D03*
D13*
X154500000Y-77810000D03*
D12*
X179500000Y-69690000D03*
D13*
X179500000Y-77310000D03*
D12*
X174690000Y-129500000D03*
D13*
X182310000Y-129500000D03*
D12*
X170310000Y-109000000D03*
D13*
X162690000Y-109000000D03*
D12*
X162690000Y-112500000D03*
D13*
X170310000Y-112500000D03*
D27*
X167775000Y-120500000D03*
D28*
X165235000Y-120500000D03*
D12*
X150690000Y-135500000D03*
D13*
X158310000Y-135500000D03*
D12*
X152750000Y-101000000D03*
X150250000Y-101000000D03*
X158310000Y-121000000D03*
D13*
X150690000Y-121000000D03*
D12*
X150690000Y-128500000D03*
D13*
X158310000Y-128500000D03*
D12*
X161500000Y-70190000D03*
D13*
X161500000Y-77810000D03*
D14*
X120000000Y-85460000D03*
D15*
X120000000Y-90540000D03*
D29*
X193500000Y-92150000D03*
D30*
X193500000Y-94690000D03*
X193500000Y-97230000D03*
X193500000Y-99770000D03*
X193500000Y-102310000D03*
X193500000Y-104850000D03*
D29*
X128500000Y-78225000D03*
D30*
X128500000Y-80765000D03*
D31*
X169500000Y-59000000D03*
X166500000Y-65000000D03*
X172500000Y-59000000D03*
X172500000Y-65000000D03*
X169500000Y-65000000D03*
X166500000Y-59000000D03*
X169500000Y-62000000D03*
X172500000Y-62000000D03*
X166500000Y-62000000D03*
X159500000Y-72600000D03*
D32*
X158300000Y-104680000D02*
X157168630Y-104680000D01*
X160500000Y-133000000D02*
X161820000Y-134320000D01*
X157168630Y-104680000D02*
X156000000Y-105848630D01*
X156000000Y-105848630D02*
X156000000Y-115000000D01*
X156000000Y-115000000D02*
X160500000Y-119500000D01*
X160500000Y-119500000D02*
X160500000Y-133000000D01*
X161820000Y-134320000D02*
X162700000Y-134320000D01*
X172000000Y-77190000D02*
X167000000Y-82190000D01*
X167000000Y-82190000D02*
X167000000Y-98000000D01*
X167000000Y-98000000D02*
X160500000Y-104500000D01*
X160500000Y-104500000D02*
X160500000Y-105500000D01*
X160500000Y-105500000D02*
X158780000Y-107220000D01*
X158780000Y-107220000D02*
X158300000Y-107220000D01*
X172000000Y-84810000D02*
X171879000Y-84931000D01*
X171879000Y-84931000D02*
X171879000Y-101465999D01*
X171879000Y-101465999D02*
X173673001Y-103260000D01*
X173673001Y-103260000D02*
X173680000Y-103260000D01*
X181300000Y-103260000D02*
X184740000Y-103260000D01*
X184740000Y-103260000D02*
X190770000Y-97230000D01*
X190770000Y-97230000D02*
X193500000Y-97230000D01*
X181300000Y-105800000D02*
X183500000Y-108000000D01*
X183500000Y-108000000D02*
X183500000Y-111881370D01*
X183500000Y-111881370D02*
X181631370Y-113750000D01*
X181631370Y-113750000D02*
X180500000Y-113750000D01*
X167500000Y-111810000D02*
X167500000Y-113500000D01*
X170310000Y-109000000D02*
X167500000Y-111810000D01*
X167500000Y-113500000D02*
X173750000Y-119750000D01*
X173750000Y-119750000D02*
X173750000Y-126000000D01*
D33*
X159500000Y-72600000D02*
X177152000Y-72600000D01*
X177152000Y-72600000D02*
X189000000Y-84448000D01*
X189000000Y-84448000D02*
X189000000Y-91392081D01*
X189000000Y-91392081D02*
X192297919Y-94690000D01*
X192297919Y-94690000D02*
X193500000Y-94690000D01*
G04 #@! TA.AperFunction,Conductor*
G36*
X165558961Y-56270462D02*
G01*
X165613499Y-56325000D01*
X165633461Y-56399500D01*
X165613499Y-56474000D01*
X165558961Y-56528538D01*
X165536531Y-56539105D01*
X165482759Y-56559160D01*
X165482744Y-56559167D01*
X165421424Y-56592650D01*
X165421416Y-56592655D01*
X165306241Y-56678874D01*
X164678876Y-57306239D01*
X164642721Y-57346489D01*
X164642694Y-57346521D01*
X164626078Y-57367140D01*
X164594433Y-57411026D01*
X164534661Y-57541905D01*
X164534658Y-57541914D01*
X164514977Y-57608938D01*
X164514974Y-57608951D01*
X164514973Y-57608955D01*
X164494501Y-57751347D01*
X164494500Y-57751365D01*
X164494500Y-66248643D01*
X164497394Y-66302649D01*
X164497396Y-66302678D01*
X164500228Y-66329020D01*
X164500235Y-66329066D01*
X164508883Y-66382440D01*
X164559166Y-66517252D01*
X164559167Y-66517255D01*
X164592650Y-66578575D01*
X164592655Y-66578583D01*
X164678874Y-66693758D01*
X164678876Y-66693760D01*
X164678877Y-66693761D01*
X165306239Y-67321123D01*
X165346500Y-67357288D01*
X165361916Y-67369711D01*
X165367141Y-67373921D01*
X165367140Y-67373921D01*
X165380596Y-67383624D01*
X165411026Y-67405567D01*
X165541903Y-67465338D01*
X165580019Y-67476530D01*
X165608938Y-67485022D01*
X165608940Y-67485022D01*
X165608942Y-67485023D01*
X165608946Y-67485024D01*
X165608947Y-67485024D01*
X165608951Y-67485025D01*
X165608955Y-67485026D01*
X165751347Y-67505498D01*
X165751351Y-67505498D01*
X165751362Y-67505500D01*
X165751366Y-67505500D01*
X180248643Y-67505500D01*
X180302649Y-67502605D01*
X180302678Y-67502603D01*
X180329020Y-67499771D01*
X180329026Y-67499770D01*
X180329036Y-67499769D01*
X180337856Y-67498339D01*
X180382440Y-67491116D01*
X180382443Y-67491114D01*
X180382448Y-67491114D01*
X180517257Y-67440832D01*
X180578580Y-67407347D01*
X180693761Y-67321123D01*
X181321123Y-66693761D01*
X181357288Y-66653500D01*
X181373922Y-66632858D01*
X181405567Y-66588974D01*
X181465338Y-66458097D01*
X181485023Y-66391058D01*
X181485024Y-66391054D01*
X181485025Y-66391048D01*
X181485026Y-66391044D01*
X181505498Y-66248652D01*
X181505500Y-66248634D01*
X181505500Y-57751356D01*
X181502605Y-57697350D01*
X181502603Y-57697321D01*
X181499771Y-57670979D01*
X181499764Y-57670933D01*
X181491116Y-57617559D01*
X181491114Y-57617554D01*
X181491114Y-57617552D01*
X181440832Y-57482743D01*
X181407347Y-57421420D01*
X181351278Y-57346521D01*
X181321125Y-57306241D01*
X180693760Y-56678876D01*
X180653510Y-56642721D01*
X180653500Y-56642712D01*
X180632858Y-56626078D01*
X180632859Y-56626078D01*
X180610916Y-56610255D01*
X180588974Y-56594433D01*
X180458909Y-56535033D01*
X180399438Y-56485928D01*
X180372485Y-56413662D01*
X180385275Y-56337602D01*
X180434382Y-56278128D01*
X180506648Y-56251175D01*
X180520810Y-56250500D01*
X193455830Y-56250500D01*
X193496095Y-56250500D01*
X193503892Y-56250703D01*
X193831867Y-56267892D01*
X193847372Y-56269521D01*
X194167900Y-56320288D01*
X194183155Y-56323531D01*
X194208786Y-56330398D01*
X194496611Y-56407521D01*
X194511436Y-56412339D01*
X194814407Y-56528639D01*
X194828654Y-56534982D01*
X195117800Y-56682309D01*
X195131287Y-56690095D01*
X195403460Y-56866847D01*
X195416073Y-56876010D01*
X195668273Y-57080238D01*
X195679863Y-57090674D01*
X195909325Y-57320136D01*
X195919761Y-57331726D01*
X196123989Y-57583926D01*
X196133155Y-57596543D01*
X196233686Y-57751347D01*
X196309898Y-57868702D01*
X196317696Y-57882209D01*
X196465017Y-58171345D01*
X196471360Y-58185592D01*
X196587660Y-58488563D01*
X196592480Y-58503396D01*
X196676468Y-58816844D01*
X196679711Y-58832099D01*
X196730477Y-59152624D01*
X196732107Y-59168135D01*
X196749296Y-59496107D01*
X196749500Y-59503905D01*
X196749500Y-137496094D01*
X196749296Y-137503892D01*
X196732107Y-137831864D01*
X196730477Y-137847375D01*
X196679711Y-138167900D01*
X196676468Y-138183155D01*
X196592480Y-138496603D01*
X196587660Y-138511436D01*
X196471360Y-138814407D01*
X196465017Y-138828654D01*
X196317696Y-139117790D01*
X196309898Y-139131297D01*
X196133156Y-139403455D01*
X196123989Y-139416073D01*
X195919761Y-139668273D01*
X195909325Y-139679863D01*
X195679863Y-139909325D01*
X195668273Y-139919761D01*
X195416073Y-140123989D01*
X195403455Y-140133156D01*
X195131297Y-140309898D01*
X195117790Y-140317696D01*
X194828654Y-140465017D01*
X194814407Y-140471360D01*
X194511436Y-140587660D01*
X194496603Y-140592480D01*
X194183155Y-140676468D01*
X194167900Y-140679711D01*
X193847375Y-140730477D01*
X193831864Y-140732107D01*
X193503893Y-140749296D01*
X193496095Y-140749500D01*
X115503905Y-140749500D01*
X115496107Y-140749296D01*
X115168135Y-140732107D01*
X115152624Y-140730477D01*
X114832099Y-140679711D01*
X114816844Y-140676468D01*
X114503396Y-140592480D01*
X114488563Y-140587660D01*
X114185592Y-140471360D01*
X114171345Y-140465017D01*
X113882209Y-140317696D01*
X113868706Y-140309900D01*
X113596543Y-140133155D01*
X113583926Y-140123989D01*
X113331726Y-139919761D01*
X113320136Y-139909325D01*
X113090674Y-139679863D01*
X113080238Y-139668273D01*
X112876010Y-139416073D01*
X112866843Y-139403455D01*
X112690095Y-139131287D01*
X112682309Y-139117800D01*
X112534982Y-138828654D01*
X112528639Y-138814407D01*
X112412339Y-138511436D01*
X112407521Y-138496611D01*
X112323531Y-138183155D01*
X112320288Y-138167900D01*
X112309906Y-138102352D01*
X112269521Y-137847372D01*
X112267892Y-137831864D01*
X112263530Y-137748638D01*
X112250704Y-137503892D01*
X112250500Y-137496094D01*
X112250500Y-100251360D01*
X113494500Y-100251360D01*
X113494500Y-100251362D01*
X113494500Y-134050302D01*
X113497346Y-134092762D01*
X113499022Y-134117769D01*
X113503440Y-134150575D01*
X113516931Y-134216849D01*
X113516931Y-134216851D01*
X113574354Y-134348770D01*
X113596058Y-134383905D01*
X113611076Y-134408215D01*
X113611078Y-134408217D01*
X113611079Y-134408219D01*
X113611080Y-134408220D01*
X113694499Y-134508035D01*
X113703342Y-134518615D01*
X113822975Y-134598550D01*
X113822982Y-134598553D01*
X113822983Y-134598554D01*
X113885997Y-134628702D01*
X113885996Y-134628702D01*
X114023297Y-134671694D01*
X114023300Y-134671694D01*
X114023302Y-134671695D01*
X114167159Y-134674265D01*
X114167167Y-134674264D01*
X114167169Y-134674264D01*
X114187629Y-134671694D01*
X114236484Y-134665558D01*
X114236488Y-134665557D01*
X114375242Y-134627492D01*
X114497651Y-134551877D01*
X114551263Y-134507072D01*
X114647410Y-134400034D01*
X114708066Y-134309254D01*
X114716767Y-134297524D01*
X114884816Y-134092756D01*
X114894630Y-134081928D01*
X115081938Y-133894619D01*
X115092751Y-133884819D01*
X115297529Y-133716761D01*
X115309252Y-133708067D01*
X115529544Y-133560872D01*
X115542063Y-133553369D01*
X115775697Y-133428490D01*
X115788891Y-133422250D01*
X116033641Y-133320871D01*
X116047392Y-133315951D01*
X116300903Y-133239050D01*
X116315073Y-133235501D01*
X116574875Y-133183825D01*
X116589335Y-133181679D01*
X116852952Y-133155717D01*
X116867556Y-133155000D01*
X117132443Y-133155000D01*
X117147047Y-133155717D01*
X117410666Y-133181680D01*
X117425129Y-133183826D01*
X117518026Y-133202303D01*
X117684925Y-133235501D01*
X117699090Y-133239048D01*
X117952606Y-133315952D01*
X117966361Y-133320873D01*
X118211100Y-133422247D01*
X118224308Y-133428495D01*
X118457932Y-133553369D01*
X118470474Y-133560886D01*
X118690725Y-133708052D01*
X118702469Y-133716762D01*
X118702478Y-133716770D01*
X118907235Y-133884810D01*
X118918069Y-133894629D01*
X119105368Y-134081928D01*
X119115177Y-134092750D01*
X119283240Y-134297534D01*
X119291942Y-134309269D01*
X119424752Y-134508034D01*
X119439115Y-134529529D01*
X119446632Y-134542071D01*
X119571498Y-134775680D01*
X119577750Y-134788898D01*
X119679121Y-135033629D01*
X119684047Y-135047396D01*
X119760946Y-135300896D01*
X119764499Y-135315081D01*
X119816170Y-135574856D01*
X119818315Y-135589319D01*
X119844282Y-135852955D01*
X119845000Y-135867560D01*
X119845000Y-136132438D01*
X119844282Y-136147043D01*
X119818316Y-136410668D01*
X119816171Y-136425130D01*
X119791052Y-136551419D01*
X119786506Y-136574271D01*
X119786501Y-136574297D01*
X119764498Y-136684920D01*
X119760945Y-136699106D01*
X119684047Y-136952602D01*
X119679121Y-136966369D01*
X119577750Y-137211100D01*
X119571498Y-137224318D01*
X119446632Y-137457927D01*
X119439115Y-137470469D01*
X119291943Y-137690728D01*
X119283232Y-137702473D01*
X119115192Y-137907230D01*
X119105381Y-137918056D01*
X119092545Y-137930893D01*
X119080062Y-137943830D01*
X119074006Y-137950333D01*
X119061942Y-137963762D01*
X118984156Y-138084801D01*
X118984149Y-138084814D01*
X118955408Y-138147749D01*
X118955132Y-138148344D01*
X118914594Y-138286413D01*
X118914593Y-138286421D01*
X118914593Y-138430294D01*
X118914594Y-138430306D01*
X118924537Y-138499456D01*
X118924538Y-138499460D01*
X118965071Y-138637500D01*
X118965075Y-138637509D01*
X119042857Y-138758538D01*
X119042861Y-138758543D01*
X119088615Y-138811346D01*
X119088617Y-138811348D01*
X119197351Y-138905568D01*
X119257956Y-138933245D01*
X119328227Y-138965338D01*
X119366343Y-138976530D01*
X119395262Y-138985022D01*
X119395264Y-138985022D01*
X119395266Y-138985023D01*
X119395270Y-138985024D01*
X119395271Y-138985024D01*
X119395275Y-138985025D01*
X119395279Y-138985026D01*
X119537671Y-139005498D01*
X119537675Y-139005498D01*
X119537686Y-139005500D01*
X119537690Y-139005500D01*
X137248643Y-139005500D01*
X137302649Y-139002605D01*
X137302678Y-139002603D01*
X137329020Y-138999771D01*
X137329026Y-138999770D01*
X137329036Y-138999769D01*
X137337856Y-138998339D01*
X137382440Y-138991116D01*
X137382443Y-138991114D01*
X137382448Y-138991114D01*
X137517257Y-138940832D01*
X137578580Y-138907347D01*
X137693761Y-138821123D01*
X138321123Y-138193761D01*
X138357288Y-138153500D01*
X138373922Y-138132858D01*
X138405567Y-138088974D01*
X138465338Y-137958097D01*
X138483088Y-137897648D01*
X161449500Y-137897648D01*
X161449500Y-138102352D01*
X161481523Y-138304534D01*
X161516569Y-138412396D01*
X161544778Y-138499212D01*
X161544782Y-138499224D01*
X161637714Y-138681612D01*
X161758028Y-138847212D01*
X161758035Y-138847220D01*
X161902779Y-138991964D01*
X161902787Y-138991971D01*
X162068387Y-139112285D01*
X162068390Y-139112287D01*
X162250781Y-139205220D01*
X162445466Y-139268477D01*
X162647648Y-139300500D01*
X162647653Y-139300500D01*
X162852347Y-139300500D01*
X162852352Y-139300500D01*
X163054534Y-139268477D01*
X163249219Y-139205220D01*
X163431610Y-139112287D01*
X163597219Y-138991966D01*
X163741966Y-138847219D01*
X163862287Y-138681610D01*
X163955220Y-138499219D01*
X164018477Y-138304534D01*
X164050500Y-138102352D01*
X164050500Y-137897648D01*
X164018477Y-137695466D01*
X163955220Y-137500781D01*
X163862287Y-137318390D01*
X163862285Y-137318387D01*
X163741971Y-137152787D01*
X163741964Y-137152779D01*
X163597220Y-137008035D01*
X163597212Y-137008028D01*
X163431612Y-136887714D01*
X163249224Y-136794782D01*
X163249220Y-136794780D01*
X163249219Y-136794780D01*
X163054534Y-136731523D01*
X162852352Y-136699500D01*
X162647648Y-136699500D01*
X162479163Y-136726185D01*
X162445465Y-136731523D01*
X162250787Y-136794778D01*
X162250775Y-136794782D01*
X162068387Y-136887714D01*
X161902787Y-137008028D01*
X161902779Y-137008035D01*
X161758035Y-137152779D01*
X161758028Y-137152787D01*
X161637714Y-137318387D01*
X161544782Y-137500775D01*
X161544780Y-137500781D01*
X161481523Y-137695466D01*
X161449500Y-137897648D01*
X138483088Y-137897648D01*
X138485023Y-137891058D01*
X138485024Y-137891054D01*
X138505500Y-137748638D01*
X138505500Y-135397648D01*
X157009500Y-135397648D01*
X157009500Y-135602352D01*
X157041523Y-135804534D01*
X157104778Y-135999212D01*
X157104782Y-135999224D01*
X157197714Y-136181612D01*
X157318028Y-136347212D01*
X157318035Y-136347220D01*
X157462779Y-136491964D01*
X157462787Y-136491971D01*
X157628387Y-136612285D01*
X157628390Y-136612287D01*
X157810781Y-136705220D01*
X158005466Y-136768477D01*
X158207648Y-136800500D01*
X158207653Y-136800500D01*
X158412347Y-136800500D01*
X158412352Y-136800500D01*
X158614534Y-136768477D01*
X158809219Y-136705220D01*
X158991610Y-136612287D01*
X159157219Y-136491966D01*
X159301966Y-136347219D01*
X159422287Y-136181610D01*
X159515220Y-135999219D01*
X159578477Y-135804534D01*
X159610500Y-135602352D01*
X159610500Y-135397648D01*
X159578477Y-135195466D01*
X159515220Y-135000781D01*
X159422287Y-134818390D01*
X159400860Y-134788898D01*
X159301971Y-134652787D01*
X159301964Y-134652779D01*
X159157220Y-134508035D01*
X159157212Y-134508028D01*
X158991612Y-134387714D01*
X158809224Y-134294782D01*
X158809220Y-134294780D01*
X158809219Y-134294780D01*
X158614534Y-134231523D01*
X158412352Y-134199500D01*
X158207648Y-134199500D01*
X158039163Y-134226185D01*
X158005465Y-134231523D01*
X157810787Y-134294778D01*
X157810775Y-134294782D01*
X157628387Y-134387714D01*
X157462787Y-134508028D01*
X157462779Y-134508035D01*
X157318035Y-134652779D01*
X157318028Y-134652787D01*
X157197714Y-134818387D01*
X157104782Y-135000775D01*
X157104778Y-135000787D01*
X157041523Y-135195465D01*
X157039754Y-135206632D01*
X157009500Y-135397648D01*
X138505500Y-135397648D01*
X138505500Y-131897648D01*
X149389500Y-131897648D01*
X149389500Y-132102352D01*
X149421523Y-132304534D01*
X149484778Y-132499212D01*
X149484782Y-132499224D01*
X149577714Y-132681612D01*
X149698028Y-132847212D01*
X149698035Y-132847220D01*
X149842779Y-132991964D01*
X149842787Y-132991971D01*
X149989467Y-133098539D01*
X150008390Y-133112287D01*
X150190781Y-133205220D01*
X150385466Y-133268477D01*
X150587648Y-133300500D01*
X150587653Y-133300500D01*
X150792347Y-133300500D01*
X150792352Y-133300500D01*
X150994534Y-133268477D01*
X151189219Y-133205220D01*
X151371610Y-133112287D01*
X151537219Y-132991966D01*
X151681966Y-132847219D01*
X151802287Y-132681610D01*
X151895220Y-132499219D01*
X151958477Y-132304534D01*
X151990500Y-132102352D01*
X151990500Y-131897648D01*
X151958477Y-131695466D01*
X151895220Y-131500781D01*
X151802287Y-131318390D01*
X151774963Y-131280781D01*
X151681971Y-131152787D01*
X151681964Y-131152779D01*
X151537220Y-131008035D01*
X151537212Y-131008028D01*
X151371612Y-130887714D01*
X151189224Y-130794782D01*
X151189220Y-130794780D01*
X151189219Y-130794780D01*
X150994534Y-130731523D01*
X150792352Y-130699500D01*
X150587648Y-130699500D01*
X150419163Y-130726185D01*
X150385465Y-130731523D01*
X150190787Y-130794778D01*
X150190775Y-130794782D01*
X150008387Y-130887714D01*
X149842787Y-131008028D01*
X149842779Y-131008035D01*
X149698035Y-131152779D01*
X149698028Y-131152787D01*
X149577714Y-131318387D01*
X149484782Y-131500775D01*
X149484780Y-131500781D01*
X149421523Y-131695466D01*
X149389500Y-131897648D01*
X138505500Y-131897648D01*
X138505500Y-128397648D01*
X149389500Y-128397648D01*
X149389500Y-128602352D01*
X149421523Y-128804534D01*
X149464065Y-128935466D01*
X149484778Y-128999212D01*
X149484782Y-128999224D01*
X149577714Y-129181612D01*
X149698028Y-129347212D01*
X149698035Y-129347220D01*
X149842779Y-129491964D01*
X149842787Y-129491971D01*
X150008387Y-129612285D01*
X150008390Y-129612287D01*
X150190781Y-129705220D01*
X150385466Y-129768477D01*
X150587648Y-129800500D01*
X150587653Y-129800500D01*
X150792347Y-129800500D01*
X150792352Y-129800500D01*
X150994534Y-129768477D01*
X151189219Y-129705220D01*
X151371610Y-129612287D01*
X151537219Y-129491966D01*
X151681966Y-129347219D01*
X151802287Y-129181610D01*
X151895220Y-128999219D01*
X151958477Y-128804534D01*
X151990500Y-128602352D01*
X151990500Y-128397648D01*
X151958477Y-128195466D01*
X151895220Y-128000781D01*
X151802287Y-127818390D01*
X151797853Y-127812287D01*
X151681971Y-127652787D01*
X151681964Y-127652779D01*
X151537220Y-127508035D01*
X151537212Y-127508028D01*
X151371612Y-127387714D01*
X151189224Y-127294782D01*
X151189220Y-127294780D01*
X151189219Y-127294780D01*
X150994534Y-127231523D01*
X150792352Y-127199500D01*
X150587648Y-127199500D01*
X150419163Y-127226185D01*
X150385465Y-127231523D01*
X150190787Y-127294778D01*
X150190775Y-127294782D01*
X150008387Y-127387714D01*
X149842787Y-127508028D01*
X149842779Y-127508035D01*
X149698035Y-127652779D01*
X149698028Y-127652787D01*
X149577714Y-127818387D01*
X149484782Y-128000775D01*
X149484778Y-128000787D01*
X149443538Y-128127712D01*
X149421523Y-128195466D01*
X149389500Y-128397648D01*
X138505500Y-128397648D01*
X138505500Y-124897648D01*
X149389500Y-124897648D01*
X149389500Y-125102352D01*
X149421523Y-125304534D01*
X149483338Y-125494782D01*
X149484778Y-125499212D01*
X149484782Y-125499224D01*
X149577714Y-125681612D01*
X149698028Y-125847212D01*
X149698035Y-125847220D01*
X149842779Y-125991964D01*
X149842787Y-125991971D01*
X150008387Y-126112285D01*
X150008390Y-126112287D01*
X150190781Y-126205220D01*
X150385466Y-126268477D01*
X150587648Y-126300500D01*
X150587653Y-126300500D01*
X150792347Y-126300500D01*
X150792352Y-126300500D01*
X150994534Y-126268477D01*
X151189219Y-126205220D01*
X151371610Y-126112287D01*
X151537219Y-125991966D01*
X151681966Y-125847219D01*
X151802287Y-125681610D01*
X151895220Y-125499219D01*
X151958477Y-125304534D01*
X151990500Y-125102352D01*
X151990500Y-124897648D01*
X151958477Y-124695466D01*
X151895220Y-124500781D01*
X151802287Y-124318390D01*
X151802285Y-124318387D01*
X151681971Y-124152787D01*
X151681964Y-124152779D01*
X151537220Y-124008035D01*
X151537212Y-124008028D01*
X151371612Y-123887714D01*
X151189224Y-123794782D01*
X151189220Y-123794780D01*
X151189219Y-123794780D01*
X150994534Y-123731523D01*
X150792352Y-123699500D01*
X150587648Y-123699500D01*
X150419163Y-123726185D01*
X150385465Y-123731523D01*
X150190787Y-123794778D01*
X150190775Y-123794782D01*
X150008387Y-123887714D01*
X149842787Y-124008028D01*
X149842779Y-124008035D01*
X149698035Y-124152779D01*
X149698028Y-124152787D01*
X149577714Y-124318387D01*
X149484782Y-124500775D01*
X149484780Y-124500781D01*
X149421523Y-124695466D01*
X149389500Y-124897648D01*
X138505500Y-124897648D01*
X138505500Y-120897648D01*
X149389500Y-120897648D01*
X149389500Y-121102352D01*
X149421523Y-121304534D01*
X149456559Y-121412365D01*
X149484778Y-121499212D01*
X149484782Y-121499224D01*
X149577714Y-121681612D01*
X149698028Y-121847212D01*
X149698035Y-121847220D01*
X149842779Y-121991964D01*
X149842787Y-121991971D01*
X150008387Y-122112285D01*
X150008390Y-122112287D01*
X150190781Y-122205220D01*
X150385466Y-122268477D01*
X150587648Y-122300500D01*
X150587653Y-122300500D01*
X150792347Y-122300500D01*
X150792352Y-122300500D01*
X150994534Y-122268477D01*
X151189219Y-122205220D01*
X151371610Y-122112287D01*
X151537219Y-121991966D01*
X151681966Y-121847219D01*
X151802287Y-121681610D01*
X151895220Y-121499219D01*
X151958477Y-121304534D01*
X151990500Y-121102352D01*
X151990500Y-120897648D01*
X151958477Y-120695466D01*
X151895220Y-120500781D01*
X151802287Y-120318390D01*
X151802285Y-120318387D01*
X151681971Y-120152787D01*
X151681964Y-120152779D01*
X151537220Y-120008035D01*
X151537212Y-120008028D01*
X151371612Y-119887714D01*
X151189224Y-119794782D01*
X151189220Y-119794780D01*
X151189219Y-119794780D01*
X150994534Y-119731523D01*
X150792352Y-119699500D01*
X150587648Y-119699500D01*
X150419163Y-119726185D01*
X150385465Y-119731523D01*
X150190787Y-119794778D01*
X150190775Y-119794782D01*
X150008387Y-119887714D01*
X149842787Y-120008028D01*
X149842779Y-120008035D01*
X149698035Y-120152779D01*
X149698028Y-120152787D01*
X149577714Y-120318387D01*
X149484782Y-120500775D01*
X149484778Y-120500787D01*
X149421523Y-120695465D01*
X149415118Y-120735902D01*
X149389500Y-120897648D01*
X138505500Y-120897648D01*
X138505500Y-120751362D01*
X138502603Y-120697322D01*
X138502603Y-120697321D01*
X138499771Y-120670979D01*
X138499764Y-120670933D01*
X138491116Y-120617559D01*
X138491114Y-120617554D01*
X138491114Y-120617552D01*
X138440832Y-120482743D01*
X138407347Y-120421420D01*
X138383660Y-120389778D01*
X138321125Y-120306241D01*
X137693760Y-119678876D01*
X137653510Y-119642721D01*
X137653500Y-119642712D01*
X137632858Y-119626078D01*
X137632859Y-119626078D01*
X137610916Y-119610255D01*
X137588974Y-119594433D01*
X137458097Y-119534662D01*
X137458094Y-119534661D01*
X137458085Y-119534658D01*
X137391061Y-119514977D01*
X137391048Y-119514974D01*
X137391044Y-119514973D01*
X137248652Y-119494501D01*
X137248640Y-119494500D01*
X137248638Y-119494500D01*
X137248634Y-119494500D01*
X126654500Y-119494500D01*
X126580000Y-119474538D01*
X126525462Y-119420000D01*
X126505500Y-119345500D01*
X126505500Y-114478706D01*
X139099500Y-114478706D01*
X139099500Y-114721293D01*
X139131160Y-114961781D01*
X139131161Y-114961787D01*
X139131162Y-114961789D01*
X139167804Y-115098539D01*
X139193947Y-115196103D01*
X139286778Y-115420216D01*
X139333296Y-115500787D01*
X139408064Y-115630289D01*
X139555735Y-115822738D01*
X139727262Y-115994265D01*
X139919711Y-116141936D01*
X140129788Y-116263224D01*
X140353900Y-116356054D01*
X140588211Y-116418838D01*
X140588217Y-116418838D01*
X140588218Y-116418839D01*
X140653600Y-116427446D01*
X140828712Y-116450500D01*
X141671288Y-116450500D01*
X141911789Y-116418838D01*
X142146100Y-116356054D01*
X142370212Y-116263224D01*
X142580289Y-116141936D01*
X142772738Y-115994265D01*
X142869355Y-115897648D01*
X149449500Y-115897648D01*
X149449500Y-116102352D01*
X149470319Y-116233795D01*
X149481523Y-116304534D01*
X149544778Y-116499212D01*
X149544782Y-116499224D01*
X149637714Y-116681612D01*
X149758028Y-116847212D01*
X149758035Y-116847220D01*
X149902779Y-116991964D01*
X149902787Y-116991971D01*
X150068387Y-117112285D01*
X150068390Y-117112287D01*
X150250781Y-117205220D01*
X150445466Y-117268477D01*
X150647648Y-117300500D01*
X150647653Y-117300500D01*
X150852347Y-117300500D01*
X150852352Y-117300500D01*
X151054534Y-117268477D01*
X151249219Y-117205220D01*
X151431610Y-117112287D01*
X151597219Y-116991966D01*
X151741966Y-116847219D01*
X151862287Y-116681610D01*
X151955220Y-116499219D01*
X152018477Y-116304534D01*
X152050500Y-116102352D01*
X152050500Y-115897648D01*
X152018477Y-115695466D01*
X151955220Y-115500781D01*
X151862287Y-115318390D01*
X151842993Y-115291834D01*
X151741971Y-115152787D01*
X151741964Y-115152779D01*
X151597220Y-115008035D01*
X151597212Y-115008028D01*
X151431612Y-114887714D01*
X151249224Y-114794782D01*
X151249220Y-114794780D01*
X151249219Y-114794780D01*
X151054534Y-114731523D01*
X150852352Y-114699500D01*
X150647648Y-114699500D01*
X150479163Y-114726185D01*
X150445465Y-114731523D01*
X150250787Y-114794778D01*
X150250775Y-114794782D01*
X150068387Y-114887714D01*
X149902787Y-115008028D01*
X149902779Y-115008035D01*
X149758035Y-115152779D01*
X149758028Y-115152787D01*
X149637714Y-115318387D01*
X149544782Y-115500775D01*
X149544778Y-115500787D01*
X149500265Y-115637785D01*
X149481523Y-115695466D01*
X149449500Y-115897648D01*
X142869355Y-115897648D01*
X142944265Y-115822738D01*
X143091936Y-115630289D01*
X143213224Y-115420212D01*
X143306054Y-115196100D01*
X143368838Y-114961789D01*
X143400500Y-114721288D01*
X143400500Y-114478712D01*
X143369352Y-114242114D01*
X143368839Y-114238218D01*
X143368838Y-114238217D01*
X143368838Y-114238211D01*
X143306054Y-114003900D01*
X143213224Y-113779788D01*
X143091936Y-113569711D01*
X142944265Y-113377262D01*
X142772738Y-113205735D01*
X142580289Y-113058064D01*
X142478375Y-112999224D01*
X142370216Y-112936778D01*
X142370214Y-112936777D01*
X142370212Y-112936776D01*
X142238932Y-112882398D01*
X142146103Y-112843947D01*
X142146101Y-112843946D01*
X142146100Y-112843946D01*
X141911789Y-112781162D01*
X141911787Y-112781161D01*
X141911781Y-112781160D01*
X141671293Y-112749500D01*
X141671288Y-112749500D01*
X140828712Y-112749500D01*
X140828706Y-112749500D01*
X140588218Y-112781160D01*
X140353896Y-112843947D01*
X140129783Y-112936778D01*
X139919712Y-113058063D01*
X139906258Y-113068387D01*
X139727262Y-113205735D01*
X139727260Y-113205736D01*
X139727256Y-113205740D01*
X139555740Y-113377256D01*
X139555736Y-113377260D01*
X139555735Y-113377262D01*
X139494133Y-113457544D01*
X139408063Y-113569712D01*
X139286778Y-113779783D01*
X139193947Y-114003896D01*
X139131160Y-114238218D01*
X139099500Y-114478706D01*
X126505500Y-114478706D01*
X126505500Y-110278706D01*
X133599500Y-110278706D01*
X133599500Y-110521293D01*
X133631160Y-110761781D01*
X133693947Y-110996103D01*
X133709173Y-111032861D01*
X133774483Y-111190535D01*
X133786778Y-111220216D01*
X133837480Y-111308034D01*
X133908064Y-111430289D01*
X134055735Y-111622738D01*
X134227262Y-111794265D01*
X134419711Y-111941936D01*
X134629788Y-112063224D01*
X134853900Y-112156054D01*
X135088211Y-112218838D01*
X135088217Y-112218838D01*
X135088218Y-112218839D01*
X135130611Y-112224420D01*
X135328712Y-112250500D01*
X136171288Y-112250500D01*
X136411789Y-112218838D01*
X136646100Y-112156054D01*
X136870212Y-112063224D01*
X137080289Y-111941936D01*
X137272738Y-111794265D01*
X137444265Y-111622738D01*
X137591936Y-111430289D01*
X137713224Y-111220212D01*
X137806054Y-110996100D01*
X137868838Y-110761789D01*
X137900500Y-110521288D01*
X137900500Y-110278712D01*
X137900499Y-110278706D01*
X139099500Y-110278706D01*
X139099500Y-110521293D01*
X139131160Y-110761781D01*
X139193947Y-110996103D01*
X139209173Y-111032861D01*
X139274483Y-111190535D01*
X139286778Y-111220216D01*
X139337480Y-111308034D01*
X139408064Y-111430289D01*
X139555735Y-111622738D01*
X139727262Y-111794265D01*
X139919711Y-111941936D01*
X140129788Y-112063224D01*
X140353900Y-112156054D01*
X140588211Y-112218838D01*
X140588217Y-112218838D01*
X140588218Y-112218839D01*
X140630611Y-112224420D01*
X140828712Y-112250500D01*
X141671288Y-112250500D01*
X141911789Y-112218838D01*
X142146100Y-112156054D01*
X142370212Y-112063224D01*
X142580289Y-111941936D01*
X142772738Y-111794265D01*
X142944265Y-111622738D01*
X143091936Y-111430289D01*
X143213224Y-111220212D01*
X143306054Y-110996100D01*
X143368838Y-110761789D01*
X143400500Y-110521288D01*
X143400500Y-110278712D01*
X143368838Y-110038211D01*
X143306054Y-109803900D01*
X143213224Y-109579788D01*
X143091936Y-109369711D01*
X142944265Y-109177262D01*
X142772738Y-109005735D01*
X142580289Y-108858064D01*
X142510263Y-108817634D01*
X142370216Y-108736778D01*
X142370214Y-108736777D01*
X142370212Y-108736776D01*
X142155197Y-108647714D01*
X142146103Y-108643947D01*
X142146101Y-108643946D01*
X142146100Y-108643946D01*
X141911789Y-108581162D01*
X141911787Y-108581161D01*
X141911781Y-108581160D01*
X141671293Y-108549500D01*
X141671288Y-108549500D01*
X140828712Y-108549500D01*
X140828706Y-108549500D01*
X140588218Y-108581160D01*
X140353896Y-108643947D01*
X140129783Y-108736778D01*
X139919712Y-108858063D01*
X139919711Y-108858064D01*
X139727262Y-109005735D01*
X139727260Y-109005736D01*
X139727256Y-109005740D01*
X139555740Y-109177256D01*
X139408063Y-109369712D01*
X139286778Y-109579783D01*
X139193947Y-109803896D01*
X139131160Y-110038218D01*
X139099500Y-110278706D01*
X137900499Y-110278706D01*
X137868838Y-110038211D01*
X137806054Y-109803900D01*
X137713224Y-109579788D01*
X137591936Y-109369711D01*
X137444265Y-109177262D01*
X137272738Y-109005735D01*
X137080289Y-108858064D01*
X137010263Y-108817634D01*
X136870216Y-108736778D01*
X136870214Y-108736777D01*
X136870212Y-108736776D01*
X136655197Y-108647714D01*
X136646103Y-108643947D01*
X136646101Y-108643946D01*
X136646100Y-108643946D01*
X136411789Y-108581162D01*
X136411787Y-108581161D01*
X136411781Y-108581160D01*
X136171293Y-108549500D01*
X136171288Y-108549500D01*
X135328712Y-108549500D01*
X135328706Y-108549500D01*
X135088218Y-108581160D01*
X134853896Y-108643947D01*
X134629783Y-108736778D01*
X134419712Y-108858063D01*
X134419711Y-108858064D01*
X134227262Y-109005735D01*
X134227260Y-109005736D01*
X134227256Y-109005740D01*
X134055740Y-109177256D01*
X133908063Y-109369712D01*
X133786778Y-109579783D01*
X133693947Y-109803896D01*
X133631160Y-110038218D01*
X133599500Y-110278706D01*
X126505500Y-110278706D01*
X126505500Y-106078706D01*
X133599500Y-106078706D01*
X133599500Y-106321293D01*
X133631160Y-106561781D01*
X133631161Y-106561787D01*
X133631162Y-106561789D01*
X133693946Y-106796100D01*
X133760819Y-106957547D01*
X133786778Y-107020216D01*
X133800392Y-107043796D01*
X133908064Y-107230289D01*
X134055735Y-107422738D01*
X134227262Y-107594265D01*
X134419711Y-107741936D01*
X134629788Y-107863224D01*
X134853900Y-107956054D01*
X135088211Y-108018838D01*
X135088217Y-108018838D01*
X135088218Y-108018839D01*
X135153600Y-108027446D01*
X135328712Y-108050500D01*
X136171288Y-108050500D01*
X136411789Y-108018838D01*
X136646100Y-107956054D01*
X136870212Y-107863224D01*
X137080289Y-107741936D01*
X137272738Y-107594265D01*
X137444265Y-107422738D01*
X137591936Y-107230289D01*
X137713224Y-107020212D01*
X137806054Y-106796100D01*
X137868838Y-106561789D01*
X137900500Y-106321288D01*
X137900500Y-106078712D01*
X137900499Y-106078706D01*
X139099500Y-106078706D01*
X139099500Y-106321293D01*
X139131160Y-106561781D01*
X139131161Y-106561787D01*
X139131162Y-106561789D01*
X139193946Y-106796100D01*
X139260819Y-106957547D01*
X139286778Y-107020216D01*
X139300392Y-107043796D01*
X139408064Y-107230289D01*
X139555735Y-107422738D01*
X139727262Y-107594265D01*
X139919711Y-107741936D01*
X140129788Y-107863224D01*
X140353900Y-107956054D01*
X140588211Y-108018838D01*
X140588217Y-108018838D01*
X140588218Y-108018839D01*
X140653600Y-108027446D01*
X140828712Y-108050500D01*
X141671288Y-108050500D01*
X141911789Y-108018838D01*
X142146100Y-107956054D01*
X142370212Y-107863224D01*
X142580289Y-107741936D01*
X142772738Y-107594265D01*
X142944265Y-107422738D01*
X143091936Y-107230289D01*
X143213224Y-107020212D01*
X143306054Y-106796100D01*
X143368838Y-106561789D01*
X143400500Y-106321288D01*
X143400500Y-106078712D01*
X143374353Y-105880102D01*
X143368839Y-105838218D01*
X143368838Y-105838217D01*
X143368838Y-105838211D01*
X143306054Y-105603900D01*
X143213224Y-105379788D01*
X143091936Y-105169711D01*
X142944265Y-104977262D01*
X142772738Y-104805735D01*
X142621911Y-104690002D01*
X142621911Y-104690001D01*
X142580293Y-104658066D01*
X142580291Y-104658065D01*
X142441005Y-104577648D01*
X149379500Y-104577648D01*
X149379500Y-104782352D01*
X149411523Y-104984534D01*
X149455015Y-105118390D01*
X149474778Y-105179212D01*
X149474782Y-105179224D01*
X149567714Y-105361612D01*
X149688028Y-105527212D01*
X149688035Y-105527220D01*
X149832779Y-105671964D01*
X149832787Y-105671971D01*
X149912372Y-105729792D01*
X149998390Y-105792287D01*
X150031631Y-105809224D01*
X150047363Y-105817240D01*
X150104680Y-105868849D01*
X150128514Y-105942203D01*
X150112478Y-106017645D01*
X150060869Y-106074962D01*
X150047363Y-106082760D01*
X149998388Y-106107714D01*
X149832787Y-106228028D01*
X149832779Y-106228035D01*
X149688035Y-106372779D01*
X149688028Y-106372787D01*
X149567714Y-106538387D01*
X149474782Y-106720775D01*
X149474778Y-106720787D01*
X149412557Y-106912285D01*
X149411523Y-106915466D01*
X149379500Y-107117648D01*
X149379500Y-107322352D01*
X149411523Y-107524534D01*
X149471188Y-107708165D01*
X149474778Y-107719212D01*
X149474782Y-107719224D01*
X149567714Y-107901612D01*
X149688028Y-108067212D01*
X149688035Y-108067220D01*
X149832779Y-108211964D01*
X149832787Y-108211971D01*
X149922130Y-108276881D01*
X149998390Y-108332287D01*
X150047363Y-108357240D01*
X150104680Y-108408849D01*
X150128514Y-108482203D01*
X150112478Y-108557645D01*
X150060869Y-108614962D01*
X150047363Y-108622760D01*
X149998388Y-108647714D01*
X149832787Y-108768028D01*
X149832779Y-108768035D01*
X149688035Y-108912779D01*
X149688028Y-108912787D01*
X149567714Y-109078387D01*
X149474782Y-109260775D01*
X149474780Y-109260781D01*
X149411523Y-109455466D01*
X149379500Y-109657648D01*
X149379500Y-109862352D01*
X149400029Y-109991964D01*
X149411523Y-110064534D01*
X149474778Y-110259212D01*
X149474782Y-110259224D01*
X149567714Y-110441612D01*
X149688028Y-110607212D01*
X149688035Y-110607220D01*
X149832779Y-110751964D01*
X149832787Y-110751971D01*
X149922130Y-110816881D01*
X149998390Y-110872287D01*
X150047363Y-110897240D01*
X150104680Y-110948849D01*
X150128514Y-111022203D01*
X150112478Y-111097645D01*
X150060869Y-111154962D01*
X150047363Y-111162760D01*
X149998388Y-111187714D01*
X149832787Y-111308028D01*
X149832779Y-111308035D01*
X149688035Y-111452779D01*
X149688028Y-111452787D01*
X149567714Y-111618387D01*
X149474782Y-111800775D01*
X149474778Y-111800787D01*
X149462940Y-111837222D01*
X149411523Y-111995466D01*
X149379500Y-112197648D01*
X149379500Y-112402352D01*
X149411523Y-112604534D01*
X149472702Y-112792825D01*
X149474778Y-112799212D01*
X149474782Y-112799224D01*
X149567714Y-112981612D01*
X149688028Y-113147212D01*
X149688035Y-113147220D01*
X149832779Y-113291964D01*
X149832787Y-113291971D01*
X149998387Y-113412285D01*
X149998390Y-113412287D01*
X150180781Y-113505220D01*
X150375466Y-113568477D01*
X150577648Y-113600500D01*
X150577653Y-113600500D01*
X150782347Y-113600500D01*
X150782352Y-113600500D01*
X150984534Y-113568477D01*
X151179219Y-113505220D01*
X151361610Y-113412287D01*
X151527219Y-113291966D01*
X151671966Y-113147219D01*
X151792287Y-112981610D01*
X151885220Y-112799219D01*
X151948477Y-112604534D01*
X151980500Y-112402352D01*
X151980500Y-112197648D01*
X151948477Y-111995466D01*
X151885220Y-111800781D01*
X151792287Y-111618390D01*
X151792285Y-111618387D01*
X151671971Y-111452787D01*
X151671964Y-111452779D01*
X151527220Y-111308035D01*
X151527212Y-111308028D01*
X151361609Y-111187712D01*
X151312637Y-111162760D01*
X151255319Y-111111152D01*
X151231485Y-111037798D01*
X151247521Y-110962356D01*
X151299129Y-110905038D01*
X151312637Y-110897240D01*
X151327969Y-110889428D01*
X151361610Y-110872287D01*
X151527219Y-110751966D01*
X151671966Y-110607219D01*
X151792287Y-110441610D01*
X151885220Y-110259219D01*
X151948477Y-110064534D01*
X151980500Y-109862352D01*
X151980500Y-109657648D01*
X151948477Y-109455466D01*
X151885220Y-109260781D01*
X151792287Y-109078390D01*
X151739504Y-109005740D01*
X151671971Y-108912787D01*
X151671964Y-108912779D01*
X151527220Y-108768035D01*
X151527212Y-108768028D01*
X151361609Y-108647712D01*
X151312637Y-108622760D01*
X151255319Y-108571152D01*
X151231485Y-108497798D01*
X151247521Y-108422356D01*
X151299129Y-108365038D01*
X151312637Y-108357240D01*
X151361610Y-108332287D01*
X151527219Y-108211966D01*
X151671966Y-108067219D01*
X151792287Y-107901610D01*
X151885220Y-107719219D01*
X151948477Y-107524534D01*
X151980500Y-107322352D01*
X151980500Y-107117648D01*
X151948477Y-106915466D01*
X151885220Y-106720781D01*
X151792287Y-106538390D01*
X151751036Y-106481612D01*
X151671971Y-106372787D01*
X151671964Y-106372779D01*
X151527220Y-106228035D01*
X151527212Y-106228028D01*
X151361609Y-106107712D01*
X151312637Y-106082760D01*
X151255319Y-106031152D01*
X151231485Y-105957798D01*
X151247521Y-105882356D01*
X151299129Y-105825038D01*
X151312637Y-105817240D01*
X151328393Y-105809212D01*
X151361610Y-105792287D01*
X151419692Y-105750088D01*
X154999500Y-105750088D01*
X154999500Y-115098539D01*
X155037948Y-115291834D01*
X155037949Y-115291836D01*
X155113367Y-115473912D01*
X155113368Y-115473915D01*
X155186197Y-115582911D01*
X155222861Y-115637782D01*
X155362218Y-115777139D01*
X155362221Y-115777141D01*
X159455859Y-119870779D01*
X159465666Y-119887766D01*
X159479538Y-119901638D01*
X159484615Y-119920586D01*
X159494423Y-119937574D01*
X159499500Y-119976138D01*
X159499500Y-119990597D01*
X159479538Y-120065097D01*
X159425000Y-120119635D01*
X159350500Y-120139597D01*
X159276000Y-120119635D01*
X159245141Y-120095956D01*
X159157220Y-120008035D01*
X159157212Y-120008028D01*
X158991612Y-119887714D01*
X158809224Y-119794782D01*
X158809220Y-119794780D01*
X158809219Y-119794780D01*
X158614534Y-119731523D01*
X158412352Y-119699500D01*
X158207648Y-119699500D01*
X158039163Y-119726185D01*
X158005465Y-119731523D01*
X157810787Y-119794778D01*
X157810775Y-119794782D01*
X157628387Y-119887714D01*
X157462787Y-120008028D01*
X157462779Y-120008035D01*
X157318035Y-120152779D01*
X157318028Y-120152787D01*
X157197714Y-120318387D01*
X157104782Y-120500775D01*
X157104778Y-120500787D01*
X157041523Y-120695465D01*
X157035118Y-120735902D01*
X157009500Y-120897648D01*
X157009500Y-121102352D01*
X157041523Y-121304534D01*
X157076559Y-121412365D01*
X157104778Y-121499212D01*
X157104782Y-121499224D01*
X157197714Y-121681612D01*
X157318028Y-121847212D01*
X157318035Y-121847220D01*
X157462779Y-121991964D01*
X157462787Y-121991971D01*
X157628387Y-122112285D01*
X157628390Y-122112287D01*
X157810781Y-122205220D01*
X158005466Y-122268477D01*
X158207648Y-122300500D01*
X158207653Y-122300500D01*
X158412347Y-122300500D01*
X158412352Y-122300500D01*
X158614534Y-122268477D01*
X158809219Y-122205220D01*
X158991610Y-122112287D01*
X159157219Y-121991966D01*
X159245141Y-121904044D01*
X159311936Y-121865480D01*
X159389064Y-121865480D01*
X159455859Y-121904044D01*
X159494423Y-121970839D01*
X159499500Y-122009403D01*
X159499500Y-123990597D01*
X159479538Y-124065097D01*
X159425000Y-124119635D01*
X159350500Y-124139597D01*
X159276000Y-124119635D01*
X159245141Y-124095956D01*
X159157220Y-124008035D01*
X159157212Y-124008028D01*
X158991612Y-123887714D01*
X158809224Y-123794782D01*
X158809220Y-123794780D01*
X158809219Y-123794780D01*
X158614534Y-123731523D01*
X158412352Y-123699500D01*
X158207648Y-123699500D01*
X158039163Y-123726185D01*
X158005465Y-123731523D01*
X157810787Y-123794778D01*
X157810775Y-123794782D01*
X157628387Y-123887714D01*
X157462787Y-124008028D01*
X157462779Y-124008035D01*
X157318035Y-124152779D01*
X157318028Y-124152787D01*
X157197714Y-124318387D01*
X157104782Y-124500775D01*
X157104780Y-124500781D01*
X157041523Y-124695466D01*
X157009500Y-124897648D01*
X157009500Y-125102352D01*
X157041523Y-125304534D01*
X157103338Y-125494782D01*
X157104778Y-125499212D01*
X157104782Y-125499224D01*
X157197714Y-125681612D01*
X157318028Y-125847212D01*
X157318035Y-125847220D01*
X157462779Y-125991964D01*
X157462787Y-125991971D01*
X157628387Y-126112285D01*
X157628390Y-126112287D01*
X157810781Y-126205220D01*
X158005466Y-126268477D01*
X158207648Y-126300500D01*
X158207653Y-126300500D01*
X158412347Y-126300500D01*
X158412352Y-126300500D01*
X158614534Y-126268477D01*
X158809219Y-126205220D01*
X158991610Y-126112287D01*
X159157219Y-125991966D01*
X159245141Y-125904044D01*
X159311936Y-125865480D01*
X159389064Y-125865480D01*
X159455859Y-125904044D01*
X159494423Y-125970839D01*
X159499500Y-126009403D01*
X159499500Y-127490597D01*
X159479538Y-127565097D01*
X159425000Y-127619635D01*
X159350500Y-127639597D01*
X159276000Y-127619635D01*
X159245141Y-127595956D01*
X159157220Y-127508035D01*
X159157212Y-127508028D01*
X158991612Y-127387714D01*
X158809224Y-127294782D01*
X158809220Y-127294780D01*
X158809219Y-127294780D01*
X158614534Y-127231523D01*
X158412352Y-127199500D01*
X158207648Y-127199500D01*
X158039163Y-127226185D01*
X158005465Y-127231523D01*
X157810787Y-127294778D01*
X157810775Y-127294782D01*
X157628387Y-127387714D01*
X157462787Y-127508028D01*
X157462779Y-127508035D01*
X157318035Y-127652779D01*
X157318028Y-127652787D01*
X157197714Y-127818387D01*
X157104782Y-128000775D01*
X157104778Y-128000787D01*
X157063538Y-128127712D01*
X157041523Y-128195466D01*
X157009500Y-128397648D01*
X157009500Y-128602352D01*
X157041523Y-128804534D01*
X157084065Y-128935466D01*
X157104778Y-128999212D01*
X157104782Y-128999224D01*
X157197714Y-129181612D01*
X157318028Y-129347212D01*
X157318035Y-129347220D01*
X157462779Y-129491964D01*
X157462787Y-129491971D01*
X157628387Y-129612285D01*
X157628390Y-129612287D01*
X157810781Y-129705220D01*
X158005466Y-129768477D01*
X158207648Y-129800500D01*
X158207653Y-129800500D01*
X158412347Y-129800500D01*
X158412352Y-129800500D01*
X158614534Y-129768477D01*
X158809219Y-129705220D01*
X158991610Y-129612287D01*
X159157219Y-129491966D01*
X159245141Y-129404044D01*
X159311936Y-129365480D01*
X159389064Y-129365480D01*
X159455859Y-129404044D01*
X159494423Y-129470839D01*
X159499500Y-129509403D01*
X159499500Y-130990597D01*
X159479538Y-131065097D01*
X159425000Y-131119635D01*
X159350500Y-131139597D01*
X159276000Y-131119635D01*
X159245141Y-131095956D01*
X159157220Y-131008035D01*
X159157212Y-131008028D01*
X158991612Y-130887714D01*
X158809224Y-130794782D01*
X158809220Y-130794780D01*
X158809219Y-130794780D01*
X158614534Y-130731523D01*
X158412352Y-130699500D01*
X158207648Y-130699500D01*
X158039163Y-130726185D01*
X158005465Y-130731523D01*
X157810787Y-130794778D01*
X157810775Y-130794782D01*
X157628387Y-130887714D01*
X157462787Y-131008028D01*
X157462779Y-131008035D01*
X157318035Y-131152779D01*
X157318028Y-131152787D01*
X157197714Y-131318387D01*
X157104782Y-131500775D01*
X157104780Y-131500781D01*
X157041523Y-131695466D01*
X157009500Y-131897648D01*
X157009500Y-132102352D01*
X157041523Y-132304534D01*
X157104778Y-132499212D01*
X157104782Y-132499224D01*
X157197714Y-132681612D01*
X157318028Y-132847212D01*
X157318035Y-132847220D01*
X157462779Y-132991964D01*
X157462787Y-132991971D01*
X157609467Y-133098539D01*
X157628390Y-133112287D01*
X157810781Y-133205220D01*
X158005466Y-133268477D01*
X158207648Y-133300500D01*
X158207653Y-133300500D01*
X158412347Y-133300500D01*
X158412352Y-133300500D01*
X158614534Y-133268477D01*
X158809219Y-133205220D01*
X158991610Y-133112287D01*
X159157219Y-132991966D01*
X159245141Y-132904044D01*
X159311936Y-132865480D01*
X159389064Y-132865480D01*
X159455859Y-132904044D01*
X159494423Y-132970839D01*
X159499500Y-133009403D01*
X159499500Y-133098541D01*
X159502730Y-133114780D01*
X159537948Y-133291834D01*
X159537949Y-133291836D01*
X159613367Y-133473912D01*
X159613368Y-133473915D01*
X159666453Y-133553362D01*
X159722861Y-133637782D01*
X159862218Y-133777139D01*
X159862221Y-133777141D01*
X161039115Y-134954035D01*
X161039122Y-134954043D01*
X161042861Y-134957782D01*
X161182218Y-135097139D01*
X161247675Y-135140876D01*
X161346083Y-135206631D01*
X161474834Y-135259961D01*
X161474833Y-135259961D01*
X161503998Y-135272041D01*
X161528164Y-135282051D01*
X161624812Y-135301275D01*
X161721459Y-135320500D01*
X161721460Y-135320500D01*
X161823562Y-135320500D01*
X161830975Y-135321243D01*
X161860311Y-135332342D01*
X161890615Y-135340462D01*
X161902957Y-135348477D01*
X161903113Y-135348536D01*
X161903186Y-135348625D01*
X161903682Y-135348947D01*
X162018390Y-135432287D01*
X162200781Y-135525220D01*
X162395466Y-135588477D01*
X162597648Y-135620500D01*
X162597653Y-135620500D01*
X162802347Y-135620500D01*
X162802352Y-135620500D01*
X163004534Y-135588477D01*
X163199219Y-135525220D01*
X163381610Y-135432287D01*
X163547219Y-135311966D01*
X163691966Y-135167219D01*
X163812287Y-135001610D01*
X163905220Y-134819219D01*
X163968477Y-134624534D01*
X164000500Y-134422352D01*
X164000500Y-134217648D01*
X163968477Y-134015466D01*
X163905220Y-133820781D01*
X163812287Y-133638390D01*
X163812285Y-133638387D01*
X163691971Y-133472787D01*
X163691964Y-133472779D01*
X163547220Y-133328035D01*
X163547212Y-133328028D01*
X163381609Y-133207712D01*
X163332637Y-133182760D01*
X163275319Y-133131152D01*
X163251485Y-133057798D01*
X163267521Y-132982356D01*
X163319129Y-132925038D01*
X163332637Y-132917240D01*
X163381610Y-132892287D01*
X163547219Y-132771966D01*
X163691966Y-132627219D01*
X163812287Y-132461610D01*
X163905220Y-132279219D01*
X163968477Y-132084534D01*
X164000500Y-131882352D01*
X164000500Y-131677648D01*
X163968477Y-131475466D01*
X163905220Y-131280781D01*
X163812287Y-131098390D01*
X163810519Y-131095956D01*
X163691971Y-130932787D01*
X163691964Y-130932779D01*
X163547220Y-130788035D01*
X163547212Y-130788028D01*
X163381609Y-130667712D01*
X163332637Y-130642760D01*
X163275319Y-130591152D01*
X163251485Y-130517798D01*
X163267521Y-130442356D01*
X163319129Y-130385038D01*
X163332637Y-130377240D01*
X163381610Y-130352287D01*
X163547219Y-130231966D01*
X163691966Y-130087219D01*
X163812287Y-129921610D01*
X163905220Y-129739219D01*
X163968477Y-129544534D01*
X164000500Y-129342352D01*
X164000500Y-129137648D01*
X163968477Y-128935466D01*
X163905220Y-128740781D01*
X163812287Y-128558390D01*
X163812285Y-128558387D01*
X163691971Y-128392787D01*
X163691964Y-128392779D01*
X163543079Y-128243894D01*
X163544703Y-128242269D01*
X163507042Y-128187449D01*
X163501004Y-128110558D01*
X163534221Y-128040949D01*
X163597792Y-127997275D01*
X163603251Y-127995668D01*
X163607477Y-127994091D01*
X163607483Y-127994091D01*
X163721376Y-127951611D01*
X163742329Y-127943797D01*
X163742333Y-127943795D01*
X163799938Y-127900671D01*
X163857546Y-127857546D01*
X163943796Y-127742331D01*
X163994091Y-127607483D01*
X164000500Y-127547873D01*
X164000499Y-126597648D01*
X169019500Y-126597648D01*
X169019500Y-126802352D01*
X169051523Y-127004534D01*
X169086533Y-127112285D01*
X169114778Y-127199212D01*
X169114782Y-127199224D01*
X169207714Y-127381612D01*
X169328028Y-127547212D01*
X169328035Y-127547220D01*
X169472779Y-127691964D01*
X169472787Y-127691971D01*
X169542100Y-127742329D01*
X169638390Y-127812287D01*
X169687363Y-127837240D01*
X169744680Y-127888849D01*
X169768514Y-127962203D01*
X169752478Y-128037645D01*
X169700869Y-128094962D01*
X169687363Y-128102760D01*
X169638388Y-128127714D01*
X169472787Y-128248028D01*
X169472779Y-128248035D01*
X169328035Y-128392779D01*
X169328028Y-128392787D01*
X169207714Y-128558387D01*
X169114782Y-128740775D01*
X169114780Y-128740781D01*
X169051523Y-128935466D01*
X169019500Y-129137648D01*
X169019500Y-129342352D01*
X169051523Y-129544534D01*
X169103733Y-129705221D01*
X169114778Y-129739212D01*
X169114782Y-129739224D01*
X169207714Y-129921612D01*
X169328028Y-130087212D01*
X169328035Y-130087220D01*
X169472779Y-130231964D01*
X169472787Y-130231971D01*
X169562130Y-130296881D01*
X169638390Y-130352287D01*
X169687363Y-130377240D01*
X169744680Y-130428849D01*
X169768514Y-130502203D01*
X169752478Y-130577645D01*
X169700869Y-130634962D01*
X169687363Y-130642760D01*
X169638388Y-130667714D01*
X169472787Y-130788028D01*
X169472779Y-130788035D01*
X169328035Y-130932779D01*
X169328028Y-130932787D01*
X169207714Y-131098387D01*
X169114782Y-131280775D01*
X169114780Y-131280781D01*
X169051523Y-131475466D01*
X169019500Y-131677648D01*
X169019500Y-131882352D01*
X169051523Y-132084534D01*
X169114778Y-132279212D01*
X169114782Y-132279224D01*
X169207714Y-132461612D01*
X169328028Y-132627212D01*
X169328035Y-132627220D01*
X169472779Y-132771964D01*
X169472787Y-132771971D01*
X169562130Y-132836881D01*
X169638390Y-132892287D01*
X169687363Y-132917240D01*
X169744680Y-132968849D01*
X169768514Y-133042203D01*
X169752478Y-133117645D01*
X169700869Y-133174962D01*
X169687363Y-133182760D01*
X169638388Y-133207714D01*
X169472787Y-133328028D01*
X169472779Y-133328035D01*
X169328035Y-133472779D01*
X169328028Y-133472787D01*
X169207714Y-133638387D01*
X169114782Y-133820775D01*
X169114780Y-133820781D01*
X169051523Y-134015466D01*
X169019500Y-134217648D01*
X169019500Y-134422352D01*
X169051523Y-134624534D01*
X169100633Y-134775680D01*
X169114778Y-134819212D01*
X169114782Y-134819224D01*
X169207714Y-135001612D01*
X169328028Y-135167212D01*
X169328035Y-135167220D01*
X169472779Y-135311964D01*
X169472787Y-135311971D01*
X169638387Y-135432285D01*
X169638390Y-135432287D01*
X169820781Y-135525220D01*
X170015466Y-135588477D01*
X170217648Y-135620500D01*
X170217653Y-135620500D01*
X170422347Y-135620500D01*
X170422352Y-135620500D01*
X170624534Y-135588477D01*
X170819219Y-135525220D01*
X171001610Y-135432287D01*
X171167219Y-135311966D01*
X171311966Y-135167219D01*
X171432287Y-135001610D01*
X171525220Y-134819219D01*
X171588477Y-134624534D01*
X171620500Y-134422352D01*
X171620500Y-134217648D01*
X171588477Y-134015466D01*
X171525220Y-133820781D01*
X171432287Y-133638390D01*
X171432285Y-133638387D01*
X171311971Y-133472787D01*
X171311964Y-133472779D01*
X171167220Y-133328035D01*
X171167212Y-133328028D01*
X171001609Y-133207712D01*
X170952637Y-133182760D01*
X170895319Y-133131152D01*
X170871485Y-133057798D01*
X170887521Y-132982356D01*
X170939129Y-132925038D01*
X170952637Y-132917240D01*
X171001610Y-132892287D01*
X171167219Y-132771966D01*
X171311966Y-132627219D01*
X171432287Y-132461610D01*
X171525220Y-132279219D01*
X171588477Y-132084534D01*
X171620500Y-131882352D01*
X171620500Y-131677648D01*
X171588477Y-131475466D01*
X171525220Y-131280781D01*
X171432287Y-131098390D01*
X171430519Y-131095956D01*
X171311971Y-130932787D01*
X171311964Y-130932779D01*
X171167220Y-130788035D01*
X171167212Y-130788028D01*
X171001609Y-130667712D01*
X170952637Y-130642760D01*
X170895319Y-130591152D01*
X170871485Y-130517798D01*
X170887521Y-130442356D01*
X170939129Y-130385038D01*
X170952637Y-130377240D01*
X171001610Y-130352287D01*
X171167219Y-130231966D01*
X171311966Y-130087219D01*
X171432287Y-129921610D01*
X171525220Y-129739219D01*
X171588477Y-129544534D01*
X171611742Y-129397648D01*
X173389500Y-129397648D01*
X173389500Y-129602352D01*
X173411177Y-129739212D01*
X173421523Y-129804534D01*
X173484778Y-129999212D01*
X173484782Y-129999224D01*
X173577714Y-130181612D01*
X173698028Y-130347212D01*
X173698035Y-130347220D01*
X173842779Y-130491964D01*
X173842787Y-130491971D01*
X173960709Y-130577645D01*
X174008390Y-130612287D01*
X174190781Y-130705220D01*
X174385466Y-130768477D01*
X174587648Y-130800500D01*
X174587653Y-130800500D01*
X174792347Y-130800500D01*
X174792352Y-130800500D01*
X174994534Y-130768477D01*
X175189219Y-130705220D01*
X175371610Y-130612287D01*
X175537219Y-130491966D01*
X175681966Y-130347219D01*
X175802287Y-130181610D01*
X175895220Y-129999219D01*
X175958477Y-129804534D01*
X175990500Y-129602352D01*
X175990500Y-129397648D01*
X181009500Y-129397648D01*
X181009500Y-129602352D01*
X181031177Y-129739212D01*
X181041523Y-129804534D01*
X181104778Y-129999212D01*
X181104782Y-129999224D01*
X181197714Y-130181612D01*
X181318028Y-130347212D01*
X181318035Y-130347220D01*
X181462779Y-130491964D01*
X181462787Y-130491971D01*
X181580709Y-130577645D01*
X181628390Y-130612287D01*
X181810781Y-130705220D01*
X182005466Y-130768477D01*
X182207648Y-130800500D01*
X182207653Y-130800500D01*
X182412347Y-130800500D01*
X182412352Y-130800500D01*
X182614534Y-130768477D01*
X182809219Y-130705220D01*
X182991610Y-130612287D01*
X183157219Y-130491966D01*
X183301966Y-130347219D01*
X183422287Y-130181610D01*
X183515220Y-129999219D01*
X183578477Y-129804534D01*
X183610500Y-129602352D01*
X183610500Y-129397648D01*
X183578477Y-129195466D01*
X183515220Y-129000781D01*
X183422287Y-128818390D01*
X183365906Y-128740787D01*
X183301971Y-128652787D01*
X183301964Y-128652779D01*
X183157220Y-128508035D01*
X183157212Y-128508028D01*
X182991612Y-128387714D01*
X182809224Y-128294782D01*
X182809220Y-128294780D01*
X182809219Y-128294780D01*
X182614534Y-128231523D01*
X182412352Y-128199500D01*
X182207648Y-128199500D01*
X182039163Y-128226185D01*
X182005465Y-128231523D01*
X181810787Y-128294778D01*
X181810775Y-128294782D01*
X181628387Y-128387714D01*
X181462787Y-128508028D01*
X181462779Y-128508035D01*
X181318035Y-128652779D01*
X181318028Y-128652787D01*
X181197714Y-128818387D01*
X181104782Y-129000775D01*
X181104780Y-129000781D01*
X181041523Y-129195466D01*
X181009500Y-129397648D01*
X175990500Y-129397648D01*
X175958477Y-129195466D01*
X175895220Y-129000781D01*
X175802287Y-128818390D01*
X175745906Y-128740787D01*
X175681971Y-128652787D01*
X175681964Y-128652779D01*
X175537220Y-128508035D01*
X175537212Y-128508028D01*
X175371612Y-128387714D01*
X175189224Y-128294782D01*
X175189220Y-128294780D01*
X175189219Y-128294780D01*
X174994534Y-128231523D01*
X174792352Y-128199500D01*
X174587648Y-128199500D01*
X174419163Y-128226185D01*
X174385465Y-128231523D01*
X174190787Y-128294778D01*
X174190775Y-128294782D01*
X174008387Y-128387714D01*
X173842787Y-128508028D01*
X173842779Y-128508035D01*
X173698035Y-128652779D01*
X173698028Y-128652787D01*
X173577714Y-128818387D01*
X173484782Y-129000775D01*
X173484780Y-129000781D01*
X173421523Y-129195466D01*
X173389500Y-129397648D01*
X171611742Y-129397648D01*
X171620500Y-129342352D01*
X171620500Y-129137648D01*
X171588477Y-128935466D01*
X171525220Y-128740781D01*
X171432287Y-128558390D01*
X171432285Y-128558387D01*
X171311971Y-128392787D01*
X171311964Y-128392779D01*
X171167220Y-128248035D01*
X171167212Y-128248028D01*
X171001609Y-128127712D01*
X170952637Y-128102760D01*
X170895319Y-128051152D01*
X170871485Y-127977798D01*
X170887521Y-127902356D01*
X170939129Y-127845038D01*
X170952637Y-127837240D01*
X171001610Y-127812287D01*
X171167219Y-127691966D01*
X171311966Y-127547219D01*
X171432287Y-127381610D01*
X171525220Y-127199219D01*
X171588477Y-127004534D01*
X171620500Y-126802352D01*
X171620500Y-126597648D01*
X171588477Y-126395466D01*
X171525220Y-126200781D01*
X171432287Y-126018390D01*
X171413088Y-125991964D01*
X171311971Y-125852787D01*
X171311964Y-125852779D01*
X171167220Y-125708035D01*
X171167212Y-125708028D01*
X171001612Y-125587714D01*
X170819224Y-125494782D01*
X170819220Y-125494780D01*
X170819219Y-125494780D01*
X170624534Y-125431523D01*
X170422352Y-125399500D01*
X170217648Y-125399500D01*
X170049163Y-125426185D01*
X170015465Y-125431523D01*
X169820787Y-125494778D01*
X169820775Y-125494782D01*
X169638387Y-125587714D01*
X169472787Y-125708028D01*
X169472779Y-125708035D01*
X169328035Y-125852779D01*
X169328028Y-125852787D01*
X169207714Y-126018387D01*
X169114782Y-126200775D01*
X169114778Y-126200787D01*
X169081069Y-126304534D01*
X169051523Y-126395466D01*
X169019500Y-126597648D01*
X164000499Y-126597648D01*
X164000499Y-125852128D01*
X163994091Y-125792517D01*
X163979588Y-125753633D01*
X163943797Y-125657670D01*
X163943795Y-125657666D01*
X163857547Y-125542455D01*
X163857544Y-125542452D01*
X163742333Y-125456204D01*
X163742329Y-125456202D01*
X163607482Y-125405908D01*
X163547876Y-125399500D01*
X161852136Y-125399500D01*
X161852111Y-125399502D01*
X161792521Y-125405908D01*
X161792515Y-125405909D01*
X161701569Y-125439830D01*
X161624790Y-125447161D01*
X161554632Y-125415120D01*
X161509894Y-125352293D01*
X161500500Y-125300224D01*
X161500500Y-120389778D01*
X163834500Y-120389778D01*
X163834500Y-120610222D01*
X163844116Y-120670933D01*
X163868985Y-120827956D01*
X163937105Y-121037606D01*
X164037185Y-121234023D01*
X164037186Y-121234024D01*
X164166758Y-121412365D01*
X164322635Y-121568242D01*
X164465625Y-121672129D01*
X164500975Y-121697813D01*
X164500976Y-121697814D01*
X164500978Y-121697815D01*
X164697394Y-121797895D01*
X164784512Y-121826201D01*
X164907043Y-121866014D01*
X164907048Y-121866014D01*
X164907049Y-121866015D01*
X165124778Y-121900500D01*
X165124782Y-121900500D01*
X165345218Y-121900500D01*
X165345222Y-121900500D01*
X165562951Y-121866015D01*
X165562952Y-121866014D01*
X165562956Y-121866014D01*
X165643556Y-121839825D01*
X165772606Y-121797895D01*
X165969022Y-121697815D01*
X166147365Y-121568242D01*
X166303242Y-121412365D01*
X166432815Y-121234022D01*
X166532895Y-121037606D01*
X166578368Y-120897652D01*
X166601014Y-120827956D01*
X166601015Y-120827951D01*
X166635500Y-120610222D01*
X166635500Y-120389778D01*
X166601015Y-120172049D01*
X166601014Y-120172048D01*
X166601014Y-120172043D01*
X166547722Y-120008028D01*
X166532895Y-119962394D01*
X166432815Y-119765978D01*
X166303242Y-119587635D01*
X166147365Y-119431758D01*
X165969022Y-119302185D01*
X165772606Y-119202105D01*
X165562956Y-119133985D01*
X165425526Y-119112219D01*
X165345222Y-119099500D01*
X165124778Y-119099500D01*
X165044480Y-119112218D01*
X164907043Y-119133985D01*
X164697393Y-119202105D01*
X164500976Y-119302186D01*
X164322636Y-119431757D01*
X164322633Y-119431759D01*
X164166759Y-119587633D01*
X164166757Y-119587636D01*
X164037186Y-119765975D01*
X164037185Y-119765976D01*
X163937105Y-119962393D01*
X163868985Y-120172043D01*
X163860418Y-120226138D01*
X163834500Y-120389778D01*
X161500500Y-120389778D01*
X161500500Y-119401458D01*
X161480753Y-119302185D01*
X161462051Y-119208165D01*
X161422309Y-119112219D01*
X161422309Y-119112218D01*
X161386632Y-119026087D01*
X161386631Y-119026084D01*
X161349968Y-118971215D01*
X161277139Y-118862218D01*
X161137782Y-118722861D01*
X161134050Y-118719129D01*
X161134035Y-118719115D01*
X157044141Y-114629221D01*
X157005577Y-114562426D01*
X157000500Y-114523862D01*
X157000500Y-113648946D01*
X157020462Y-113574446D01*
X157075000Y-113519908D01*
X157149500Y-113499946D01*
X157224000Y-113519908D01*
X157238793Y-113529666D01*
X157257666Y-113543795D01*
X157257670Y-113543797D01*
X157392517Y-113594091D01*
X157452114Y-113600499D01*
X157452118Y-113600499D01*
X157452127Y-113600500D01*
X159147872Y-113600499D01*
X159207483Y-113594091D01*
X159303447Y-113558298D01*
X159342329Y-113543797D01*
X159342333Y-113543795D01*
X159411567Y-113491966D01*
X159457546Y-113457546D01*
X159517651Y-113377256D01*
X159543795Y-113342333D01*
X159543797Y-113342329D01*
X159564174Y-113287693D01*
X159594091Y-113207483D01*
X159600500Y-113147873D01*
X159600499Y-112397648D01*
X161389500Y-112397648D01*
X161389500Y-112602352D01*
X161421523Y-112804534D01*
X161479058Y-112981610D01*
X161484778Y-112999212D01*
X161484782Y-112999224D01*
X161577714Y-113181612D01*
X161698028Y-113347212D01*
X161698035Y-113347220D01*
X161842779Y-113491964D01*
X161842787Y-113491971D01*
X161983345Y-113594091D01*
X162008390Y-113612287D01*
X162190781Y-113705220D01*
X162385466Y-113768477D01*
X162587648Y-113800500D01*
X162587653Y-113800500D01*
X162792347Y-113800500D01*
X162792352Y-113800500D01*
X162994534Y-113768477D01*
X163189219Y-113705220D01*
X163371610Y-113612287D01*
X163537219Y-113491966D01*
X163681966Y-113347219D01*
X163802287Y-113181610D01*
X163895220Y-112999219D01*
X163958477Y-112804534D01*
X163990500Y-112602352D01*
X163990500Y-112397648D01*
X163958477Y-112195466D01*
X163895220Y-112000781D01*
X163802287Y-111818390D01*
X163789498Y-111800787D01*
X163782909Y-111791718D01*
X163724599Y-111711460D01*
X166499500Y-111711460D01*
X166499500Y-113598544D01*
X166516561Y-113684310D01*
X166516561Y-113684311D01*
X166537948Y-113791833D01*
X166537950Y-113791839D01*
X166557357Y-113838691D01*
X166613368Y-113973916D01*
X166700842Y-114104829D01*
X166722861Y-114137782D01*
X166722864Y-114137785D01*
X166870708Y-114285629D01*
X166870714Y-114285634D01*
X172705859Y-120120779D01*
X172744423Y-120187574D01*
X172749500Y-120226138D01*
X172749500Y-125116114D01*
X172729538Y-125190614D01*
X172721044Y-125203693D01*
X172637714Y-125318387D01*
X172544782Y-125500775D01*
X172544778Y-125500787D01*
X172493804Y-125657670D01*
X172481523Y-125695466D01*
X172449500Y-125897648D01*
X172449500Y-126102352D01*
X172475812Y-126268476D01*
X172481523Y-126304534D01*
X172544778Y-126499212D01*
X172544782Y-126499224D01*
X172637714Y-126681612D01*
X172758028Y-126847212D01*
X172758035Y-126847220D01*
X172902779Y-126991964D01*
X172902787Y-126991971D01*
X173068387Y-127112285D01*
X173068390Y-127112287D01*
X173250781Y-127205220D01*
X173445466Y-127268477D01*
X173647648Y-127300500D01*
X173647653Y-127300500D01*
X173852347Y-127300500D01*
X173852352Y-127300500D01*
X174054534Y-127268477D01*
X174249219Y-127205220D01*
X174431610Y-127112287D01*
X174597219Y-126991966D01*
X174741966Y-126847219D01*
X174862287Y-126681610D01*
X174955220Y-126499219D01*
X175018477Y-126304534D01*
X175050500Y-126102352D01*
X175050500Y-125897648D01*
X175018477Y-125695466D01*
X174955220Y-125500781D01*
X174862287Y-125318390D01*
X174778956Y-125203693D01*
X174751316Y-125131688D01*
X174750500Y-125116114D01*
X174750500Y-119651458D01*
X174723352Y-119514977D01*
X174712051Y-119458165D01*
X174706127Y-119443864D01*
X174688562Y-119401459D01*
X174647442Y-119302185D01*
X174647442Y-119302184D01*
X174647440Y-119302181D01*
X174636632Y-119276086D01*
X174527139Y-119112218D01*
X174387782Y-118972861D01*
X174387781Y-118972860D01*
X169657035Y-114242114D01*
X174519500Y-114242114D01*
X174519500Y-115837863D01*
X174519502Y-115837888D01*
X174525908Y-115897478D01*
X174525909Y-115897484D01*
X174576202Y-116032329D01*
X174576204Y-116032333D01*
X174662452Y-116147544D01*
X174662455Y-116147547D01*
X174777666Y-116233795D01*
X174777670Y-116233797D01*
X174912517Y-116284091D01*
X174972114Y-116290499D01*
X174972118Y-116290499D01*
X174972127Y-116290500D01*
X176567872Y-116290499D01*
X176627483Y-116284091D01*
X176723447Y-116248298D01*
X176762329Y-116233797D01*
X176762333Y-116233795D01*
X176819938Y-116190671D01*
X176877546Y-116147546D01*
X176963796Y-116032331D01*
X177014091Y-115897483D01*
X177015823Y-115881370D01*
X177020499Y-115837885D01*
X177020499Y-115837882D01*
X177020500Y-115837873D01*
X177020499Y-114242128D01*
X177014091Y-114182517D01*
X176997405Y-114137780D01*
X176963797Y-114047670D01*
X176963795Y-114047666D01*
X176877547Y-113932455D01*
X176877544Y-113932452D01*
X176762333Y-113846204D01*
X176762329Y-113846202D01*
X176627482Y-113795908D01*
X176567876Y-113789500D01*
X174972136Y-113789500D01*
X174972111Y-113789502D01*
X174912521Y-113795908D01*
X174912515Y-113795909D01*
X174777670Y-113846202D01*
X174777666Y-113846204D01*
X174662455Y-113932452D01*
X174662452Y-113932455D01*
X174576204Y-114047666D01*
X174576202Y-114047670D01*
X174525908Y-114182517D01*
X174519500Y-114242114D01*
X169657035Y-114242114D01*
X168544141Y-113129220D01*
X168505577Y-113062425D01*
X168500500Y-113023861D01*
X168500500Y-112286137D01*
X168520462Y-112211637D01*
X168544137Y-112180782D01*
X168849134Y-111875784D01*
X168915928Y-111837222D01*
X168993056Y-111837222D01*
X169059851Y-111875786D01*
X169098415Y-111942581D01*
X169098415Y-112019709D01*
X169096200Y-112027188D01*
X169041522Y-112195469D01*
X169037821Y-112218838D01*
X169009500Y-112397648D01*
X169009500Y-112602352D01*
X169041523Y-112804534D01*
X169099058Y-112981610D01*
X169104778Y-112999212D01*
X169104782Y-112999224D01*
X169197714Y-113181612D01*
X169318028Y-113347212D01*
X169318035Y-113347220D01*
X169462779Y-113491964D01*
X169462787Y-113491971D01*
X169603345Y-113594091D01*
X169628390Y-113612287D01*
X169810781Y-113705220D01*
X170005466Y-113768477D01*
X170207648Y-113800500D01*
X170207653Y-113800500D01*
X170412347Y-113800500D01*
X170412352Y-113800500D01*
X170614534Y-113768477D01*
X170809219Y-113705220D01*
X170991610Y-113612287D01*
X171157219Y-113491966D01*
X171301966Y-113347219D01*
X171422287Y-113181610D01*
X171515220Y-112999219D01*
X171578477Y-112804534D01*
X171610500Y-112602352D01*
X171610500Y-112401583D01*
X171979500Y-112401583D01*
X171979500Y-112598417D01*
X172010291Y-112792826D01*
X172071116Y-112980025D01*
X172071119Y-112980030D01*
X172071121Y-112980036D01*
X172116138Y-113068387D01*
X172160476Y-113155405D01*
X172276172Y-113314646D01*
X172415354Y-113453828D01*
X172574595Y-113569524D01*
X172749975Y-113658884D01*
X172937174Y-113719709D01*
X173131583Y-113750500D01*
X173131588Y-113750500D01*
X173328412Y-113750500D01*
X173328417Y-113750500D01*
X173522826Y-113719709D01*
X173710025Y-113658884D01*
X173885405Y-113569524D01*
X174044646Y-113453828D01*
X174183828Y-113314646D01*
X174299524Y-113155405D01*
X174388884Y-112980025D01*
X174449709Y-112792826D01*
X174480500Y-112598417D01*
X174480500Y-112401583D01*
X174449709Y-112207174D01*
X174388884Y-112019975D01*
X174388748Y-112019709D01*
X174372995Y-111988791D01*
X174299524Y-111844595D01*
X174183828Y-111685354D01*
X174044646Y-111546172D01*
X173885405Y-111430476D01*
X173810902Y-111392515D01*
X173710036Y-111341121D01*
X173710030Y-111341119D01*
X173710025Y-111341116D01*
X173522826Y-111280291D01*
X173328417Y-111249500D01*
X173131583Y-111249500D01*
X172937174Y-111280291D01*
X172765453Y-111336087D01*
X172749975Y-111341116D01*
X172749972Y-111341117D01*
X172749963Y-111341121D01*
X172574598Y-111430474D01*
X172574593Y-111430477D01*
X172415363Y-111546165D01*
X172415352Y-111546174D01*
X172276174Y-111685352D01*
X172276165Y-111685363D01*
X172160477Y-111844593D01*
X172160474Y-111844598D01*
X172071121Y-112019963D01*
X172071117Y-112019972D01*
X172071116Y-112019975D01*
X172010291Y-112207174D01*
X171979500Y-112401583D01*
X171610500Y-112401583D01*
X171610500Y-112397648D01*
X171578477Y-112195466D01*
X171515220Y-112000781D01*
X171422287Y-111818390D01*
X171409498Y-111800787D01*
X171301971Y-111652787D01*
X171301964Y-111652779D01*
X171157220Y-111508035D01*
X171157212Y-111508028D01*
X170991612Y-111387714D01*
X170809224Y-111294782D01*
X170809220Y-111294780D01*
X170809219Y-111294780D01*
X170614534Y-111231523D01*
X170412352Y-111199500D01*
X170207648Y-111199500D01*
X170086055Y-111218758D01*
X170005469Y-111231522D01*
X169837187Y-111286200D01*
X169760164Y-111290236D01*
X169691443Y-111255220D01*
X169649436Y-111190535D01*
X169645400Y-111113512D01*
X169680416Y-111044791D01*
X169685759Y-111039160D01*
X170392459Y-110332459D01*
X170459252Y-110293897D01*
X170474496Y-110290656D01*
X170614534Y-110268477D01*
X170809219Y-110205220D01*
X170991610Y-110112287D01*
X171157219Y-109991966D01*
X171301966Y-109847219D01*
X171422287Y-109681610D01*
X171515220Y-109499219D01*
X171578477Y-109304534D01*
X171610500Y-109102352D01*
X171610500Y-108897648D01*
X171578477Y-108695466D01*
X171515220Y-108500781D01*
X171422287Y-108318390D01*
X171344970Y-108211971D01*
X171301971Y-108152787D01*
X171301964Y-108152779D01*
X171157220Y-108008035D01*
X171157212Y-108008028D01*
X170991612Y-107887714D01*
X170809224Y-107794782D01*
X170809220Y-107794780D01*
X170809219Y-107794780D01*
X170614534Y-107731523D01*
X170412352Y-107699500D01*
X170207648Y-107699500D01*
X170039163Y-107726185D01*
X170005465Y-107731523D01*
X169810787Y-107794778D01*
X169810775Y-107794782D01*
X169628387Y-107887714D01*
X169462787Y-108008028D01*
X169462779Y-108008035D01*
X169318035Y-108152779D01*
X169318028Y-108152787D01*
X169197714Y-108318387D01*
X169104782Y-108500775D01*
X169104778Y-108500787D01*
X169041522Y-108695467D01*
X169041520Y-108695476D01*
X169019344Y-108835490D01*
X168987973Y-108905950D01*
X168977538Y-108917540D01*
X166862221Y-111032858D01*
X166722864Y-111172214D01*
X166722860Y-111172219D01*
X166613368Y-111336084D01*
X166613367Y-111336087D01*
X166537949Y-111518163D01*
X166537948Y-111518165D01*
X166499500Y-111711460D01*
X163724599Y-111711460D01*
X163681971Y-111652787D01*
X163681964Y-111652779D01*
X163537220Y-111508035D01*
X163537212Y-111508028D01*
X163371612Y-111387714D01*
X163189224Y-111294782D01*
X163189220Y-111294780D01*
X163189219Y-111294780D01*
X162994534Y-111231523D01*
X162792352Y-111199500D01*
X162587648Y-111199500D01*
X162419163Y-111226185D01*
X162385465Y-111231523D01*
X162190787Y-111294778D01*
X162190775Y-111294782D01*
X162008387Y-111387714D01*
X161842787Y-111508028D01*
X161842779Y-111508035D01*
X161698035Y-111652779D01*
X161698028Y-111652787D01*
X161577714Y-111818387D01*
X161484782Y-112000775D01*
X161484778Y-112000787D01*
X161421523Y-112195465D01*
X161418962Y-112211637D01*
X161389500Y-112397648D01*
X159600499Y-112397648D01*
X159600499Y-112286137D01*
X159600499Y-111452136D01*
X159600499Y-111452128D01*
X159594091Y-111392517D01*
X159573043Y-111336084D01*
X159543797Y-111257670D01*
X159543795Y-111257666D01*
X159457547Y-111142455D01*
X159457544Y-111142452D01*
X159342333Y-111056204D01*
X159342329Y-111056202D01*
X159198751Y-111002652D01*
X159199738Y-111000003D01*
X159145313Y-110970696D01*
X159104787Y-110905073D01*
X159102502Y-110827979D01*
X159139070Y-110760071D01*
X159143155Y-110756182D01*
X159143079Y-110756106D01*
X159147221Y-110751964D01*
X159291966Y-110607219D01*
X159412287Y-110441610D01*
X159505220Y-110259219D01*
X159568477Y-110064534D01*
X159600500Y-109862352D01*
X159600500Y-109657648D01*
X159568477Y-109455466D01*
X159505220Y-109260781D01*
X159412287Y-109078390D01*
X159365221Y-109013608D01*
X159340348Y-108979373D01*
X159291971Y-108912787D01*
X159291964Y-108912779D01*
X159276833Y-108897648D01*
X161389500Y-108897648D01*
X161389500Y-109102352D01*
X161421523Y-109304534D01*
X161470563Y-109455465D01*
X161484778Y-109499212D01*
X161484782Y-109499224D01*
X161577714Y-109681612D01*
X161698028Y-109847212D01*
X161698035Y-109847220D01*
X161842779Y-109991964D01*
X161842787Y-109991971D01*
X161942663Y-110064534D01*
X162008390Y-110112287D01*
X162190781Y-110205220D01*
X162385466Y-110268477D01*
X162587648Y-110300500D01*
X162587653Y-110300500D01*
X162792347Y-110300500D01*
X162792352Y-110300500D01*
X162994534Y-110268477D01*
X163189219Y-110205220D01*
X163371610Y-110112287D01*
X163537219Y-109991966D01*
X163681966Y-109847219D01*
X163802287Y-109681610D01*
X163895220Y-109499219D01*
X163958477Y-109304534D01*
X163990500Y-109102352D01*
X163990500Y-108897648D01*
X163958477Y-108695466D01*
X163895220Y-108500781D01*
X163802287Y-108318390D01*
X163724970Y-108211971D01*
X163681971Y-108152787D01*
X163681964Y-108152779D01*
X163537220Y-108008035D01*
X163537212Y-108008028D01*
X163371612Y-107887714D01*
X163189224Y-107794782D01*
X163189220Y-107794780D01*
X163189219Y-107794780D01*
X162994534Y-107731523D01*
X162792352Y-107699500D01*
X162587648Y-107699500D01*
X162419163Y-107726185D01*
X162385465Y-107731523D01*
X162190787Y-107794778D01*
X162190775Y-107794782D01*
X162008387Y-107887714D01*
X161842787Y-108008028D01*
X161842779Y-108008035D01*
X161698035Y-108152779D01*
X161698028Y-108152787D01*
X161577714Y-108318387D01*
X161484782Y-108500775D01*
X161484778Y-108500787D01*
X161437039Y-108647714D01*
X161421523Y-108695466D01*
X161389500Y-108897648D01*
X159276833Y-108897648D01*
X159147220Y-108768035D01*
X159147212Y-108768028D01*
X158981609Y-108647712D01*
X158932637Y-108622760D01*
X158875319Y-108571152D01*
X158851485Y-108497798D01*
X158867521Y-108422356D01*
X158919129Y-108365038D01*
X158932637Y-108357240D01*
X158981610Y-108332287D01*
X159147219Y-108211966D01*
X159239435Y-108119748D01*
X159262009Y-108101223D01*
X159312898Y-108067220D01*
X159417782Y-107997139D01*
X159557139Y-107857782D01*
X159557139Y-107857780D01*
X159569401Y-107845519D01*
X159569404Y-107845514D01*
X161277139Y-106137782D01*
X161386631Y-105973915D01*
X161386632Y-105973914D01*
X161442842Y-105838211D01*
X161462051Y-105791836D01*
X161474856Y-105727460D01*
X161508967Y-105658289D01*
X161573096Y-105615438D01*
X161650059Y-105610393D01*
X161719233Y-105644505D01*
X161762084Y-105708634D01*
X161762699Y-105710485D01*
X161768973Y-105729793D01*
X161789278Y-105792287D01*
X161794779Y-105809215D01*
X161794782Y-105809224D01*
X161887714Y-105991612D01*
X162008028Y-106157212D01*
X162008035Y-106157220D01*
X162152779Y-106301964D01*
X162152787Y-106301971D01*
X162318387Y-106422285D01*
X162318390Y-106422287D01*
X162500781Y-106515220D01*
X162695466Y-106578477D01*
X162897648Y-106610500D01*
X162897653Y-106610500D01*
X163102347Y-106610500D01*
X163102352Y-106610500D01*
X163304534Y-106578477D01*
X163499219Y-106515220D01*
X163681610Y-106422287D01*
X163847219Y-106301966D01*
X163991966Y-106157219D01*
X164112287Y-105991610D01*
X164205220Y-105809219D01*
X164268477Y-105614534D01*
X164300500Y-105412352D01*
X164300500Y-105207648D01*
X164268477Y-105005466D01*
X164205220Y-104810781D01*
X164202651Y-104805740D01*
X164190732Y-104782347D01*
X164112287Y-104628390D01*
X164075421Y-104577648D01*
X163991971Y-104462787D01*
X163991964Y-104462779D01*
X163847220Y-104318035D01*
X163847212Y-104318028D01*
X163681612Y-104197714D01*
X163499224Y-104104782D01*
X163499220Y-104104780D01*
X163499219Y-104104780D01*
X163304534Y-104041523D01*
X163102352Y-104009500D01*
X162897648Y-104009500D01*
X162822029Y-104021477D01*
X162765715Y-104030396D01*
X162689009Y-104022333D01*
X162626612Y-103976998D01*
X162595241Y-103906538D01*
X162603304Y-103829832D01*
X162637046Y-103777873D01*
X167629288Y-98785630D01*
X167629295Y-98785625D01*
X167637780Y-98777140D01*
X167637782Y-98777139D01*
X167777139Y-98637782D01*
X167886632Y-98473914D01*
X167962051Y-98291835D01*
X167974252Y-98230500D01*
X168000500Y-98098540D01*
X168000500Y-97901460D01*
X168000500Y-93397648D01*
X168389500Y-93397648D01*
X168389500Y-93602352D01*
X168421523Y-93804534D01*
X168479244Y-93982182D01*
X168484778Y-93999212D01*
X168484782Y-93999224D01*
X168577714Y-94181612D01*
X168698028Y-94347212D01*
X168698035Y-94347220D01*
X168842779Y-94491964D01*
X168842787Y-94491971D01*
X168991042Y-94599683D01*
X169008390Y-94612287D01*
X169190781Y-94705220D01*
X169385466Y-94768477D01*
X169587648Y-94800500D01*
X169587653Y-94800500D01*
X169792347Y-94800500D01*
X169792352Y-94800500D01*
X169994534Y-94768477D01*
X170189219Y-94705220D01*
X170371610Y-94612287D01*
X170537219Y-94491966D01*
X170624141Y-94405044D01*
X170690936Y-94366480D01*
X170768064Y-94366480D01*
X170834859Y-94405044D01*
X170873423Y-94471839D01*
X170878500Y-94510403D01*
X170878500Y-101564539D01*
X170916948Y-101757833D01*
X170916950Y-101757838D01*
X170939038Y-101811163D01*
X170992365Y-101939908D01*
X170992370Y-101939918D01*
X171069121Y-102054782D01*
X171101861Y-102103781D01*
X171101864Y-102103784D01*
X171249708Y-102251628D01*
X171249714Y-102251633D01*
X172348855Y-103350775D01*
X172387419Y-103417570D01*
X172390661Y-103432825D01*
X172411520Y-103564523D01*
X172411522Y-103564532D01*
X172474778Y-103759212D01*
X172474782Y-103759224D01*
X172567714Y-103941612D01*
X172688028Y-104107212D01*
X172688035Y-104107220D01*
X172832779Y-104251964D01*
X172832787Y-104251971D01*
X172922130Y-104316881D01*
X172998390Y-104372287D01*
X173047363Y-104397240D01*
X173104680Y-104448849D01*
X173128514Y-104522203D01*
X173112478Y-104597645D01*
X173060869Y-104654962D01*
X173047363Y-104662760D01*
X172998388Y-104687714D01*
X172832787Y-104808028D01*
X172832779Y-104808035D01*
X172688035Y-104952779D01*
X172688028Y-104952787D01*
X172567714Y-105118387D01*
X172474782Y-105300775D01*
X172474778Y-105300787D01*
X172414020Y-105487782D01*
X172411523Y-105495466D01*
X172379500Y-105697648D01*
X172379500Y-105902352D01*
X172406839Y-106074962D01*
X172411523Y-106104534D01*
X172474778Y-106299212D01*
X172474782Y-106299224D01*
X172567714Y-106481612D01*
X172688028Y-106647212D01*
X172688035Y-106647220D01*
X172832779Y-106791964D01*
X172832787Y-106791971D01*
X172998387Y-106912285D01*
X172998390Y-106912287D01*
X173180781Y-107005220D01*
X173375466Y-107068477D01*
X173577648Y-107100500D01*
X173577653Y-107100500D01*
X173782347Y-107100500D01*
X173782352Y-107100500D01*
X173984534Y-107068477D01*
X174179219Y-107005220D01*
X174361610Y-106912287D01*
X174527219Y-106791966D01*
X174671966Y-106647219D01*
X174792287Y-106481610D01*
X174885220Y-106299219D01*
X174948477Y-106104534D01*
X174980500Y-105902352D01*
X174980500Y-105697648D01*
X174948477Y-105495466D01*
X174885220Y-105300781D01*
X174792287Y-105118390D01*
X174695036Y-104984534D01*
X174671971Y-104952787D01*
X174671964Y-104952779D01*
X174527220Y-104808035D01*
X174527212Y-104808028D01*
X174361609Y-104687712D01*
X174312637Y-104662760D01*
X174255319Y-104611152D01*
X174231485Y-104537798D01*
X174247521Y-104462356D01*
X174299129Y-104405038D01*
X174312637Y-104397240D01*
X174327969Y-104389428D01*
X174361610Y-104372287D01*
X174527219Y-104251966D01*
X174671966Y-104107219D01*
X174792287Y-103941610D01*
X174885220Y-103759219D01*
X174948477Y-103564534D01*
X174980500Y-103362352D01*
X174980500Y-103157648D01*
X174948477Y-102955466D01*
X174885220Y-102760781D01*
X174792287Y-102578390D01*
X174792285Y-102578387D01*
X174671971Y-102412787D01*
X174671964Y-102412779D01*
X174527220Y-102268035D01*
X174527212Y-102268028D01*
X174361609Y-102147712D01*
X174312637Y-102122760D01*
X174255319Y-102071152D01*
X174231485Y-101997798D01*
X174247521Y-101922356D01*
X174299129Y-101865038D01*
X174312637Y-101857240D01*
X174332318Y-101847212D01*
X174361610Y-101832287D01*
X174527219Y-101711966D01*
X174671966Y-101567219D01*
X174792287Y-101401610D01*
X174885220Y-101219219D01*
X174948477Y-101024534D01*
X174980500Y-100822352D01*
X174980500Y-100617648D01*
X174948477Y-100415466D01*
X174885220Y-100220781D01*
X174792287Y-100038390D01*
X174770233Y-100008035D01*
X174671971Y-99872787D01*
X174671964Y-99872779D01*
X174527220Y-99728035D01*
X174527212Y-99728028D01*
X174361609Y-99607712D01*
X174312637Y-99582760D01*
X174255319Y-99531152D01*
X174231485Y-99457798D01*
X174247521Y-99382356D01*
X174299129Y-99325038D01*
X174312637Y-99317240D01*
X174361610Y-99292287D01*
X174527219Y-99171966D01*
X174671966Y-99027219D01*
X174792287Y-98861610D01*
X174885220Y-98679219D01*
X174948477Y-98484534D01*
X174980500Y-98282352D01*
X174980500Y-98077648D01*
X179999500Y-98077648D01*
X179999500Y-98282352D01*
X180031523Y-98484534D01*
X180081316Y-98637782D01*
X180094778Y-98679212D01*
X180094782Y-98679224D01*
X180187714Y-98861612D01*
X180308028Y-99027212D01*
X180308035Y-99027220D01*
X180452779Y-99171964D01*
X180452787Y-99171971D01*
X180562372Y-99251588D01*
X180618390Y-99292287D01*
X180800781Y-99385220D01*
X180995466Y-99448477D01*
X181197648Y-99480500D01*
X181197653Y-99480500D01*
X181402347Y-99480500D01*
X181402352Y-99480500D01*
X181604534Y-99448477D01*
X181799219Y-99385220D01*
X181981610Y-99292287D01*
X182147219Y-99171966D01*
X182291966Y-99027219D01*
X182412287Y-98861610D01*
X182505220Y-98679219D01*
X182568477Y-98484534D01*
X182600500Y-98282352D01*
X182600500Y-98077648D01*
X182568477Y-97875466D01*
X182505220Y-97680781D01*
X182412287Y-97498390D01*
X182385305Y-97461252D01*
X182291971Y-97332787D01*
X182291964Y-97332779D01*
X182147220Y-97188035D01*
X182147212Y-97188028D01*
X181981612Y-97067714D01*
X181799224Y-96974782D01*
X181799220Y-96974780D01*
X181799219Y-96974780D01*
X181604534Y-96911523D01*
X181402352Y-96879500D01*
X181197648Y-96879500D01*
X181029163Y-96906185D01*
X180995465Y-96911523D01*
X180800787Y-96974778D01*
X180800775Y-96974782D01*
X180618387Y-97067714D01*
X180452787Y-97188028D01*
X180452779Y-97188035D01*
X180308035Y-97332779D01*
X180308028Y-97332787D01*
X180187714Y-97498387D01*
X180094782Y-97680775D01*
X180094778Y-97680787D01*
X180032025Y-97873922D01*
X180031523Y-97875466D01*
X179999500Y-98077648D01*
X174980500Y-98077648D01*
X174948477Y-97875466D01*
X174885220Y-97680781D01*
X174792287Y-97498390D01*
X174765305Y-97461252D01*
X174671971Y-97332787D01*
X174671964Y-97332779D01*
X174527220Y-97188035D01*
X174527212Y-97188028D01*
X174361612Y-97067714D01*
X174179224Y-96974782D01*
X174179220Y-96974780D01*
X174179219Y-96974780D01*
X173984534Y-96911523D01*
X173782352Y-96879500D01*
X173577648Y-96879500D01*
X173409163Y-96906185D01*
X173375465Y-96911523D01*
X173248465Y-96952788D01*
X173180781Y-96974780D01*
X173180778Y-96974781D01*
X173180769Y-96974785D01*
X173096144Y-97017904D01*
X173020701Y-97033940D01*
X172947348Y-97010106D01*
X172895740Y-96952788D01*
X172879500Y-96885144D01*
X172879500Y-93397648D01*
X176009500Y-93397648D01*
X176009500Y-93602352D01*
X176041523Y-93804534D01*
X176099244Y-93982182D01*
X176104778Y-93999212D01*
X176104782Y-93999224D01*
X176197714Y-94181612D01*
X176318028Y-94347212D01*
X176318035Y-94347220D01*
X176462779Y-94491964D01*
X176462787Y-94491971D01*
X176611042Y-94599683D01*
X176628390Y-94612287D01*
X176810781Y-94705220D01*
X177005466Y-94768477D01*
X177207648Y-94800500D01*
X177207653Y-94800500D01*
X177412347Y-94800500D01*
X177412352Y-94800500D01*
X177614534Y-94768477D01*
X177809219Y-94705220D01*
X177991610Y-94612287D01*
X178157219Y-94491966D01*
X178301966Y-94347219D01*
X178422287Y-94181610D01*
X178515220Y-93999219D01*
X178578477Y-93804534D01*
X178610500Y-93602352D01*
X178610500Y-93397648D01*
X178578477Y-93195466D01*
X178515220Y-93000781D01*
X178422287Y-92818390D01*
X178386805Y-92769553D01*
X178301971Y-92652787D01*
X178301964Y-92652779D01*
X178157220Y-92508035D01*
X178157212Y-92508028D01*
X177991612Y-92387714D01*
X177809224Y-92294782D01*
X177809220Y-92294780D01*
X177809219Y-92294780D01*
X177614534Y-92231523D01*
X177412352Y-92199500D01*
X177207648Y-92199500D01*
X177039163Y-92226185D01*
X177005465Y-92231523D01*
X176810787Y-92294778D01*
X176810775Y-92294782D01*
X176628387Y-92387714D01*
X176462787Y-92508028D01*
X176462779Y-92508035D01*
X176318035Y-92652779D01*
X176318028Y-92652787D01*
X176197714Y-92818387D01*
X176104782Y-93000775D01*
X176104778Y-93000787D01*
X176073448Y-93097212D01*
X176041523Y-93195466D01*
X176009500Y-93397648D01*
X172879500Y-93397648D01*
X172879500Y-91289760D01*
X172899462Y-91215260D01*
X172954000Y-91160722D01*
X173028500Y-91140760D01*
X173096143Y-91156999D01*
X173190781Y-91205220D01*
X173385466Y-91268477D01*
X173587648Y-91300500D01*
X173587653Y-91300500D01*
X173792347Y-91300500D01*
X173792352Y-91300500D01*
X173994534Y-91268477D01*
X174189219Y-91205220D01*
X174371610Y-91112287D01*
X174537219Y-90991966D01*
X174681966Y-90847219D01*
X174802287Y-90681610D01*
X174895220Y-90499219D01*
X174958477Y-90304534D01*
X174990500Y-90102352D01*
X174990500Y-89897648D01*
X180009500Y-89897648D01*
X180009500Y-90102352D01*
X180028168Y-90220216D01*
X180041523Y-90304534D01*
X180104778Y-90499212D01*
X180104782Y-90499224D01*
X180197714Y-90681612D01*
X180318028Y-90847212D01*
X180318035Y-90847220D01*
X180462779Y-90991964D01*
X180462787Y-90991971D01*
X180560860Y-91063224D01*
X180628390Y-91112287D01*
X180810781Y-91205220D01*
X181005466Y-91268477D01*
X181207648Y-91300500D01*
X181207653Y-91300500D01*
X181412347Y-91300500D01*
X181412352Y-91300500D01*
X181614534Y-91268477D01*
X181809219Y-91205220D01*
X181991610Y-91112287D01*
X182157219Y-90991966D01*
X182301966Y-90847219D01*
X182422287Y-90681610D01*
X182515220Y-90499219D01*
X182578477Y-90304534D01*
X182610500Y-90102352D01*
X182610500Y-89897648D01*
X182578477Y-89695466D01*
X182515220Y-89500781D01*
X182422287Y-89318390D01*
X182422285Y-89318387D01*
X182301971Y-89152787D01*
X182301964Y-89152779D01*
X182157220Y-89008035D01*
X182157212Y-89008028D01*
X181991612Y-88887714D01*
X181809224Y-88794782D01*
X181809220Y-88794780D01*
X181809219Y-88794780D01*
X181614534Y-88731523D01*
X181412352Y-88699500D01*
X181207648Y-88699500D01*
X181039163Y-88726185D01*
X181005465Y-88731523D01*
X180810787Y-88794778D01*
X180810775Y-88794782D01*
X180628387Y-88887714D01*
X180462787Y-89008028D01*
X180462779Y-89008035D01*
X180318035Y-89152779D01*
X180318028Y-89152787D01*
X180197714Y-89318387D01*
X180104782Y-89500775D01*
X180104778Y-89500787D01*
X180050701Y-89667220D01*
X180041523Y-89695466D01*
X180009500Y-89897648D01*
X174990500Y-89897648D01*
X174958477Y-89695466D01*
X174895220Y-89500781D01*
X174802287Y-89318390D01*
X174802285Y-89318387D01*
X174681971Y-89152787D01*
X174681964Y-89152779D01*
X174537220Y-89008035D01*
X174537212Y-89008028D01*
X174371612Y-88887714D01*
X174189224Y-88794782D01*
X174189220Y-88794780D01*
X174189219Y-88794780D01*
X173994534Y-88731523D01*
X173792352Y-88699500D01*
X173587648Y-88699500D01*
X173419163Y-88726185D01*
X173385465Y-88731523D01*
X173190787Y-88794778D01*
X173190781Y-88794780D01*
X173190778Y-88794781D01*
X173190769Y-88794785D01*
X173096144Y-88842999D01*
X173020701Y-88859035D01*
X172947348Y-88835200D01*
X172895740Y-88777883D01*
X172879500Y-88710239D01*
X172879500Y-85831403D01*
X172899462Y-85756903D01*
X172923141Y-85726044D01*
X172991966Y-85657219D01*
X173112287Y-85491610D01*
X173205220Y-85309219D01*
X173268477Y-85114534D01*
X173300500Y-84912352D01*
X173300500Y-84707648D01*
X173268477Y-84505466D01*
X173205220Y-84310781D01*
X173112287Y-84128390D01*
X173112285Y-84128387D01*
X172991971Y-83962787D01*
X172991964Y-83962779D01*
X172847220Y-83818035D01*
X172847212Y-83818028D01*
X172681612Y-83697714D01*
X172499224Y-83604782D01*
X172499220Y-83604780D01*
X172499219Y-83604780D01*
X172304534Y-83541523D01*
X172102352Y-83509500D01*
X171897648Y-83509500D01*
X171729163Y-83536185D01*
X171695465Y-83541523D01*
X171500787Y-83604778D01*
X171500775Y-83604782D01*
X171318387Y-83697714D01*
X171152787Y-83818028D01*
X171152779Y-83818035D01*
X171008035Y-83962779D01*
X171008028Y-83962787D01*
X170887714Y-84128387D01*
X170794782Y-84310775D01*
X170794778Y-84310787D01*
X170774214Y-84374078D01*
X170731523Y-84505466D01*
X170699500Y-84707648D01*
X170699500Y-84912352D01*
X170731523Y-85114534D01*
X170794780Y-85309221D01*
X170862260Y-85441655D01*
X170878500Y-85509300D01*
X170878500Y-92489597D01*
X170858538Y-92564097D01*
X170804000Y-92618635D01*
X170729500Y-92638597D01*
X170655000Y-92618635D01*
X170624141Y-92594956D01*
X170537220Y-92508035D01*
X170537212Y-92508028D01*
X170371612Y-92387714D01*
X170189224Y-92294782D01*
X170189220Y-92294780D01*
X170189219Y-92294780D01*
X169994534Y-92231523D01*
X169792352Y-92199500D01*
X169587648Y-92199500D01*
X169419163Y-92226185D01*
X169385465Y-92231523D01*
X169190787Y-92294778D01*
X169190775Y-92294782D01*
X169008387Y-92387714D01*
X168842787Y-92508028D01*
X168842779Y-92508035D01*
X168698035Y-92652779D01*
X168698028Y-92652787D01*
X168577714Y-92818387D01*
X168484782Y-93000775D01*
X168484778Y-93000787D01*
X168453448Y-93097212D01*
X168421523Y-93195466D01*
X168389500Y-93397648D01*
X168000500Y-93397648D01*
X168000500Y-82666137D01*
X168020462Y-82591637D01*
X168044137Y-82560782D01*
X172082459Y-78522459D01*
X172149252Y-78483897D01*
X172164496Y-78480656D01*
X172304534Y-78458477D01*
X172499219Y-78395220D01*
X172681610Y-78302287D01*
X172847219Y-78181966D01*
X172991966Y-78037219D01*
X173112287Y-77871610D01*
X173205220Y-77689219D01*
X173268477Y-77494534D01*
X173300500Y-77292352D01*
X173300500Y-77184038D01*
X173899500Y-77184038D01*
X173899500Y-77435962D01*
X173938910Y-77684785D01*
X174016759Y-77924379D01*
X174074254Y-78037220D01*
X174131131Y-78148846D01*
X174131131Y-78148847D01*
X174155197Y-78181971D01*
X174279207Y-78352656D01*
X174457344Y-78530793D01*
X174661155Y-78678870D01*
X174885621Y-78793241D01*
X175125215Y-78871090D01*
X175374038Y-78910500D01*
X175374043Y-78910500D01*
X175625957Y-78910500D01*
X175625962Y-78910500D01*
X175874785Y-78871090D01*
X176114379Y-78793241D01*
X176338845Y-78678870D01*
X176542656Y-78530793D01*
X176720793Y-78352656D01*
X176868870Y-78148845D01*
X176983241Y-77924379D01*
X177061090Y-77684785D01*
X177100500Y-77435962D01*
X177100500Y-77184038D01*
X177061090Y-76935215D01*
X176983241Y-76695621D01*
X176868870Y-76471155D01*
X176862784Y-76462779D01*
X176775601Y-76342781D01*
X176720793Y-76267344D01*
X176542656Y-76089207D01*
X176338845Y-75941130D01*
X176114379Y-75826759D01*
X175874785Y-75748910D01*
X175625962Y-75709500D01*
X175374038Y-75709500D01*
X175166685Y-75742341D01*
X175125214Y-75748910D01*
X174885627Y-75826757D01*
X174885621Y-75826759D01*
X174885615Y-75826761D01*
X174885615Y-75826762D01*
X174661153Y-75941131D01*
X174661152Y-75941131D01*
X174457345Y-76089206D01*
X174457342Y-76089208D01*
X174279208Y-76267342D01*
X174279206Y-76267345D01*
X174131131Y-76471152D01*
X174131131Y-76471153D01*
X174016762Y-76695615D01*
X174016757Y-76695627D01*
X173976985Y-76818034D01*
X173938910Y-76935215D01*
X173899500Y-77184038D01*
X173300500Y-77184038D01*
X173300500Y-77087648D01*
X173268477Y-76885466D01*
X173205220Y-76690781D01*
X173112287Y-76508390D01*
X173112285Y-76508387D01*
X172991971Y-76342787D01*
X172991964Y-76342779D01*
X172847220Y-76198035D01*
X172847212Y-76198028D01*
X172681612Y-76077714D01*
X172499224Y-75984782D01*
X172499220Y-75984780D01*
X172499219Y-75984780D01*
X172304534Y-75921523D01*
X172102352Y-75889500D01*
X171897648Y-75889500D01*
X171729163Y-75916185D01*
X171695465Y-75921523D01*
X171500787Y-75984778D01*
X171500775Y-75984782D01*
X171318387Y-76077714D01*
X171152787Y-76198028D01*
X171152779Y-76198035D01*
X171008035Y-76342779D01*
X171008028Y-76342787D01*
X170887714Y-76508387D01*
X170794782Y-76690775D01*
X170794778Y-76690787D01*
X170731522Y-76885467D01*
X170731520Y-76885476D01*
X170709344Y-77025490D01*
X170677973Y-77095950D01*
X170667538Y-77107540D01*
X166362221Y-81412858D01*
X166222864Y-81552214D01*
X166222860Y-81552219D01*
X166113368Y-81716083D01*
X166089365Y-81774035D01*
X166037948Y-81898164D01*
X166032303Y-81926547D01*
X165999500Y-82091458D01*
X165999500Y-97523861D01*
X165979538Y-97598361D01*
X165955859Y-97629220D01*
X159722864Y-103862214D01*
X159722858Y-103862221D01*
X159645446Y-103978076D01*
X159587458Y-104028930D01*
X159511812Y-104043976D01*
X159438777Y-104019183D01*
X159401014Y-103982874D01*
X159291971Y-103832787D01*
X159291964Y-103832779D01*
X159147220Y-103688035D01*
X159147212Y-103688028D01*
X158981612Y-103567714D01*
X158799224Y-103474782D01*
X158799220Y-103474780D01*
X158799219Y-103474780D01*
X158604534Y-103411523D01*
X158402352Y-103379500D01*
X158197648Y-103379500D01*
X158029163Y-103406185D01*
X157995465Y-103411523D01*
X157800787Y-103474778D01*
X157800775Y-103474782D01*
X157618391Y-103567712D01*
X157601478Y-103580000D01*
X157503692Y-103651045D01*
X157431689Y-103678684D01*
X157416115Y-103679500D01*
X157070089Y-103679500D01*
X156876796Y-103717948D01*
X156876792Y-103717949D01*
X156838248Y-103733914D01*
X156838249Y-103733915D01*
X156694713Y-103793368D01*
X156609212Y-103850500D01*
X156530849Y-103902860D01*
X156530844Y-103902864D01*
X155222864Y-105210844D01*
X155222860Y-105210849D01*
X155113368Y-105374714D01*
X155113367Y-105374717D01*
X155066535Y-105487781D01*
X155066535Y-105487782D01*
X155037949Y-105556793D01*
X155037948Y-105556794D01*
X155021629Y-105638839D01*
X154999500Y-105750088D01*
X151419692Y-105750088D01*
X151527219Y-105671966D01*
X151671966Y-105527219D01*
X151792287Y-105361610D01*
X151885220Y-105179219D01*
X151948477Y-104984534D01*
X151980500Y-104782352D01*
X151980500Y-104577648D01*
X151948477Y-104375466D01*
X151885220Y-104180781D01*
X151792287Y-103998390D01*
X151776745Y-103976998D01*
X151671971Y-103832787D01*
X151671964Y-103832779D01*
X151527220Y-103688035D01*
X151527212Y-103688028D01*
X151361612Y-103567714D01*
X151179224Y-103474782D01*
X151179220Y-103474780D01*
X151179219Y-103474780D01*
X150984534Y-103411523D01*
X150782352Y-103379500D01*
X150577648Y-103379500D01*
X150409163Y-103406185D01*
X150375465Y-103411523D01*
X150180787Y-103474778D01*
X150180775Y-103474782D01*
X149998387Y-103567714D01*
X149832787Y-103688028D01*
X149832779Y-103688035D01*
X149688035Y-103832779D01*
X149688028Y-103832787D01*
X149567714Y-103998387D01*
X149474782Y-104180775D01*
X149474778Y-104180787D01*
X149411523Y-104375465D01*
X149408074Y-104397240D01*
X149379500Y-104577648D01*
X142441005Y-104577648D01*
X142370216Y-104536778D01*
X142370214Y-104536777D01*
X142370212Y-104536776D01*
X142197460Y-104465220D01*
X142146103Y-104443947D01*
X142146101Y-104443946D01*
X142146100Y-104443946D01*
X141911789Y-104381162D01*
X141911787Y-104381161D01*
X141911781Y-104381160D01*
X141671293Y-104349500D01*
X141671288Y-104349500D01*
X140828712Y-104349500D01*
X140828706Y-104349500D01*
X140588218Y-104381160D01*
X140353896Y-104443947D01*
X140129783Y-104536778D01*
X139919712Y-104658063D01*
X139881070Y-104687714D01*
X139727262Y-104805735D01*
X139727260Y-104805736D01*
X139727256Y-104805740D01*
X139555740Y-104977256D01*
X139555736Y-104977260D01*
X139555735Y-104977262D01*
X139483432Y-105071489D01*
X139408063Y-105169712D01*
X139286778Y-105379783D01*
X139193947Y-105603896D01*
X139131160Y-105838218D01*
X139099500Y-106078706D01*
X137900499Y-106078706D01*
X137874353Y-105880102D01*
X137868839Y-105838218D01*
X137868838Y-105838217D01*
X137868838Y-105838211D01*
X137806054Y-105603900D01*
X137713224Y-105379788D01*
X137591936Y-105169711D01*
X137444265Y-104977262D01*
X137272738Y-104805735D01*
X137080289Y-104658064D01*
X136970678Y-104594780D01*
X136870216Y-104536778D01*
X136870214Y-104536777D01*
X136870212Y-104536776D01*
X136697460Y-104465220D01*
X136646103Y-104443947D01*
X136646101Y-104443946D01*
X136646100Y-104443946D01*
X136411789Y-104381162D01*
X136411787Y-104381161D01*
X136411781Y-104381160D01*
X136171293Y-104349500D01*
X136171288Y-104349500D01*
X135328712Y-104349500D01*
X135328706Y-104349500D01*
X135088218Y-104381160D01*
X134853896Y-104443947D01*
X134629783Y-104536778D01*
X134419712Y-104658063D01*
X134381070Y-104687714D01*
X134227262Y-104805735D01*
X134227260Y-104805736D01*
X134227256Y-104805740D01*
X134055740Y-104977256D01*
X134055736Y-104977260D01*
X134055735Y-104977262D01*
X133983432Y-105071489D01*
X133908063Y-105169712D01*
X133786778Y-105379783D01*
X133693947Y-105603896D01*
X133631160Y-105838218D01*
X133599500Y-106078706D01*
X126505500Y-106078706D01*
X126505500Y-101878706D01*
X133599500Y-101878706D01*
X133599500Y-102121293D01*
X133631160Y-102361781D01*
X133631161Y-102361787D01*
X133631162Y-102361789D01*
X133645763Y-102416282D01*
X133693947Y-102596103D01*
X133732398Y-102688932D01*
X133786776Y-102820212D01*
X133908064Y-103030289D01*
X134055735Y-103222738D01*
X134227262Y-103394265D01*
X134419711Y-103541936D01*
X134629788Y-103663224D01*
X134853900Y-103756054D01*
X135088211Y-103818838D01*
X135088217Y-103818838D01*
X135088218Y-103818839D01*
X135096247Y-103819896D01*
X135328712Y-103850500D01*
X136171288Y-103850500D01*
X136411789Y-103818838D01*
X136646100Y-103756054D01*
X136870212Y-103663224D01*
X137080289Y-103541936D01*
X137272738Y-103394265D01*
X137444265Y-103222738D01*
X137591936Y-103030289D01*
X137713224Y-102820212D01*
X137806054Y-102596100D01*
X137868838Y-102361789D01*
X137900500Y-102121288D01*
X137900500Y-101878712D01*
X137900499Y-101878706D01*
X139099500Y-101878706D01*
X139099500Y-102121293D01*
X139131160Y-102361781D01*
X139131161Y-102361787D01*
X139131162Y-102361789D01*
X139145763Y-102416282D01*
X139193947Y-102596103D01*
X139232398Y-102688932D01*
X139286776Y-102820212D01*
X139408064Y-103030289D01*
X139555735Y-103222738D01*
X139727262Y-103394265D01*
X139919711Y-103541936D01*
X140129788Y-103663224D01*
X140353900Y-103756054D01*
X140588211Y-103818838D01*
X140588217Y-103818838D01*
X140588218Y-103818839D01*
X140596247Y-103819896D01*
X140828712Y-103850500D01*
X141671288Y-103850500D01*
X141911789Y-103818838D01*
X142146100Y-103756054D01*
X142370212Y-103663224D01*
X142580289Y-103541936D01*
X142772738Y-103394265D01*
X142944265Y-103222738D01*
X143091936Y-103030289D01*
X143213224Y-102820212D01*
X143306054Y-102596100D01*
X143368838Y-102361789D01*
X143400500Y-102121288D01*
X143400500Y-101878712D01*
X143374552Y-101681612D01*
X143368839Y-101638218D01*
X143368838Y-101638217D01*
X143368838Y-101638211D01*
X143306054Y-101403900D01*
X143213224Y-101179788D01*
X143091936Y-100969711D01*
X143036640Y-100897648D01*
X151449500Y-100897648D01*
X151449500Y-101102352D01*
X151468011Y-101219224D01*
X151481523Y-101304534D01*
X151544778Y-101499212D01*
X151544782Y-101499224D01*
X151637714Y-101681612D01*
X151758028Y-101847212D01*
X151758035Y-101847220D01*
X151902779Y-101991964D01*
X151902787Y-101991971D01*
X152068387Y-102112285D01*
X152068390Y-102112287D01*
X152250781Y-102205220D01*
X152445466Y-102268477D01*
X152647648Y-102300500D01*
X152647653Y-102300500D01*
X152852347Y-102300500D01*
X152852352Y-102300500D01*
X153054534Y-102268477D01*
X153249219Y-102205220D01*
X153431610Y-102112287D01*
X153597219Y-101991966D01*
X153741966Y-101847219D01*
X153862287Y-101681610D01*
X153955220Y-101499219D01*
X154018477Y-101304534D01*
X154050500Y-101102352D01*
X154050500Y-100897648D01*
X154018477Y-100695466D01*
X153955220Y-100500781D01*
X153862287Y-100318390D01*
X153813589Y-100251362D01*
X153741971Y-100152787D01*
X153741964Y-100152779D01*
X153597220Y-100008035D01*
X153597212Y-100008028D01*
X153431612Y-99887714D01*
X153249224Y-99794782D01*
X153249220Y-99794780D01*
X153249219Y-99794780D01*
X153054534Y-99731523D01*
X152852352Y-99699500D01*
X152647648Y-99699500D01*
X152479163Y-99726185D01*
X152445465Y-99731523D01*
X152250787Y-99794778D01*
X152250775Y-99794782D01*
X152068387Y-99887714D01*
X151902787Y-100008028D01*
X151902779Y-100008035D01*
X151758035Y-100152779D01*
X151758028Y-100152787D01*
X151637714Y-100318387D01*
X151544782Y-100500775D01*
X151544778Y-100500787D01*
X151506808Y-100617648D01*
X151481523Y-100695466D01*
X151449500Y-100897648D01*
X143036640Y-100897648D01*
X142944265Y-100777262D01*
X142772738Y-100605735D01*
X142580289Y-100458064D01*
X142506505Y-100415465D01*
X142370216Y-100336778D01*
X142370214Y-100336777D01*
X142370212Y-100336776D01*
X142238932Y-100282398D01*
X142146103Y-100243947D01*
X142146101Y-100243946D01*
X142146100Y-100243946D01*
X141911789Y-100181162D01*
X141911787Y-100181161D01*
X141911781Y-100181160D01*
X141671293Y-100149500D01*
X141671288Y-100149500D01*
X140828712Y-100149500D01*
X140828706Y-100149500D01*
X140588218Y-100181160D01*
X140353896Y-100243947D01*
X140129783Y-100336778D01*
X139919712Y-100458063D01*
X139893968Y-100477817D01*
X139727262Y-100605735D01*
X139727260Y-100605736D01*
X139727256Y-100605740D01*
X139555740Y-100777256D01*
X139555736Y-100777260D01*
X139555735Y-100777262D01*
X139463360Y-100897648D01*
X139408063Y-100969712D01*
X139286778Y-101179783D01*
X139193947Y-101403896D01*
X139131160Y-101638218D01*
X139099500Y-101878706D01*
X137900499Y-101878706D01*
X137874552Y-101681612D01*
X137868839Y-101638218D01*
X137868838Y-101638217D01*
X137868838Y-101638211D01*
X137806054Y-101403900D01*
X137713224Y-101179788D01*
X137591936Y-100969711D01*
X137444265Y-100777262D01*
X137272738Y-100605735D01*
X137080289Y-100458064D01*
X137006505Y-100415465D01*
X136870216Y-100336778D01*
X136870214Y-100336777D01*
X136870212Y-100336776D01*
X136738932Y-100282398D01*
X136646103Y-100243947D01*
X136646101Y-100243946D01*
X136646100Y-100243946D01*
X136411789Y-100181162D01*
X136411787Y-100181161D01*
X136411781Y-100181160D01*
X136171293Y-100149500D01*
X136171288Y-100149500D01*
X135328712Y-100149500D01*
X135328706Y-100149500D01*
X135088218Y-100181160D01*
X134853896Y-100243947D01*
X134629783Y-100336778D01*
X134419712Y-100458063D01*
X134393968Y-100477817D01*
X134227262Y-100605735D01*
X134227260Y-100605736D01*
X134227256Y-100605740D01*
X134055740Y-100777256D01*
X134055736Y-100777260D01*
X134055735Y-100777262D01*
X133963360Y-100897648D01*
X133908063Y-100969712D01*
X133786778Y-101179783D01*
X133693947Y-101403896D01*
X133631160Y-101638218D01*
X133599500Y-101878706D01*
X126505500Y-101878706D01*
X126505500Y-100251356D01*
X126502605Y-100197350D01*
X126502603Y-100197321D01*
X126499771Y-100170979D01*
X126499764Y-100170933D01*
X126491116Y-100117559D01*
X126491114Y-100117554D01*
X126491114Y-100117552D01*
X126440832Y-99982743D01*
X126407347Y-99921420D01*
X126351278Y-99846521D01*
X126321125Y-99806241D01*
X125693760Y-99178876D01*
X125653510Y-99142721D01*
X125653500Y-99142712D01*
X125632858Y-99126078D01*
X125632859Y-99126078D01*
X125610916Y-99110255D01*
X125588974Y-99094433D01*
X125458097Y-99034662D01*
X125458094Y-99034661D01*
X125458085Y-99034658D01*
X125391061Y-99014977D01*
X125391048Y-99014974D01*
X125391044Y-99014973D01*
X125248652Y-98994501D01*
X125248640Y-98994500D01*
X125248638Y-98994500D01*
X114751362Y-98994500D01*
X114751357Y-98994500D01*
X114697350Y-98997394D01*
X114697321Y-98997396D01*
X114670979Y-99000228D01*
X114670933Y-99000235D01*
X114617559Y-99008883D01*
X114482747Y-99059166D01*
X114482744Y-99059167D01*
X114421424Y-99092650D01*
X114421416Y-99092655D01*
X114306241Y-99178874D01*
X113678876Y-99806239D01*
X113642721Y-99846489D01*
X113642694Y-99846521D01*
X113626078Y-99867140D01*
X113594433Y-99911026D01*
X113534661Y-100041905D01*
X113534658Y-100041914D01*
X113514977Y-100108938D01*
X113514974Y-100108951D01*
X113514973Y-100108955D01*
X113494501Y-100251347D01*
X113494500Y-100251360D01*
X112250500Y-100251360D01*
X112250500Y-62949700D01*
X113494500Y-62949700D01*
X113494500Y-96748643D01*
X113497394Y-96802649D01*
X113497396Y-96802678D01*
X113500228Y-96829020D01*
X113500235Y-96829066D01*
X113508883Y-96882440D01*
X113559166Y-97017252D01*
X113559167Y-97017255D01*
X113592650Y-97078575D01*
X113592655Y-97078583D01*
X113678874Y-97193758D01*
X113678876Y-97193760D01*
X113678877Y-97193761D01*
X114306239Y-97821123D01*
X114346500Y-97857288D01*
X114346518Y-97857303D01*
X114346521Y-97857305D01*
X114367141Y-97873921D01*
X114367140Y-97873921D01*
X114369283Y-97875466D01*
X114411026Y-97905567D01*
X114541903Y-97965338D01*
X114580019Y-97976530D01*
X114608938Y-97985022D01*
X114608940Y-97985022D01*
X114608942Y-97985023D01*
X114608946Y-97985024D01*
X114608947Y-97985024D01*
X114608951Y-97985025D01*
X114608955Y-97985026D01*
X114751347Y-98005498D01*
X114751351Y-98005498D01*
X114751362Y-98005500D01*
X114751366Y-98005500D01*
X125248643Y-98005500D01*
X125302649Y-98002605D01*
X125302678Y-98002603D01*
X125329020Y-97999771D01*
X125329026Y-97999770D01*
X125329036Y-97999769D01*
X125337856Y-97998339D01*
X125382440Y-97991116D01*
X125382443Y-97991114D01*
X125382448Y-97991114D01*
X125517257Y-97940832D01*
X125578580Y-97907347D01*
X125693761Y-97821123D01*
X125836178Y-97678706D01*
X133599500Y-97678706D01*
X133599500Y-97921293D01*
X133631160Y-98161781D01*
X133631161Y-98161787D01*
X133631162Y-98161789D01*
X133690985Y-98385051D01*
X133693947Y-98396103D01*
X133726178Y-98473915D01*
X133773259Y-98587580D01*
X133786778Y-98620216D01*
X133855875Y-98739895D01*
X133908064Y-98830289D01*
X134055735Y-99022738D01*
X134227262Y-99194265D01*
X134419711Y-99341936D01*
X134629788Y-99463224D01*
X134853900Y-99556054D01*
X135088211Y-99618838D01*
X135088217Y-99618838D01*
X135088218Y-99618839D01*
X135153600Y-99627446D01*
X135328712Y-99650500D01*
X136171288Y-99650500D01*
X136411789Y-99618838D01*
X136646100Y-99556054D01*
X136870212Y-99463224D01*
X137080289Y-99341936D01*
X137272738Y-99194265D01*
X137444265Y-99022738D01*
X137591936Y-98830289D01*
X137713224Y-98620212D01*
X137806054Y-98396100D01*
X137868838Y-98161789D01*
X137900500Y-97921288D01*
X137900500Y-97678712D01*
X137900499Y-97678706D01*
X139099500Y-97678706D01*
X139099500Y-97921293D01*
X139131160Y-98161781D01*
X139131161Y-98161787D01*
X139131162Y-98161789D01*
X139190985Y-98385051D01*
X139193947Y-98396103D01*
X139226178Y-98473915D01*
X139273259Y-98587580D01*
X139286778Y-98620216D01*
X139355875Y-98739895D01*
X139408064Y-98830289D01*
X139555735Y-99022738D01*
X139727262Y-99194265D01*
X139919711Y-99341936D01*
X140129788Y-99463224D01*
X140353900Y-99556054D01*
X140588211Y-99618838D01*
X140588217Y-99618838D01*
X140588218Y-99618839D01*
X140653600Y-99627446D01*
X140828712Y-99650500D01*
X141671288Y-99650500D01*
X141911789Y-99618838D01*
X142146100Y-99556054D01*
X142370212Y-99463224D01*
X142580289Y-99341936D01*
X142772738Y-99194265D01*
X142944265Y-99022738D01*
X143091936Y-98830289D01*
X143213224Y-98620212D01*
X143306054Y-98396100D01*
X143368838Y-98161789D01*
X143400500Y-97921288D01*
X143400500Y-97678712D01*
X143368838Y-97438211D01*
X143306054Y-97203900D01*
X143213224Y-96979788D01*
X143091936Y-96769711D01*
X142944265Y-96577262D01*
X142772738Y-96405735D01*
X142580289Y-96258064D01*
X142504302Y-96214193D01*
X142370216Y-96136778D01*
X142370214Y-96136777D01*
X142370212Y-96136776D01*
X142220948Y-96074949D01*
X142146103Y-96043947D01*
X142146101Y-96043946D01*
X142146100Y-96043946D01*
X141911789Y-95981162D01*
X141911787Y-95981161D01*
X141911781Y-95981160D01*
X141671293Y-95949500D01*
X141671288Y-95949500D01*
X140828712Y-95949500D01*
X140828706Y-95949500D01*
X140588218Y-95981160D01*
X140353896Y-96043947D01*
X140129783Y-96136778D01*
X139919712Y-96258063D01*
X139848488Y-96312714D01*
X139727262Y-96405735D01*
X139727260Y-96405736D01*
X139727256Y-96405740D01*
X139555740Y-96577256D01*
X139555736Y-96577260D01*
X139555735Y-96577262D01*
X139544259Y-96592218D01*
X139408063Y-96769712D01*
X139286778Y-96979783D01*
X139193947Y-97203896D01*
X139131160Y-97438218D01*
X139099500Y-97678706D01*
X137900499Y-97678706D01*
X137868838Y-97438211D01*
X137806054Y-97203900D01*
X137713224Y-96979788D01*
X137591936Y-96769711D01*
X137444265Y-96577262D01*
X137272738Y-96405735D01*
X137080289Y-96258064D01*
X137004302Y-96214193D01*
X136870216Y-96136778D01*
X136870214Y-96136777D01*
X136870212Y-96136776D01*
X136720948Y-96074949D01*
X136646103Y-96043947D01*
X136646101Y-96043946D01*
X136646100Y-96043946D01*
X136411789Y-95981162D01*
X136411787Y-95981161D01*
X136411781Y-95981160D01*
X136171293Y-95949500D01*
X136171288Y-95949500D01*
X135328712Y-95949500D01*
X135328706Y-95949500D01*
X135088218Y-95981160D01*
X134853896Y-96043947D01*
X134629783Y-96136778D01*
X134419712Y-96258063D01*
X134348488Y-96312714D01*
X134227262Y-96405735D01*
X134227260Y-96405736D01*
X134227256Y-96405740D01*
X134055740Y-96577256D01*
X134055736Y-96577260D01*
X134055735Y-96577262D01*
X134044259Y-96592218D01*
X133908063Y-96769712D01*
X133786778Y-96979783D01*
X133693947Y-97203896D01*
X133631160Y-97438218D01*
X133599500Y-97678706D01*
X125836178Y-97678706D01*
X126321123Y-97193761D01*
X126357288Y-97153500D01*
X126373922Y-97132858D01*
X126405567Y-97088974D01*
X126465338Y-96958097D01*
X126485023Y-96891058D01*
X126485024Y-96891054D01*
X126485025Y-96891048D01*
X126485026Y-96891044D01*
X126505498Y-96748652D01*
X126505500Y-96748634D01*
X126505500Y-93863945D01*
X156779500Y-93863945D01*
X156779500Y-94056055D01*
X156792856Y-94140386D01*
X156809553Y-94245806D01*
X156868918Y-94428511D01*
X156956135Y-94599682D01*
X156956136Y-94599683D01*
X157027336Y-94697682D01*
X157069055Y-94755102D01*
X157204898Y-94890945D01*
X157321463Y-94975635D01*
X157360316Y-95003863D01*
X157360317Y-95003864D01*
X157531488Y-95091081D01*
X157534526Y-95092339D01*
X157535650Y-95093201D01*
X157536707Y-95093740D01*
X157536607Y-95093935D01*
X157595718Y-95139288D01*
X157625237Y-95210544D01*
X157615174Y-95287013D01*
X157568225Y-95348205D01*
X157534526Y-95367661D01*
X157531488Y-95368918D01*
X157360317Y-95456135D01*
X157360316Y-95456136D01*
X157204907Y-95569048D01*
X157204896Y-95569057D01*
X157069057Y-95704896D01*
X157069048Y-95704907D01*
X156956136Y-95860316D01*
X156956135Y-95860317D01*
X156868918Y-96031488D01*
X156809554Y-96214193D01*
X156809553Y-96214193D01*
X156797541Y-96290037D01*
X156779500Y-96403945D01*
X156779500Y-96596055D01*
X156792856Y-96680386D01*
X156809553Y-96785806D01*
X156868918Y-96968511D01*
X156956135Y-97139682D01*
X156956136Y-97139683D01*
X156995424Y-97193758D01*
X157069055Y-97295102D01*
X157204898Y-97430945D01*
X157246612Y-97461252D01*
X157360316Y-97543863D01*
X157360317Y-97543864D01*
X157531488Y-97631081D01*
X157531490Y-97631081D01*
X157531491Y-97631082D01*
X157684468Y-97680787D01*
X157714193Y-97690445D01*
X157714193Y-97690446D01*
X157714198Y-97690446D01*
X157714199Y-97690447D01*
X157903945Y-97720500D01*
X157903949Y-97720500D01*
X158096051Y-97720500D01*
X158096055Y-97720500D01*
X158285801Y-97690447D01*
X158285802Y-97690446D01*
X158285806Y-97690446D01*
X158285806Y-97690445D01*
X158468509Y-97631082D01*
X158553753Y-97587648D01*
X161699500Y-97587648D01*
X161699500Y-97792352D01*
X161731523Y-97994534D01*
X161785867Y-98161789D01*
X161794778Y-98189212D01*
X161794782Y-98189224D01*
X161887714Y-98371612D01*
X162008028Y-98537212D01*
X162008035Y-98537220D01*
X162152779Y-98681964D01*
X162152787Y-98681971D01*
X162295473Y-98785637D01*
X162318390Y-98802287D01*
X162500781Y-98895220D01*
X162695466Y-98958477D01*
X162897648Y-98990500D01*
X162897653Y-98990500D01*
X163102347Y-98990500D01*
X163102352Y-98990500D01*
X163304534Y-98958477D01*
X163499219Y-98895220D01*
X163681610Y-98802287D01*
X163847219Y-98681966D01*
X163991966Y-98537219D01*
X164112287Y-98371610D01*
X164205220Y-98189219D01*
X164268477Y-97994534D01*
X164300500Y-97792352D01*
X164300500Y-97587648D01*
X164268477Y-97385466D01*
X164205220Y-97190781D01*
X164112287Y-97008390D01*
X164087867Y-96974778D01*
X163991971Y-96842787D01*
X163991964Y-96842779D01*
X163847220Y-96698035D01*
X163847212Y-96698028D01*
X163681612Y-96577714D01*
X163499224Y-96484782D01*
X163499220Y-96484780D01*
X163499219Y-96484780D01*
X163304534Y-96421523D01*
X163102352Y-96389500D01*
X162897648Y-96389500D01*
X162729163Y-96416185D01*
X162695465Y-96421523D01*
X162500787Y-96484778D01*
X162500775Y-96484782D01*
X162318387Y-96577714D01*
X162152787Y-96698028D01*
X162152779Y-96698035D01*
X162008035Y-96842779D01*
X162008028Y-96842787D01*
X161887714Y-97008387D01*
X161794782Y-97190775D01*
X161794780Y-97190781D01*
X161731523Y-97385466D01*
X161699500Y-97587648D01*
X158553753Y-97587648D01*
X158639681Y-97543865D01*
X158795102Y-97430945D01*
X158930945Y-97295102D01*
X159043865Y-97139681D01*
X159131082Y-96968509D01*
X159190445Y-96785806D01*
X159190446Y-96785806D01*
X159196333Y-96748638D01*
X159220500Y-96596055D01*
X159220500Y-96403945D01*
X159190447Y-96214199D01*
X159190446Y-96214198D01*
X159190446Y-96214193D01*
X159131081Y-96031488D01*
X159043864Y-95860317D01*
X159043863Y-95860316D01*
X159015635Y-95821463D01*
X158930945Y-95704898D01*
X158795102Y-95569055D01*
X158645637Y-95460462D01*
X158639683Y-95456136D01*
X158639682Y-95456135D01*
X158468509Y-95368917D01*
X158465479Y-95367663D01*
X158464356Y-95366801D01*
X158463293Y-95366260D01*
X158463393Y-95366062D01*
X158404285Y-95320717D01*
X158374763Y-95249462D01*
X158384823Y-95172993D01*
X158431769Y-95111799D01*
X158465479Y-95092337D01*
X158468509Y-95091082D01*
X158468511Y-95091081D01*
X158639681Y-95003865D01*
X158795102Y-94890945D01*
X158930945Y-94755102D01*
X159043865Y-94599681D01*
X159131082Y-94428509D01*
X159190445Y-94245806D01*
X159190446Y-94245806D01*
X159190447Y-94245801D01*
X159220500Y-94056055D01*
X159220500Y-93863945D01*
X159190447Y-93674199D01*
X159190446Y-93674198D01*
X159190446Y-93674193D01*
X159131081Y-93491488D01*
X159043864Y-93320317D01*
X159043863Y-93320316D01*
X158953153Y-93195465D01*
X158930945Y-93164898D01*
X158795102Y-93029055D01*
X158711020Y-92967966D01*
X158639683Y-92916136D01*
X158639682Y-92916135D01*
X158468511Y-92828918D01*
X158285806Y-92769554D01*
X158285806Y-92769553D01*
X158180386Y-92752856D01*
X158096055Y-92739500D01*
X157903945Y-92739500D01*
X157828046Y-92751521D01*
X157714193Y-92769553D01*
X157714193Y-92769554D01*
X157531488Y-92828918D01*
X157360317Y-92916135D01*
X157360316Y-92916136D01*
X157204907Y-93029048D01*
X157204896Y-93029057D01*
X157069057Y-93164896D01*
X157069048Y-93164907D01*
X156956136Y-93320316D01*
X156956135Y-93320317D01*
X156868918Y-93491488D01*
X156809554Y-93674193D01*
X156809553Y-93674193D01*
X156789517Y-93800696D01*
X156779500Y-93863945D01*
X126505500Y-93863945D01*
X126505500Y-92147648D01*
X162699500Y-92147648D01*
X162699500Y-92352352D01*
X162731523Y-92554534D01*
X162763445Y-92652781D01*
X162794778Y-92749212D01*
X162794782Y-92749224D01*
X162887714Y-92931612D01*
X163008028Y-93097212D01*
X163008035Y-93097220D01*
X163152779Y-93241964D01*
X163152787Y-93241971D01*
X163287026Y-93339500D01*
X163318390Y-93362287D01*
X163500781Y-93455220D01*
X163695466Y-93518477D01*
X163897648Y-93550500D01*
X163897653Y-93550500D01*
X164102347Y-93550500D01*
X164102352Y-93550500D01*
X164304534Y-93518477D01*
X164499219Y-93455220D01*
X164681610Y-93362287D01*
X164847219Y-93241966D01*
X164991966Y-93097219D01*
X165112287Y-92931610D01*
X165205220Y-92749219D01*
X165268477Y-92554534D01*
X165300500Y-92352352D01*
X165300500Y-92147648D01*
X165268477Y-91945466D01*
X165205220Y-91750781D01*
X165112287Y-91568390D01*
X165112285Y-91568387D01*
X164991971Y-91402787D01*
X164991964Y-91402779D01*
X164847220Y-91258035D01*
X164847212Y-91258028D01*
X164681612Y-91137714D01*
X164499224Y-91044782D01*
X164499220Y-91044780D01*
X164499219Y-91044780D01*
X164304534Y-90981523D01*
X164102352Y-90949500D01*
X163897648Y-90949500D01*
X163729163Y-90976185D01*
X163695465Y-90981523D01*
X163500787Y-91044778D01*
X163500775Y-91044782D01*
X163318387Y-91137714D01*
X163152787Y-91258028D01*
X163152779Y-91258035D01*
X163008035Y-91402779D01*
X163008028Y-91402787D01*
X162887714Y-91568387D01*
X162794782Y-91750775D01*
X162794780Y-91750781D01*
X162731523Y-91945466D01*
X162699500Y-92147648D01*
X126505500Y-92147648D01*
X126505500Y-89278706D01*
X139099500Y-89278706D01*
X139099500Y-89521293D01*
X139131160Y-89761781D01*
X139131161Y-89761787D01*
X139131162Y-89761789D01*
X139144608Y-89811971D01*
X139193947Y-89996103D01*
X139206008Y-90025220D01*
X139286776Y-90220212D01*
X139408064Y-90430289D01*
X139555735Y-90622738D01*
X139727262Y-90794265D01*
X139919711Y-90941936D01*
X140129788Y-91063224D01*
X140353900Y-91156054D01*
X140588211Y-91218838D01*
X140588217Y-91218838D01*
X140588218Y-91218839D01*
X140653600Y-91227446D01*
X140828712Y-91250500D01*
X141671288Y-91250500D01*
X141911789Y-91218838D01*
X142146100Y-91156054D01*
X142370212Y-91063224D01*
X142580289Y-90941936D01*
X142772738Y-90794265D01*
X142944265Y-90622738D01*
X143091936Y-90430289D01*
X143213224Y-90220212D01*
X143306054Y-89996100D01*
X143368838Y-89761789D01*
X143400500Y-89521288D01*
X143400500Y-89278712D01*
X143368838Y-89038211D01*
X143306054Y-88803900D01*
X143270327Y-88717648D01*
X154379500Y-88717648D01*
X154379500Y-88922352D01*
X154411523Y-89124534D01*
X154461618Y-89278712D01*
X154474778Y-89319212D01*
X154474782Y-89319224D01*
X154567714Y-89501612D01*
X154688028Y-89667212D01*
X154688035Y-89667220D01*
X154832779Y-89811964D01*
X154832787Y-89811971D01*
X154998387Y-89932285D01*
X154998390Y-89932287D01*
X155180781Y-90025220D01*
X155375466Y-90088477D01*
X155577648Y-90120500D01*
X155577653Y-90120500D01*
X155782347Y-90120500D01*
X155782352Y-90120500D01*
X155984534Y-90088477D01*
X156179219Y-90025220D01*
X156361610Y-89932287D01*
X156527219Y-89811966D01*
X156671966Y-89667219D01*
X156792287Y-89501610D01*
X156817240Y-89452636D01*
X156868848Y-89395319D01*
X156942202Y-89371485D01*
X157017644Y-89387521D01*
X157074962Y-89439129D01*
X157082760Y-89452637D01*
X157107712Y-89501609D01*
X157228028Y-89667212D01*
X157228035Y-89667220D01*
X157372779Y-89811964D01*
X157372787Y-89811971D01*
X157538387Y-89932285D01*
X157538390Y-89932287D01*
X157720781Y-90025220D01*
X157915466Y-90088477D01*
X158117648Y-90120500D01*
X158117653Y-90120500D01*
X158322347Y-90120500D01*
X158322352Y-90120500D01*
X158524534Y-90088477D01*
X158719219Y-90025220D01*
X158901610Y-89932287D01*
X159067219Y-89811966D01*
X159211966Y-89667219D01*
X159332287Y-89501610D01*
X159357240Y-89452636D01*
X159408848Y-89395319D01*
X159482202Y-89371485D01*
X159557644Y-89387521D01*
X159614962Y-89439129D01*
X159622760Y-89452637D01*
X159647712Y-89501609D01*
X159768028Y-89667212D01*
X159768035Y-89667220D01*
X159912779Y-89811964D01*
X159912787Y-89811971D01*
X160078387Y-89932285D01*
X160078390Y-89932287D01*
X160260781Y-90025220D01*
X160455466Y-90088477D01*
X160657648Y-90120500D01*
X160657653Y-90120500D01*
X160862347Y-90120500D01*
X160862352Y-90120500D01*
X161064534Y-90088477D01*
X161259219Y-90025220D01*
X161441610Y-89932287D01*
X161607219Y-89811966D01*
X161751966Y-89667219D01*
X161872287Y-89501610D01*
X161897240Y-89452636D01*
X161948848Y-89395319D01*
X162022202Y-89371485D01*
X162097644Y-89387521D01*
X162154962Y-89439129D01*
X162162760Y-89452637D01*
X162187712Y-89501609D01*
X162308028Y-89667212D01*
X162308035Y-89667220D01*
X162452779Y-89811964D01*
X162452787Y-89811971D01*
X162618387Y-89932285D01*
X162618390Y-89932287D01*
X162800781Y-90025220D01*
X162995466Y-90088477D01*
X163197648Y-90120500D01*
X163197653Y-90120500D01*
X163402347Y-90120500D01*
X163402352Y-90120500D01*
X163604534Y-90088477D01*
X163799219Y-90025220D01*
X163981610Y-89932287D01*
X164147219Y-89811966D01*
X164291966Y-89667219D01*
X164412287Y-89501610D01*
X164505220Y-89319219D01*
X164568477Y-89124534D01*
X164600500Y-88922352D01*
X164600500Y-88717648D01*
X164568477Y-88515466D01*
X164505220Y-88320781D01*
X164412287Y-88138390D01*
X164315912Y-88005740D01*
X164291971Y-87972787D01*
X164291964Y-87972779D01*
X164147220Y-87828035D01*
X164147212Y-87828028D01*
X163981612Y-87707714D01*
X163799224Y-87614782D01*
X163799220Y-87614780D01*
X163799219Y-87614780D01*
X163604534Y-87551523D01*
X163402352Y-87519500D01*
X163197648Y-87519500D01*
X163029163Y-87546185D01*
X162995465Y-87551523D01*
X162800787Y-87614778D01*
X162800775Y-87614782D01*
X162618387Y-87707714D01*
X162452787Y-87828028D01*
X162452779Y-87828035D01*
X162308035Y-87972779D01*
X162308028Y-87972787D01*
X162187714Y-88138388D01*
X162162760Y-88187363D01*
X162111151Y-88244680D01*
X162037797Y-88268514D01*
X161962355Y-88252478D01*
X161905038Y-88200869D01*
X161897240Y-88187363D01*
X161892090Y-88177256D01*
X161872287Y-88138390D01*
X161775912Y-88005740D01*
X161751971Y-87972787D01*
X161751964Y-87972779D01*
X161607220Y-87828035D01*
X161607212Y-87828028D01*
X161441612Y-87707714D01*
X161259224Y-87614782D01*
X161259220Y-87614780D01*
X161259219Y-87614780D01*
X161064534Y-87551523D01*
X160862352Y-87519500D01*
X160657648Y-87519500D01*
X160489163Y-87546185D01*
X160455465Y-87551523D01*
X160260787Y-87614778D01*
X160260775Y-87614782D01*
X160078387Y-87707714D01*
X159912787Y-87828028D01*
X159912779Y-87828035D01*
X159768035Y-87972779D01*
X159768028Y-87972787D01*
X159647714Y-88138388D01*
X159622760Y-88187363D01*
X159571151Y-88244680D01*
X159497797Y-88268514D01*
X159422355Y-88252478D01*
X159365038Y-88200869D01*
X159357240Y-88187363D01*
X159352090Y-88177256D01*
X159332287Y-88138390D01*
X159235912Y-88005740D01*
X159211971Y-87972787D01*
X159211964Y-87972779D01*
X159067220Y-87828035D01*
X159067212Y-87828028D01*
X158901612Y-87707714D01*
X158719224Y-87614782D01*
X158719220Y-87614780D01*
X158719219Y-87614780D01*
X158524534Y-87551523D01*
X158322352Y-87519500D01*
X158117648Y-87519500D01*
X157949163Y-87546185D01*
X157915465Y-87551523D01*
X157720787Y-87614778D01*
X157720775Y-87614782D01*
X157538387Y-87707714D01*
X157372787Y-87828028D01*
X157372779Y-87828035D01*
X157228035Y-87972779D01*
X157228028Y-87972787D01*
X157107714Y-88138388D01*
X157082760Y-88187363D01*
X157031151Y-88244680D01*
X156957797Y-88268514D01*
X156882355Y-88252478D01*
X156825038Y-88200869D01*
X156817240Y-88187363D01*
X156812090Y-88177256D01*
X156792287Y-88138390D01*
X156695912Y-88005740D01*
X156671971Y-87972787D01*
X156671964Y-87972779D01*
X156527220Y-87828035D01*
X156527212Y-87828028D01*
X156361612Y-87707714D01*
X156179224Y-87614782D01*
X156179220Y-87614780D01*
X156179219Y-87614780D01*
X155984534Y-87551523D01*
X155782352Y-87519500D01*
X155577648Y-87519500D01*
X155409163Y-87546185D01*
X155375465Y-87551523D01*
X155180787Y-87614778D01*
X155180775Y-87614782D01*
X154998387Y-87707714D01*
X154832787Y-87828028D01*
X154832779Y-87828035D01*
X154688035Y-87972779D01*
X154688028Y-87972787D01*
X154567714Y-88138387D01*
X154474782Y-88320775D01*
X154474780Y-88320781D01*
X154411523Y-88515466D01*
X154379500Y-88717648D01*
X143270327Y-88717648D01*
X143213224Y-88579788D01*
X143091936Y-88369711D01*
X142944265Y-88177262D01*
X142772738Y-88005735D01*
X142580289Y-87858064D01*
X142510263Y-87817634D01*
X142370216Y-87736778D01*
X142370214Y-87736777D01*
X142370212Y-87736776D01*
X142238932Y-87682398D01*
X142146103Y-87643947D01*
X142146101Y-87643946D01*
X142146100Y-87643946D01*
X141911789Y-87581162D01*
X141911787Y-87581161D01*
X141911781Y-87581160D01*
X141671293Y-87549500D01*
X141671288Y-87549500D01*
X140828712Y-87549500D01*
X140828706Y-87549500D01*
X140588218Y-87581160D01*
X140353896Y-87643947D01*
X140129783Y-87736778D01*
X139919712Y-87858063D01*
X139919711Y-87858064D01*
X139727262Y-88005735D01*
X139727260Y-88005736D01*
X139727256Y-88005740D01*
X139555740Y-88177256D01*
X139555736Y-88177260D01*
X139555735Y-88177262D01*
X139498020Y-88252478D01*
X139408063Y-88369712D01*
X139286778Y-88579783D01*
X139193947Y-88803896D01*
X139131160Y-89038218D01*
X139099500Y-89278706D01*
X126505500Y-89278706D01*
X126505500Y-80658713D01*
X127149500Y-80658713D01*
X127149500Y-80871287D01*
X127182754Y-81081243D01*
X127248443Y-81283412D01*
X127314400Y-81412861D01*
X127344950Y-81472817D01*
X127344950Y-81472818D01*
X127402638Y-81552219D01*
X127469896Y-81644792D01*
X127620208Y-81795104D01*
X127792184Y-81920051D01*
X127981588Y-82016557D01*
X128183757Y-82082246D01*
X128393713Y-82115500D01*
X128393718Y-82115500D01*
X128606282Y-82115500D01*
X128606287Y-82115500D01*
X128816243Y-82082246D01*
X129018412Y-82016557D01*
X129207816Y-81920051D01*
X129379792Y-81795104D01*
X129530104Y-81644792D01*
X129655051Y-81472816D01*
X129751557Y-81283412D01*
X129817246Y-81081243D01*
X129849325Y-80878706D01*
X133599500Y-80878706D01*
X133599500Y-81121293D01*
X133631160Y-81361781D01*
X133631161Y-81361787D01*
X133631162Y-81361789D01*
X133693306Y-81593713D01*
X133693947Y-81596103D01*
X133714114Y-81644790D01*
X133786327Y-81819129D01*
X133786778Y-81820216D01*
X133867634Y-81960263D01*
X133908064Y-82030289D01*
X134055735Y-82222738D01*
X134227262Y-82394265D01*
X134419711Y-82541936D01*
X134629788Y-82663224D01*
X134853900Y-82756054D01*
X135088211Y-82818838D01*
X135088217Y-82818838D01*
X135088218Y-82818839D01*
X135153600Y-82827446D01*
X135328712Y-82850500D01*
X136171288Y-82850500D01*
X136411789Y-82818838D01*
X136646100Y-82756054D01*
X136870212Y-82663224D01*
X137080289Y-82541936D01*
X137272738Y-82394265D01*
X137444265Y-82222738D01*
X137591936Y-82030289D01*
X137713224Y-81820212D01*
X137806054Y-81596100D01*
X137868838Y-81361789D01*
X137900500Y-81121288D01*
X137900500Y-80878712D01*
X137900499Y-80878706D01*
X139099500Y-80878706D01*
X139099500Y-81121293D01*
X139131160Y-81361781D01*
X139131161Y-81361787D01*
X139131162Y-81361789D01*
X139193306Y-81593713D01*
X139193947Y-81596103D01*
X139214114Y-81644790D01*
X139286327Y-81819129D01*
X139286778Y-81820216D01*
X139367634Y-81960263D01*
X139408064Y-82030289D01*
X139555735Y-82222738D01*
X139727262Y-82394265D01*
X139919711Y-82541936D01*
X140129788Y-82663224D01*
X140353900Y-82756054D01*
X140588211Y-82818838D01*
X140588217Y-82818838D01*
X140588218Y-82818839D01*
X140653600Y-82827446D01*
X140828712Y-82850500D01*
X141671288Y-82850500D01*
X141911789Y-82818838D01*
X142146100Y-82756054D01*
X142370212Y-82663224D01*
X142580289Y-82541936D01*
X142772738Y-82394265D01*
X142944265Y-82222738D01*
X143091936Y-82030289D01*
X143213224Y-81820212D01*
X143306054Y-81596100D01*
X143359230Y-81397648D01*
X150949500Y-81397648D01*
X150949500Y-81602352D01*
X150981523Y-81804534D01*
X151021167Y-81926547D01*
X151044778Y-81999212D01*
X151044782Y-81999224D01*
X151137714Y-82181612D01*
X151258028Y-82347212D01*
X151258035Y-82347220D01*
X151402779Y-82491964D01*
X151402787Y-82491971D01*
X151471559Y-82541936D01*
X151568390Y-82612287D01*
X151750781Y-82705220D01*
X151945466Y-82768477D01*
X152147648Y-82800500D01*
X152147653Y-82800500D01*
X152352347Y-82800500D01*
X152352352Y-82800500D01*
X152554534Y-82768477D01*
X152749219Y-82705220D01*
X152931610Y-82612287D01*
X153097219Y-82491966D01*
X153241966Y-82347219D01*
X153362287Y-82181610D01*
X153455220Y-81999219D01*
X153518477Y-81804534D01*
X153550500Y-81602352D01*
X153550500Y-81397648D01*
X153518477Y-81195466D01*
X153486694Y-81097648D01*
X154379500Y-81097648D01*
X154379500Y-81302352D01*
X154411523Y-81504534D01*
X154443304Y-81602347D01*
X154474778Y-81699212D01*
X154474782Y-81699224D01*
X154567714Y-81881612D01*
X154688028Y-82047212D01*
X154688035Y-82047220D01*
X154832779Y-82191964D01*
X154832787Y-82191971D01*
X154998387Y-82312285D01*
X154998390Y-82312287D01*
X155180781Y-82405220D01*
X155375466Y-82468477D01*
X155577648Y-82500500D01*
X155577653Y-82500500D01*
X155782347Y-82500500D01*
X155782352Y-82500500D01*
X155984534Y-82468477D01*
X156179219Y-82405220D01*
X156361610Y-82312287D01*
X156527219Y-82191966D01*
X156671966Y-82047219D01*
X156792287Y-81881610D01*
X156817240Y-81832636D01*
X156868848Y-81775319D01*
X156942202Y-81751485D01*
X157017644Y-81767521D01*
X157074962Y-81819129D01*
X157082760Y-81832637D01*
X157107712Y-81881609D01*
X157228028Y-82047212D01*
X157228035Y-82047220D01*
X157372779Y-82191964D01*
X157372787Y-82191971D01*
X157538387Y-82312285D01*
X157538390Y-82312287D01*
X157720781Y-82405220D01*
X157915466Y-82468477D01*
X158117648Y-82500500D01*
X158117653Y-82500500D01*
X158322347Y-82500500D01*
X158322352Y-82500500D01*
X158524534Y-82468477D01*
X158719219Y-82405220D01*
X158901610Y-82312287D01*
X159067219Y-82191966D01*
X159211966Y-82047219D01*
X159332287Y-81881610D01*
X159357240Y-81832636D01*
X159408848Y-81775319D01*
X159482202Y-81751485D01*
X159557644Y-81767521D01*
X159614962Y-81819129D01*
X159622760Y-81832637D01*
X159647712Y-81881609D01*
X159768028Y-82047212D01*
X159768035Y-82047220D01*
X159912779Y-82191964D01*
X159912787Y-82191971D01*
X160078387Y-82312285D01*
X160078390Y-82312287D01*
X160260781Y-82405220D01*
X160455466Y-82468477D01*
X160657648Y-82500500D01*
X160657653Y-82500500D01*
X160862347Y-82500500D01*
X160862352Y-82500500D01*
X161064534Y-82468477D01*
X161259219Y-82405220D01*
X161441610Y-82312287D01*
X161607219Y-82191966D01*
X161751966Y-82047219D01*
X161751966Y-82047218D01*
X161756106Y-82043079D01*
X161757742Y-82044715D01*
X161812463Y-82007072D01*
X161889351Y-82000987D01*
X161958980Y-82034161D01*
X162002694Y-82097705D01*
X162004316Y-82103213D01*
X162056202Y-82242329D01*
X162056204Y-82242333D01*
X162142452Y-82357544D01*
X162142455Y-82357547D01*
X162257666Y-82443795D01*
X162257670Y-82443797D01*
X162392517Y-82494091D01*
X162452114Y-82500499D01*
X162452118Y-82500499D01*
X162452127Y-82500500D01*
X164147872Y-82500499D01*
X164207483Y-82494091D01*
X164303447Y-82458298D01*
X164342329Y-82443797D01*
X164342333Y-82443795D01*
X164408504Y-82394259D01*
X164457546Y-82357546D01*
X164543796Y-82242331D01*
X164594091Y-82107483D01*
X164596804Y-82082246D01*
X164600499Y-82047885D01*
X164600499Y-82047882D01*
X164600500Y-82047873D01*
X164600499Y-80352128D01*
X164594091Y-80292517D01*
X164571342Y-80231523D01*
X164543797Y-80157670D01*
X164543795Y-80157666D01*
X164457547Y-80042455D01*
X164457544Y-80042452D01*
X164342333Y-79956204D01*
X164342329Y-79956202D01*
X164207482Y-79905908D01*
X164147876Y-79899500D01*
X162452136Y-79899500D01*
X162452111Y-79899502D01*
X162392521Y-79905908D01*
X162392515Y-79905909D01*
X162257670Y-79956202D01*
X162257666Y-79956204D01*
X162142455Y-80042452D01*
X162142452Y-80042455D01*
X162056204Y-80157666D01*
X162056202Y-80157670D01*
X162002652Y-80301249D01*
X162000005Y-80300261D01*
X161970689Y-80354693D01*
X161905064Y-80395215D01*
X161827969Y-80397495D01*
X161760064Y-80360922D01*
X161756181Y-80356845D01*
X161756106Y-80356921D01*
X161607220Y-80208035D01*
X161607212Y-80208028D01*
X161441612Y-80087714D01*
X161259224Y-79994782D01*
X161259220Y-79994780D01*
X161259219Y-79994780D01*
X161064534Y-79931523D01*
X160862352Y-79899500D01*
X160657648Y-79899500D01*
X160489163Y-79926185D01*
X160455465Y-79931523D01*
X160260787Y-79994778D01*
X160260775Y-79994782D01*
X160078387Y-80087714D01*
X159912787Y-80208028D01*
X159912779Y-80208035D01*
X159768035Y-80352779D01*
X159768028Y-80352787D01*
X159647714Y-80518388D01*
X159622760Y-80567363D01*
X159571151Y-80624680D01*
X159497797Y-80648514D01*
X159422355Y-80632478D01*
X159365038Y-80580869D01*
X159357240Y-80567363D01*
X159332287Y-80518390D01*
X159249103Y-80403896D01*
X159211971Y-80352787D01*
X159211964Y-80352779D01*
X159067220Y-80208035D01*
X159067212Y-80208028D01*
X158901612Y-80087714D01*
X158719224Y-79994782D01*
X158719220Y-79994780D01*
X158719219Y-79994780D01*
X158524534Y-79931523D01*
X158322352Y-79899500D01*
X158117648Y-79899500D01*
X157949163Y-79926185D01*
X157915465Y-79931523D01*
X157720787Y-79994778D01*
X157720775Y-79994782D01*
X157538387Y-80087714D01*
X157372787Y-80208028D01*
X157372779Y-80208035D01*
X157228035Y-80352779D01*
X157228028Y-80352787D01*
X157107714Y-80518388D01*
X157082760Y-80567363D01*
X157031151Y-80624680D01*
X156957797Y-80648514D01*
X156882355Y-80632478D01*
X156825038Y-80580869D01*
X156817240Y-80567363D01*
X156792287Y-80518390D01*
X156709103Y-80403896D01*
X156671971Y-80352787D01*
X156671964Y-80352779D01*
X156527220Y-80208035D01*
X156527212Y-80208028D01*
X156361612Y-80087714D01*
X156179224Y-79994782D01*
X156179220Y-79994780D01*
X156179219Y-79994780D01*
X155984534Y-79931523D01*
X155782352Y-79899500D01*
X155577648Y-79899500D01*
X155409163Y-79926185D01*
X155375465Y-79931523D01*
X155180787Y-79994778D01*
X155180775Y-79994782D01*
X154998387Y-80087714D01*
X154832787Y-80208028D01*
X154832779Y-80208035D01*
X154688035Y-80352779D01*
X154688028Y-80352787D01*
X154567714Y-80518387D01*
X154474782Y-80700775D01*
X154474778Y-80700787D01*
X154416967Y-80878712D01*
X154411523Y-80895466D01*
X154379500Y-81097648D01*
X153486694Y-81097648D01*
X153455220Y-81000781D01*
X153362287Y-80818390D01*
X153353492Y-80806284D01*
X153241971Y-80652787D01*
X153241964Y-80652779D01*
X153097220Y-80508035D01*
X153097212Y-80508028D01*
X152931612Y-80387714D01*
X152749224Y-80294782D01*
X152749220Y-80294780D01*
X152749219Y-80294780D01*
X152554534Y-80231523D01*
X152352352Y-80199500D01*
X152147648Y-80199500D01*
X151979163Y-80226185D01*
X151945465Y-80231523D01*
X151750787Y-80294778D01*
X151750775Y-80294782D01*
X151568387Y-80387714D01*
X151402787Y-80508028D01*
X151402779Y-80508035D01*
X151258035Y-80652779D01*
X151258028Y-80652787D01*
X151137714Y-80818387D01*
X151044782Y-81000775D01*
X151044781Y-81000779D01*
X151044780Y-81000781D01*
X150981523Y-81195466D01*
X150949500Y-81397648D01*
X143359230Y-81397648D01*
X143368838Y-81361789D01*
X143400500Y-81121288D01*
X143400500Y-80878712D01*
X143368838Y-80638211D01*
X143306054Y-80403900D01*
X143213224Y-80179788D01*
X143091936Y-79969711D01*
X142944265Y-79777262D01*
X142772738Y-79605735D01*
X142580289Y-79458064D01*
X142504834Y-79414500D01*
X142370216Y-79336778D01*
X142370214Y-79336777D01*
X142370212Y-79336776D01*
X142238932Y-79282398D01*
X142146103Y-79243947D01*
X142146101Y-79243946D01*
X142146100Y-79243946D01*
X141911789Y-79181162D01*
X141911787Y-79181161D01*
X141911781Y-79181160D01*
X141671293Y-79149500D01*
X141671288Y-79149500D01*
X140828712Y-79149500D01*
X140828706Y-79149500D01*
X140588218Y-79181160D01*
X140353896Y-79243947D01*
X140129783Y-79336778D01*
X139919712Y-79458063D01*
X139919711Y-79458064D01*
X139727262Y-79605735D01*
X139727260Y-79605736D01*
X139727256Y-79605740D01*
X139555740Y-79777256D01*
X139408063Y-79969712D01*
X139286778Y-80179783D01*
X139193947Y-80403896D01*
X139131160Y-80638218D01*
X139099500Y-80878706D01*
X137900499Y-80878706D01*
X137868838Y-80638211D01*
X137806054Y-80403900D01*
X137713224Y-80179788D01*
X137591936Y-79969711D01*
X137444265Y-79777262D01*
X137272738Y-79605735D01*
X137080289Y-79458064D01*
X137004834Y-79414500D01*
X136870216Y-79336778D01*
X136870214Y-79336777D01*
X136870212Y-79336776D01*
X136738932Y-79282398D01*
X136646103Y-79243947D01*
X136646101Y-79243946D01*
X136646100Y-79243946D01*
X136411789Y-79181162D01*
X136411787Y-79181161D01*
X136411781Y-79181160D01*
X136171293Y-79149500D01*
X136171288Y-79149500D01*
X135328712Y-79149500D01*
X135328706Y-79149500D01*
X135088218Y-79181160D01*
X134853896Y-79243947D01*
X134629783Y-79336778D01*
X134419712Y-79458063D01*
X134419711Y-79458064D01*
X134227262Y-79605735D01*
X134227260Y-79605736D01*
X134227256Y-79605740D01*
X134055740Y-79777256D01*
X133908063Y-79969712D01*
X133786778Y-80179783D01*
X133693947Y-80403896D01*
X133631160Y-80638218D01*
X133599500Y-80878706D01*
X129849325Y-80878706D01*
X129850500Y-80871287D01*
X129850500Y-80658713D01*
X129817246Y-80448757D01*
X129751557Y-80246588D01*
X129655051Y-80057184D01*
X129530104Y-79885208D01*
X129379792Y-79734896D01*
X129207816Y-79609949D01*
X129018412Y-79513443D01*
X128816243Y-79447754D01*
X128606287Y-79414500D01*
X128393713Y-79414500D01*
X128218749Y-79442211D01*
X128183756Y-79447754D01*
X127981594Y-79513441D01*
X127981588Y-79513443D01*
X127981582Y-79513445D01*
X127981582Y-79513446D01*
X127792182Y-79609950D01*
X127792181Y-79609950D01*
X127620209Y-79734895D01*
X127620206Y-79734897D01*
X127469897Y-79885206D01*
X127469895Y-79885209D01*
X127344950Y-80057181D01*
X127344950Y-80057182D01*
X127248446Y-80246582D01*
X127248441Y-80246594D01*
X127213937Y-80352787D01*
X127182754Y-80448757D01*
X127149500Y-80658713D01*
X126505500Y-80658713D01*
X126505500Y-77707648D01*
X153199500Y-77707648D01*
X153199500Y-77912352D01*
X153231523Y-78114534D01*
X153292423Y-78301966D01*
X153294778Y-78309212D01*
X153294782Y-78309224D01*
X153387714Y-78491612D01*
X153508028Y-78657212D01*
X153508035Y-78657220D01*
X153652779Y-78801964D01*
X153652787Y-78801971D01*
X153802166Y-78910500D01*
X153818390Y-78922287D01*
X154000781Y-79015220D01*
X154195466Y-79078477D01*
X154397648Y-79110500D01*
X154397653Y-79110500D01*
X154602347Y-79110500D01*
X154602352Y-79110500D01*
X154804534Y-79078477D01*
X154999219Y-79015220D01*
X155181610Y-78922287D01*
X155347219Y-78801966D01*
X155491966Y-78657219D01*
X155612287Y-78491610D01*
X155705220Y-78309219D01*
X155768477Y-78114534D01*
X155800500Y-77912352D01*
X155800500Y-77707648D01*
X156699500Y-77707648D01*
X156699500Y-77912352D01*
X156731523Y-78114534D01*
X156792423Y-78301966D01*
X156794778Y-78309212D01*
X156794782Y-78309224D01*
X156887714Y-78491612D01*
X157008028Y-78657212D01*
X157008035Y-78657220D01*
X157152779Y-78801964D01*
X157152787Y-78801971D01*
X157302166Y-78910500D01*
X157318390Y-78922287D01*
X157500781Y-79015220D01*
X157695466Y-79078477D01*
X157897648Y-79110500D01*
X157897653Y-79110500D01*
X158102347Y-79110500D01*
X158102352Y-79110500D01*
X158304534Y-79078477D01*
X158499219Y-79015220D01*
X158681610Y-78922287D01*
X158847219Y-78801966D01*
X158991966Y-78657219D01*
X159112287Y-78491610D01*
X159205220Y-78309219D01*
X159268477Y-78114534D01*
X159300500Y-77912352D01*
X159300500Y-77707648D01*
X160199500Y-77707648D01*
X160199500Y-77912352D01*
X160231523Y-78114534D01*
X160292423Y-78301966D01*
X160294778Y-78309212D01*
X160294782Y-78309224D01*
X160387714Y-78491612D01*
X160508028Y-78657212D01*
X160508035Y-78657220D01*
X160652779Y-78801964D01*
X160652787Y-78801971D01*
X160802166Y-78910500D01*
X160818390Y-78922287D01*
X161000781Y-79015220D01*
X161195466Y-79078477D01*
X161397648Y-79110500D01*
X161397653Y-79110500D01*
X161602347Y-79110500D01*
X161602352Y-79110500D01*
X161804534Y-79078477D01*
X161999219Y-79015220D01*
X162181610Y-78922287D01*
X162347219Y-78801966D01*
X162491966Y-78657219D01*
X162612287Y-78491610D01*
X162705220Y-78309219D01*
X162768477Y-78114534D01*
X162800500Y-77912352D01*
X162800500Y-77707648D01*
X163699500Y-77707648D01*
X163699500Y-77912352D01*
X163731523Y-78114534D01*
X163792423Y-78301966D01*
X163794778Y-78309212D01*
X163794782Y-78309224D01*
X163887714Y-78491612D01*
X164008028Y-78657212D01*
X164008035Y-78657220D01*
X164152779Y-78801964D01*
X164152787Y-78801971D01*
X164302166Y-78910500D01*
X164318390Y-78922287D01*
X164500781Y-79015220D01*
X164695466Y-79078477D01*
X164897648Y-79110500D01*
X164897653Y-79110500D01*
X165102347Y-79110500D01*
X165102352Y-79110500D01*
X165304534Y-79078477D01*
X165499219Y-79015220D01*
X165681610Y-78922287D01*
X165847219Y-78801966D01*
X165991966Y-78657219D01*
X166112287Y-78491610D01*
X166205220Y-78309219D01*
X166268477Y-78114534D01*
X166300500Y-77912352D01*
X166300500Y-77707648D01*
X166268477Y-77505466D01*
X166205220Y-77310781D01*
X166112287Y-77128390D01*
X166088718Y-77095950D01*
X165991971Y-76962787D01*
X165991964Y-76962779D01*
X165847220Y-76818035D01*
X165847212Y-76818028D01*
X165681612Y-76697714D01*
X165499224Y-76604782D01*
X165499220Y-76604780D01*
X165499219Y-76604780D01*
X165304534Y-76541523D01*
X165102352Y-76509500D01*
X164897648Y-76509500D01*
X164729163Y-76536185D01*
X164695465Y-76541523D01*
X164500787Y-76604778D01*
X164500775Y-76604782D01*
X164318387Y-76697714D01*
X164152787Y-76818028D01*
X164152779Y-76818035D01*
X164008035Y-76962779D01*
X164008028Y-76962787D01*
X163887714Y-77128387D01*
X163794782Y-77310775D01*
X163794778Y-77310787D01*
X163734300Y-77496920D01*
X163731523Y-77505466D01*
X163699500Y-77707648D01*
X162800500Y-77707648D01*
X162768477Y-77505466D01*
X162705220Y-77310781D01*
X162612287Y-77128390D01*
X162588718Y-77095950D01*
X162491971Y-76962787D01*
X162491964Y-76962779D01*
X162347220Y-76818035D01*
X162347212Y-76818028D01*
X162181612Y-76697714D01*
X161999224Y-76604782D01*
X161999220Y-76604780D01*
X161999219Y-76604780D01*
X161804534Y-76541523D01*
X161602352Y-76509500D01*
X161397648Y-76509500D01*
X161229163Y-76536185D01*
X161195465Y-76541523D01*
X161000787Y-76604778D01*
X161000775Y-76604782D01*
X160818387Y-76697714D01*
X160652787Y-76818028D01*
X160652779Y-76818035D01*
X160508035Y-76962779D01*
X160508028Y-76962787D01*
X160387714Y-77128387D01*
X160294782Y-77310775D01*
X160294778Y-77310787D01*
X160234300Y-77496920D01*
X160231523Y-77505466D01*
X160199500Y-77707648D01*
X159300500Y-77707648D01*
X159268477Y-77505466D01*
X159205220Y-77310781D01*
X159112287Y-77128390D01*
X159088718Y-77095950D01*
X158991971Y-76962787D01*
X158991964Y-76962779D01*
X158847220Y-76818035D01*
X158847212Y-76818028D01*
X158681612Y-76697714D01*
X158499224Y-76604782D01*
X158499220Y-76604780D01*
X158499219Y-76604780D01*
X158304534Y-76541523D01*
X158102352Y-76509500D01*
X157897648Y-76509500D01*
X157729163Y-76536185D01*
X157695465Y-76541523D01*
X157500787Y-76604778D01*
X157500775Y-76604782D01*
X157318387Y-76697714D01*
X157152787Y-76818028D01*
X157152779Y-76818035D01*
X157008035Y-76962779D01*
X157008028Y-76962787D01*
X156887714Y-77128387D01*
X156794782Y-77310775D01*
X156794778Y-77310787D01*
X156734300Y-77496920D01*
X156731523Y-77505466D01*
X156699500Y-77707648D01*
X155800500Y-77707648D01*
X155768477Y-77505466D01*
X155705220Y-77310781D01*
X155612287Y-77128390D01*
X155588718Y-77095950D01*
X155491971Y-76962787D01*
X155491964Y-76962779D01*
X155347220Y-76818035D01*
X155347212Y-76818028D01*
X155181612Y-76697714D01*
X154999224Y-76604782D01*
X154999220Y-76604780D01*
X154999219Y-76604780D01*
X154804534Y-76541523D01*
X154602352Y-76509500D01*
X154397648Y-76509500D01*
X154229163Y-76536185D01*
X154195465Y-76541523D01*
X154000787Y-76604778D01*
X154000775Y-76604782D01*
X153818387Y-76697714D01*
X153652787Y-76818028D01*
X153652779Y-76818035D01*
X153508035Y-76962779D01*
X153508028Y-76962787D01*
X153387714Y-77128387D01*
X153294782Y-77310775D01*
X153294778Y-77310787D01*
X153234300Y-77496920D01*
X153231523Y-77505466D01*
X153199500Y-77707648D01*
X126505500Y-77707648D01*
X126505500Y-72478706D01*
X133599500Y-72478706D01*
X133599500Y-72721293D01*
X133631160Y-72961781D01*
X133631161Y-72961787D01*
X133631162Y-72961789D01*
X133693946Y-73196100D01*
X133786776Y-73420212D01*
X133908064Y-73630289D01*
X134055735Y-73822738D01*
X134227262Y-73994265D01*
X134419711Y-74141936D01*
X134629788Y-74263224D01*
X134853900Y-74356054D01*
X135088211Y-74418838D01*
X135088217Y-74418838D01*
X135088218Y-74418839D01*
X135153600Y-74427446D01*
X135328712Y-74450500D01*
X136171288Y-74450500D01*
X136411789Y-74418838D01*
X136646100Y-74356054D01*
X136870212Y-74263224D01*
X137080289Y-74141936D01*
X137272738Y-73994265D01*
X137444265Y-73822738D01*
X137591936Y-73630289D01*
X137713224Y-73420212D01*
X137806054Y-73196100D01*
X137868838Y-72961789D01*
X137900500Y-72721288D01*
X137900500Y-72478712D01*
X137900499Y-72478706D01*
X139099500Y-72478706D01*
X139099500Y-72721293D01*
X139131160Y-72961781D01*
X139131161Y-72961787D01*
X139131162Y-72961789D01*
X139193946Y-73196100D01*
X139286776Y-73420212D01*
X139408064Y-73630289D01*
X139555735Y-73822738D01*
X139727262Y-73994265D01*
X139919711Y-74141936D01*
X140129788Y-74263224D01*
X140353900Y-74356054D01*
X140588211Y-74418838D01*
X140588217Y-74418838D01*
X140588218Y-74418839D01*
X140653600Y-74427446D01*
X140828712Y-74450500D01*
X141671288Y-74450500D01*
X141911789Y-74418838D01*
X142146100Y-74356054D01*
X142370212Y-74263224D01*
X142580289Y-74141936D01*
X142772738Y-73994265D01*
X142944265Y-73822738D01*
X143091936Y-73630289D01*
X143213224Y-73420212D01*
X143306054Y-73196100D01*
X143368838Y-72961789D01*
X143400500Y-72721288D01*
X143400500Y-72478712D01*
X143376376Y-72295466D01*
X143368839Y-72238218D01*
X143368838Y-72238217D01*
X143368838Y-72238211D01*
X143306054Y-72003900D01*
X143213224Y-71779788D01*
X143091936Y-71569711D01*
X142944265Y-71377262D01*
X142772738Y-71205735D01*
X142580289Y-71058064D01*
X142463265Y-70990500D01*
X142370216Y-70936778D01*
X142370214Y-70936777D01*
X142370212Y-70936776D01*
X142212887Y-70871610D01*
X142146103Y-70843947D01*
X142146101Y-70843946D01*
X142146100Y-70843946D01*
X141911789Y-70781162D01*
X141911787Y-70781161D01*
X141911781Y-70781160D01*
X141671293Y-70749500D01*
X141671288Y-70749500D01*
X140828712Y-70749500D01*
X140828706Y-70749500D01*
X140588218Y-70781160D01*
X140353896Y-70843947D01*
X140129783Y-70936778D01*
X139919712Y-71058063D01*
X139919711Y-71058064D01*
X139727262Y-71205735D01*
X139727260Y-71205736D01*
X139727256Y-71205740D01*
X139555740Y-71377256D01*
X139555736Y-71377260D01*
X139555735Y-71377262D01*
X139493417Y-71458477D01*
X139408063Y-71569712D01*
X139286778Y-71779783D01*
X139193947Y-72003896D01*
X139131160Y-72238218D01*
X139099500Y-72478706D01*
X137900499Y-72478706D01*
X137876376Y-72295466D01*
X137868839Y-72238218D01*
X137868838Y-72238217D01*
X137868838Y-72238211D01*
X137806054Y-72003900D01*
X137713224Y-71779788D01*
X137591936Y-71569711D01*
X137444265Y-71377262D01*
X137272738Y-71205735D01*
X137080289Y-71058064D01*
X136963265Y-70990500D01*
X136870216Y-70936778D01*
X136870214Y-70936777D01*
X136870212Y-70936776D01*
X136712887Y-70871610D01*
X136646103Y-70843947D01*
X136646101Y-70843946D01*
X136646100Y-70843946D01*
X136411789Y-70781162D01*
X136411787Y-70781161D01*
X136411781Y-70781160D01*
X136171293Y-70749500D01*
X136171288Y-70749500D01*
X135328712Y-70749500D01*
X135328706Y-70749500D01*
X135088218Y-70781160D01*
X134853896Y-70843947D01*
X134629783Y-70936778D01*
X134419712Y-71058063D01*
X134419711Y-71058064D01*
X134227262Y-71205735D01*
X134227260Y-71205736D01*
X134227256Y-71205740D01*
X134055740Y-71377256D01*
X134055736Y-71377260D01*
X134055735Y-71377262D01*
X133993417Y-71458477D01*
X133908063Y-71569712D01*
X133786778Y-71779783D01*
X133693947Y-72003896D01*
X133631160Y-72238218D01*
X133599500Y-72478706D01*
X126505500Y-72478706D01*
X126505500Y-68278706D01*
X133599500Y-68278706D01*
X133599500Y-68521293D01*
X133631160Y-68761781D01*
X133631161Y-68761787D01*
X133631162Y-68761789D01*
X133690913Y-68984782D01*
X133693947Y-68996103D01*
X133727751Y-69077713D01*
X133786776Y-69220212D01*
X133908064Y-69430289D01*
X134055735Y-69622738D01*
X134227262Y-69794265D01*
X134419711Y-69941936D01*
X134629788Y-70063224D01*
X134853900Y-70156054D01*
X135088211Y-70218838D01*
X135088217Y-70218838D01*
X135088218Y-70218839D01*
X135153600Y-70227446D01*
X135328712Y-70250500D01*
X136171288Y-70250500D01*
X136411789Y-70218838D01*
X136646100Y-70156054D01*
X136870212Y-70063224D01*
X137080289Y-69941936D01*
X137272738Y-69794265D01*
X137444265Y-69622738D01*
X137591936Y-69430289D01*
X137713224Y-69220212D01*
X137806054Y-68996100D01*
X137868838Y-68761789D01*
X137900500Y-68521288D01*
X137900500Y-68278712D01*
X137868838Y-68038211D01*
X137806054Y-67803900D01*
X137713224Y-67579788D01*
X137591936Y-67369711D01*
X137500073Y-67249992D01*
X139099500Y-67249992D01*
X139099500Y-69550008D01*
X139103346Y-69587652D01*
X139110001Y-69652798D01*
X139137350Y-69735332D01*
X139165186Y-69819334D01*
X139257289Y-69968655D01*
X139381345Y-70092711D01*
X139530666Y-70184814D01*
X139697203Y-70239999D01*
X139799992Y-70250500D01*
X139799996Y-70250500D01*
X142700004Y-70250500D01*
X142700008Y-70250500D01*
X142802797Y-70239999D01*
X142969334Y-70184814D01*
X143118655Y-70092711D01*
X143123718Y-70087648D01*
X156699500Y-70087648D01*
X156699500Y-70292352D01*
X156731523Y-70494534D01*
X156792423Y-70681966D01*
X156794778Y-70689212D01*
X156794782Y-70689224D01*
X156887714Y-70871612D01*
X157008028Y-71037212D01*
X157008035Y-71037220D01*
X157152779Y-71181964D01*
X157152787Y-71181971D01*
X157293345Y-71284091D01*
X157318390Y-71302287D01*
X157469603Y-71379334D01*
X157499913Y-71394778D01*
X157500781Y-71395220D01*
X157695466Y-71458477D01*
X157897648Y-71490500D01*
X157897653Y-71490500D01*
X158102347Y-71490500D01*
X158102352Y-71490500D01*
X158304534Y-71458477D01*
X158451681Y-71410665D01*
X158528701Y-71406629D01*
X158597423Y-71441644D01*
X158639430Y-71506329D01*
X158643467Y-71583351D01*
X158608452Y-71652073D01*
X158603082Y-71657731D01*
X158508042Y-71752771D01*
X158508028Y-71752787D01*
X158387714Y-71918387D01*
X158294782Y-72100775D01*
X158294780Y-72100781D01*
X158231523Y-72295466D01*
X158199500Y-72497648D01*
X158199500Y-72702352D01*
X158231523Y-72904534D01*
X158294778Y-73099212D01*
X158294782Y-73099224D01*
X158387714Y-73281612D01*
X158508028Y-73447212D01*
X158508035Y-73447220D01*
X158652779Y-73591964D01*
X158652787Y-73591971D01*
X158818387Y-73712285D01*
X158818390Y-73712287D01*
X159000781Y-73805220D01*
X159195466Y-73868477D01*
X159397648Y-73900500D01*
X159397653Y-73900500D01*
X159602347Y-73900500D01*
X159602352Y-73900500D01*
X159804534Y-73868477D01*
X159999219Y-73805220D01*
X160181610Y-73712287D01*
X160347219Y-73591966D01*
X160491966Y-73447219D01*
X160517612Y-73411919D01*
X160577552Y-73363382D01*
X160638156Y-73350500D01*
X176779414Y-73350500D01*
X176853914Y-73370462D01*
X176884773Y-73394141D01*
X179279341Y-75788709D01*
X179317905Y-75855504D01*
X179317905Y-75932632D01*
X179279341Y-75999427D01*
X179212546Y-76037991D01*
X179197294Y-76041233D01*
X179195471Y-76041521D01*
X179195467Y-76041522D01*
X179000787Y-76104778D01*
X179000775Y-76104782D01*
X178818387Y-76197714D01*
X178652787Y-76318028D01*
X178652779Y-76318035D01*
X178508035Y-76462779D01*
X178508028Y-76462787D01*
X178387714Y-76628387D01*
X178294782Y-76810775D01*
X178294780Y-76810781D01*
X178231523Y-77005466D01*
X178199500Y-77207648D01*
X178199500Y-77412352D01*
X178230620Y-77608833D01*
X178231523Y-77614534D01*
X178294778Y-77809212D01*
X178294782Y-77809224D01*
X178387714Y-77991612D01*
X178508028Y-78157212D01*
X178508035Y-78157220D01*
X178652779Y-78301964D01*
X178652787Y-78301971D01*
X178818387Y-78422285D01*
X178818390Y-78422287D01*
X179000781Y-78515220D01*
X179195466Y-78578477D01*
X179397648Y-78610500D01*
X179397653Y-78610500D01*
X179602347Y-78610500D01*
X179602352Y-78610500D01*
X179804534Y-78578477D01*
X179999219Y-78515220D01*
X180181610Y-78422287D01*
X180347219Y-78301966D01*
X180491966Y-78157219D01*
X180612287Y-77991610D01*
X180705220Y-77809219D01*
X180768477Y-77614534D01*
X180768763Y-77612725D01*
X180769084Y-77612004D01*
X180769846Y-77608833D01*
X180770433Y-77608973D01*
X180800122Y-77542264D01*
X180862514Y-77496920D01*
X180939218Y-77488847D01*
X181009683Y-77520207D01*
X181021290Y-77530657D01*
X188205859Y-84715226D01*
X188244423Y-84782021D01*
X188249500Y-84820585D01*
X188249500Y-91466002D01*
X188278341Y-91610992D01*
X188334917Y-91747578D01*
X188334918Y-91747580D01*
X188367811Y-91796807D01*
X188367812Y-91796810D01*
X188417043Y-91870491D01*
X188417047Y-91870495D01*
X188417048Y-91870497D01*
X191819503Y-95272952D01*
X191874282Y-95309553D01*
X191942421Y-95355083D01*
X191968927Y-95366062D01*
X192079006Y-95411658D01*
X192224001Y-95440500D01*
X192224002Y-95440500D01*
X192300041Y-95440500D01*
X192374541Y-95460462D01*
X192420585Y-95501921D01*
X192469890Y-95569785D01*
X192469895Y-95569791D01*
X192469896Y-95569792D01*
X192620208Y-95720104D01*
X192698844Y-95777236D01*
X192784482Y-95839456D01*
X192799231Y-95857670D01*
X192817446Y-95872420D01*
X192823097Y-95887142D01*
X192833020Y-95899396D01*
X192836686Y-95922542D01*
X192845086Y-95944425D01*
X192842619Y-95960000D01*
X192845086Y-95975575D01*
X192836686Y-95997457D01*
X192833020Y-96020604D01*
X192823097Y-96032857D01*
X192817446Y-96047580D01*
X192784482Y-96080544D01*
X192618628Y-96201044D01*
X192546623Y-96228684D01*
X192531048Y-96229500D01*
X190671459Y-96229500D01*
X190574811Y-96248723D01*
X190574812Y-96248724D01*
X190478163Y-96267949D01*
X190478158Y-96267950D01*
X190424834Y-96290037D01*
X190424834Y-96290038D01*
X190394488Y-96302607D01*
X190296090Y-96343365D01*
X190296080Y-96343370D01*
X190132219Y-96452860D01*
X190132214Y-96452864D01*
X189992858Y-96592221D01*
X184369221Y-102215859D01*
X184302426Y-102254423D01*
X184263862Y-102259500D01*
X182183885Y-102259500D01*
X182109385Y-102239538D01*
X182096317Y-102231052D01*
X181981610Y-102147713D01*
X181895385Y-102103779D01*
X181799224Y-102054782D01*
X181799220Y-102054780D01*
X181799219Y-102054780D01*
X181604534Y-101991523D01*
X181402352Y-101959500D01*
X181197648Y-101959500D01*
X181029163Y-101986185D01*
X180995465Y-101991523D01*
X180800787Y-102054778D01*
X180800775Y-102054782D01*
X180618387Y-102147714D01*
X180452787Y-102268028D01*
X180452779Y-102268035D01*
X180308035Y-102412779D01*
X180308028Y-102412787D01*
X180187714Y-102578387D01*
X180094782Y-102760775D01*
X180094778Y-102760787D01*
X180072808Y-102828405D01*
X180031523Y-102955466D01*
X179999500Y-103157648D01*
X179999500Y-103362352D01*
X180031523Y-103564534D01*
X180075715Y-103700544D01*
X180094778Y-103759212D01*
X180094782Y-103759224D01*
X180187714Y-103941612D01*
X180308028Y-104107212D01*
X180308035Y-104107220D01*
X180456921Y-104256106D01*
X180455294Y-104257732D01*
X180492953Y-104312537D01*
X180498998Y-104389428D01*
X180465787Y-104459040D01*
X180402220Y-104502720D01*
X180396752Y-104504329D01*
X180257670Y-104556202D01*
X180257666Y-104556204D01*
X180142455Y-104642452D01*
X180142452Y-104642455D01*
X180056204Y-104757666D01*
X180056202Y-104757670D01*
X180005908Y-104892517D01*
X179999500Y-104952114D01*
X179999500Y-106647863D01*
X179999502Y-106647888D01*
X180005908Y-106707478D01*
X180005909Y-106707484D01*
X180056202Y-106842329D01*
X180056204Y-106842333D01*
X180142452Y-106957544D01*
X180142455Y-106957547D01*
X180257666Y-107043795D01*
X180257670Y-107043797D01*
X180392517Y-107094091D01*
X180452114Y-107100499D01*
X180452118Y-107100499D01*
X180452127Y-107100500D01*
X181123861Y-107100499D01*
X181198361Y-107120461D01*
X181229220Y-107144140D01*
X182455859Y-108370779D01*
X182494423Y-108437574D01*
X182499500Y-108476138D01*
X182499500Y-111405231D01*
X182479538Y-111479731D01*
X182455859Y-111510590D01*
X181355622Y-112610826D01*
X181288827Y-112649390D01*
X181211699Y-112649390D01*
X181182618Y-112638227D01*
X181181611Y-112637714D01*
X181181610Y-112637713D01*
X181104478Y-112598412D01*
X180999224Y-112544782D01*
X180999220Y-112544780D01*
X180999219Y-112544780D01*
X180804534Y-112481523D01*
X180602352Y-112449500D01*
X180397648Y-112449500D01*
X180229163Y-112476185D01*
X180195465Y-112481523D01*
X180000787Y-112544778D01*
X180000775Y-112544782D01*
X179818387Y-112637714D01*
X179652787Y-112758028D01*
X179652779Y-112758035D01*
X179508035Y-112902779D01*
X179508028Y-112902787D01*
X179387714Y-113068387D01*
X179294782Y-113250775D01*
X179294778Y-113250787D01*
X179231523Y-113445465D01*
X179225118Y-113485902D01*
X179199500Y-113647648D01*
X179199500Y-113852352D01*
X179231523Y-114054534D01*
X179292471Y-114242114D01*
X179294778Y-114249212D01*
X179294782Y-114249224D01*
X179387714Y-114431612D01*
X179508028Y-114597212D01*
X179508035Y-114597220D01*
X179652779Y-114741964D01*
X179652787Y-114741971D01*
X179818387Y-114862285D01*
X179818390Y-114862287D01*
X180000781Y-114955220D01*
X180195466Y-115018477D01*
X180397648Y-115050500D01*
X180397653Y-115050500D01*
X180602347Y-115050500D01*
X180602352Y-115050500D01*
X180804534Y-115018477D01*
X180999219Y-114955220D01*
X181181610Y-114862287D01*
X181296307Y-114778954D01*
X181368311Y-114751316D01*
X181383885Y-114750500D01*
X181729907Y-114750500D01*
X181729910Y-114750500D01*
X181729911Y-114750500D01*
X181826558Y-114731275D01*
X181923206Y-114712051D01*
X181976535Y-114689961D01*
X182105284Y-114636632D01*
X182269152Y-114527139D01*
X182408509Y-114387782D01*
X182408510Y-114387780D01*
X182416995Y-114379295D01*
X182417001Y-114379288D01*
X184129288Y-112667001D01*
X184129295Y-112666995D01*
X184137780Y-112658510D01*
X184137782Y-112658509D01*
X184277139Y-112519152D01*
X184386632Y-112355284D01*
X184450685Y-112200646D01*
X184462051Y-112173206D01*
X184492531Y-112019975D01*
X184500500Y-111979911D01*
X184500500Y-107901459D01*
X184491811Y-107857779D01*
X184479280Y-107794778D01*
X184462051Y-107708165D01*
X184454304Y-107689463D01*
X184414872Y-107594265D01*
X184386632Y-107526086D01*
X184277139Y-107362218D01*
X184137782Y-107222861D01*
X184134050Y-107219129D01*
X184134035Y-107219115D01*
X182644140Y-105729220D01*
X182605576Y-105662425D01*
X182600499Y-105623861D01*
X182600499Y-104952136D01*
X182600499Y-104952128D01*
X182594091Y-104892517D01*
X182563608Y-104810787D01*
X182543797Y-104757670D01*
X182543795Y-104757666D01*
X182457547Y-104642455D01*
X182457544Y-104642452D01*
X182342333Y-104556204D01*
X182342331Y-104556203D01*
X182323301Y-104549106D01*
X182260474Y-104504367D01*
X182228434Y-104434209D01*
X182235765Y-104357430D01*
X182280504Y-104294603D01*
X182350662Y-104262563D01*
X182375371Y-104260500D01*
X184838537Y-104260500D01*
X184838540Y-104260500D01*
X184838541Y-104260500D01*
X184935188Y-104241275D01*
X185031836Y-104222051D01*
X185085165Y-104199961D01*
X185213914Y-104146632D01*
X185377782Y-104037139D01*
X185517139Y-103897782D01*
X185517140Y-103897780D01*
X185525625Y-103889295D01*
X185525630Y-103889288D01*
X191140779Y-98274141D01*
X191207574Y-98235577D01*
X191246138Y-98230500D01*
X192531048Y-98230500D01*
X192538748Y-98232563D01*
X192546623Y-98231316D01*
X192575585Y-98242433D01*
X192605548Y-98250462D01*
X192618628Y-98258956D01*
X192784482Y-98379456D01*
X192833020Y-98439396D01*
X192845086Y-98515575D01*
X192817446Y-98587580D01*
X192784482Y-98620544D01*
X192620209Y-98739895D01*
X192620206Y-98739897D01*
X192469897Y-98890206D01*
X192469895Y-98890209D01*
X192344950Y-99062181D01*
X192344950Y-99062182D01*
X192248446Y-99251582D01*
X192248441Y-99251594D01*
X192182754Y-99453756D01*
X192178518Y-99480500D01*
X192149500Y-99663713D01*
X192149500Y-99876287D01*
X192182754Y-100086243D01*
X192248443Y-100288412D01*
X192334884Y-100458063D01*
X192344950Y-100477817D01*
X192344950Y-100477818D01*
X192361634Y-100500781D01*
X192469896Y-100649792D01*
X192620208Y-100800104D01*
X192698844Y-100857236D01*
X192784482Y-100919456D01*
X192833020Y-100979396D01*
X192845086Y-101055575D01*
X192817446Y-101127580D01*
X192784482Y-101160544D01*
X192620209Y-101279895D01*
X192620206Y-101279897D01*
X192469897Y-101430206D01*
X192469895Y-101430209D01*
X192344950Y-101602181D01*
X192344950Y-101602182D01*
X192248446Y-101791582D01*
X192248441Y-101791594D01*
X192183337Y-101991964D01*
X192182754Y-101993757D01*
X192149500Y-102203713D01*
X192149500Y-102416287D01*
X192182754Y-102626243D01*
X192248443Y-102828412D01*
X192313180Y-102955466D01*
X192344950Y-103017817D01*
X192344950Y-103017818D01*
X192354011Y-103030289D01*
X192469896Y-103189792D01*
X192620208Y-103340104D01*
X192694755Y-103394265D01*
X192784482Y-103459456D01*
X192833020Y-103519396D01*
X192845086Y-103595575D01*
X192817446Y-103667580D01*
X192784482Y-103700544D01*
X192620209Y-103819895D01*
X192620206Y-103819897D01*
X192469897Y-103970206D01*
X192469895Y-103970209D01*
X192344950Y-104142181D01*
X192344950Y-104142182D01*
X192248446Y-104331582D01*
X192248441Y-104331594D01*
X192182754Y-104533756D01*
X192182114Y-104537798D01*
X192149500Y-104743713D01*
X192149500Y-104956287D01*
X192182754Y-105166243D01*
X192248443Y-105368412D01*
X192344428Y-105556794D01*
X192344950Y-105557817D01*
X192344950Y-105557818D01*
X192392933Y-105623861D01*
X192469896Y-105729792D01*
X192620208Y-105880104D01*
X192792184Y-106005051D01*
X192981588Y-106101557D01*
X193183757Y-106167246D01*
X193393713Y-106200500D01*
X193393718Y-106200500D01*
X193606282Y-106200500D01*
X193606287Y-106200500D01*
X193816243Y-106167246D01*
X194018412Y-106101557D01*
X194207816Y-106005051D01*
X194379792Y-105880104D01*
X194530104Y-105729792D01*
X194655051Y-105557816D01*
X194751557Y-105368412D01*
X194817246Y-105166243D01*
X194850500Y-104956287D01*
X194850500Y-104743713D01*
X194817246Y-104533757D01*
X194751557Y-104331588D01*
X194655051Y-104142184D01*
X194530104Y-103970208D01*
X194379792Y-103819896D01*
X194215517Y-103700544D01*
X194166979Y-103640604D01*
X194154913Y-103564426D01*
X194182553Y-103492420D01*
X194215517Y-103459456D01*
X194222519Y-103454368D01*
X194379792Y-103340104D01*
X194530104Y-103189792D01*
X194655051Y-103017816D01*
X194751557Y-102828412D01*
X194817246Y-102626243D01*
X194850500Y-102416287D01*
X194850500Y-102203713D01*
X194817246Y-101993757D01*
X194751557Y-101791588D01*
X194655051Y-101602184D01*
X194530104Y-101430208D01*
X194379792Y-101279896D01*
X194215517Y-101160544D01*
X194166979Y-101100604D01*
X194154913Y-101024426D01*
X194182553Y-100952420D01*
X194215517Y-100919456D01*
X194222519Y-100914368D01*
X194379792Y-100800104D01*
X194530104Y-100649792D01*
X194655051Y-100477816D01*
X194751557Y-100288412D01*
X194817246Y-100086243D01*
X194850500Y-99876287D01*
X194850500Y-99663713D01*
X194817246Y-99453757D01*
X194751557Y-99251588D01*
X194655051Y-99062184D01*
X194530104Y-98890208D01*
X194379792Y-98739896D01*
X194215517Y-98620544D01*
X194166979Y-98560604D01*
X194154913Y-98484426D01*
X194182553Y-98412420D01*
X194215517Y-98379456D01*
X194226316Y-98371610D01*
X194379792Y-98260104D01*
X194530104Y-98109792D01*
X194655051Y-97937816D01*
X194751557Y-97748412D01*
X194817246Y-97546243D01*
X194850500Y-97336287D01*
X194850500Y-97123713D01*
X194817246Y-96913757D01*
X194751557Y-96711588D01*
X194655051Y-96522184D01*
X194530104Y-96350208D01*
X194379792Y-96199896D01*
X194215517Y-96080544D01*
X194166979Y-96020604D01*
X194154913Y-95944426D01*
X194182553Y-95872420D01*
X194215517Y-95839456D01*
X194222519Y-95834368D01*
X194379792Y-95720104D01*
X194530104Y-95569792D01*
X194655051Y-95397816D01*
X194751557Y-95208412D01*
X194817246Y-95006243D01*
X194850500Y-94796287D01*
X194850500Y-94583713D01*
X194817246Y-94373757D01*
X194751557Y-94171588D01*
X194655051Y-93982184D01*
X194530104Y-93810208D01*
X194379792Y-93659896D01*
X194207816Y-93534949D01*
X194018412Y-93438443D01*
X193816243Y-93372754D01*
X193606287Y-93339500D01*
X193393713Y-93339500D01*
X193249843Y-93362287D01*
X193183756Y-93372754D01*
X193107129Y-93397652D01*
X192981588Y-93438443D01*
X192981582Y-93438445D01*
X192981582Y-93438446D01*
X192792182Y-93534950D01*
X192792181Y-93534950D01*
X192620209Y-93659895D01*
X192620205Y-93659898D01*
X192580053Y-93700050D01*
X192513257Y-93738613D01*
X192436129Y-93738613D01*
X192369336Y-93700049D01*
X189794141Y-91124854D01*
X189755577Y-91058059D01*
X189750500Y-91019495D01*
X189750500Y-84374086D01*
X189750499Y-84374078D01*
X189737909Y-84310787D01*
X189721658Y-84229087D01*
X189665084Y-84092505D01*
X189665083Y-84092502D01*
X189615759Y-84018685D01*
X189582951Y-83969584D01*
X189478416Y-83865049D01*
X177630416Y-72017048D01*
X177630415Y-72017047D01*
X177630410Y-72017043D01*
X177556729Y-71967812D01*
X177556728Y-71967812D01*
X177507497Y-71934917D01*
X177507495Y-71934916D01*
X177370913Y-71878342D01*
X177370911Y-71878341D01*
X177370912Y-71878341D01*
X177225921Y-71849500D01*
X177225918Y-71849500D01*
X160638156Y-71849500D01*
X160563656Y-71829538D01*
X160517612Y-71788080D01*
X160491966Y-71752781D01*
X160347219Y-71608034D01*
X160347218Y-71608033D01*
X160347212Y-71608028D01*
X160181612Y-71487714D01*
X159999224Y-71394782D01*
X159999220Y-71394780D01*
X159999219Y-71394780D01*
X159804534Y-71331523D01*
X159602352Y-71299500D01*
X159397648Y-71299500D01*
X159276055Y-71318758D01*
X159195469Y-71331522D01*
X159048319Y-71379334D01*
X158971296Y-71383370D01*
X158902575Y-71348354D01*
X158860568Y-71283669D01*
X158856532Y-71206646D01*
X158891548Y-71137925D01*
X158896918Y-71132267D01*
X158991958Y-71037227D01*
X158991966Y-71037219D01*
X159112287Y-70871610D01*
X159205220Y-70689219D01*
X159268477Y-70494534D01*
X159300500Y-70292352D01*
X159300500Y-70087648D01*
X160199500Y-70087648D01*
X160199500Y-70292352D01*
X160231523Y-70494534D01*
X160292423Y-70681966D01*
X160294778Y-70689212D01*
X160294782Y-70689224D01*
X160387714Y-70871612D01*
X160508028Y-71037212D01*
X160508035Y-71037220D01*
X160652779Y-71181964D01*
X160652787Y-71181971D01*
X160793345Y-71284091D01*
X160818390Y-71302287D01*
X160969603Y-71379334D01*
X160999913Y-71394778D01*
X161000781Y-71395220D01*
X161195466Y-71458477D01*
X161397648Y-71490500D01*
X161397653Y-71490500D01*
X161602347Y-71490500D01*
X161602352Y-71490500D01*
X161804534Y-71458477D01*
X161999219Y-71395220D01*
X162181610Y-71302287D01*
X162347219Y-71181966D01*
X162491966Y-71037219D01*
X162612287Y-70871610D01*
X162705220Y-70689219D01*
X162768477Y-70494534D01*
X162800500Y-70292352D01*
X162800500Y-70087648D01*
X163699500Y-70087648D01*
X163699500Y-70292352D01*
X163731523Y-70494534D01*
X163792423Y-70681966D01*
X163794778Y-70689212D01*
X163794782Y-70689224D01*
X163887714Y-70871612D01*
X164008028Y-71037212D01*
X164008035Y-71037220D01*
X164152779Y-71181964D01*
X164152787Y-71181971D01*
X164293345Y-71284091D01*
X164318390Y-71302287D01*
X164469603Y-71379334D01*
X164499913Y-71394778D01*
X164500781Y-71395220D01*
X164695466Y-71458477D01*
X164897648Y-71490500D01*
X164897653Y-71490500D01*
X165102347Y-71490500D01*
X165102352Y-71490500D01*
X165304534Y-71458477D01*
X165499219Y-71395220D01*
X165681610Y-71302287D01*
X165847219Y-71181966D01*
X165991966Y-71037219D01*
X166112287Y-70871610D01*
X166205220Y-70689219D01*
X166268477Y-70494534D01*
X166300500Y-70292352D01*
X166300500Y-70087648D01*
X166268477Y-69885466D01*
X166205220Y-69690781D01*
X166112287Y-69508390D01*
X166055544Y-69430289D01*
X165991971Y-69342787D01*
X165991964Y-69342779D01*
X165847220Y-69198035D01*
X165847212Y-69198028D01*
X165681612Y-69077714D01*
X165499224Y-68984782D01*
X165499220Y-68984780D01*
X165499219Y-68984780D01*
X165304534Y-68921523D01*
X165102352Y-68889500D01*
X164897648Y-68889500D01*
X164729163Y-68916185D01*
X164695465Y-68921523D01*
X164500787Y-68984778D01*
X164500775Y-68984782D01*
X164318387Y-69077714D01*
X164152787Y-69198028D01*
X164152779Y-69198035D01*
X164008035Y-69342779D01*
X164008028Y-69342787D01*
X163887714Y-69508387D01*
X163794782Y-69690775D01*
X163794778Y-69690787D01*
X163753011Y-69819334D01*
X163731523Y-69885466D01*
X163699500Y-70087648D01*
X162800500Y-70087648D01*
X162768477Y-69885466D01*
X162705220Y-69690781D01*
X162612287Y-69508390D01*
X162555544Y-69430289D01*
X162491971Y-69342787D01*
X162491964Y-69342779D01*
X162347220Y-69198035D01*
X162347212Y-69198028D01*
X162181612Y-69077714D01*
X161999224Y-68984782D01*
X161999220Y-68984780D01*
X161999219Y-68984780D01*
X161804534Y-68921523D01*
X161602352Y-68889500D01*
X161397648Y-68889500D01*
X161229163Y-68916185D01*
X161195465Y-68921523D01*
X161000787Y-68984778D01*
X161000775Y-68984782D01*
X160818387Y-69077714D01*
X160652787Y-69198028D01*
X160652779Y-69198035D01*
X160508035Y-69342779D01*
X160508028Y-69342787D01*
X160387714Y-69508387D01*
X160294782Y-69690775D01*
X160294778Y-69690787D01*
X160253011Y-69819334D01*
X160231523Y-69885466D01*
X160199500Y-70087648D01*
X159300500Y-70087648D01*
X159268477Y-69885466D01*
X159205220Y-69690781D01*
X159112287Y-69508390D01*
X159055544Y-69430289D01*
X158991971Y-69342787D01*
X158991964Y-69342779D01*
X158847220Y-69198035D01*
X158847212Y-69198028D01*
X158681612Y-69077714D01*
X158499224Y-68984782D01*
X158499220Y-68984780D01*
X158499219Y-68984780D01*
X158304534Y-68921523D01*
X158102352Y-68889500D01*
X157897648Y-68889500D01*
X157729163Y-68916185D01*
X157695465Y-68921523D01*
X157500787Y-68984778D01*
X157500775Y-68984782D01*
X157318387Y-69077714D01*
X157152787Y-69198028D01*
X157152779Y-69198035D01*
X157008035Y-69342779D01*
X157008028Y-69342787D01*
X156887714Y-69508387D01*
X156794782Y-69690775D01*
X156794778Y-69690787D01*
X156753011Y-69819334D01*
X156731523Y-69885466D01*
X156699500Y-70087648D01*
X143123718Y-70087648D01*
X143242711Y-69968655D01*
X143334814Y-69819334D01*
X143389999Y-69652797D01*
X143400500Y-69550008D01*
X143400500Y-68542114D01*
X173899500Y-68542114D01*
X173899500Y-70837863D01*
X173899502Y-70837888D01*
X173905908Y-70897478D01*
X173905909Y-70897484D01*
X173956202Y-71032329D01*
X173956204Y-71032333D01*
X174042452Y-71147544D01*
X174042455Y-71147547D01*
X174157666Y-71233795D01*
X174157670Y-71233797D01*
X174292517Y-71284091D01*
X174352114Y-71290499D01*
X174352118Y-71290499D01*
X174352127Y-71290500D01*
X176647872Y-71290499D01*
X176707483Y-71284091D01*
X176803447Y-71248298D01*
X176842329Y-71233797D01*
X176842333Y-71233795D01*
X176911567Y-71181966D01*
X176957546Y-71147546D01*
X177000671Y-71089938D01*
X177043795Y-71032333D01*
X177043797Y-71032329D01*
X177079435Y-70936778D01*
X177094091Y-70897483D01*
X177099847Y-70843946D01*
X177100499Y-70837885D01*
X177100499Y-70837882D01*
X177100500Y-70837873D01*
X177100499Y-69587648D01*
X178199500Y-69587648D01*
X178199500Y-69792352D01*
X178231523Y-69994534D01*
X178284003Y-70156052D01*
X178294778Y-70189212D01*
X178294782Y-70189224D01*
X178387714Y-70371612D01*
X178508028Y-70537212D01*
X178508035Y-70537220D01*
X178652779Y-70681964D01*
X178652787Y-70681971D01*
X178818387Y-70802285D01*
X178818390Y-70802287D01*
X179000781Y-70895220D01*
X179195466Y-70958477D01*
X179397648Y-70990500D01*
X179397653Y-70990500D01*
X179602347Y-70990500D01*
X179602352Y-70990500D01*
X179804534Y-70958477D01*
X179999219Y-70895220D01*
X180181610Y-70802287D01*
X180347219Y-70681966D01*
X180491966Y-70537219D01*
X180612287Y-70371610D01*
X180705220Y-70189219D01*
X180768477Y-69994534D01*
X180800500Y-69792352D01*
X180800500Y-69587648D01*
X180768477Y-69385466D01*
X180705220Y-69190781D01*
X180612287Y-69008390D01*
X180595135Y-68984782D01*
X180491971Y-68842787D01*
X180491964Y-68842779D01*
X180347220Y-68698035D01*
X180347212Y-68698028D01*
X180181612Y-68577714D01*
X179999224Y-68484782D01*
X179999220Y-68484780D01*
X179999219Y-68484780D01*
X179804534Y-68421523D01*
X179602352Y-68389500D01*
X179397648Y-68389500D01*
X179229163Y-68416185D01*
X179195465Y-68421523D01*
X179000787Y-68484778D01*
X179000775Y-68484782D01*
X178818387Y-68577714D01*
X178652787Y-68698028D01*
X178652779Y-68698035D01*
X178508035Y-68842779D01*
X178508028Y-68842787D01*
X178387714Y-69008387D01*
X178294782Y-69190775D01*
X178294780Y-69190781D01*
X178231523Y-69385466D01*
X178199500Y-69587648D01*
X177100499Y-69587648D01*
X177100499Y-68542128D01*
X177094091Y-68482517D01*
X177059398Y-68389500D01*
X177043797Y-68347670D01*
X177043795Y-68347666D01*
X176957547Y-68232455D01*
X176957544Y-68232452D01*
X176842333Y-68146204D01*
X176842329Y-68146202D01*
X176707482Y-68095908D01*
X176647876Y-68089500D01*
X174352136Y-68089500D01*
X174352111Y-68089502D01*
X174292521Y-68095908D01*
X174292515Y-68095909D01*
X174157670Y-68146202D01*
X174157666Y-68146204D01*
X174042455Y-68232452D01*
X174042452Y-68232455D01*
X173956204Y-68347666D01*
X173956202Y-68347670D01*
X173905908Y-68482517D01*
X173899500Y-68542114D01*
X143400500Y-68542114D01*
X143400500Y-67249992D01*
X143389999Y-67147203D01*
X143334814Y-66980666D01*
X143242711Y-66831345D01*
X143118655Y-66707289D01*
X143096718Y-66693758D01*
X142969336Y-66615187D01*
X142969335Y-66615186D01*
X142969334Y-66615186D01*
X142858850Y-66578575D01*
X142802798Y-66560001D01*
X142802799Y-66560001D01*
X142768534Y-66556500D01*
X142700008Y-66549500D01*
X139799992Y-66549500D01*
X139731466Y-66556500D01*
X139697201Y-66560001D01*
X139530663Y-66615187D01*
X139381344Y-66707289D01*
X139257289Y-66831344D01*
X139165187Y-66980663D01*
X139110001Y-67147201D01*
X139110001Y-67147203D01*
X139099500Y-67249992D01*
X137500073Y-67249992D01*
X137444265Y-67177262D01*
X137272738Y-67005735D01*
X137080289Y-66858064D01*
X137010263Y-66817634D01*
X136870216Y-66736778D01*
X136870214Y-66736777D01*
X136870212Y-66736776D01*
X136669190Y-66653510D01*
X136646103Y-66643947D01*
X136646101Y-66643946D01*
X136646100Y-66643946D01*
X136411789Y-66581162D01*
X136411787Y-66581161D01*
X136411781Y-66581160D01*
X136171293Y-66549500D01*
X136171288Y-66549500D01*
X135328712Y-66549500D01*
X135328706Y-66549500D01*
X135088218Y-66581160D01*
X134853896Y-66643947D01*
X134629783Y-66736778D01*
X134419712Y-66858063D01*
X134419711Y-66858064D01*
X134227262Y-67005735D01*
X134227260Y-67005736D01*
X134227256Y-67005740D01*
X134055740Y-67177256D01*
X134055736Y-67177260D01*
X134055735Y-67177262D01*
X133962714Y-67298488D01*
X133908063Y-67369712D01*
X133786778Y-67579783D01*
X133693947Y-67803896D01*
X133631160Y-68038218D01*
X133599500Y-68278706D01*
X126505500Y-68278706D01*
X126505500Y-64154500D01*
X126525462Y-64080000D01*
X126580000Y-64025462D01*
X126654500Y-64005500D01*
X138248643Y-64005500D01*
X138302649Y-64002605D01*
X138302678Y-64002603D01*
X138329020Y-63999771D01*
X138329026Y-63999770D01*
X138329036Y-63999769D01*
X138337856Y-63998339D01*
X138382440Y-63991116D01*
X138382443Y-63991114D01*
X138382448Y-63991114D01*
X138517257Y-63940832D01*
X138578580Y-63907347D01*
X138693761Y-63821123D01*
X139321123Y-63193761D01*
X139357288Y-63153500D01*
X139373922Y-63132858D01*
X139405567Y-63088974D01*
X139465338Y-62958097D01*
X139485023Y-62891058D01*
X139485024Y-62891054D01*
X139485025Y-62891048D01*
X139485026Y-62891044D01*
X139505498Y-62748652D01*
X139505500Y-62748634D01*
X139505500Y-60388537D01*
X155459500Y-60388537D01*
X155459500Y-60611462D01*
X155488593Y-60832447D01*
X155488596Y-60832464D01*
X155546288Y-61047777D01*
X155546288Y-61047778D01*
X155631598Y-61253733D01*
X155743049Y-61446770D01*
X155743051Y-61446773D01*
X155743052Y-61446774D01*
X155878753Y-61623624D01*
X156036376Y-61781247D01*
X156213226Y-61916948D01*
X156213229Y-61916950D01*
X156406266Y-62028401D01*
X156406269Y-62028402D01*
X156406274Y-62028405D01*
X156571030Y-62096649D01*
X156612221Y-62113711D01*
X156719878Y-62142557D01*
X156827537Y-62171404D01*
X157048543Y-62200500D01*
X157271457Y-62200500D01*
X157492463Y-62171404D01*
X157707777Y-62113711D01*
X157707778Y-62113711D01*
X157707779Y-62113710D01*
X157707781Y-62113710D01*
X157913726Y-62028405D01*
X158106774Y-61916948D01*
X158283624Y-61781247D01*
X158441247Y-61623624D01*
X158576948Y-61446774D01*
X158688405Y-61253726D01*
X158773710Y-61047781D01*
X158831404Y-60832463D01*
X158860500Y-60611457D01*
X158860500Y-60388543D01*
X158831404Y-60167537D01*
X158773710Y-59952219D01*
X158688405Y-59746274D01*
X158688402Y-59746269D01*
X158688401Y-59746266D01*
X158576950Y-59553229D01*
X158576948Y-59553226D01*
X158441247Y-59376376D01*
X158283624Y-59218753D01*
X158106774Y-59083052D01*
X158106773Y-59083051D01*
X158106770Y-59083049D01*
X157913733Y-58971598D01*
X157707778Y-58886288D01*
X157492464Y-58828596D01*
X157492447Y-58828593D01*
X157271462Y-58799500D01*
X157271457Y-58799500D01*
X157048543Y-58799500D01*
X157048537Y-58799500D01*
X156827552Y-58828593D01*
X156827535Y-58828596D01*
X156612222Y-58886288D01*
X156612221Y-58886288D01*
X156406266Y-58971598D01*
X156213229Y-59083049D01*
X156036374Y-59218754D01*
X155878754Y-59376374D01*
X155743049Y-59553229D01*
X155631598Y-59746266D01*
X155546288Y-59952221D01*
X155546288Y-59952222D01*
X155488596Y-60167535D01*
X155488593Y-60167552D01*
X155459500Y-60388537D01*
X139505500Y-60388537D01*
X139505500Y-59251356D01*
X139502605Y-59197350D01*
X139502603Y-59197321D01*
X139499771Y-59170979D01*
X139499764Y-59170933D01*
X139491116Y-59117559D01*
X139491114Y-59117554D01*
X139491114Y-59117552D01*
X139440832Y-58982743D01*
X139407347Y-58921420D01*
X139340482Y-58832099D01*
X139321125Y-58806241D01*
X138974498Y-58459614D01*
X159769500Y-58459614D01*
X159769500Y-60460363D01*
X159769502Y-60460388D01*
X159775908Y-60519978D01*
X159775909Y-60519984D01*
X159826202Y-60654829D01*
X159826204Y-60654833D01*
X159912452Y-60770044D01*
X159912455Y-60770047D01*
X160027666Y-60856295D01*
X160037023Y-60861404D01*
X160036016Y-60863246D01*
X160087530Y-60899923D01*
X160119575Y-60970079D01*
X160112249Y-61046858D01*
X160093184Y-61082378D01*
X159979784Y-61238459D01*
X159979784Y-61238460D01*
X159875955Y-61442236D01*
X159875948Y-61442251D01*
X159805278Y-61659752D01*
X159805278Y-61659755D01*
X159769500Y-61885646D01*
X159769500Y-62114354D01*
X159785894Y-62217860D01*
X159805278Y-62340247D01*
X159875948Y-62557748D01*
X159875950Y-62557753D01*
X159875952Y-62557758D01*
X159973217Y-62748652D01*
X159979784Y-62761539D01*
X159979785Y-62761542D01*
X160093510Y-62918070D01*
X160114214Y-62946566D01*
X160275934Y-63108286D01*
X160275937Y-63108288D01*
X160460957Y-63242714D01*
X160460958Y-63242714D01*
X160460962Y-63242717D01*
X160664742Y-63346548D01*
X160882255Y-63417222D01*
X161108146Y-63453000D01*
X161108151Y-63453000D01*
X161431849Y-63453000D01*
X161431854Y-63453000D01*
X161657745Y-63417222D01*
X161875258Y-63346548D01*
X162079038Y-63242717D01*
X162264066Y-63108286D01*
X162425786Y-62946566D01*
X162560217Y-62761538D01*
X162664048Y-62557758D01*
X162734722Y-62340245D01*
X162770500Y-62114354D01*
X162770500Y-61885646D01*
X162734722Y-61659755D01*
X162664048Y-61442242D01*
X162560217Y-61238462D01*
X162560214Y-61238458D01*
X162560214Y-61238457D01*
X162493797Y-61147043D01*
X162446814Y-61082376D01*
X162419174Y-61010374D01*
X162431239Y-60934195D01*
X162479777Y-60874255D01*
X162503145Y-60861713D01*
X162502977Y-60861404D01*
X162512333Y-60856295D01*
X162569938Y-60813171D01*
X162627546Y-60770046D01*
X162713796Y-60654831D01*
X162764091Y-60519983D01*
X162765823Y-60503870D01*
X162770499Y-60460385D01*
X162770499Y-60460382D01*
X162770500Y-60460373D01*
X162770499Y-58459628D01*
X162764091Y-58400017D01*
X162749588Y-58361133D01*
X162713797Y-58265170D01*
X162713795Y-58265166D01*
X162627547Y-58149955D01*
X162627544Y-58149952D01*
X162512333Y-58063704D01*
X162512329Y-58063702D01*
X162377482Y-58013408D01*
X162317876Y-58007000D01*
X160222136Y-58007000D01*
X160222111Y-58007002D01*
X160162521Y-58013408D01*
X160162515Y-58013409D01*
X160027670Y-58063702D01*
X160027666Y-58063704D01*
X159912455Y-58149952D01*
X159912452Y-58149955D01*
X159826204Y-58265166D01*
X159826202Y-58265170D01*
X159775908Y-58400017D01*
X159769500Y-58459614D01*
X138974498Y-58459614D01*
X138693760Y-58178876D01*
X138653510Y-58142721D01*
X138653500Y-58142712D01*
X138632858Y-58126078D01*
X138632859Y-58126078D01*
X138610916Y-58110255D01*
X138588974Y-58094433D01*
X138458097Y-58034662D01*
X138458094Y-58034661D01*
X138458085Y-58034658D01*
X138391061Y-58014977D01*
X138391048Y-58014974D01*
X138391044Y-58014973D01*
X138248652Y-57994501D01*
X138248640Y-57994500D01*
X138248638Y-57994500D01*
X119537686Y-57994500D01*
X119537665Y-57994500D01*
X119519655Y-57994820D01*
X119510784Y-57995137D01*
X119492783Y-57996103D01*
X119492778Y-57996103D01*
X119492777Y-57996104D01*
X119457537Y-58003769D01*
X119352190Y-58026686D01*
X119286716Y-58051106D01*
X119160450Y-58120053D01*
X119160445Y-58120057D01*
X119058708Y-58221790D01*
X119058707Y-58221791D01*
X119016833Y-58277727D01*
X119016831Y-58277729D01*
X118947874Y-58404015D01*
X118917293Y-58544602D01*
X118917290Y-58544623D01*
X118912308Y-58614292D01*
X118912308Y-58614304D01*
X118922571Y-58757806D01*
X118922571Y-58757808D01*
X118922572Y-58757810D01*
X118940636Y-58806241D01*
X118972852Y-58892614D01*
X118972853Y-58892617D01*
X119006336Y-58953937D01*
X119006341Y-58953945D01*
X119092560Y-59069120D01*
X119105368Y-59081928D01*
X119115177Y-59092750D01*
X119283240Y-59297534D01*
X119291942Y-59309269D01*
X119365528Y-59419399D01*
X119421993Y-59503905D01*
X119439115Y-59529529D01*
X119446632Y-59542071D01*
X119571498Y-59775680D01*
X119577750Y-59788898D01*
X119679121Y-60033629D01*
X119684047Y-60047396D01*
X119760946Y-60300896D01*
X119764499Y-60315081D01*
X119816170Y-60574856D01*
X119818315Y-60589319D01*
X119844282Y-60852955D01*
X119845000Y-60867560D01*
X119845000Y-61132438D01*
X119844282Y-61147043D01*
X119818316Y-61410668D01*
X119816171Y-61425130D01*
X119816171Y-61425131D01*
X119786506Y-61574271D01*
X119786501Y-61574297D01*
X119764498Y-61684920D01*
X119760945Y-61699106D01*
X119684047Y-61952602D01*
X119679121Y-61966369D01*
X119577750Y-62211100D01*
X119571498Y-62224318D01*
X119446632Y-62457927D01*
X119439115Y-62470469D01*
X119291946Y-62690723D01*
X119283235Y-62702468D01*
X119115186Y-62907236D01*
X119105367Y-62918070D01*
X118918070Y-63105367D01*
X118907236Y-63115186D01*
X118702468Y-63283235D01*
X118690723Y-63291946D01*
X118470469Y-63439115D01*
X118457927Y-63446632D01*
X118224318Y-63571498D01*
X118211100Y-63577750D01*
X117966369Y-63679121D01*
X117952602Y-63684047D01*
X117699106Y-63760945D01*
X117684920Y-63764498D01*
X117574297Y-63786501D01*
X117574270Y-63786505D01*
X117574271Y-63786506D01*
X117425131Y-63816171D01*
X117410668Y-63818316D01*
X117147045Y-63844282D01*
X117132440Y-63845000D01*
X116867562Y-63845000D01*
X116852957Y-63844282D01*
X116589319Y-63818315D01*
X116574856Y-63816170D01*
X116315081Y-63764499D01*
X116300896Y-63760946D01*
X116047396Y-63684047D01*
X116033629Y-63679121D01*
X115788898Y-63577750D01*
X115775680Y-63571498D01*
X115542071Y-63446632D01*
X115529529Y-63439115D01*
X115496762Y-63417221D01*
X115309275Y-63291946D01*
X115297530Y-63283236D01*
X115092768Y-63115192D01*
X115081934Y-63105372D01*
X114894635Y-62918074D01*
X114884815Y-62907240D01*
X114716750Y-62702452D01*
X114708047Y-62690717D01*
X114647408Y-62599963D01*
X114606159Y-62546371D01*
X114606156Y-62546367D01*
X114584267Y-62521558D01*
X114584263Y-62521553D01*
X114536235Y-62473952D01*
X114536233Y-62473950D01*
X114415198Y-62396167D01*
X114415195Y-62396165D01*
X114415191Y-62396163D01*
X114415180Y-62396157D01*
X114352251Y-62367419D01*
X114351651Y-62367142D01*
X114213586Y-62326605D01*
X114213583Y-62326604D01*
X114213578Y-62326604D01*
X114069705Y-62326604D01*
X114069693Y-62326605D01*
X114000543Y-62336548D01*
X114000539Y-62336549D01*
X113862499Y-62377082D01*
X113862490Y-62377086D01*
X113741461Y-62454868D01*
X113741456Y-62454872D01*
X113688653Y-62500626D01*
X113688651Y-62500628D01*
X113594431Y-62609362D01*
X113534663Y-62740235D01*
X113534658Y-62740249D01*
X113514977Y-62807273D01*
X113514974Y-62807286D01*
X113514973Y-62807290D01*
X113494501Y-62949682D01*
X113494500Y-62949700D01*
X112250500Y-62949700D01*
X112250500Y-59503905D01*
X112250704Y-59496107D01*
X112260496Y-59309269D01*
X112267892Y-59168130D01*
X112269522Y-59152624D01*
X112296429Y-58982743D01*
X112320288Y-58832095D01*
X112323531Y-58816844D01*
X112326373Y-58806239D01*
X112407523Y-58503382D01*
X112412339Y-58488563D01*
X112528639Y-58185592D01*
X112534982Y-58171345D01*
X112545881Y-58149955D01*
X112682313Y-57882191D01*
X112690090Y-57868720D01*
X112866853Y-57596530D01*
X112875999Y-57583939D01*
X113080246Y-57331716D01*
X113090664Y-57320146D01*
X113320146Y-57090664D01*
X113331716Y-57080246D01*
X113583939Y-56875999D01*
X113596530Y-56866853D01*
X113868720Y-56690090D01*
X113882191Y-56682313D01*
X114171350Y-56534979D01*
X114185592Y-56528639D01*
X114488563Y-56412339D01*
X114503382Y-56407523D01*
X114816848Y-56323530D01*
X114832095Y-56320288D01*
X115152629Y-56269521D01*
X115168130Y-56267892D01*
X115496107Y-56250703D01*
X115503905Y-56250500D01*
X115544170Y-56250500D01*
X165484461Y-56250500D01*
X165558961Y-56270462D01*
G37*
G04 #@! TD.AperFunction*
G04 #@! TA.AperFunction,Conductor*
G36*
X138315677Y-58519685D02*
G01*
X138336319Y-58536319D01*
X138963681Y-59163681D01*
X138997166Y-59225004D01*
X139000000Y-59251362D01*
X139000000Y-62748638D01*
X138980315Y-62815677D01*
X138963681Y-62836319D01*
X138336319Y-63463681D01*
X138274996Y-63497166D01*
X138248638Y-63500000D01*
X126000000Y-63500000D01*
X126000000Y-96748638D01*
X125980315Y-96815677D01*
X125963681Y-96836319D01*
X125336319Y-97463681D01*
X125274996Y-97497166D01*
X125248638Y-97500000D01*
X114751362Y-97500000D01*
X114684323Y-97480315D01*
X114663681Y-97463681D01*
X114036319Y-96836319D01*
X114002834Y-96774996D01*
X114000000Y-96748638D01*
X114000000Y-62949697D01*
X114019685Y-62882658D01*
X114072489Y-62836903D01*
X114141647Y-62826959D01*
X114205203Y-62855984D01*
X114227099Y-62880802D01*
X114273133Y-62949697D01*
X114305604Y-62998294D01*
X114305611Y-62998303D01*
X114514453Y-63252777D01*
X114747222Y-63485546D01*
X114747227Y-63485550D01*
X114747228Y-63485551D01*
X115001702Y-63694393D01*
X115275421Y-63877286D01*
X115565749Y-64032469D01*
X115869889Y-64158448D01*
X116184913Y-64254010D01*
X116184919Y-64254011D01*
X116184922Y-64254012D01*
X116184933Y-64254015D01*
X116365361Y-64289903D01*
X116507787Y-64318233D01*
X116835400Y-64350500D01*
X116835403Y-64350500D01*
X117164597Y-64350500D01*
X117164600Y-64350500D01*
X117492213Y-64318233D01*
X117669760Y-64282916D01*
X117815066Y-64254015D01*
X117815077Y-64254012D01*
X117815077Y-64254011D01*
X117815087Y-64254010D01*
X118130111Y-64158448D01*
X118434251Y-64032469D01*
X118724579Y-63877286D01*
X118998298Y-63694393D01*
X119252772Y-63485551D01*
X119485551Y-63252772D01*
X119694393Y-62998298D01*
X119877286Y-62724579D01*
X120032469Y-62434251D01*
X120158448Y-62130111D01*
X120254010Y-61815087D01*
X120254012Y-61815077D01*
X120254015Y-61815066D01*
X120282916Y-61669760D01*
X120318233Y-61492213D01*
X120350500Y-61164600D01*
X120350500Y-60835400D01*
X120318233Y-60507787D01*
X120289903Y-60365361D01*
X120254015Y-60184933D01*
X120254012Y-60184922D01*
X120254011Y-60184919D01*
X120254010Y-60184913D01*
X120158448Y-59869889D01*
X120032469Y-59565749D01*
X119877286Y-59275421D01*
X119694393Y-59001702D01*
X119485551Y-58747228D01*
X119485550Y-58747227D01*
X119485546Y-58747222D01*
X119450005Y-58711681D01*
X119416520Y-58650358D01*
X119421504Y-58580666D01*
X119463376Y-58524733D01*
X119528840Y-58500316D01*
X119537686Y-58500000D01*
X138248638Y-58500000D01*
X138315677Y-58519685D01*
G37*
G04 #@! TD.AperFunction*
G04 #@! TA.AperFunction,Conductor*
G36*
X125315677Y-99519685D02*
G01*
X125336319Y-99536319D01*
X125963681Y-100163681D01*
X125997166Y-100225004D01*
X126000000Y-100251362D01*
X126000000Y-120000000D01*
X137248638Y-120000000D01*
X137315677Y-120019685D01*
X137336319Y-120036319D01*
X137963681Y-120663681D01*
X137997166Y-120725004D01*
X138000000Y-120751362D01*
X138000000Y-137748638D01*
X137980315Y-137815677D01*
X137963681Y-137836319D01*
X137336319Y-138463681D01*
X137274996Y-138497166D01*
X137248638Y-138500000D01*
X119537686Y-138500000D01*
X119470647Y-138480315D01*
X119424892Y-138427511D01*
X119414948Y-138358353D01*
X119443973Y-138294797D01*
X119450005Y-138288319D01*
X119485546Y-138252777D01*
X119485551Y-138252772D01*
X119694393Y-137998298D01*
X119877286Y-137724579D01*
X120032469Y-137434251D01*
X120158448Y-137130111D01*
X120254010Y-136815087D01*
X120254012Y-136815077D01*
X120254015Y-136815066D01*
X120282916Y-136669760D01*
X120318233Y-136492213D01*
X120350500Y-136164600D01*
X120350500Y-135835400D01*
X120318233Y-135507787D01*
X120289903Y-135365361D01*
X120254015Y-135184933D01*
X120254012Y-135184922D01*
X120254011Y-135184919D01*
X120254010Y-135184913D01*
X120158448Y-134869889D01*
X120032469Y-134565749D01*
X119877286Y-134275421D01*
X119694393Y-134001702D01*
X119485551Y-133747228D01*
X119485550Y-133747227D01*
X119485546Y-133747222D01*
X119252777Y-133514453D01*
X118998303Y-133305611D01*
X118998302Y-133305610D01*
X118998298Y-133305607D01*
X118724579Y-133122714D01*
X118724574Y-133122711D01*
X118724567Y-133122707D01*
X118434258Y-132967535D01*
X118434251Y-132967531D01*
X118434244Y-132967528D01*
X118130112Y-132841552D01*
X117815077Y-132745987D01*
X117815066Y-132745984D01*
X117492218Y-132681768D01*
X117492213Y-132681767D01*
X117492211Y-132681766D01*
X117492201Y-132681765D01*
X117251522Y-132658061D01*
X117164600Y-132649500D01*
X116835400Y-132649500D01*
X116755540Y-132657365D01*
X116507798Y-132681765D01*
X116507781Y-132681768D01*
X116184933Y-132745984D01*
X116184922Y-132745987D01*
X115869887Y-132841552D01*
X115565755Y-132967528D01*
X115565741Y-132967535D01*
X115275432Y-133122707D01*
X115275414Y-133122718D01*
X115001710Y-133305601D01*
X115001696Y-133305611D01*
X114747222Y-133514453D01*
X114514453Y-133747222D01*
X114305611Y-134001696D01*
X114305601Y-134001710D01*
X114227102Y-134119193D01*
X114173490Y-134163998D01*
X114104165Y-134172705D01*
X114041138Y-134142551D01*
X114004418Y-134083108D01*
X114000000Y-134050302D01*
X114000000Y-100251362D01*
X114019685Y-100184323D01*
X114036319Y-100163681D01*
X114663681Y-99536319D01*
X114725004Y-99502834D01*
X114751362Y-99500000D01*
X125248638Y-99500000D01*
X125315677Y-99519685D01*
G37*
G04 #@! TD.AperFunction*
G04 #@! TA.AperFunction,Conductor*
G36*
X180315677Y-57019685D02*
G01*
X180336319Y-57036319D01*
X180963681Y-57663681D01*
X180997166Y-57725004D01*
X181000000Y-57751362D01*
X181000000Y-66248638D01*
X180980315Y-66315677D01*
X180963681Y-66336319D01*
X180336319Y-66963681D01*
X180274996Y-66997166D01*
X180248638Y-67000000D01*
X165751362Y-67000000D01*
X165684323Y-66980315D01*
X165663681Y-66963681D01*
X165036319Y-66336319D01*
X165002834Y-66274996D01*
X165000000Y-66248638D01*
X165000000Y-61852486D01*
X175679500Y-61852486D01*
X175679500Y-62147513D01*
X175711571Y-62391113D01*
X175718007Y-62439993D01*
X175718008Y-62439995D01*
X175794361Y-62724951D01*
X175794364Y-62724961D01*
X175907254Y-62997500D01*
X175907258Y-62997510D01*
X176054761Y-63252993D01*
X176234352Y-63487040D01*
X176234358Y-63487047D01*
X176442952Y-63695641D01*
X176442959Y-63695647D01*
X176677006Y-63875238D01*
X176932489Y-64022741D01*
X176932490Y-64022741D01*
X176932493Y-64022743D01*
X177205048Y-64135639D01*
X177490007Y-64211993D01*
X177782494Y-64250500D01*
X177782501Y-64250500D01*
X178077499Y-64250500D01*
X178077506Y-64250500D01*
X178369993Y-64211993D01*
X178654952Y-64135639D01*
X178927507Y-64022743D01*
X179182994Y-63875238D01*
X179417042Y-63695646D01*
X179625646Y-63487042D01*
X179805238Y-63252994D01*
X179952743Y-62997507D01*
X180065639Y-62724952D01*
X180141993Y-62439993D01*
X180180500Y-62147506D01*
X180180500Y-61852494D01*
X180141993Y-61560007D01*
X180065639Y-61275048D01*
X179952743Y-61002493D01*
X179805238Y-60747006D01*
X179625646Y-60512958D01*
X179625641Y-60512952D01*
X179417047Y-60304358D01*
X179417040Y-60304352D01*
X179182993Y-60124761D01*
X178927510Y-59977258D01*
X178927500Y-59977254D01*
X178654961Y-59864364D01*
X178654954Y-59864362D01*
X178654952Y-59864361D01*
X178369993Y-59788007D01*
X178321113Y-59781571D01*
X178077513Y-59749500D01*
X178077506Y-59749500D01*
X177782494Y-59749500D01*
X177782486Y-59749500D01*
X177504085Y-59786153D01*
X177490007Y-59788007D01*
X177205048Y-59864361D01*
X177205038Y-59864364D01*
X176932499Y-59977254D01*
X176932489Y-59977258D01*
X176677006Y-60124761D01*
X176442959Y-60304352D01*
X176442952Y-60304358D01*
X176234358Y-60512952D01*
X176234352Y-60512959D01*
X176054761Y-60747006D01*
X175907258Y-61002489D01*
X175907254Y-61002499D01*
X175794364Y-61275038D01*
X175794361Y-61275048D01*
X175718008Y-61560004D01*
X175718006Y-61560015D01*
X175679500Y-61852486D01*
X165000000Y-61852486D01*
X165000000Y-57751362D01*
X165019685Y-57684323D01*
X165036319Y-57663681D01*
X165663681Y-57036319D01*
X165725004Y-57002834D01*
X165751362Y-57000000D01*
X180248638Y-57000000D01*
X180315677Y-57019685D01*
G37*
G04 #@! TD.AperFunction*
M02*
