G04 #@! TF.GenerationSoftware,KiCad,Pcbnew,8.0.6-8.0.6-0~ubuntu24.04.1*
G04 #@! TF.CreationDate,2024-10-18T15:37:14+01:00*
G04 #@! TF.ProjectId,PowerDelivery,506f7765-7244-4656-9c69-766572792e6b,rev?*
G04 #@! TF.SameCoordinates,Original*
G04 #@! TF.FileFunction,Legend,Bot*
G04 #@! TF.FilePolarity,Positive*
%FSLAX46Y46*%
G04 Gerber Fmt 4.6, Leading zero omitted, Abs format (unit mm)*
G04 Created by KiCad (PCBNEW 8.0.6-8.0.6-0~ubuntu24.04.1) date 2024-10-18 15:37:14*
%MOMM*%
%LPD*%
G01*
G04 APERTURE LIST*
G04 Aperture macros list*
%AMRoundRect*
0 Rectangle with rounded corners*
0 $1 Rounding radius*
0 $2 $3 $4 $5 $6 $7 $8 $9 X,Y pos of 4 corners*
0 Add a 4 corners polygon primitive as box body*
4,1,4,$2,$3,$4,$5,$6,$7,$8,$9,$2,$3,0*
0 Add four circle primitives for the rounded corners*
1,1,$1+$1,$2,$3*
1,1,$1+$1,$4,$5*
1,1,$1+$1,$6,$7*
1,1,$1+$1,$8,$9*
0 Add four rect primitives between the rounded corners*
20,1,$1+$1,$2,$3,$4,$5,0*
20,1,$1+$1,$4,$5,$6,$7,0*
20,1,$1+$1,$6,$7,$8,$9,0*
20,1,$1+$1,$8,$9,$2,$3,0*%
G04 Aperture macros list end*
%ADD10C,0.200000*%
%ADD11C,0.150000*%
%ADD12C,0.120000*%
%ADD13RoundRect,0.250001X-1.399999X1.099999X-1.399999X-1.099999X1.399999X-1.099999X1.399999X1.099999X0*%
%ADD14O,3.300000X2.700000*%
%ADD15C,1.600000*%
%ADD16O,1.600000X1.600000*%
%ADD17R,3.000000X3.000000*%
%ADD18C,3.000000*%
%ADD19R,1.600000X1.600000*%
%ADD20R,2.200000X2.200000*%
%ADD21O,2.200000X2.200000*%
%ADD22C,2.400000*%
%ADD23O,2.400000X2.400000*%
%ADD24C,1.440000*%
%ADD25R,1.500000X1.500000*%
%ADD26C,1.500000*%
%ADD27C,5.700000*%
%ADD28O,3.500000X3.500000*%
%ADD29R,2.000000X1.905000*%
%ADD30O,2.000000X1.905000*%
%ADD31R,1.800000X1.800000*%
%ADD32C,1.800000*%
%ADD33R,1.700000X1.700000*%
%ADD34O,1.700000X1.700000*%
G04 APERTURE END LIST*
D10*
X144011279Y-86306028D02*
X144011279Y-84806028D01*
X144011279Y-84806028D02*
X143439850Y-84806028D01*
X143439850Y-84806028D02*
X143296993Y-84877457D01*
X143296993Y-84877457D02*
X143225564Y-84948885D01*
X143225564Y-84948885D02*
X143154136Y-85091742D01*
X143154136Y-85091742D02*
X143154136Y-85306028D01*
X143154136Y-85306028D02*
X143225564Y-85448885D01*
X143225564Y-85448885D02*
X143296993Y-85520314D01*
X143296993Y-85520314D02*
X143439850Y-85591742D01*
X143439850Y-85591742D02*
X144011279Y-85591742D01*
X142582707Y-86234600D02*
X142368422Y-86306028D01*
X142368422Y-86306028D02*
X142011279Y-86306028D01*
X142011279Y-86306028D02*
X141868422Y-86234600D01*
X141868422Y-86234600D02*
X141796993Y-86163171D01*
X141796993Y-86163171D02*
X141725564Y-86020314D01*
X141725564Y-86020314D02*
X141725564Y-85877457D01*
X141725564Y-85877457D02*
X141796993Y-85734600D01*
X141796993Y-85734600D02*
X141868422Y-85663171D01*
X141868422Y-85663171D02*
X142011279Y-85591742D01*
X142011279Y-85591742D02*
X142296993Y-85520314D01*
X142296993Y-85520314D02*
X142439850Y-85448885D01*
X142439850Y-85448885D02*
X142511279Y-85377457D01*
X142511279Y-85377457D02*
X142582707Y-85234600D01*
X142582707Y-85234600D02*
X142582707Y-85091742D01*
X142582707Y-85091742D02*
X142511279Y-84948885D01*
X142511279Y-84948885D02*
X142439850Y-84877457D01*
X142439850Y-84877457D02*
X142296993Y-84806028D01*
X142296993Y-84806028D02*
X141939850Y-84806028D01*
X141939850Y-84806028D02*
X141725564Y-84877457D01*
X141439851Y-86448885D02*
X140296993Y-86448885D01*
X139654136Y-84806028D02*
X139368422Y-84806028D01*
X139368422Y-84806028D02*
X139225565Y-84877457D01*
X139225565Y-84877457D02*
X139082708Y-85020314D01*
X139082708Y-85020314D02*
X139011279Y-85306028D01*
X139011279Y-85306028D02*
X139011279Y-85806028D01*
X139011279Y-85806028D02*
X139082708Y-86091742D01*
X139082708Y-86091742D02*
X139225565Y-86234600D01*
X139225565Y-86234600D02*
X139368422Y-86306028D01*
X139368422Y-86306028D02*
X139654136Y-86306028D01*
X139654136Y-86306028D02*
X139796994Y-86234600D01*
X139796994Y-86234600D02*
X139939851Y-86091742D01*
X139939851Y-86091742D02*
X140011279Y-85806028D01*
X140011279Y-85806028D02*
X140011279Y-85306028D01*
X140011279Y-85306028D02*
X139939851Y-85020314D01*
X139939851Y-85020314D02*
X139796994Y-84877457D01*
X139796994Y-84877457D02*
X139654136Y-84806028D01*
X138368422Y-86306028D02*
X138368422Y-84806028D01*
X138368422Y-84806028D02*
X137511279Y-86306028D01*
X137511279Y-86306028D02*
X137511279Y-84806028D01*
X191225564Y-103806028D02*
X190725564Y-105306028D01*
X190725564Y-105306028D02*
X190225564Y-103806028D01*
X190082708Y-105448885D02*
X188939850Y-105448885D01*
X188654136Y-105234600D02*
X188439851Y-105306028D01*
X188439851Y-105306028D02*
X188082708Y-105306028D01*
X188082708Y-105306028D02*
X187939851Y-105234600D01*
X187939851Y-105234600D02*
X187868422Y-105163171D01*
X187868422Y-105163171D02*
X187796993Y-105020314D01*
X187796993Y-105020314D02*
X187796993Y-104877457D01*
X187796993Y-104877457D02*
X187868422Y-104734600D01*
X187868422Y-104734600D02*
X187939851Y-104663171D01*
X187939851Y-104663171D02*
X188082708Y-104591742D01*
X188082708Y-104591742D02*
X188368422Y-104520314D01*
X188368422Y-104520314D02*
X188511279Y-104448885D01*
X188511279Y-104448885D02*
X188582708Y-104377457D01*
X188582708Y-104377457D02*
X188654136Y-104234600D01*
X188654136Y-104234600D02*
X188654136Y-104091742D01*
X188654136Y-104091742D02*
X188582708Y-103948885D01*
X188582708Y-103948885D02*
X188511279Y-103877457D01*
X188511279Y-103877457D02*
X188368422Y-103806028D01*
X188368422Y-103806028D02*
X188011279Y-103806028D01*
X188011279Y-103806028D02*
X187796993Y-103877457D01*
X187154137Y-104520314D02*
X186654137Y-104520314D01*
X186439851Y-105306028D02*
X187154137Y-105306028D01*
X187154137Y-105306028D02*
X187154137Y-103806028D01*
X187154137Y-103806028D02*
X186439851Y-103806028D01*
X185796994Y-105306028D02*
X185796994Y-103806028D01*
X185796994Y-103806028D02*
X184939851Y-105306028D01*
X184939851Y-105306028D02*
X184939851Y-103806028D01*
X184296993Y-105234600D02*
X184082708Y-105306028D01*
X184082708Y-105306028D02*
X183725565Y-105306028D01*
X183725565Y-105306028D02*
X183582708Y-105234600D01*
X183582708Y-105234600D02*
X183511279Y-105163171D01*
X183511279Y-105163171D02*
X183439850Y-105020314D01*
X183439850Y-105020314D02*
X183439850Y-104877457D01*
X183439850Y-104877457D02*
X183511279Y-104734600D01*
X183511279Y-104734600D02*
X183582708Y-104663171D01*
X183582708Y-104663171D02*
X183725565Y-104591742D01*
X183725565Y-104591742D02*
X184011279Y-104520314D01*
X184011279Y-104520314D02*
X184154136Y-104448885D01*
X184154136Y-104448885D02*
X184225565Y-104377457D01*
X184225565Y-104377457D02*
X184296993Y-104234600D01*
X184296993Y-104234600D02*
X184296993Y-104091742D01*
X184296993Y-104091742D02*
X184225565Y-103948885D01*
X184225565Y-103948885D02*
X184154136Y-103877457D01*
X184154136Y-103877457D02*
X184011279Y-103806028D01*
X184011279Y-103806028D02*
X183654136Y-103806028D01*
X183654136Y-103806028D02*
X183439850Y-103877457D01*
X191082707Y-102377457D02*
X190368422Y-102377457D01*
X191225564Y-102806028D02*
X190725564Y-101306028D01*
X190725564Y-101306028D02*
X190225564Y-102806028D01*
X190082708Y-102948885D02*
X188939850Y-102948885D01*
X188654136Y-102734600D02*
X188439851Y-102806028D01*
X188439851Y-102806028D02*
X188082708Y-102806028D01*
X188082708Y-102806028D02*
X187939851Y-102734600D01*
X187939851Y-102734600D02*
X187868422Y-102663171D01*
X187868422Y-102663171D02*
X187796993Y-102520314D01*
X187796993Y-102520314D02*
X187796993Y-102377457D01*
X187796993Y-102377457D02*
X187868422Y-102234600D01*
X187868422Y-102234600D02*
X187939851Y-102163171D01*
X187939851Y-102163171D02*
X188082708Y-102091742D01*
X188082708Y-102091742D02*
X188368422Y-102020314D01*
X188368422Y-102020314D02*
X188511279Y-101948885D01*
X188511279Y-101948885D02*
X188582708Y-101877457D01*
X188582708Y-101877457D02*
X188654136Y-101734600D01*
X188654136Y-101734600D02*
X188654136Y-101591742D01*
X188654136Y-101591742D02*
X188582708Y-101448885D01*
X188582708Y-101448885D02*
X188511279Y-101377457D01*
X188511279Y-101377457D02*
X188368422Y-101306028D01*
X188368422Y-101306028D02*
X188011279Y-101306028D01*
X188011279Y-101306028D02*
X187796993Y-101377457D01*
X187154137Y-102020314D02*
X186654137Y-102020314D01*
X186439851Y-102806028D02*
X187154137Y-102806028D01*
X187154137Y-102806028D02*
X187154137Y-101306028D01*
X187154137Y-101306028D02*
X186439851Y-101306028D01*
X185796994Y-102806028D02*
X185796994Y-101306028D01*
X185796994Y-101306028D02*
X184939851Y-102806028D01*
X184939851Y-102806028D02*
X184939851Y-101306028D01*
X184296993Y-102734600D02*
X184082708Y-102806028D01*
X184082708Y-102806028D02*
X183725565Y-102806028D01*
X183725565Y-102806028D02*
X183582708Y-102734600D01*
X183582708Y-102734600D02*
X183511279Y-102663171D01*
X183511279Y-102663171D02*
X183439850Y-102520314D01*
X183439850Y-102520314D02*
X183439850Y-102377457D01*
X183439850Y-102377457D02*
X183511279Y-102234600D01*
X183511279Y-102234600D02*
X183582708Y-102163171D01*
X183582708Y-102163171D02*
X183725565Y-102091742D01*
X183725565Y-102091742D02*
X184011279Y-102020314D01*
X184011279Y-102020314D02*
X184154136Y-101948885D01*
X184154136Y-101948885D02*
X184225565Y-101877457D01*
X184225565Y-101877457D02*
X184296993Y-101734600D01*
X184296993Y-101734600D02*
X184296993Y-101591742D01*
X184296993Y-101591742D02*
X184225565Y-101448885D01*
X184225565Y-101448885D02*
X184154136Y-101377457D01*
X184154136Y-101377457D02*
X184011279Y-101306028D01*
X184011279Y-101306028D02*
X183654136Y-101306028D01*
X183654136Y-101306028D02*
X183439850Y-101377457D01*
X190511279Y-99520314D02*
X191011279Y-99520314D01*
X191011279Y-100306028D02*
X191011279Y-98806028D01*
X191011279Y-98806028D02*
X190296993Y-98806028D01*
X189796993Y-99877457D02*
X189082708Y-99877457D01*
X189939850Y-100306028D02*
X189439850Y-98806028D01*
X189439850Y-98806028D02*
X188939850Y-100306028D01*
X188439851Y-98806028D02*
X188439851Y-100020314D01*
X188439851Y-100020314D02*
X188368422Y-100163171D01*
X188368422Y-100163171D02*
X188296994Y-100234600D01*
X188296994Y-100234600D02*
X188154136Y-100306028D01*
X188154136Y-100306028D02*
X187868422Y-100306028D01*
X187868422Y-100306028D02*
X187725565Y-100234600D01*
X187725565Y-100234600D02*
X187654136Y-100163171D01*
X187654136Y-100163171D02*
X187582708Y-100020314D01*
X187582708Y-100020314D02*
X187582708Y-98806028D01*
X186154136Y-100306028D02*
X186868422Y-100306028D01*
X186868422Y-100306028D02*
X186868422Y-98806028D01*
X185868421Y-98806028D02*
X185011279Y-98806028D01*
X185439850Y-100306028D02*
X185439850Y-98806028D01*
X191082707Y-97734600D02*
X190868422Y-97806028D01*
X190868422Y-97806028D02*
X190511279Y-97806028D01*
X190511279Y-97806028D02*
X190368422Y-97734600D01*
X190368422Y-97734600D02*
X190296993Y-97663171D01*
X190296993Y-97663171D02*
X190225564Y-97520314D01*
X190225564Y-97520314D02*
X190225564Y-97377457D01*
X190225564Y-97377457D02*
X190296993Y-97234600D01*
X190296993Y-97234600D02*
X190368422Y-97163171D01*
X190368422Y-97163171D02*
X190511279Y-97091742D01*
X190511279Y-97091742D02*
X190796993Y-97020314D01*
X190796993Y-97020314D02*
X190939850Y-96948885D01*
X190939850Y-96948885D02*
X191011279Y-96877457D01*
X191011279Y-96877457D02*
X191082707Y-96734600D01*
X191082707Y-96734600D02*
X191082707Y-96591742D01*
X191082707Y-96591742D02*
X191011279Y-96448885D01*
X191011279Y-96448885D02*
X190939850Y-96377457D01*
X190939850Y-96377457D02*
X190796993Y-96306028D01*
X190796993Y-96306028D02*
X190439850Y-96306028D01*
X190439850Y-96306028D02*
X190225564Y-96377457D01*
X189582708Y-97806028D02*
X189582708Y-96306028D01*
X188082707Y-96377457D02*
X188225565Y-96306028D01*
X188225565Y-96306028D02*
X188439850Y-96306028D01*
X188439850Y-96306028D02*
X188654136Y-96377457D01*
X188654136Y-96377457D02*
X188796993Y-96520314D01*
X188796993Y-96520314D02*
X188868422Y-96663171D01*
X188868422Y-96663171D02*
X188939850Y-96948885D01*
X188939850Y-96948885D02*
X188939850Y-97163171D01*
X188939850Y-97163171D02*
X188868422Y-97448885D01*
X188868422Y-97448885D02*
X188796993Y-97591742D01*
X188796993Y-97591742D02*
X188654136Y-97734600D01*
X188654136Y-97734600D02*
X188439850Y-97806028D01*
X188439850Y-97806028D02*
X188296993Y-97806028D01*
X188296993Y-97806028D02*
X188082707Y-97734600D01*
X188082707Y-97734600D02*
X188011279Y-97663171D01*
X188011279Y-97663171D02*
X188011279Y-97163171D01*
X188011279Y-97163171D02*
X188296993Y-97163171D01*
X187725565Y-97948885D02*
X186582707Y-97948885D01*
X186225565Y-97806028D02*
X186225565Y-96306028D01*
X185511279Y-97806028D02*
X185511279Y-96306028D01*
X185511279Y-96306028D02*
X184654136Y-97806028D01*
X184654136Y-97806028D02*
X184654136Y-96306028D01*
X191154136Y-93806028D02*
X190225564Y-93806028D01*
X190225564Y-93806028D02*
X190725564Y-94377457D01*
X190725564Y-94377457D02*
X190511279Y-94377457D01*
X190511279Y-94377457D02*
X190368422Y-94448885D01*
X190368422Y-94448885D02*
X190296993Y-94520314D01*
X190296993Y-94520314D02*
X190225564Y-94663171D01*
X190225564Y-94663171D02*
X190225564Y-95020314D01*
X190225564Y-95020314D02*
X190296993Y-95163171D01*
X190296993Y-95163171D02*
X190368422Y-95234600D01*
X190368422Y-95234600D02*
X190511279Y-95306028D01*
X190511279Y-95306028D02*
X190939850Y-95306028D01*
X190939850Y-95306028D02*
X191082707Y-95234600D01*
X191082707Y-95234600D02*
X191154136Y-95163171D01*
X189582708Y-95163171D02*
X189511279Y-95234600D01*
X189511279Y-95234600D02*
X189582708Y-95306028D01*
X189582708Y-95306028D02*
X189654136Y-95234600D01*
X189654136Y-95234600D02*
X189582708Y-95163171D01*
X189582708Y-95163171D02*
X189582708Y-95306028D01*
X189011279Y-93806028D02*
X188082707Y-93806028D01*
X188082707Y-93806028D02*
X188582707Y-94377457D01*
X188582707Y-94377457D02*
X188368422Y-94377457D01*
X188368422Y-94377457D02*
X188225565Y-94448885D01*
X188225565Y-94448885D02*
X188154136Y-94520314D01*
X188154136Y-94520314D02*
X188082707Y-94663171D01*
X188082707Y-94663171D02*
X188082707Y-95020314D01*
X188082707Y-95020314D02*
X188154136Y-95163171D01*
X188154136Y-95163171D02*
X188225565Y-95234600D01*
X188225565Y-95234600D02*
X188368422Y-95306028D01*
X188368422Y-95306028D02*
X188796993Y-95306028D01*
X188796993Y-95306028D02*
X188939850Y-95234600D01*
X188939850Y-95234600D02*
X189011279Y-95163171D01*
X187654136Y-93806028D02*
X187154136Y-95306028D01*
X187154136Y-95306028D02*
X186654136Y-93806028D01*
X190225564Y-91377457D02*
X190368422Y-91306028D01*
X190368422Y-91306028D02*
X190582707Y-91306028D01*
X190582707Y-91306028D02*
X190796993Y-91377457D01*
X190796993Y-91377457D02*
X190939850Y-91520314D01*
X190939850Y-91520314D02*
X191011279Y-91663171D01*
X191011279Y-91663171D02*
X191082707Y-91948885D01*
X191082707Y-91948885D02*
X191082707Y-92163171D01*
X191082707Y-92163171D02*
X191011279Y-92448885D01*
X191011279Y-92448885D02*
X190939850Y-92591742D01*
X190939850Y-92591742D02*
X190796993Y-92734600D01*
X190796993Y-92734600D02*
X190582707Y-92806028D01*
X190582707Y-92806028D02*
X190439850Y-92806028D01*
X190439850Y-92806028D02*
X190225564Y-92734600D01*
X190225564Y-92734600D02*
X190154136Y-92663171D01*
X190154136Y-92663171D02*
X190154136Y-92163171D01*
X190154136Y-92163171D02*
X190439850Y-92163171D01*
X189511279Y-92806028D02*
X189511279Y-91306028D01*
X189511279Y-91306028D02*
X188654136Y-92806028D01*
X188654136Y-92806028D02*
X188654136Y-91306028D01*
X187939850Y-92806028D02*
X187939850Y-91306028D01*
X187939850Y-91306028D02*
X187582707Y-91306028D01*
X187582707Y-91306028D02*
X187368421Y-91377457D01*
X187368421Y-91377457D02*
X187225564Y-91520314D01*
X187225564Y-91520314D02*
X187154135Y-91663171D01*
X187154135Y-91663171D02*
X187082707Y-91948885D01*
X187082707Y-91948885D02*
X187082707Y-92163171D01*
X187082707Y-92163171D02*
X187154135Y-92448885D01*
X187154135Y-92448885D02*
X187225564Y-92591742D01*
X187225564Y-92591742D02*
X187368421Y-92734600D01*
X187368421Y-92734600D02*
X187582707Y-92806028D01*
X187582707Y-92806028D02*
X187939850Y-92806028D01*
D11*
X193833333Y-106954819D02*
X193833333Y-107669104D01*
X193833333Y-107669104D02*
X193880952Y-107811961D01*
X193880952Y-107811961D02*
X193976190Y-107907200D01*
X193976190Y-107907200D02*
X194119047Y-107954819D01*
X194119047Y-107954819D02*
X194214285Y-107954819D01*
X192833333Y-107954819D02*
X193404761Y-107954819D01*
X193119047Y-107954819D02*
X193119047Y-106954819D01*
X193119047Y-106954819D02*
X193214285Y-107097676D01*
X193214285Y-107097676D02*
X193309523Y-107192914D01*
X193309523Y-107192914D02*
X193404761Y-107240533D01*
X141333333Y-92824819D02*
X141333333Y-93539104D01*
X141333333Y-93539104D02*
X141380952Y-93681961D01*
X141380952Y-93681961D02*
X141476190Y-93777200D01*
X141476190Y-93777200D02*
X141619047Y-93824819D01*
X141619047Y-93824819D02*
X141714285Y-93824819D01*
X140380952Y-92824819D02*
X140857142Y-92824819D01*
X140857142Y-92824819D02*
X140904761Y-93301009D01*
X140904761Y-93301009D02*
X140857142Y-93253390D01*
X140857142Y-93253390D02*
X140761904Y-93205771D01*
X140761904Y-93205771D02*
X140523809Y-93205771D01*
X140523809Y-93205771D02*
X140428571Y-93253390D01*
X140428571Y-93253390D02*
X140380952Y-93301009D01*
X140380952Y-93301009D02*
X140333333Y-93396247D01*
X140333333Y-93396247D02*
X140333333Y-93634342D01*
X140333333Y-93634342D02*
X140380952Y-93729580D01*
X140380952Y-93729580D02*
X140428571Y-93777200D01*
X140428571Y-93777200D02*
X140523809Y-93824819D01*
X140523809Y-93824819D02*
X140761904Y-93824819D01*
X140761904Y-93824819D02*
X140857142Y-93777200D01*
X140857142Y-93777200D02*
X140904761Y-93729580D01*
D12*
X192170000Y-93420000D02*
X194830000Y-93420000D01*
X192170000Y-106180000D02*
X192170000Y-93420000D01*
X192170000Y-106180000D02*
X194830000Y-106180000D01*
X193500000Y-90820000D02*
X194830000Y-90820000D01*
X194830000Y-90820000D02*
X194830000Y-92150000D01*
X194830000Y-106180000D02*
X194830000Y-93420000D01*
X139670000Y-87170000D02*
X139670000Y-89770000D01*
X139670000Y-92370000D02*
X139670000Y-91040000D01*
X141000000Y-92370000D02*
X139670000Y-92370000D01*
X142330000Y-87170000D02*
X139670000Y-87170000D01*
X142330000Y-87170000D02*
X142330000Y-89770000D01*
X142330000Y-89770000D02*
X139670000Y-89770000D01*
%LPC*%
D13*
X135250000Y-123200000D03*
D14*
X135250000Y-127400000D03*
X135250000Y-131600000D03*
X135250000Y-135800000D03*
X129750000Y-123200000D03*
X129750000Y-127400000D03*
X129750000Y-131600000D03*
X129750000Y-135800000D03*
D15*
X162500000Y-77690000D03*
D16*
X162500000Y-85310000D03*
D17*
X120000000Y-72960000D03*
D18*
X120000000Y-78040000D03*
D15*
X154500000Y-92750000D03*
X154500000Y-95250000D03*
D17*
X120000000Y-106460000D03*
D18*
X120000000Y-111540000D03*
D19*
X153200000Y-127200000D03*
D16*
X153200000Y-129740000D03*
X153200000Y-132280000D03*
X153200000Y-134820000D03*
X160820000Y-134820000D03*
X160820000Y-132280000D03*
X160820000Y-129740000D03*
X160820000Y-127200000D03*
D20*
X166000000Y-70190000D03*
D21*
X166000000Y-77810000D03*
D22*
X127340000Y-61000000D03*
D23*
X147660000Y-61000000D03*
D15*
X160190000Y-94000000D03*
D16*
X167810000Y-94000000D03*
D15*
X164250000Y-126500000D03*
X166750000Y-126500000D03*
X141250000Y-116500000D03*
X143750000Y-116500000D03*
X148500000Y-70690000D03*
D16*
X148500000Y-78310000D03*
D19*
X171800000Y-106300000D03*
D16*
X171800000Y-103760000D03*
X171800000Y-101220000D03*
X171800000Y-98680000D03*
X164180000Y-98680000D03*
X164180000Y-101220000D03*
X164180000Y-103760000D03*
X164180000Y-106300000D03*
D15*
X142750000Y-82000000D03*
X140250000Y-82000000D03*
D24*
X148500000Y-94460000D03*
X148500000Y-97000000D03*
X148500000Y-99540000D03*
D25*
X166270000Y-115540000D03*
D26*
X163730000Y-113000000D03*
X166270000Y-110460000D03*
D15*
X171000000Y-114250000D03*
X171000000Y-111750000D03*
X153250000Y-138500000D03*
X155750000Y-138500000D03*
X141190000Y-125500000D03*
D16*
X148810000Y-125500000D03*
D19*
X148800000Y-112800000D03*
D16*
X148800000Y-110260000D03*
X148800000Y-107720000D03*
X148800000Y-105180000D03*
X141180000Y-105180000D03*
X141180000Y-107720000D03*
X141180000Y-110260000D03*
X141180000Y-112800000D03*
D17*
X120000000Y-118960000D03*
D18*
X120000000Y-124040000D03*
D15*
X153500000Y-105810000D03*
D16*
X153500000Y-98190000D03*
D27*
X115500000Y-59500000D03*
D13*
X135250000Y-68900000D03*
D14*
X135250000Y-73100000D03*
X135250000Y-77300000D03*
X135250000Y-81500000D03*
X135250000Y-85700000D03*
X135250000Y-89900000D03*
X135250000Y-94100000D03*
X135250000Y-98300000D03*
X135250000Y-102500000D03*
X135250000Y-106700000D03*
X135250000Y-110900000D03*
X135250000Y-115100000D03*
X129750000Y-68900000D03*
X129750000Y-73100000D03*
X129750000Y-77300000D03*
X129750000Y-81500000D03*
X129750000Y-85700000D03*
X129750000Y-89900000D03*
X129750000Y-94100000D03*
X129750000Y-98300000D03*
X129750000Y-102500000D03*
X129750000Y-106700000D03*
X129750000Y-110900000D03*
X129750000Y-115100000D03*
D27*
X193500000Y-137500000D03*
D15*
X155500000Y-70690000D03*
D16*
X155500000Y-78310000D03*
D15*
X141190000Y-132500000D03*
D16*
X148810000Y-132500000D03*
D28*
X168430000Y-62500000D03*
D29*
X151770000Y-59960000D03*
D30*
X151770000Y-62500000D03*
X151770000Y-65040000D03*
D19*
X153800000Y-81700000D03*
D16*
X151260000Y-81700000D03*
X148720000Y-81700000D03*
X146180000Y-81700000D03*
X146180000Y-89320000D03*
X148720000Y-89320000D03*
X151260000Y-89320000D03*
X153800000Y-89320000D03*
D15*
X164190000Y-90500000D03*
D16*
X171810000Y-90500000D03*
D27*
X193500000Y-59500000D03*
X115500000Y-137500000D03*
D15*
X145000000Y-70690000D03*
D16*
X145000000Y-78310000D03*
D15*
X170000000Y-70190000D03*
D16*
X170000000Y-77810000D03*
D15*
X165190000Y-130000000D03*
D16*
X172810000Y-130000000D03*
D15*
X160810000Y-109500000D03*
D16*
X153190000Y-109500000D03*
D15*
X153190000Y-113000000D03*
D16*
X160810000Y-113000000D03*
D31*
X158275000Y-121000000D03*
D32*
X155735000Y-121000000D03*
D15*
X141190000Y-136000000D03*
D16*
X148810000Y-136000000D03*
D15*
X143250000Y-101500000D03*
X140750000Y-101500000D03*
X148810000Y-121500000D03*
D16*
X141190000Y-121500000D03*
D15*
X141190000Y-129000000D03*
D16*
X148810000Y-129000000D03*
D15*
X152000000Y-70690000D03*
D16*
X152000000Y-78310000D03*
D17*
X120000000Y-85460000D03*
D18*
X120000000Y-90540000D03*
D33*
X193500000Y-92150000D03*
D34*
X193500000Y-94690000D03*
X193500000Y-97230000D03*
X193500000Y-99770000D03*
X193500000Y-102310000D03*
X193500000Y-104850000D03*
D33*
X141000000Y-91040000D03*
D34*
X141000000Y-88500000D03*
%LPD*%
M02*
