G04 #@! TF.GenerationSoftware,KiCad,Pcbnew,9.0.5*
G04 #@! TF.CreationDate,2025-10-18T17:06:12+01:00*
G04 #@! TF.ProjectId,PowerDelivery,506f7765-7244-4656-9c69-766572792e6b,rev?*
G04 #@! TF.SameCoordinates,Original*
G04 #@! TF.FileFunction,Copper,L1,Top*
G04 #@! TF.FilePolarity,Positive*
%FSLAX46Y46*%
G04 Gerber Fmt 4.6, Leading zero omitted, Abs format (unit mm)*
G04 Created by KiCad (PCBNEW 9.0.5) date 2025-10-18 17:06:12*
%MOMM*%
%LPD*%
G01*
G04 APERTURE LIST*
G04 Aperture macros list*
%AMRoundRect*
0 Rectangle with rounded corners*
0 $1 Rounding radius*
0 $2 $3 $4 $5 $6 $7 $8 $9 X,Y pos of 4 corners*
0 Add a 4 corners polygon primitive as box body*
4,1,4,$2,$3,$4,$5,$6,$7,$8,$9,$2,$3,0*
0 Add four circle primitives for the rounded corners*
1,1,$1+$1,$2,$3*
1,1,$1+$1,$4,$5*
1,1,$1+$1,$6,$7*
1,1,$1+$1,$8,$9*
0 Add four rect primitives between the rounded corners*
20,1,$1+$1,$2,$3,$4,$5,0*
20,1,$1+$1,$4,$5,$6,$7,0*
20,1,$1+$1,$6,$7,$8,$9,0*
20,1,$1+$1,$8,$9,$2,$3,0*%
G04 Aperture macros list end*
G04 #@! TA.AperFunction,ComponentPad*
%ADD10RoundRect,0.250001X-1.399999X1.099999X-1.399999X-1.099999X1.399999X-1.099999X1.399999X1.099999X0*%
G04 #@! TD*
G04 #@! TA.AperFunction,ComponentPad*
%ADD11O,3.300000X2.700000*%
G04 #@! TD*
G04 #@! TA.AperFunction,ComponentPad*
%ADD12C,1.600000*%
G04 #@! TD*
G04 #@! TA.AperFunction,ComponentPad*
%ADD13O,1.600000X1.600000*%
G04 #@! TD*
G04 #@! TA.AperFunction,ComponentPad*
%ADD14R,3.000000X3.000000*%
G04 #@! TD*
G04 #@! TA.AperFunction,ComponentPad*
%ADD15C,3.000000*%
G04 #@! TD*
G04 #@! TA.AperFunction,ComponentPad*
%ADD16R,1.600000X1.600000*%
G04 #@! TD*
G04 #@! TA.AperFunction,ComponentPad*
%ADD17R,2.200000X2.200000*%
G04 #@! TD*
G04 #@! TA.AperFunction,ComponentPad*
%ADD18O,2.200000X2.200000*%
G04 #@! TD*
G04 #@! TA.AperFunction,ComponentPad*
%ADD19C,2.400000*%
G04 #@! TD*
G04 #@! TA.AperFunction,ComponentPad*
%ADD20O,2.400000X2.400000*%
G04 #@! TD*
G04 #@! TA.AperFunction,ComponentPad*
%ADD21C,1.440000*%
G04 #@! TD*
G04 #@! TA.AperFunction,ComponentPad*
%ADD22R,1.500000X1.500000*%
G04 #@! TD*
G04 #@! TA.AperFunction,ComponentPad*
%ADD23C,1.500000*%
G04 #@! TD*
G04 #@! TA.AperFunction,ComponentPad*
%ADD24C,5.700000*%
G04 #@! TD*
G04 #@! TA.AperFunction,ComponentPad*
%ADD25R,2.000000X1.905000*%
G04 #@! TD*
G04 #@! TA.AperFunction,ComponentPad*
%ADD26O,2.000000X1.905000*%
G04 #@! TD*
G04 #@! TA.AperFunction,ComponentPad*
%ADD27R,1.800000X1.800000*%
G04 #@! TD*
G04 #@! TA.AperFunction,ComponentPad*
%ADD28C,1.800000*%
G04 #@! TD*
G04 #@! TA.AperFunction,ComponentPad*
%ADD29R,1.700000X1.700000*%
G04 #@! TD*
G04 #@! TA.AperFunction,ComponentPad*
%ADD30O,1.700000X1.700000*%
G04 #@! TD*
G04 #@! TA.AperFunction,ViaPad*
%ADD31C,1.600000*%
G04 #@! TD*
G04 #@! TA.AperFunction,Conductor*
%ADD32C,0.500000*%
G04 #@! TD*
G04 #@! TA.AperFunction,Conductor*
%ADD33C,1.000000*%
G04 #@! TD*
G04 #@! TA.AperFunction,Conductor*
%ADD34C,2.000000*%
G04 #@! TD*
G04 #@! TA.AperFunction,Conductor*
%ADD35C,3.300000*%
G04 #@! TD*
G04 APERTURE END LIST*
D10*
X141250000Y-122700000D03*
D11*
X141250000Y-126900000D03*
X141250000Y-131100000D03*
X141250000Y-135300000D03*
X135750000Y-122700000D03*
X135750000Y-126900000D03*
X135750000Y-131100000D03*
X135750000Y-135300000D03*
D12*
X172000000Y-77190000D03*
D13*
X172000000Y-84810000D03*
D14*
X120000000Y-72960000D03*
D15*
X120000000Y-78040000D03*
D12*
X164000000Y-92250000D03*
X164000000Y-94750000D03*
D14*
X120000000Y-106460000D03*
D15*
X120000000Y-111540000D03*
D16*
X162700000Y-126700000D03*
D13*
X162700000Y-129240000D03*
X162700000Y-131780000D03*
X162700000Y-134320000D03*
X170320000Y-134320000D03*
X170320000Y-131780000D03*
X170320000Y-129240000D03*
X170320000Y-126700000D03*
D17*
X175500000Y-69690000D03*
D18*
X175500000Y-77310000D03*
D19*
X136840000Y-60500000D03*
D20*
X157160000Y-60500000D03*
D12*
X169690000Y-93500000D03*
D13*
X177310000Y-93500000D03*
D12*
X173750000Y-126000000D03*
X176250000Y-126000000D03*
X150750000Y-116000000D03*
X153250000Y-116000000D03*
X158000000Y-70190000D03*
D13*
X158000000Y-77810000D03*
D16*
X181300000Y-105800000D03*
D13*
X181300000Y-103260000D03*
X181300000Y-100720000D03*
X181300000Y-98180000D03*
X173680000Y-98180000D03*
X173680000Y-100720000D03*
X173680000Y-103260000D03*
X173680000Y-105800000D03*
D12*
X152250000Y-81500000D03*
X149750000Y-81500000D03*
D21*
X158000000Y-93960000D03*
X158000000Y-96500000D03*
X158000000Y-99040000D03*
D22*
X175770000Y-115040000D03*
D23*
X173230000Y-112500000D03*
X175770000Y-109960000D03*
D12*
X180500000Y-113750000D03*
X180500000Y-111250000D03*
X162750000Y-138000000D03*
X165250000Y-138000000D03*
X150690000Y-125000000D03*
D13*
X158310000Y-125000000D03*
D16*
X158300000Y-112300000D03*
D13*
X158300000Y-109760000D03*
X158300000Y-107220000D03*
X158300000Y-104680000D03*
X150680000Y-104680000D03*
X150680000Y-107220000D03*
X150680000Y-109760000D03*
X150680000Y-112300000D03*
D14*
X120000000Y-118960000D03*
D15*
X120000000Y-124040000D03*
D12*
X163000000Y-105310000D03*
D13*
X163000000Y-97690000D03*
D24*
X117000000Y-61000000D03*
D10*
X141250000Y-68400000D03*
D11*
X141250000Y-72600000D03*
X141250000Y-76800000D03*
X141250000Y-81000000D03*
X141250000Y-85200000D03*
X141250000Y-89400000D03*
X141250000Y-93600000D03*
X141250000Y-97800000D03*
X141250000Y-102000000D03*
X141250000Y-106200000D03*
X141250000Y-110400000D03*
X141250000Y-114600000D03*
X135750000Y-68400000D03*
X135750000Y-72600000D03*
X135750000Y-76800000D03*
X135750000Y-81000000D03*
X135750000Y-85200000D03*
X135750000Y-89400000D03*
X135750000Y-93600000D03*
X135750000Y-97800000D03*
X135750000Y-102000000D03*
X135750000Y-106200000D03*
X135750000Y-110400000D03*
X135750000Y-114600000D03*
D24*
X192000000Y-136000000D03*
D12*
X165000000Y-70190000D03*
D13*
X165000000Y-77810000D03*
D12*
X150690000Y-132000000D03*
D13*
X158310000Y-132000000D03*
D25*
X161270000Y-59460000D03*
D26*
X161270000Y-62000000D03*
X161270000Y-64540000D03*
D16*
X163300000Y-81200000D03*
D13*
X160760000Y-81200000D03*
X158220000Y-81200000D03*
X155680000Y-81200000D03*
X155680000Y-88820000D03*
X158220000Y-88820000D03*
X160760000Y-88820000D03*
X163300000Y-88820000D03*
D12*
X173690000Y-90000000D03*
D13*
X181310000Y-90000000D03*
D24*
X192000000Y-61000000D03*
X117000000Y-136000000D03*
D12*
X154500000Y-70190000D03*
D13*
X154500000Y-77810000D03*
D12*
X179500000Y-69690000D03*
D13*
X179500000Y-77310000D03*
D12*
X174690000Y-129500000D03*
D13*
X182310000Y-129500000D03*
D12*
X170310000Y-109000000D03*
D13*
X162690000Y-109000000D03*
D12*
X162690000Y-112500000D03*
D13*
X170310000Y-112500000D03*
D27*
X167775000Y-120500000D03*
D28*
X165235000Y-120500000D03*
D12*
X150690000Y-135500000D03*
D13*
X158310000Y-135500000D03*
D12*
X152750000Y-101000000D03*
X150250000Y-101000000D03*
X158310000Y-121000000D03*
D13*
X150690000Y-121000000D03*
D12*
X150690000Y-128500000D03*
D13*
X158310000Y-128500000D03*
D12*
X161500000Y-70190000D03*
D13*
X161500000Y-77810000D03*
D14*
X120000000Y-85460000D03*
D15*
X120000000Y-90540000D03*
D29*
X193500000Y-92150000D03*
D30*
X193500000Y-94690000D03*
X193500000Y-97230000D03*
X193500000Y-99770000D03*
X193500000Y-102310000D03*
X193500000Y-104850000D03*
D29*
X128500000Y-78225000D03*
D30*
X128500000Y-80765000D03*
D31*
X169500000Y-59000000D03*
X166500000Y-65000000D03*
X172500000Y-59000000D03*
X172500000Y-65000000D03*
X169500000Y-65000000D03*
X166500000Y-59000000D03*
X169500000Y-62000000D03*
X172500000Y-62000000D03*
X166500000Y-62000000D03*
X159500000Y-72600000D03*
D32*
X135750000Y-81000000D02*
X128735000Y-81000000D01*
X128735000Y-81000000D02*
X128500000Y-80765000D01*
D33*
X150680000Y-112300000D02*
X151880000Y-113500000D01*
X151880000Y-113500000D02*
X154000000Y-113500000D01*
X154000000Y-113500000D02*
X156500000Y-116000000D01*
X156500000Y-116000000D02*
X164000000Y-116000000D01*
X164000000Y-116000000D02*
X170310000Y-109690000D01*
X170310000Y-109690000D02*
X170310000Y-109000000D01*
D32*
X150690000Y-128500000D02*
X152500000Y-130310000D01*
X127000000Y-117000000D02*
X127000000Y-97540000D01*
X152500000Y-130310000D02*
X152500000Y-132500000D01*
X152500000Y-132500000D02*
X151051000Y-133949000D01*
X151051000Y-133949000D02*
X149551000Y-133949000D01*
X145500000Y-122000000D02*
X142500000Y-119000000D01*
X149551000Y-133949000D02*
X149500000Y-134000000D01*
X142500000Y-119000000D02*
X129000000Y-119000000D01*
X149500000Y-134000000D02*
X145500000Y-130000000D01*
X145500000Y-130000000D02*
X145500000Y-122000000D01*
X129000000Y-119000000D02*
X127000000Y-117000000D01*
X127000000Y-97540000D02*
X120000000Y-90540000D01*
D33*
X177310000Y-93500000D02*
X182500000Y-93500000D01*
X182500000Y-93500000D02*
X191310000Y-102310000D01*
X191310000Y-102310000D02*
X193500000Y-102310000D01*
X181310000Y-90000000D02*
X191080000Y-99770000D01*
X191080000Y-99770000D02*
X193500000Y-99770000D01*
X173690000Y-90000000D02*
X173690000Y-98170000D01*
X173690000Y-98170000D02*
X173680000Y-98180000D01*
X162690000Y-109000000D02*
X162690000Y-105620000D01*
X162690000Y-105620000D02*
X163000000Y-105310000D01*
X158300000Y-109760000D02*
X161930000Y-109760000D01*
X161930000Y-109760000D02*
X162690000Y-109000000D01*
X158300000Y-112300000D02*
X162490000Y-112300000D01*
X162490000Y-112300000D02*
X162690000Y-112500000D01*
X170320000Y-126700000D02*
X173050000Y-126700000D01*
X173050000Y-126700000D02*
X173750000Y-126000000D01*
X170320000Y-129240000D02*
X174430000Y-129240000D01*
X174430000Y-129240000D02*
X174690000Y-129500000D01*
X170320000Y-129240000D02*
X170320000Y-131780000D01*
X193500000Y-104850000D02*
X193500000Y-120500000D01*
X193500000Y-120500000D02*
X184500000Y-129500000D01*
X184500000Y-129500000D02*
X182310000Y-129500000D01*
X148500000Y-123190000D02*
X150690000Y-121000000D01*
X150690000Y-125000000D02*
X154810000Y-125000000D01*
X154810000Y-125000000D02*
X158310000Y-128500000D01*
X158310000Y-128500000D02*
X161960000Y-128500000D01*
X161960000Y-128500000D02*
X162700000Y-129240000D01*
X158310000Y-132000000D02*
X158310000Y-135500000D01*
X162700000Y-131780000D02*
X158530000Y-131780000D01*
X158530000Y-131780000D02*
X158310000Y-132000000D01*
X162700000Y-134320000D02*
X162700000Y-137950000D01*
X162700000Y-137950000D02*
X162750000Y-138000000D01*
X162700000Y-126700000D02*
X162706999Y-126700000D01*
X162706999Y-126700000D02*
X166000000Y-129993001D01*
X166000000Y-129993001D02*
X166000000Y-130500000D01*
X166000000Y-130500000D02*
X169820000Y-134320000D01*
X169820000Y-134320000D02*
X170320000Y-134320000D01*
X158310000Y-125000000D02*
X161000000Y-125000000D01*
X161000000Y-125000000D02*
X162700000Y-126700000D01*
X158310000Y-121000000D02*
X164735000Y-121000000D01*
X164735000Y-121000000D02*
X165235000Y-120500000D01*
X150750000Y-116000000D02*
X150750000Y-120940000D01*
X150750000Y-120940000D02*
X150690000Y-121000000D01*
X150680000Y-112300000D02*
X150680000Y-115930000D01*
X150680000Y-115930000D02*
X150750000Y-116000000D01*
X150680000Y-112300000D02*
X148800000Y-112300000D01*
X148800000Y-112300000D02*
X146900000Y-110400000D01*
X146900000Y-110400000D02*
X141250000Y-110400000D01*
D32*
X149650000Y-78900000D02*
X152250000Y-81500000D01*
D33*
X152250000Y-81500000D02*
X155380000Y-81500000D01*
X155380000Y-81500000D02*
X155680000Y-81200000D01*
X152750000Y-101000000D02*
X152750000Y-100750000D01*
X152750000Y-100750000D02*
X152250000Y-100250000D01*
X152250000Y-100250000D02*
X152250000Y-81500000D01*
X152750000Y-101000000D02*
X154620000Y-101000000D01*
X154620000Y-101000000D02*
X158300000Y-104680000D01*
X164000000Y-92250000D02*
X164078630Y-92250000D01*
X164078630Y-92250000D02*
X172548630Y-100720000D01*
X172548630Y-100720000D02*
X173680000Y-100720000D01*
X170310000Y-109000000D02*
X170310000Y-102958630D01*
X170310000Y-102958630D02*
X172548630Y-100720000D01*
X170310000Y-112500000D02*
X173230000Y-112500000D01*
X175770000Y-115040000D02*
X179210000Y-115040000D01*
X179210000Y-115040000D02*
X180500000Y-113750000D01*
X173680000Y-105800000D02*
X181300000Y-105800000D01*
X173680000Y-100720000D02*
X175158000Y-100720000D01*
X175158000Y-100720000D02*
X177698000Y-98180000D01*
X177698000Y-98180000D02*
X181300000Y-98180000D01*
X179500000Y-77310000D02*
X172000000Y-84810000D01*
X160760000Y-88820000D02*
X160760000Y-88813001D01*
X160760000Y-88813001D02*
X162554001Y-87019000D01*
X162554001Y-87019000D02*
X164045999Y-87019000D01*
X164045999Y-87019000D02*
X169690000Y-92663001D01*
X169690000Y-92663001D02*
X169690000Y-93500000D01*
X158000000Y-96500000D02*
X161810000Y-96500000D01*
X161810000Y-96500000D02*
X163000000Y-97690000D01*
X163300000Y-88820000D02*
X163300000Y-91550000D01*
X163300000Y-91550000D02*
X164000000Y-92250000D01*
X158220000Y-88820000D02*
X160760000Y-88820000D01*
X172000000Y-77190000D02*
X175380000Y-77190000D01*
X175380000Y-77190000D02*
X175500000Y-77310000D01*
X163300000Y-81200000D02*
X163300000Y-81206999D01*
X163300000Y-81206999D02*
X159506999Y-85000000D01*
X159506999Y-85000000D02*
X159000000Y-85000000D01*
X159000000Y-85000000D02*
X155680000Y-88320000D01*
X155680000Y-88320000D02*
X155680000Y-88820000D01*
X165000000Y-77810000D02*
X165000000Y-79500000D01*
X165000000Y-79500000D02*
X163300000Y-81200000D01*
X161500000Y-77810000D02*
X161500000Y-73690000D01*
X161500000Y-73690000D02*
X165000000Y-70190000D01*
D32*
X159500000Y-72600000D02*
X141250000Y-72600000D01*
D33*
X160760000Y-81200000D02*
X160760000Y-78550000D01*
X160760000Y-78550000D02*
X161500000Y-77810000D01*
X158000000Y-77810000D02*
X158000000Y-80980000D01*
X158000000Y-80980000D02*
X158220000Y-81200000D01*
X154500000Y-77810000D02*
X158000000Y-77810000D01*
D34*
X157160000Y-60500000D02*
X158660000Y-62000000D01*
X158660000Y-62000000D02*
X161270000Y-62000000D01*
D32*
X161270000Y-59460000D02*
X163730000Y-57000000D01*
X163730000Y-57000000D02*
X179500000Y-57000000D01*
X182000000Y-59500000D02*
X182000000Y-67190000D01*
X179500000Y-57000000D02*
X182000000Y-59500000D01*
X182000000Y-67190000D02*
X179500000Y-69690000D01*
X175500000Y-69690000D02*
X175500000Y-68000000D01*
X175500000Y-68000000D02*
X172500000Y-65000000D01*
X166500000Y-65000000D02*
X166500000Y-65190000D01*
X166500000Y-65190000D02*
X161500000Y-70190000D01*
X158000000Y-70190000D02*
X148310000Y-60500000D01*
X148310000Y-60500000D02*
X136840000Y-60500000D01*
X135750000Y-72600000D02*
X138849000Y-75699000D01*
X138849000Y-75699000D02*
X138849000Y-77670263D01*
X138849000Y-77670263D02*
X140078737Y-78900000D01*
X140078737Y-78900000D02*
X149650000Y-78900000D01*
D35*
X141250000Y-106200000D02*
X141250000Y-110400000D01*
X141250000Y-68400000D02*
X141250000Y-72600000D01*
X141250000Y-68400000D02*
X135750000Y-68400000D01*
D32*
X161270000Y-62000000D02*
X166500000Y-62000000D01*
D33*
X148500000Y-129810000D02*
X150690000Y-132000000D01*
X148500000Y-123190000D02*
X148500000Y-129810000D01*
G04 #@! TA.AperFunction,Conductor*
G36*
X163132915Y-56270462D02*
G01*
X163187453Y-56325000D01*
X163207415Y-56399500D01*
X163187453Y-56474000D01*
X163163774Y-56504859D01*
X161705272Y-57963359D01*
X161638477Y-58001923D01*
X161599913Y-58007000D01*
X160222136Y-58007000D01*
X160222111Y-58007002D01*
X160162521Y-58013408D01*
X160162515Y-58013409D01*
X160027670Y-58063702D01*
X160027666Y-58063704D01*
X159912455Y-58149952D01*
X159912452Y-58149955D01*
X159826204Y-58265166D01*
X159826202Y-58265170D01*
X159775908Y-58400017D01*
X159769500Y-58459614D01*
X159769500Y-58459627D01*
X159769500Y-59450172D01*
X159769501Y-60350500D01*
X159749539Y-60425000D01*
X159695001Y-60479538D01*
X159620501Y-60499500D01*
X159343245Y-60499500D01*
X159268745Y-60479538D01*
X159237886Y-60455859D01*
X158816385Y-60034358D01*
X158777821Y-59967563D01*
X158777820Y-59967560D01*
X158773710Y-59952219D01*
X158688405Y-59746274D01*
X158688402Y-59746269D01*
X158688401Y-59746266D01*
X158576950Y-59553229D01*
X158576948Y-59553226D01*
X158441247Y-59376376D01*
X158283624Y-59218753D01*
X158106774Y-59083052D01*
X158106773Y-59083051D01*
X158106770Y-59083049D01*
X157913733Y-58971598D01*
X157707778Y-58886288D01*
X157492464Y-58828596D01*
X157492447Y-58828593D01*
X157271462Y-58799500D01*
X157271457Y-58799500D01*
X157048543Y-58799500D01*
X157048537Y-58799500D01*
X156827552Y-58828593D01*
X156827535Y-58828596D01*
X156612222Y-58886288D01*
X156612221Y-58886288D01*
X156406266Y-58971598D01*
X156213229Y-59083049D01*
X156036374Y-59218754D01*
X155878754Y-59376374D01*
X155743049Y-59553229D01*
X155631598Y-59746266D01*
X155546288Y-59952221D01*
X155546288Y-59952222D01*
X155488596Y-60167535D01*
X155488593Y-60167552D01*
X155459500Y-60388537D01*
X155459500Y-60611462D01*
X155488593Y-60832447D01*
X155488596Y-60832464D01*
X155546288Y-61047777D01*
X155546288Y-61047778D01*
X155631598Y-61253733D01*
X155743049Y-61446770D01*
X155743051Y-61446773D01*
X155743052Y-61446774D01*
X155878753Y-61623624D01*
X156036376Y-61781247D01*
X156213226Y-61916948D01*
X156213229Y-61916950D01*
X156406266Y-62028401D01*
X156406269Y-62028402D01*
X156406274Y-62028405D01*
X156612219Y-62113710D01*
X156627561Y-62117820D01*
X156694356Y-62156383D01*
X157682490Y-63144517D01*
X157682493Y-63144519D01*
X157682496Y-63144522D01*
X157750268Y-63193761D01*
X157873566Y-63283343D01*
X158084008Y-63390568D01*
X158308632Y-63463553D01*
X158541908Y-63500500D01*
X158541913Y-63500500D01*
X161388087Y-63500500D01*
X161388092Y-63500500D01*
X161621368Y-63463553D01*
X161845992Y-63390568D01*
X162056433Y-63283343D01*
X162247510Y-63144517D01*
X162414517Y-62977510D01*
X162503412Y-62855156D01*
X162534826Y-62811920D01*
X162594766Y-62763382D01*
X162655369Y-62750500D01*
X164345500Y-62750500D01*
X164420000Y-62770462D01*
X164474538Y-62825000D01*
X164494500Y-62899500D01*
X164494500Y-66072413D01*
X164474538Y-66146913D01*
X164450859Y-66177772D01*
X161774111Y-68854519D01*
X161707316Y-68893083D01*
X161645442Y-68896325D01*
X161624973Y-68893083D01*
X161602352Y-68889500D01*
X161397648Y-68889500D01*
X161229163Y-68916185D01*
X161195465Y-68921523D01*
X161000787Y-68984778D01*
X161000775Y-68984782D01*
X160818387Y-69077714D01*
X160652787Y-69198028D01*
X160652779Y-69198035D01*
X160508035Y-69342779D01*
X160508028Y-69342787D01*
X160387714Y-69508387D01*
X160294782Y-69690775D01*
X160294778Y-69690787D01*
X160252481Y-69820965D01*
X160231523Y-69885466D01*
X160199500Y-70087648D01*
X160199500Y-70292352D01*
X160231523Y-70494534D01*
X160292423Y-70681966D01*
X160294778Y-70689212D01*
X160294782Y-70689224D01*
X160387714Y-70871612D01*
X160508028Y-71037212D01*
X160508035Y-71037220D01*
X160652779Y-71181964D01*
X160652787Y-71181971D01*
X160793345Y-71284091D01*
X160818390Y-71302287D01*
X160969603Y-71379334D01*
X160999913Y-71394778D01*
X161000781Y-71395220D01*
X161195466Y-71458477D01*
X161397648Y-71490500D01*
X161397653Y-71490500D01*
X161602347Y-71490500D01*
X161602352Y-71490500D01*
X161804534Y-71458477D01*
X161972809Y-71403800D01*
X162049831Y-71399764D01*
X162118552Y-71434779D01*
X162160559Y-71499464D01*
X162164596Y-71576487D01*
X162129581Y-71645208D01*
X162124211Y-71650867D01*
X161054859Y-72720219D01*
X160988064Y-72758783D01*
X160910936Y-72758783D01*
X160844141Y-72720219D01*
X160805577Y-72653424D01*
X160800500Y-72614860D01*
X160800500Y-72497652D01*
X160800500Y-72497648D01*
X160768477Y-72295466D01*
X160705220Y-72100781D01*
X160612287Y-71918390D01*
X160557730Y-71843298D01*
X160491971Y-71752787D01*
X160491964Y-71752779D01*
X160347220Y-71608035D01*
X160347212Y-71608028D01*
X160181612Y-71487714D01*
X159999224Y-71394782D01*
X159999220Y-71394780D01*
X159999219Y-71394780D01*
X159804534Y-71331523D01*
X159602352Y-71299500D01*
X159397648Y-71299500D01*
X159276055Y-71318758D01*
X159195469Y-71331522D01*
X159048319Y-71379334D01*
X158971296Y-71383370D01*
X158902575Y-71348354D01*
X158860568Y-71283669D01*
X158856532Y-71206646D01*
X158891548Y-71137925D01*
X158896918Y-71132267D01*
X158991958Y-71037227D01*
X158991966Y-71037219D01*
X159112287Y-70871610D01*
X159205220Y-70689219D01*
X159268477Y-70494534D01*
X159300500Y-70292352D01*
X159300500Y-70087648D01*
X159268477Y-69885466D01*
X159205220Y-69690781D01*
X159112287Y-69508390D01*
X159082834Y-69467851D01*
X158991971Y-69342787D01*
X158991964Y-69342779D01*
X158847220Y-69198035D01*
X158847212Y-69198028D01*
X158681612Y-69077714D01*
X158499224Y-68984782D01*
X158499220Y-68984780D01*
X158499219Y-68984780D01*
X158304534Y-68921523D01*
X158102352Y-68889500D01*
X157897648Y-68889500D01*
X157854549Y-68896325D01*
X157777843Y-68888261D01*
X157725885Y-68854518D01*
X148788417Y-59917049D01*
X148788410Y-59917043D01*
X148696292Y-59855493D01*
X148696291Y-59855493D01*
X148665495Y-59834916D01*
X148665491Y-59834914D01*
X148665487Y-59834912D01*
X148528914Y-59778342D01*
X148528912Y-59778341D01*
X148383921Y-59749500D01*
X148383918Y-59749500D01*
X139654500Y-59749500D01*
X139580000Y-59729538D01*
X139525462Y-59675000D01*
X139505500Y-59600500D01*
X139505500Y-59251356D01*
X139502605Y-59197350D01*
X139502603Y-59197321D01*
X139499771Y-59170979D01*
X139499764Y-59170933D01*
X139491116Y-59117559D01*
X139491114Y-59117554D01*
X139491114Y-59117552D01*
X139440832Y-58982743D01*
X139407347Y-58921420D01*
X139340482Y-58832099D01*
X139321125Y-58806241D01*
X138693760Y-58178876D01*
X138653510Y-58142721D01*
X138653500Y-58142712D01*
X138632858Y-58126078D01*
X138632859Y-58126078D01*
X138610916Y-58110255D01*
X138588974Y-58094433D01*
X138458097Y-58034662D01*
X138458094Y-58034661D01*
X138458085Y-58034658D01*
X138391061Y-58014977D01*
X138391048Y-58014974D01*
X138391044Y-58014973D01*
X138248652Y-57994501D01*
X138248640Y-57994500D01*
X138248638Y-57994500D01*
X119537686Y-57994500D01*
X119537665Y-57994500D01*
X119519655Y-57994820D01*
X119510784Y-57995137D01*
X119492783Y-57996103D01*
X119492778Y-57996103D01*
X119492777Y-57996104D01*
X119466028Y-58001923D01*
X119352190Y-58026686D01*
X119286716Y-58051106D01*
X119160450Y-58120053D01*
X119160445Y-58120057D01*
X119058708Y-58221790D01*
X119058707Y-58221791D01*
X119016833Y-58277727D01*
X119016831Y-58277729D01*
X118947874Y-58404015D01*
X118917293Y-58544602D01*
X118917290Y-58544623D01*
X118912308Y-58614292D01*
X118912308Y-58614304D01*
X118922571Y-58757806D01*
X118922571Y-58757808D01*
X118922572Y-58757810D01*
X118940636Y-58806241D01*
X118972852Y-58892614D01*
X118972853Y-58892617D01*
X119006336Y-58953937D01*
X119006341Y-58953945D01*
X119092560Y-59069120D01*
X119105368Y-59081928D01*
X119115177Y-59092750D01*
X119283240Y-59297534D01*
X119291942Y-59309269D01*
X119365528Y-59419399D01*
X119421993Y-59503905D01*
X119439115Y-59529529D01*
X119446632Y-59542071D01*
X119571498Y-59775680D01*
X119577750Y-59788898D01*
X119679121Y-60033629D01*
X119684047Y-60047396D01*
X119760946Y-60300896D01*
X119764499Y-60315081D01*
X119816170Y-60574856D01*
X119818315Y-60589319D01*
X119844282Y-60852955D01*
X119845000Y-60867560D01*
X119845000Y-61132438D01*
X119844282Y-61147043D01*
X119818316Y-61410668D01*
X119816171Y-61425130D01*
X119816171Y-61425131D01*
X119786506Y-61574271D01*
X119786501Y-61574297D01*
X119764498Y-61684920D01*
X119760945Y-61699106D01*
X119684047Y-61952602D01*
X119679121Y-61966369D01*
X119577750Y-62211100D01*
X119571498Y-62224318D01*
X119446632Y-62457927D01*
X119439115Y-62470469D01*
X119291946Y-62690723D01*
X119283235Y-62702468D01*
X119115186Y-62907236D01*
X119105367Y-62918070D01*
X118918070Y-63105367D01*
X118907236Y-63115186D01*
X118702468Y-63283235D01*
X118690723Y-63291946D01*
X118470469Y-63439115D01*
X118457927Y-63446632D01*
X118224318Y-63571498D01*
X118211100Y-63577750D01*
X117966369Y-63679121D01*
X117952602Y-63684047D01*
X117699106Y-63760945D01*
X117684920Y-63764498D01*
X117574297Y-63786501D01*
X117574270Y-63786505D01*
X117574271Y-63786506D01*
X117425131Y-63816171D01*
X117410668Y-63818316D01*
X117147045Y-63844282D01*
X117132440Y-63845000D01*
X116867562Y-63845000D01*
X116852957Y-63844282D01*
X116589319Y-63818315D01*
X116574856Y-63816170D01*
X116315081Y-63764499D01*
X116300896Y-63760946D01*
X116047396Y-63684047D01*
X116033629Y-63679121D01*
X115788898Y-63577750D01*
X115775680Y-63571498D01*
X115542071Y-63446632D01*
X115529529Y-63439115D01*
X115309275Y-63291946D01*
X115297530Y-63283236D01*
X115092768Y-63115192D01*
X115081934Y-63105372D01*
X114894635Y-62918074D01*
X114884815Y-62907240D01*
X114716750Y-62702452D01*
X114708047Y-62690717D01*
X114647408Y-62599963D01*
X114606159Y-62546371D01*
X114606156Y-62546367D01*
X114584267Y-62521558D01*
X114584263Y-62521553D01*
X114536235Y-62473952D01*
X114536233Y-62473950D01*
X114415198Y-62396167D01*
X114415195Y-62396165D01*
X114415191Y-62396163D01*
X114415180Y-62396157D01*
X114352251Y-62367419D01*
X114351651Y-62367142D01*
X114213586Y-62326605D01*
X114213583Y-62326604D01*
X114213578Y-62326604D01*
X114069705Y-62326604D01*
X114069693Y-62326605D01*
X114000543Y-62336548D01*
X114000539Y-62336549D01*
X113862499Y-62377082D01*
X113862490Y-62377086D01*
X113741461Y-62454868D01*
X113741456Y-62454872D01*
X113688653Y-62500626D01*
X113688651Y-62500628D01*
X113594431Y-62609362D01*
X113534663Y-62740235D01*
X113534658Y-62740249D01*
X113514977Y-62807273D01*
X113514974Y-62807286D01*
X113514973Y-62807290D01*
X113494501Y-62949682D01*
X113494500Y-62949700D01*
X113494500Y-96748643D01*
X113497394Y-96802649D01*
X113497396Y-96802678D01*
X113500228Y-96829020D01*
X113500235Y-96829066D01*
X113508883Y-96882440D01*
X113559166Y-97017252D01*
X113559167Y-97017255D01*
X113592650Y-97078575D01*
X113592655Y-97078583D01*
X113678874Y-97193758D01*
X113678877Y-97193761D01*
X114306239Y-97821123D01*
X114346500Y-97857288D01*
X114346518Y-97857303D01*
X114346521Y-97857305D01*
X114367141Y-97873921D01*
X114367140Y-97873921D01*
X114369283Y-97875466D01*
X114411026Y-97905567D01*
X114541903Y-97965338D01*
X114580019Y-97976530D01*
X114608938Y-97985022D01*
X114608940Y-97985022D01*
X114608942Y-97985023D01*
X114608946Y-97985024D01*
X114608947Y-97985024D01*
X114608951Y-97985025D01*
X114608955Y-97985026D01*
X114751347Y-98005498D01*
X114751351Y-98005498D01*
X114751362Y-98005500D01*
X114751366Y-98005500D01*
X125248643Y-98005500D01*
X125302649Y-98002605D01*
X125302678Y-98002603D01*
X125329020Y-97999771D01*
X125329026Y-97999770D01*
X125329036Y-97999769D01*
X125337856Y-97998339D01*
X125382440Y-97991116D01*
X125382443Y-97991114D01*
X125382448Y-97991114D01*
X125517257Y-97940832D01*
X125578580Y-97907347D01*
X125693761Y-97821123D01*
X125851399Y-97663485D01*
X125918194Y-97624921D01*
X125995322Y-97624921D01*
X126062117Y-97663485D01*
X126205859Y-97807227D01*
X126244423Y-97874022D01*
X126249500Y-97912586D01*
X126249500Y-99374898D01*
X126229538Y-99449398D01*
X126175000Y-99503936D01*
X126100500Y-99523898D01*
X126026000Y-99503936D01*
X125995141Y-99480257D01*
X125693760Y-99178876D01*
X125653510Y-99142721D01*
X125653500Y-99142712D01*
X125632858Y-99126078D01*
X125632859Y-99126078D01*
X125610916Y-99110255D01*
X125588974Y-99094433D01*
X125458097Y-99034662D01*
X125458094Y-99034661D01*
X125458085Y-99034658D01*
X125391061Y-99014977D01*
X125391048Y-99014974D01*
X125391044Y-99014973D01*
X125248652Y-98994501D01*
X125248640Y-98994500D01*
X125248638Y-98994500D01*
X114751362Y-98994500D01*
X114751357Y-98994500D01*
X114697350Y-98997394D01*
X114697321Y-98997396D01*
X114670979Y-99000228D01*
X114670933Y-99000235D01*
X114617559Y-99008883D01*
X114482747Y-99059166D01*
X114482744Y-99059167D01*
X114421424Y-99092650D01*
X114421416Y-99092655D01*
X114306241Y-99178874D01*
X113678876Y-99806239D01*
X113642721Y-99846489D01*
X113642694Y-99846521D01*
X113626078Y-99867140D01*
X113594433Y-99911026D01*
X113534661Y-100041905D01*
X113534658Y-100041914D01*
X113514977Y-100108938D01*
X113514974Y-100108951D01*
X113514973Y-100108955D01*
X113494501Y-100251347D01*
X113494500Y-100251360D01*
X113494500Y-100251362D01*
X113494500Y-134050302D01*
X113497346Y-134092762D01*
X113499022Y-134117769D01*
X113503440Y-134150575D01*
X113516931Y-134216849D01*
X113516931Y-134216851D01*
X113574354Y-134348770D01*
X113596058Y-134383905D01*
X113611076Y-134408215D01*
X113611078Y-134408217D01*
X113611079Y-134408219D01*
X113611080Y-134408220D01*
X113693697Y-134507075D01*
X113703342Y-134518615D01*
X113822975Y-134598550D01*
X113822982Y-134598553D01*
X113822983Y-134598554D01*
X113885997Y-134628702D01*
X113885996Y-134628702D01*
X113886001Y-134628703D01*
X113886002Y-134628704D01*
X113895532Y-134631688D01*
X114023297Y-134671694D01*
X114023300Y-134671694D01*
X114023302Y-134671695D01*
X114167159Y-134674265D01*
X114167167Y-134674264D01*
X114167169Y-134674264D01*
X114187629Y-134671694D01*
X114236484Y-134665558D01*
X114236488Y-134665557D01*
X114375242Y-134627492D01*
X114497651Y-134551877D01*
X114497654Y-134551874D01*
X114497658Y-134551872D01*
X114551259Y-134507075D01*
X114551263Y-134507072D01*
X114647410Y-134400034D01*
X114708066Y-134309254D01*
X114716767Y-134297524D01*
X114884816Y-134092756D01*
X114894630Y-134081928D01*
X115081938Y-133894619D01*
X115092751Y-133884819D01*
X115297529Y-133716761D01*
X115309252Y-133708067D01*
X115529544Y-133560872D01*
X115542063Y-133553369D01*
X115775697Y-133428490D01*
X115788891Y-133422250D01*
X116033641Y-133320871D01*
X116047392Y-133315951D01*
X116300903Y-133239050D01*
X116315073Y-133235501D01*
X116574875Y-133183825D01*
X116589335Y-133181679D01*
X116852952Y-133155717D01*
X116867556Y-133155000D01*
X117132443Y-133155000D01*
X117147047Y-133155717D01*
X117410666Y-133181680D01*
X117425129Y-133183826D01*
X117498903Y-133198500D01*
X117684925Y-133235501D01*
X117699090Y-133239048D01*
X117952606Y-133315952D01*
X117966361Y-133320873D01*
X118211100Y-133422247D01*
X118224308Y-133428495D01*
X118457932Y-133553369D01*
X118470474Y-133560886D01*
X118690725Y-133708052D01*
X118702469Y-133716762D01*
X118702478Y-133716770D01*
X118907235Y-133884810D01*
X118918069Y-133894629D01*
X119105368Y-134081928D01*
X119115177Y-134092750D01*
X119283240Y-134297534D01*
X119291942Y-134309269D01*
X119439115Y-134529529D01*
X119446632Y-134542071D01*
X119571498Y-134775680D01*
X119577750Y-134788898D01*
X119679121Y-135033629D01*
X119684047Y-135047396D01*
X119760946Y-135300896D01*
X119764499Y-135315081D01*
X119816170Y-135574856D01*
X119818315Y-135589319D01*
X119844282Y-135852955D01*
X119845000Y-135867560D01*
X119845000Y-136132438D01*
X119844282Y-136147043D01*
X119818316Y-136410668D01*
X119816171Y-136425130D01*
X119816171Y-136425131D01*
X119786506Y-136574271D01*
X119786501Y-136574297D01*
X119764498Y-136684920D01*
X119760945Y-136699106D01*
X119684047Y-136952602D01*
X119679121Y-136966369D01*
X119577750Y-137211100D01*
X119571498Y-137224318D01*
X119446632Y-137457927D01*
X119439115Y-137470469D01*
X119291943Y-137690728D01*
X119283232Y-137702473D01*
X119115192Y-137907230D01*
X119105381Y-137918056D01*
X119092545Y-137930893D01*
X119080062Y-137943830D01*
X119074006Y-137950333D01*
X119061942Y-137963762D01*
X118984156Y-138084801D01*
X118984149Y-138084814D01*
X118955408Y-138147749D01*
X118955132Y-138148344D01*
X118914594Y-138286413D01*
X118914593Y-138286421D01*
X118914593Y-138430294D01*
X118914594Y-138430306D01*
X118924537Y-138499456D01*
X118924538Y-138499460D01*
X118965071Y-138637500D01*
X118965075Y-138637509D01*
X119042857Y-138758538D01*
X119042861Y-138758543D01*
X119088615Y-138811346D01*
X119088617Y-138811348D01*
X119197351Y-138905568D01*
X119257956Y-138933245D01*
X119328227Y-138965338D01*
X119366343Y-138976530D01*
X119395262Y-138985022D01*
X119395264Y-138985022D01*
X119395266Y-138985023D01*
X119395270Y-138985024D01*
X119395271Y-138985024D01*
X119395275Y-138985025D01*
X119395279Y-138985026D01*
X119537671Y-139005498D01*
X119537675Y-139005498D01*
X119537686Y-139005500D01*
X119537690Y-139005500D01*
X137248643Y-139005500D01*
X137302649Y-139002605D01*
X137302678Y-139002603D01*
X137329020Y-138999771D01*
X137329026Y-138999770D01*
X137329036Y-138999769D01*
X137337856Y-138998339D01*
X137382440Y-138991116D01*
X137382443Y-138991114D01*
X137382448Y-138991114D01*
X137517257Y-138940832D01*
X137578580Y-138907347D01*
X137693761Y-138821123D01*
X138321123Y-138193761D01*
X138357288Y-138153500D01*
X138373922Y-138132858D01*
X138405567Y-138088974D01*
X138465338Y-137958097D01*
X138485023Y-137891058D01*
X138485024Y-137891054D01*
X138485025Y-137891048D01*
X138485026Y-137891044D01*
X138505498Y-137748652D01*
X138505500Y-137748634D01*
X138505500Y-120751356D01*
X138502605Y-120697350D01*
X138502603Y-120697321D01*
X138499771Y-120670979D01*
X138499764Y-120670933D01*
X138491116Y-120617559D01*
X138491114Y-120617554D01*
X138491114Y-120617552D01*
X138440832Y-120482743D01*
X138407347Y-120421420D01*
X138383660Y-120389778D01*
X138321125Y-120306241D01*
X138019743Y-120004859D01*
X137981179Y-119938064D01*
X137981179Y-119860936D01*
X138019743Y-119794141D01*
X138086538Y-119755577D01*
X138125102Y-119750500D01*
X142127414Y-119750500D01*
X142201914Y-119770462D01*
X142232773Y-119794141D01*
X144705859Y-122267226D01*
X144744423Y-122334021D01*
X144749500Y-122372585D01*
X144749500Y-130073921D01*
X144778341Y-130218911D01*
X144834913Y-130355489D01*
X144834918Y-130355499D01*
X144848786Y-130376253D01*
X144855721Y-130386632D01*
X144917048Y-130478416D01*
X148917046Y-134478413D01*
X148917048Y-134478416D01*
X149021584Y-134582952D01*
X149083817Y-134624534D01*
X149144505Y-134665084D01*
X149281087Y-134721658D01*
X149426082Y-134750500D01*
X149426083Y-134750500D01*
X149426086Y-134750500D01*
X149573913Y-134750500D01*
X149573917Y-134750500D01*
X149718912Y-134721658D01*
X149734622Y-134715150D01*
X149745025Y-134710842D01*
X149802044Y-134699500D01*
X151124914Y-134699500D01*
X151124917Y-134699500D01*
X151124918Y-134699500D01*
X151269913Y-134670658D01*
X151406495Y-134614084D01*
X151406504Y-134614078D01*
X151499579Y-134551888D01*
X151499581Y-134551886D01*
X151499595Y-134551877D01*
X151529416Y-134531952D01*
X153082951Y-132978416D01*
X153165084Y-132855495D01*
X153221658Y-132718913D01*
X153229299Y-132680500D01*
X153250500Y-132573918D01*
X153250500Y-130236082D01*
X153239665Y-130181610D01*
X153221659Y-130091088D01*
X153167880Y-129961257D01*
X153165903Y-129955731D01*
X153143111Y-129921620D01*
X153082951Y-129831584D01*
X152978416Y-129727049D01*
X152025480Y-128774113D01*
X151986916Y-128707318D01*
X151983674Y-128645445D01*
X151990500Y-128602352D01*
X151990500Y-128397648D01*
X151958477Y-128195466D01*
X151895220Y-128000781D01*
X151802287Y-127818390D01*
X151802285Y-127818387D01*
X151681971Y-127652787D01*
X151681964Y-127652779D01*
X151537220Y-127508035D01*
X151537212Y-127508028D01*
X151371612Y-127387714D01*
X151189224Y-127294782D01*
X151189220Y-127294780D01*
X151189219Y-127294780D01*
X150994534Y-127231523D01*
X150792352Y-127199500D01*
X150587648Y-127199500D01*
X150419163Y-127226185D01*
X150385465Y-127231523D01*
X150190787Y-127294778D01*
X150190775Y-127294782D01*
X150008387Y-127387714D01*
X149842787Y-127508028D01*
X149842779Y-127508035D01*
X149754859Y-127595956D01*
X149688064Y-127634520D01*
X149610936Y-127634520D01*
X149544141Y-127595956D01*
X149505577Y-127529161D01*
X149500500Y-127490597D01*
X149500500Y-126009403D01*
X149520462Y-125934903D01*
X149575000Y-125880365D01*
X149649500Y-125860403D01*
X149724000Y-125880365D01*
X149754859Y-125904044D01*
X149842779Y-125991964D01*
X149842787Y-125991971D01*
X150008387Y-126112285D01*
X150008390Y-126112287D01*
X150190781Y-126205220D01*
X150385466Y-126268477D01*
X150587648Y-126300500D01*
X150587653Y-126300500D01*
X150792347Y-126300500D01*
X150792352Y-126300500D01*
X150994534Y-126268477D01*
X151189219Y-126205220D01*
X151371610Y-126112287D01*
X151486307Y-126028954D01*
X151558311Y-126001316D01*
X151573885Y-126000500D01*
X154333862Y-126000500D01*
X154408362Y-126020462D01*
X154439221Y-126044141D01*
X156977538Y-128582459D01*
X157016102Y-128649254D01*
X157019344Y-128664509D01*
X157041520Y-128804523D01*
X157041522Y-128804532D01*
X157104778Y-128999212D01*
X157104782Y-128999224D01*
X157197714Y-129181612D01*
X157318028Y-129347212D01*
X157318035Y-129347220D01*
X157462779Y-129491964D01*
X157462787Y-129491971D01*
X157628387Y-129612285D01*
X157628390Y-129612287D01*
X157779207Y-129689132D01*
X157802828Y-129701168D01*
X157810781Y-129705220D01*
X158005466Y-129768477D01*
X158207648Y-129800500D01*
X158207653Y-129800500D01*
X158412347Y-129800500D01*
X158412352Y-129800500D01*
X158614534Y-129768477D01*
X158809219Y-129705220D01*
X158991610Y-129612287D01*
X159106307Y-129528954D01*
X159178311Y-129501316D01*
X159193885Y-129500500D01*
X161308960Y-129500500D01*
X161383460Y-129520462D01*
X161437998Y-129575000D01*
X161450667Y-129603455D01*
X161478506Y-129689132D01*
X161482416Y-129701168D01*
X161494779Y-129739215D01*
X161494782Y-129739224D01*
X161587714Y-129921612D01*
X161708028Y-130087212D01*
X161708035Y-130087220D01*
X161852779Y-130231964D01*
X161852787Y-130231971D01*
X161914951Y-130277135D01*
X162018390Y-130352287D01*
X162067363Y-130377240D01*
X162095716Y-130402770D01*
X162124286Y-130428245D01*
X162124403Y-130428599D01*
X162124680Y-130428849D01*
X162136487Y-130465188D01*
X162148474Y-130501482D01*
X162148398Y-130501846D01*
X162148514Y-130502203D01*
X162140558Y-130539630D01*
X162132804Y-130577002D01*
X162132563Y-130577243D01*
X162132478Y-130577645D01*
X162081473Y-130634568D01*
X162074642Y-130639050D01*
X162018390Y-130667713D01*
X161900819Y-130753132D01*
X161897870Y-130755068D01*
X161864502Y-130766088D01*
X161831689Y-130778684D01*
X161825361Y-130779015D01*
X161824633Y-130779256D01*
X161823854Y-130779094D01*
X161816115Y-130779500D01*
X158785790Y-130779500D01*
X158739746Y-130772207D01*
X158728266Y-130768477D01*
X158614534Y-130731523D01*
X158412352Y-130699500D01*
X158207648Y-130699500D01*
X158039163Y-130726185D01*
X158005465Y-130731523D01*
X157810787Y-130794778D01*
X157810775Y-130794782D01*
X157628387Y-130887714D01*
X157462787Y-131008028D01*
X157462779Y-131008035D01*
X157318035Y-131152779D01*
X157318028Y-131152787D01*
X157197714Y-131318387D01*
X157104782Y-131500775D01*
X157104780Y-131500781D01*
X157041523Y-131695466D01*
X157009500Y-131897648D01*
X157009500Y-132102352D01*
X157037514Y-132279224D01*
X157041523Y-132304534D01*
X157104778Y-132499212D01*
X157104782Y-132499224D01*
X157142841Y-132573918D01*
X157197147Y-132680500D01*
X157197714Y-132681611D01*
X157197719Y-132681620D01*
X157281043Y-132796305D01*
X157308684Y-132868310D01*
X157309500Y-132883885D01*
X157309500Y-134616114D01*
X157289538Y-134690614D01*
X157281044Y-134703693D01*
X157197714Y-134818387D01*
X157104782Y-135000775D01*
X157104778Y-135000787D01*
X157041523Y-135195465D01*
X157039755Y-135206629D01*
X157009500Y-135397648D01*
X157009500Y-135602352D01*
X157041523Y-135804534D01*
X157104778Y-135999212D01*
X157104782Y-135999224D01*
X157197714Y-136181612D01*
X157318028Y-136347212D01*
X157318035Y-136347220D01*
X157462779Y-136491964D01*
X157462787Y-136491971D01*
X157628387Y-136612285D01*
X157628390Y-136612287D01*
X157810781Y-136705220D01*
X158005466Y-136768477D01*
X158207648Y-136800500D01*
X158207653Y-136800500D01*
X158412347Y-136800500D01*
X158412352Y-136800500D01*
X158614534Y-136768477D01*
X158809219Y-136705220D01*
X158991610Y-136612287D01*
X159157219Y-136491966D01*
X159301966Y-136347219D01*
X159422287Y-136181610D01*
X159515220Y-135999219D01*
X159578477Y-135804534D01*
X159610500Y-135602352D01*
X159610500Y-135397648D01*
X159578477Y-135195466D01*
X159515220Y-135000781D01*
X159422287Y-134818390D01*
X159400860Y-134788898D01*
X159338956Y-134703693D01*
X159311316Y-134631688D01*
X159310500Y-134616114D01*
X159310500Y-132929500D01*
X159330462Y-132855000D01*
X159385000Y-132800462D01*
X159459500Y-132780500D01*
X161816115Y-132780500D01*
X161820345Y-132781633D01*
X161824633Y-132780744D01*
X161847564Y-132788926D01*
X161890615Y-132800462D01*
X161897870Y-132804932D01*
X161900819Y-132806867D01*
X162018390Y-132892287D01*
X162074642Y-132920949D01*
X162081473Y-132925432D01*
X162101888Y-132948326D01*
X162124680Y-132968849D01*
X162127255Y-132976775D01*
X162132804Y-132982998D01*
X162139036Y-133013032D01*
X162148514Y-133042203D01*
X162146780Y-133050357D01*
X162148474Y-133058518D01*
X162138855Y-133087639D01*
X162132478Y-133117645D01*
X162126900Y-133123839D01*
X162124286Y-133131755D01*
X162101391Y-133152170D01*
X162080869Y-133174962D01*
X162067363Y-133182760D01*
X162018388Y-133207714D01*
X161852787Y-133328028D01*
X161852779Y-133328035D01*
X161708035Y-133472779D01*
X161708028Y-133472787D01*
X161587714Y-133638387D01*
X161494782Y-133820775D01*
X161494780Y-133820781D01*
X161431523Y-134015466D01*
X161399500Y-134217648D01*
X161399500Y-134422352D01*
X161431523Y-134624534D01*
X161480633Y-134775680D01*
X161494778Y-134819212D01*
X161494782Y-134819224D01*
X161543806Y-134915438D01*
X161587713Y-135001610D01*
X161587714Y-135001612D01*
X161587719Y-135001620D01*
X161671043Y-135116305D01*
X161698684Y-135188310D01*
X161699500Y-135203885D01*
X161699500Y-137184933D01*
X161679538Y-137259433D01*
X161671045Y-137272511D01*
X161637713Y-137318388D01*
X161544782Y-137500775D01*
X161544780Y-137500781D01*
X161481523Y-137695466D01*
X161449500Y-137897648D01*
X161449500Y-138102352D01*
X161481523Y-138304534D01*
X161516569Y-138412396D01*
X161544778Y-138499212D01*
X161544782Y-138499224D01*
X161637714Y-138681612D01*
X161758028Y-138847212D01*
X161758035Y-138847220D01*
X161902779Y-138991964D01*
X161902787Y-138991971D01*
X162068387Y-139112285D01*
X162068390Y-139112287D01*
X162250781Y-139205220D01*
X162445466Y-139268477D01*
X162647648Y-139300500D01*
X162647653Y-139300500D01*
X162852347Y-139300500D01*
X162852352Y-139300500D01*
X163054534Y-139268477D01*
X163249219Y-139205220D01*
X163431610Y-139112287D01*
X163597219Y-138991966D01*
X163741966Y-138847219D01*
X163862287Y-138681610D01*
X163955220Y-138499219D01*
X164018477Y-138304534D01*
X164050500Y-138102352D01*
X164050500Y-137897648D01*
X164018477Y-137695466D01*
X163955220Y-137500781D01*
X163862287Y-137318390D01*
X163862285Y-137318387D01*
X163741971Y-137152787D01*
X163738165Y-137148331D01*
X163739605Y-137147100D01*
X163705577Y-137088161D01*
X163700500Y-137049597D01*
X163700500Y-135203885D01*
X163720462Y-135129385D01*
X163728957Y-135116305D01*
X163812280Y-135001620D01*
X163812280Y-135001618D01*
X163812287Y-135001610D01*
X163905220Y-134819219D01*
X163968477Y-134624534D01*
X164000500Y-134422352D01*
X164000500Y-134217648D01*
X163968477Y-134015466D01*
X163905220Y-133820781D01*
X163812287Y-133638390D01*
X163755978Y-133560886D01*
X163691971Y-133472787D01*
X163691964Y-133472779D01*
X163547220Y-133328035D01*
X163547212Y-133328028D01*
X163381609Y-133207712D01*
X163332637Y-133182760D01*
X163275319Y-133131152D01*
X163251485Y-133057798D01*
X163267521Y-132982356D01*
X163319129Y-132925038D01*
X163332637Y-132917240D01*
X163381610Y-132892287D01*
X163547219Y-132771966D01*
X163691966Y-132627219D01*
X163812287Y-132461610D01*
X163905220Y-132279219D01*
X163968477Y-132084534D01*
X164000500Y-131882352D01*
X164000500Y-131677648D01*
X163968477Y-131475466D01*
X163905220Y-131280781D01*
X163812287Y-131098390D01*
X163812285Y-131098387D01*
X163691971Y-130932787D01*
X163691964Y-130932779D01*
X163547220Y-130788035D01*
X163547212Y-130788028D01*
X163381609Y-130667712D01*
X163332637Y-130642760D01*
X163275319Y-130591152D01*
X163251485Y-130517798D01*
X163267521Y-130442356D01*
X163319129Y-130385038D01*
X163332637Y-130377240D01*
X163381610Y-130352287D01*
X163547219Y-130231966D01*
X163691966Y-130087219D01*
X163812287Y-129921610D01*
X163905220Y-129739219D01*
X163934574Y-129648877D01*
X163976580Y-129584191D01*
X164045302Y-129549176D01*
X164122324Y-129553213D01*
X164181640Y-129589561D01*
X164955859Y-130363780D01*
X164994423Y-130430575D01*
X164999500Y-130469139D01*
X164999500Y-130598541D01*
X165007581Y-130639168D01*
X165013224Y-130667538D01*
X165037948Y-130791835D01*
X165037950Y-130791840D01*
X165049152Y-130818883D01*
X165113368Y-130973916D01*
X165196538Y-131098387D01*
X165222861Y-131137782D01*
X165362218Y-131277139D01*
X165362221Y-131277141D01*
X169039115Y-134954035D01*
X169039122Y-134954043D01*
X169042861Y-134957782D01*
X169182218Y-135097139D01*
X169230478Y-135129385D01*
X169346081Y-135206629D01*
X169346082Y-135206629D01*
X169346086Y-135206632D01*
X169355167Y-135210393D01*
X169403507Y-135242692D01*
X169472779Y-135311964D01*
X169472787Y-135311971D01*
X169638387Y-135432285D01*
X169638390Y-135432287D01*
X169820781Y-135525220D01*
X170015466Y-135588477D01*
X170217648Y-135620500D01*
X170217653Y-135620500D01*
X170422347Y-135620500D01*
X170422352Y-135620500D01*
X170624534Y-135588477D01*
X170819219Y-135525220D01*
X171001610Y-135432287D01*
X171167219Y-135311966D01*
X171311966Y-135167219D01*
X171432287Y-135001610D01*
X171525220Y-134819219D01*
X171588477Y-134624534D01*
X171620500Y-134422352D01*
X171620500Y-134217648D01*
X171588477Y-134015466D01*
X171525220Y-133820781D01*
X171432287Y-133638390D01*
X171375978Y-133560886D01*
X171311971Y-133472787D01*
X171311964Y-133472779D01*
X171167220Y-133328035D01*
X171167212Y-133328028D01*
X171001609Y-133207712D01*
X170952637Y-133182760D01*
X170895319Y-133131152D01*
X170871485Y-133057798D01*
X170887521Y-132982356D01*
X170939129Y-132925038D01*
X170952637Y-132917240D01*
X171001610Y-132892287D01*
X171167219Y-132771966D01*
X171311966Y-132627219D01*
X171432287Y-132461610D01*
X171525220Y-132279219D01*
X171588477Y-132084534D01*
X171620500Y-131882352D01*
X171620500Y-131677648D01*
X171588477Y-131475466D01*
X171525220Y-131280781D01*
X171432287Y-131098390D01*
X171432285Y-131098387D01*
X171348956Y-130983693D01*
X171321316Y-130911688D01*
X171320500Y-130896114D01*
X171320500Y-130389500D01*
X171340462Y-130315000D01*
X171395000Y-130260462D01*
X171469500Y-130240500D01*
X173544579Y-130240500D01*
X173619079Y-130260462D01*
X173665123Y-130301921D01*
X173698028Y-130347212D01*
X173698035Y-130347220D01*
X173842779Y-130491964D01*
X173842787Y-130491971D01*
X173979300Y-130591152D01*
X174008390Y-130612287D01*
X174190781Y-130705220D01*
X174385466Y-130768477D01*
X174587648Y-130800500D01*
X174587653Y-130800500D01*
X174792347Y-130800500D01*
X174792352Y-130800500D01*
X174994534Y-130768477D01*
X175189219Y-130705220D01*
X175371610Y-130612287D01*
X175537219Y-130491966D01*
X175681966Y-130347219D01*
X175802287Y-130181610D01*
X175895220Y-129999219D01*
X175958477Y-129804534D01*
X175990500Y-129602352D01*
X175990500Y-129397648D01*
X175958477Y-129195466D01*
X175895220Y-129000781D01*
X175802287Y-128818390D01*
X175745906Y-128740787D01*
X175681971Y-128652787D01*
X175681964Y-128652779D01*
X175537220Y-128508035D01*
X175537212Y-128508028D01*
X175371612Y-128387714D01*
X175189224Y-128294782D01*
X175189220Y-128294780D01*
X175189219Y-128294780D01*
X174994534Y-128231523D01*
X174792352Y-128199500D01*
X174587648Y-128199500D01*
X174489357Y-128215068D01*
X174385461Y-128231523D01*
X174383356Y-128232208D01*
X174381166Y-128232554D01*
X174379770Y-128232890D01*
X174379743Y-128232780D01*
X174337314Y-128239500D01*
X171203885Y-128239500D01*
X171199654Y-128238366D01*
X171195368Y-128239256D01*
X171172437Y-128231073D01*
X171129385Y-128219538D01*
X171122131Y-128215068D01*
X171119171Y-128213125D01*
X171001610Y-128127713D01*
X170945357Y-128099050D01*
X170938527Y-128094568D01*
X170918114Y-128071677D01*
X170895319Y-128051152D01*
X170892742Y-128043223D01*
X170887195Y-128037002D01*
X170880963Y-128006969D01*
X170871485Y-127977798D01*
X170873218Y-127969643D01*
X170871525Y-127961483D01*
X170881143Y-127932361D01*
X170887521Y-127902356D01*
X170893098Y-127896160D01*
X170895713Y-127888246D01*
X170918603Y-127867833D01*
X170939129Y-127845038D01*
X170952637Y-127837240D01*
X171001606Y-127812289D01*
X171001605Y-127812289D01*
X171001610Y-127812287D01*
X171116307Y-127728954D01*
X171188311Y-127701316D01*
X171203885Y-127700500D01*
X173148537Y-127700500D01*
X173148540Y-127700500D01*
X173148541Y-127700500D01*
X173245188Y-127681275D01*
X173341836Y-127662051D01*
X173395165Y-127639961D01*
X173523914Y-127586632D01*
X173687782Y-127477139D01*
X173827139Y-127337782D01*
X173827139Y-127337780D01*
X173832459Y-127332461D01*
X173899253Y-127293897D01*
X173914504Y-127290655D01*
X174054534Y-127268477D01*
X174249219Y-127205220D01*
X174431610Y-127112287D01*
X174597219Y-126991966D01*
X174741966Y-126847219D01*
X174862287Y-126681610D01*
X174955220Y-126499219D01*
X175018477Y-126304534D01*
X175050500Y-126102352D01*
X175050500Y-125897648D01*
X175018477Y-125695466D01*
X174955220Y-125500781D01*
X174862287Y-125318390D01*
X174852220Y-125304534D01*
X174741971Y-125152787D01*
X174741964Y-125152779D01*
X174597220Y-125008035D01*
X174597212Y-125008028D01*
X174431612Y-124887714D01*
X174249224Y-124794782D01*
X174249220Y-124794780D01*
X174249219Y-124794780D01*
X174054534Y-124731523D01*
X173852352Y-124699500D01*
X173647648Y-124699500D01*
X173479163Y-124726185D01*
X173445465Y-124731523D01*
X173250787Y-124794778D01*
X173250775Y-124794782D01*
X173068387Y-124887714D01*
X172902787Y-125008028D01*
X172902779Y-125008035D01*
X172758035Y-125152779D01*
X172758028Y-125152787D01*
X172637714Y-125318387D01*
X172544782Y-125500775D01*
X172544776Y-125500790D01*
X172513665Y-125596543D01*
X172471659Y-125661228D01*
X172402937Y-125696244D01*
X172371958Y-125699500D01*
X171203885Y-125699500D01*
X171129385Y-125679538D01*
X171116317Y-125671052D01*
X171001610Y-125587713D01*
X170995476Y-125584587D01*
X170819224Y-125494782D01*
X170819220Y-125494780D01*
X170819219Y-125494780D01*
X170624534Y-125431523D01*
X170422352Y-125399500D01*
X170217648Y-125399500D01*
X170049163Y-125426185D01*
X170015465Y-125431523D01*
X169820787Y-125494778D01*
X169820775Y-125494782D01*
X169638387Y-125587714D01*
X169472787Y-125708028D01*
X169472779Y-125708035D01*
X169328035Y-125852779D01*
X169328028Y-125852787D01*
X169207714Y-126018387D01*
X169114782Y-126200775D01*
X169114778Y-126200787D01*
X169077037Y-126316943D01*
X169051523Y-126395466D01*
X169019500Y-126597648D01*
X169019500Y-126802352D01*
X169051523Y-127004534D01*
X169086533Y-127112285D01*
X169114778Y-127199212D01*
X169114782Y-127199224D01*
X169207714Y-127381612D01*
X169328028Y-127547212D01*
X169328035Y-127547220D01*
X169472779Y-127691964D01*
X169472787Y-127691971D01*
X169562130Y-127756881D01*
X169638390Y-127812287D01*
X169687363Y-127837240D01*
X169744680Y-127888849D01*
X169768514Y-127962203D01*
X169752478Y-128037645D01*
X169700869Y-128094962D01*
X169687363Y-128102760D01*
X169638388Y-128127714D01*
X169472787Y-128248028D01*
X169472779Y-128248035D01*
X169328035Y-128392779D01*
X169328028Y-128392787D01*
X169207714Y-128558387D01*
X169114782Y-128740775D01*
X169114780Y-128740781D01*
X169051523Y-128935466D01*
X169019500Y-129137648D01*
X169019500Y-129342352D01*
X169051523Y-129544534D01*
X169103733Y-129705221D01*
X169114778Y-129739212D01*
X169114782Y-129739224D01*
X169142526Y-129793674D01*
X169207713Y-129921610D01*
X169207714Y-129921612D01*
X169207719Y-129921620D01*
X169291043Y-130036305D01*
X169318684Y-130108310D01*
X169319500Y-130123885D01*
X169319500Y-130896114D01*
X169299538Y-130970614D01*
X169291044Y-130983693D01*
X169207714Y-131098387D01*
X169114782Y-131280775D01*
X169114780Y-131280781D01*
X169051523Y-131475466D01*
X169019500Y-131677648D01*
X169019500Y-131677652D01*
X169019500Y-131744862D01*
X168999538Y-131819362D01*
X168945000Y-131873900D01*
X168870500Y-131893862D01*
X168796000Y-131873900D01*
X168765141Y-131850221D01*
X167044141Y-130129221D01*
X167036883Y-130116650D01*
X167025933Y-130107122D01*
X167019810Y-130087079D01*
X167005577Y-130062426D01*
X167000858Y-130034183D01*
X167000500Y-130029027D01*
X167000500Y-129894460D01*
X166987993Y-129831584D01*
X166962052Y-129701166D01*
X166886632Y-129519087D01*
X166886629Y-129519081D01*
X166804107Y-129395579D01*
X166777140Y-129355220D01*
X165390397Y-127968477D01*
X164044140Y-126622220D01*
X164005576Y-126555425D01*
X164000499Y-126516861D01*
X164000499Y-125852136D01*
X164000499Y-125852128D01*
X163994091Y-125792517D01*
X163979588Y-125753633D01*
X163943797Y-125657670D01*
X163943795Y-125657666D01*
X163857547Y-125542455D01*
X163857544Y-125542452D01*
X163742333Y-125456204D01*
X163742329Y-125456202D01*
X163607482Y-125405908D01*
X163547885Y-125399500D01*
X163547873Y-125399500D01*
X162876138Y-125399500D01*
X162801638Y-125379538D01*
X162770779Y-125355859D01*
X161777141Y-124362221D01*
X161777140Y-124362220D01*
X161777139Y-124362218D01*
X161637782Y-124222861D01*
X161604919Y-124200902D01*
X161473919Y-124113370D01*
X161473909Y-124113365D01*
X161384868Y-124076483D01*
X161345165Y-124060038D01*
X161318500Y-124048993D01*
X161291837Y-124037949D01*
X161195188Y-124018724D01*
X161195188Y-124018723D01*
X161098541Y-123999500D01*
X159193885Y-123999500D01*
X159119385Y-123979538D01*
X159106317Y-123971052D01*
X158991610Y-123887713D01*
X158985476Y-123884587D01*
X158809224Y-123794782D01*
X158809220Y-123794780D01*
X158809219Y-123794780D01*
X158614534Y-123731523D01*
X158412352Y-123699500D01*
X158207648Y-123699500D01*
X158039163Y-123726185D01*
X158005465Y-123731523D01*
X157810787Y-123794778D01*
X157810775Y-123794782D01*
X157628387Y-123887714D01*
X157462787Y-124008028D01*
X157462779Y-124008035D01*
X157318035Y-124152779D01*
X157318028Y-124152787D01*
X157197714Y-124318387D01*
X157104782Y-124500775D01*
X157104780Y-124500781D01*
X157041523Y-124695466D01*
X157009500Y-124897648D01*
X157009500Y-125102352D01*
X157041523Y-125304534D01*
X157096199Y-125472809D01*
X157100236Y-125549832D01*
X157065221Y-125618553D01*
X157000536Y-125660560D01*
X156923513Y-125664597D01*
X156854792Y-125629582D01*
X156849133Y-125624212D01*
X155595634Y-124370714D01*
X155595632Y-124370711D01*
X155447785Y-124222864D01*
X155447782Y-124222861D01*
X155414919Y-124200902D01*
X155283919Y-124113370D01*
X155283909Y-124113365D01*
X155194868Y-124076483D01*
X155155165Y-124060038D01*
X155128500Y-124048993D01*
X155101837Y-124037949D01*
X155005188Y-124018724D01*
X155005188Y-124018723D01*
X154908541Y-123999500D01*
X151573885Y-123999500D01*
X151499385Y-123979538D01*
X151486317Y-123971052D01*
X151371610Y-123887713D01*
X151365476Y-123884587D01*
X151189224Y-123794782D01*
X151189220Y-123794780D01*
X151189219Y-123794780D01*
X150994534Y-123731523D01*
X150792352Y-123699500D01*
X150587648Y-123699500D01*
X150419163Y-123726185D01*
X150385465Y-123731523D01*
X150190787Y-123794778D01*
X150190775Y-123794782D01*
X150008387Y-123887714D01*
X149842787Y-124008028D01*
X149842779Y-124008035D01*
X149754859Y-124095956D01*
X149688064Y-124134520D01*
X149610936Y-124134520D01*
X149544141Y-124095956D01*
X149505577Y-124029161D01*
X149500500Y-123990597D01*
X149500500Y-123666137D01*
X149520462Y-123591637D01*
X149544137Y-123560782D01*
X150772459Y-122332459D01*
X150839252Y-122293897D01*
X150854496Y-122290656D01*
X150994534Y-122268477D01*
X151189219Y-122205220D01*
X151371610Y-122112287D01*
X151537219Y-121991966D01*
X151681966Y-121847219D01*
X151802287Y-121681610D01*
X151895220Y-121499219D01*
X151958477Y-121304534D01*
X151990500Y-121102352D01*
X151990500Y-120897648D01*
X157009500Y-120897648D01*
X157009500Y-121102352D01*
X157041523Y-121304534D01*
X157076559Y-121412365D01*
X157104778Y-121499212D01*
X157104782Y-121499224D01*
X157197714Y-121681612D01*
X157318028Y-121847212D01*
X157318035Y-121847220D01*
X157462779Y-121991964D01*
X157462787Y-121991971D01*
X157628387Y-122112285D01*
X157628390Y-122112287D01*
X157810781Y-122205220D01*
X158005466Y-122268477D01*
X158207648Y-122300500D01*
X158207653Y-122300500D01*
X158412347Y-122300500D01*
X158412352Y-122300500D01*
X158614534Y-122268477D01*
X158809219Y-122205220D01*
X158991610Y-122112287D01*
X159106307Y-122028954D01*
X159178311Y-122001316D01*
X159193885Y-122000500D01*
X164833537Y-122000500D01*
X164833540Y-122000500D01*
X164833541Y-122000500D01*
X164930188Y-121981275D01*
X165026836Y-121962051D01*
X165080165Y-121939961D01*
X165148054Y-121911840D01*
X165205070Y-121900500D01*
X165345218Y-121900500D01*
X165345222Y-121900500D01*
X165562951Y-121866015D01*
X165562952Y-121866014D01*
X165562956Y-121866014D01*
X165643556Y-121839825D01*
X165772606Y-121797895D01*
X165969022Y-121697815D01*
X166147365Y-121568242D01*
X166303242Y-121412365D01*
X166432815Y-121234022D01*
X166532895Y-121037606D01*
X166578368Y-120897652D01*
X166601014Y-120827956D01*
X166606735Y-120791836D01*
X166635500Y-120610222D01*
X166635500Y-120389778D01*
X166601015Y-120172049D01*
X166601014Y-120172048D01*
X166601014Y-120172043D01*
X166547722Y-120008028D01*
X166532895Y-119962394D01*
X166432815Y-119765978D01*
X166303242Y-119587635D01*
X166147365Y-119431758D01*
X166058193Y-119366971D01*
X165969024Y-119302186D01*
X165969023Y-119302185D01*
X165772606Y-119202105D01*
X165562956Y-119133985D01*
X165441990Y-119114826D01*
X165345222Y-119099500D01*
X165124778Y-119099500D01*
X165037686Y-119113294D01*
X164907043Y-119133985D01*
X164697393Y-119202105D01*
X164500976Y-119302185D01*
X164500975Y-119302186D01*
X164322636Y-119431757D01*
X164322633Y-119431759D01*
X164166759Y-119587633D01*
X164166757Y-119587636D01*
X164037186Y-119765975D01*
X164037185Y-119765976D01*
X163959651Y-119918145D01*
X163908041Y-119975462D01*
X163834688Y-119999296D01*
X163826891Y-119999500D01*
X159193885Y-119999500D01*
X159119385Y-119979538D01*
X159106317Y-119971052D01*
X158991610Y-119887713D01*
X158985476Y-119884587D01*
X158809224Y-119794782D01*
X158809220Y-119794780D01*
X158809219Y-119794780D01*
X158614534Y-119731523D01*
X158412352Y-119699500D01*
X158207648Y-119699500D01*
X158039163Y-119726185D01*
X158005465Y-119731523D01*
X157810787Y-119794778D01*
X157810775Y-119794782D01*
X157628387Y-119887714D01*
X157462787Y-120008028D01*
X157462779Y-120008035D01*
X157318035Y-120152779D01*
X157318028Y-120152787D01*
X157197714Y-120318387D01*
X157104782Y-120500775D01*
X157104778Y-120500787D01*
X157041523Y-120695465D01*
X157035118Y-120735902D01*
X157009500Y-120897648D01*
X151990500Y-120897648D01*
X151958477Y-120695466D01*
X151895220Y-120500781D01*
X151854783Y-120421420D01*
X151802286Y-120318388D01*
X151778955Y-120286275D01*
X151751316Y-120214269D01*
X151750500Y-120198697D01*
X151750500Y-116883885D01*
X151770462Y-116809385D01*
X151778957Y-116796305D01*
X151862280Y-116681620D01*
X151862280Y-116681618D01*
X151862287Y-116681610D01*
X151955220Y-116499219D01*
X152018477Y-116304534D01*
X152050500Y-116102352D01*
X152050500Y-115897648D01*
X152018477Y-115695466D01*
X151955220Y-115500781D01*
X151862287Y-115318390D01*
X151862285Y-115318387D01*
X151741971Y-115152787D01*
X151741964Y-115152779D01*
X151724141Y-115134956D01*
X151685577Y-115068161D01*
X151680500Y-115029597D01*
X151680500Y-114649500D01*
X151700462Y-114575000D01*
X151755000Y-114520462D01*
X151829500Y-114500500D01*
X151978540Y-114500500D01*
X153523862Y-114500500D01*
X153598362Y-114520462D01*
X153629221Y-114544141D01*
X155719115Y-116634035D01*
X155719122Y-116634043D01*
X155722861Y-116637782D01*
X155862218Y-116777139D01*
X155910478Y-116809385D01*
X156026082Y-116886630D01*
X156026084Y-116886631D01*
X156026086Y-116886632D01*
X156131994Y-116930500D01*
X156208164Y-116962051D01*
X156304812Y-116981275D01*
X156401459Y-117000500D01*
X156401460Y-117000500D01*
X156401463Y-117000500D01*
X164098537Y-117000500D01*
X164098540Y-117000500D01*
X164098541Y-117000500D01*
X164195188Y-116981275D01*
X164291836Y-116962051D01*
X164368006Y-116930500D01*
X164473914Y-116886632D01*
X164637782Y-116777139D01*
X164777139Y-116637782D01*
X164777139Y-116637780D01*
X164789401Y-116625519D01*
X164789404Y-116625514D01*
X167172805Y-114242114D01*
X174519500Y-114242114D01*
X174519500Y-115837863D01*
X174519502Y-115837888D01*
X174525908Y-115897478D01*
X174525909Y-115897484D01*
X174576202Y-116032329D01*
X174576204Y-116032333D01*
X174662452Y-116147544D01*
X174662455Y-116147547D01*
X174777666Y-116233795D01*
X174777670Y-116233797D01*
X174912517Y-116284091D01*
X174972114Y-116290499D01*
X174972118Y-116290499D01*
X174972127Y-116290500D01*
X176567872Y-116290499D01*
X176627483Y-116284091D01*
X176723447Y-116248298D01*
X176762329Y-116233797D01*
X176762333Y-116233795D01*
X176819938Y-116190671D01*
X176877546Y-116147546D01*
X176912984Y-116100206D01*
X176973610Y-116052530D01*
X177032264Y-116040500D01*
X179308537Y-116040500D01*
X179308540Y-116040500D01*
X179308541Y-116040500D01*
X179405188Y-116021275D01*
X179501836Y-116002051D01*
X179555165Y-115979961D01*
X179683914Y-115926632D01*
X179847782Y-115817139D01*
X179987139Y-115677782D01*
X179987139Y-115677780D01*
X179999401Y-115665519D01*
X179999405Y-115665514D01*
X180582459Y-115082459D01*
X180649252Y-115043897D01*
X180664496Y-115040656D01*
X180804534Y-115018477D01*
X180999219Y-114955220D01*
X181181610Y-114862287D01*
X181347219Y-114741966D01*
X181491966Y-114597219D01*
X181612287Y-114431610D01*
X181705220Y-114249219D01*
X181768477Y-114054534D01*
X181800500Y-113852352D01*
X181800500Y-113647648D01*
X181768477Y-113445466D01*
X181705220Y-113250781D01*
X181612287Y-113068390D01*
X181604784Y-113058063D01*
X181491971Y-112902787D01*
X181491964Y-112902779D01*
X181347220Y-112758035D01*
X181347212Y-112758028D01*
X181181612Y-112637714D01*
X180999224Y-112544782D01*
X180999220Y-112544780D01*
X180999219Y-112544780D01*
X180804534Y-112481523D01*
X180602352Y-112449500D01*
X180397648Y-112449500D01*
X180229163Y-112476185D01*
X180195465Y-112481523D01*
X180000787Y-112544778D01*
X180000775Y-112544782D01*
X179818387Y-112637714D01*
X179652787Y-112758028D01*
X179652779Y-112758035D01*
X179508035Y-112902779D01*
X179508028Y-112902787D01*
X179387714Y-113068387D01*
X179294782Y-113250775D01*
X179294778Y-113250787D01*
X179231522Y-113445467D01*
X179231520Y-113445476D01*
X179209344Y-113585490D01*
X179177973Y-113655950D01*
X179167538Y-113667540D01*
X178839221Y-113995859D01*
X178772426Y-114034423D01*
X178733862Y-114039500D01*
X177032264Y-114039500D01*
X176957764Y-114019538D01*
X176912984Y-113979793D01*
X176877547Y-113932455D01*
X176877544Y-113932452D01*
X176762333Y-113846204D01*
X176762329Y-113846202D01*
X176627482Y-113795908D01*
X176567876Y-113789500D01*
X174972136Y-113789500D01*
X174972111Y-113789502D01*
X174912521Y-113795908D01*
X174912515Y-113795909D01*
X174777670Y-113846202D01*
X174777666Y-113846204D01*
X174662455Y-113932452D01*
X174662452Y-113932455D01*
X174576204Y-114047666D01*
X174576202Y-114047670D01*
X174525908Y-114182517D01*
X174519500Y-114242114D01*
X167172805Y-114242114D01*
X168775797Y-112639122D01*
X168842590Y-112600560D01*
X168919718Y-112600560D01*
X168986513Y-112639124D01*
X169025077Y-112705919D01*
X169028319Y-112721174D01*
X169041520Y-112804523D01*
X169041522Y-112804532D01*
X169073445Y-112902779D01*
X169098543Y-112980025D01*
X169104778Y-112999212D01*
X169104782Y-112999224D01*
X169197714Y-113181612D01*
X169318028Y-113347212D01*
X169318035Y-113347220D01*
X169462779Y-113491964D01*
X169462787Y-113491971D01*
X169603345Y-113594091D01*
X169628390Y-113612287D01*
X169810781Y-113705220D01*
X170005466Y-113768477D01*
X170207648Y-113800500D01*
X170207653Y-113800500D01*
X170412347Y-113800500D01*
X170412352Y-113800500D01*
X170614534Y-113768477D01*
X170809219Y-113705220D01*
X170991610Y-113612287D01*
X171106307Y-113528954D01*
X171178311Y-113501316D01*
X171193885Y-113500500D01*
X172431179Y-113500500D01*
X172505679Y-113520462D01*
X172518751Y-113528950D01*
X172574595Y-113569524D01*
X172574599Y-113569526D01*
X172744216Y-113655950D01*
X172749975Y-113658884D01*
X172937174Y-113719709D01*
X173131583Y-113750500D01*
X173131588Y-113750500D01*
X173328412Y-113750500D01*
X173328417Y-113750500D01*
X173522826Y-113719709D01*
X173710025Y-113658884D01*
X173885405Y-113569524D01*
X174044646Y-113453828D01*
X174183828Y-113314646D01*
X174299524Y-113155405D01*
X174388884Y-112980025D01*
X174449709Y-112792826D01*
X174480500Y-112598417D01*
X174480500Y-112401583D01*
X174449709Y-112207174D01*
X174388884Y-112019975D01*
X174299524Y-111844595D01*
X174183828Y-111685354D01*
X174044646Y-111546172D01*
X173885405Y-111430476D01*
X173865751Y-111420462D01*
X173710036Y-111341121D01*
X173710030Y-111341119D01*
X173710025Y-111341116D01*
X173522826Y-111280291D01*
X173328417Y-111249500D01*
X173131583Y-111249500D01*
X172937174Y-111280291D01*
X172749975Y-111341116D01*
X172749972Y-111341117D01*
X172749963Y-111341121D01*
X172574599Y-111430473D01*
X172567120Y-111435906D01*
X172518757Y-111471044D01*
X172446754Y-111498684D01*
X172431179Y-111499500D01*
X171193885Y-111499500D01*
X171119385Y-111479538D01*
X171106317Y-111471052D01*
X170991610Y-111387713D01*
X170923849Y-111353187D01*
X170809224Y-111294782D01*
X170809220Y-111294780D01*
X170809219Y-111294780D01*
X170694994Y-111257666D01*
X170614532Y-111231522D01*
X170614523Y-111231520D01*
X170531175Y-111218319D01*
X170460715Y-111186948D01*
X170415380Y-111124550D01*
X170407319Y-111047845D01*
X170438690Y-110977385D01*
X170449115Y-110965805D01*
X171087140Y-110327781D01*
X171196632Y-110163914D01*
X171272052Y-109981835D01*
X171291268Y-109885228D01*
X171316861Y-109826718D01*
X171363722Y-109762218D01*
X171422287Y-109681610D01*
X171515220Y-109499219D01*
X171578477Y-109304534D01*
X171610500Y-109102352D01*
X171610500Y-108897648D01*
X171578477Y-108695466D01*
X171515220Y-108500781D01*
X171422287Y-108318390D01*
X171344970Y-108211971D01*
X171338956Y-108203693D01*
X171311316Y-108131688D01*
X171310500Y-108116114D01*
X171310500Y-103434767D01*
X171330462Y-103360267D01*
X171354137Y-103329412D01*
X172457946Y-102225603D01*
X172524738Y-102187041D01*
X172601866Y-102187041D01*
X172668661Y-102225605D01*
X172707225Y-102292400D01*
X172707225Y-102369528D01*
X172683846Y-102418543D01*
X172567714Y-102578387D01*
X172474782Y-102760775D01*
X172474778Y-102760787D01*
X172414020Y-102947782D01*
X172411523Y-102955466D01*
X172379500Y-103157648D01*
X172379500Y-103362352D01*
X172411523Y-103564534D01*
X172455715Y-103700544D01*
X172474778Y-103759212D01*
X172474782Y-103759224D01*
X172567714Y-103941612D01*
X172688028Y-104107212D01*
X172688035Y-104107220D01*
X172832779Y-104251964D01*
X172832787Y-104251971D01*
X172922130Y-104316881D01*
X172998390Y-104372287D01*
X173047363Y-104397240D01*
X173104680Y-104448849D01*
X173128514Y-104522203D01*
X173112478Y-104597645D01*
X173060869Y-104654962D01*
X173047363Y-104662760D01*
X172998388Y-104687714D01*
X172832787Y-104808028D01*
X172832779Y-104808035D01*
X172688035Y-104952779D01*
X172688028Y-104952787D01*
X172567714Y-105118387D01*
X172474782Y-105300775D01*
X172474778Y-105300787D01*
X172419408Y-105471200D01*
X172411523Y-105495466D01*
X172379500Y-105697648D01*
X172379500Y-105902352D01*
X172404318Y-106059043D01*
X172411523Y-106104534D01*
X172474778Y-106299212D01*
X172474782Y-106299224D01*
X172567714Y-106481612D01*
X172688028Y-106647212D01*
X172688035Y-106647220D01*
X172832779Y-106791964D01*
X172832787Y-106791971D01*
X172926706Y-106860206D01*
X172998390Y-106912287D01*
X173180781Y-107005220D01*
X173375466Y-107068477D01*
X173577648Y-107100500D01*
X173577653Y-107100500D01*
X173782347Y-107100500D01*
X173782352Y-107100500D01*
X173984534Y-107068477D01*
X174179219Y-107005220D01*
X174361610Y-106912287D01*
X174476307Y-106828954D01*
X174548311Y-106801316D01*
X174563885Y-106800500D01*
X179950305Y-106800500D01*
X180024805Y-106820462D01*
X180069585Y-106860206D01*
X180142455Y-106957547D01*
X180257666Y-107043795D01*
X180257670Y-107043797D01*
X180392517Y-107094091D01*
X180452114Y-107100499D01*
X180452118Y-107100499D01*
X180452127Y-107100500D01*
X182147872Y-107100499D01*
X182207483Y-107094091D01*
X182303447Y-107058298D01*
X182342329Y-107043797D01*
X182342333Y-107043795D01*
X182399938Y-107000671D01*
X182457546Y-106957546D01*
X182543796Y-106842331D01*
X182594091Y-106707483D01*
X182600500Y-106647873D01*
X182600499Y-104952128D01*
X182594091Y-104892517D01*
X182563608Y-104810787D01*
X182543797Y-104757670D01*
X182543795Y-104757666D01*
X182457547Y-104642455D01*
X182457544Y-104642452D01*
X182342333Y-104556204D01*
X182342329Y-104556202D01*
X182198751Y-104502652D01*
X182199738Y-104500003D01*
X182145313Y-104470696D01*
X182104787Y-104405073D01*
X182102502Y-104327979D01*
X182139070Y-104260071D01*
X182143155Y-104256182D01*
X182143079Y-104256106D01*
X182201472Y-104197713D01*
X182291966Y-104107219D01*
X182412287Y-103941610D01*
X182505220Y-103759219D01*
X182568477Y-103564534D01*
X182600500Y-103362352D01*
X182600500Y-103157648D01*
X182568477Y-102955466D01*
X182505220Y-102760781D01*
X182412287Y-102578390D01*
X182412285Y-102578387D01*
X182291971Y-102412787D01*
X182291964Y-102412779D01*
X182147220Y-102268035D01*
X182147212Y-102268028D01*
X181981612Y-102147714D01*
X181799224Y-102054782D01*
X181799220Y-102054780D01*
X181799219Y-102054780D01*
X181604534Y-101991523D01*
X181402352Y-101959500D01*
X181197648Y-101959500D01*
X181029163Y-101986185D01*
X180995465Y-101991523D01*
X180800787Y-102054778D01*
X180800775Y-102054782D01*
X180618387Y-102147714D01*
X180452787Y-102268028D01*
X180452779Y-102268035D01*
X180308035Y-102412779D01*
X180308028Y-102412787D01*
X180187714Y-102578387D01*
X180094782Y-102760775D01*
X180094778Y-102760787D01*
X180034020Y-102947782D01*
X180031523Y-102955466D01*
X179999500Y-103157648D01*
X179999500Y-103362352D01*
X180031523Y-103564534D01*
X180075715Y-103700544D01*
X180094778Y-103759212D01*
X180094782Y-103759224D01*
X180187714Y-103941612D01*
X180308028Y-104107212D01*
X180308035Y-104107220D01*
X180456921Y-104256106D01*
X180455294Y-104257732D01*
X180492953Y-104312537D01*
X180498998Y-104389428D01*
X180465787Y-104459040D01*
X180402220Y-104502720D01*
X180396752Y-104504329D01*
X180257670Y-104556202D01*
X180257666Y-104556204D01*
X180142455Y-104642452D01*
X180069585Y-104739794D01*
X180008957Y-104787470D01*
X179950305Y-104799500D01*
X174563885Y-104799500D01*
X174559654Y-104798366D01*
X174555368Y-104799256D01*
X174532437Y-104791073D01*
X174489385Y-104779538D01*
X174482131Y-104775068D01*
X174479171Y-104773125D01*
X174361610Y-104687713D01*
X174305357Y-104659050D01*
X174298527Y-104654568D01*
X174278114Y-104631677D01*
X174255319Y-104611152D01*
X174252742Y-104603223D01*
X174247195Y-104597002D01*
X174240963Y-104566969D01*
X174231485Y-104537798D01*
X174233218Y-104529643D01*
X174231525Y-104521483D01*
X174241143Y-104492361D01*
X174247521Y-104462356D01*
X174253098Y-104456160D01*
X174255713Y-104448246D01*
X174278603Y-104427833D01*
X174299129Y-104405038D01*
X174312637Y-104397240D01*
X174327969Y-104389428D01*
X174361610Y-104372287D01*
X174527219Y-104251966D01*
X174671966Y-104107219D01*
X174792287Y-103941610D01*
X174885220Y-103759219D01*
X174948477Y-103564534D01*
X174980500Y-103362352D01*
X174980500Y-103157648D01*
X174948477Y-102955466D01*
X174885220Y-102760781D01*
X174792287Y-102578390D01*
X174792285Y-102578387D01*
X174671971Y-102412787D01*
X174671964Y-102412779D01*
X174527220Y-102268035D01*
X174527212Y-102268028D01*
X174361609Y-102147712D01*
X174312637Y-102122760D01*
X174284219Y-102097173D01*
X174255713Y-102071754D01*
X174255596Y-102071402D01*
X174255319Y-102071152D01*
X174243471Y-102034688D01*
X174231525Y-101998517D01*
X174231600Y-101998153D01*
X174231485Y-101997798D01*
X174239427Y-101960432D01*
X174247195Y-101922998D01*
X174247436Y-101922755D01*
X174247521Y-101922356D01*
X174298527Y-101865432D01*
X174305357Y-101860949D01*
X174361610Y-101832287D01*
X174479171Y-101746874D01*
X174482131Y-101744932D01*
X174515490Y-101733914D01*
X174548311Y-101721316D01*
X174554640Y-101720984D01*
X174555368Y-101720744D01*
X174556146Y-101720905D01*
X174563885Y-101720500D01*
X175256541Y-101720500D01*
X175362295Y-101699464D01*
X175449836Y-101682051D01*
X175503165Y-101659961D01*
X175631914Y-101606632D01*
X175795782Y-101497139D01*
X175935139Y-101357782D01*
X175935139Y-101357780D01*
X175947401Y-101345519D01*
X175947404Y-101345514D01*
X178068780Y-99224141D01*
X178135575Y-99185577D01*
X178174139Y-99180500D01*
X180416115Y-99180500D01*
X180490615Y-99200462D01*
X180503682Y-99208947D01*
X180618390Y-99292287D01*
X180800781Y-99385220D01*
X180995466Y-99448477D01*
X181197648Y-99480500D01*
X181197653Y-99480500D01*
X181402347Y-99480500D01*
X181402352Y-99480500D01*
X181604534Y-99448477D01*
X181799219Y-99385220D01*
X181981610Y-99292287D01*
X182147219Y-99171966D01*
X182291966Y-99027219D01*
X182412287Y-98861610D01*
X182505220Y-98679219D01*
X182568477Y-98484534D01*
X182600500Y-98282352D01*
X182600500Y-98077648D01*
X182568477Y-97875466D01*
X182505220Y-97680781D01*
X182412287Y-97498390D01*
X182330243Y-97385465D01*
X182291971Y-97332787D01*
X182291964Y-97332779D01*
X182147220Y-97188035D01*
X182147212Y-97188028D01*
X181981612Y-97067714D01*
X181799224Y-96974782D01*
X181799220Y-96974780D01*
X181799219Y-96974780D01*
X181604534Y-96911523D01*
X181402352Y-96879500D01*
X181197648Y-96879500D01*
X181029163Y-96906185D01*
X180995465Y-96911523D01*
X180800787Y-96974778D01*
X180800775Y-96974782D01*
X180618391Y-97067712D01*
X180592959Y-97086189D01*
X180503692Y-97151045D01*
X180431689Y-97178684D01*
X180416115Y-97179500D01*
X177599459Y-97179500D01*
X177406168Y-97217947D01*
X177330743Y-97249189D01*
X177224090Y-97293365D01*
X177224080Y-97293370D01*
X177060219Y-97402860D01*
X177060214Y-97402864D01*
X174787221Y-99675859D01*
X174770233Y-99685666D01*
X174756362Y-99699538D01*
X174737413Y-99704615D01*
X174720426Y-99714423D01*
X174681862Y-99719500D01*
X174563885Y-99719500D01*
X174489385Y-99699538D01*
X174476317Y-99691052D01*
X174361610Y-99607713D01*
X174361606Y-99607710D01*
X174312637Y-99582760D01*
X174255319Y-99531152D01*
X174231485Y-99457798D01*
X174247521Y-99382356D01*
X174299129Y-99325038D01*
X174312637Y-99317240D01*
X174361610Y-99292287D01*
X174527219Y-99171966D01*
X174671966Y-99027219D01*
X174792287Y-98861610D01*
X174885220Y-98679219D01*
X174948477Y-98484534D01*
X174980500Y-98282352D01*
X174980500Y-98077648D01*
X174948477Y-97875466D01*
X174885220Y-97680781D01*
X174792287Y-97498390D01*
X174768817Y-97466086D01*
X174718956Y-97397456D01*
X174691316Y-97325450D01*
X174690500Y-97309877D01*
X174690500Y-93397648D01*
X176009500Y-93397648D01*
X176009500Y-93602352D01*
X176041523Y-93804534D01*
X176099244Y-93982182D01*
X176104778Y-93999212D01*
X176104782Y-93999224D01*
X176197714Y-94181612D01*
X176318028Y-94347212D01*
X176318035Y-94347220D01*
X176462779Y-94491964D01*
X176462787Y-94491971D01*
X176611042Y-94599683D01*
X176628390Y-94612287D01*
X176810781Y-94705220D01*
X177005466Y-94768477D01*
X177207648Y-94800500D01*
X177207653Y-94800500D01*
X177412347Y-94800500D01*
X177412352Y-94800500D01*
X177614534Y-94768477D01*
X177809219Y-94705220D01*
X177991610Y-94612287D01*
X178106307Y-94528954D01*
X178178311Y-94501316D01*
X178193885Y-94500500D01*
X182023862Y-94500500D01*
X182098362Y-94520462D01*
X182129220Y-94544140D01*
X190532860Y-102947781D01*
X190532861Y-102947782D01*
X190672218Y-103087139D01*
X190777742Y-103157648D01*
X190836081Y-103196629D01*
X190836083Y-103196630D01*
X190836086Y-103196632D01*
X190942745Y-103240811D01*
X191018164Y-103272051D01*
X191211459Y-103310500D01*
X192531048Y-103310500D01*
X192538748Y-103312563D01*
X192546623Y-103311316D01*
X192575585Y-103322433D01*
X192605548Y-103330462D01*
X192618628Y-103338956D01*
X192784482Y-103459456D01*
X192833020Y-103519396D01*
X192845086Y-103595575D01*
X192817446Y-103667580D01*
X192784482Y-103700544D01*
X192620209Y-103819895D01*
X192620206Y-103819897D01*
X192469897Y-103970206D01*
X192469895Y-103970209D01*
X192344950Y-104142181D01*
X192344950Y-104142182D01*
X192248446Y-104331582D01*
X192248441Y-104331594D01*
X192182754Y-104533756D01*
X192182114Y-104537798D01*
X192149500Y-104743713D01*
X192149500Y-104956287D01*
X192182754Y-105166243D01*
X192248443Y-105368412D01*
X192344949Y-105557816D01*
X192469896Y-105729792D01*
X192469898Y-105729794D01*
X192471044Y-105731371D01*
X192498684Y-105803376D01*
X192499500Y-105818951D01*
X192499500Y-120023862D01*
X192479538Y-120098362D01*
X192455859Y-120129221D01*
X184129221Y-128455859D01*
X184062426Y-128494423D01*
X184023862Y-128499500D01*
X183193885Y-128499500D01*
X183119385Y-128479538D01*
X183106317Y-128471052D01*
X182991610Y-128387713D01*
X182985476Y-128384587D01*
X182809224Y-128294782D01*
X182809220Y-128294780D01*
X182809219Y-128294780D01*
X182614534Y-128231523D01*
X182412352Y-128199500D01*
X182207648Y-128199500D01*
X182039163Y-128226185D01*
X182005465Y-128231523D01*
X181810787Y-128294778D01*
X181810775Y-128294782D01*
X181628387Y-128387714D01*
X181462787Y-128508028D01*
X181462779Y-128508035D01*
X181318035Y-128652779D01*
X181318028Y-128652787D01*
X181197714Y-128818387D01*
X181104782Y-129000775D01*
X181104780Y-129000781D01*
X181041523Y-129195466D01*
X181009500Y-129397648D01*
X181009500Y-129602352D01*
X181041523Y-129804534D01*
X181092318Y-129960866D01*
X181104778Y-129999212D01*
X181104782Y-129999224D01*
X181197713Y-130181610D01*
X181318028Y-130347212D01*
X181318035Y-130347220D01*
X181462779Y-130491964D01*
X181462787Y-130491971D01*
X181599300Y-130591152D01*
X181628390Y-130612287D01*
X181810781Y-130705220D01*
X182005466Y-130768477D01*
X182207648Y-130800500D01*
X182207653Y-130800500D01*
X182412347Y-130800500D01*
X182412352Y-130800500D01*
X182614534Y-130768477D01*
X182809219Y-130705220D01*
X182991610Y-130612287D01*
X183106307Y-130528954D01*
X183178311Y-130501316D01*
X183193885Y-130500500D01*
X184598541Y-130500500D01*
X184709564Y-130478416D01*
X184709574Y-130478414D01*
X184791836Y-130462051D01*
X184845165Y-130439961D01*
X184973914Y-130386632D01*
X185137782Y-130277139D01*
X185277139Y-130137782D01*
X185277140Y-130137780D01*
X185285625Y-130129295D01*
X185285631Y-130129288D01*
X194129288Y-121285631D01*
X194129295Y-121285625D01*
X194137780Y-121277140D01*
X194137782Y-121277139D01*
X194277139Y-121137782D01*
X194386632Y-120973914D01*
X194441496Y-120841460D01*
X194462051Y-120791836D01*
X194500500Y-120598540D01*
X194500500Y-120401460D01*
X194500500Y-105818951D01*
X194520462Y-105744451D01*
X194528956Y-105731371D01*
X194530101Y-105729794D01*
X194530104Y-105729792D01*
X194655051Y-105557816D01*
X194751557Y-105368412D01*
X194817246Y-105166243D01*
X194850500Y-104956287D01*
X194850500Y-104743713D01*
X194817246Y-104533757D01*
X194751557Y-104331588D01*
X194655051Y-104142184D01*
X194530104Y-103970208D01*
X194379792Y-103819896D01*
X194215517Y-103700544D01*
X194166979Y-103640604D01*
X194154913Y-103564426D01*
X194182553Y-103492420D01*
X194215517Y-103459456D01*
X194222519Y-103454368D01*
X194379792Y-103340104D01*
X194530104Y-103189792D01*
X194655051Y-103017816D01*
X194751557Y-102828412D01*
X194817246Y-102626243D01*
X194850500Y-102416287D01*
X194850500Y-102203713D01*
X194817246Y-101993757D01*
X194751557Y-101791588D01*
X194655051Y-101602184D01*
X194530104Y-101430208D01*
X194379792Y-101279896D01*
X194215517Y-101160544D01*
X194166979Y-101100604D01*
X194154913Y-101024426D01*
X194182553Y-100952420D01*
X194215517Y-100919456D01*
X194258438Y-100888272D01*
X194379792Y-100800104D01*
X194530104Y-100649792D01*
X194655051Y-100477816D01*
X194751557Y-100288412D01*
X194817246Y-100086243D01*
X194850500Y-99876287D01*
X194850500Y-99663713D01*
X194817246Y-99453757D01*
X194751557Y-99251588D01*
X194655051Y-99062184D01*
X194530104Y-98890208D01*
X194379792Y-98739896D01*
X194215517Y-98620544D01*
X194166979Y-98560604D01*
X194154913Y-98484426D01*
X194182553Y-98412420D01*
X194215517Y-98379456D01*
X194226316Y-98371610D01*
X194379792Y-98260104D01*
X194530104Y-98109792D01*
X194655051Y-97937816D01*
X194751557Y-97748412D01*
X194817246Y-97546243D01*
X194850500Y-97336287D01*
X194850500Y-97123713D01*
X194817246Y-96913757D01*
X194751557Y-96711588D01*
X194655051Y-96522184D01*
X194530104Y-96350208D01*
X194379792Y-96199896D01*
X194215517Y-96080544D01*
X194166979Y-96020604D01*
X194154913Y-95944426D01*
X194182553Y-95872420D01*
X194215517Y-95839456D01*
X194222519Y-95834368D01*
X194379792Y-95720104D01*
X194530104Y-95569792D01*
X194655051Y-95397816D01*
X194751557Y-95208412D01*
X194817246Y-95006243D01*
X194850500Y-94796287D01*
X194850500Y-94583713D01*
X194817246Y-94373757D01*
X194751557Y-94171588D01*
X194655051Y-93982184D01*
X194530104Y-93810208D01*
X194379792Y-93659896D01*
X194207816Y-93534949D01*
X194018412Y-93438443D01*
X193816243Y-93372754D01*
X193606287Y-93339500D01*
X193393713Y-93339500D01*
X193249843Y-93362287D01*
X193183756Y-93372754D01*
X193107129Y-93397652D01*
X192981588Y-93438443D01*
X192981582Y-93438445D01*
X192981582Y-93438446D01*
X192792182Y-93534950D01*
X192792181Y-93534950D01*
X192620209Y-93659895D01*
X192620206Y-93659897D01*
X192469897Y-93810206D01*
X192469895Y-93810209D01*
X192344950Y-93982181D01*
X192344950Y-93982182D01*
X192248446Y-94171582D01*
X192248441Y-94171594D01*
X192191377Y-94347219D01*
X192182754Y-94373757D01*
X192149500Y-94583713D01*
X192149500Y-94796287D01*
X192182754Y-95006243D01*
X192248443Y-95208412D01*
X192344949Y-95397816D01*
X192469896Y-95569792D01*
X192620208Y-95720104D01*
X192698844Y-95777236D01*
X192784482Y-95839456D01*
X192833020Y-95899396D01*
X192845086Y-95975575D01*
X192817446Y-96047580D01*
X192784482Y-96080544D01*
X192620209Y-96199895D01*
X192620206Y-96199897D01*
X192469897Y-96350206D01*
X192469895Y-96350209D01*
X192344950Y-96522181D01*
X192344950Y-96522182D01*
X192248446Y-96711582D01*
X192248441Y-96711594D01*
X192192930Y-96882440D01*
X192182754Y-96913757D01*
X192149500Y-97123713D01*
X192149500Y-97336287D01*
X192182754Y-97546243D01*
X192248443Y-97748412D01*
X192336530Y-97921293D01*
X192344950Y-97937817D01*
X192344950Y-97937818D01*
X192394124Y-98005500D01*
X192469896Y-98109792D01*
X192620208Y-98260104D01*
X192698844Y-98317236D01*
X192784482Y-98379456D01*
X192799231Y-98397670D01*
X192817446Y-98412420D01*
X192823097Y-98427142D01*
X192833020Y-98439396D01*
X192836686Y-98462542D01*
X192845086Y-98484425D01*
X192842619Y-98500000D01*
X192845086Y-98515575D01*
X192836686Y-98537457D01*
X192833020Y-98560604D01*
X192823097Y-98572857D01*
X192817446Y-98587580D01*
X192784482Y-98620544D01*
X192618628Y-98741044D01*
X192546623Y-98768684D01*
X192531048Y-98769500D01*
X191556139Y-98769500D01*
X191481639Y-98749538D01*
X191450780Y-98725859D01*
X182642461Y-89917541D01*
X182603897Y-89850746D01*
X182600654Y-89835490D01*
X182578477Y-89695466D01*
X182515220Y-89500781D01*
X182422287Y-89318390D01*
X182422285Y-89318387D01*
X182301971Y-89152787D01*
X182301964Y-89152779D01*
X182157220Y-89008035D01*
X182157212Y-89008028D01*
X181991612Y-88887714D01*
X181809224Y-88794782D01*
X181809220Y-88794780D01*
X181809219Y-88794780D01*
X181614534Y-88731523D01*
X181412352Y-88699500D01*
X181207648Y-88699500D01*
X181039163Y-88726185D01*
X181005465Y-88731523D01*
X180810787Y-88794778D01*
X180810775Y-88794782D01*
X180628387Y-88887714D01*
X180462787Y-89008028D01*
X180462779Y-89008035D01*
X180318035Y-89152779D01*
X180318028Y-89152787D01*
X180197714Y-89318387D01*
X180104782Y-89500775D01*
X180104778Y-89500787D01*
X180041523Y-89695465D01*
X180035118Y-89735902D01*
X180009500Y-89897648D01*
X180009500Y-90102352D01*
X180028168Y-90220216D01*
X180041523Y-90304534D01*
X180104778Y-90499212D01*
X180104782Y-90499224D01*
X180197714Y-90681612D01*
X180318028Y-90847212D01*
X180318035Y-90847220D01*
X180462779Y-90991964D01*
X180462787Y-90991971D01*
X180560860Y-91063224D01*
X180628390Y-91112287D01*
X180810781Y-91205220D01*
X181005466Y-91268477D01*
X181145491Y-91290654D01*
X181215950Y-91322025D01*
X181227541Y-91332461D01*
X182140221Y-92245141D01*
X182178785Y-92311936D01*
X182178785Y-92389064D01*
X182140221Y-92455859D01*
X182073426Y-92494423D01*
X182034862Y-92499500D01*
X178193885Y-92499500D01*
X178119385Y-92479538D01*
X178106317Y-92471052D01*
X177991610Y-92387713D01*
X177950352Y-92366691D01*
X177809224Y-92294782D01*
X177809220Y-92294780D01*
X177809219Y-92294780D01*
X177614534Y-92231523D01*
X177412352Y-92199500D01*
X177207648Y-92199500D01*
X177039163Y-92226185D01*
X177005465Y-92231523D01*
X176810787Y-92294778D01*
X176810775Y-92294782D01*
X176628387Y-92387714D01*
X176462787Y-92508028D01*
X176462779Y-92508035D01*
X176318035Y-92652779D01*
X176318028Y-92652787D01*
X176197714Y-92818387D01*
X176104782Y-93000775D01*
X176104778Y-93000787D01*
X176073448Y-93097212D01*
X176041523Y-93195466D01*
X176009500Y-93397648D01*
X174690500Y-93397648D01*
X174690500Y-90883885D01*
X174710462Y-90809385D01*
X174718957Y-90796305D01*
X174802280Y-90681620D01*
X174802280Y-90681618D01*
X174802287Y-90681610D01*
X174895220Y-90499219D01*
X174958477Y-90304534D01*
X174990500Y-90102352D01*
X174990500Y-89897648D01*
X174958477Y-89695466D01*
X174895220Y-89500781D01*
X174802287Y-89318390D01*
X174802285Y-89318387D01*
X174681971Y-89152787D01*
X174681964Y-89152779D01*
X174537220Y-89008035D01*
X174537212Y-89008028D01*
X174371612Y-88887714D01*
X174189224Y-88794782D01*
X174189220Y-88794780D01*
X174189219Y-88794780D01*
X173994534Y-88731523D01*
X173792352Y-88699500D01*
X173587648Y-88699500D01*
X173419163Y-88726185D01*
X173385465Y-88731523D01*
X173190787Y-88794778D01*
X173190775Y-88794782D01*
X173008387Y-88887714D01*
X172842787Y-89008028D01*
X172842779Y-89008035D01*
X172698035Y-89152779D01*
X172698028Y-89152787D01*
X172577714Y-89318387D01*
X172484782Y-89500775D01*
X172484778Y-89500787D01*
X172421523Y-89695465D01*
X172415118Y-89735902D01*
X172389500Y-89897648D01*
X172389500Y-90102352D01*
X172408168Y-90220216D01*
X172421523Y-90304534D01*
X172484778Y-90499212D01*
X172484782Y-90499224D01*
X172533806Y-90595438D01*
X172577713Y-90681610D01*
X172577714Y-90681612D01*
X172577719Y-90681620D01*
X172661043Y-90796305D01*
X172688684Y-90868310D01*
X172689500Y-90883885D01*
X172689500Y-97282350D01*
X172669538Y-97356850D01*
X172661044Y-97369929D01*
X172567714Y-97498387D01*
X172474782Y-97680775D01*
X172474778Y-97680787D01*
X172412025Y-97873922D01*
X172411523Y-97875466D01*
X172379500Y-98077648D01*
X172379500Y-98282352D01*
X172411523Y-98484534D01*
X172455715Y-98620544D01*
X172474778Y-98679212D01*
X172474782Y-98679224D01*
X172567714Y-98861612D01*
X172683844Y-99021453D01*
X172711484Y-99093458D01*
X172699418Y-99169637D01*
X172650879Y-99229576D01*
X172578874Y-99257216D01*
X172502695Y-99245150D01*
X172457941Y-99214391D01*
X165317664Y-92074114D01*
X165279100Y-92007319D01*
X165275857Y-91992063D01*
X165268477Y-91945466D01*
X165205220Y-91750781D01*
X165112287Y-91568390D01*
X165112285Y-91568387D01*
X164991971Y-91402787D01*
X164991964Y-91402779D01*
X164847220Y-91258035D01*
X164847212Y-91258028D01*
X164681612Y-91137714D01*
X164499224Y-91044782D01*
X164499220Y-91044780D01*
X164499219Y-91044780D01*
X164457351Y-91031176D01*
X164403455Y-91013664D01*
X164338771Y-90971657D01*
X164303756Y-90902935D01*
X164300500Y-90871957D01*
X164300500Y-89703885D01*
X164320462Y-89629385D01*
X164328957Y-89616305D01*
X164412280Y-89501620D01*
X164412280Y-89501618D01*
X164412287Y-89501610D01*
X164505220Y-89319219D01*
X164534574Y-89228877D01*
X164576580Y-89164191D01*
X164645302Y-89129176D01*
X164722324Y-89133213D01*
X164781639Y-89169560D01*
X166625742Y-91013664D01*
X168451895Y-92839817D01*
X168490459Y-92906612D01*
X168490459Y-92983740D01*
X168486567Y-92995206D01*
X168486589Y-92995214D01*
X168484780Y-93000780D01*
X168484780Y-93000781D01*
X168421523Y-93195466D01*
X168389500Y-93397648D01*
X168389500Y-93602352D01*
X168421523Y-93804534D01*
X168479244Y-93982182D01*
X168484778Y-93999212D01*
X168484782Y-93999224D01*
X168577714Y-94181612D01*
X168698028Y-94347212D01*
X168698035Y-94347220D01*
X168842779Y-94491964D01*
X168842787Y-94491971D01*
X168991042Y-94599683D01*
X169008390Y-94612287D01*
X169190781Y-94705220D01*
X169385466Y-94768477D01*
X169587648Y-94800500D01*
X169587653Y-94800500D01*
X169792347Y-94800500D01*
X169792352Y-94800500D01*
X169994534Y-94768477D01*
X170189219Y-94705220D01*
X170371610Y-94612287D01*
X170537219Y-94491966D01*
X170681966Y-94347219D01*
X170802287Y-94181610D01*
X170895220Y-93999219D01*
X170958477Y-93804534D01*
X170990500Y-93602352D01*
X170990500Y-93397648D01*
X170958477Y-93195466D01*
X170895220Y-93000781D01*
X170892383Y-92995214D01*
X170885167Y-92981052D01*
X170802287Y-92818390D01*
X170766805Y-92769553D01*
X170718956Y-92703693D01*
X170691852Y-92636142D01*
X170690500Y-92626175D01*
X170690500Y-92564460D01*
X170665073Y-92436632D01*
X170652051Y-92371165D01*
X170594209Y-92231523D01*
X170576632Y-92189087D01*
X170467139Y-92025219D01*
X170327782Y-91885862D01*
X170327781Y-91885861D01*
X164831632Y-86389713D01*
X164831631Y-86389711D01*
X164683784Y-86241864D01*
X164683783Y-86241863D01*
X164683781Y-86241861D01*
X164650828Y-86219842D01*
X164519915Y-86132368D01*
X164389808Y-86078477D01*
X164389808Y-86078476D01*
X164337836Y-86056949D01*
X164337834Y-86056948D01*
X164241187Y-86037724D01*
X164241187Y-86037723D01*
X164144540Y-86018500D01*
X162659911Y-86018500D01*
X162659891Y-86018499D01*
X162652542Y-86018499D01*
X162455461Y-86018499D01*
X162262168Y-86056947D01*
X162080091Y-86132365D01*
X162080081Y-86132370D01*
X161916221Y-86241859D01*
X161916216Y-86241863D01*
X160669224Y-87488855D01*
X160602429Y-87527419D01*
X160587174Y-87530661D01*
X160455476Y-87551520D01*
X160455467Y-87551522D01*
X160260787Y-87614778D01*
X160260775Y-87614782D01*
X160078391Y-87707712D01*
X160078390Y-87707713D01*
X159963692Y-87791045D01*
X159891689Y-87818684D01*
X159876115Y-87819500D01*
X159103885Y-87819500D01*
X159029385Y-87799538D01*
X159016317Y-87791052D01*
X158901610Y-87707713D01*
X158895476Y-87704587D01*
X158719224Y-87614782D01*
X158719220Y-87614780D01*
X158719219Y-87614780D01*
X158524534Y-87551523D01*
X158322352Y-87519500D01*
X158255137Y-87519500D01*
X158180637Y-87499538D01*
X158126099Y-87445000D01*
X158106137Y-87370500D01*
X158126099Y-87296000D01*
X158149778Y-87265141D01*
X159370779Y-86044141D01*
X159382257Y-86037513D01*
X159390785Y-86027370D01*
X159410669Y-86021110D01*
X159437574Y-86005577D01*
X159463285Y-86001055D01*
X159469695Y-86000500D01*
X159605539Y-86000500D01*
X159605540Y-86000500D01*
X159702187Y-85981275D01*
X159798835Y-85962051D01*
X159852164Y-85939961D01*
X159980913Y-85886632D01*
X160144781Y-85777139D01*
X160284138Y-85637782D01*
X160284138Y-85637780D01*
X160296400Y-85625519D01*
X160296403Y-85625514D01*
X163377779Y-82544140D01*
X163444574Y-82505576D01*
X163483138Y-82500499D01*
X164147864Y-82500499D01*
X164147872Y-82500499D01*
X164207483Y-82494091D01*
X164303447Y-82458298D01*
X164342329Y-82443797D01*
X164342333Y-82443795D01*
X164408504Y-82394259D01*
X164457546Y-82357546D01*
X164543796Y-82242331D01*
X164594091Y-82107483D01*
X164596804Y-82082246D01*
X164600499Y-82047885D01*
X164600499Y-82047882D01*
X164600500Y-82047873D01*
X164600499Y-81376136D01*
X164620461Y-81301637D01*
X164644136Y-81270782D01*
X165629288Y-80285631D01*
X165629295Y-80285625D01*
X165637780Y-80277140D01*
X165637782Y-80277139D01*
X165777139Y-80137782D01*
X165886632Y-79973914D01*
X165946632Y-79829060D01*
X165962051Y-79791836D01*
X166000500Y-79598540D01*
X166000500Y-79401460D01*
X166000500Y-78693885D01*
X166020462Y-78619385D01*
X166028957Y-78606305D01*
X166112280Y-78491620D01*
X166112280Y-78491618D01*
X166112287Y-78491610D01*
X166205220Y-78309219D01*
X166268477Y-78114534D01*
X166300500Y-77912352D01*
X166300500Y-77707648D01*
X166268477Y-77505466D01*
X166205220Y-77310781D01*
X166112287Y-77128390D01*
X166112285Y-77128387D01*
X166082687Y-77087648D01*
X170699500Y-77087648D01*
X170699500Y-77292352D01*
X170731523Y-77494534D01*
X170793339Y-77684785D01*
X170794778Y-77689212D01*
X170794782Y-77689224D01*
X170887714Y-77871612D01*
X171008028Y-78037212D01*
X171008034Y-78037219D01*
X171152779Y-78181964D01*
X171152787Y-78181971D01*
X171317945Y-78301964D01*
X171318390Y-78302287D01*
X171500781Y-78395220D01*
X171695466Y-78458477D01*
X171897648Y-78490500D01*
X171897653Y-78490500D01*
X172102347Y-78490500D01*
X172102352Y-78490500D01*
X172304534Y-78458477D01*
X172499219Y-78395220D01*
X172681610Y-78302287D01*
X172796307Y-78218954D01*
X172868311Y-78191316D01*
X172883885Y-78190500D01*
X174085474Y-78190500D01*
X174159974Y-78210462D01*
X174206017Y-78251920D01*
X174279201Y-78352649D01*
X174279204Y-78352652D01*
X174279207Y-78352656D01*
X174457344Y-78530793D01*
X174661155Y-78678870D01*
X174885621Y-78793241D01*
X175125215Y-78871090D01*
X175374038Y-78910500D01*
X175374043Y-78910500D01*
X175625957Y-78910500D01*
X175625962Y-78910500D01*
X175874785Y-78871090D01*
X176114379Y-78793241D01*
X176270017Y-78713939D01*
X176345456Y-78697904D01*
X176418810Y-78721738D01*
X176470419Y-78779055D01*
X176486455Y-78854497D01*
X176462621Y-78927851D01*
X176443018Y-78952059D01*
X171917540Y-83477538D01*
X171850745Y-83516102D01*
X171835490Y-83519344D01*
X171695476Y-83541520D01*
X171695467Y-83541522D01*
X171500787Y-83604778D01*
X171500775Y-83604782D01*
X171318387Y-83697714D01*
X171152787Y-83818028D01*
X171152779Y-83818035D01*
X171008035Y-83962779D01*
X171008028Y-83962787D01*
X170887714Y-84128387D01*
X170794782Y-84310775D01*
X170794780Y-84310781D01*
X170731523Y-84505466D01*
X170699500Y-84707648D01*
X170699500Y-84912352D01*
X170709345Y-84974508D01*
X170731523Y-85114534D01*
X170794778Y-85309212D01*
X170794782Y-85309224D01*
X170887714Y-85491612D01*
X171008028Y-85657212D01*
X171008035Y-85657220D01*
X171152779Y-85801964D01*
X171152787Y-85801971D01*
X171318387Y-85922285D01*
X171318390Y-85922287D01*
X171500781Y-86015220D01*
X171695466Y-86078477D01*
X171897648Y-86110500D01*
X171897653Y-86110500D01*
X172102347Y-86110500D01*
X172102352Y-86110500D01*
X172304534Y-86078477D01*
X172499219Y-86015220D01*
X172681610Y-85922287D01*
X172847219Y-85801966D01*
X172991966Y-85657219D01*
X173112287Y-85491610D01*
X173205220Y-85309219D01*
X173268477Y-85114534D01*
X173290654Y-84974505D01*
X173322025Y-84904048D01*
X173332451Y-84892467D01*
X179582460Y-78642459D01*
X179649253Y-78603897D01*
X179664498Y-78600656D01*
X179804534Y-78578477D01*
X179999219Y-78515220D01*
X180181610Y-78422287D01*
X180347219Y-78301966D01*
X180491966Y-78157219D01*
X180612287Y-77991610D01*
X180705220Y-77809219D01*
X180768477Y-77614534D01*
X180800500Y-77412352D01*
X180800500Y-77207648D01*
X180768477Y-77005466D01*
X180705220Y-76810781D01*
X180612287Y-76628390D01*
X180595135Y-76604782D01*
X180491971Y-76462787D01*
X180491964Y-76462779D01*
X180347220Y-76318035D01*
X180347212Y-76318028D01*
X180181612Y-76197714D01*
X179999224Y-76104782D01*
X179999220Y-76104780D01*
X179999219Y-76104780D01*
X179804534Y-76041523D01*
X179602352Y-76009500D01*
X179397648Y-76009500D01*
X179229163Y-76036185D01*
X179195465Y-76041523D01*
X179000787Y-76104778D01*
X179000775Y-76104782D01*
X178818387Y-76197714D01*
X178652787Y-76318028D01*
X178652779Y-76318035D01*
X178508035Y-76462779D01*
X178508028Y-76462787D01*
X178387714Y-76628387D01*
X178294782Y-76810775D01*
X178294778Y-76810787D01*
X178231522Y-77005467D01*
X178231520Y-77005476D01*
X178209344Y-77145489D01*
X178177973Y-77215949D01*
X178167538Y-77227539D01*
X177142059Y-78253018D01*
X177075264Y-78291582D01*
X176998136Y-78291582D01*
X176931341Y-78253018D01*
X176892777Y-78186223D01*
X176892777Y-78109095D01*
X176903936Y-78080022D01*
X176983241Y-77924379D01*
X177061090Y-77684785D01*
X177100500Y-77435962D01*
X177100500Y-77184038D01*
X177061090Y-76935215D01*
X176983241Y-76695621D01*
X176868870Y-76471155D01*
X176862784Y-76462779D01*
X176775601Y-76342781D01*
X176720793Y-76267344D01*
X176542656Y-76089207D01*
X176338845Y-75941130D01*
X176114379Y-75826759D01*
X175874785Y-75748910D01*
X175625962Y-75709500D01*
X175374038Y-75709500D01*
X175166685Y-75742341D01*
X175125214Y-75748910D01*
X174885627Y-75826757D01*
X174885621Y-75826759D01*
X174885615Y-75826761D01*
X174885615Y-75826762D01*
X174661153Y-75941131D01*
X174661152Y-75941131D01*
X174457345Y-76089206D01*
X174457342Y-76089208D01*
X174400692Y-76145859D01*
X174333897Y-76184423D01*
X174295333Y-76189500D01*
X172883885Y-76189500D01*
X172809385Y-76169538D01*
X172796317Y-76161052D01*
X172681610Y-76077713D01*
X172669585Y-76071586D01*
X172499224Y-75984782D01*
X172499220Y-75984780D01*
X172499219Y-75984780D01*
X172304534Y-75921523D01*
X172102352Y-75889500D01*
X171897648Y-75889500D01*
X171729163Y-75916185D01*
X171695465Y-75921523D01*
X171500787Y-75984778D01*
X171500775Y-75984782D01*
X171318387Y-76077714D01*
X171152787Y-76198028D01*
X171152779Y-76198035D01*
X171008035Y-76342779D01*
X171008028Y-76342787D01*
X170887714Y-76508387D01*
X170794782Y-76690775D01*
X170794778Y-76690787D01*
X170753433Y-76818035D01*
X170731523Y-76885466D01*
X170699500Y-77087648D01*
X166082687Y-77087648D01*
X165991971Y-76962787D01*
X165991964Y-76962779D01*
X165847220Y-76818035D01*
X165847212Y-76818028D01*
X165681612Y-76697714D01*
X165499224Y-76604782D01*
X165499220Y-76604780D01*
X165499219Y-76604780D01*
X165304534Y-76541523D01*
X165102352Y-76509500D01*
X164897648Y-76509500D01*
X164729163Y-76536185D01*
X164695465Y-76541523D01*
X164500787Y-76604778D01*
X164500775Y-76604782D01*
X164318387Y-76697714D01*
X164152787Y-76818028D01*
X164152779Y-76818035D01*
X164008035Y-76962779D01*
X164008028Y-76962787D01*
X163887714Y-77128387D01*
X163794782Y-77310775D01*
X163794778Y-77310787D01*
X163761778Y-77412352D01*
X163731523Y-77505466D01*
X163699500Y-77707648D01*
X163699500Y-77912352D01*
X163731523Y-78114534D01*
X163792423Y-78301966D01*
X163794778Y-78309212D01*
X163794782Y-78309224D01*
X163816912Y-78352656D01*
X163887713Y-78491610D01*
X163887714Y-78491612D01*
X163887719Y-78491620D01*
X163971043Y-78606305D01*
X163998684Y-78678310D01*
X163999500Y-78693885D01*
X163999500Y-79023861D01*
X163979538Y-79098361D01*
X163955859Y-79129220D01*
X163229219Y-79855859D01*
X163162424Y-79894423D01*
X163123860Y-79899500D01*
X162452136Y-79899500D01*
X162452111Y-79899502D01*
X162392521Y-79905908D01*
X162392515Y-79905909D01*
X162257670Y-79956202D01*
X162257666Y-79956204D01*
X162142455Y-80042452D01*
X162142452Y-80042455D01*
X162056204Y-80157666D01*
X162056203Y-80157668D01*
X162049106Y-80176699D01*
X162004367Y-80239526D01*
X161934209Y-80271566D01*
X161857430Y-80264235D01*
X161794603Y-80219496D01*
X161762563Y-80149338D01*
X161760500Y-80124629D01*
X161760500Y-79201039D01*
X161780462Y-79126539D01*
X161835000Y-79072001D01*
X161863456Y-79059332D01*
X161999219Y-79015220D01*
X162181610Y-78922287D01*
X162347219Y-78801966D01*
X162491966Y-78657219D01*
X162612287Y-78491610D01*
X162705220Y-78309219D01*
X162768477Y-78114534D01*
X162800500Y-77912352D01*
X162800500Y-77707648D01*
X162768477Y-77505466D01*
X162705220Y-77310781D01*
X162612287Y-77128390D01*
X162612285Y-77128387D01*
X162528956Y-77013693D01*
X162501316Y-76941688D01*
X162500500Y-76926114D01*
X162500500Y-74166138D01*
X162520462Y-74091638D01*
X162544141Y-74060779D01*
X163700386Y-72904534D01*
X165082460Y-71522459D01*
X165149253Y-71483897D01*
X165164498Y-71480656D01*
X165304534Y-71458477D01*
X165499219Y-71395220D01*
X165681610Y-71302287D01*
X165847219Y-71181966D01*
X165991966Y-71037219D01*
X166112287Y-70871610D01*
X166205220Y-70689219D01*
X166268477Y-70494534D01*
X166300500Y-70292352D01*
X166300500Y-70087648D01*
X166268477Y-69885466D01*
X166205220Y-69690781D01*
X166112287Y-69508390D01*
X166082834Y-69467851D01*
X165991971Y-69342787D01*
X165991964Y-69342779D01*
X165847220Y-69198035D01*
X165847212Y-69198028D01*
X165681612Y-69077714D01*
X165499224Y-68984782D01*
X165499220Y-68984780D01*
X165499219Y-68984780D01*
X165304534Y-68921523D01*
X165102352Y-68889500D01*
X164897648Y-68889500D01*
X164729163Y-68916185D01*
X164695465Y-68921523D01*
X164500787Y-68984778D01*
X164500775Y-68984782D01*
X164318387Y-69077714D01*
X164152787Y-69198028D01*
X164152779Y-69198035D01*
X164008035Y-69342779D01*
X164008028Y-69342787D01*
X163887714Y-69508387D01*
X163794782Y-69690775D01*
X163794778Y-69690787D01*
X163731522Y-69885467D01*
X163731520Y-69885476D01*
X163709344Y-70025489D01*
X163677973Y-70095949D01*
X163667538Y-70107539D01*
X162960867Y-70814210D01*
X162894072Y-70852774D01*
X162816944Y-70852774D01*
X162750149Y-70814210D01*
X162711585Y-70747415D01*
X162711585Y-70670287D01*
X162713792Y-70662834D01*
X162768477Y-70494534D01*
X162800500Y-70292352D01*
X162800500Y-70087648D01*
X162793674Y-70044554D01*
X162801734Y-69967851D01*
X162835478Y-69915888D01*
X165293098Y-67458268D01*
X165359891Y-67419706D01*
X165437019Y-67419706D01*
X165460348Y-67428092D01*
X165541903Y-67465338D01*
X165580019Y-67476530D01*
X165608938Y-67485022D01*
X165608940Y-67485022D01*
X165608942Y-67485023D01*
X165608946Y-67485024D01*
X165608947Y-67485024D01*
X165608951Y-67485025D01*
X165608955Y-67485026D01*
X165751347Y-67505498D01*
X165751351Y-67505498D01*
X165751362Y-67505500D01*
X173882415Y-67505500D01*
X173956915Y-67525462D01*
X173987774Y-67549141D01*
X174304852Y-67866219D01*
X174343416Y-67933014D01*
X174343416Y-68010142D01*
X174304852Y-68076937D01*
X174251562Y-68111184D01*
X174157670Y-68146202D01*
X174157666Y-68146204D01*
X174042455Y-68232452D01*
X174042452Y-68232455D01*
X173956204Y-68347666D01*
X173956202Y-68347670D01*
X173905908Y-68482517D01*
X173899500Y-68542114D01*
X173899500Y-70837863D01*
X173899502Y-70837888D01*
X173905908Y-70897478D01*
X173905909Y-70897484D01*
X173956202Y-71032329D01*
X173956204Y-71032333D01*
X174042452Y-71147544D01*
X174042455Y-71147547D01*
X174157666Y-71233795D01*
X174157670Y-71233797D01*
X174292517Y-71284091D01*
X174352114Y-71290499D01*
X174352118Y-71290499D01*
X174352127Y-71290500D01*
X176647872Y-71290499D01*
X176707483Y-71284091D01*
X176803447Y-71248298D01*
X176842329Y-71233797D01*
X176842333Y-71233795D01*
X176911567Y-71181966D01*
X176957546Y-71147546D01*
X177000671Y-71089938D01*
X177043795Y-71032333D01*
X177043797Y-71032329D01*
X177079435Y-70936778D01*
X177094091Y-70897483D01*
X177099847Y-70843945D01*
X177100499Y-70837885D01*
X177100499Y-70837882D01*
X177100500Y-70837873D01*
X177100499Y-68542128D01*
X177094091Y-68482517D01*
X177071342Y-68421523D01*
X177043797Y-68347670D01*
X177043795Y-68347666D01*
X176957547Y-68232455D01*
X176957544Y-68232452D01*
X176842333Y-68146204D01*
X176842329Y-68146202D01*
X176707482Y-68095908D01*
X176647885Y-68089500D01*
X176647873Y-68089500D01*
X176399500Y-68089500D01*
X176370483Y-68081725D01*
X176340757Y-68077431D01*
X176333690Y-68071866D01*
X176325000Y-68069538D01*
X176303759Y-68048297D01*
X176280161Y-68029715D01*
X176277662Y-68022200D01*
X176270462Y-68015000D01*
X176251542Y-67958093D01*
X176250500Y-67949330D01*
X176250500Y-67926082D01*
X176244763Y-67897241D01*
X176221659Y-67781088D01*
X176192843Y-67711520D01*
X176182776Y-67635052D01*
X176212291Y-67563795D01*
X176273481Y-67516842D01*
X176330501Y-67505500D01*
X180248642Y-67505500D01*
X180256048Y-67505103D01*
X180331510Y-67521048D01*
X180388889Y-67572589D01*
X180412810Y-67645913D01*
X180396865Y-67721375D01*
X180369383Y-67759248D01*
X179774111Y-68354519D01*
X179707316Y-68393083D01*
X179645442Y-68396325D01*
X179624973Y-68393083D01*
X179602352Y-68389500D01*
X179397648Y-68389500D01*
X179229163Y-68416185D01*
X179195465Y-68421523D01*
X179000787Y-68484778D01*
X179000775Y-68484782D01*
X178818387Y-68577714D01*
X178652787Y-68698028D01*
X178652779Y-68698035D01*
X178508035Y-68842779D01*
X178508028Y-68842787D01*
X178387714Y-69008387D01*
X178294782Y-69190775D01*
X178294780Y-69190781D01*
X178231523Y-69385466D01*
X178199500Y-69587648D01*
X178199500Y-69792352D01*
X178231523Y-69994534D01*
X178247776Y-70044557D01*
X178294778Y-70189212D01*
X178294782Y-70189224D01*
X178387714Y-70371612D01*
X178508028Y-70537212D01*
X178508035Y-70537220D01*
X178652779Y-70681964D01*
X178652787Y-70681971D01*
X178818387Y-70802285D01*
X178818390Y-70802287D01*
X179000781Y-70895220D01*
X179195466Y-70958477D01*
X179397648Y-70990500D01*
X179397653Y-70990500D01*
X179602347Y-70990500D01*
X179602352Y-70990500D01*
X179804534Y-70958477D01*
X179999219Y-70895220D01*
X180181610Y-70802287D01*
X180347219Y-70681966D01*
X180491966Y-70537219D01*
X180612287Y-70371610D01*
X180705220Y-70189219D01*
X180768477Y-69994534D01*
X180800500Y-69792352D01*
X180800500Y-69587648D01*
X180793674Y-69544554D01*
X180801734Y-69467851D01*
X180835478Y-69415888D01*
X182582952Y-67668416D01*
X182642170Y-67579788D01*
X182665084Y-67545495D01*
X182721658Y-67408913D01*
X182750500Y-67263918D01*
X182750500Y-59426082D01*
X182721658Y-59281087D01*
X182665084Y-59144505D01*
X182624023Y-59083052D01*
X182582952Y-59021584D01*
X180066227Y-56504859D01*
X180027663Y-56438064D01*
X180027663Y-56360936D01*
X180066227Y-56294141D01*
X180133022Y-56255577D01*
X180171586Y-56250500D01*
X193455830Y-56250500D01*
X193496095Y-56250500D01*
X193503892Y-56250703D01*
X193831867Y-56267892D01*
X193847372Y-56269521D01*
X194167900Y-56320288D01*
X194183155Y-56323531D01*
X194208786Y-56330398D01*
X194496611Y-56407521D01*
X194511436Y-56412339D01*
X194814407Y-56528639D01*
X194828654Y-56534982D01*
X195117800Y-56682309D01*
X195131287Y-56690095D01*
X195403460Y-56866847D01*
X195416073Y-56876010D01*
X195668273Y-57080238D01*
X195679863Y-57090674D01*
X195909325Y-57320136D01*
X195919761Y-57331726D01*
X196123989Y-57583926D01*
X196133155Y-57596543D01*
X196281517Y-57825000D01*
X196309898Y-57868702D01*
X196317696Y-57882209D01*
X196465017Y-58171345D01*
X196471360Y-58185592D01*
X196587660Y-58488563D01*
X196592480Y-58503396D01*
X196676468Y-58816844D01*
X196679711Y-58832099D01*
X196730477Y-59152624D01*
X196732107Y-59168135D01*
X196749296Y-59496107D01*
X196749500Y-59503905D01*
X196749500Y-137496094D01*
X196749296Y-137503892D01*
X196732107Y-137831864D01*
X196730477Y-137847375D01*
X196679711Y-138167900D01*
X196676468Y-138183155D01*
X196592480Y-138496603D01*
X196587660Y-138511436D01*
X196471360Y-138814407D01*
X196465017Y-138828654D01*
X196317696Y-139117790D01*
X196309898Y-139131297D01*
X196133156Y-139403455D01*
X196123989Y-139416073D01*
X195919761Y-139668273D01*
X195909325Y-139679863D01*
X195679863Y-139909325D01*
X195668273Y-139919761D01*
X195416073Y-140123989D01*
X195403455Y-140133156D01*
X195131297Y-140309898D01*
X195117790Y-140317696D01*
X194828654Y-140465017D01*
X194814407Y-140471360D01*
X194511436Y-140587660D01*
X194496603Y-140592480D01*
X194183155Y-140676468D01*
X194167900Y-140679711D01*
X193847375Y-140730477D01*
X193831864Y-140732107D01*
X193503893Y-140749296D01*
X193496095Y-140749500D01*
X115503905Y-140749500D01*
X115496107Y-140749296D01*
X115168135Y-140732107D01*
X115152624Y-140730477D01*
X114832099Y-140679711D01*
X114816844Y-140676468D01*
X114503396Y-140592480D01*
X114488563Y-140587660D01*
X114185592Y-140471360D01*
X114171345Y-140465017D01*
X113882209Y-140317696D01*
X113868706Y-140309900D01*
X113596543Y-140133155D01*
X113583926Y-140123989D01*
X113331726Y-139919761D01*
X113320136Y-139909325D01*
X113090674Y-139679863D01*
X113080238Y-139668273D01*
X112876010Y-139416073D01*
X112866843Y-139403455D01*
X112690095Y-139131287D01*
X112682309Y-139117800D01*
X112534982Y-138828654D01*
X112528639Y-138814407D01*
X112412339Y-138511436D01*
X112407521Y-138496611D01*
X112323531Y-138183155D01*
X112320288Y-138167900D01*
X112309906Y-138102352D01*
X112269521Y-137847372D01*
X112267892Y-137831864D01*
X112263530Y-137748638D01*
X112250704Y-137503892D01*
X112250500Y-137496094D01*
X112250500Y-59503905D01*
X112250704Y-59496107D01*
X112260496Y-59309269D01*
X112267892Y-59168130D01*
X112269522Y-59152624D01*
X112270809Y-59144502D01*
X112320288Y-58832095D01*
X112323531Y-58816844D01*
X112326373Y-58806239D01*
X112407523Y-58503382D01*
X112412339Y-58488563D01*
X112528639Y-58185592D01*
X112534982Y-58171345D01*
X112545881Y-58149955D01*
X112682313Y-57882191D01*
X112690090Y-57868720D01*
X112866853Y-57596530D01*
X112875999Y-57583939D01*
X113080246Y-57331716D01*
X113090664Y-57320146D01*
X113320146Y-57090664D01*
X113331716Y-57080246D01*
X113583939Y-56875999D01*
X113596530Y-56866853D01*
X113868720Y-56690090D01*
X113882191Y-56682313D01*
X114171350Y-56534979D01*
X114185592Y-56528639D01*
X114488563Y-56412339D01*
X114503382Y-56407523D01*
X114816848Y-56323530D01*
X114832095Y-56320288D01*
X115152629Y-56269521D01*
X115168130Y-56267892D01*
X115496107Y-56250703D01*
X115503905Y-56250500D01*
X115544170Y-56250500D01*
X163058415Y-56250500D01*
X163132915Y-56270462D01*
G37*
G04 #@! TD.AperFunction*
G04 #@! TA.AperFunction,Conductor*
G36*
X148011914Y-61270462D02*
G01*
X148042773Y-61294141D01*
X156664518Y-69915885D01*
X156703082Y-69982680D01*
X156706325Y-70044549D01*
X156701771Y-70073307D01*
X156699500Y-70087648D01*
X156699500Y-70292352D01*
X156731523Y-70494534D01*
X156792423Y-70681966D01*
X156794778Y-70689212D01*
X156794782Y-70689224D01*
X156887714Y-70871612D01*
X157008028Y-71037212D01*
X157008035Y-71037220D01*
X157152779Y-71181964D01*
X157152787Y-71181971D01*
X157293345Y-71284091D01*
X157318390Y-71302287D01*
X157469603Y-71379334D01*
X157499913Y-71394778D01*
X157500781Y-71395220D01*
X157695466Y-71458477D01*
X157897648Y-71490500D01*
X157897653Y-71490500D01*
X158102347Y-71490500D01*
X158102352Y-71490500D01*
X158304534Y-71458477D01*
X158451681Y-71410665D01*
X158452391Y-71410628D01*
X158452994Y-71410245D01*
X158490896Y-71408610D01*
X158528701Y-71406629D01*
X158529336Y-71406952D01*
X158530050Y-71406922D01*
X158563695Y-71424459D01*
X158597423Y-71441644D01*
X158597811Y-71442241D01*
X158598445Y-71442572D01*
X158618817Y-71474587D01*
X158639430Y-71506329D01*
X158639467Y-71507041D01*
X158639851Y-71507644D01*
X158641485Y-71545546D01*
X158643467Y-71583351D01*
X158643143Y-71583986D01*
X158643174Y-71584700D01*
X158637687Y-71594694D01*
X158608452Y-71652073D01*
X158607524Y-71653095D01*
X158605349Y-71655465D01*
X158508034Y-71752781D01*
X158477389Y-71794959D01*
X158471645Y-71801222D01*
X158446034Y-71817518D01*
X158422448Y-71836618D01*
X158412792Y-71838670D01*
X158406573Y-71842628D01*
X158391017Y-71843298D01*
X158361844Y-71849500D01*
X143549500Y-71849500D01*
X143475000Y-71829538D01*
X143420462Y-71775000D01*
X143400500Y-71700500D01*
X143400500Y-67249996D01*
X143400500Y-67249992D01*
X143389999Y-67147203D01*
X143334814Y-66980666D01*
X143242711Y-66831345D01*
X143118655Y-66707289D01*
X142969334Y-66615186D01*
X142885332Y-66587350D01*
X142802798Y-66560001D01*
X142802799Y-66560001D01*
X142768534Y-66556500D01*
X142700008Y-66549500D01*
X142700004Y-66549500D01*
X142385765Y-66549500D01*
X142311265Y-66529538D01*
X142203188Y-66467139D01*
X141942742Y-66359259D01*
X141942740Y-66359258D01*
X141942739Y-66359258D01*
X141861845Y-66337582D01*
X141670440Y-66286295D01*
X141670427Y-66286293D01*
X141390956Y-66249500D01*
X141390951Y-66249500D01*
X135609049Y-66249500D01*
X135609043Y-66249500D01*
X135329572Y-66286293D01*
X135329559Y-66286295D01*
X135057257Y-66359259D01*
X134796812Y-66467139D01*
X134552680Y-66608089D01*
X134552678Y-66608090D01*
X134329034Y-66779700D01*
X134129700Y-66979034D01*
X133958090Y-67202678D01*
X133958089Y-67202680D01*
X133817139Y-67446812D01*
X133709259Y-67707257D01*
X133636295Y-67979559D01*
X133636293Y-67979572D01*
X133599500Y-68259043D01*
X133599500Y-68540956D01*
X133636293Y-68820427D01*
X133636295Y-68820440D01*
X133680330Y-68984778D01*
X133709258Y-69092739D01*
X133812828Y-69342781D01*
X133817139Y-69353187D01*
X133958089Y-69597319D01*
X133958090Y-69597321D01*
X134107744Y-69792352D01*
X134129700Y-69820965D01*
X134329035Y-70020300D01*
X134360637Y-70044549D01*
X134552678Y-70191909D01*
X134552681Y-70191910D01*
X134552683Y-70191912D01*
X134796817Y-70332863D01*
X135057261Y-70440742D01*
X135195808Y-70477865D01*
X135262602Y-70516429D01*
X135301166Y-70583224D01*
X135301166Y-70660352D01*
X135262602Y-70727147D01*
X135195807Y-70765711D01*
X135176691Y-70769513D01*
X135088218Y-70781160D01*
X134853896Y-70843947D01*
X134629783Y-70936778D01*
X134419712Y-71058063D01*
X134419711Y-71058064D01*
X134227262Y-71205735D01*
X134227260Y-71205736D01*
X134227256Y-71205740D01*
X134055740Y-71377256D01*
X134055736Y-71377260D01*
X134055735Y-71377262D01*
X133993417Y-71458477D01*
X133908063Y-71569712D01*
X133786778Y-71779783D01*
X133693947Y-72003896D01*
X133631160Y-72238218D01*
X133599500Y-72478706D01*
X133599500Y-72721293D01*
X133631160Y-72961781D01*
X133631161Y-72961787D01*
X133631162Y-72961789D01*
X133693946Y-73196100D01*
X133783341Y-73411920D01*
X133786778Y-73420216D01*
X133822187Y-73481546D01*
X133908064Y-73630289D01*
X134055735Y-73822738D01*
X134227262Y-73994265D01*
X134419711Y-74141936D01*
X134629788Y-74263224D01*
X134853900Y-74356054D01*
X135088211Y-74418838D01*
X135088217Y-74418838D01*
X135088218Y-74418839D01*
X135123881Y-74423534D01*
X135328712Y-74450500D01*
X136171288Y-74450500D01*
X136411789Y-74418838D01*
X136411820Y-74418829D01*
X136413451Y-74418506D01*
X136414029Y-74418543D01*
X136416625Y-74418202D01*
X136416692Y-74418717D01*
X136490415Y-74423534D01*
X136547910Y-74459278D01*
X138054859Y-75966227D01*
X138093423Y-76033022D01*
X138098500Y-76071586D01*
X138098500Y-77744184D01*
X138127341Y-77889174D01*
X138141926Y-77924384D01*
X138169771Y-77991610D01*
X138183917Y-78025760D01*
X138191570Y-78037213D01*
X138191572Y-78037220D01*
X138191574Y-78037219D01*
X138243233Y-78114534D01*
X138266047Y-78148677D01*
X138266048Y-78148679D01*
X139600319Y-79482950D01*
X139605978Y-79487594D01*
X139604958Y-79488836D01*
X139649911Y-79540091D01*
X139664961Y-79615737D01*
X139640172Y-79688773D01*
X139621640Y-79711356D01*
X139555740Y-79777256D01*
X139555736Y-79777260D01*
X139555735Y-79777262D01*
X139495426Y-79855859D01*
X139408063Y-79969712D01*
X139286778Y-80179783D01*
X139193947Y-80403896D01*
X139131160Y-80638218D01*
X139099500Y-80878706D01*
X139099500Y-81121293D01*
X139131160Y-81361781D01*
X139131161Y-81361787D01*
X139131162Y-81361789D01*
X139160912Y-81472818D01*
X139193947Y-81596103D01*
X139214114Y-81644790D01*
X139286327Y-81819129D01*
X139286778Y-81820216D01*
X139322224Y-81881610D01*
X139408064Y-82030289D01*
X139555735Y-82222738D01*
X139727262Y-82394265D01*
X139919711Y-82541936D01*
X140129788Y-82663224D01*
X140353900Y-82756054D01*
X140588211Y-82818838D01*
X140588217Y-82818838D01*
X140588218Y-82818839D01*
X140653600Y-82827446D01*
X140828712Y-82850500D01*
X141671288Y-82850500D01*
X141911789Y-82818838D01*
X142146100Y-82756054D01*
X142370212Y-82663224D01*
X142580289Y-82541936D01*
X142772738Y-82394265D01*
X142944265Y-82222738D01*
X143091936Y-82030289D01*
X143213224Y-81820212D01*
X143306054Y-81596100D01*
X143368838Y-81361789D01*
X143400500Y-81121288D01*
X143400500Y-80878712D01*
X143368838Y-80638211D01*
X143306054Y-80403900D01*
X143213224Y-80179788D01*
X143091936Y-79969711D01*
X143030928Y-79890203D01*
X143001414Y-79818949D01*
X143011481Y-79742480D01*
X143058433Y-79681290D01*
X143129690Y-79651775D01*
X143149139Y-79650500D01*
X149277414Y-79650500D01*
X149351914Y-79670462D01*
X149382773Y-79694141D01*
X150914518Y-81225885D01*
X150953082Y-81292680D01*
X150956325Y-81354549D01*
X150949500Y-81397647D01*
X150949500Y-81397648D01*
X150949500Y-81602352D01*
X150979877Y-81794141D01*
X150981523Y-81804534D01*
X151044778Y-81999212D01*
X151044782Y-81999224D01*
X151137714Y-82181611D01*
X151137719Y-82181620D01*
X151221043Y-82296305D01*
X151248684Y-82368310D01*
X151249500Y-82383885D01*
X151249500Y-100348540D01*
X151287948Y-100541834D01*
X151287949Y-100541836D01*
X151310038Y-100595165D01*
X151363368Y-100723914D01*
X151428889Y-100821974D01*
X151432632Y-100829155D01*
X151439298Y-100859159D01*
X151449181Y-100888272D01*
X151449500Y-100898018D01*
X151449500Y-101102352D01*
X151479148Y-101289538D01*
X151481523Y-101304534D01*
X151544778Y-101499212D01*
X151544782Y-101499224D01*
X151637714Y-101681612D01*
X151758028Y-101847212D01*
X151758035Y-101847220D01*
X151902779Y-101991964D01*
X151902787Y-101991971D01*
X152047587Y-102097173D01*
X152068390Y-102112287D01*
X152250781Y-102205220D01*
X152445466Y-102268477D01*
X152647648Y-102300500D01*
X152647653Y-102300500D01*
X152852347Y-102300500D01*
X152852352Y-102300500D01*
X153054534Y-102268477D01*
X153249219Y-102205220D01*
X153431610Y-102112287D01*
X153546307Y-102028954D01*
X153618311Y-102001316D01*
X153633885Y-102000500D01*
X154143862Y-102000500D01*
X154218362Y-102020462D01*
X154249221Y-102044141D01*
X156967538Y-104762458D01*
X157006102Y-104829253D01*
X157009343Y-104844500D01*
X157031523Y-104984534D01*
X157075015Y-105118390D01*
X157094778Y-105179212D01*
X157094782Y-105179224D01*
X157187714Y-105361612D01*
X157308028Y-105527212D01*
X157308035Y-105527220D01*
X157452779Y-105671964D01*
X157452787Y-105671971D01*
X157488135Y-105697652D01*
X157618390Y-105792287D01*
X157651631Y-105809224D01*
X157667363Y-105817240D01*
X157724680Y-105868849D01*
X157748514Y-105942203D01*
X157732478Y-106017645D01*
X157680869Y-106074962D01*
X157667363Y-106082760D01*
X157618388Y-106107714D01*
X157452787Y-106228028D01*
X157452779Y-106228035D01*
X157308035Y-106372779D01*
X157308028Y-106372787D01*
X157187714Y-106538387D01*
X157094782Y-106720775D01*
X157094778Y-106720787D01*
X157032557Y-106912285D01*
X157031523Y-106915466D01*
X156999500Y-107117648D01*
X156999500Y-107322352D01*
X157015400Y-107422738D01*
X157031523Y-107524534D01*
X157094778Y-107719212D01*
X157094782Y-107719224D01*
X157187714Y-107901612D01*
X157308028Y-108067212D01*
X157308035Y-108067220D01*
X157452779Y-108211964D01*
X157452787Y-108211971D01*
X157542130Y-108276881D01*
X157618390Y-108332287D01*
X157667363Y-108357240D01*
X157724680Y-108408849D01*
X157748514Y-108482203D01*
X157732478Y-108557645D01*
X157680869Y-108614962D01*
X157667363Y-108622760D01*
X157618388Y-108647714D01*
X157452787Y-108768028D01*
X157452779Y-108768035D01*
X157308035Y-108912779D01*
X157308028Y-108912787D01*
X157187714Y-109078387D01*
X157094782Y-109260775D01*
X157094778Y-109260787D01*
X157037215Y-109437949D01*
X157031523Y-109455466D01*
X156999500Y-109657648D01*
X156999500Y-109862352D01*
X157018424Y-109981832D01*
X157031523Y-110064534D01*
X157094778Y-110259212D01*
X157094782Y-110259224D01*
X157187714Y-110441612D01*
X157308028Y-110607212D01*
X157308035Y-110607220D01*
X157456921Y-110756106D01*
X157455294Y-110757732D01*
X157492953Y-110812537D01*
X157498998Y-110889428D01*
X157465787Y-110959040D01*
X157402220Y-111002720D01*
X157396752Y-111004329D01*
X157257670Y-111056202D01*
X157257666Y-111056204D01*
X157142455Y-111142452D01*
X157142452Y-111142455D01*
X157056204Y-111257666D01*
X157056202Y-111257670D01*
X157005908Y-111392517D01*
X156999500Y-111452114D01*
X156999500Y-113147863D01*
X156999502Y-113147888D01*
X157005908Y-113207478D01*
X157005909Y-113207484D01*
X157056202Y-113342329D01*
X157056204Y-113342333D01*
X157142452Y-113457544D01*
X157142455Y-113457547D01*
X157257666Y-113543795D01*
X157257670Y-113543797D01*
X157392517Y-113594091D01*
X157452114Y-113600499D01*
X157452118Y-113600499D01*
X157452127Y-113600500D01*
X159147872Y-113600499D01*
X159207483Y-113594091D01*
X159303447Y-113558298D01*
X159342329Y-113543797D01*
X159342333Y-113543795D01*
X159411567Y-113491966D01*
X159457546Y-113457546D01*
X159530415Y-113360206D01*
X159591043Y-113312530D01*
X159649695Y-113300500D01*
X161589597Y-113300500D01*
X161664097Y-113320462D01*
X161694956Y-113344141D01*
X161842779Y-113491964D01*
X161842787Y-113491971D01*
X161983345Y-113594091D01*
X162008390Y-113612287D01*
X162190781Y-113705220D01*
X162385466Y-113768477D01*
X162587648Y-113800500D01*
X162587653Y-113800500D01*
X162792347Y-113800500D01*
X162792352Y-113800500D01*
X162994534Y-113768477D01*
X163189219Y-113705220D01*
X163371610Y-113612287D01*
X163537219Y-113491966D01*
X163681966Y-113347219D01*
X163802287Y-113181610D01*
X163895220Y-112999219D01*
X163958477Y-112804534D01*
X163990500Y-112602352D01*
X163990500Y-112397648D01*
X163958477Y-112195466D01*
X163895220Y-112000781D01*
X163802287Y-111818390D01*
X163789498Y-111800787D01*
X163681971Y-111652787D01*
X163681964Y-111652779D01*
X163537220Y-111508035D01*
X163537212Y-111508028D01*
X163371612Y-111387714D01*
X163189224Y-111294782D01*
X163189220Y-111294780D01*
X163189219Y-111294780D01*
X162994534Y-111231523D01*
X162792352Y-111199500D01*
X162587648Y-111199500D01*
X162466055Y-111218758D01*
X162385469Y-111231522D01*
X162198697Y-111292208D01*
X162175638Y-111293416D01*
X162152654Y-111299500D01*
X159649695Y-111299500D01*
X159575195Y-111279538D01*
X159530415Y-111239794D01*
X159472747Y-111162760D01*
X159457546Y-111142454D01*
X159457544Y-111142453D01*
X159457544Y-111142452D01*
X159342333Y-111056204D01*
X159342331Y-111056203D01*
X159323301Y-111049106D01*
X159260474Y-111004367D01*
X159228434Y-110934209D01*
X159235765Y-110857430D01*
X159280504Y-110794603D01*
X159350662Y-110762563D01*
X159375371Y-110760500D01*
X162028537Y-110760500D01*
X162028540Y-110760500D01*
X162028541Y-110760500D01*
X162125188Y-110741275D01*
X162221836Y-110722051D01*
X162298006Y-110690500D01*
X162403914Y-110646632D01*
X162567782Y-110537139D01*
X162707139Y-110397782D01*
X162707139Y-110397780D01*
X162719401Y-110385519D01*
X162719405Y-110385514D01*
X162772459Y-110332459D01*
X162839252Y-110293897D01*
X162854496Y-110290656D01*
X162994534Y-110268477D01*
X163189219Y-110205220D01*
X163371610Y-110112287D01*
X163537219Y-109991966D01*
X163681966Y-109847219D01*
X163802287Y-109681610D01*
X163895220Y-109499219D01*
X163958477Y-109304534D01*
X163990500Y-109102352D01*
X163990500Y-108897648D01*
X163958477Y-108695466D01*
X163895220Y-108500781D01*
X163802287Y-108318390D01*
X163724970Y-108211971D01*
X163718956Y-108203693D01*
X163691316Y-108131688D01*
X163690500Y-108116114D01*
X163690500Y-106491747D01*
X163710462Y-106417247D01*
X163751919Y-106371204D01*
X163847219Y-106301966D01*
X163991966Y-106157219D01*
X164112287Y-105991610D01*
X164205220Y-105809219D01*
X164268477Y-105614534D01*
X164300500Y-105412352D01*
X164300500Y-105207648D01*
X164268477Y-105005466D01*
X164205220Y-104810781D01*
X164202651Y-104805740D01*
X164180598Y-104762458D01*
X164112287Y-104628390D01*
X164099763Y-104611152D01*
X163991971Y-104462787D01*
X163991964Y-104462779D01*
X163847220Y-104318035D01*
X163847212Y-104318028D01*
X163681612Y-104197714D01*
X163499224Y-104104782D01*
X163499220Y-104104780D01*
X163499219Y-104104780D01*
X163304534Y-104041523D01*
X163102352Y-104009500D01*
X162897648Y-104009500D01*
X162729163Y-104036185D01*
X162695465Y-104041523D01*
X162500787Y-104104778D01*
X162500775Y-104104782D01*
X162318387Y-104197714D01*
X162152787Y-104318028D01*
X162152779Y-104318035D01*
X162008035Y-104462779D01*
X162008028Y-104462787D01*
X161887714Y-104628387D01*
X161794782Y-104810775D01*
X161794778Y-104810787D01*
X161748854Y-104952128D01*
X161731523Y-105005466D01*
X161699500Y-105207648D01*
X161699500Y-105207652D01*
X161699500Y-105412356D01*
X161700525Y-105418829D01*
X161699496Y-105471200D01*
X161689500Y-105521457D01*
X161689500Y-108116114D01*
X161669538Y-108190614D01*
X161661044Y-108203693D01*
X161577714Y-108318387D01*
X161484782Y-108500775D01*
X161484776Y-108500790D01*
X161434170Y-108656543D01*
X161392164Y-108721228D01*
X161323442Y-108756244D01*
X161292463Y-108759500D01*
X159183885Y-108759500D01*
X159179654Y-108758366D01*
X159175368Y-108759256D01*
X159152437Y-108751073D01*
X159109385Y-108739538D01*
X159102131Y-108735068D01*
X159099171Y-108733125D01*
X158981610Y-108647713D01*
X158925357Y-108619050D01*
X158918527Y-108614568D01*
X158898114Y-108591677D01*
X158875319Y-108571152D01*
X158872742Y-108563223D01*
X158867195Y-108557002D01*
X158860963Y-108526969D01*
X158851485Y-108497798D01*
X158853218Y-108489643D01*
X158851525Y-108481483D01*
X158861143Y-108452361D01*
X158867521Y-108422356D01*
X158873098Y-108416160D01*
X158875713Y-108408246D01*
X158898603Y-108387833D01*
X158919129Y-108365038D01*
X158932637Y-108357240D01*
X158981610Y-108332287D01*
X159147219Y-108211966D01*
X159291966Y-108067219D01*
X159412287Y-107901610D01*
X159505220Y-107719219D01*
X159568477Y-107524534D01*
X159600500Y-107322352D01*
X159600500Y-107117648D01*
X159568477Y-106915466D01*
X159505220Y-106720781D01*
X159412287Y-106538390D01*
X159371036Y-106481612D01*
X159291971Y-106372787D01*
X159291964Y-106372779D01*
X159147220Y-106228035D01*
X159147212Y-106228028D01*
X158981609Y-106107712D01*
X158932637Y-106082760D01*
X158875319Y-106031152D01*
X158851485Y-105957798D01*
X158867521Y-105882356D01*
X158919129Y-105825038D01*
X158932637Y-105817240D01*
X158948393Y-105809212D01*
X158981610Y-105792287D01*
X159147219Y-105671966D01*
X159291966Y-105527219D01*
X159412287Y-105361610D01*
X159505220Y-105179219D01*
X159568477Y-104984534D01*
X159600500Y-104782352D01*
X159600500Y-104577648D01*
X159568477Y-104375466D01*
X159505220Y-104180781D01*
X159412287Y-103998390D01*
X159412285Y-103998387D01*
X159291971Y-103832787D01*
X159291964Y-103832779D01*
X159147220Y-103688035D01*
X159147212Y-103688028D01*
X158981612Y-103567714D01*
X158799224Y-103474782D01*
X158799220Y-103474780D01*
X158799219Y-103474780D01*
X158604534Y-103411523D01*
X158464506Y-103389344D01*
X158394048Y-103357974D01*
X158382458Y-103347538D01*
X155397141Y-100362221D01*
X155397139Y-100362218D01*
X155257782Y-100222861D01*
X155195372Y-100181160D01*
X155093919Y-100113370D01*
X155093909Y-100113365D01*
X155004868Y-100076483D01*
X154965165Y-100060038D01*
X154921409Y-100041914D01*
X154911837Y-100037949D01*
X154815188Y-100018724D01*
X154815188Y-100018723D01*
X154718541Y-99999500D01*
X153633886Y-99999500D01*
X153631317Y-99998811D01*
X153628725Y-99999411D01*
X153611752Y-99993569D01*
X153559386Y-99979538D01*
X153554961Y-99976880D01*
X153550531Y-99974113D01*
X153431610Y-99887713D01*
X153326083Y-99833943D01*
X153320575Y-99830504D01*
X153298541Y-99806887D01*
X153274537Y-99785274D01*
X153272485Y-99778961D01*
X153267959Y-99774109D01*
X153260684Y-99742638D01*
X153250704Y-99711920D01*
X153250500Y-99704124D01*
X153250500Y-93863945D01*
X156779500Y-93863945D01*
X156779500Y-94056055D01*
X156792856Y-94140386D01*
X156809553Y-94245806D01*
X156868918Y-94428511D01*
X156956135Y-94599682D01*
X156956136Y-94599683D01*
X157027336Y-94697682D01*
X157069055Y-94755102D01*
X157204898Y-94890945D01*
X157321463Y-94975635D01*
X157360316Y-95003863D01*
X157360317Y-95003864D01*
X157531488Y-95091081D01*
X157534526Y-95092339D01*
X157535650Y-95093201D01*
X157536707Y-95093740D01*
X157536607Y-95093935D01*
X157595718Y-95139288D01*
X157625237Y-95210544D01*
X157615174Y-95287013D01*
X157568225Y-95348205D01*
X157534526Y-95367661D01*
X157531488Y-95368918D01*
X157360317Y-95456135D01*
X157360316Y-95456136D01*
X157204907Y-95569048D01*
X157204896Y-95569057D01*
X157069057Y-95704896D01*
X157069048Y-95704907D01*
X156956136Y-95860316D01*
X156956135Y-95860317D01*
X156868918Y-96031488D01*
X156809554Y-96214193D01*
X156809553Y-96214193D01*
X156802605Y-96258064D01*
X156779500Y-96403945D01*
X156779500Y-96596055D01*
X156792856Y-96680386D01*
X156809553Y-96785806D01*
X156868918Y-96968511D01*
X156956135Y-97139682D01*
X156956136Y-97139683D01*
X156995424Y-97193758D01*
X157069055Y-97295102D01*
X157204898Y-97430945D01*
X157297724Y-97498387D01*
X157360316Y-97543863D01*
X157360317Y-97543864D01*
X157531488Y-97631081D01*
X157531490Y-97631081D01*
X157531491Y-97631082D01*
X157684468Y-97680787D01*
X157714193Y-97690445D01*
X157714193Y-97690446D01*
X157714198Y-97690446D01*
X157714199Y-97690447D01*
X157903945Y-97720500D01*
X157903949Y-97720500D01*
X158096051Y-97720500D01*
X158096055Y-97720500D01*
X158285801Y-97690447D01*
X158285802Y-97690446D01*
X158285806Y-97690446D01*
X158285806Y-97690445D01*
X158468509Y-97631082D01*
X158639681Y-97543865D01*
X158642783Y-97541610D01*
X158660203Y-97528956D01*
X158732208Y-97501316D01*
X158747782Y-97500500D01*
X161333862Y-97500500D01*
X161408362Y-97520462D01*
X161439221Y-97544141D01*
X161667538Y-97772458D01*
X161706102Y-97839253D01*
X161709343Y-97854500D01*
X161731523Y-97994534D01*
X161785867Y-98161789D01*
X161794778Y-98189212D01*
X161794782Y-98189224D01*
X161887714Y-98371612D01*
X162008028Y-98537212D01*
X162008035Y-98537220D01*
X162152779Y-98681964D01*
X162152787Y-98681971D01*
X162272139Y-98768684D01*
X162318390Y-98802287D01*
X162500781Y-98895220D01*
X162695466Y-98958477D01*
X162897648Y-98990500D01*
X162897653Y-98990500D01*
X163102347Y-98990500D01*
X163102352Y-98990500D01*
X163304534Y-98958477D01*
X163499219Y-98895220D01*
X163681610Y-98802287D01*
X163847219Y-98681966D01*
X163991966Y-98537219D01*
X164112287Y-98371610D01*
X164205220Y-98189219D01*
X164268477Y-97994534D01*
X164300500Y-97792352D01*
X164300500Y-97587648D01*
X164268477Y-97385466D01*
X164205220Y-97190781D01*
X164112287Y-97008390D01*
X164087867Y-96974778D01*
X163991971Y-96842787D01*
X163991964Y-96842779D01*
X163847220Y-96698035D01*
X163847212Y-96698028D01*
X163681612Y-96577714D01*
X163499224Y-96484782D01*
X163499220Y-96484780D01*
X163499219Y-96484780D01*
X163304534Y-96421523D01*
X163164506Y-96399344D01*
X163094048Y-96367974D01*
X163082458Y-96357538D01*
X162587141Y-95862221D01*
X162587139Y-95862218D01*
X162447782Y-95722861D01*
X162414919Y-95700902D01*
X162283919Y-95613370D01*
X162283909Y-95613365D01*
X162178708Y-95569790D01*
X162155165Y-95560038D01*
X162128500Y-95548993D01*
X162101837Y-95537949D01*
X162005188Y-95518724D01*
X162005188Y-95518723D01*
X161908541Y-95499500D01*
X158747782Y-95499500D01*
X158677509Y-95481888D01*
X158668481Y-95477059D01*
X158639681Y-95456135D01*
X158468509Y-95368918D01*
X158462859Y-95367082D01*
X158452213Y-95361388D01*
X158429249Y-95339868D01*
X158404285Y-95320717D01*
X158401411Y-95313782D01*
X158395934Y-95308649D01*
X158386805Y-95278527D01*
X158374763Y-95249462D01*
X158375741Y-95242021D01*
X158373564Y-95234836D01*
X158380719Y-95204184D01*
X158384823Y-95172993D01*
X158389391Y-95167038D01*
X158391098Y-95159727D01*
X158412617Y-95136763D01*
X158431769Y-95111799D01*
X158441011Y-95106462D01*
X158443837Y-95103448D01*
X158448882Y-95101919D01*
X158465479Y-95092337D01*
X158468509Y-95091082D01*
X158468511Y-95091081D01*
X158639681Y-95003865D01*
X158795102Y-94890945D01*
X158930945Y-94755102D01*
X159043865Y-94599681D01*
X159131082Y-94428509D01*
X159190445Y-94245806D01*
X159190446Y-94245806D01*
X159190447Y-94245801D01*
X159220500Y-94056055D01*
X159220500Y-93863945D01*
X159190447Y-93674199D01*
X159190446Y-93674198D01*
X159190446Y-93674193D01*
X159131081Y-93491488D01*
X159043864Y-93320317D01*
X159043863Y-93320316D01*
X158953153Y-93195465D01*
X158930945Y-93164898D01*
X158795102Y-93029055D01*
X158732731Y-92983740D01*
X158639683Y-92916136D01*
X158639682Y-92916135D01*
X158468511Y-92828918D01*
X158285806Y-92769554D01*
X158285806Y-92769553D01*
X158180386Y-92752856D01*
X158096055Y-92739500D01*
X157903945Y-92739500D01*
X157828046Y-92751521D01*
X157714193Y-92769553D01*
X157714193Y-92769554D01*
X157531488Y-92828918D01*
X157360317Y-92916135D01*
X157360316Y-92916136D01*
X157204907Y-93029048D01*
X157204896Y-93029057D01*
X157069057Y-93164896D01*
X157069048Y-93164907D01*
X156956136Y-93320316D01*
X156956135Y-93320317D01*
X156868918Y-93491488D01*
X156809554Y-93674193D01*
X156809553Y-93674193D01*
X156789517Y-93800696D01*
X156779500Y-93863945D01*
X153250500Y-93863945D01*
X153250500Y-82649500D01*
X153270462Y-82575000D01*
X153325000Y-82520462D01*
X153399500Y-82500500D01*
X155478537Y-82500500D01*
X155478540Y-82500500D01*
X155478541Y-82500500D01*
X155496377Y-82496951D01*
X155548750Y-82495923D01*
X155577648Y-82500500D01*
X155577652Y-82500500D01*
X155782347Y-82500500D01*
X155782352Y-82500500D01*
X155984534Y-82468477D01*
X156179219Y-82405220D01*
X156361610Y-82312287D01*
X156527219Y-82191966D01*
X156671966Y-82047219D01*
X156792287Y-81881610D01*
X156817240Y-81832636D01*
X156868848Y-81775319D01*
X156942202Y-81751485D01*
X157017644Y-81767521D01*
X157074962Y-81819129D01*
X157082760Y-81832637D01*
X157107712Y-81881609D01*
X157228028Y-82047212D01*
X157228035Y-82047220D01*
X157372779Y-82191964D01*
X157372787Y-82191971D01*
X157516392Y-82296305D01*
X157538390Y-82312287D01*
X157720781Y-82405220D01*
X157915466Y-82468477D01*
X158117648Y-82500500D01*
X158117653Y-82500500D01*
X158322347Y-82500500D01*
X158322352Y-82500500D01*
X158524534Y-82468477D01*
X158719219Y-82405220D01*
X158901610Y-82312287D01*
X159067219Y-82191966D01*
X159211966Y-82047219D01*
X159332287Y-81881610D01*
X159357240Y-81832636D01*
X159408848Y-81775319D01*
X159482202Y-81751485D01*
X159557644Y-81767521D01*
X159614962Y-81819129D01*
X159622760Y-81832637D01*
X159647712Y-81881609D01*
X159768028Y-82047212D01*
X159768035Y-82047220D01*
X159912779Y-82191964D01*
X159912787Y-82191971D01*
X160056392Y-82296305D01*
X160078390Y-82312287D01*
X160260781Y-82405220D01*
X160351126Y-82434575D01*
X160415807Y-82476579D01*
X160450823Y-82545300D01*
X160446787Y-82622323D01*
X160410438Y-82681639D01*
X159136220Y-83955859D01*
X159069425Y-83994423D01*
X159030861Y-83999500D01*
X158901459Y-83999500D01*
X158804811Y-84018723D01*
X158804812Y-84018724D01*
X158708163Y-84037949D01*
X158708158Y-84037950D01*
X158654834Y-84060037D01*
X158654834Y-84060038D01*
X158624488Y-84072607D01*
X158526090Y-84113365D01*
X158526080Y-84113370D01*
X158362219Y-84222860D01*
X158362214Y-84222864D01*
X154902864Y-87682214D01*
X154902860Y-87682219D01*
X154793366Y-87846089D01*
X154789602Y-87855176D01*
X154757307Y-87903507D01*
X154688036Y-87972778D01*
X154688028Y-87972787D01*
X154567714Y-88138387D01*
X154474782Y-88320775D01*
X154474780Y-88320781D01*
X154411523Y-88515466D01*
X154379500Y-88717648D01*
X154379500Y-88922352D01*
X154411523Y-89124534D01*
X154461618Y-89278712D01*
X154474778Y-89319212D01*
X154474782Y-89319224D01*
X154567714Y-89501612D01*
X154688028Y-89667212D01*
X154688035Y-89667220D01*
X154832779Y-89811964D01*
X154832787Y-89811971D01*
X154998387Y-89932285D01*
X154998390Y-89932287D01*
X155180781Y-90025220D01*
X155375466Y-90088477D01*
X155577648Y-90120500D01*
X155577653Y-90120500D01*
X155782347Y-90120500D01*
X155782352Y-90120500D01*
X155984534Y-90088477D01*
X156179219Y-90025220D01*
X156361610Y-89932287D01*
X156527219Y-89811966D01*
X156671966Y-89667219D01*
X156792287Y-89501610D01*
X156817240Y-89452636D01*
X156868848Y-89395319D01*
X156942202Y-89371485D01*
X157017644Y-89387521D01*
X157074962Y-89439129D01*
X157082760Y-89452637D01*
X157107712Y-89501609D01*
X157228028Y-89667212D01*
X157228035Y-89667220D01*
X157372779Y-89811964D01*
X157372787Y-89811971D01*
X157538387Y-89932285D01*
X157538390Y-89932287D01*
X157720781Y-90025220D01*
X157915466Y-90088477D01*
X158117648Y-90120500D01*
X158117653Y-90120500D01*
X158322347Y-90120500D01*
X158322352Y-90120500D01*
X158524534Y-90088477D01*
X158719219Y-90025220D01*
X158901610Y-89932287D01*
X159016307Y-89848954D01*
X159088311Y-89821316D01*
X159103885Y-89820500D01*
X159876115Y-89820500D01*
X159950615Y-89840462D01*
X159963682Y-89848947D01*
X160078390Y-89932287D01*
X160260781Y-90025220D01*
X160455466Y-90088477D01*
X160657648Y-90120500D01*
X160657653Y-90120500D01*
X160862347Y-90120500D01*
X160862352Y-90120500D01*
X161064534Y-90088477D01*
X161259219Y-90025220D01*
X161441610Y-89932287D01*
X161607219Y-89811966D01*
X161751966Y-89667219D01*
X161872287Y-89501610D01*
X161897240Y-89452636D01*
X161922826Y-89424219D01*
X161948246Y-89395713D01*
X161948597Y-89395596D01*
X161948848Y-89395319D01*
X161985311Y-89383471D01*
X162021483Y-89371525D01*
X162021846Y-89371600D01*
X162022202Y-89371485D01*
X162059567Y-89379427D01*
X162097002Y-89387195D01*
X162097244Y-89387436D01*
X162097644Y-89387521D01*
X162154568Y-89438527D01*
X162159050Y-89445357D01*
X162187713Y-89501610D01*
X162273120Y-89619163D01*
X162275068Y-89622131D01*
X162286087Y-89655495D01*
X162298684Y-89688310D01*
X162299015Y-89694640D01*
X162299256Y-89695368D01*
X162299094Y-89696146D01*
X162299500Y-89703885D01*
X162299500Y-91648540D01*
X162334290Y-91823448D01*
X162337947Y-91841828D01*
X162337949Y-91841836D01*
X162413368Y-92023916D01*
X162500842Y-92154829D01*
X162522861Y-92187782D01*
X162522864Y-92187785D01*
X162667538Y-92332459D01*
X162706102Y-92399254D01*
X162709344Y-92414509D01*
X162731520Y-92554523D01*
X162731522Y-92554532D01*
X162794778Y-92749212D01*
X162794782Y-92749224D01*
X162887714Y-92931612D01*
X163008028Y-93097212D01*
X163008035Y-93097220D01*
X163152779Y-93241964D01*
X163152787Y-93241971D01*
X163287026Y-93339500D01*
X163318390Y-93362287D01*
X163500781Y-93455220D01*
X163695466Y-93518477D01*
X163897648Y-93550500D01*
X163902492Y-93550500D01*
X163976992Y-93570462D01*
X164007851Y-93594141D01*
X171028350Y-100614640D01*
X171066914Y-100681435D01*
X171066914Y-100758563D01*
X171028350Y-100825358D01*
X169672221Y-102181488D01*
X169532864Y-102320844D01*
X169532860Y-102320849D01*
X169423368Y-102484714D01*
X169423367Y-102484717D01*
X169347949Y-102666793D01*
X169347948Y-102666795D01*
X169309500Y-102860090D01*
X169309500Y-108116114D01*
X169289538Y-108190614D01*
X169281044Y-108203693D01*
X169197714Y-108318387D01*
X169104782Y-108500775D01*
X169104778Y-108500787D01*
X169057039Y-108647714D01*
X169041523Y-108695466D01*
X169009500Y-108897648D01*
X169009500Y-109102352D01*
X169021364Y-109177256D01*
X169041523Y-109304534D01*
X169071924Y-109398098D01*
X169075961Y-109475121D01*
X169040946Y-109543842D01*
X169035576Y-109549501D01*
X163629221Y-114955859D01*
X163562426Y-114994423D01*
X163523862Y-114999500D01*
X156976138Y-114999500D01*
X156901638Y-114979538D01*
X156870779Y-114955859D01*
X154777141Y-112862221D01*
X154777139Y-112862218D01*
X154637782Y-112722861D01*
X154571852Y-112678808D01*
X154473916Y-112613368D01*
X154308327Y-112544780D01*
X154308327Y-112544779D01*
X154308325Y-112544779D01*
X154291836Y-112537949D01*
X154291834Y-112537948D01*
X154291833Y-112537948D01*
X154195188Y-112518724D01*
X154195188Y-112518723D01*
X154098541Y-112499500D01*
X152356139Y-112499500D01*
X152281639Y-112479538D01*
X152250780Y-112455859D01*
X152012461Y-112217541D01*
X151973897Y-112150746D01*
X151970654Y-112135490D01*
X151948477Y-111995466D01*
X151885220Y-111800781D01*
X151792287Y-111618390D01*
X151776977Y-111597317D01*
X151671971Y-111452787D01*
X151671964Y-111452779D01*
X151527220Y-111308035D01*
X151527212Y-111308028D01*
X151361609Y-111187712D01*
X151312637Y-111162760D01*
X151255319Y-111111152D01*
X151231485Y-111037798D01*
X151247521Y-110962356D01*
X151299129Y-110905038D01*
X151312637Y-110897240D01*
X151327969Y-110889428D01*
X151361610Y-110872287D01*
X151527219Y-110751966D01*
X151671966Y-110607219D01*
X151792287Y-110441610D01*
X151885220Y-110259219D01*
X151948477Y-110064534D01*
X151980500Y-109862352D01*
X151980500Y-109657648D01*
X151948477Y-109455466D01*
X151885220Y-109260781D01*
X151792287Y-109078390D01*
X151739504Y-109005740D01*
X151671971Y-108912787D01*
X151671964Y-108912779D01*
X151527220Y-108768035D01*
X151527212Y-108768028D01*
X151361609Y-108647712D01*
X151312637Y-108622760D01*
X151255319Y-108571152D01*
X151231485Y-108497798D01*
X151247521Y-108422356D01*
X151299129Y-108365038D01*
X151312637Y-108357240D01*
X151361610Y-108332287D01*
X151527219Y-108211966D01*
X151671966Y-108067219D01*
X151792287Y-107901610D01*
X151885220Y-107719219D01*
X151948477Y-107524534D01*
X151980500Y-107322352D01*
X151980500Y-107117648D01*
X151948477Y-106915466D01*
X151885220Y-106720781D01*
X151792287Y-106538390D01*
X151751036Y-106481612D01*
X151671971Y-106372787D01*
X151671964Y-106372779D01*
X151527220Y-106228035D01*
X151527212Y-106228028D01*
X151361609Y-106107712D01*
X151312637Y-106082760D01*
X151255319Y-106031152D01*
X151231485Y-105957798D01*
X151247521Y-105882356D01*
X151299129Y-105825038D01*
X151312637Y-105817240D01*
X151328393Y-105809212D01*
X151361610Y-105792287D01*
X151527219Y-105671966D01*
X151671966Y-105527219D01*
X151792287Y-105361610D01*
X151885220Y-105179219D01*
X151948477Y-104984534D01*
X151980500Y-104782352D01*
X151980500Y-104577648D01*
X151948477Y-104375466D01*
X151885220Y-104180781D01*
X151792287Y-103998390D01*
X151792285Y-103998387D01*
X151671971Y-103832787D01*
X151671964Y-103832779D01*
X151527220Y-103688035D01*
X151527212Y-103688028D01*
X151361612Y-103567714D01*
X151179224Y-103474782D01*
X151179220Y-103474780D01*
X151179219Y-103474780D01*
X150984534Y-103411523D01*
X150782352Y-103379500D01*
X150577648Y-103379500D01*
X150409163Y-103406185D01*
X150375465Y-103411523D01*
X150180787Y-103474778D01*
X150180775Y-103474782D01*
X149998387Y-103567714D01*
X149832787Y-103688028D01*
X149832779Y-103688035D01*
X149688035Y-103832779D01*
X149688028Y-103832787D01*
X149567714Y-103998387D01*
X149474782Y-104180775D01*
X149474778Y-104180787D01*
X149411523Y-104375465D01*
X149408074Y-104397240D01*
X149379500Y-104577648D01*
X149379500Y-104782352D01*
X149411523Y-104984534D01*
X149455015Y-105118390D01*
X149474778Y-105179212D01*
X149474782Y-105179224D01*
X149567714Y-105361612D01*
X149688028Y-105527212D01*
X149688035Y-105527220D01*
X149832779Y-105671964D01*
X149832787Y-105671971D01*
X149868135Y-105697652D01*
X149998390Y-105792287D01*
X150031631Y-105809224D01*
X150047363Y-105817240D01*
X150104680Y-105868849D01*
X150128514Y-105942203D01*
X150112478Y-106017645D01*
X150060869Y-106074962D01*
X150047363Y-106082760D01*
X149998388Y-106107714D01*
X149832787Y-106228028D01*
X149832779Y-106228035D01*
X149688035Y-106372779D01*
X149688028Y-106372787D01*
X149567714Y-106538387D01*
X149474782Y-106720775D01*
X149474778Y-106720787D01*
X149412557Y-106912285D01*
X149411523Y-106915466D01*
X149379500Y-107117648D01*
X149379500Y-107322352D01*
X149395400Y-107422738D01*
X149411523Y-107524534D01*
X149474778Y-107719212D01*
X149474782Y-107719224D01*
X149567714Y-107901612D01*
X149688028Y-108067212D01*
X149688035Y-108067220D01*
X149832779Y-108211964D01*
X149832787Y-108211971D01*
X149922130Y-108276881D01*
X149998390Y-108332287D01*
X150047363Y-108357240D01*
X150104680Y-108408849D01*
X150128514Y-108482203D01*
X150112478Y-108557645D01*
X150060869Y-108614962D01*
X150047363Y-108622760D01*
X149998388Y-108647714D01*
X149832787Y-108768028D01*
X149832779Y-108768035D01*
X149688035Y-108912779D01*
X149688028Y-108912787D01*
X149567714Y-109078387D01*
X149474782Y-109260775D01*
X149474778Y-109260787D01*
X149417215Y-109437949D01*
X149411523Y-109455466D01*
X149379500Y-109657648D01*
X149379500Y-109862352D01*
X149398424Y-109981832D01*
X149411523Y-110064534D01*
X149474778Y-110259212D01*
X149474782Y-110259224D01*
X149567714Y-110441612D01*
X149688028Y-110607212D01*
X149688035Y-110607220D01*
X149832779Y-110751964D01*
X149832787Y-110751971D01*
X149922130Y-110816881D01*
X149998390Y-110872287D01*
X150047363Y-110897240D01*
X150075716Y-110922770D01*
X150104286Y-110948245D01*
X150104403Y-110948599D01*
X150104680Y-110948849D01*
X150116487Y-110985188D01*
X150128474Y-111021482D01*
X150128398Y-111021846D01*
X150128514Y-111022203D01*
X150120558Y-111059630D01*
X150112804Y-111097002D01*
X150112563Y-111097243D01*
X150112478Y-111097645D01*
X150061473Y-111154568D01*
X150054642Y-111159050D01*
X149998390Y-111187713D01*
X149880819Y-111273132D01*
X149877870Y-111275068D01*
X149844502Y-111286088D01*
X149811689Y-111298684D01*
X149805361Y-111299015D01*
X149804633Y-111299256D01*
X149803854Y-111299094D01*
X149796115Y-111299500D01*
X149276139Y-111299500D01*
X149201639Y-111279538D01*
X149170780Y-111255859D01*
X147685634Y-109770714D01*
X147685632Y-109770711D01*
X147537785Y-109622864D01*
X147537782Y-109622861D01*
X147473319Y-109579788D01*
X147373916Y-109513368D01*
X147234125Y-109455466D01*
X147234123Y-109455465D01*
X147191834Y-109437948D01*
X147191836Y-109437948D01*
X147095188Y-109418724D01*
X147095188Y-109418723D01*
X146998541Y-109399500D01*
X143549500Y-109399500D01*
X143475000Y-109379538D01*
X143420462Y-109325000D01*
X143400500Y-109250500D01*
X143400500Y-106059049D01*
X143400499Y-106059043D01*
X143363706Y-105779572D01*
X143363704Y-105779559D01*
X143363704Y-105779558D01*
X143290742Y-105507261D01*
X143182863Y-105246817D01*
X143041912Y-105002683D01*
X143041910Y-105002680D01*
X143041909Y-105002678D01*
X142894655Y-104810775D01*
X142870300Y-104779035D01*
X142670965Y-104579700D01*
X142616358Y-104537798D01*
X142447321Y-104408090D01*
X142447319Y-104408089D01*
X142203187Y-104267139D01*
X142203185Y-104267138D01*
X142203183Y-104267137D01*
X141942739Y-104159258D01*
X141804191Y-104122134D01*
X141737396Y-104083569D01*
X141698833Y-104016774D01*
X141698833Y-103939646D01*
X141737398Y-103872851D01*
X141804193Y-103834288D01*
X141823291Y-103830488D01*
X141911789Y-103818838D01*
X142146100Y-103756054D01*
X142370212Y-103663224D01*
X142580289Y-103541936D01*
X142772738Y-103394265D01*
X142944265Y-103222738D01*
X143091936Y-103030289D01*
X143213224Y-102820212D01*
X143306054Y-102596100D01*
X143368838Y-102361789D01*
X143400500Y-102121288D01*
X143400500Y-101878712D01*
X143374552Y-101681612D01*
X143368839Y-101638218D01*
X143368838Y-101638217D01*
X143368838Y-101638211D01*
X143306054Y-101403900D01*
X143213224Y-101179788D01*
X143091936Y-100969711D01*
X142944265Y-100777262D01*
X142772738Y-100605735D01*
X142580289Y-100458064D01*
X142390588Y-100348540D01*
X142370216Y-100336778D01*
X142370214Y-100336777D01*
X142370212Y-100336776D01*
X142238932Y-100282398D01*
X142146103Y-100243947D01*
X142146101Y-100243946D01*
X142146100Y-100243946D01*
X141911789Y-100181162D01*
X141911787Y-100181161D01*
X141911781Y-100181160D01*
X141671293Y-100149500D01*
X141671288Y-100149500D01*
X140828712Y-100149500D01*
X140828706Y-100149500D01*
X140588218Y-100181160D01*
X140353896Y-100243947D01*
X140129783Y-100336778D01*
X139919712Y-100458063D01*
X139893968Y-100477817D01*
X139727262Y-100605735D01*
X139727260Y-100605736D01*
X139727256Y-100605740D01*
X139555740Y-100777256D01*
X139555736Y-100777260D01*
X139555735Y-100777262D01*
X139538208Y-100800104D01*
X139408063Y-100969712D01*
X139286778Y-101179783D01*
X139193947Y-101403896D01*
X139131160Y-101638218D01*
X139099500Y-101878706D01*
X139099500Y-102121293D01*
X139131160Y-102361781D01*
X139131161Y-102361787D01*
X139131162Y-102361789D01*
X139164100Y-102484716D01*
X139193947Y-102596103D01*
X139223228Y-102666793D01*
X139262161Y-102760787D01*
X139286778Y-102820216D01*
X139360428Y-102947781D01*
X139408064Y-103030289D01*
X139555735Y-103222738D01*
X139727262Y-103394265D01*
X139919711Y-103541936D01*
X140129788Y-103663224D01*
X140353900Y-103756054D01*
X140588211Y-103818838D01*
X140676693Y-103830486D01*
X140747947Y-103860000D01*
X140794900Y-103921189D01*
X140804969Y-103997657D01*
X140775454Y-104068915D01*
X140714265Y-104115868D01*
X140695808Y-104122134D01*
X140633375Y-104138863D01*
X140557261Y-104159258D01*
X140557258Y-104159259D01*
X140557255Y-104159260D01*
X140296812Y-104267139D01*
X140052680Y-104408089D01*
X140052678Y-104408090D01*
X139829034Y-104579700D01*
X139629700Y-104779034D01*
X139458090Y-105002678D01*
X139458089Y-105002680D01*
X139317139Y-105246812D01*
X139209259Y-105507257D01*
X139136295Y-105779559D01*
X139136293Y-105779572D01*
X139099500Y-106059043D01*
X139099500Y-110540956D01*
X139136293Y-110820427D01*
X139136295Y-110820440D01*
X139163715Y-110922770D01*
X139200386Y-111059630D01*
X139209259Y-111092742D01*
X139248280Y-111186948D01*
X139298433Y-111308028D01*
X139317139Y-111353187D01*
X139458089Y-111597319D01*
X139458090Y-111597321D01*
X139629700Y-111820965D01*
X139829034Y-112020299D01*
X140052678Y-112191909D01*
X140052681Y-112191910D01*
X140052683Y-112191912D01*
X140296817Y-112332863D01*
X140557261Y-112440742D01*
X140695808Y-112477865D01*
X140762602Y-112516429D01*
X140801166Y-112583224D01*
X140801166Y-112660352D01*
X140762602Y-112727147D01*
X140695807Y-112765711D01*
X140676691Y-112769513D01*
X140588218Y-112781160D01*
X140353896Y-112843947D01*
X140129783Y-112936778D01*
X139919712Y-113058063D01*
X139919711Y-113058064D01*
X139727262Y-113205735D01*
X139727260Y-113205736D01*
X139727256Y-113205740D01*
X139555740Y-113377256D01*
X139555736Y-113377260D01*
X139555735Y-113377262D01*
X139494133Y-113457544D01*
X139408063Y-113569712D01*
X139286778Y-113779783D01*
X139193947Y-114003896D01*
X139131160Y-114238218D01*
X139099500Y-114478706D01*
X139099500Y-114721293D01*
X139131160Y-114961781D01*
X139131161Y-114961787D01*
X139131162Y-114961789D01*
X139177562Y-115134956D01*
X139193947Y-115196103D01*
X139286778Y-115420216D01*
X139333296Y-115500787D01*
X139408064Y-115630289D01*
X139555735Y-115822738D01*
X139727262Y-115994265D01*
X139919711Y-116141936D01*
X140129788Y-116263224D01*
X140353900Y-116356054D01*
X140588211Y-116418838D01*
X140588217Y-116418838D01*
X140588218Y-116418839D01*
X140653600Y-116427446D01*
X140828712Y-116450500D01*
X141671288Y-116450500D01*
X141911789Y-116418838D01*
X142146100Y-116356054D01*
X142370212Y-116263224D01*
X142580289Y-116141936D01*
X142772738Y-115994265D01*
X142944265Y-115822738D01*
X143091936Y-115630289D01*
X143213224Y-115420212D01*
X143306054Y-115196100D01*
X143368838Y-114961789D01*
X143400500Y-114721288D01*
X143400500Y-114478712D01*
X143368838Y-114238211D01*
X143306054Y-114003900D01*
X143213224Y-113779788D01*
X143091936Y-113569711D01*
X142944265Y-113377262D01*
X142772738Y-113205735D01*
X142580289Y-113058064D01*
X142478375Y-112999224D01*
X142370216Y-112936778D01*
X142370214Y-112936777D01*
X142370212Y-112936776D01*
X142190213Y-112862218D01*
X142146103Y-112843947D01*
X142146101Y-112843946D01*
X142146100Y-112843946D01*
X141911789Y-112781162D01*
X141911787Y-112781161D01*
X141911781Y-112781160D01*
X141823308Y-112769513D01*
X141752051Y-112739998D01*
X141705098Y-112678808D01*
X141695031Y-112602340D01*
X141724546Y-112531083D01*
X141785736Y-112484130D01*
X141804182Y-112477868D01*
X141942739Y-112440742D01*
X142203183Y-112332863D01*
X142447317Y-112191912D01*
X142670965Y-112020300D01*
X142870300Y-111820965D01*
X143041912Y-111597317D01*
X143112532Y-111474998D01*
X143167069Y-111420462D01*
X143241569Y-111400500D01*
X146423862Y-111400500D01*
X146498362Y-111420462D01*
X146529220Y-111444140D01*
X148022860Y-112937781D01*
X148022861Y-112937782D01*
X148162218Y-113077139D01*
X148227675Y-113120876D01*
X148326083Y-113186631D01*
X148454834Y-113239961D01*
X148454833Y-113239961D01*
X148480941Y-113250775D01*
X148508164Y-113262051D01*
X148604810Y-113281274D01*
X148604811Y-113281275D01*
X148652485Y-113290758D01*
X148701459Y-113300500D01*
X148701460Y-113300500D01*
X148898540Y-113300500D01*
X149530500Y-113300500D01*
X149605000Y-113320462D01*
X149659538Y-113375000D01*
X149679500Y-113449500D01*
X149679500Y-115212461D01*
X149659538Y-115286961D01*
X149651046Y-115300038D01*
X149637716Y-115318385D01*
X149637714Y-115318389D01*
X149544782Y-115500775D01*
X149544778Y-115500787D01*
X149491257Y-115665509D01*
X149481523Y-115695466D01*
X149449500Y-115897648D01*
X149449500Y-116102352D01*
X149470319Y-116233795D01*
X149481523Y-116304534D01*
X149544778Y-116499212D01*
X149544782Y-116499224D01*
X149593806Y-116595438D01*
X149615381Y-116637782D01*
X149637714Y-116681611D01*
X149637719Y-116681620D01*
X149721043Y-116796305D01*
X149748684Y-116868310D01*
X149749500Y-116883885D01*
X149749500Y-120039597D01*
X149729538Y-120114097D01*
X149705859Y-120144956D01*
X149698035Y-120152779D01*
X149698028Y-120152787D01*
X149577714Y-120318387D01*
X149484782Y-120500775D01*
X149484778Y-120500787D01*
X149421522Y-120695467D01*
X149421520Y-120695476D01*
X149399344Y-120835490D01*
X149367973Y-120905950D01*
X149357538Y-120917540D01*
X147862220Y-122412859D01*
X147722864Y-122552214D01*
X147722860Y-122552219D01*
X147613368Y-122716084D01*
X147613367Y-122716087D01*
X147537949Y-122898163D01*
X147537948Y-122898165D01*
X147499500Y-123091460D01*
X147499500Y-129908543D01*
X147503081Y-129926540D01*
X147503082Y-129926547D01*
X147535041Y-130087219D01*
X147537949Y-130101836D01*
X147553964Y-130140500D01*
X147553964Y-130140501D01*
X147613365Y-130283909D01*
X147613370Y-130283919D01*
X147682002Y-130386632D01*
X147722861Y-130447782D01*
X147722864Y-130447785D01*
X147870708Y-130595629D01*
X147870714Y-130595634D01*
X149357538Y-132082458D01*
X149396102Y-132149253D01*
X149399343Y-132164500D01*
X149421523Y-132304534D01*
X149484780Y-132499219D01*
X149484782Y-132499223D01*
X149484784Y-132499228D01*
X149498358Y-132525867D01*
X149514395Y-132601309D01*
X149490562Y-132674663D01*
X149433245Y-132726272D01*
X149357803Y-132742309D01*
X149284449Y-132718476D01*
X149260240Y-132698872D01*
X146294141Y-129732773D01*
X146255577Y-129665978D01*
X146250500Y-129627414D01*
X146250500Y-121926081D01*
X146230718Y-121826631D01*
X146229208Y-121819041D01*
X146221659Y-121781088D01*
X146176986Y-121673240D01*
X146176986Y-121673239D01*
X146176986Y-121673238D01*
X146165086Y-121644509D01*
X146165085Y-121644507D01*
X146165084Y-121644505D01*
X146110205Y-121562373D01*
X146082952Y-121521585D01*
X142978416Y-118417048D01*
X142978415Y-118417047D01*
X142978410Y-118417043D01*
X142904729Y-118367812D01*
X142904728Y-118367812D01*
X142855497Y-118334917D01*
X142855495Y-118334916D01*
X142718913Y-118278342D01*
X142718911Y-118278341D01*
X142718912Y-118278341D01*
X142573921Y-118249500D01*
X142573918Y-118249500D01*
X129372585Y-118249500D01*
X129298085Y-118229538D01*
X129267226Y-118205859D01*
X127794141Y-116732773D01*
X127755577Y-116665978D01*
X127750500Y-116627414D01*
X127750500Y-110278706D01*
X133599500Y-110278706D01*
X133599500Y-110521293D01*
X133631160Y-110761781D01*
X133631161Y-110761787D01*
X133631162Y-110761789D01*
X133631369Y-110762563D01*
X133693947Y-110996103D01*
X133704610Y-111021846D01*
X133759585Y-111154568D01*
X133786778Y-111220216D01*
X133837480Y-111308034D01*
X133908064Y-111430289D01*
X134055735Y-111622738D01*
X134227262Y-111794265D01*
X134419711Y-111941936D01*
X134629788Y-112063224D01*
X134853900Y-112156054D01*
X135088211Y-112218838D01*
X135088217Y-112218838D01*
X135088218Y-112218839D01*
X135153600Y-112227446D01*
X135328712Y-112250500D01*
X136171288Y-112250500D01*
X136411789Y-112218838D01*
X136646100Y-112156054D01*
X136870212Y-112063224D01*
X137080289Y-111941936D01*
X137272738Y-111794265D01*
X137444265Y-111622738D01*
X137591936Y-111430289D01*
X137713224Y-111220212D01*
X137806054Y-110996100D01*
X137868838Y-110761789D01*
X137900500Y-110521288D01*
X137900500Y-110278712D01*
X137868838Y-110038211D01*
X137806054Y-109803900D01*
X137713224Y-109579788D01*
X137591936Y-109369711D01*
X137444265Y-109177262D01*
X137272738Y-109005735D01*
X137080289Y-108858064D01*
X137010263Y-108817634D01*
X136870216Y-108736778D01*
X136870214Y-108736777D01*
X136870212Y-108736776D01*
X136655197Y-108647714D01*
X136646103Y-108643947D01*
X136646101Y-108643946D01*
X136646100Y-108643946D01*
X136411789Y-108581162D01*
X136411787Y-108581161D01*
X136411781Y-108581160D01*
X136171293Y-108549500D01*
X136171288Y-108549500D01*
X135328712Y-108549500D01*
X135328706Y-108549500D01*
X135088218Y-108581160D01*
X134853896Y-108643947D01*
X134629783Y-108736778D01*
X134419712Y-108858063D01*
X134419711Y-108858064D01*
X134227262Y-109005735D01*
X134227260Y-109005736D01*
X134227256Y-109005740D01*
X134055740Y-109177256D01*
X133908063Y-109369712D01*
X133786778Y-109579783D01*
X133693947Y-109803896D01*
X133631160Y-110038218D01*
X133599500Y-110278706D01*
X127750500Y-110278706D01*
X127750500Y-106078706D01*
X133599500Y-106078706D01*
X133599500Y-106321293D01*
X133631160Y-106561781D01*
X133631161Y-106561787D01*
X133631162Y-106561789D01*
X133654228Y-106647873D01*
X133693947Y-106796103D01*
X133732398Y-106888932D01*
X133760819Y-106957547D01*
X133786778Y-107020216D01*
X133833130Y-107100499D01*
X133908064Y-107230289D01*
X134055735Y-107422738D01*
X134227262Y-107594265D01*
X134419711Y-107741936D01*
X134629788Y-107863224D01*
X134853900Y-107956054D01*
X135088211Y-108018838D01*
X135088217Y-108018838D01*
X135088218Y-108018839D01*
X135153600Y-108027446D01*
X135328712Y-108050500D01*
X136171288Y-108050500D01*
X136411789Y-108018838D01*
X136646100Y-107956054D01*
X136870212Y-107863224D01*
X137080289Y-107741936D01*
X137272738Y-107594265D01*
X137444265Y-107422738D01*
X137591936Y-107230289D01*
X137713224Y-107020212D01*
X137806054Y-106796100D01*
X137868838Y-106561789D01*
X137900500Y-106321288D01*
X137900500Y-106078712D01*
X137874650Y-105882356D01*
X137868839Y-105838218D01*
X137868838Y-105838217D01*
X137868838Y-105838211D01*
X137806054Y-105603900D01*
X137713224Y-105379788D01*
X137591936Y-105169711D01*
X137444265Y-104977262D01*
X137272738Y-104805735D01*
X137080289Y-104658064D01*
X136944559Y-104579700D01*
X136870216Y-104536778D01*
X136870214Y-104536777D01*
X136870212Y-104536776D01*
X136738932Y-104482398D01*
X136646103Y-104443947D01*
X136646101Y-104443946D01*
X136646100Y-104443946D01*
X136411789Y-104381162D01*
X136411787Y-104381161D01*
X136411781Y-104381160D01*
X136171293Y-104349500D01*
X136171288Y-104349500D01*
X135328712Y-104349500D01*
X135328706Y-104349500D01*
X135088218Y-104381160D01*
X134853896Y-104443947D01*
X134629783Y-104536778D01*
X134419712Y-104658063D01*
X134381070Y-104687714D01*
X134227262Y-104805735D01*
X134227260Y-104805736D01*
X134227256Y-104805740D01*
X134055740Y-104977256D01*
X134055736Y-104977260D01*
X134055735Y-104977262D01*
X133962714Y-105098488D01*
X133908063Y-105169712D01*
X133786778Y-105379783D01*
X133693947Y-105603896D01*
X133631160Y-105838218D01*
X133599500Y-106078706D01*
X127750500Y-106078706D01*
X127750500Y-101878706D01*
X133599500Y-101878706D01*
X133599500Y-102121293D01*
X133631160Y-102361781D01*
X133631161Y-102361787D01*
X133631162Y-102361789D01*
X133664100Y-102484716D01*
X133693947Y-102596103D01*
X133723228Y-102666793D01*
X133762161Y-102760787D01*
X133786778Y-102820216D01*
X133860428Y-102947781D01*
X133908064Y-103030289D01*
X134055735Y-103222738D01*
X134227262Y-103394265D01*
X134419711Y-103541936D01*
X134629788Y-103663224D01*
X134853900Y-103756054D01*
X135088211Y-103818838D01*
X135088217Y-103818838D01*
X135088218Y-103818839D01*
X135096247Y-103819896D01*
X135328712Y-103850500D01*
X136171288Y-103850500D01*
X136411789Y-103818838D01*
X136646100Y-103756054D01*
X136870212Y-103663224D01*
X137080289Y-103541936D01*
X137272738Y-103394265D01*
X137444265Y-103222738D01*
X137591936Y-103030289D01*
X137713224Y-102820212D01*
X137806054Y-102596100D01*
X137868838Y-102361789D01*
X137900500Y-102121288D01*
X137900500Y-101878712D01*
X137874552Y-101681612D01*
X137868839Y-101638218D01*
X137868838Y-101638217D01*
X137868838Y-101638211D01*
X137806054Y-101403900D01*
X137713224Y-101179788D01*
X137591936Y-100969711D01*
X137444265Y-100777262D01*
X137272738Y-100605735D01*
X137080289Y-100458064D01*
X136890588Y-100348540D01*
X136870216Y-100336778D01*
X136870214Y-100336777D01*
X136870212Y-100336776D01*
X136738932Y-100282398D01*
X136646103Y-100243947D01*
X136646101Y-100243946D01*
X136646100Y-100243946D01*
X136411789Y-100181162D01*
X136411787Y-100181161D01*
X136411781Y-100181160D01*
X136171293Y-100149500D01*
X136171288Y-100149500D01*
X135328712Y-100149500D01*
X135328706Y-100149500D01*
X135088218Y-100181160D01*
X134853896Y-100243947D01*
X134629783Y-100336778D01*
X134419712Y-100458063D01*
X134393968Y-100477817D01*
X134227262Y-100605735D01*
X134227260Y-100605736D01*
X134227256Y-100605740D01*
X134055740Y-100777256D01*
X134055736Y-100777260D01*
X134055735Y-100777262D01*
X134038208Y-100800104D01*
X133908063Y-100969712D01*
X133786778Y-101179783D01*
X133693947Y-101403896D01*
X133631160Y-101638218D01*
X133599500Y-101878706D01*
X127750500Y-101878706D01*
X127750500Y-97678706D01*
X133599500Y-97678706D01*
X133599500Y-97921293D01*
X133631160Y-98161781D01*
X133631161Y-98161787D01*
X133631162Y-98161789D01*
X133693946Y-98396100D01*
X133773259Y-98587580D01*
X133786778Y-98620216D01*
X133847771Y-98725859D01*
X133908064Y-98830289D01*
X134055735Y-99022738D01*
X134227262Y-99194265D01*
X134419711Y-99341936D01*
X134629788Y-99463224D01*
X134853900Y-99556054D01*
X135088211Y-99618838D01*
X135088217Y-99618838D01*
X135088218Y-99618839D01*
X135153600Y-99627446D01*
X135328712Y-99650500D01*
X136171288Y-99650500D01*
X136411789Y-99618838D01*
X136646100Y-99556054D01*
X136870212Y-99463224D01*
X137080289Y-99341936D01*
X137272738Y-99194265D01*
X137444265Y-99022738D01*
X137591936Y-98830289D01*
X137713224Y-98620212D01*
X137806054Y-98396100D01*
X137868838Y-98161789D01*
X137900500Y-97921288D01*
X137900500Y-97678712D01*
X137900499Y-97678706D01*
X139099500Y-97678706D01*
X139099500Y-97921293D01*
X139131160Y-98161781D01*
X139131161Y-98161787D01*
X139131162Y-98161789D01*
X139193946Y-98396100D01*
X139273259Y-98587580D01*
X139286778Y-98620216D01*
X139347771Y-98725859D01*
X139408064Y-98830289D01*
X139555735Y-99022738D01*
X139727262Y-99194265D01*
X139919711Y-99341936D01*
X140129788Y-99463224D01*
X140353900Y-99556054D01*
X140588211Y-99618838D01*
X140588217Y-99618838D01*
X140588218Y-99618839D01*
X140653600Y-99627446D01*
X140828712Y-99650500D01*
X141671288Y-99650500D01*
X141911789Y-99618838D01*
X142146100Y-99556054D01*
X142370212Y-99463224D01*
X142580289Y-99341936D01*
X142772738Y-99194265D01*
X142944265Y-99022738D01*
X143091936Y-98830289D01*
X143213224Y-98620212D01*
X143306054Y-98396100D01*
X143368838Y-98161789D01*
X143400500Y-97921288D01*
X143400500Y-97678712D01*
X143368838Y-97438211D01*
X143306054Y-97203900D01*
X143213224Y-96979788D01*
X143091936Y-96769711D01*
X142944265Y-96577262D01*
X142772738Y-96405735D01*
X142580289Y-96258064D01*
X142479537Y-96199895D01*
X142370216Y-96136778D01*
X142370214Y-96136777D01*
X142370212Y-96136776D01*
X142220948Y-96074949D01*
X142146103Y-96043947D01*
X142146101Y-96043946D01*
X142146100Y-96043946D01*
X141911789Y-95981162D01*
X141911787Y-95981161D01*
X141911781Y-95981160D01*
X141671293Y-95949500D01*
X141671288Y-95949500D01*
X140828712Y-95949500D01*
X140828706Y-95949500D01*
X140588218Y-95981160D01*
X140353896Y-96043947D01*
X140129783Y-96136778D01*
X139919712Y-96258063D01*
X139919711Y-96258064D01*
X139727262Y-96405735D01*
X139727260Y-96405736D01*
X139727256Y-96405740D01*
X139555740Y-96577256D01*
X139555736Y-96577260D01*
X139555735Y-96577262D01*
X139541318Y-96596051D01*
X139408063Y-96769712D01*
X139286778Y-96979783D01*
X139193947Y-97203896D01*
X139131160Y-97438218D01*
X139099500Y-97678706D01*
X137900499Y-97678706D01*
X137868838Y-97438211D01*
X137806054Y-97203900D01*
X137713224Y-96979788D01*
X137591936Y-96769711D01*
X137444265Y-96577262D01*
X137272738Y-96405735D01*
X137080289Y-96258064D01*
X136979537Y-96199895D01*
X136870216Y-96136778D01*
X136870214Y-96136777D01*
X136870212Y-96136776D01*
X136720948Y-96074949D01*
X136646103Y-96043947D01*
X136646101Y-96043946D01*
X136646100Y-96043946D01*
X136411789Y-95981162D01*
X136411787Y-95981161D01*
X136411781Y-95981160D01*
X136171293Y-95949500D01*
X136171288Y-95949500D01*
X135328712Y-95949500D01*
X135328706Y-95949500D01*
X135088218Y-95981160D01*
X134853896Y-96043947D01*
X134629783Y-96136778D01*
X134419712Y-96258063D01*
X134419711Y-96258064D01*
X134227262Y-96405735D01*
X134227260Y-96405736D01*
X134227256Y-96405740D01*
X134055740Y-96577256D01*
X134055736Y-96577260D01*
X134055735Y-96577262D01*
X134041318Y-96596051D01*
X133908063Y-96769712D01*
X133786778Y-96979783D01*
X133693947Y-97203896D01*
X133631160Y-97438218D01*
X133599500Y-97678706D01*
X127750500Y-97678706D01*
X127750500Y-97466086D01*
X127750499Y-97466078D01*
X127743510Y-97430945D01*
X127721658Y-97321087D01*
X127665084Y-97184505D01*
X127619287Y-97115965D01*
X127619286Y-97115963D01*
X127582954Y-97061586D01*
X126549141Y-96027773D01*
X126510577Y-95960978D01*
X126505500Y-95922414D01*
X126505500Y-89278706D01*
X139099500Y-89278706D01*
X139099500Y-89521293D01*
X139131160Y-89761781D01*
X139131161Y-89761787D01*
X139131162Y-89761789D01*
X139147112Y-89821316D01*
X139193947Y-89996103D01*
X139206008Y-90025220D01*
X139286776Y-90220212D01*
X139408064Y-90430289D01*
X139555735Y-90622738D01*
X139727262Y-90794265D01*
X139919711Y-90941936D01*
X140129788Y-91063224D01*
X140353900Y-91156054D01*
X140588211Y-91218838D01*
X140588217Y-91218838D01*
X140588218Y-91218839D01*
X140653600Y-91227446D01*
X140828712Y-91250500D01*
X141671288Y-91250500D01*
X141911789Y-91218838D01*
X142146100Y-91156054D01*
X142370212Y-91063224D01*
X142580289Y-90941936D01*
X142772738Y-90794265D01*
X142944265Y-90622738D01*
X143091936Y-90430289D01*
X143213224Y-90220212D01*
X143306054Y-89996100D01*
X143368838Y-89761789D01*
X143400500Y-89521288D01*
X143400500Y-89278712D01*
X143368838Y-89038211D01*
X143306054Y-88803900D01*
X143213224Y-88579788D01*
X143091936Y-88369711D01*
X142944265Y-88177262D01*
X142772738Y-88005735D01*
X142580289Y-87858064D01*
X142464207Y-87791044D01*
X142370216Y-87736778D01*
X142370214Y-87736777D01*
X142370212Y-87736776D01*
X142238487Y-87682214D01*
X142146103Y-87643947D01*
X142146101Y-87643946D01*
X142146100Y-87643946D01*
X141911789Y-87581162D01*
X141911787Y-87581161D01*
X141911781Y-87581160D01*
X141671293Y-87549500D01*
X141671288Y-87549500D01*
X140828712Y-87549500D01*
X140828706Y-87549500D01*
X140588218Y-87581160D01*
X140353896Y-87643947D01*
X140129783Y-87736778D01*
X139919712Y-87858063D01*
X139919711Y-87858064D01*
X139727262Y-88005735D01*
X139727260Y-88005736D01*
X139727256Y-88005740D01*
X139555740Y-88177256D01*
X139408063Y-88369712D01*
X139286778Y-88579783D01*
X139193947Y-88803896D01*
X139131160Y-89038218D01*
X139099500Y-89278706D01*
X126505500Y-89278706D01*
X126505500Y-80658713D01*
X127149500Y-80658713D01*
X127149500Y-80871287D01*
X127182754Y-81081243D01*
X127248443Y-81283412D01*
X127344949Y-81472816D01*
X127469896Y-81644792D01*
X127620208Y-81795104D01*
X127792184Y-81920051D01*
X127981588Y-82016557D01*
X128183757Y-82082246D01*
X128393713Y-82115500D01*
X128393718Y-82115500D01*
X128606282Y-82115500D01*
X128606287Y-82115500D01*
X128816243Y-82082246D01*
X129018412Y-82016557D01*
X129207816Y-81920051D01*
X129379792Y-81795104D01*
X129380755Y-81794141D01*
X129381261Y-81793848D01*
X129384242Y-81791303D01*
X129384713Y-81791855D01*
X129447550Y-81755577D01*
X129486114Y-81750500D01*
X133660502Y-81750500D01*
X133735002Y-81770462D01*
X133789540Y-81825000D01*
X133822224Y-81881610D01*
X133908064Y-82030289D01*
X134055735Y-82222738D01*
X134227262Y-82394265D01*
X134419711Y-82541936D01*
X134629788Y-82663224D01*
X134853900Y-82756054D01*
X135088211Y-82818838D01*
X135088217Y-82818838D01*
X135088218Y-82818839D01*
X135153600Y-82827446D01*
X135328712Y-82850500D01*
X136171288Y-82850500D01*
X136411789Y-82818838D01*
X136646100Y-82756054D01*
X136870212Y-82663224D01*
X137080289Y-82541936D01*
X137272738Y-82394265D01*
X137444265Y-82222738D01*
X137591936Y-82030289D01*
X137713224Y-81820212D01*
X137806054Y-81596100D01*
X137868838Y-81361789D01*
X137900500Y-81121288D01*
X137900500Y-80878712D01*
X137868838Y-80638211D01*
X137806054Y-80403900D01*
X137713224Y-80179788D01*
X137591936Y-79969711D01*
X137444265Y-79777262D01*
X137272738Y-79605735D01*
X137080289Y-79458064D01*
X136982248Y-79401460D01*
X136870216Y-79336778D01*
X136870214Y-79336777D01*
X136870212Y-79336776D01*
X136738932Y-79282398D01*
X136646103Y-79243947D01*
X136646101Y-79243946D01*
X136646100Y-79243946D01*
X136411789Y-79181162D01*
X136411787Y-79181161D01*
X136411781Y-79181160D01*
X136171293Y-79149500D01*
X136171288Y-79149500D01*
X135328712Y-79149500D01*
X135328706Y-79149500D01*
X135088218Y-79181160D01*
X134853896Y-79243947D01*
X134629783Y-79336778D01*
X134419712Y-79458063D01*
X134419711Y-79458064D01*
X134227262Y-79605735D01*
X134227260Y-79605736D01*
X134227256Y-79605740D01*
X134055740Y-79777256D01*
X134055736Y-79777260D01*
X134055735Y-79777262D01*
X133995426Y-79855859D01*
X133908063Y-79969712D01*
X133789540Y-80175000D01*
X133735002Y-80229538D01*
X133660502Y-80249500D01*
X129844348Y-80249500D01*
X129769848Y-80229538D01*
X129715310Y-80175000D01*
X129711588Y-80168144D01*
X129689416Y-80124629D01*
X129655051Y-80057184D01*
X129530104Y-79885208D01*
X129379792Y-79734896D01*
X129207816Y-79609949D01*
X129018412Y-79513443D01*
X128816243Y-79447754D01*
X128606287Y-79414500D01*
X128393713Y-79414500D01*
X128218749Y-79442211D01*
X128183756Y-79447754D01*
X128057320Y-79488836D01*
X127981588Y-79513443D01*
X127981582Y-79513445D01*
X127981582Y-79513446D01*
X127792182Y-79609950D01*
X127792181Y-79609950D01*
X127620209Y-79734895D01*
X127620206Y-79734897D01*
X127469897Y-79885206D01*
X127469895Y-79885209D01*
X127344950Y-80057181D01*
X127344950Y-80057182D01*
X127248446Y-80246582D01*
X127248441Y-80246594D01*
X127213937Y-80352787D01*
X127182754Y-80448757D01*
X127149500Y-80658713D01*
X126505500Y-80658713D01*
X126505500Y-64154500D01*
X126525462Y-64080000D01*
X126580000Y-64025462D01*
X126654500Y-64005500D01*
X138248643Y-64005500D01*
X138302649Y-64002605D01*
X138302678Y-64002603D01*
X138329020Y-63999771D01*
X138329026Y-63999770D01*
X138329036Y-63999769D01*
X138337856Y-63998339D01*
X138382440Y-63991116D01*
X138382443Y-63991114D01*
X138382448Y-63991114D01*
X138517257Y-63940832D01*
X138578580Y-63907347D01*
X138693761Y-63821123D01*
X139321123Y-63193761D01*
X139357288Y-63153500D01*
X139373922Y-63132858D01*
X139405567Y-63088974D01*
X139465338Y-62958097D01*
X139485023Y-62891058D01*
X139485024Y-62891054D01*
X139485025Y-62891048D01*
X139485026Y-62891044D01*
X139505498Y-62748652D01*
X139505500Y-62748634D01*
X139505500Y-61399500D01*
X139525462Y-61325000D01*
X139580000Y-61270462D01*
X139654500Y-61250500D01*
X147937414Y-61250500D01*
X148011914Y-61270462D01*
G37*
G04 #@! TD.AperFunction*
G04 #@! TA.AperFunction,Conductor*
G36*
X139025000Y-70570462D02*
G01*
X139079538Y-70625000D01*
X139099500Y-70699500D01*
X139099500Y-72740956D01*
X139136293Y-73020427D01*
X139136295Y-73020440D01*
X139183364Y-73196100D01*
X139209258Y-73292739D01*
X139315131Y-73548341D01*
X139317139Y-73553187D01*
X139458089Y-73797319D01*
X139458090Y-73797321D01*
X139629700Y-74020965D01*
X139829034Y-74220299D01*
X140052678Y-74391909D01*
X140052681Y-74391910D01*
X140052683Y-74391912D01*
X140296817Y-74532863D01*
X140557261Y-74640742D01*
X140829558Y-74713704D01*
X140829564Y-74713704D01*
X140829572Y-74713706D01*
X140949036Y-74729433D01*
X141109049Y-74750500D01*
X141390951Y-74750500D01*
X141670442Y-74713704D01*
X141942739Y-74640742D01*
X142203183Y-74532863D01*
X142447317Y-74391912D01*
X142670965Y-74220300D01*
X142870300Y-74020965D01*
X143041912Y-73797317D01*
X143182863Y-73553183D01*
X143228718Y-73442478D01*
X143275669Y-73381290D01*
X143346926Y-73351775D01*
X143366375Y-73350500D01*
X158361844Y-73350500D01*
X158436344Y-73370462D01*
X158482387Y-73411919D01*
X158505596Y-73443864D01*
X158508033Y-73447217D01*
X158508035Y-73447220D01*
X158652779Y-73591964D01*
X158652787Y-73591971D01*
X158818387Y-73712285D01*
X158818390Y-73712287D01*
X158908460Y-73758180D01*
X158985270Y-73797317D01*
X159000781Y-73805220D01*
X159195466Y-73868477D01*
X159397648Y-73900500D01*
X159397653Y-73900500D01*
X159602347Y-73900500D01*
X159602352Y-73900500D01*
X159804534Y-73868477D01*
X159999219Y-73805220D01*
X160181610Y-73712287D01*
X160262920Y-73653211D01*
X160334925Y-73625571D01*
X160411104Y-73637637D01*
X160471043Y-73686175D01*
X160498684Y-73758180D01*
X160499500Y-73773755D01*
X160499500Y-76926114D01*
X160479538Y-77000614D01*
X160471044Y-77013693D01*
X160387714Y-77128387D01*
X160294782Y-77310775D01*
X160294778Y-77310787D01*
X160231522Y-77505467D01*
X160231520Y-77505476D01*
X160209344Y-77645490D01*
X160206102Y-77652771D01*
X160206102Y-77660743D01*
X160190590Y-77687611D01*
X160177973Y-77715950D01*
X160167539Y-77727539D01*
X160122222Y-77772857D01*
X160122221Y-77772858D01*
X159982864Y-77912214D01*
X159982860Y-77912219D01*
X159873370Y-78076081D01*
X159873364Y-78076094D01*
X159825977Y-78190498D01*
X159825977Y-78190500D01*
X159800002Y-78253209D01*
X159800000Y-78253214D01*
X159797949Y-78258164D01*
X159797947Y-78258169D01*
X159759500Y-78451458D01*
X159759500Y-80316114D01*
X159758366Y-80320344D01*
X159759256Y-80324631D01*
X159751074Y-80347559D01*
X159739538Y-80390614D01*
X159735068Y-80397868D01*
X159733119Y-80400837D01*
X159647713Y-80518390D01*
X159619053Y-80574638D01*
X159614568Y-80581472D01*
X159591675Y-80601885D01*
X159571151Y-80624680D01*
X159563224Y-80627255D01*
X159557002Y-80632804D01*
X159526966Y-80639036D01*
X159497797Y-80648514D01*
X159489643Y-80646780D01*
X159481483Y-80648474D01*
X159452362Y-80638856D01*
X159422355Y-80632478D01*
X159416159Y-80626899D01*
X159408246Y-80624286D01*
X159387832Y-80601393D01*
X159365038Y-80580869D01*
X159357240Y-80567363D01*
X159332287Y-80518390D01*
X159249103Y-80403896D01*
X159211971Y-80352787D01*
X159211964Y-80352779D01*
X159067220Y-80208035D01*
X159067214Y-80208030D01*
X159061919Y-80204183D01*
X159013381Y-80144242D01*
X159000500Y-80083640D01*
X159000500Y-78693885D01*
X159020462Y-78619385D01*
X159028957Y-78606305D01*
X159112280Y-78491620D01*
X159112280Y-78491618D01*
X159112287Y-78491610D01*
X159205220Y-78309219D01*
X159268477Y-78114534D01*
X159300500Y-77912352D01*
X159300500Y-77707648D01*
X159268477Y-77505466D01*
X159205220Y-77310781D01*
X159112287Y-77128390D01*
X159112285Y-77128387D01*
X158991971Y-76962787D01*
X158991964Y-76962779D01*
X158847220Y-76818035D01*
X158847212Y-76818028D01*
X158681612Y-76697714D01*
X158499224Y-76604782D01*
X158499220Y-76604780D01*
X158499219Y-76604780D01*
X158304534Y-76541523D01*
X158102352Y-76509500D01*
X157897648Y-76509500D01*
X157729163Y-76536185D01*
X157695465Y-76541523D01*
X157500787Y-76604778D01*
X157500775Y-76604782D01*
X157318391Y-76697712D01*
X157292959Y-76716189D01*
X157203692Y-76781045D01*
X157131689Y-76808684D01*
X157116115Y-76809500D01*
X155383885Y-76809500D01*
X155309385Y-76789538D01*
X155296317Y-76781052D01*
X155181610Y-76697713D01*
X155167993Y-76690775D01*
X154999224Y-76604782D01*
X154999220Y-76604780D01*
X154999219Y-76604780D01*
X154804534Y-76541523D01*
X154602352Y-76509500D01*
X154397648Y-76509500D01*
X154229163Y-76536185D01*
X154195465Y-76541523D01*
X154000787Y-76604778D01*
X154000775Y-76604782D01*
X153818387Y-76697714D01*
X153652787Y-76818028D01*
X153652779Y-76818035D01*
X153508035Y-76962779D01*
X153508028Y-76962787D01*
X153387714Y-77128387D01*
X153294782Y-77310775D01*
X153294778Y-77310787D01*
X153261778Y-77412352D01*
X153231523Y-77505466D01*
X153199500Y-77707648D01*
X153199500Y-77912352D01*
X153231523Y-78114534D01*
X153292423Y-78301966D01*
X153294778Y-78309212D01*
X153294782Y-78309224D01*
X153387714Y-78491612D01*
X153508028Y-78657212D01*
X153508035Y-78657220D01*
X153652779Y-78801964D01*
X153652787Y-78801971D01*
X153767068Y-78885000D01*
X153818390Y-78922287D01*
X154000781Y-79015220D01*
X154195466Y-79078477D01*
X154397648Y-79110500D01*
X154397653Y-79110500D01*
X154602347Y-79110500D01*
X154602352Y-79110500D01*
X154804534Y-79078477D01*
X154999219Y-79015220D01*
X155181610Y-78922287D01*
X155296307Y-78838954D01*
X155368311Y-78811316D01*
X155383885Y-78810500D01*
X156850500Y-78810500D01*
X156925000Y-78830462D01*
X156979538Y-78885000D01*
X156999500Y-78959500D01*
X156999500Y-80345018D01*
X156979538Y-80419518D01*
X156925000Y-80474056D01*
X156850500Y-80494018D01*
X156776000Y-80474056D01*
X156729956Y-80432598D01*
X156697345Y-80387713D01*
X156671966Y-80352781D01*
X156527219Y-80208034D01*
X156527218Y-80208033D01*
X156527212Y-80208028D01*
X156361612Y-80087714D01*
X156179224Y-79994782D01*
X156179220Y-79994780D01*
X156179219Y-79994780D01*
X155984534Y-79931523D01*
X155782352Y-79899500D01*
X155577648Y-79899500D01*
X155409163Y-79926185D01*
X155375465Y-79931523D01*
X155180787Y-79994778D01*
X155180775Y-79994782D01*
X154998387Y-80087714D01*
X154832787Y-80208028D01*
X154832779Y-80208035D01*
X154688035Y-80352779D01*
X154688033Y-80352782D01*
X154626061Y-80438080D01*
X154566121Y-80486618D01*
X154505517Y-80499500D01*
X153133885Y-80499500D01*
X153059385Y-80479538D01*
X153046317Y-80471052D01*
X152931610Y-80387713D01*
X152863064Y-80352787D01*
X152749224Y-80294782D01*
X152749220Y-80294780D01*
X152749219Y-80294780D01*
X152554534Y-80231523D01*
X152352352Y-80199500D01*
X152147648Y-80199500D01*
X152104549Y-80206325D01*
X152027843Y-80198261D01*
X151975885Y-80164518D01*
X151055314Y-79243947D01*
X150128416Y-78317048D01*
X150128415Y-78317047D01*
X150128410Y-78317043D01*
X150054729Y-78267812D01*
X150054728Y-78267812D01*
X150005497Y-78234917D01*
X149966964Y-78218956D01*
X149868913Y-78178342D01*
X149868911Y-78178341D01*
X149868912Y-78178341D01*
X149723921Y-78149500D01*
X149723918Y-78149500D01*
X140451323Y-78149500D01*
X140376823Y-78129538D01*
X140345964Y-78105859D01*
X139643141Y-77403036D01*
X139604577Y-77336241D01*
X139599500Y-77297677D01*
X139599500Y-75625086D01*
X139599499Y-75625078D01*
X139570658Y-75480087D01*
X139570657Y-75480085D01*
X139514087Y-75343512D01*
X139514086Y-75343511D01*
X139514084Y-75343505D01*
X139481186Y-75294270D01*
X139431952Y-75220584D01*
X137759709Y-73548341D01*
X137721145Y-73481546D01*
X137721145Y-73404418D01*
X137727406Y-73385972D01*
X137806054Y-73196100D01*
X137868838Y-72961789D01*
X137900500Y-72721288D01*
X137900500Y-72478712D01*
X137876376Y-72295466D01*
X137868839Y-72238218D01*
X137868838Y-72238217D01*
X137868838Y-72238211D01*
X137806054Y-72003900D01*
X137713224Y-71779788D01*
X137591936Y-71569711D01*
X137444265Y-71377262D01*
X137272738Y-71205735D01*
X137080289Y-71058064D01*
X136963265Y-70990500D01*
X136870216Y-70936778D01*
X136870214Y-70936777D01*
X136870212Y-70936776D01*
X136712887Y-70871610D01*
X136646101Y-70843946D01*
X136646098Y-70843945D01*
X136644145Y-70843422D01*
X136643558Y-70843083D01*
X136641489Y-70842381D01*
X136641628Y-70841969D01*
X136577350Y-70804857D01*
X136538787Y-70738062D01*
X136538789Y-70660934D01*
X136577354Y-70594139D01*
X136644149Y-70555576D01*
X136682711Y-70550500D01*
X138950500Y-70550500D01*
X139025000Y-70570462D01*
G37*
G04 #@! TD.AperFunction*
G04 #@! TA.AperFunction,Conductor*
G36*
X138315677Y-58519685D02*
G01*
X138336319Y-58536319D01*
X138963681Y-59163681D01*
X138997166Y-59225004D01*
X139000000Y-59251362D01*
X139000000Y-62748638D01*
X138980315Y-62815677D01*
X138963681Y-62836319D01*
X138336319Y-63463681D01*
X138274996Y-63497166D01*
X138248638Y-63500000D01*
X126000000Y-63500000D01*
X126000000Y-96748638D01*
X125980315Y-96815677D01*
X125963681Y-96836319D01*
X125336319Y-97463681D01*
X125274996Y-97497166D01*
X125248638Y-97500000D01*
X114751362Y-97500000D01*
X114684323Y-97480315D01*
X114663681Y-97463681D01*
X114036319Y-96836319D01*
X114002834Y-96774996D01*
X114000000Y-96748638D01*
X114000000Y-62949697D01*
X114019685Y-62882658D01*
X114072489Y-62836903D01*
X114141647Y-62826959D01*
X114205203Y-62855984D01*
X114227099Y-62880802D01*
X114273133Y-62949697D01*
X114305604Y-62998294D01*
X114305611Y-62998303D01*
X114514453Y-63252777D01*
X114747222Y-63485546D01*
X114747227Y-63485550D01*
X114747228Y-63485551D01*
X115001702Y-63694393D01*
X115275421Y-63877286D01*
X115565749Y-64032469D01*
X115869889Y-64158448D01*
X116184913Y-64254010D01*
X116184919Y-64254011D01*
X116184922Y-64254012D01*
X116184933Y-64254015D01*
X116365361Y-64289903D01*
X116507787Y-64318233D01*
X116835400Y-64350500D01*
X116835403Y-64350500D01*
X117164597Y-64350500D01*
X117164600Y-64350500D01*
X117492213Y-64318233D01*
X117669760Y-64282916D01*
X117815066Y-64254015D01*
X117815077Y-64254012D01*
X117815077Y-64254011D01*
X117815087Y-64254010D01*
X118130111Y-64158448D01*
X118434251Y-64032469D01*
X118724579Y-63877286D01*
X118998298Y-63694393D01*
X119252772Y-63485551D01*
X119485551Y-63252772D01*
X119694393Y-62998298D01*
X119877286Y-62724579D01*
X120032469Y-62434251D01*
X120158448Y-62130111D01*
X120254010Y-61815087D01*
X120254012Y-61815077D01*
X120254015Y-61815066D01*
X120282916Y-61669760D01*
X120318233Y-61492213D01*
X120350500Y-61164600D01*
X120350500Y-60835400D01*
X120318233Y-60507787D01*
X120289903Y-60365361D01*
X120254015Y-60184933D01*
X120254012Y-60184922D01*
X120254011Y-60184919D01*
X120254010Y-60184913D01*
X120158448Y-59869889D01*
X120032469Y-59565749D01*
X119877286Y-59275421D01*
X119694393Y-59001702D01*
X119485551Y-58747228D01*
X119485550Y-58747227D01*
X119485546Y-58747222D01*
X119450005Y-58711681D01*
X119416520Y-58650358D01*
X119421504Y-58580666D01*
X119463376Y-58524733D01*
X119528840Y-58500316D01*
X119537686Y-58500000D01*
X138248638Y-58500000D01*
X138315677Y-58519685D01*
G37*
G04 #@! TD.AperFunction*
G04 #@! TA.AperFunction,Conductor*
G36*
X125315677Y-99519685D02*
G01*
X125336319Y-99536319D01*
X125963681Y-100163681D01*
X125997166Y-100225004D01*
X126000000Y-100251362D01*
X126000000Y-120000000D01*
X137248638Y-120000000D01*
X137315677Y-120019685D01*
X137336319Y-120036319D01*
X137963681Y-120663681D01*
X137997166Y-120725004D01*
X138000000Y-120751362D01*
X138000000Y-137748638D01*
X137980315Y-137815677D01*
X137963681Y-137836319D01*
X137336319Y-138463681D01*
X137274996Y-138497166D01*
X137248638Y-138500000D01*
X119537686Y-138500000D01*
X119470647Y-138480315D01*
X119424892Y-138427511D01*
X119414948Y-138358353D01*
X119443973Y-138294797D01*
X119450005Y-138288319D01*
X119485546Y-138252777D01*
X119485551Y-138252772D01*
X119694393Y-137998298D01*
X119877286Y-137724579D01*
X120032469Y-137434251D01*
X120158448Y-137130111D01*
X120254010Y-136815087D01*
X120254012Y-136815077D01*
X120254015Y-136815066D01*
X120282916Y-136669760D01*
X120318233Y-136492213D01*
X120350500Y-136164600D01*
X120350500Y-135835400D01*
X120318233Y-135507787D01*
X120289903Y-135365361D01*
X120254015Y-135184933D01*
X120254012Y-135184922D01*
X120254011Y-135184919D01*
X120254010Y-135184913D01*
X120158448Y-134869889D01*
X120032469Y-134565749D01*
X119877286Y-134275421D01*
X119694393Y-134001702D01*
X119485551Y-133747228D01*
X119485550Y-133747227D01*
X119485546Y-133747222D01*
X119252777Y-133514453D01*
X118998303Y-133305611D01*
X118998302Y-133305610D01*
X118998298Y-133305607D01*
X118724579Y-133122714D01*
X118724574Y-133122711D01*
X118724567Y-133122707D01*
X118434258Y-132967535D01*
X118434251Y-132967531D01*
X118434244Y-132967528D01*
X118130112Y-132841552D01*
X117815077Y-132745987D01*
X117815066Y-132745984D01*
X117492218Y-132681768D01*
X117492213Y-132681767D01*
X117492211Y-132681766D01*
X117492201Y-132681765D01*
X117251522Y-132658061D01*
X117164600Y-132649500D01*
X116835400Y-132649500D01*
X116755540Y-132657365D01*
X116507798Y-132681765D01*
X116507781Y-132681768D01*
X116184933Y-132745984D01*
X116184922Y-132745987D01*
X115869887Y-132841552D01*
X115565755Y-132967528D01*
X115565741Y-132967535D01*
X115275432Y-133122707D01*
X115275414Y-133122718D01*
X115001710Y-133305601D01*
X115001696Y-133305611D01*
X114747222Y-133514453D01*
X114514453Y-133747222D01*
X114305611Y-134001696D01*
X114305601Y-134001710D01*
X114227102Y-134119193D01*
X114173490Y-134163998D01*
X114104165Y-134172705D01*
X114041138Y-134142551D01*
X114004418Y-134083108D01*
X114000000Y-134050302D01*
X114000000Y-100251362D01*
X114019685Y-100184323D01*
X114036319Y-100163681D01*
X114663681Y-99536319D01*
X114725004Y-99502834D01*
X114751362Y-99500000D01*
X125248638Y-99500000D01*
X125315677Y-99519685D01*
G37*
G04 #@! TD.AperFunction*
G04 #@! TA.AperFunction,Conductor*
G36*
X179204809Y-57770185D02*
G01*
X179225451Y-57786819D01*
X180963681Y-59525049D01*
X180997166Y-59586372D01*
X181000000Y-59612730D01*
X181000000Y-66248638D01*
X180980315Y-66315677D01*
X180963681Y-66336319D01*
X180336319Y-66963681D01*
X180274996Y-66997166D01*
X180248638Y-67000000D01*
X165751362Y-67000000D01*
X165684323Y-66980315D01*
X165663681Y-66963681D01*
X165036319Y-66336319D01*
X165002834Y-66274996D01*
X165000000Y-66248638D01*
X165000000Y-61852486D01*
X175679500Y-61852486D01*
X175679500Y-62147513D01*
X175711571Y-62391113D01*
X175718007Y-62439993D01*
X175718008Y-62439995D01*
X175794361Y-62724951D01*
X175794364Y-62724961D01*
X175907254Y-62997500D01*
X175907258Y-62997510D01*
X176054761Y-63252993D01*
X176234352Y-63487040D01*
X176234358Y-63487047D01*
X176442952Y-63695641D01*
X176442959Y-63695647D01*
X176677006Y-63875238D01*
X176932489Y-64022741D01*
X176932490Y-64022741D01*
X176932493Y-64022743D01*
X177205048Y-64135639D01*
X177490007Y-64211993D01*
X177782494Y-64250500D01*
X177782501Y-64250500D01*
X178077499Y-64250500D01*
X178077506Y-64250500D01*
X178369993Y-64211993D01*
X178654952Y-64135639D01*
X178927507Y-64022743D01*
X179182994Y-63875238D01*
X179417042Y-63695646D01*
X179625646Y-63487042D01*
X179805238Y-63252994D01*
X179952743Y-62997507D01*
X180065639Y-62724952D01*
X180141993Y-62439993D01*
X180180500Y-62147506D01*
X180180500Y-61852494D01*
X180141993Y-61560007D01*
X180065639Y-61275048D01*
X179952743Y-61002493D01*
X179805238Y-60747006D01*
X179625646Y-60512958D01*
X179625641Y-60512952D01*
X179417047Y-60304358D01*
X179417040Y-60304352D01*
X179182993Y-60124761D01*
X178927510Y-59977258D01*
X178927500Y-59977254D01*
X178654961Y-59864364D01*
X178654954Y-59864362D01*
X178654952Y-59864361D01*
X178369993Y-59788007D01*
X178321113Y-59781571D01*
X178077513Y-59749500D01*
X178077506Y-59749500D01*
X177782494Y-59749500D01*
X177782486Y-59749500D01*
X177504085Y-59786153D01*
X177490007Y-59788007D01*
X177238140Y-59855494D01*
X177205048Y-59864361D01*
X177205038Y-59864364D01*
X176932499Y-59977254D01*
X176932489Y-59977258D01*
X176677006Y-60124761D01*
X176442959Y-60304352D01*
X176442952Y-60304358D01*
X176234358Y-60512952D01*
X176234352Y-60512959D01*
X176054761Y-60747006D01*
X175907258Y-61002489D01*
X175907254Y-61002499D01*
X175794364Y-61275038D01*
X175794361Y-61275048D01*
X175718008Y-61560004D01*
X175718006Y-61560015D01*
X175679500Y-61852486D01*
X165000000Y-61852486D01*
X165000000Y-57874500D01*
X165019685Y-57807461D01*
X165072489Y-57761706D01*
X165124000Y-57750500D01*
X179137770Y-57750500D01*
X179204809Y-57770185D01*
G37*
G04 #@! TD.AperFunction*
M02*
