M48
; DRILL file {KiCad 8.0.6-8.0.6-0~ubuntu24.04.1} date 2024-10-18T15:38:20+0100
; FORMAT={-:-/ absolute / metric / decimal}
; #@! TF.CreationDate,2024-10-18T15:38:20+01:00
; #@! TF.GenerationSoftware,Kicad,Pcbnew,8.0.6-8.0.6-0~ubuntu24.04.1
; #@! TF.FileFunction,Plated,1,2,PTH
FMAT,2
METRIC
; #@! TA.AperFunction,Plated,PTH,ViaDrill
T1C0.800
; #@! TA.AperFunction,Plated,PTH,ComponentDrill
T2C0.800
; #@! TA.AperFunction,Plated,PTH,ComponentDrill
T3C0.900
; #@! TA.AperFunction,Plated,PTH,ComponentDrill
T4C1.000
; #@! TA.AperFunction,Plated,PTH,ComponentDrill
T5C1.100
; #@! TA.AperFunction,Plated,PTH,ComponentDrill
T6C1.200
; #@! TA.AperFunction,Plated,PTH,ComponentDrill
T7C1.400
; #@! TA.AperFunction,Plated,PTH,ComponentDrill
T8C1.520
; #@! TA.AperFunction,Plated,PTH,ComponentDrill
T9C3.200
%
G90
G05
T1
X157.0Y-59.5
X157.0Y-62.5
X157.0Y-65.5
X159.0Y-74.5
X160.0Y-59.5
X160.0Y-62.5
X160.0Y-65.5
X163.0Y-59.5
X163.0Y-62.5
X163.0Y-65.5
T2
X140.25Y-82.0
X140.75Y-101.5
X141.18Y-105.18
X141.18Y-107.72
X141.18Y-110.26
X141.18Y-112.8
X141.19Y-121.5
X141.19Y-125.5
X141.19Y-129.0
X141.19Y-132.5
X141.19Y-136.0
X141.25Y-116.5
X142.75Y-82.0
X143.25Y-101.5
X143.75Y-116.5
X145.0Y-70.69
X145.0Y-78.31
X146.18Y-81.7
X146.18Y-89.32
X148.5Y-70.69
X148.5Y-78.31
X148.5Y-94.46
X148.5Y-97.0
X148.5Y-99.54
X148.72Y-81.7
X148.72Y-89.32
X148.8Y-105.18
X148.8Y-107.72
X148.8Y-110.26
X148.8Y-112.8
X148.81Y-121.5
X148.81Y-125.5
X148.81Y-129.0
X148.81Y-132.5
X148.81Y-136.0
X151.26Y-81.7
X151.26Y-89.32
X152.0Y-70.69
X152.0Y-78.31
X153.19Y-109.5
X153.19Y-113.0
X153.2Y-127.2
X153.2Y-129.74
X153.2Y-132.28
X153.2Y-134.82
X153.25Y-138.5
X153.5Y-98.19
X153.5Y-105.81
X153.8Y-81.7
X153.8Y-89.32
X154.5Y-92.75
X154.5Y-95.25
X155.5Y-70.69
X155.5Y-78.31
X155.75Y-138.5
X160.19Y-94.0
X160.81Y-109.5
X160.81Y-113.0
X160.82Y-127.2
X160.82Y-129.74
X160.82Y-132.28
X160.82Y-134.82
X162.5Y-77.69
X162.5Y-85.31
X163.73Y-113.0
X164.18Y-98.68
X164.18Y-101.22
X164.18Y-103.76
X164.18Y-106.3
X164.19Y-90.5
X164.25Y-126.5
X165.19Y-130.0
X166.27Y-110.46
X166.27Y-115.54
X166.75Y-126.5
X167.81Y-94.0
X170.0Y-70.19
X170.0Y-77.81
X171.0Y-111.75
X171.0Y-114.25
X171.8Y-98.68
X171.8Y-101.22
X171.8Y-103.76
X171.8Y-106.3
X171.81Y-90.5
X172.81Y-130.0
T3
X155.735Y-121.0
X158.275Y-121.0
T4
X141.0Y-88.5
X141.0Y-91.04
X193.5Y-92.15
X193.5Y-94.69
X193.5Y-97.23
X193.5Y-99.77
X193.5Y-102.31
X193.5Y-104.85
T5
X151.77Y-59.96
X151.77Y-62.5
X151.77Y-65.04
X166.0Y-70.19
X166.0Y-77.81
T6
X127.34Y-61.0
X147.66Y-61.0
T7
X129.75Y-68.9
X129.75Y-73.1
X129.75Y-77.3
X129.75Y-81.5
X129.75Y-85.7
X129.75Y-89.9
X129.75Y-94.1
X129.75Y-98.3
X129.75Y-102.5
X129.75Y-106.7
X129.75Y-110.9
X129.75Y-115.1
X129.75Y-123.2
X129.75Y-127.4
X129.75Y-131.6
X129.75Y-135.8
X135.25Y-68.9
X135.25Y-73.1
X135.25Y-77.3
X135.25Y-81.5
X135.25Y-85.7
X135.25Y-89.9
X135.25Y-94.1
X135.25Y-98.3
X135.25Y-102.5
X135.25Y-106.7
X135.25Y-110.9
X135.25Y-115.1
X135.25Y-123.2
X135.25Y-127.4
X135.25Y-131.6
X135.25Y-135.8
T8
X120.0Y-72.96
X120.0Y-78.04
X120.0Y-85.46
X120.0Y-90.54
X120.0Y-106.46
X120.0Y-111.54
X120.0Y-118.96
X120.0Y-124.04
T9
X115.5Y-59.5
X115.5Y-137.5
X193.5Y-59.5
X193.5Y-137.5
M30
