%TF.GenerationSoftware,KiCad,Pcbnew,7.0.1*%
%TF.CreationDate,2024-01-20T22:06:59+00:00*%
%TF.ProjectId,PowerDelivery,506f7765-7244-4656-9c69-766572792e6b,rev?*%
%TF.SameCoordinates,Original*%
%TF.FileFunction,Soldermask,Top*%
%TF.FilePolarity,Negative*%
%FSLAX46Y46*%
G04 Gerber Fmt 4.6, Leading zero omitted, Abs format (unit mm)*
G04 Created by KiCad (PCBNEW 7.0.1) date 2024-01-20 22:06:59*
%MOMM*%
%LPD*%
G01*
G04 APERTURE LIST*
G04 Aperture macros list*
%AMRoundRect*
0 Rectangle with rounded corners*
0 $1 Rounding radius*
0 $2 $3 $4 $5 $6 $7 $8 $9 X,Y pos of 4 corners*
0 Add a 4 corners polygon primitive as box body*
4,1,4,$2,$3,$4,$5,$6,$7,$8,$9,$2,$3,0*
0 Add four circle primitives for the rounded corners*
1,1,$1+$1,$2,$3*
1,1,$1+$1,$4,$5*
1,1,$1+$1,$6,$7*
1,1,$1+$1,$8,$9*
0 Add four rect primitives between the rounded corners*
20,1,$1+$1,$2,$3,$4,$5,0*
20,1,$1+$1,$4,$5,$6,$7,0*
20,1,$1+$1,$6,$7,$8,$9,0*
20,1,$1+$1,$8,$9,$2,$3,0*%
G04 Aperture macros list end*
%ADD10C,0.575000*%
%ADD11C,0.150000*%
%ADD12RoundRect,0.250000X0.350000X0.450000X-0.350000X0.450000X-0.350000X-0.450000X0.350000X-0.450000X0*%
%ADD13RoundRect,0.250001X-1.099999X-1.399999X1.099999X-1.399999X1.099999X1.399999X-1.099999X1.399999X0*%
%ADD14O,2.700000X3.300000*%
%ADD15C,2.800000*%
%ADD16RoundRect,0.150000X-0.825000X-0.150000X0.825000X-0.150000X0.825000X0.150000X-0.825000X0.150000X0*%
%ADD17RoundRect,0.250000X0.325000X0.450000X-0.325000X0.450000X-0.325000X-0.450000X0.325000X-0.450000X0*%
%ADD18C,2.400000*%
%ADD19RoundRect,0.250000X-0.350000X-0.450000X0.350000X-0.450000X0.350000X0.450000X-0.350000X0.450000X0*%
%ADD20R,1.450000X0.650000*%
%ADD21R,1.450000X0.600000*%
%ADD22R,1.300000X1.600000*%
%ADD23R,2.000000X1.600000*%
%ADD24RoundRect,0.150000X-0.587500X-0.150000X0.587500X-0.150000X0.587500X0.150000X-0.587500X0.150000X0*%
%ADD25RoundRect,0.250000X0.337500X0.475000X-0.337500X0.475000X-0.337500X-0.475000X0.337500X-0.475000X0*%
%ADD26RoundRect,0.250000X-0.337500X-0.475000X0.337500X-0.475000X0.337500X0.475000X-0.337500X0.475000X0*%
%ADD27RoundRect,0.250001X1.399999X-1.099999X1.399999X1.099999X-1.399999X1.099999X-1.399999X-1.099999X0*%
%ADD28O,3.300000X2.700000*%
%ADD29O,3.500000X3.500000*%
%ADD30R,1.905000X2.000000*%
%ADD31O,1.905000X2.000000*%
%ADD32RoundRect,0.250000X-0.450000X0.350000X-0.450000X-0.350000X0.450000X-0.350000X0.450000X0.350000X0*%
G04 APERTURE END LIST*
D10*
X115287500Y-128500000D02*
G75*
G03*
X115287500Y-128500000I-287500J0D01*
G01*
D11*
X166000000Y-79500000D02*
X174500000Y-79500000D01*
X174500000Y-85500000D01*
X166000000Y-85500000D01*
X166000000Y-79500000D01*
G36*
X166000000Y-79500000D02*
G01*
X174500000Y-79500000D01*
X174500000Y-85500000D01*
X166000000Y-85500000D01*
X166000000Y-79500000D01*
G37*
D10*
X115287500Y-68500000D02*
G75*
G03*
X115287500Y-68500000I-287500J0D01*
G01*
D12*
%TO.C,R10*%
X153400000Y-92710000D03*
X151400000Y-92710000D03*
%TD*%
D13*
%TO.C,J1*%
X150300000Y-130250000D03*
D14*
X154500000Y-130250000D03*
X158700000Y-130250000D03*
X150300000Y-135750000D03*
X154500000Y-135750000D03*
X158700000Y-135750000D03*
%TD*%
D15*
%TO.C,J3*%
X132305000Y-65345000D03*
X132305000Y-74845000D03*
X132305000Y-84345000D03*
X132305000Y-93845000D03*
X132305000Y-103345000D03*
X132305000Y-112845000D03*
X132305000Y-122345000D03*
X132305000Y-131845000D03*
%TD*%
D16*
%TO.C,U1*%
X152530000Y-63500000D03*
X152530000Y-64770000D03*
X152530000Y-66040000D03*
X152530000Y-67310000D03*
X157480000Y-67310000D03*
X157480000Y-66040000D03*
X157480000Y-64770000D03*
X157480000Y-63500000D03*
%TD*%
D17*
%TO.C,D1*%
X161045000Y-92710000D03*
X158995000Y-92710000D03*
%TD*%
D18*
%TO.C,R6*%
X139700000Y-85090000D03*
X160020000Y-85090000D03*
%TD*%
D19*
%TO.C,R4*%
X145320000Y-77470000D03*
X147320000Y-77470000D03*
%TD*%
D20*
%TO.C,U3*%
X139415000Y-91440000D03*
X139415000Y-92710000D03*
X139415000Y-93980000D03*
D21*
X139415000Y-95250000D03*
D20*
X145065000Y-95250000D03*
X145065000Y-93980000D03*
X145065000Y-92710000D03*
X145065000Y-91440000D03*
%TD*%
D22*
%TO.C,RV1*%
X151150000Y-113210000D03*
D23*
X152400000Y-110310000D03*
D22*
X153650000Y-113210000D03*
%TD*%
D24*
%TO.C,Q1*%
X157812500Y-110810000D03*
X157812500Y-112710000D03*
X159687500Y-111760000D03*
%TD*%
D12*
%TO.C,R16*%
X159750000Y-116840000D03*
X157750000Y-116840000D03*
%TD*%
D25*
%TO.C,C1*%
X153437500Y-116840000D03*
X151362500Y-116840000D03*
%TD*%
D12*
%TO.C,R8*%
X142240000Y-66040000D03*
X140240000Y-66040000D03*
%TD*%
D26*
%TO.C,C2*%
X163830000Y-116840000D03*
X165905000Y-116840000D03*
%TD*%
D16*
%TO.C,U5*%
X157545000Y-102870000D03*
X157545000Y-104140000D03*
X157545000Y-105410000D03*
X157545000Y-106680000D03*
X162495000Y-106680000D03*
X162495000Y-105410000D03*
X162495000Y-104140000D03*
X162495000Y-102870000D03*
%TD*%
D12*
%TO.C,R14*%
X153400000Y-106680000D03*
X151400000Y-106680000D03*
%TD*%
D27*
%TO.C,J2*%
X186250000Y-121600000D03*
D28*
X186250000Y-117400000D03*
X186250000Y-113200000D03*
X186250000Y-109000000D03*
X186250000Y-104800000D03*
X186250000Y-100600000D03*
X186250000Y-96400000D03*
X186250000Y-92200000D03*
X186250000Y-88000000D03*
X186250000Y-83800000D03*
X186250000Y-79600000D03*
X186250000Y-75400000D03*
X191750000Y-121600000D03*
X191750000Y-117400000D03*
X191750000Y-113200000D03*
X191750000Y-109000000D03*
X191750000Y-104800000D03*
X191750000Y-100600000D03*
X191750000Y-96400000D03*
X191750000Y-92200000D03*
X191750000Y-88000000D03*
X191750000Y-83800000D03*
X191750000Y-79600000D03*
X191750000Y-75400000D03*
%TD*%
D12*
%TO.C,R9*%
X142240000Y-77470000D03*
X140240000Y-77470000D03*
%TD*%
D19*
%TO.C,R3*%
X145320000Y-66040000D03*
X147320000Y-66040000D03*
%TD*%
D29*
%TO.C,U4*%
X170180000Y-76050000D03*
D30*
X167640000Y-92710000D03*
D31*
X170180000Y-92710000D03*
X172720000Y-92710000D03*
%TD*%
D16*
%TO.C,U2*%
X152465000Y-74930000D03*
X152465000Y-76200000D03*
X152465000Y-77470000D03*
X152465000Y-78740000D03*
X157415000Y-78740000D03*
X157415000Y-77470000D03*
X157415000Y-76200000D03*
X157415000Y-74930000D03*
%TD*%
D19*
%TO.C,R12*%
X151400000Y-97790000D03*
X153400000Y-97790000D03*
%TD*%
%TO.C,R2*%
X145320000Y-74930000D03*
X147320000Y-74930000D03*
%TD*%
D12*
%TO.C,R11*%
X153400000Y-95250000D03*
X151400000Y-95250000D03*
%TD*%
D19*
%TO.C,R13*%
X151400000Y-104140000D03*
X153400000Y-104140000D03*
%TD*%
D32*
%TO.C,R15*%
X163830000Y-110760000D03*
X163830000Y-112760000D03*
%TD*%
D19*
%TO.C,R1*%
X145320000Y-63500000D03*
X147320000Y-63500000D03*
%TD*%
%TO.C,R5*%
X140240000Y-63500000D03*
X142240000Y-63500000D03*
%TD*%
%TO.C,R7*%
X140240000Y-74930000D03*
X142240000Y-74930000D03*
%TD*%
M02*
