%TF.GenerationSoftware,KiCad,Pcbnew,7.0.1*%
%TF.CreationDate,2024-01-20T22:06:59+00:00*%
%TF.ProjectId,PowerDelivery,506f7765-7244-4656-9c69-766572792e6b,rev?*%
%TF.SameCoordinates,Original*%
%TF.FileFunction,Copper,L1,Top*%
%TF.FilePolarity,Positive*%
%FSLAX46Y46*%
G04 Gerber Fmt 4.6, Leading zero omitted, Abs format (unit mm)*
G04 Created by KiCad (PCBNEW 7.0.1) date 2024-01-20 22:06:59*
%MOMM*%
%LPD*%
G01*
G04 APERTURE LIST*
G04 Aperture macros list*
%AMRoundRect*
0 Rectangle with rounded corners*
0 $1 Rounding radius*
0 $2 $3 $4 $5 $6 $7 $8 $9 X,Y pos of 4 corners*
0 Add a 4 corners polygon primitive as box body*
4,1,4,$2,$3,$4,$5,$6,$7,$8,$9,$2,$3,0*
0 Add four circle primitives for the rounded corners*
1,1,$1+$1,$2,$3*
1,1,$1+$1,$4,$5*
1,1,$1+$1,$6,$7*
1,1,$1+$1,$8,$9*
0 Add four rect primitives between the rounded corners*
20,1,$1+$1,$2,$3,$4,$5,0*
20,1,$1+$1,$4,$5,$6,$7,0*
20,1,$1+$1,$6,$7,$8,$9,0*
20,1,$1+$1,$8,$9,$2,$3,0*%
G04 Aperture macros list end*
%TA.AperFunction,SMDPad,CuDef*%
%ADD10RoundRect,0.250000X0.350000X0.450000X-0.350000X0.450000X-0.350000X-0.450000X0.350000X-0.450000X0*%
%TD*%
%TA.AperFunction,ComponentPad*%
%ADD11RoundRect,0.250001X-1.099999X-1.399999X1.099999X-1.399999X1.099999X1.399999X-1.099999X1.399999X0*%
%TD*%
%TA.AperFunction,ComponentPad*%
%ADD12O,2.700000X3.300000*%
%TD*%
%TA.AperFunction,ComponentPad*%
%ADD13C,2.800000*%
%TD*%
%TA.AperFunction,SMDPad,CuDef*%
%ADD14RoundRect,0.150000X-0.825000X-0.150000X0.825000X-0.150000X0.825000X0.150000X-0.825000X0.150000X0*%
%TD*%
%TA.AperFunction,SMDPad,CuDef*%
%ADD15RoundRect,0.250000X0.325000X0.450000X-0.325000X0.450000X-0.325000X-0.450000X0.325000X-0.450000X0*%
%TD*%
%TA.AperFunction,ComponentPad*%
%ADD16C,2.400000*%
%TD*%
%TA.AperFunction,SMDPad,CuDef*%
%ADD17RoundRect,0.250000X-0.350000X-0.450000X0.350000X-0.450000X0.350000X0.450000X-0.350000X0.450000X0*%
%TD*%
%TA.AperFunction,SMDPad,CuDef*%
%ADD18R,1.450000X0.650000*%
%TD*%
%TA.AperFunction,SMDPad,CuDef*%
%ADD19R,1.450000X0.600000*%
%TD*%
%TA.AperFunction,SMDPad,CuDef*%
%ADD20R,1.300000X1.600000*%
%TD*%
%TA.AperFunction,SMDPad,CuDef*%
%ADD21R,2.000000X1.600000*%
%TD*%
%TA.AperFunction,SMDPad,CuDef*%
%ADD22RoundRect,0.150000X-0.587500X-0.150000X0.587500X-0.150000X0.587500X0.150000X-0.587500X0.150000X0*%
%TD*%
%TA.AperFunction,SMDPad,CuDef*%
%ADD23RoundRect,0.250000X0.337500X0.475000X-0.337500X0.475000X-0.337500X-0.475000X0.337500X-0.475000X0*%
%TD*%
%TA.AperFunction,SMDPad,CuDef*%
%ADD24RoundRect,0.250000X-0.337500X-0.475000X0.337500X-0.475000X0.337500X0.475000X-0.337500X0.475000X0*%
%TD*%
%TA.AperFunction,ComponentPad*%
%ADD25RoundRect,0.250001X1.399999X-1.099999X1.399999X1.099999X-1.399999X1.099999X-1.399999X-1.099999X0*%
%TD*%
%TA.AperFunction,ComponentPad*%
%ADD26O,3.300000X2.700000*%
%TD*%
%TA.AperFunction,ComponentPad*%
%ADD27R,1.905000X2.000000*%
%TD*%
%TA.AperFunction,ComponentPad*%
%ADD28O,1.905000X2.000000*%
%TD*%
%TA.AperFunction,SMDPad,CuDef*%
%ADD29RoundRect,0.250000X-0.450000X0.350000X-0.450000X-0.350000X0.450000X-0.350000X0.450000X0.350000X0*%
%TD*%
%TA.AperFunction,ViaPad*%
%ADD30C,0.800000*%
%TD*%
%TA.AperFunction,ViaPad*%
%ADD31C,5.000000*%
%TD*%
%TA.AperFunction,Conductor*%
%ADD32C,0.500000*%
%TD*%
%TA.AperFunction,Conductor*%
%ADD33C,3.300000*%
%TD*%
%TA.AperFunction,Conductor*%
%ADD34C,1.900000*%
%TD*%
G04 APERTURE END LIST*
D10*
%TO.P,R10,1*%
%TO.N,Net-(D1-A)*%
X153400000Y-92710000D03*
%TO.P,R10,2*%
%TO.N,Net-(U3-OUTA)*%
X151400000Y-92710000D03*
%TD*%
D11*
%TO.P,J1,1,Pin_1*%
%TO.N,current_sense_out*%
X150300000Y-130250000D03*
D12*
%TO.P,J1,2,Pin_2*%
%TO.N,voltage_sense_out*%
X154500000Y-130250000D03*
%TO.P,J1,3,Pin_3*%
%TO.N,mc_trigger*%
X158700000Y-130250000D03*
%TO.P,J1,4,Pin_4*%
%TO.N,fault_signal*%
X150300000Y-135750000D03*
%TO.P,J1,5,Pin_5*%
%TO.N,GND*%
X154500000Y-135750000D03*
%TO.P,J1,6,Pin_6*%
%TO.N,+3.3V*%
X158700000Y-135750000D03*
%TD*%
D13*
%TO.P,J3,1,Pin_1*%
%TO.N,load*%
X132305000Y-65345000D03*
%TO.P,J3,2,Pin_2*%
X132305000Y-74845000D03*
%TO.P,J3,3,Pin_3*%
X132305000Y-84345000D03*
%TO.P,J3,4,Pin_4*%
X132305000Y-93845000D03*
%TO.P,J3,5,Pin_5*%
%TO.N,+12V*%
X132305000Y-103345000D03*
%TO.P,J3,6,Pin_6*%
X132305000Y-112845000D03*
%TO.P,J3,7,Pin_7*%
X132305000Y-122345000D03*
%TO.P,J3,8,Pin_8*%
X132305000Y-131845000D03*
%TD*%
D14*
%TO.P,U1,1*%
%TO.N,Net-(U1B-+)*%
X152530000Y-63500000D03*
%TO.P,U1,2,-*%
%TO.N,Net-(U1A--)*%
X152530000Y-64770000D03*
%TO.P,U1,3,+*%
%TO.N,Net-(U1A-+)*%
X152530000Y-66040000D03*
%TO.P,U1,4,V-*%
%TO.N,-12V*%
X152530000Y-67310000D03*
%TO.P,U1,5,+*%
%TO.N,Net-(U1B-+)*%
X157480000Y-67310000D03*
%TO.P,U1,6,-*%
%TO.N,voltage_sense_out*%
X157480000Y-66040000D03*
%TO.P,U1,7*%
X157480000Y-64770000D03*
%TO.P,U1,8,V+*%
%TO.N,+12V*%
X157480000Y-63500000D03*
%TD*%
D15*
%TO.P,D1,1,K*%
%TO.N,Net-(D1-K)*%
X161045000Y-92710000D03*
%TO.P,D1,2,A*%
%TO.N,Net-(D1-A)*%
X158995000Y-92710000D03*
%TD*%
D16*
%TO.P,R6,1*%
%TO.N,load*%
X139700000Y-85090000D03*
%TO.P,R6,2*%
%TO.N,Net-(D1-K)*%
X160020000Y-85090000D03*
%TD*%
D17*
%TO.P,R4,1*%
%TO.N,load*%
X145320000Y-77470000D03*
%TO.P,R4,2*%
%TO.N,Net-(U2A-+)*%
X147320000Y-77470000D03*
%TD*%
D18*
%TO.P,U3,1,ENA*%
%TO.N,Net-(U3-ENA)*%
X139415000Y-91440000D03*
%TO.P,U3,2,INA*%
%TO.N,mc_trigger*%
X139415000Y-92710000D03*
%TO.P,U3,3,GND*%
%TO.N,GND*%
X139415000Y-93980000D03*
D19*
%TO.P,U3,4,INB*%
%TO.N,+12V*%
X139415000Y-95250000D03*
D18*
%TO.P,U3,5,OUTB*%
%TO.N,Net-(U3-OUTB)*%
X145065000Y-95250000D03*
%TO.P,U3,6,VDD*%
%TO.N,+12V*%
X145065000Y-93980000D03*
%TO.P,U3,7,OUTA*%
%TO.N,Net-(U3-OUTA)*%
X145065000Y-92710000D03*
%TO.P,U3,8,ENB*%
%TO.N,Net-(U3-ENA)*%
X145065000Y-91440000D03*
%TD*%
D20*
%TO.P,RV1,1,1*%
%TO.N,unconnected-(RV1-Pad1)*%
X151150000Y-113210000D03*
D21*
%TO.P,RV1,2,2*%
%TO.N,Net-(R14-Pad2)*%
X152400000Y-110310000D03*
D20*
%TO.P,RV1,3,3*%
%TO.N,GND*%
X153650000Y-113210000D03*
%TD*%
D22*
%TO.P,Q1,1,C*%
%TO.N,Net-(Q1-C)*%
X157812500Y-110810000D03*
%TO.P,Q1,2,B*%
%TO.N,Net-(Q1-B)*%
X157812500Y-112710000D03*
%TO.P,Q1,3,E*%
%TO.N,GND*%
X159687500Y-111760000D03*
%TD*%
D10*
%TO.P,R16,1*%
%TO.N,Net-(Q1-C)*%
X159750000Y-116840000D03*
%TO.P,R16,2*%
%TO.N,Net-(U3-ENA)*%
X157750000Y-116840000D03*
%TD*%
D23*
%TO.P,C1,1*%
%TO.N,Net-(U3-ENA)*%
X153437500Y-116840000D03*
%TO.P,C1,2*%
%TO.N,GND*%
X151362500Y-116840000D03*
%TD*%
D10*
%TO.P,R8,1*%
%TO.N,Net-(U1A--)*%
X142240000Y-66040000D03*
%TO.P,R8,2*%
%TO.N,Net-(U1B-+)*%
X140240000Y-66040000D03*
%TD*%
D24*
%TO.P,C2,1*%
%TO.N,Net-(Q1-B)*%
X163830000Y-116840000D03*
%TO.P,C2,2*%
%TO.N,GND*%
X165905000Y-116840000D03*
%TD*%
D14*
%TO.P,U5,1*%
%TO.N,Net-(R15-Pad1)*%
X157545000Y-102870000D03*
%TO.P,U5,2,-*%
%TO.N,Net-(U5A--)*%
X157545000Y-104140000D03*
%TO.P,U5,3,+*%
%TO.N,Net-(D1-A)*%
X157545000Y-105410000D03*
%TO.P,U5,4,V-*%
%TO.N,-12V*%
X157545000Y-106680000D03*
%TO.P,U5,5,+*%
%TO.N,unconnected-(U5B-+-Pad5)*%
X162495000Y-106680000D03*
%TO.P,U5,6,-*%
%TO.N,unconnected-(U5B---Pad6)*%
X162495000Y-105410000D03*
%TO.P,U5,7*%
%TO.N,unconnected-(U5-Pad7)*%
X162495000Y-104140000D03*
%TO.P,U5,8,V+*%
%TO.N,+12V*%
X162495000Y-102870000D03*
%TD*%
D10*
%TO.P,R14,1*%
%TO.N,Net-(U5A--)*%
X153400000Y-106680000D03*
%TO.P,R14,2*%
%TO.N,Net-(R14-Pad2)*%
X151400000Y-106680000D03*
%TD*%
D25*
%TO.P,J2,1,Pin_1*%
%TO.N,+3.3V*%
X186250000Y-121600000D03*
D26*
%TO.P,J2,2,Pin_2*%
X186250000Y-117400000D03*
%TO.P,J2,3,Pin_3*%
%TO.N,GND*%
X186250000Y-113200000D03*
%TO.P,J2,4,Pin_4*%
%TO.N,unconnected-(J2-Pin_4-Pad4)*%
X186250000Y-109000000D03*
%TO.P,J2,5,Pin_5*%
%TO.N,GND*%
X186250000Y-104800000D03*
%TO.P,J2,6,Pin_6*%
%TO.N,unconnected-(J2-Pin_6-Pad6)*%
X186250000Y-100600000D03*
%TO.P,J2,7,Pin_7*%
%TO.N,GND*%
X186250000Y-96400000D03*
%TO.P,J2,8,Pin_8*%
%TO.N,unconnected-(J2-Pin_8-Pad8)*%
X186250000Y-92200000D03*
%TO.P,J2,9,Pin_9*%
%TO.N,unconnected-(J2-Pin_9-Pad9)*%
X186250000Y-88000000D03*
%TO.P,J2,10,Pin_10*%
%TO.N,+12V*%
X186250000Y-83800000D03*
%TO.P,J2,11,Pin_11*%
X186250000Y-79600000D03*
%TO.P,J2,12,Pin_12*%
%TO.N,+3.3V*%
X186250000Y-75400000D03*
%TO.P,J2,13,Pin_13*%
X191750000Y-121600000D03*
%TO.P,J2,14,Pin_14*%
%TO.N,-12V*%
X191750000Y-117400000D03*
%TO.P,J2,15,Pin_15*%
%TO.N,GND*%
X191750000Y-113200000D03*
%TO.P,J2,16,Pin_16*%
%TO.N,unconnected-(J2-Pin_16-Pad16)*%
X191750000Y-109000000D03*
%TO.P,J2,17,Pin_17*%
%TO.N,GND*%
X191750000Y-104800000D03*
%TO.P,J2,18,Pin_18*%
X191750000Y-100600000D03*
%TO.P,J2,19,Pin_19*%
X191750000Y-96400000D03*
%TO.P,J2,20,Pin_20*%
%TO.N,unconnected-(J2-Pin_20-Pad20)*%
X191750000Y-92200000D03*
%TO.P,J2,21,Pin_21*%
%TO.N,unconnected-(J2-Pin_21-Pad21)*%
X191750000Y-88000000D03*
%TO.P,J2,22,Pin_22*%
%TO.N,unconnected-(J2-Pin_22-Pad22)*%
X191750000Y-83800000D03*
%TO.P,J2,23,Pin_23*%
%TO.N,unconnected-(J2-Pin_23-Pad23)*%
X191750000Y-79600000D03*
%TO.P,J2,24,Pin_24*%
%TO.N,GND*%
X191750000Y-75400000D03*
%TD*%
D10*
%TO.P,R9,1*%
%TO.N,Net-(U2A--)*%
X142240000Y-77470000D03*
%TO.P,R9,2*%
%TO.N,Net-(U2B-+)*%
X140240000Y-77470000D03*
%TD*%
D17*
%TO.P,R3,1*%
%TO.N,+12V*%
X145320000Y-66040000D03*
%TO.P,R3,2*%
%TO.N,Net-(U1A-+)*%
X147320000Y-66040000D03*
%TD*%
D27*
%TO.P,U4,1,GATE*%
%TO.N,Net-(U4-GATE)*%
X167640000Y-92710000D03*
D28*
%TO.P,U4,2,DRAIN*%
%TO.N,Net-(D1-K)*%
X170180000Y-92710000D03*
%TO.P,U4,3,SOURCE*%
%TO.N,GND*%
X172720000Y-92710000D03*
%TD*%
D14*
%TO.P,U2,1*%
%TO.N,Net-(U2B-+)*%
X152465000Y-74930000D03*
%TO.P,U2,2,-*%
%TO.N,Net-(U2A--)*%
X152465000Y-76200000D03*
%TO.P,U2,3,+*%
%TO.N,Net-(U2A-+)*%
X152465000Y-77470000D03*
%TO.P,U2,4,V-*%
%TO.N,-12V*%
X152465000Y-78740000D03*
%TO.P,U2,5,+*%
%TO.N,Net-(U2B-+)*%
X157415000Y-78740000D03*
%TO.P,U2,6,-*%
%TO.N,current_sense_out*%
X157415000Y-77470000D03*
%TO.P,U2,7*%
X157415000Y-76200000D03*
%TO.P,U2,8,V+*%
%TO.N,+12V*%
X157415000Y-74930000D03*
%TD*%
D17*
%TO.P,R12,1*%
%TO.N,Net-(U3-OUTB)*%
X151400000Y-97790000D03*
%TO.P,R12,2*%
%TO.N,fault_signal*%
X153400000Y-97790000D03*
%TD*%
%TO.P,R2,1*%
%TO.N,GND*%
X145320000Y-74930000D03*
%TO.P,R2,2*%
%TO.N,Net-(U2A-+)*%
X147320000Y-74930000D03*
%TD*%
D10*
%TO.P,R11,1*%
%TO.N,Net-(U4-GATE)*%
X153400000Y-95250000D03*
%TO.P,R11,2*%
%TO.N,Net-(U3-OUTA)*%
X151400000Y-95250000D03*
%TD*%
D17*
%TO.P,R13,1*%
%TO.N,+12V*%
X151400000Y-104140000D03*
%TO.P,R13,2*%
%TO.N,Net-(U5A--)*%
X153400000Y-104140000D03*
%TD*%
D29*
%TO.P,R15,1*%
%TO.N,Net-(R15-Pad1)*%
X163830000Y-110760000D03*
%TO.P,R15,2*%
%TO.N,Net-(Q1-B)*%
X163830000Y-112760000D03*
%TD*%
D17*
%TO.P,R1,1*%
%TO.N,GND*%
X145320000Y-63500000D03*
%TO.P,R1,2*%
%TO.N,Net-(U1A-+)*%
X147320000Y-63500000D03*
%TD*%
%TO.P,R5,1*%
%TO.N,load*%
X140240000Y-63500000D03*
%TO.P,R5,2*%
%TO.N,Net-(U1A--)*%
X142240000Y-63500000D03*
%TD*%
%TO.P,R7,1*%
%TO.N,Net-(D1-K)*%
X140240000Y-74930000D03*
%TO.P,R7,2*%
%TO.N,Net-(U2A--)*%
X142240000Y-74930000D03*
%TD*%
D30*
%TO.N,GND*%
X168910000Y-82550000D03*
X166370000Y-85090000D03*
X171450000Y-85090000D03*
X139700000Y-93980000D03*
X171450000Y-82550000D03*
X173990000Y-74930000D03*
X173990000Y-82550000D03*
X173990000Y-80010000D03*
D31*
X115500000Y-137500000D03*
D30*
X153650000Y-113210000D03*
X173990000Y-85090000D03*
X168910000Y-80010000D03*
X173990000Y-77470000D03*
X168910000Y-85090000D03*
X166370000Y-116840000D03*
X151130000Y-116840000D03*
X171450000Y-80010000D03*
X166370000Y-80010000D03*
X166370000Y-82550000D03*
X144780000Y-63500000D03*
X160020000Y-111760000D03*
X166370000Y-74930000D03*
D31*
X193500000Y-59500000D03*
D30*
X166370000Y-77470000D03*
D31*
X193500000Y-137500000D03*
D30*
X144780000Y-74930000D03*
D31*
X115500000Y-59500000D03*
D30*
%TO.N,Net-(D1-A)*%
X158750000Y-92710000D03*
X157480000Y-105410000D03*
%TO.N,current_sense_out*%
X157480000Y-77470000D03*
X162560000Y-77470000D03*
%TO.N,voltage_sense_out*%
X157480000Y-66040000D03*
X162560000Y-66040000D03*
%TO.N,mc_trigger*%
X142240000Y-92710000D03*
%TO.N,+12V*%
X157480000Y-63500000D03*
X147320000Y-104140000D03*
X144780000Y-93980000D03*
X162560000Y-102870000D03*
X144780000Y-66040000D03*
X157480000Y-74930000D03*
%TO.N,-12V*%
X152400000Y-78740000D03*
X157480000Y-107950000D03*
X152400000Y-67310000D03*
%TO.N,load*%
X144780000Y-77470000D03*
%TD*%
D32*
%TO.N,Net-(U3-ENA)*%
X136500000Y-93075000D02*
X138135000Y-91440000D01*
X150065000Y-118315000D02*
X136500000Y-104750000D01*
X152114214Y-118315000D02*
X150065000Y-118315000D01*
X136500000Y-104750000D02*
X136500000Y-93075000D01*
X153437500Y-116991714D02*
X152114214Y-118315000D01*
X153437500Y-116840000D02*
X153437500Y-116991714D01*
X138135000Y-91440000D02*
X139415000Y-91440000D01*
%TO.N,Net-(D1-K)*%
X161045000Y-92710000D02*
X164755000Y-89000000D01*
%TO.N,load*%
X139700000Y-85090000D02*
X139700000Y-81700000D01*
X139700000Y-81700000D02*
X138500000Y-80500000D01*
X138500000Y-65240000D02*
X140240000Y-63500000D01*
X138500000Y-80500000D02*
X138500000Y-65240000D01*
D33*
%TO.N,+12V*%
X132305000Y-103345000D02*
X132305000Y-112845000D01*
X132305000Y-112845000D02*
X132305000Y-122345000D01*
X132305000Y-122345000D02*
X132305000Y-131845000D01*
D34*
%TO.N,Net-(D1-K)*%
X170180000Y-91210000D02*
X170180000Y-92710000D01*
X163930000Y-89000000D02*
X167970000Y-89000000D01*
X160020000Y-85090000D02*
X163930000Y-89000000D01*
X167970000Y-89000000D02*
X170180000Y-91210000D01*
D32*
%TO.N,current_sense_out*%
X150300000Y-126700000D02*
X150300000Y-130250000D01*
X155000000Y-122000000D02*
X150300000Y-126700000D01*
X175500000Y-114000000D02*
X167500000Y-122000000D01*
X162560000Y-83820000D02*
X165740000Y-87000000D01*
X165740000Y-87000000D02*
X172500000Y-87000000D01*
X172500000Y-87000000D02*
X175500000Y-90000000D01*
X175500000Y-90000000D02*
X175500000Y-114000000D01*
X167500000Y-122000000D02*
X155000000Y-122000000D01*
X162560000Y-77470000D02*
X162560000Y-83820000D01*
%TO.N,*%
X115000000Y-68500000D02*
X115000000Y-128500000D01*
%TO.N,Net-(Q1-B)*%
X163830000Y-112760000D02*
X163680000Y-112910000D01*
X158627208Y-112710000D02*
X157812500Y-112710000D01*
X163830000Y-112760000D02*
X163830000Y-116840000D01*
X163680000Y-112910000D02*
X158827208Y-112910000D01*
X158827208Y-112910000D02*
X158627208Y-112710000D01*
%TO.N,Net-(D1-K)*%
X140240000Y-74715786D02*
X142475786Y-72480000D01*
X142475786Y-72480000D02*
X157212792Y-72480000D01*
X160020000Y-75287208D02*
X160020000Y-85090000D01*
X157212792Y-72480000D02*
X160020000Y-75287208D01*
X140240000Y-74930000D02*
X140240000Y-74715786D01*
%TO.N,Net-(D1-A)*%
X153400000Y-92710000D02*
X158750000Y-92710000D01*
X158750000Y-92710000D02*
X158995000Y-92710000D01*
%TO.N,current_sense_out*%
X157415000Y-76200000D02*
X157480000Y-77470000D01*
X157480000Y-77470000D02*
X157415000Y-77470000D01*
%TO.N,voltage_sense_out*%
X176500000Y-75813654D02*
X166726346Y-66040000D01*
X154500000Y-127464214D02*
X158964214Y-123000000D01*
X176500000Y-114414214D02*
X176500000Y-75813654D01*
X166726346Y-66040000D02*
X162560000Y-66040000D01*
X157480000Y-66040000D02*
X157480000Y-64770000D01*
X158964214Y-123000000D02*
X167914214Y-123000000D01*
X167914214Y-123000000D02*
X176500000Y-114414214D01*
X154500000Y-130250000D02*
X154500000Y-127464214D01*
%TO.N,mc_trigger*%
X139415000Y-92710000D02*
X142240000Y-92710000D01*
%TO.N,fault_signal*%
X174500000Y-113585786D02*
X167085786Y-121000000D01*
X148200000Y-133650000D02*
X150300000Y-135750000D01*
X148200000Y-127385786D02*
X148200000Y-133650000D01*
X161790000Y-97790000D02*
X174500000Y-110500000D01*
X154585786Y-121000000D02*
X148200000Y-127385786D01*
X153400000Y-97790000D02*
X161790000Y-97790000D01*
X167085786Y-121000000D02*
X154585786Y-121000000D01*
X174500000Y-110500000D02*
X174500000Y-113585786D01*
D33*
%TO.N,+3.3V*%
X158700000Y-135750000D02*
X174100000Y-135750000D01*
X186250000Y-121600000D02*
X186250000Y-123600000D01*
D32*
X188650000Y-77800000D02*
X188650000Y-115000000D01*
D33*
X186250000Y-121600000D02*
X191750000Y-121600000D01*
D32*
X188650000Y-115000000D02*
X186250000Y-117400000D01*
D33*
X186250000Y-117400000D02*
X186250000Y-121600000D01*
D32*
X186250000Y-75400000D02*
X188650000Y-77800000D01*
D33*
X186250000Y-123600000D02*
X174100000Y-135750000D01*
D32*
%TO.N,+12V*%
X143785000Y-93980000D02*
X144780000Y-93980000D01*
X144780000Y-93980000D02*
X145065000Y-93980000D01*
X139415000Y-95250000D02*
X142515000Y-95250000D01*
X157480000Y-63500000D02*
X157480000Y-59690000D01*
X142515000Y-95250000D02*
X143785000Y-93980000D01*
X147320000Y-104140000D02*
X151400000Y-104140000D01*
%TO.N,-12V*%
X157480000Y-107950000D02*
X157480000Y-106745000D01*
X157480000Y-106745000D02*
X157545000Y-106680000D01*
%TO.N,Net-(Q1-C)*%
X156325000Y-113232792D02*
X156325000Y-112187208D01*
X159750000Y-115300000D02*
X159750000Y-116840000D01*
X156902209Y-113810001D02*
X156325000Y-113232792D01*
X158260001Y-113810001D02*
X156902209Y-113810001D01*
X158260001Y-113810001D02*
X159750000Y-115300000D01*
X156325000Y-112187208D02*
X157702208Y-110810000D01*
X157702208Y-110810000D02*
X157812500Y-110810000D01*
%TO.N,Net-(U5A--)*%
X153400000Y-104140000D02*
X157545000Y-104140000D01*
X153400000Y-106680000D02*
X153400000Y-104140000D01*
%TO.N,Net-(U3-ENA)*%
X157750000Y-116840000D02*
X153437500Y-116840000D01*
X145065000Y-91440000D02*
X139415000Y-91440000D01*
%TO.N,Net-(U1A-+)*%
X147320000Y-63500000D02*
X147320000Y-66040000D01*
X147320000Y-66040000D02*
X152530000Y-66040000D01*
%TO.N,Net-(U2A-+)*%
X147320000Y-74930000D02*
X147320000Y-77470000D01*
X147320000Y-77470000D02*
X152465000Y-77470000D01*
%TO.N,Net-(U1A--)*%
X150804214Y-64770000D02*
X148084214Y-62050000D01*
X142240000Y-66040000D02*
X142240000Y-63500000D01*
X152530000Y-64770000D02*
X150804214Y-64770000D01*
X148084214Y-62050000D02*
X143690000Y-62050000D01*
X143690000Y-62050000D02*
X142240000Y-63500000D01*
%TO.N,Net-(U2A--)*%
X150804214Y-76200000D02*
X148084214Y-73480000D01*
X152465000Y-76200000D02*
X150804214Y-76200000D01*
X142240000Y-77470000D02*
X142240000Y-74930000D01*
X143690000Y-73480000D02*
X142240000Y-74930000D01*
X148084214Y-73480000D02*
X143690000Y-73480000D01*
%TO.N,Net-(U1B-+)*%
X140240000Y-66254214D02*
X140240000Y-66040000D01*
X152530000Y-63500000D02*
X153670000Y-63500000D01*
X155060000Y-68460000D02*
X142445786Y-68460000D01*
X156210000Y-67310000D02*
X157480000Y-67310000D01*
X142445786Y-68460000D02*
X140240000Y-66254214D01*
X153670000Y-63500000D02*
X155755000Y-65585000D01*
X155755000Y-66855000D02*
X156210000Y-67310000D01*
X156210000Y-67310000D02*
X155060000Y-68460000D01*
X155755000Y-65585000D02*
X155755000Y-66855000D01*
%TO.N,Net-(U2B-+)*%
X140240000Y-77684214D02*
X142565786Y-80010000D01*
X140240000Y-77470000D02*
X140240000Y-77684214D01*
X152465000Y-74930000D02*
X153670000Y-74930000D01*
X142565786Y-80010000D02*
X155167208Y-80010000D01*
X155690000Y-77992792D02*
X156437208Y-78740000D01*
X155690000Y-76950000D02*
X155690000Y-77992792D01*
X153670000Y-74930000D02*
X155690000Y-76950000D01*
X155167208Y-80010000D02*
X156437208Y-78740000D01*
X156437208Y-78740000D02*
X157415000Y-78740000D01*
%TO.N,Net-(U3-OUTA)*%
X151400000Y-92710000D02*
X145065000Y-92710000D01*
X151400000Y-95250000D02*
X151400000Y-92710000D01*
%TO.N,Net-(U4-GATE)*%
X165100000Y-95250000D02*
X167640000Y-92710000D01*
X153400000Y-95250000D02*
X165100000Y-95250000D01*
%TO.N,Net-(U3-OUTB)*%
X145065000Y-95250000D02*
X148860000Y-95250000D01*
X148860000Y-95250000D02*
X151400000Y-97790000D01*
%TO.N,Net-(R14-Pad2)*%
X151400000Y-106680000D02*
X151400000Y-109310000D01*
X151400000Y-109310000D02*
X152400000Y-110310000D01*
%TO.N,Net-(R15-Pad1)*%
X159270000Y-103390000D02*
X158750000Y-102870000D01*
X159270000Y-106200000D02*
X159270000Y-103390000D01*
X163830000Y-110760000D02*
X159270000Y-106200000D01*
X158750000Y-102870000D02*
X157545000Y-102870000D01*
%TD*%
%TA.AperFunction,Conductor*%
%TO.N,GND*%
G36*
X172185223Y-87759939D02*
G01*
X172225451Y-87786819D01*
X173338632Y-88900000D01*
X169921317Y-88900000D01*
X169064782Y-88043465D01*
X169054610Y-88031947D01*
X169040825Y-88014236D01*
X168988133Y-87965730D01*
X168955516Y-87916696D01*
X168949199Y-87858145D01*
X168970607Y-87803283D01*
X169014910Y-87764484D01*
X169072116Y-87750500D01*
X172137770Y-87750500D01*
X172185223Y-87759939D01*
G37*
%TD.AperFunction*%
%TA.AperFunction,Conductor*%
G36*
X175260000Y-75635022D02*
G01*
X175260000Y-88698632D01*
X173075728Y-86514360D01*
X173063946Y-86500727D01*
X173049609Y-86481469D01*
X173011666Y-86449631D01*
X173003691Y-86442323D01*
X172999782Y-86438414D01*
X172999777Y-86438409D01*
X172975423Y-86419152D01*
X172972647Y-86416890D01*
X172914251Y-86367890D01*
X172897821Y-86357422D01*
X172828691Y-86325186D01*
X172825447Y-86323615D01*
X172757306Y-86289394D01*
X172738903Y-86282997D01*
X172664211Y-86267574D01*
X172660692Y-86266794D01*
X172586490Y-86249208D01*
X172567121Y-86247229D01*
X172490869Y-86249448D01*
X172487263Y-86249500D01*
X166102230Y-86249500D01*
X166054777Y-86240061D01*
X166014549Y-86213181D01*
X165100000Y-85298632D01*
X165100000Y-76049999D01*
X167924671Y-76049999D01*
X167926635Y-76079969D01*
X167926831Y-76092218D01*
X167925723Y-76125372D01*
X167936664Y-76234136D01*
X167937021Y-76238436D01*
X167943965Y-76344381D01*
X167950469Y-76377083D01*
X167952228Y-76388852D01*
X167955882Y-76425164D01*
X167980457Y-76528287D01*
X167981452Y-76532841D01*
X168001518Y-76633719D01*
X168013301Y-76668433D01*
X168016502Y-76679539D01*
X168025731Y-76718261D01*
X168036712Y-76746772D01*
X168062644Y-76814106D01*
X168064346Y-76818806D01*
X168096347Y-76913075D01*
X168096349Y-76913079D01*
X168114022Y-76948917D01*
X168118522Y-76959190D01*
X168134022Y-76999432D01*
X168181787Y-77086594D01*
X168184249Y-77091325D01*
X168226828Y-77177665D01*
X168226829Y-77177667D01*
X168226830Y-77177668D01*
X168250870Y-77213648D01*
X168256506Y-77222941D01*
X168278823Y-77263662D01*
X168335826Y-77341028D01*
X168339099Y-77345691D01*
X168390726Y-77422956D01*
X168421445Y-77457985D01*
X168428044Y-77466188D01*
X168457552Y-77506237D01*
X168522064Y-77572942D01*
X168526156Y-77577385D01*
X168585242Y-77644758D01*
X168622756Y-77677657D01*
X168630128Y-77684679D01*
X168667018Y-77722822D01*
X168667020Y-77722824D01*
X168737241Y-77778276D01*
X168742148Y-77782360D01*
X168807043Y-77839273D01*
X168851290Y-77868838D01*
X168859247Y-77874624D01*
X168903485Y-77909558D01*
X168977610Y-77953462D01*
X168983308Y-77957050D01*
X169038092Y-77993655D01*
X169052335Y-78003172D01*
X169103051Y-78028182D01*
X169111381Y-78032695D01*
X169162730Y-78063109D01*
X169188750Y-78074142D01*
X169239009Y-78095455D01*
X169245437Y-78098399D01*
X169316923Y-78133652D01*
X169373611Y-78152895D01*
X169382134Y-78156144D01*
X169440128Y-78180736D01*
X169513156Y-78200740D01*
X169516832Y-78201747D01*
X169523916Y-78203916D01*
X169596278Y-78228481D01*
X169658232Y-78240804D01*
X169666786Y-78242824D01*
X169730729Y-78260340D01*
X169806297Y-78270502D01*
X169813939Y-78271775D01*
X169885620Y-78286034D01*
X169951972Y-78290382D01*
X169960342Y-78291219D01*
X170020823Y-78299353D01*
X170029346Y-78300500D01*
X170029347Y-78300500D01*
X170102273Y-78300500D01*
X170110382Y-78300765D01*
X170180000Y-78305329D01*
X170249617Y-78300765D01*
X170252858Y-78300659D01*
X170255233Y-78300500D01*
X170255244Y-78300500D01*
X170328670Y-78295584D01*
X170328843Y-78295609D01*
X170328841Y-78295574D01*
X170449742Y-78287648D01*
X170474380Y-78286034D01*
X170474381Y-78286033D01*
X170479091Y-78285725D01*
X170480629Y-78285412D01*
X170480634Y-78285412D01*
X170623658Y-78256341D01*
X170763722Y-78228481D01*
X170763727Y-78228479D01*
X170766644Y-78227899D01*
X170775879Y-78225403D01*
X170775893Y-78225397D01*
X170775903Y-78225396D01*
X170910580Y-78178630D01*
X170911251Y-78178401D01*
X170982076Y-78154359D01*
X171043077Y-78133652D01*
X171043219Y-78133581D01*
X171057412Y-78127644D01*
X171060537Y-78126560D01*
X171184815Y-78063758D01*
X171185645Y-78063344D01*
X171307665Y-78003172D01*
X171310567Y-78001232D01*
X171323530Y-77993663D01*
X171329459Y-77990668D01*
X171441531Y-77913734D01*
X171442650Y-77912977D01*
X171552957Y-77839273D01*
X171558069Y-77834788D01*
X171569660Y-77825778D01*
X171577869Y-77820144D01*
X171676204Y-77731203D01*
X171677489Y-77730059D01*
X171774758Y-77644758D01*
X171781434Y-77637144D01*
X171791493Y-77626931D01*
X171801333Y-77618032D01*
X171884806Y-77519298D01*
X171886039Y-77517864D01*
X171969273Y-77422957D01*
X171976748Y-77411768D01*
X171985144Y-77400618D01*
X171995865Y-77387939D01*
X172063612Y-77281814D01*
X172064944Y-77279774D01*
X172133172Y-77177665D01*
X172140589Y-77162622D01*
X172147284Y-77150744D01*
X172157991Y-77133973D01*
X172157990Y-77133973D01*
X172157993Y-77133970D01*
X172209611Y-77022733D01*
X172210806Y-77020236D01*
X172263652Y-76913077D01*
X172270108Y-76894056D01*
X172275047Y-76881724D01*
X172284823Y-76860658D01*
X172320155Y-76746754D01*
X172321164Y-76743651D01*
X172329783Y-76718261D01*
X172358481Y-76633722D01*
X172363046Y-76610768D01*
X172366228Y-76598229D01*
X172374093Y-76572879D01*
X172393383Y-76458516D01*
X172394023Y-76455033D01*
X172416034Y-76344380D01*
X172417781Y-76317708D01*
X172419240Y-76305222D01*
X172424209Y-76275770D01*
X172427973Y-76163173D01*
X172428169Y-76159227D01*
X172430389Y-76125369D01*
X172435329Y-76050000D01*
X172433363Y-76020022D01*
X172433167Y-76007803D01*
X172434277Y-75974631D01*
X172423336Y-75865880D01*
X172422980Y-75861584D01*
X172416034Y-75755624D01*
X172416034Y-75755623D01*
X172416034Y-75755620D01*
X172409528Y-75722912D01*
X172407770Y-75711143D01*
X172404118Y-75674842D01*
X172404118Y-75674838D01*
X172379532Y-75571675D01*
X172378556Y-75567210D01*
X172358481Y-75466278D01*
X172346695Y-75431559D01*
X172343496Y-75420456D01*
X172334269Y-75381739D01*
X172323283Y-75353215D01*
X172297351Y-75285884D01*
X172295655Y-75281200D01*
X172270109Y-75205944D01*
X172263652Y-75186923D01*
X172245969Y-75151065D01*
X172241476Y-75140808D01*
X172225977Y-75100566D01*
X172178196Y-75013378D01*
X172175747Y-75008671D01*
X172133172Y-74922336D01*
X172109120Y-74886341D01*
X172103503Y-74877081D01*
X172081175Y-74836335D01*
X172024169Y-74758966D01*
X172020897Y-74754304D01*
X171969273Y-74677043D01*
X171938553Y-74642013D01*
X171931953Y-74633809D01*
X171902445Y-74593761D01*
X171837934Y-74527056D01*
X171833842Y-74522613D01*
X171790378Y-74473053D01*
X171774758Y-74455242D01*
X171750403Y-74433883D01*
X171737236Y-74422335D01*
X171729865Y-74415314D01*
X171692980Y-74377176D01*
X171622768Y-74321731D01*
X171617857Y-74317643D01*
X171563600Y-74270061D01*
X171552957Y-74260727D01*
X171552953Y-74260724D01*
X171508701Y-74231154D01*
X171500746Y-74225370D01*
X171456517Y-74190443D01*
X171382387Y-74146536D01*
X171376690Y-74142948D01*
X171307668Y-74096829D01*
X171256949Y-74071816D01*
X171248604Y-74067295D01*
X171197272Y-74036891D01*
X171136754Y-74011229D01*
X171120997Y-74004548D01*
X171114570Y-74001603D01*
X171043082Y-73966349D01*
X170986409Y-73947111D01*
X170977862Y-73943853D01*
X170919874Y-73919265D01*
X170919875Y-73919265D01*
X170919872Y-73919264D01*
X170882862Y-73909126D01*
X170843154Y-73898248D01*
X170836057Y-73896073D01*
X170763720Y-73871518D01*
X170701777Y-73859197D01*
X170693212Y-73857175D01*
X170675475Y-73852316D01*
X170629269Y-73839659D01*
X170553717Y-73829497D01*
X170546058Y-73828222D01*
X170474375Y-73813965D01*
X170408070Y-73809619D01*
X170399654Y-73808779D01*
X170330653Y-73799500D01*
X170257727Y-73799500D01*
X170249617Y-73799234D01*
X170246578Y-73799034D01*
X170180000Y-73794670D01*
X170113421Y-73799034D01*
X170110382Y-73799234D01*
X170107136Y-73799340D01*
X170031157Y-73804426D01*
X170030987Y-73804437D01*
X169880913Y-73814274D01*
X169879369Y-73814587D01*
X169879366Y-73814588D01*
X169736594Y-73843606D01*
X169736146Y-73843696D01*
X169593402Y-73872090D01*
X169584107Y-73874602D01*
X169584096Y-73874604D01*
X169449651Y-73921287D01*
X169448837Y-73921567D01*
X169316916Y-73966350D01*
X169316755Y-73966430D01*
X169302619Y-73972343D01*
X169299465Y-73973438D01*
X169175241Y-74036210D01*
X169174162Y-74036749D01*
X169052326Y-74096833D01*
X169049419Y-74098775D01*
X169036483Y-74106328D01*
X169030543Y-74109330D01*
X168918584Y-74186185D01*
X168917298Y-74187056D01*
X168807044Y-74260725D01*
X168801923Y-74265217D01*
X168790348Y-74274215D01*
X168782129Y-74279857D01*
X168683881Y-74368716D01*
X168682465Y-74369977D01*
X168585240Y-74455243D01*
X168578557Y-74462863D01*
X168568522Y-74473053D01*
X168558665Y-74481969D01*
X168475299Y-74580574D01*
X168473836Y-74582274D01*
X168390726Y-74677043D01*
X168383250Y-74688231D01*
X168374850Y-74699386D01*
X168364136Y-74712058D01*
X168296420Y-74818132D01*
X168295005Y-74820297D01*
X168226828Y-74922334D01*
X168219414Y-74937368D01*
X168212725Y-74949238D01*
X168202008Y-74966026D01*
X168150412Y-75077212D01*
X168149146Y-75079858D01*
X168096347Y-75186925D01*
X168089890Y-75205944D01*
X168084954Y-75218270D01*
X168075178Y-75239337D01*
X168060732Y-75285908D01*
X168039841Y-75353250D01*
X168038839Y-75356334D01*
X168001519Y-75466273D01*
X167996952Y-75489234D01*
X167993768Y-75501776D01*
X167985906Y-75527120D01*
X167966622Y-75641434D01*
X167965968Y-75644996D01*
X167943965Y-75755623D01*
X167942218Y-75782273D01*
X167940758Y-75794780D01*
X167935791Y-75824230D01*
X167932027Y-75936779D01*
X167931831Y-75940742D01*
X167924671Y-76049999D01*
X165100000Y-76049999D01*
X165100000Y-72390000D01*
X172014978Y-72390000D01*
X175260000Y-75635022D01*
G37*
%TD.AperFunction*%
%TA.AperFunction,Conductor*%
G36*
X175260000Y-73512286D02*
G01*
X174137714Y-72390000D01*
X175260000Y-72390000D01*
X175260000Y-73512286D01*
G37*
%TD.AperFunction*%
%TD*%
%TA.AperFunction,Conductor*%
%TO.N,GND*%
G36*
X118395624Y-56011930D02*
G01*
X118444076Y-56044467D01*
X118476313Y-56093118D01*
X118487389Y-56150420D01*
X117995279Y-135872112D01*
X118011829Y-136003560D01*
X118028186Y-136065884D01*
X118078315Y-136188507D01*
X118125151Y-136250000D01*
X118158584Y-136293896D01*
X118204004Y-136339597D01*
X118308896Y-136420514D01*
X118431209Y-136471399D01*
X118493430Y-136488140D01*
X118594099Y-136501446D01*
X118624766Y-136505500D01*
X118624768Y-136505500D01*
X134876000Y-136505500D01*
X134876001Y-136505500D01*
X134887283Y-136504014D01*
X135006834Y-136488275D01*
X135068834Y-136471662D01*
X135190750Y-136421163D01*
X135295442Y-136340829D01*
X135340829Y-136295442D01*
X135421163Y-136190750D01*
X135471662Y-136068834D01*
X135488275Y-136006834D01*
X135505500Y-135876000D01*
X135505500Y-105058115D01*
X135521674Y-104990599D01*
X135566686Y-104937742D01*
X135630762Y-104911018D01*
X135699992Y-104916230D01*
X135759346Y-104952246D01*
X135795937Y-105011246D01*
X135816206Y-105072413D01*
X135822982Y-105086409D01*
X135824762Y-105089116D01*
X135824763Y-105089117D01*
X135865794Y-105151503D01*
X135868078Y-105155088D01*
X135907288Y-105218656D01*
X135907290Y-105218658D01*
X135908995Y-105221422D01*
X135918810Y-105233470D01*
X135975443Y-105286901D01*
X135978552Y-105289920D01*
X149487985Y-118799353D01*
X149502141Y-118815734D01*
X149515389Y-118833529D01*
X149552494Y-118864664D01*
X149562077Y-118873445D01*
X149565222Y-118876590D01*
X149589263Y-118895599D01*
X149592625Y-118898338D01*
X149652275Y-118948391D01*
X149665375Y-118956736D01*
X149668322Y-118958110D01*
X149668323Y-118958111D01*
X149711591Y-118978287D01*
X149735988Y-118989664D01*
X149739889Y-118991553D01*
X149809480Y-119026503D01*
X149824143Y-119031600D01*
X149879908Y-119043113D01*
X149900469Y-119047359D01*
X149904655Y-119048287D01*
X149977279Y-119065500D01*
X149977281Y-119065500D01*
X149980445Y-119066250D01*
X149995891Y-119067828D01*
X149999141Y-119067733D01*
X149999144Y-119067734D01*
X150073752Y-119065562D01*
X150078086Y-119065500D01*
X152048687Y-119065500D01*
X152070281Y-119067072D01*
X152092237Y-119070289D01*
X152092237Y-119070288D01*
X152092238Y-119070289D01*
X152140497Y-119066067D01*
X152153483Y-119065500D01*
X152157921Y-119065500D01*
X152157923Y-119065500D01*
X152188377Y-119061939D01*
X152192624Y-119061506D01*
X152267011Y-119054999D01*
X152267014Y-119054997D01*
X152270248Y-119054715D01*
X152285405Y-119051355D01*
X152288464Y-119050241D01*
X152288469Y-119050241D01*
X152358645Y-119024698D01*
X152362695Y-119023292D01*
X152436635Y-118998791D01*
X152450615Y-118992022D01*
X152453326Y-118990238D01*
X152453331Y-118990237D01*
X152515723Y-118949200D01*
X152519305Y-118946918D01*
X152582870Y-118907712D01*
X152582872Y-118907709D01*
X152585641Y-118906002D01*
X152597668Y-118896205D01*
X152599906Y-118893832D01*
X152599910Y-118893830D01*
X152651147Y-118839520D01*
X152654101Y-118836479D01*
X153381441Y-118109139D01*
X153429780Y-118076841D01*
X153486800Y-118065499D01*
X153825005Y-118065499D01*
X153825008Y-118065499D01*
X153927797Y-118054999D01*
X154094334Y-117999814D01*
X154243656Y-117907712D01*
X154367712Y-117783656D01*
X154443194Y-117661278D01*
X154497395Y-117609393D01*
X154570011Y-117590500D01*
X156620409Y-117590500D01*
X156693025Y-117609393D01*
X156747225Y-117661278D01*
X156807288Y-117758656D01*
X156931344Y-117882712D01*
X157080666Y-117974814D01*
X157247203Y-118029999D01*
X157349991Y-118040500D01*
X158150008Y-118040499D01*
X158252797Y-118029999D01*
X158419334Y-117974814D01*
X158568656Y-117882712D01*
X158644641Y-117806726D01*
X158692980Y-117774428D01*
X158750000Y-117763086D01*
X158807020Y-117774428D01*
X158855359Y-117806726D01*
X158931344Y-117882712D01*
X159080666Y-117974814D01*
X159247203Y-118029999D01*
X159349991Y-118040500D01*
X160150008Y-118040499D01*
X160252797Y-118029999D01*
X160419334Y-117974814D01*
X160568656Y-117882712D01*
X160692712Y-117758656D01*
X160784814Y-117609334D01*
X160839999Y-117442797D01*
X160850500Y-117340009D01*
X160850499Y-116339992D01*
X160839999Y-116237203D01*
X160784814Y-116070666D01*
X160692712Y-115921344D01*
X160568656Y-115797288D01*
X160556341Y-115784973D01*
X160557158Y-115784155D01*
X160519392Y-115744705D01*
X160500500Y-115672089D01*
X160500500Y-115365527D01*
X160502073Y-115343932D01*
X160505289Y-115321977D01*
X160501067Y-115273717D01*
X160500500Y-115260731D01*
X160500500Y-115256292D01*
X160498323Y-115237672D01*
X160496941Y-115225850D01*
X160496504Y-115221567D01*
X160492575Y-115176654D01*
X160489999Y-115147203D01*
X160489997Y-115147199D01*
X160489715Y-115143966D01*
X160486355Y-115128806D01*
X160480744Y-115113390D01*
X160459707Y-115055591D01*
X160458299Y-115051539D01*
X160451239Y-115030234D01*
X160434814Y-114980666D01*
X160434812Y-114980663D01*
X160433789Y-114977575D01*
X160427023Y-114963599D01*
X160422743Y-114957091D01*
X160384202Y-114898494D01*
X160381902Y-114894883D01*
X160377813Y-114888254D01*
X160342712Y-114831345D01*
X160342711Y-114831344D01*
X160341004Y-114828576D01*
X160331195Y-114816534D01*
X160274539Y-114763082D01*
X160271430Y-114760063D01*
X159426227Y-113914859D01*
X159389879Y-113855543D01*
X159384420Y-113786191D01*
X159411042Y-113721920D01*
X159463941Y-113676740D01*
X159531586Y-113660500D01*
X162807414Y-113660500D01*
X162864434Y-113671842D01*
X162902111Y-113697017D01*
X162911343Y-113702711D01*
X162911344Y-113702712D01*
X162942485Y-113721920D01*
X163008721Y-113762774D01*
X163060607Y-113816975D01*
X163079500Y-113889591D01*
X163079500Y-115654914D01*
X163068158Y-115711934D01*
X163035859Y-115760273D01*
X162899788Y-115896343D01*
X162807686Y-116045666D01*
X162752500Y-116212206D01*
X162742000Y-116314986D01*
X162742000Y-117365004D01*
X162752501Y-117467798D01*
X162763669Y-117501501D01*
X162807686Y-117634334D01*
X162899788Y-117783656D01*
X163023844Y-117907712D01*
X163173166Y-117999814D01*
X163339703Y-118054999D01*
X163442491Y-118065500D01*
X164217508Y-118065499D01*
X164320297Y-118054999D01*
X164486834Y-117999814D01*
X164636156Y-117907712D01*
X164760212Y-117783656D01*
X164760213Y-117783653D01*
X164762494Y-117781373D01*
X164810833Y-117749074D01*
X164867853Y-117737732D01*
X164924873Y-117749074D01*
X164973212Y-117781373D01*
X165099155Y-117907316D01*
X165248379Y-117999358D01*
X165404999Y-118051257D01*
X165405000Y-118051257D01*
X165405000Y-117340000D01*
X166405000Y-117340000D01*
X166405000Y-118051257D01*
X166561620Y-117999358D01*
X166710844Y-117907316D01*
X166834816Y-117783344D01*
X166926858Y-117634120D01*
X166982006Y-117467694D01*
X166992500Y-117364983D01*
X166992500Y-117340000D01*
X166405000Y-117340000D01*
X165405000Y-117340000D01*
X165405000Y-115628743D01*
X165404999Y-115628742D01*
X166405000Y-115628742D01*
X166405000Y-116340000D01*
X166992499Y-116340000D01*
X166992499Y-116315026D01*
X166982005Y-116212301D01*
X166926858Y-116045879D01*
X166834816Y-115896655D01*
X166710844Y-115772683D01*
X166561620Y-115680641D01*
X166405000Y-115628742D01*
X165404999Y-115628742D01*
X165248379Y-115680641D01*
X165099155Y-115772683D01*
X164973212Y-115898626D01*
X164906417Y-115937190D01*
X164829289Y-115937190D01*
X164762494Y-115898626D01*
X164624141Y-115760273D01*
X164591842Y-115711934D01*
X164580500Y-115654914D01*
X164580500Y-113889591D01*
X164599393Y-113816975D01*
X164651279Y-113762774D01*
X164748656Y-113702712D01*
X164872712Y-113578656D01*
X164964814Y-113429334D01*
X165019999Y-113262797D01*
X165030500Y-113160009D01*
X165030499Y-112359992D01*
X165019999Y-112257203D01*
X164964814Y-112090666D01*
X164872712Y-111941344D01*
X164796727Y-111865359D01*
X164764428Y-111817020D01*
X164753086Y-111760000D01*
X164764428Y-111702980D01*
X164796727Y-111654641D01*
X164833501Y-111617867D01*
X164872712Y-111578656D01*
X164964814Y-111429334D01*
X165019999Y-111262797D01*
X165030500Y-111160009D01*
X165030499Y-110359992D01*
X165019999Y-110257203D01*
X164964814Y-110090666D01*
X164872712Y-109941344D01*
X164748656Y-109817288D01*
X164599334Y-109725186D01*
X164432797Y-109670001D01*
X164432795Y-109670000D01*
X164432793Y-109670000D01*
X164330014Y-109659500D01*
X164330009Y-109659500D01*
X163852585Y-109659500D01*
X163795565Y-109648158D01*
X163747226Y-109615859D01*
X161866227Y-107734859D01*
X161829879Y-107675544D01*
X161824420Y-107606191D01*
X161851042Y-107541920D01*
X161903941Y-107496740D01*
X161971586Y-107480500D01*
X163385690Y-107480500D01*
X163385694Y-107480500D01*
X163422569Y-107477598D01*
X163580398Y-107431744D01*
X163721865Y-107348081D01*
X163838081Y-107231865D01*
X163921744Y-107090398D01*
X163967598Y-106932569D01*
X163970500Y-106895694D01*
X163970500Y-106464306D01*
X163967598Y-106427431D01*
X163921744Y-106269602D01*
X163838081Y-106128135D01*
X163838078Y-106128132D01*
X163833770Y-106120847D01*
X163815376Y-106071386D01*
X163815376Y-106018614D01*
X163833770Y-105969153D01*
X163838078Y-105961867D01*
X163838081Y-105961865D01*
X163921744Y-105820398D01*
X163967598Y-105662569D01*
X163970500Y-105625694D01*
X163970500Y-105194306D01*
X163967598Y-105157431D01*
X163921744Y-104999602D01*
X163838081Y-104858135D01*
X163838078Y-104858132D01*
X163833770Y-104850847D01*
X163815376Y-104801386D01*
X163815376Y-104748614D01*
X163833770Y-104699153D01*
X163838078Y-104691867D01*
X163838081Y-104691865D01*
X163921744Y-104550398D01*
X163967598Y-104392569D01*
X163970500Y-104355694D01*
X163970500Y-103924306D01*
X163967598Y-103887431D01*
X163921744Y-103729602D01*
X163838081Y-103588135D01*
X163838078Y-103588132D01*
X163833770Y-103580847D01*
X163815376Y-103531386D01*
X163815376Y-103478614D01*
X163833770Y-103429153D01*
X163838078Y-103421867D01*
X163838081Y-103421865D01*
X163921744Y-103280398D01*
X163967598Y-103122569D01*
X163970500Y-103085694D01*
X163970500Y-102654306D01*
X163967598Y-102617431D01*
X163921744Y-102459602D01*
X163838081Y-102318135D01*
X163721865Y-102201919D01*
X163580398Y-102118256D01*
X163422569Y-102072402D01*
X163385694Y-102069500D01*
X163385690Y-102069500D01*
X163007681Y-102069500D01*
X162947077Y-102056618D01*
X162839803Y-102008856D01*
X162712927Y-101981888D01*
X162654646Y-101969500D01*
X162465354Y-101969500D01*
X162408818Y-101981517D01*
X162280196Y-102008856D01*
X162172923Y-102056618D01*
X162112319Y-102069500D01*
X161604306Y-102069500D01*
X161574806Y-102071821D01*
X161567430Y-102072402D01*
X161409602Y-102118256D01*
X161268134Y-102201919D01*
X161151919Y-102318134D01*
X161082699Y-102435180D01*
X161068256Y-102459602D01*
X161022402Y-102617431D01*
X161019500Y-102654306D01*
X161019500Y-103085694D01*
X161022402Y-103122569D01*
X161068256Y-103280398D01*
X161151919Y-103421865D01*
X161151920Y-103421866D01*
X161156229Y-103429152D01*
X161174623Y-103478613D01*
X161174623Y-103531384D01*
X161156229Y-103580845D01*
X161073530Y-103720684D01*
X161068256Y-103729602D01*
X161022402Y-103887431D01*
X161019500Y-103924306D01*
X161019500Y-104355694D01*
X161022402Y-104392569D01*
X161068256Y-104550398D01*
X161151919Y-104691865D01*
X161151920Y-104691866D01*
X161156229Y-104699152D01*
X161174623Y-104748613D01*
X161174623Y-104801384D01*
X161156229Y-104850845D01*
X161073580Y-104990599D01*
X161068256Y-104999602D01*
X161022402Y-105157431D01*
X161019500Y-105194306D01*
X161019500Y-105625694D01*
X161022402Y-105662569D01*
X161068256Y-105820398D01*
X161151919Y-105961865D01*
X161151920Y-105961866D01*
X161156229Y-105969152D01*
X161174623Y-106018613D01*
X161174623Y-106071384D01*
X161156229Y-106120845D01*
X161068257Y-106269600D01*
X161022402Y-106427430D01*
X161019500Y-106464310D01*
X161019500Y-106528414D01*
X161003260Y-106596059D01*
X160958080Y-106648958D01*
X160893809Y-106675580D01*
X160824456Y-106670121D01*
X160765141Y-106633773D01*
X160064141Y-105932773D01*
X160031842Y-105884434D01*
X160020500Y-105827414D01*
X160020500Y-103455527D01*
X160022073Y-103433932D01*
X160022773Y-103429152D01*
X160025289Y-103411977D01*
X160021067Y-103363717D01*
X160020500Y-103350731D01*
X160020500Y-103346292D01*
X160016945Y-103315884D01*
X160016504Y-103311567D01*
X160016409Y-103310479D01*
X160009999Y-103237203D01*
X160009997Y-103237199D01*
X160009715Y-103233966D01*
X160006355Y-103218806D01*
X160001538Y-103205572D01*
X159979707Y-103145591D01*
X159978299Y-103141539D01*
X159953793Y-103067585D01*
X159947020Y-103053595D01*
X159945237Y-103050885D01*
X159945237Y-103050883D01*
X159904190Y-102988474D01*
X159901906Y-102984888D01*
X159862712Y-102921344D01*
X159862711Y-102921343D01*
X159861007Y-102918580D01*
X159851197Y-102906536D01*
X159794556Y-102853098D01*
X159791447Y-102850079D01*
X159327014Y-102385646D01*
X159312859Y-102369267D01*
X159299610Y-102351470D01*
X159262505Y-102320335D01*
X159252922Y-102311554D01*
X159249777Y-102308409D01*
X159225742Y-102289405D01*
X159222380Y-102286666D01*
X159162727Y-102236611D01*
X159149620Y-102228261D01*
X159109850Y-102209716D01*
X159079008Y-102195334D01*
X159075140Y-102193461D01*
X159008433Y-102159960D01*
X159008431Y-102159959D01*
X159005527Y-102158501D01*
X158990848Y-102153398D01*
X158914547Y-102137642D01*
X158910319Y-102136705D01*
X158834554Y-102118749D01*
X158819108Y-102117171D01*
X158746704Y-102119278D01*
X158741247Y-102119437D01*
X158736914Y-102119500D01*
X158655886Y-102119500D01*
X158614318Y-102113584D01*
X158472569Y-102072402D01*
X158435694Y-102069500D01*
X156654306Y-102069500D01*
X156624806Y-102071821D01*
X156617430Y-102072402D01*
X156459602Y-102118256D01*
X156318134Y-102201919D01*
X156201919Y-102318134D01*
X156132699Y-102435180D01*
X156118256Y-102459602D01*
X156072402Y-102617431D01*
X156069500Y-102654306D01*
X156069500Y-103085694D01*
X156071158Y-103106765D01*
X156072402Y-103122572D01*
X156094587Y-103198929D01*
X156098080Y-103267268D01*
X156070657Y-103329962D01*
X156018104Y-103373787D01*
X155951504Y-103389500D01*
X154529591Y-103389500D01*
X154456975Y-103370607D01*
X154402774Y-103318721D01*
X154399692Y-103313724D01*
X154342712Y-103221344D01*
X154218656Y-103097288D01*
X154069334Y-103005186D01*
X153902797Y-102950001D01*
X153902795Y-102950000D01*
X153902793Y-102950000D01*
X153800013Y-102939500D01*
X152999995Y-102939500D01*
X152897201Y-102950001D01*
X152730666Y-103005186D01*
X152581343Y-103097288D01*
X152505359Y-103173273D01*
X152457020Y-103205572D01*
X152400000Y-103216914D01*
X152342980Y-103205572D01*
X152294641Y-103173273D01*
X152218656Y-103097288D01*
X152199859Y-103085694D01*
X152069334Y-103005186D01*
X151902797Y-102950001D01*
X151902795Y-102950000D01*
X151902793Y-102950000D01*
X151800013Y-102939500D01*
X150999995Y-102939500D01*
X150897201Y-102950001D01*
X150730666Y-103005186D01*
X150581343Y-103097288D01*
X150457288Y-103221343D01*
X150420864Y-103280397D01*
X150401639Y-103311567D01*
X150397226Y-103318721D01*
X150343025Y-103370607D01*
X150270409Y-103389500D01*
X147867459Y-103389500D01*
X147821416Y-103382208D01*
X147779885Y-103361047D01*
X147772730Y-103355849D01*
X147618742Y-103287288D01*
X147599801Y-103278855D01*
X147464624Y-103250123D01*
X147414646Y-103239500D01*
X147225354Y-103239500D01*
X147161949Y-103252977D01*
X147040196Y-103278856D01*
X146867271Y-103355848D01*
X146714127Y-103467113D01*
X146587467Y-103607783D01*
X146492820Y-103771717D01*
X146434326Y-103951742D01*
X146414539Y-104139999D01*
X146434326Y-104328257D01*
X146468825Y-104434434D01*
X146492821Y-104508284D01*
X146587466Y-104672215D01*
X146587467Y-104672216D01*
X146703772Y-104801386D01*
X146714129Y-104812888D01*
X146867270Y-104924151D01*
X147040197Y-105001144D01*
X147225354Y-105040500D01*
X147414645Y-105040500D01*
X147414646Y-105040500D01*
X147599803Y-105001144D01*
X147772730Y-104924151D01*
X147779885Y-104918952D01*
X147821416Y-104897792D01*
X147867459Y-104890500D01*
X150270409Y-104890500D01*
X150343025Y-104909393D01*
X150397225Y-104961278D01*
X150428962Y-105012732D01*
X150457288Y-105058656D01*
X150581345Y-105182713D01*
X150744233Y-105283182D01*
X150796120Y-105337383D01*
X150815013Y-105409998D01*
X150796121Y-105482614D01*
X150744235Y-105536815D01*
X150581344Y-105637287D01*
X150457288Y-105761343D01*
X150365186Y-105910666D01*
X150310000Y-106077206D01*
X150299500Y-106179986D01*
X150299500Y-107180004D01*
X150310001Y-107282797D01*
X150365186Y-107449334D01*
X150422293Y-107541920D01*
X150457288Y-107598656D01*
X150593659Y-107735027D01*
X150592841Y-107735844D01*
X150630608Y-107775295D01*
X150649500Y-107847911D01*
X150649500Y-109244473D01*
X150647927Y-109266068D01*
X150644710Y-109288024D01*
X150648933Y-109336283D01*
X150649500Y-109349269D01*
X150649500Y-109353710D01*
X150653055Y-109384132D01*
X150653495Y-109388438D01*
X150660283Y-109466022D01*
X150663649Y-109481205D01*
X150690280Y-109554375D01*
X150691702Y-109558466D01*
X150716206Y-109632413D01*
X150722982Y-109646409D01*
X150724762Y-109649116D01*
X150724763Y-109649117D01*
X150765794Y-109711503D01*
X150768078Y-109715088D01*
X150807288Y-109778656D01*
X150807290Y-109778658D01*
X150808995Y-109781422D01*
X150818806Y-109793465D01*
X150821168Y-109795694D01*
X150821170Y-109795696D01*
X150852750Y-109825490D01*
X150887314Y-109874851D01*
X150899500Y-109933868D01*
X150899500Y-111157876D01*
X150905908Y-111217481D01*
X150955260Y-111349802D01*
X150956204Y-111352331D01*
X151042454Y-111467546D01*
X151157669Y-111553796D01*
X151292517Y-111604091D01*
X151352127Y-111610500D01*
X153447872Y-111610499D01*
X153447876Y-111610499D01*
X153487612Y-111606227D01*
X153507483Y-111604091D01*
X153642331Y-111553796D01*
X153757546Y-111467546D01*
X153843796Y-111352331D01*
X153894091Y-111217483D01*
X153900500Y-111157873D01*
X153900499Y-109462128D01*
X153900499Y-109462123D01*
X153894091Y-109402518D01*
X153891682Y-109396060D01*
X153843796Y-109267669D01*
X153757546Y-109152454D01*
X153642331Y-109066204D01*
X153507483Y-109015909D01*
X153507482Y-109015908D01*
X153507480Y-109015908D01*
X153447876Y-109009500D01*
X153447873Y-109009500D01*
X152299500Y-109009500D01*
X152242480Y-108998158D01*
X152194141Y-108965859D01*
X152161842Y-108917520D01*
X152150500Y-108860500D01*
X152150500Y-107847911D01*
X152169392Y-107775295D01*
X152207158Y-107735844D01*
X152206341Y-107735027D01*
X152294641Y-107646727D01*
X152342980Y-107614428D01*
X152400000Y-107603086D01*
X152457020Y-107614428D01*
X152505359Y-107646726D01*
X152581344Y-107722712D01*
X152730666Y-107814814D01*
X152897203Y-107869999D01*
X152999991Y-107880500D01*
X153800008Y-107880499D01*
X153902797Y-107869999D01*
X154069334Y-107814814D01*
X154218656Y-107722712D01*
X154342712Y-107598656D01*
X154434814Y-107449334D01*
X154489999Y-107282797D01*
X154500500Y-107180009D01*
X154500499Y-106179992D01*
X154489999Y-106077203D01*
X154434814Y-105910666D01*
X154342712Y-105761344D01*
X154218656Y-105637288D01*
X154206341Y-105624973D01*
X154207158Y-105624155D01*
X154169392Y-105584705D01*
X154150500Y-105512089D01*
X154150500Y-105307911D01*
X154169392Y-105235295D01*
X154207158Y-105195844D01*
X154206341Y-105195027D01*
X154249900Y-105151468D01*
X154342712Y-105058656D01*
X154402774Y-104961278D01*
X154456975Y-104909393D01*
X154529591Y-104890500D01*
X155951504Y-104890500D01*
X156018104Y-104906213D01*
X156070657Y-104950038D01*
X156098080Y-105012732D01*
X156094587Y-105081071D01*
X156072402Y-105157427D01*
X156072402Y-105157430D01*
X156072402Y-105157431D01*
X156069500Y-105194306D01*
X156069500Y-105625694D01*
X156072402Y-105662569D01*
X156118256Y-105820398D01*
X156201919Y-105961865D01*
X156201920Y-105961866D01*
X156206229Y-105969152D01*
X156224623Y-106018613D01*
X156224623Y-106071384D01*
X156206229Y-106120845D01*
X156118257Y-106269600D01*
X156075257Y-106417605D01*
X156072402Y-106427431D01*
X156069500Y-106464306D01*
X156069500Y-106895694D01*
X156072402Y-106932569D01*
X156118256Y-107090398D01*
X156201919Y-107231865D01*
X156318135Y-107348081D01*
X156459602Y-107431744D01*
X156533032Y-107453077D01*
X156585531Y-107480611D01*
X156623140Y-107526438D01*
X156639903Y-107583303D01*
X156633167Y-107642203D01*
X156594325Y-107761745D01*
X156574539Y-107950000D01*
X156594326Y-108138257D01*
X156638537Y-108274325D01*
X156652821Y-108318284D01*
X156700526Y-108400912D01*
X156747467Y-108482216D01*
X156786093Y-108525115D01*
X156874129Y-108622888D01*
X157027270Y-108734151D01*
X157200197Y-108811144D01*
X157385354Y-108850500D01*
X157574645Y-108850500D01*
X157574646Y-108850500D01*
X157759803Y-108811144D01*
X157932730Y-108734151D01*
X158085871Y-108622888D01*
X158212533Y-108482216D01*
X158307179Y-108318284D01*
X158365674Y-108138256D01*
X158385460Y-107950000D01*
X158365674Y-107761744D01*
X158336723Y-107672641D01*
X158330835Y-107606181D01*
X158354542Y-107543815D01*
X158403090Y-107498048D01*
X158466742Y-107478056D01*
X158472569Y-107477598D01*
X158630398Y-107431744D01*
X158771865Y-107348081D01*
X158888081Y-107231865D01*
X158921264Y-107175754D01*
X158967710Y-107127066D01*
X159030840Y-107103776D01*
X159097778Y-107110634D01*
X159154874Y-107146242D01*
X162585859Y-110577227D01*
X162618158Y-110625566D01*
X162629500Y-110682586D01*
X162629500Y-111160004D01*
X162640001Y-111262797D01*
X162695186Y-111429334D01*
X162771954Y-111553795D01*
X162787288Y-111578656D01*
X162863273Y-111654641D01*
X162895572Y-111702980D01*
X162906914Y-111760000D01*
X162895572Y-111817020D01*
X162863273Y-111865359D01*
X162787288Y-111941343D01*
X162696386Y-112088721D01*
X162642185Y-112140607D01*
X162569569Y-112159500D01*
X161057455Y-112159500D01*
X160990855Y-112143787D01*
X160938302Y-112099963D01*
X160908297Y-112060000D01*
X159042144Y-112060000D01*
X158979173Y-112046039D01*
X158956218Y-112035334D01*
X158952348Y-112033461D01*
X158885641Y-111999960D01*
X158885639Y-111999959D01*
X158882735Y-111998501D01*
X158868056Y-111993398D01*
X158791755Y-111977642D01*
X158787527Y-111976705D01*
X158711765Y-111958750D01*
X158696315Y-111957171D01*
X158687110Y-111957439D01*
X158683685Y-111957538D01*
X158637784Y-111951686D01*
X158502569Y-111912402D01*
X158502568Y-111912401D01*
X158465694Y-111909500D01*
X158465690Y-111909500D01*
X158023793Y-111909500D01*
X157956148Y-111893260D01*
X157903249Y-111848080D01*
X157876627Y-111783809D01*
X157882086Y-111714456D01*
X157918434Y-111655141D01*
X157919434Y-111654141D01*
X157967773Y-111621842D01*
X158024793Y-111610500D01*
X158465690Y-111610500D01*
X158465694Y-111610500D01*
X158502569Y-111607598D01*
X158660398Y-111561744D01*
X158797355Y-111480748D01*
X158833883Y-111465281D01*
X158873200Y-111460000D01*
X159387500Y-111460000D01*
X159387500Y-110960000D01*
X159987500Y-110960000D01*
X159987500Y-111460000D01*
X160908296Y-111460000D01*
X160876281Y-111349802D01*
X160792682Y-111208443D01*
X160676556Y-111092317D01*
X160535197Y-111008718D01*
X160377490Y-110962900D01*
X160340638Y-110960000D01*
X159987500Y-110960000D01*
X159387500Y-110960000D01*
X159199500Y-110960000D01*
X159142480Y-110948658D01*
X159094141Y-110916359D01*
X159061842Y-110868020D01*
X159050500Y-110811000D01*
X159050500Y-110594310D01*
X159050500Y-110594306D01*
X159047598Y-110557431D01*
X159001744Y-110399602D01*
X158918081Y-110258135D01*
X158801865Y-110141919D01*
X158660398Y-110058256D01*
X158502569Y-110012402D01*
X158465694Y-110009500D01*
X157159306Y-110009500D01*
X157129806Y-110011821D01*
X157122430Y-110012402D01*
X156964602Y-110058256D01*
X156823134Y-110141919D01*
X156706919Y-110258134D01*
X156623256Y-110399602D01*
X156577402Y-110557430D01*
X156574500Y-110594310D01*
X156574500Y-110814622D01*
X156563158Y-110871642D01*
X156530859Y-110919981D01*
X155840646Y-111610192D01*
X155824269Y-111624345D01*
X155806472Y-111637595D01*
X155775331Y-111674706D01*
X155766569Y-111684269D01*
X155763412Y-111687426D01*
X155744392Y-111711480D01*
X155741659Y-111714835D01*
X155691616Y-111774474D01*
X155683256Y-111787598D01*
X155650340Y-111858183D01*
X155648454Y-111862079D01*
X155613504Y-111931670D01*
X155608397Y-111946364D01*
X155592641Y-112022667D01*
X155591704Y-112026893D01*
X155573749Y-112102653D01*
X155572171Y-112118099D01*
X155574437Y-112195959D01*
X155574500Y-112200294D01*
X155574500Y-113167265D01*
X155572927Y-113188860D01*
X155569710Y-113210816D01*
X155573933Y-113259075D01*
X155574500Y-113272061D01*
X155574500Y-113276502D01*
X155578055Y-113306924D01*
X155578495Y-113311230D01*
X155585283Y-113388814D01*
X155588649Y-113403997D01*
X155589758Y-113407046D01*
X155589759Y-113407047D01*
X155597870Y-113429334D01*
X155615280Y-113477167D01*
X155616702Y-113481258D01*
X155641206Y-113555205D01*
X155647982Y-113569201D01*
X155649762Y-113571908D01*
X155649763Y-113571909D01*
X155690794Y-113634295D01*
X155693078Y-113637880D01*
X155732288Y-113701448D01*
X155732290Y-113701450D01*
X155733995Y-113704214D01*
X155743810Y-113716262D01*
X155800443Y-113769693D01*
X155803552Y-113772712D01*
X156325194Y-114294354D01*
X156339350Y-114310735D01*
X156352598Y-114328530D01*
X156389703Y-114359665D01*
X156399286Y-114368446D01*
X156402431Y-114371591D01*
X156426472Y-114390600D01*
X156429834Y-114393339D01*
X156489484Y-114443392D01*
X156502584Y-114451737D01*
X156505531Y-114453111D01*
X156505532Y-114453112D01*
X156506047Y-114453352D01*
X156573197Y-114484665D01*
X156577098Y-114486554D01*
X156646689Y-114521504D01*
X156661352Y-114526601D01*
X156717117Y-114538114D01*
X156737678Y-114542360D01*
X156741864Y-114543288D01*
X156814488Y-114560501D01*
X156814490Y-114560501D01*
X156817654Y-114561251D01*
X156833100Y-114562829D01*
X156836350Y-114562734D01*
X156836353Y-114562735D01*
X156910961Y-114560563D01*
X156915295Y-114560501D01*
X157887415Y-114560501D01*
X157944435Y-114571843D01*
X157992774Y-114604142D01*
X158955551Y-115566919D01*
X158990932Y-115623357D01*
X158998185Y-115689572D01*
X158975861Y-115752330D01*
X158943204Y-115784518D01*
X158943659Y-115784973D01*
X158855359Y-115873273D01*
X158807020Y-115905572D01*
X158750000Y-115916914D01*
X158692980Y-115905572D01*
X158644641Y-115873273D01*
X158568656Y-115797288D01*
X158543795Y-115781954D01*
X158419334Y-115705186D01*
X158252797Y-115650001D01*
X158252795Y-115650000D01*
X158252793Y-115650000D01*
X158150013Y-115639500D01*
X157349995Y-115639500D01*
X157247201Y-115650001D01*
X157080666Y-115705186D01*
X156931343Y-115797288D01*
X156807288Y-115921343D01*
X156797514Y-115937190D01*
X156747602Y-116018112D01*
X156747226Y-116018721D01*
X156693025Y-116070607D01*
X156620409Y-116089500D01*
X154570011Y-116089500D01*
X154497395Y-116070607D01*
X154443194Y-116018721D01*
X154367712Y-115896344D01*
X154243656Y-115772288D01*
X154094334Y-115680186D01*
X153927797Y-115625001D01*
X153927795Y-115625000D01*
X153927793Y-115625000D01*
X153825013Y-115614500D01*
X153049995Y-115614500D01*
X152947201Y-115625001D01*
X152780666Y-115680186D01*
X152631343Y-115772288D01*
X152505005Y-115898626D01*
X152438210Y-115937190D01*
X152361082Y-115937190D01*
X152294287Y-115898626D01*
X152168344Y-115772683D01*
X152019120Y-115680641D01*
X151862500Y-115628742D01*
X151862500Y-117191000D01*
X151851158Y-117248020D01*
X151818859Y-117296359D01*
X151770520Y-117328658D01*
X151713500Y-117340000D01*
X150213283Y-117340000D01*
X150213283Y-117335054D01*
X150174376Y-117334955D01*
X150107825Y-117296457D01*
X149151368Y-116340000D01*
X150275000Y-116340000D01*
X150862500Y-116340000D01*
X150862500Y-115628743D01*
X150862499Y-115628742D01*
X150705879Y-115680641D01*
X150556655Y-115772683D01*
X150432683Y-115896655D01*
X150340641Y-116045879D01*
X150285493Y-116212305D01*
X150275000Y-116315017D01*
X150275000Y-116340000D01*
X149151368Y-116340000D01*
X146869244Y-114057876D01*
X149999500Y-114057876D01*
X150005908Y-114117481D01*
X150056112Y-114252086D01*
X150056204Y-114252331D01*
X150142454Y-114367546D01*
X150257669Y-114453796D01*
X150392517Y-114504091D01*
X150452127Y-114510500D01*
X151847872Y-114510499D01*
X151847876Y-114510499D01*
X151887612Y-114506227D01*
X151907483Y-114504091D01*
X152042331Y-114453796D01*
X152157546Y-114367546D01*
X152243796Y-114252331D01*
X152260660Y-114207115D01*
X152301093Y-114147983D01*
X152364448Y-114114553D01*
X152436082Y-114114553D01*
X152499438Y-114147981D01*
X152539871Y-114207113D01*
X152556645Y-114252086D01*
X152642811Y-114367188D01*
X152757911Y-114453352D01*
X152892626Y-114503598D01*
X152952169Y-114510000D01*
X153150000Y-114510000D01*
X153150000Y-113710000D01*
X154150000Y-113710000D01*
X154150000Y-114510000D01*
X154347831Y-114510000D01*
X154407373Y-114503598D01*
X154542088Y-114453352D01*
X154657188Y-114367188D01*
X154743352Y-114252088D01*
X154793598Y-114117373D01*
X154800000Y-114057831D01*
X154800000Y-113710000D01*
X154150000Y-113710000D01*
X153150000Y-113710000D01*
X153150000Y-111910000D01*
X154150000Y-111910000D01*
X154150000Y-112710000D01*
X154800000Y-112710000D01*
X154800000Y-112362169D01*
X154793598Y-112302626D01*
X154743352Y-112167911D01*
X154657188Y-112052811D01*
X154542088Y-111966647D01*
X154407373Y-111916401D01*
X154347831Y-111910000D01*
X154150000Y-111910000D01*
X153150000Y-111910000D01*
X152952169Y-111910000D01*
X152892626Y-111916401D01*
X152757911Y-111966647D01*
X152642811Y-112052811D01*
X152556645Y-112167913D01*
X152539871Y-112212887D01*
X152499438Y-112272019D01*
X152436082Y-112305447D01*
X152364448Y-112305447D01*
X152301093Y-112272017D01*
X152260660Y-112212884D01*
X152243796Y-112167670D01*
X152243796Y-112167669D01*
X152157546Y-112052454D01*
X152042331Y-111966204D01*
X151907483Y-111915909D01*
X151907482Y-111915908D01*
X151907480Y-111915908D01*
X151847876Y-111909500D01*
X150452123Y-111909500D01*
X150392518Y-111915908D01*
X150257670Y-111966203D01*
X150142454Y-112052454D01*
X150056204Y-112167669D01*
X150005908Y-112302519D01*
X149999500Y-112362123D01*
X149999500Y-114057876D01*
X146869244Y-114057876D01*
X137294141Y-104482773D01*
X137261842Y-104434434D01*
X137250500Y-104377414D01*
X137250500Y-98652692D01*
X137267335Y-98583892D01*
X137314037Y-98530639D01*
X137380050Y-98504967D01*
X137397698Y-98502643D01*
X137506834Y-98488275D01*
X137568834Y-98471662D01*
X137690750Y-98421163D01*
X137795442Y-98340829D01*
X137840829Y-98295442D01*
X137921163Y-98190750D01*
X137971662Y-98068834D01*
X137988275Y-98006834D01*
X138005500Y-97876000D01*
X138005500Y-95918461D01*
X138023726Y-95847053D01*
X138073944Y-95793115D01*
X138143870Y-95769841D01*
X138216396Y-95782925D01*
X138273780Y-95829168D01*
X138332452Y-95907544D01*
X138332453Y-95907544D01*
X138332454Y-95907546D01*
X138447669Y-95993796D01*
X138582517Y-96044091D01*
X138642127Y-96050500D01*
X140187872Y-96050499D01*
X140187876Y-96050499D01*
X140227612Y-96046227D01*
X140247483Y-96044091D01*
X140339170Y-96009893D01*
X140391239Y-96000500D01*
X142449473Y-96000500D01*
X142471067Y-96002072D01*
X142493023Y-96005289D01*
X142493023Y-96005288D01*
X142493024Y-96005289D01*
X142541283Y-96001067D01*
X142554269Y-96000500D01*
X142558707Y-96000500D01*
X142558709Y-96000500D01*
X142589163Y-95996939D01*
X142593410Y-95996506D01*
X142667797Y-95989999D01*
X142667800Y-95989997D01*
X142671034Y-95989715D01*
X142686191Y-95986355D01*
X142689250Y-95985241D01*
X142689255Y-95985241D01*
X142759431Y-95959698D01*
X142763481Y-95958292D01*
X142837421Y-95933791D01*
X142851401Y-95927022D01*
X142854112Y-95925238D01*
X142854117Y-95925237D01*
X142916509Y-95884200D01*
X142920091Y-95881918D01*
X142983656Y-95842712D01*
X142983658Y-95842709D01*
X142986427Y-95841002D01*
X142998457Y-95831202D01*
X143000692Y-95828832D01*
X143000696Y-95828830D01*
X143051919Y-95774535D01*
X143054870Y-95771496D01*
X143585143Y-95241223D01*
X143644456Y-95204877D01*
X143713809Y-95199418D01*
X143778080Y-95226040D01*
X143823260Y-95278939D01*
X143839500Y-95346583D01*
X143839500Y-95622876D01*
X143845908Y-95682481D01*
X143886879Y-95792331D01*
X143896204Y-95817331D01*
X143982454Y-95932546D01*
X144097669Y-96018796D01*
X144232517Y-96069091D01*
X144292127Y-96075500D01*
X145837872Y-96075499D01*
X145837876Y-96075499D01*
X145877612Y-96071226D01*
X145897483Y-96069091D01*
X146032331Y-96018796D01*
X146032331Y-96018795D01*
X146052405Y-96011309D01*
X146052538Y-96011666D01*
X146059306Y-96008126D01*
X146106364Y-96000500D01*
X148487414Y-96000500D01*
X148544434Y-96011842D01*
X148592773Y-96044141D01*
X150255859Y-97707226D01*
X150288158Y-97755565D01*
X150299500Y-97812585D01*
X150299500Y-98290004D01*
X150310001Y-98392798D01*
X150336134Y-98471660D01*
X150365186Y-98559334D01*
X150457288Y-98708656D01*
X150581344Y-98832712D01*
X150730666Y-98924814D01*
X150897203Y-98979999D01*
X150999991Y-98990500D01*
X151800008Y-98990499D01*
X151902797Y-98979999D01*
X152069334Y-98924814D01*
X152218656Y-98832712D01*
X152294641Y-98756726D01*
X152342980Y-98724428D01*
X152400000Y-98713086D01*
X152457020Y-98724428D01*
X152505358Y-98756726D01*
X152581344Y-98832712D01*
X152730666Y-98924814D01*
X152897203Y-98979999D01*
X152999991Y-98990500D01*
X153800008Y-98990499D01*
X153902797Y-98979999D01*
X154069334Y-98924814D01*
X154218656Y-98832712D01*
X154342712Y-98708656D01*
X154402774Y-98611278D01*
X154456975Y-98559393D01*
X154529591Y-98540500D01*
X161417414Y-98540500D01*
X161474434Y-98551842D01*
X161522773Y-98584141D01*
X173705859Y-110767226D01*
X173738158Y-110815565D01*
X173749500Y-110872585D01*
X173749500Y-113213200D01*
X173738158Y-113270220D01*
X173705859Y-113318559D01*
X166818559Y-120205859D01*
X166770220Y-120238158D01*
X166713200Y-120249500D01*
X154651313Y-120249500D01*
X154629718Y-120247927D01*
X154607763Y-120244711D01*
X154607762Y-120244711D01*
X154586044Y-120246611D01*
X154559504Y-120248933D01*
X154546520Y-120249500D01*
X154542075Y-120249500D01*
X154511643Y-120253056D01*
X154507339Y-120253496D01*
X154467372Y-120256993D01*
X154432989Y-120260002D01*
X154432987Y-120260002D01*
X154429758Y-120260285D01*
X154414572Y-120263651D01*
X154341384Y-120290288D01*
X154337296Y-120291709D01*
X154263383Y-120316202D01*
X154249369Y-120322986D01*
X154184321Y-120365768D01*
X154180669Y-120368094D01*
X154114377Y-120408984D01*
X154102316Y-120418810D01*
X154048884Y-120475443D01*
X154045866Y-120478550D01*
X147715646Y-126808770D01*
X147699269Y-126822923D01*
X147681472Y-126836173D01*
X147650331Y-126873284D01*
X147641569Y-126882847D01*
X147638412Y-126886004D01*
X147619392Y-126910058D01*
X147616659Y-126913413D01*
X147566616Y-126973052D01*
X147558256Y-126986176D01*
X147525340Y-127056761D01*
X147523454Y-127060657D01*
X147488504Y-127130248D01*
X147483397Y-127144942D01*
X147467641Y-127221245D01*
X147466704Y-127225471D01*
X147448749Y-127301231D01*
X147447171Y-127316677D01*
X147449437Y-127394537D01*
X147449500Y-127398872D01*
X147449500Y-133584473D01*
X147447927Y-133606068D01*
X147444710Y-133628024D01*
X147448933Y-133676283D01*
X147449500Y-133689269D01*
X147449500Y-133693710D01*
X147453055Y-133724132D01*
X147453495Y-133728438D01*
X147460283Y-133806022D01*
X147463649Y-133821205D01*
X147490280Y-133894375D01*
X147491702Y-133898466D01*
X147516206Y-133972413D01*
X147522982Y-133986409D01*
X147524762Y-133989116D01*
X147524763Y-133989117D01*
X147565794Y-134051503D01*
X147568078Y-134055088D01*
X147607288Y-134118656D01*
X147607289Y-134118657D01*
X147608994Y-134121421D01*
X147618806Y-134133465D01*
X147621168Y-134135694D01*
X147621170Y-134135696D01*
X147675444Y-134186901D01*
X147678552Y-134189920D01*
X148441917Y-134953284D01*
X148478011Y-135011824D01*
X148483970Y-135080337D01*
X148449500Y-135314560D01*
X148449500Y-136117637D01*
X148464322Y-136320155D01*
X148523220Y-136584555D01*
X148619983Y-136837554D01*
X148687630Y-136958086D01*
X148752559Y-137073777D01*
X148918112Y-137288177D01*
X149113119Y-137476186D01*
X149183667Y-137526659D01*
X149333420Y-137633799D01*
X149574325Y-137757656D01*
X149830691Y-137845117D01*
X149830693Y-137845117D01*
X149830695Y-137845118D01*
X150097067Y-137894319D01*
X150367765Y-137904212D01*
X150637018Y-137874586D01*
X150899088Y-137806072D01*
X151148390Y-137700130D01*
X151379610Y-137559018D01*
X151587820Y-137385745D01*
X151768582Y-137184002D01*
X151918044Y-136958090D01*
X152033020Y-136712824D01*
X152111060Y-136453431D01*
X152140999Y-136250000D01*
X152659690Y-136250000D01*
X152664819Y-136320085D01*
X152723701Y-136584411D01*
X152820440Y-136837344D01*
X152952977Y-137073500D01*
X153118482Y-137287838D01*
X153313442Y-137475801D01*
X153533684Y-137633372D01*
X153774521Y-137757194D01*
X153999999Y-137834117D01*
X154000000Y-137834117D01*
X154000000Y-136250000D01*
X152659690Y-136250000D01*
X152140999Y-136250000D01*
X152150500Y-136185439D01*
X152150500Y-135382369D01*
X152144232Y-135296735D01*
X152140811Y-135249999D01*
X152659506Y-135249999D01*
X152659507Y-135250000D01*
X154000000Y-135250000D01*
X154000000Y-133668541D01*
X153999999Y-133668540D01*
X153901073Y-133694402D01*
X153651839Y-133800316D01*
X153420684Y-133941387D01*
X153212524Y-134114618D01*
X153031816Y-134316302D01*
X152882394Y-134542154D01*
X152767449Y-134787352D01*
X152689429Y-135046682D01*
X152659506Y-135249999D01*
X152140811Y-135249999D01*
X152135677Y-135179844D01*
X152098249Y-135011824D01*
X152076780Y-134915447D01*
X152027788Y-134787352D01*
X151980016Y-134662445D01*
X151892748Y-134506951D01*
X151847441Y-134426223D01*
X151681888Y-134211823D01*
X151486881Y-134023814D01*
X151410732Y-133969334D01*
X151266579Y-133866200D01*
X151025674Y-133742343D01*
X150769308Y-133654882D01*
X150502933Y-133605681D01*
X150478197Y-133604777D01*
X150232234Y-133595788D01*
X150232231Y-133595788D01*
X149962982Y-133625414D01*
X149700915Y-133693926D01*
X149515815Y-133772586D01*
X149458447Y-133784451D01*
X149400939Y-133773285D01*
X149352181Y-133740813D01*
X148994141Y-133382773D01*
X148961842Y-133334434D01*
X148950500Y-133277414D01*
X148950500Y-132545117D01*
X148963338Y-132484612D01*
X148999639Y-132434533D01*
X149053148Y-132403510D01*
X149114644Y-132396889D01*
X149149989Y-132400500D01*
X149149992Y-132400500D01*
X151450008Y-132400500D01*
X151450013Y-132400500D01*
X151507112Y-132394666D01*
X151552797Y-132389999D01*
X151719334Y-132334814D01*
X151868655Y-132242711D01*
X151992711Y-132118655D01*
X152084814Y-131969334D01*
X152139999Y-131802797D01*
X152144666Y-131757112D01*
X152150500Y-131700013D01*
X152150500Y-128799987D01*
X152141493Y-128711827D01*
X152139999Y-128697203D01*
X152084814Y-128530666D01*
X151992711Y-128381345D01*
X151868655Y-128257289D01*
X151719334Y-128165186D01*
X151552797Y-128110001D01*
X151552795Y-128110000D01*
X151552793Y-128110000D01*
X151450013Y-128099500D01*
X151450008Y-128099500D01*
X151199500Y-128099500D01*
X151142480Y-128088158D01*
X151094141Y-128055859D01*
X151061842Y-128007520D01*
X151050500Y-127950500D01*
X151050500Y-127072586D01*
X151061842Y-127015566D01*
X151094141Y-126967227D01*
X155267227Y-122794141D01*
X155315566Y-122761842D01*
X155372586Y-122750500D01*
X157792628Y-122750500D01*
X157860273Y-122766740D01*
X157913172Y-122811920D01*
X157939794Y-122876191D01*
X157934335Y-122945544D01*
X157897987Y-123004859D01*
X154015646Y-126887198D01*
X153999269Y-126901351D01*
X153981472Y-126914601D01*
X153950331Y-126951712D01*
X153941569Y-126961275D01*
X153938412Y-126964432D01*
X153919392Y-126988486D01*
X153916659Y-126991841D01*
X153866616Y-127051480D01*
X153858256Y-127064604D01*
X153825340Y-127135189D01*
X153823454Y-127139085D01*
X153788504Y-127208676D01*
X153783397Y-127223370D01*
X153767641Y-127299673D01*
X153766704Y-127303899D01*
X153748749Y-127379659D01*
X153747171Y-127395105D01*
X153749437Y-127472965D01*
X153749500Y-127477300D01*
X153749500Y-128159694D01*
X153738331Y-128216295D01*
X153706498Y-128264410D01*
X153658775Y-128296824D01*
X153651610Y-128299870D01*
X153651608Y-128299870D01*
X153651606Y-128299872D01*
X153420393Y-128440979D01*
X153212180Y-128614254D01*
X153050217Y-128795016D01*
X153031418Y-128815998D01*
X152958494Y-128926223D01*
X152881954Y-129041913D01*
X152766980Y-129287173D01*
X152688939Y-129546573D01*
X152649500Y-129814561D01*
X152649500Y-130617637D01*
X152664322Y-130820155D01*
X152723220Y-131084555D01*
X152819983Y-131337554D01*
X152952561Y-131573780D01*
X153118108Y-131788172D01*
X153118112Y-131788177D01*
X153313119Y-131976186D01*
X153395927Y-132035430D01*
X153533420Y-132133799D01*
X153774325Y-132257656D01*
X154030691Y-132345117D01*
X154030693Y-132345117D01*
X154030695Y-132345118D01*
X154297067Y-132394319D01*
X154567765Y-132404212D01*
X154837018Y-132374586D01*
X155099088Y-132306072D01*
X155348390Y-132200130D01*
X155579610Y-132059018D01*
X155787820Y-131885745D01*
X155968582Y-131684002D01*
X156118044Y-131458090D01*
X156233020Y-131212824D01*
X156311060Y-130953431D01*
X156350500Y-130685439D01*
X156350500Y-130617637D01*
X156849500Y-130617637D01*
X156864322Y-130820155D01*
X156923220Y-131084555D01*
X157019983Y-131337554D01*
X157152561Y-131573780D01*
X157318108Y-131788172D01*
X157318112Y-131788177D01*
X157513119Y-131976186D01*
X157595927Y-132035430D01*
X157733420Y-132133799D01*
X157974325Y-132257656D01*
X158230691Y-132345117D01*
X158230693Y-132345117D01*
X158230695Y-132345118D01*
X158497067Y-132394319D01*
X158767765Y-132404212D01*
X159037018Y-132374586D01*
X159299088Y-132306072D01*
X159548390Y-132200130D01*
X159779610Y-132059018D01*
X159987820Y-131885745D01*
X160168582Y-131684002D01*
X160318044Y-131458090D01*
X160433020Y-131212824D01*
X160511060Y-130953431D01*
X160550500Y-130685439D01*
X160550500Y-129882369D01*
X160535677Y-129679844D01*
X160476780Y-129415447D01*
X160427721Y-129287176D01*
X160380016Y-129162445D01*
X160316689Y-129049609D01*
X160247441Y-128926223D01*
X160238939Y-128915213D01*
X160081891Y-128711827D01*
X160081888Y-128711823D01*
X159886881Y-128523814D01*
X159858758Y-128503693D01*
X159666579Y-128366200D01*
X159425674Y-128242343D01*
X159169308Y-128154882D01*
X158902933Y-128105681D01*
X158632234Y-128095788D01*
X158632231Y-128095788D01*
X158362982Y-128125414D01*
X158100909Y-128193928D01*
X157851610Y-128299869D01*
X157620393Y-128440979D01*
X157412180Y-128614254D01*
X157250217Y-128795016D01*
X157231418Y-128815998D01*
X157158494Y-128926223D01*
X157081954Y-129041913D01*
X156966980Y-129287173D01*
X156888939Y-129546573D01*
X156849500Y-129814561D01*
X156849500Y-130617637D01*
X156350500Y-130617637D01*
X156350500Y-129882369D01*
X156335677Y-129679844D01*
X156276780Y-129415447D01*
X156227721Y-129287176D01*
X156180016Y-129162445D01*
X156116689Y-129049609D01*
X156047441Y-128926223D01*
X156038939Y-128915213D01*
X155881891Y-128711827D01*
X155881888Y-128711823D01*
X155686881Y-128523814D01*
X155658758Y-128503693D01*
X155466579Y-128366200D01*
X155331371Y-128296685D01*
X155288529Y-128263603D01*
X155260332Y-128217400D01*
X155250500Y-128164173D01*
X155250500Y-127836800D01*
X155261842Y-127779780D01*
X155294141Y-127731441D01*
X159231441Y-123794141D01*
X159279780Y-123761842D01*
X159336800Y-123750500D01*
X167848687Y-123750500D01*
X167870281Y-123752072D01*
X167892237Y-123755289D01*
X167892237Y-123755288D01*
X167892238Y-123755289D01*
X167940497Y-123751067D01*
X167953483Y-123750500D01*
X167957921Y-123750500D01*
X167957923Y-123750500D01*
X167988377Y-123746939D01*
X167992624Y-123746506D01*
X168067011Y-123739999D01*
X168067014Y-123739997D01*
X168070248Y-123739715D01*
X168085405Y-123736355D01*
X168088464Y-123735241D01*
X168088469Y-123735241D01*
X168158645Y-123709698D01*
X168162695Y-123708292D01*
X168236635Y-123683791D01*
X168250615Y-123677022D01*
X168253326Y-123675238D01*
X168253331Y-123675237D01*
X168315723Y-123634200D01*
X168319305Y-123631918D01*
X168382870Y-123592712D01*
X168382872Y-123592709D01*
X168385641Y-123591002D01*
X168397668Y-123581205D01*
X168399906Y-123578832D01*
X168399910Y-123578830D01*
X168451147Y-123524520D01*
X168454101Y-123521479D01*
X176984359Y-114991221D01*
X177000734Y-114977071D01*
X177018530Y-114963824D01*
X177024180Y-114957091D01*
X177049660Y-114926724D01*
X177058447Y-114917134D01*
X177061591Y-114913991D01*
X177080592Y-114889959D01*
X177083333Y-114886594D01*
X177089236Y-114879559D01*
X177131302Y-114829428D01*
X177131304Y-114829422D01*
X177133393Y-114826934D01*
X177141733Y-114813844D01*
X177143108Y-114810894D01*
X177143111Y-114810891D01*
X177174678Y-114743192D01*
X177176547Y-114739335D01*
X177211503Y-114669733D01*
X177216598Y-114655074D01*
X177217255Y-114651890D01*
X177217257Y-114651887D01*
X177232365Y-114578713D01*
X177233273Y-114574616D01*
X177250500Y-114501935D01*
X177250500Y-114501929D01*
X177251250Y-114498765D01*
X177252828Y-114483322D01*
X177252733Y-114480072D01*
X177252734Y-114480070D01*
X177250562Y-114405461D01*
X177250500Y-114401128D01*
X177250500Y-112699999D01*
X184165882Y-112699999D01*
X184165883Y-112700000D01*
X185750000Y-112700000D01*
X185750000Y-111359690D01*
X185679914Y-111364819D01*
X185415588Y-111423701D01*
X185162655Y-111520440D01*
X184926499Y-111652977D01*
X184712161Y-111818482D01*
X184524198Y-112013442D01*
X184366627Y-112233684D01*
X184242805Y-112474521D01*
X184165882Y-112699999D01*
X177250500Y-112699999D01*
X177250500Y-105300000D01*
X184168540Y-105300000D01*
X184194402Y-105398926D01*
X184300316Y-105648160D01*
X184441387Y-105879315D01*
X184614618Y-106087475D01*
X184816302Y-106268183D01*
X185042154Y-106417605D01*
X185287352Y-106532550D01*
X185546682Y-106610570D01*
X185749999Y-106640493D01*
X185750000Y-106640493D01*
X185750000Y-105300000D01*
X184168540Y-105300000D01*
X177250500Y-105300000D01*
X177250500Y-104299999D01*
X184165882Y-104299999D01*
X184165883Y-104300000D01*
X185750000Y-104300000D01*
X185750000Y-102959690D01*
X185679914Y-102964819D01*
X185415588Y-103023701D01*
X185162655Y-103120440D01*
X184926499Y-103252977D01*
X184712161Y-103418482D01*
X184524198Y-103613442D01*
X184366627Y-103833684D01*
X184242805Y-104074521D01*
X184165882Y-104299999D01*
X177250500Y-104299999D01*
X177250500Y-96900000D01*
X184168540Y-96900000D01*
X184194402Y-96998926D01*
X184300316Y-97248160D01*
X184441387Y-97479315D01*
X184614618Y-97687475D01*
X184816302Y-97868183D01*
X185042154Y-98017605D01*
X185287352Y-98132550D01*
X185546682Y-98210570D01*
X185749999Y-98240493D01*
X185750000Y-98240493D01*
X185750000Y-96900000D01*
X184168540Y-96900000D01*
X177250500Y-96900000D01*
X177250500Y-95899999D01*
X184165882Y-95899999D01*
X184165883Y-95900000D01*
X185750000Y-95900000D01*
X185750000Y-94559690D01*
X185679914Y-94564819D01*
X185415588Y-94623701D01*
X185162655Y-94720440D01*
X184926499Y-94852977D01*
X184712161Y-95018482D01*
X184524198Y-95213442D01*
X184366627Y-95433684D01*
X184242805Y-95674521D01*
X184165882Y-95899999D01*
X177250500Y-95899999D01*
X177250500Y-75879181D01*
X177252073Y-75857586D01*
X177255289Y-75835629D01*
X177251067Y-75787371D01*
X177250500Y-75774385D01*
X177250500Y-75769946D01*
X177250500Y-75769945D01*
X177246941Y-75739504D01*
X177246504Y-75735221D01*
X177239999Y-75660857D01*
X177239997Y-75660853D01*
X177239715Y-75657620D01*
X177236355Y-75642460D01*
X177235241Y-75639399D01*
X177209707Y-75569245D01*
X177208299Y-75565193D01*
X177195683Y-75527121D01*
X177184814Y-75494320D01*
X177184813Y-75494319D01*
X177183793Y-75491239D01*
X177177020Y-75477249D01*
X177175237Y-75474539D01*
X177175237Y-75474537D01*
X177134190Y-75412128D01*
X177131906Y-75408542D01*
X177092712Y-75344998D01*
X177092711Y-75344997D01*
X177091007Y-75342234D01*
X177081197Y-75330190D01*
X177024556Y-75276752D01*
X177021447Y-75273733D01*
X175260000Y-73512286D01*
X175260000Y-72390000D01*
X174137714Y-72390000D01*
X167303360Y-65555646D01*
X167289205Y-65539267D01*
X167275956Y-65521470D01*
X167238851Y-65490335D01*
X167229268Y-65481554D01*
X167226123Y-65478409D01*
X167202088Y-65459405D01*
X167198726Y-65456666D01*
X167139073Y-65406611D01*
X167125966Y-65398261D01*
X167059167Y-65367112D01*
X167055354Y-65365334D01*
X167051486Y-65363461D01*
X166984779Y-65329960D01*
X166984777Y-65329959D01*
X166981873Y-65328501D01*
X166967194Y-65323398D01*
X166890893Y-65307642D01*
X166886665Y-65306705D01*
X166810900Y-65288749D01*
X166795454Y-65287171D01*
X166723050Y-65289278D01*
X166717593Y-65289437D01*
X166713260Y-65289500D01*
X163107459Y-65289500D01*
X163061416Y-65282208D01*
X163019885Y-65261047D01*
X163012730Y-65255849D01*
X162843271Y-65180400D01*
X162839801Y-65178855D01*
X162704624Y-65150123D01*
X162654646Y-65139500D01*
X162465354Y-65139500D01*
X162372775Y-65159177D01*
X162280196Y-65178856D01*
X162107271Y-65255848D01*
X161954127Y-65367113D01*
X161827467Y-65507783D01*
X161732820Y-65671717D01*
X161674326Y-65851742D01*
X161654539Y-66040000D01*
X161674326Y-66228257D01*
X161695222Y-66292569D01*
X161732821Y-66408284D01*
X161757137Y-66450400D01*
X161827467Y-66572216D01*
X161891018Y-66642797D01*
X161954129Y-66712888D01*
X162107270Y-66824151D01*
X162280197Y-66901144D01*
X162465354Y-66940500D01*
X162654645Y-66940500D01*
X162654646Y-66940500D01*
X162839803Y-66901144D01*
X163012730Y-66824151D01*
X163019885Y-66818952D01*
X163061416Y-66797792D01*
X163107459Y-66790500D01*
X166353760Y-66790500D01*
X166410780Y-66801842D01*
X166459119Y-66834141D01*
X172014978Y-72390000D01*
X165100000Y-72390000D01*
X165100000Y-85298632D01*
X163354141Y-83552773D01*
X163321842Y-83504434D01*
X163310500Y-83447414D01*
X163310500Y-78011021D01*
X163330462Y-77936521D01*
X163346029Y-77909558D01*
X163387179Y-77838284D01*
X163445674Y-77658256D01*
X163465460Y-77470000D01*
X163445674Y-77281744D01*
X163387179Y-77101716D01*
X163292533Y-76937784D01*
X163180742Y-76813628D01*
X163165872Y-76797113D01*
X163144406Y-76781517D01*
X163012730Y-76685849D01*
X162971129Y-76667327D01*
X162839803Y-76608856D01*
X162818905Y-76604414D01*
X162654646Y-76569500D01*
X162465354Y-76569500D01*
X162372775Y-76589177D01*
X162280196Y-76608856D01*
X162107271Y-76685848D01*
X161954127Y-76797113D01*
X161827467Y-76937783D01*
X161732820Y-77101717D01*
X161674326Y-77281742D01*
X161654539Y-77469999D01*
X161674326Y-77658257D01*
X161732820Y-77838282D01*
X161789538Y-77936521D01*
X161809500Y-78011021D01*
X161809500Y-83754473D01*
X161807927Y-83776068D01*
X161804710Y-83798024D01*
X161808933Y-83846283D01*
X161809500Y-83859269D01*
X161809500Y-83863710D01*
X161813055Y-83894132D01*
X161813495Y-83898438D01*
X161820283Y-83976022D01*
X161823649Y-83991205D01*
X161824758Y-83994254D01*
X161824759Y-83994255D01*
X161827917Y-84002933D01*
X161850280Y-84064375D01*
X161851702Y-84068466D01*
X161876206Y-84142413D01*
X161882982Y-84156409D01*
X161884762Y-84159116D01*
X161884763Y-84159117D01*
X161925794Y-84221503D01*
X161928078Y-84225088D01*
X161967288Y-84288656D01*
X161967289Y-84288657D01*
X161968994Y-84291421D01*
X161978806Y-84303465D01*
X161981168Y-84305694D01*
X161981170Y-84305696D01*
X162012896Y-84335628D01*
X162035444Y-84356901D01*
X162038552Y-84359920D01*
X163599795Y-85921163D01*
X164973774Y-87295141D01*
X165010122Y-87354456D01*
X165015581Y-87423809D01*
X164988959Y-87488080D01*
X164936060Y-87533260D01*
X164868415Y-87549500D01*
X164592535Y-87549500D01*
X164535515Y-87538158D01*
X164487176Y-87505859D01*
X161703765Y-84722448D01*
X161678715Y-84689162D01*
X161663860Y-84650247D01*
X161649508Y-84587363D01*
X161649507Y-84587362D01*
X161649507Y-84587359D01*
X161556394Y-84350113D01*
X161428958Y-84129387D01*
X161270051Y-83930124D01*
X161235901Y-83898438D01*
X161083217Y-83756768D01*
X160872634Y-83613195D01*
X160854853Y-83604632D01*
X160810276Y-83571734D01*
X160780800Y-83524823D01*
X160770500Y-83470387D01*
X160770500Y-75352735D01*
X160772073Y-75331140D01*
X160775289Y-75309183D01*
X160771067Y-75260925D01*
X160770500Y-75247939D01*
X160770500Y-75243500D01*
X160769784Y-75237372D01*
X160766941Y-75213058D01*
X160766504Y-75208775D01*
X160759999Y-75134411D01*
X160759997Y-75134407D01*
X160759715Y-75131174D01*
X160756355Y-75116014D01*
X160752677Y-75105908D01*
X160729707Y-75042799D01*
X160728299Y-75038747D01*
X160718165Y-75008166D01*
X160704814Y-74967874D01*
X160704812Y-74967871D01*
X160703789Y-74964783D01*
X160697023Y-74950807D01*
X160695237Y-74948091D01*
X160654202Y-74885702D01*
X160651902Y-74882091D01*
X160630397Y-74847226D01*
X160612712Y-74818553D01*
X160612711Y-74818552D01*
X160611004Y-74815784D01*
X160601195Y-74803742D01*
X160544538Y-74750289D01*
X160541429Y-74747270D01*
X157789806Y-71995646D01*
X157775651Y-71979267D01*
X157762402Y-71961470D01*
X157725297Y-71930335D01*
X157715714Y-71921554D01*
X157712569Y-71918409D01*
X157712568Y-71918408D01*
X157688523Y-71899396D01*
X157685172Y-71896666D01*
X157625519Y-71846611D01*
X157612412Y-71838261D01*
X157572642Y-71819716D01*
X157541800Y-71805334D01*
X157537932Y-71803461D01*
X157471225Y-71769960D01*
X157471223Y-71769959D01*
X157468319Y-71768501D01*
X157453640Y-71763398D01*
X157377339Y-71747642D01*
X157373111Y-71746705D01*
X157297346Y-71728749D01*
X157281900Y-71727171D01*
X157209496Y-71729278D01*
X157204039Y-71729437D01*
X157199706Y-71729500D01*
X142541313Y-71729500D01*
X142519718Y-71727927D01*
X142497761Y-71724710D01*
X142449503Y-71728933D01*
X142436517Y-71729500D01*
X142432072Y-71729500D01*
X142401654Y-71733054D01*
X142397351Y-71733494D01*
X142319766Y-71740282D01*
X142304575Y-71743650D01*
X142231377Y-71770291D01*
X142227289Y-71771712D01*
X142153377Y-71796205D01*
X142139368Y-71802986D01*
X142074307Y-71845778D01*
X142070654Y-71848106D01*
X142004371Y-71888990D01*
X141992310Y-71898815D01*
X141938867Y-71955461D01*
X141935849Y-71958568D01*
X140208557Y-73685859D01*
X140160218Y-73718158D01*
X140103199Y-73729500D01*
X139839995Y-73729500D01*
X139737201Y-73740001D01*
X139595089Y-73787093D01*
X139570666Y-73795186D01*
X139477719Y-73852515D01*
X139418518Y-73873479D01*
X139355936Y-73868187D01*
X139301094Y-73837579D01*
X139263737Y-73787093D01*
X139250500Y-73725698D01*
X139250500Y-67244302D01*
X139263737Y-67182907D01*
X139301094Y-67132421D01*
X139355936Y-67101813D01*
X139418518Y-67096521D01*
X139477719Y-67117484D01*
X139570666Y-67174814D01*
X139737203Y-67229999D01*
X139839991Y-67240500D01*
X140103198Y-67240499D01*
X140160219Y-67251841D01*
X140208558Y-67284140D01*
X141868768Y-68944349D01*
X141882924Y-68960730D01*
X141896176Y-68978530D01*
X141903377Y-68984572D01*
X141933286Y-69009669D01*
X141942868Y-69018449D01*
X141946009Y-69021590D01*
X141970044Y-69040593D01*
X141973328Y-69043268D01*
X142030572Y-69091302D01*
X142033070Y-69093398D01*
X142046153Y-69101732D01*
X142083715Y-69119247D01*
X142116765Y-69134658D01*
X142120575Y-69136502D01*
X142187353Y-69170040D01*
X142187354Y-69170040D01*
X142190263Y-69171501D01*
X142204929Y-69176599D01*
X142239285Y-69183692D01*
X142281237Y-69192354D01*
X142285364Y-69193269D01*
X142358065Y-69210500D01*
X142358066Y-69210500D01*
X142361226Y-69211249D01*
X142376675Y-69212827D01*
X142379927Y-69212732D01*
X142379930Y-69212733D01*
X142454518Y-69210563D01*
X142458851Y-69210500D01*
X154994473Y-69210500D01*
X155016067Y-69212072D01*
X155038023Y-69215289D01*
X155038023Y-69215288D01*
X155038024Y-69215289D01*
X155086283Y-69211067D01*
X155099269Y-69210500D01*
X155103707Y-69210500D01*
X155103709Y-69210500D01*
X155134163Y-69206939D01*
X155138410Y-69206506D01*
X155212797Y-69199999D01*
X155212800Y-69199997D01*
X155216034Y-69199715D01*
X155231191Y-69196355D01*
X155234250Y-69195241D01*
X155234255Y-69195241D01*
X155304431Y-69169698D01*
X155308481Y-69168292D01*
X155382421Y-69143791D01*
X155396401Y-69137022D01*
X155399112Y-69135238D01*
X155399117Y-69135237D01*
X155461509Y-69094200D01*
X155465091Y-69091918D01*
X155528656Y-69052712D01*
X155528658Y-69052709D01*
X155531427Y-69051002D01*
X155543457Y-69041202D01*
X155545692Y-69038832D01*
X155545696Y-69038830D01*
X155596918Y-68984536D01*
X155599871Y-68981495D01*
X156430938Y-68150427D01*
X156484724Y-68115997D01*
X156547987Y-68107247D01*
X156552425Y-68107596D01*
X156552431Y-68107598D01*
X156589306Y-68110500D01*
X158370690Y-68110500D01*
X158370694Y-68110500D01*
X158407569Y-68107598D01*
X158565398Y-68061744D01*
X158706865Y-67978081D01*
X158823081Y-67861865D01*
X158906744Y-67720398D01*
X158952598Y-67562569D01*
X158955500Y-67525694D01*
X158955500Y-67094306D01*
X158952598Y-67057431D01*
X158906744Y-66899602D01*
X158823081Y-66758135D01*
X158823080Y-66758134D01*
X158818770Y-66750846D01*
X158800376Y-66701384D01*
X158800376Y-66648613D01*
X158818771Y-66599152D01*
X158823079Y-66591866D01*
X158823081Y-66591865D01*
X158906744Y-66450398D01*
X158952598Y-66292569D01*
X158955500Y-66255694D01*
X158955500Y-65824306D01*
X158952598Y-65787431D01*
X158906744Y-65629602D01*
X158823081Y-65488135D01*
X158823080Y-65488134D01*
X158818770Y-65480846D01*
X158800376Y-65431384D01*
X158800376Y-65378613D01*
X158818771Y-65329152D01*
X158823079Y-65321866D01*
X158823081Y-65321865D01*
X158906744Y-65180398D01*
X158952598Y-65022569D01*
X158955500Y-64985694D01*
X158955500Y-64554306D01*
X158952598Y-64517431D01*
X158906744Y-64359602D01*
X158823081Y-64218135D01*
X158823080Y-64218134D01*
X158818770Y-64210846D01*
X158800376Y-64161384D01*
X158800376Y-64108613D01*
X158818771Y-64059152D01*
X158823079Y-64051866D01*
X158823081Y-64051865D01*
X158906744Y-63910398D01*
X158952598Y-63752569D01*
X158955500Y-63715694D01*
X158955500Y-63284306D01*
X158952598Y-63247431D01*
X158906744Y-63089602D01*
X158823081Y-62948135D01*
X158706865Y-62831919D01*
X158565398Y-62748256D01*
X158407569Y-62702402D01*
X158370694Y-62699500D01*
X158370693Y-62699500D01*
X158367809Y-62699273D01*
X158298349Y-62675694D01*
X158248556Y-62621829D01*
X158230500Y-62550732D01*
X158230500Y-61654500D01*
X158241842Y-61597480D01*
X158274141Y-61549141D01*
X158322480Y-61516842D01*
X158379500Y-61505500D01*
X165228898Y-61505500D01*
X165285918Y-61516842D01*
X165334257Y-61549141D01*
X178450858Y-74665742D01*
X178483157Y-74714081D01*
X178494499Y-74771101D01*
X178494499Y-85376001D01*
X178500035Y-85418044D01*
X178511725Y-85506834D01*
X178518742Y-85533020D01*
X178528339Y-85568836D01*
X178578836Y-85690749D01*
X178578837Y-85690750D01*
X178659171Y-85795442D01*
X178704558Y-85840829D01*
X178809250Y-85921163D01*
X178931166Y-85971662D01*
X178993166Y-85988275D01*
X179111651Y-86003874D01*
X179123999Y-86005500D01*
X185178024Y-86005500D01*
X185244535Y-86021168D01*
X185297057Y-86064878D01*
X185324545Y-86127436D01*
X185321219Y-86195686D01*
X185287776Y-86255274D01*
X185231251Y-86293668D01*
X185162445Y-86319983D01*
X184926219Y-86452561D01*
X184711827Y-86618108D01*
X184523812Y-86813121D01*
X184366200Y-87033420D01*
X184242343Y-87274325D01*
X184154882Y-87530691D01*
X184105681Y-87797066D01*
X184095788Y-88067768D01*
X184125414Y-88337017D01*
X184193928Y-88599090D01*
X184299869Y-88848389D01*
X184440979Y-89079606D01*
X184440981Y-89079608D01*
X184440982Y-89079610D01*
X184614255Y-89287820D01*
X184815998Y-89468582D01*
X185041910Y-89618044D01*
X185164542Y-89675531D01*
X185287173Y-89733019D01*
X185287175Y-89733019D01*
X185287176Y-89733020D01*
X185546569Y-89811060D01*
X185814561Y-89850500D01*
X186617631Y-89850500D01*
X186617637Y-89850500D01*
X186791223Y-89837794D01*
X186820156Y-89835677D01*
X187084553Y-89776780D01*
X187198971Y-89733019D01*
X187337554Y-89680016D01*
X187337558Y-89680014D01*
X187573777Y-89547441D01*
X187659436Y-89481297D01*
X187719167Y-89453563D01*
X187785019Y-89454285D01*
X187844128Y-89483322D01*
X187884946Y-89535003D01*
X187899500Y-89599231D01*
X187899500Y-90596756D01*
X187885870Y-90659013D01*
X187847474Y-90709880D01*
X187791337Y-90740051D01*
X187727729Y-90744006D01*
X187668288Y-90721021D01*
X187458090Y-90581956D01*
X187369385Y-90540372D01*
X187212826Y-90466980D01*
X187067372Y-90423220D01*
X186953431Y-90388940D01*
X186953427Y-90388939D01*
X186953426Y-90388939D01*
X186685439Y-90349500D01*
X185882369Y-90349500D01*
X185882363Y-90349500D01*
X185679844Y-90364322D01*
X185415444Y-90423220D01*
X185162445Y-90519983D01*
X184926219Y-90652561D01*
X184711827Y-90818108D01*
X184711823Y-90818111D01*
X184711823Y-90818112D01*
X184646375Y-90885996D01*
X184523812Y-91013121D01*
X184366200Y-91233420D01*
X184242343Y-91474325D01*
X184154882Y-91730691D01*
X184105681Y-91997066D01*
X184095788Y-92267768D01*
X184125414Y-92537017D01*
X184193928Y-92799090D01*
X184299869Y-93048389D01*
X184440979Y-93279606D01*
X184440981Y-93279608D01*
X184440982Y-93279610D01*
X184526929Y-93382886D01*
X184570905Y-93435730D01*
X184614255Y-93487820D01*
X184815998Y-93668582D01*
X185041910Y-93818044D01*
X185136351Y-93862316D01*
X185287173Y-93933019D01*
X185287175Y-93933019D01*
X185287176Y-93933020D01*
X185546569Y-94011060D01*
X185814561Y-94050500D01*
X186617631Y-94050500D01*
X186617637Y-94050500D01*
X186791223Y-94037794D01*
X186820156Y-94035677D01*
X187084553Y-93976780D01*
X187198971Y-93933019D01*
X187337554Y-93880016D01*
X187374247Y-93859423D01*
X187573777Y-93747441D01*
X187659436Y-93681297D01*
X187719167Y-93653563D01*
X187785019Y-93654285D01*
X187844128Y-93683322D01*
X187884946Y-93735003D01*
X187899500Y-93799231D01*
X187899500Y-94797355D01*
X187885870Y-94859612D01*
X187847475Y-94910479D01*
X187791337Y-94940649D01*
X187727729Y-94944605D01*
X187668287Y-94921621D01*
X187457845Y-94782394D01*
X187212647Y-94667449D01*
X186953317Y-94589429D01*
X186750000Y-94559506D01*
X186750000Y-98240310D01*
X186820085Y-98235180D01*
X187084411Y-98176298D01*
X187337344Y-98079559D01*
X187573496Y-97947025D01*
X187659435Y-97880666D01*
X187719167Y-97852931D01*
X187785019Y-97853653D01*
X187844128Y-97882690D01*
X187884946Y-97934371D01*
X187899500Y-97998599D01*
X187899500Y-98996756D01*
X187885870Y-99059013D01*
X187847474Y-99109880D01*
X187791337Y-99140051D01*
X187727729Y-99144006D01*
X187668288Y-99121021D01*
X187458090Y-98981956D01*
X187369385Y-98940372D01*
X187212826Y-98866980D01*
X187067372Y-98823220D01*
X186953431Y-98788940D01*
X186953427Y-98788939D01*
X186953426Y-98788939D01*
X186685439Y-98749500D01*
X185882369Y-98749500D01*
X185882363Y-98749500D01*
X185679844Y-98764322D01*
X185415444Y-98823220D01*
X185162445Y-98919983D01*
X184926219Y-99052561D01*
X184711827Y-99218108D01*
X184523812Y-99413121D01*
X184366200Y-99633420D01*
X184242343Y-99874325D01*
X184154882Y-100130691D01*
X184105681Y-100397066D01*
X184095788Y-100667768D01*
X184125414Y-100937017D01*
X184193928Y-101199090D01*
X184299869Y-101448389D01*
X184440979Y-101679606D01*
X184440981Y-101679608D01*
X184440982Y-101679610D01*
X184614255Y-101887820D01*
X184815998Y-102068582D01*
X185041910Y-102218044D01*
X185164543Y-102275532D01*
X185287173Y-102333019D01*
X185287175Y-102333019D01*
X185287176Y-102333020D01*
X185546569Y-102411060D01*
X185814561Y-102450500D01*
X186617631Y-102450500D01*
X186617637Y-102450500D01*
X186791223Y-102437794D01*
X186820156Y-102435677D01*
X187084553Y-102376780D01*
X187237887Y-102318135D01*
X187337554Y-102280016D01*
X187337558Y-102280014D01*
X187573777Y-102147441D01*
X187659436Y-102081297D01*
X187719167Y-102053563D01*
X187785019Y-102054285D01*
X187844128Y-102083322D01*
X187884946Y-102135003D01*
X187899500Y-102199231D01*
X187899500Y-103197355D01*
X187885870Y-103259612D01*
X187847475Y-103310479D01*
X187791337Y-103340649D01*
X187727729Y-103344605D01*
X187668287Y-103321621D01*
X187457845Y-103182394D01*
X187212647Y-103067449D01*
X186953317Y-102989429D01*
X186750000Y-102959506D01*
X186750000Y-106640310D01*
X186820085Y-106635180D01*
X187084411Y-106576298D01*
X187337344Y-106479559D01*
X187573496Y-106347025D01*
X187659435Y-106280666D01*
X187719167Y-106252931D01*
X187785019Y-106253653D01*
X187844128Y-106282690D01*
X187884946Y-106334371D01*
X187899500Y-106398599D01*
X187899500Y-107396756D01*
X187885870Y-107459013D01*
X187847474Y-107509880D01*
X187791337Y-107540051D01*
X187727729Y-107544006D01*
X187668288Y-107521021D01*
X187458090Y-107381956D01*
X187369385Y-107340372D01*
X187212826Y-107266980D01*
X187067372Y-107223220D01*
X186953431Y-107188940D01*
X186953427Y-107188939D01*
X186953426Y-107188939D01*
X186685439Y-107149500D01*
X185882369Y-107149500D01*
X185882363Y-107149500D01*
X185679844Y-107164322D01*
X185415444Y-107223220D01*
X185162445Y-107319983D01*
X184926219Y-107452561D01*
X184711827Y-107618108D01*
X184523812Y-107813121D01*
X184366200Y-108033420D01*
X184242343Y-108274325D01*
X184154882Y-108530691D01*
X184105681Y-108797066D01*
X184095788Y-109067768D01*
X184115231Y-109244473D01*
X184125414Y-109337018D01*
X184138857Y-109388438D01*
X184193928Y-109599090D01*
X184299869Y-109848389D01*
X184440979Y-110079606D01*
X184440981Y-110079608D01*
X184440982Y-110079610D01*
X184614255Y-110287820D01*
X184815998Y-110468582D01*
X185041910Y-110618044D01*
X185164543Y-110675532D01*
X185287173Y-110733019D01*
X185287175Y-110733019D01*
X185287176Y-110733020D01*
X185546569Y-110811060D01*
X185814561Y-110850500D01*
X186617631Y-110850500D01*
X186617637Y-110850500D01*
X186791223Y-110837794D01*
X186820156Y-110835677D01*
X187084553Y-110776780D01*
X187198971Y-110733019D01*
X187337554Y-110680016D01*
X187337558Y-110680014D01*
X187573777Y-110547441D01*
X187659436Y-110481297D01*
X187719167Y-110453563D01*
X187785019Y-110454285D01*
X187844128Y-110483322D01*
X187884946Y-110535003D01*
X187899500Y-110599231D01*
X187899500Y-111597355D01*
X187885870Y-111659612D01*
X187847475Y-111710479D01*
X187791337Y-111740649D01*
X187727729Y-111744605D01*
X187668287Y-111721621D01*
X187457845Y-111582394D01*
X187212647Y-111467449D01*
X186953317Y-111389429D01*
X186750000Y-111359506D01*
X186750000Y-113551000D01*
X186738658Y-113608020D01*
X186706359Y-113656359D01*
X186658020Y-113688658D01*
X186601000Y-113700000D01*
X184168540Y-113700000D01*
X184194402Y-113798926D01*
X184300316Y-114048160D01*
X184441387Y-114279315D01*
X184614618Y-114487475D01*
X184816302Y-114668183D01*
X185042154Y-114817605D01*
X185287352Y-114932550D01*
X185546682Y-115010570D01*
X185680295Y-115030234D01*
X185742712Y-115054657D01*
X185788109Y-115103967D01*
X185807300Y-115168186D01*
X185796402Y-115234319D01*
X185757620Y-115288984D01*
X185698801Y-115321121D01*
X185528160Y-115368932D01*
X185258311Y-115486144D01*
X185006953Y-115638999D01*
X184778740Y-115824664D01*
X184577936Y-116039672D01*
X184408278Y-116280023D01*
X184272927Y-116541236D01*
X184174408Y-116818442D01*
X184114550Y-117106496D01*
X184110509Y-117165566D01*
X184108380Y-117182450D01*
X184105680Y-117197069D01*
X184102695Y-117278693D01*
X184102448Y-117283408D01*
X184099500Y-117326535D01*
X184099500Y-117363462D01*
X184099401Y-117368903D01*
X184096701Y-117442797D01*
X184095788Y-117467767D01*
X184098606Y-117493375D01*
X184099500Y-117509672D01*
X184099500Y-122647515D01*
X184088158Y-122704535D01*
X184055859Y-122752874D01*
X173252874Y-133555859D01*
X173204535Y-133588158D01*
X173147515Y-133599500D01*
X158736538Y-133599500D01*
X158731097Y-133599401D01*
X158718224Y-133598930D01*
X158632235Y-133595788D01*
X158632233Y-133595788D01*
X158632229Y-133595788D01*
X158555496Y-133604230D01*
X158549372Y-133604777D01*
X158406489Y-133614552D01*
X158118442Y-133674408D01*
X157841236Y-133772927D01*
X157580023Y-133908278D01*
X157339672Y-134077936D01*
X157124664Y-134278740D01*
X156938999Y-134506953D01*
X156786144Y-134758311D01*
X156668932Y-135028159D01*
X156624151Y-135187989D01*
X156593212Y-135245444D01*
X156540688Y-135284169D01*
X156476654Y-135296735D01*
X156413390Y-135280731D01*
X156363033Y-135239228D01*
X156335241Y-135180186D01*
X156276298Y-134915589D01*
X156179559Y-134662655D01*
X156047022Y-134426499D01*
X155881517Y-134212161D01*
X155686557Y-134024198D01*
X155466315Y-133866627D01*
X155225478Y-133742805D01*
X155000000Y-133665882D01*
X155000000Y-137831459D01*
X155098926Y-137805597D01*
X155348160Y-137699683D01*
X155579315Y-137558612D01*
X155787475Y-137385381D01*
X155968183Y-137183697D01*
X156117605Y-136957845D01*
X156232550Y-136712647D01*
X156310570Y-136453317D01*
X156330234Y-136319704D01*
X156354657Y-136257287D01*
X156403967Y-136211890D01*
X156468186Y-136192699D01*
X156534319Y-136203597D01*
X156588985Y-136242379D01*
X156621121Y-136301198D01*
X156668882Y-136471662D01*
X156668933Y-136471841D01*
X156773606Y-136712824D01*
X156786144Y-136741688D01*
X156917593Y-136957845D01*
X156939001Y-136993049D01*
X157124665Y-137221260D01*
X157339674Y-137422065D01*
X157580024Y-137591722D01*
X157841236Y-137727072D01*
X158118446Y-137825592D01*
X158406489Y-137885448D01*
X158465560Y-137889488D01*
X158482455Y-137891620D01*
X158497061Y-137894318D01*
X158497067Y-137894319D01*
X158578720Y-137897303D01*
X158583362Y-137897546D01*
X158626538Y-137900500D01*
X158663462Y-137900500D01*
X158668903Y-137900599D01*
X158671837Y-137900706D01*
X158767765Y-137904212D01*
X158793377Y-137901393D01*
X158809672Y-137900500D01*
X173982115Y-137900500D01*
X173997351Y-137901281D01*
X174026408Y-137904268D01*
X174134164Y-137900586D01*
X174139251Y-137900500D01*
X174173455Y-137900500D01*
X174173462Y-137900500D01*
X174207641Y-137898161D01*
X174212648Y-137897905D01*
X174320433Y-137894224D01*
X174349230Y-137889258D01*
X174364358Y-137887441D01*
X174393511Y-137885448D01*
X174499086Y-137863509D01*
X174504046Y-137862565D01*
X174610351Y-137844237D01*
X174638212Y-137835393D01*
X174652945Y-137831536D01*
X174681554Y-137825592D01*
X174783168Y-137789477D01*
X174787960Y-137787866D01*
X174890763Y-137755239D01*
X174917146Y-137742690D01*
X174931232Y-137736856D01*
X174958764Y-137727072D01*
X175054532Y-137677447D01*
X175059037Y-137675209D01*
X175156444Y-137628886D01*
X175180877Y-137612858D01*
X175194038Y-137605161D01*
X175219976Y-137591722D01*
X175308089Y-137529524D01*
X175312299Y-137526659D01*
X175402446Y-137467533D01*
X175424470Y-137448328D01*
X175436442Y-137438923D01*
X175460326Y-137422065D01*
X175539130Y-137348466D01*
X175542878Y-137345083D01*
X175568688Y-137322579D01*
X175592913Y-137298352D01*
X175596512Y-137294874D01*
X175675335Y-137221260D01*
X175693762Y-137198608D01*
X175703973Y-137187292D01*
X187687292Y-125203973D01*
X187698608Y-125193762D01*
X187721260Y-125175335D01*
X187794874Y-125096512D01*
X187798352Y-125092913D01*
X187822579Y-125068688D01*
X187845081Y-125042879D01*
X187848460Y-125039136D01*
X187922063Y-124960328D01*
X187922062Y-124960328D01*
X187922065Y-124960326D01*
X187938914Y-124936455D01*
X187948328Y-124924471D01*
X187967534Y-124902446D01*
X188026702Y-124812234D01*
X188029515Y-124808101D01*
X188091722Y-124719976D01*
X188105170Y-124694020D01*
X188112858Y-124680879D01*
X188128886Y-124656444D01*
X188175209Y-124559037D01*
X188177447Y-124554532D01*
X188227072Y-124458764D01*
X188236856Y-124431232D01*
X188242690Y-124417146D01*
X188255239Y-124390763D01*
X188287866Y-124287960D01*
X188289480Y-124283162D01*
X188325592Y-124181554D01*
X188331536Y-124152945D01*
X188335393Y-124138212D01*
X188344237Y-124110351D01*
X188362565Y-124004046D01*
X188363514Y-123999060D01*
X188385447Y-123893514D01*
X188385448Y-123893511D01*
X188385733Y-123889332D01*
X188387307Y-123884564D01*
X188387522Y-123883530D01*
X188387640Y-123883554D01*
X188408872Y-123819206D01*
X188462842Y-123768800D01*
X188534386Y-123750500D01*
X191823457Y-123750500D01*
X191823462Y-123750500D01*
X192043511Y-123735448D01*
X192331554Y-123675592D01*
X192608764Y-123577072D01*
X192869976Y-123441722D01*
X193110326Y-123272065D01*
X193325335Y-123071260D01*
X193510999Y-122843049D01*
X193663859Y-122591682D01*
X193781067Y-122321841D01*
X193860440Y-122038555D01*
X193888014Y-121837929D01*
X193889100Y-121831181D01*
X193894319Y-121802933D01*
X193894586Y-121795589D01*
X193895876Y-121780734D01*
X193900500Y-121747101D01*
X193900500Y-121636538D01*
X193900599Y-121631097D01*
X193900702Y-121628256D01*
X193904212Y-121532235D01*
X193901393Y-121506622D01*
X193900500Y-121490328D01*
X193900500Y-121452901D01*
X193875622Y-121271905D01*
X193875126Y-121267896D01*
X193874036Y-121257979D01*
X193872973Y-121252632D01*
X193860440Y-121161446D01*
X193860440Y-121161445D01*
X193781067Y-120878159D01*
X193663859Y-120608318D01*
X193510999Y-120356951D01*
X193325335Y-120128740D01*
X193110326Y-119927935D01*
X192869976Y-119758278D01*
X192608763Y-119622927D01*
X192321951Y-119520995D01*
X192322350Y-119519872D01*
X192271956Y-119496675D01*
X192229549Y-119444922D01*
X192214063Y-119379831D01*
X192228621Y-119314525D01*
X192270288Y-119262175D01*
X192330659Y-119233337D01*
X192584553Y-119176780D01*
X192698971Y-119133019D01*
X192837554Y-119080016D01*
X192837558Y-119080014D01*
X193073777Y-118947441D01*
X193288177Y-118781888D01*
X193476186Y-118586881D01*
X193633799Y-118366579D01*
X193757656Y-118125675D01*
X193845118Y-117869305D01*
X193894319Y-117602933D01*
X193904212Y-117332235D01*
X193874586Y-117062982D01*
X193806072Y-116800912D01*
X193700130Y-116551610D01*
X193628000Y-116433421D01*
X193559020Y-116320393D01*
X193554546Y-116315017D01*
X193385745Y-116112180D01*
X193184002Y-115931418D01*
X192958090Y-115781956D01*
X192938309Y-115772683D01*
X192712826Y-115666980D01*
X192567372Y-115623220D01*
X192453431Y-115588940D01*
X192453427Y-115588939D01*
X192453426Y-115588939D01*
X192185439Y-115549500D01*
X191382369Y-115549500D01*
X191382363Y-115549500D01*
X191179844Y-115564322D01*
X190915444Y-115623220D01*
X190662445Y-115719983D01*
X190426219Y-115852561D01*
X190211827Y-116018108D01*
X190211823Y-116018111D01*
X190211823Y-116018112D01*
X190161212Y-116070607D01*
X190023812Y-116213121D01*
X189866200Y-116433420D01*
X189742343Y-116674325D01*
X189654882Y-116930691D01*
X189605681Y-117197066D01*
X189605681Y-117197067D01*
X189596701Y-117442797D01*
X189595788Y-117467768D01*
X189625414Y-117737017D01*
X189693928Y-117999090D01*
X189799869Y-118248389D01*
X189940979Y-118479606D01*
X189940981Y-118479608D01*
X189940982Y-118479610D01*
X190114255Y-118687820D01*
X190315998Y-118868582D01*
X190541910Y-119018044D01*
X190787176Y-119133020D01*
X190869598Y-119157817D01*
X190930089Y-119193234D01*
X190967691Y-119252391D01*
X190974084Y-119322194D01*
X190947852Y-119387197D01*
X190894801Y-119433012D01*
X190826672Y-119449500D01*
X188549500Y-119449500D01*
X188492480Y-119438158D01*
X188444141Y-119405859D01*
X188411842Y-119357520D01*
X188400500Y-119300500D01*
X188400500Y-117436538D01*
X188400599Y-117431097D01*
X188400706Y-117428162D01*
X188404212Y-117332235D01*
X188395764Y-117255459D01*
X188395222Y-117249393D01*
X188385448Y-117106489D01*
X188325592Y-116818446D01*
X188243662Y-116587917D01*
X188235147Y-116532936D01*
X188247396Y-116478661D01*
X188278698Y-116432667D01*
X189134352Y-115577013D01*
X189150727Y-115562862D01*
X189168530Y-115549610D01*
X189199666Y-115512503D01*
X189208453Y-115502913D01*
X189211591Y-115499776D01*
X189230578Y-115475762D01*
X189233319Y-115472397D01*
X189239775Y-115464702D01*
X189281302Y-115415214D01*
X189281304Y-115415209D01*
X189283393Y-115412720D01*
X189291733Y-115399630D01*
X189293108Y-115396680D01*
X189293111Y-115396677D01*
X189324668Y-115329000D01*
X189326537Y-115325141D01*
X189328556Y-115321121D01*
X189360040Y-115258433D01*
X189360040Y-115258429D01*
X189361505Y-115255514D01*
X189366598Y-115240862D01*
X189382352Y-115164561D01*
X189383283Y-115160359D01*
X189400500Y-115087721D01*
X189400500Y-115087718D01*
X189401250Y-115084554D01*
X189402828Y-115069107D01*
X189402733Y-115065857D01*
X189402734Y-115065855D01*
X189400562Y-114991246D01*
X189400500Y-114986913D01*
X189400500Y-113833753D01*
X189417405Y-113764818D01*
X189464285Y-113711526D01*
X189530502Y-113685969D01*
X189601030Y-113693947D01*
X189659864Y-113733649D01*
X189689837Y-113789016D01*
X189690137Y-113788889D01*
X189691480Y-113792049D01*
X189693655Y-113796067D01*
X189694402Y-113798926D01*
X189800316Y-114048160D01*
X189941387Y-114279315D01*
X190114618Y-114487475D01*
X190316302Y-114668183D01*
X190542154Y-114817605D01*
X190787352Y-114932550D01*
X191046682Y-115010570D01*
X191249999Y-115040493D01*
X191250000Y-115040493D01*
X191250000Y-113700000D01*
X192250000Y-113700000D01*
X192250000Y-115040310D01*
X192320085Y-115035180D01*
X192584411Y-114976298D01*
X192837344Y-114879559D01*
X193073500Y-114747022D01*
X193287838Y-114581517D01*
X193475801Y-114386557D01*
X193633372Y-114166315D01*
X193757194Y-113925478D01*
X193834117Y-113700000D01*
X192250000Y-113700000D01*
X191250000Y-113700000D01*
X191250000Y-111359690D01*
X191179914Y-111364819D01*
X190915588Y-111423701D01*
X190662655Y-111520440D01*
X190426499Y-111652977D01*
X190212161Y-111818482D01*
X190024198Y-112013442D01*
X189866627Y-112233684D01*
X189742806Y-112474519D01*
X189690519Y-112627786D01*
X189653568Y-112686310D01*
X189594161Y-112721825D01*
X189525116Y-112726667D01*
X189461334Y-112699791D01*
X189416576Y-112646997D01*
X189400500Y-112579676D01*
X189400500Y-111359506D01*
X192250000Y-111359506D01*
X192250000Y-112700000D01*
X193831459Y-112700000D01*
X193831459Y-112699999D01*
X193805597Y-112601073D01*
X193699683Y-112351839D01*
X193558612Y-112120684D01*
X193385381Y-111912524D01*
X193183697Y-111731816D01*
X192957845Y-111582394D01*
X192712647Y-111467449D01*
X192453317Y-111389429D01*
X192250000Y-111359506D01*
X189400500Y-111359506D01*
X189400500Y-109635732D01*
X189417405Y-109566797D01*
X189464285Y-109513505D01*
X189530502Y-109487948D01*
X189601029Y-109495926D01*
X189659864Y-109535628D01*
X189688949Y-109589353D01*
X189689662Y-109589051D01*
X189692862Y-109596581D01*
X189693655Y-109598046D01*
X189693927Y-109599088D01*
X189799869Y-109848389D01*
X189940979Y-110079606D01*
X189940981Y-110079608D01*
X189940982Y-110079610D01*
X190114255Y-110287820D01*
X190315998Y-110468582D01*
X190541910Y-110618044D01*
X190664543Y-110675532D01*
X190787173Y-110733019D01*
X190787175Y-110733019D01*
X190787176Y-110733020D01*
X191046569Y-110811060D01*
X191314561Y-110850500D01*
X192117631Y-110850500D01*
X192117637Y-110850500D01*
X192291223Y-110837794D01*
X192320156Y-110835677D01*
X192584553Y-110776780D01*
X192698971Y-110733019D01*
X192837554Y-110680016D01*
X192837558Y-110680014D01*
X193073777Y-110547441D01*
X193288177Y-110381888D01*
X193476186Y-110186881D01*
X193633799Y-109966579D01*
X193757656Y-109725675D01*
X193845118Y-109469305D01*
X193894319Y-109202933D01*
X193904212Y-108932235D01*
X193874586Y-108662982D01*
X193806072Y-108400912D01*
X193700130Y-108151610D01*
X193628000Y-108033421D01*
X193559020Y-107920393D01*
X193525820Y-107880499D01*
X193385745Y-107712180D01*
X193184002Y-107531418D01*
X192958090Y-107381956D01*
X192958086Y-107381954D01*
X192712826Y-107266980D01*
X192567372Y-107223220D01*
X192453431Y-107188940D01*
X192453427Y-107188939D01*
X192453426Y-107188939D01*
X192185439Y-107149500D01*
X191382369Y-107149500D01*
X191382363Y-107149500D01*
X191179844Y-107164322D01*
X190915444Y-107223220D01*
X190662445Y-107319983D01*
X190426219Y-107452561D01*
X190211827Y-107618108D01*
X190023812Y-107813121D01*
X189866200Y-108033420D01*
X189742343Y-108274325D01*
X189690519Y-108426234D01*
X189653568Y-108484758D01*
X189594161Y-108520273D01*
X189525116Y-108525115D01*
X189461334Y-108498239D01*
X189416576Y-108445445D01*
X189400500Y-108378124D01*
X189400500Y-105433753D01*
X189417405Y-105364818D01*
X189464285Y-105311526D01*
X189530502Y-105285969D01*
X189601030Y-105293947D01*
X189659864Y-105333649D01*
X189689837Y-105389016D01*
X189690137Y-105388889D01*
X189691480Y-105392049D01*
X189693655Y-105396067D01*
X189694402Y-105398926D01*
X189800316Y-105648160D01*
X189941387Y-105879315D01*
X190114618Y-106087475D01*
X190316302Y-106268183D01*
X190542154Y-106417605D01*
X190787352Y-106532550D01*
X191046682Y-106610570D01*
X191249999Y-106640493D01*
X191250000Y-106640493D01*
X191250000Y-105300000D01*
X192250000Y-105300000D01*
X192250000Y-106640310D01*
X192320085Y-106635180D01*
X192584411Y-106576298D01*
X192837344Y-106479559D01*
X193073500Y-106347022D01*
X193287838Y-106181517D01*
X193475801Y-105986557D01*
X193633372Y-105766315D01*
X193757194Y-105525478D01*
X193834117Y-105300000D01*
X192250000Y-105300000D01*
X191250000Y-105300000D01*
X191250000Y-102959690D01*
X191179914Y-102964819D01*
X190915588Y-103023701D01*
X190662655Y-103120440D01*
X190426499Y-103252977D01*
X190212161Y-103418482D01*
X190024198Y-103613442D01*
X189866627Y-103833684D01*
X189742806Y-104074519D01*
X189690519Y-104227786D01*
X189653568Y-104286310D01*
X189594161Y-104321825D01*
X189525116Y-104326667D01*
X189461334Y-104299791D01*
X189416576Y-104246997D01*
X189400500Y-104179676D01*
X189400500Y-102959506D01*
X192250000Y-102959506D01*
X192250000Y-104300000D01*
X193831459Y-104300000D01*
X193831459Y-104299999D01*
X193805597Y-104201073D01*
X193699683Y-103951839D01*
X193558612Y-103720684D01*
X193385381Y-103512524D01*
X193183697Y-103331816D01*
X192957845Y-103182394D01*
X192712647Y-103067449D01*
X192453317Y-102989429D01*
X192250000Y-102959506D01*
X189400500Y-102959506D01*
X189400500Y-101233753D01*
X189417405Y-101164818D01*
X189464285Y-101111526D01*
X189530502Y-101085969D01*
X189601030Y-101093947D01*
X189659864Y-101133649D01*
X189689837Y-101189016D01*
X189690137Y-101188889D01*
X189691480Y-101192049D01*
X189693655Y-101196067D01*
X189694402Y-101198926D01*
X189800316Y-101448160D01*
X189941387Y-101679315D01*
X190114618Y-101887475D01*
X190316302Y-102068183D01*
X190542154Y-102217605D01*
X190787352Y-102332550D01*
X191046682Y-102410570D01*
X191249999Y-102440493D01*
X191250000Y-102440493D01*
X191250000Y-101100000D01*
X192250000Y-101100000D01*
X192250000Y-102440310D01*
X192320085Y-102435180D01*
X192584411Y-102376298D01*
X192837344Y-102279559D01*
X193073500Y-102147022D01*
X193287838Y-101981517D01*
X193475801Y-101786557D01*
X193633372Y-101566315D01*
X193757194Y-101325478D01*
X193834117Y-101100000D01*
X192250000Y-101100000D01*
X191250000Y-101100000D01*
X191250000Y-98759690D01*
X191179914Y-98764819D01*
X190915588Y-98823701D01*
X190662655Y-98920440D01*
X190426499Y-99052977D01*
X190212161Y-99218482D01*
X190024198Y-99413442D01*
X189866627Y-99633684D01*
X189742806Y-99874519D01*
X189690519Y-100027786D01*
X189653568Y-100086310D01*
X189594161Y-100121825D01*
X189525116Y-100126667D01*
X189461334Y-100099791D01*
X189416576Y-100046997D01*
X189400500Y-99979676D01*
X189400500Y-98759506D01*
X192250000Y-98759506D01*
X192250000Y-100100000D01*
X193831459Y-100100000D01*
X193831459Y-100099999D01*
X193805597Y-100001073D01*
X193699683Y-99751839D01*
X193558612Y-99520684D01*
X193385381Y-99312524D01*
X193183697Y-99131816D01*
X192957845Y-98982394D01*
X192712647Y-98867449D01*
X192453317Y-98789429D01*
X192250000Y-98759506D01*
X189400500Y-98759506D01*
X189400500Y-97033753D01*
X189417405Y-96964818D01*
X189464285Y-96911526D01*
X189530502Y-96885969D01*
X189601030Y-96893947D01*
X189659864Y-96933649D01*
X189689837Y-96989016D01*
X189690137Y-96988889D01*
X189691480Y-96992049D01*
X189693655Y-96996067D01*
X189694402Y-96998926D01*
X189800316Y-97248160D01*
X189941387Y-97479315D01*
X190114618Y-97687475D01*
X190316302Y-97868183D01*
X190542154Y-98017605D01*
X190787352Y-98132550D01*
X191046682Y-98210570D01*
X191249999Y-98240493D01*
X191250000Y-98240493D01*
X191250000Y-96900000D01*
X192250000Y-96900000D01*
X192250000Y-98240310D01*
X192320085Y-98235180D01*
X192584411Y-98176298D01*
X192837344Y-98079559D01*
X193073500Y-97947022D01*
X193287838Y-97781517D01*
X193475801Y-97586557D01*
X193633372Y-97366315D01*
X193757194Y-97125478D01*
X193834117Y-96900000D01*
X192250000Y-96900000D01*
X191250000Y-96900000D01*
X191250000Y-94559690D01*
X191179914Y-94564819D01*
X190915588Y-94623701D01*
X190662655Y-94720440D01*
X190426499Y-94852977D01*
X190212161Y-95018482D01*
X190024198Y-95213442D01*
X189866627Y-95433684D01*
X189742806Y-95674519D01*
X189690519Y-95827786D01*
X189653568Y-95886310D01*
X189594161Y-95921825D01*
X189525116Y-95926667D01*
X189461334Y-95899791D01*
X189416576Y-95846997D01*
X189400500Y-95779676D01*
X189400500Y-94559506D01*
X192250000Y-94559506D01*
X192250000Y-95900000D01*
X193831459Y-95900000D01*
X193831459Y-95899999D01*
X193805597Y-95801073D01*
X193699683Y-95551839D01*
X193558612Y-95320684D01*
X193385381Y-95112524D01*
X193183697Y-94931816D01*
X192957845Y-94782394D01*
X192712647Y-94667449D01*
X192453317Y-94589429D01*
X192250000Y-94559506D01*
X189400500Y-94559506D01*
X189400500Y-92835732D01*
X189417405Y-92766797D01*
X189464285Y-92713505D01*
X189530502Y-92687948D01*
X189601029Y-92695926D01*
X189659864Y-92735628D01*
X189688949Y-92789353D01*
X189689662Y-92789051D01*
X189692862Y-92796581D01*
X189693655Y-92798046D01*
X189693927Y-92799088D01*
X189799869Y-93048389D01*
X189940979Y-93279606D01*
X189940981Y-93279608D01*
X189940982Y-93279610D01*
X190026929Y-93382886D01*
X190070905Y-93435730D01*
X190114255Y-93487820D01*
X190315998Y-93668582D01*
X190541910Y-93818044D01*
X190636351Y-93862316D01*
X190787173Y-93933019D01*
X190787175Y-93933019D01*
X190787176Y-93933020D01*
X191046569Y-94011060D01*
X191314561Y-94050500D01*
X192117631Y-94050500D01*
X192117637Y-94050500D01*
X192291223Y-94037794D01*
X192320156Y-94035677D01*
X192584553Y-93976780D01*
X192698971Y-93933019D01*
X192837554Y-93880016D01*
X192869092Y-93862316D01*
X193073777Y-93747441D01*
X193288177Y-93581888D01*
X193476186Y-93386881D01*
X193633799Y-93166579D01*
X193757656Y-92925675D01*
X193845118Y-92669305D01*
X193894319Y-92402933D01*
X193904212Y-92132235D01*
X193874586Y-91862982D01*
X193806072Y-91600912D01*
X193801519Y-91590199D01*
X193700130Y-91351610D01*
X193559020Y-91120393D01*
X193465085Y-91007518D01*
X193385745Y-90912180D01*
X193184002Y-90731418D01*
X192958090Y-90581956D01*
X192895944Y-90552823D01*
X192712826Y-90466980D01*
X192567372Y-90423220D01*
X192453431Y-90388940D01*
X192453427Y-90388939D01*
X192453426Y-90388939D01*
X192185439Y-90349500D01*
X191382369Y-90349500D01*
X191382363Y-90349500D01*
X191179844Y-90364322D01*
X190915444Y-90423220D01*
X190662445Y-90519983D01*
X190426219Y-90652561D01*
X190211827Y-90818108D01*
X190211823Y-90818111D01*
X190211823Y-90818112D01*
X190146375Y-90885996D01*
X190023812Y-91013121D01*
X189866200Y-91233420D01*
X189742343Y-91474325D01*
X189690519Y-91626234D01*
X189653568Y-91684758D01*
X189594161Y-91720273D01*
X189525116Y-91725115D01*
X189461334Y-91698239D01*
X189416576Y-91645445D01*
X189400500Y-91578124D01*
X189400500Y-88635732D01*
X189417405Y-88566797D01*
X189464285Y-88513505D01*
X189530502Y-88487948D01*
X189601029Y-88495926D01*
X189659864Y-88535628D01*
X189688949Y-88589353D01*
X189689662Y-88589051D01*
X189692862Y-88596581D01*
X189693655Y-88598046D01*
X189693927Y-88599088D01*
X189799869Y-88848389D01*
X189940979Y-89079606D01*
X189940981Y-89079608D01*
X189940982Y-89079610D01*
X190114255Y-89287820D01*
X190315998Y-89468582D01*
X190541910Y-89618044D01*
X190664542Y-89675531D01*
X190787173Y-89733019D01*
X190787175Y-89733019D01*
X190787176Y-89733020D01*
X191046569Y-89811060D01*
X191314561Y-89850500D01*
X192117631Y-89850500D01*
X192117637Y-89850500D01*
X192291223Y-89837794D01*
X192320156Y-89835677D01*
X192584553Y-89776780D01*
X192698971Y-89733019D01*
X192837554Y-89680016D01*
X192837558Y-89680014D01*
X193073777Y-89547441D01*
X193288177Y-89381888D01*
X193476186Y-89186881D01*
X193633799Y-88966579D01*
X193757656Y-88725675D01*
X193845118Y-88469305D01*
X193894319Y-88202933D01*
X193904212Y-87932235D01*
X193874586Y-87662982D01*
X193806072Y-87400912D01*
X193786330Y-87354456D01*
X193700130Y-87151610D01*
X193559020Y-86920393D01*
X193437584Y-86774472D01*
X193385745Y-86712180D01*
X193184002Y-86531418D01*
X192958090Y-86381956D01*
X192958086Y-86381954D01*
X192712826Y-86266980D01*
X192567372Y-86223220D01*
X192453431Y-86188940D01*
X192453427Y-86188939D01*
X192453426Y-86188939D01*
X192185439Y-86149500D01*
X191382369Y-86149500D01*
X191382363Y-86149500D01*
X191179844Y-86164322D01*
X190915444Y-86223220D01*
X190662445Y-86319983D01*
X190426219Y-86452561D01*
X190211827Y-86618108D01*
X190023812Y-86813121D01*
X189866200Y-87033420D01*
X189742343Y-87274325D01*
X189690519Y-87426234D01*
X189653568Y-87484758D01*
X189594161Y-87520273D01*
X189525116Y-87525115D01*
X189461334Y-87498239D01*
X189416576Y-87445445D01*
X189400500Y-87378124D01*
X189400500Y-84435732D01*
X189417405Y-84366797D01*
X189464285Y-84313505D01*
X189530502Y-84287948D01*
X189601029Y-84295926D01*
X189659864Y-84335628D01*
X189688949Y-84389353D01*
X189689662Y-84389051D01*
X189692862Y-84396581D01*
X189693655Y-84398046D01*
X189693927Y-84399088D01*
X189799869Y-84648389D01*
X189940979Y-84879606D01*
X189940981Y-84879608D01*
X189940982Y-84879610D01*
X190114255Y-85087820D01*
X190315998Y-85268582D01*
X190541910Y-85418044D01*
X190664543Y-85475532D01*
X190787173Y-85533019D01*
X190787175Y-85533019D01*
X190787176Y-85533020D01*
X191046569Y-85611060D01*
X191314561Y-85650500D01*
X192117631Y-85650500D01*
X192117637Y-85650500D01*
X192291223Y-85637794D01*
X192320156Y-85635677D01*
X192584553Y-85576780D01*
X192698971Y-85533019D01*
X192837554Y-85480016D01*
X192837558Y-85480014D01*
X193073777Y-85347441D01*
X193288177Y-85181888D01*
X193476186Y-84986881D01*
X193633799Y-84766579D01*
X193757656Y-84525675D01*
X193845118Y-84269305D01*
X193894319Y-84002933D01*
X193904212Y-83732235D01*
X193874586Y-83462982D01*
X193806072Y-83200912D01*
X193700130Y-82951610D01*
X193628000Y-82833421D01*
X193559020Y-82720393D01*
X193385745Y-82512180D01*
X193364524Y-82493166D01*
X193184002Y-82331418D01*
X192958090Y-82181956D01*
X192958086Y-82181954D01*
X192712826Y-82066980D01*
X192567372Y-82023220D01*
X192453431Y-81988940D01*
X192453427Y-81988939D01*
X192453426Y-81988939D01*
X192185439Y-81949500D01*
X191382369Y-81949500D01*
X191382363Y-81949500D01*
X191179844Y-81964322D01*
X190915444Y-82023220D01*
X190662445Y-82119983D01*
X190426219Y-82252561D01*
X190211827Y-82418108D01*
X190211823Y-82418111D01*
X190211823Y-82418112D01*
X190121131Y-82512180D01*
X190023812Y-82613121D01*
X189866200Y-82833420D01*
X189742343Y-83074325D01*
X189690519Y-83226234D01*
X189653568Y-83284758D01*
X189594161Y-83320273D01*
X189525116Y-83325115D01*
X189461334Y-83298239D01*
X189416576Y-83245445D01*
X189400500Y-83178124D01*
X189400500Y-80235732D01*
X189417405Y-80166797D01*
X189464285Y-80113505D01*
X189530502Y-80087948D01*
X189601029Y-80095926D01*
X189659864Y-80135628D01*
X189688949Y-80189353D01*
X189689662Y-80189051D01*
X189692862Y-80196581D01*
X189693655Y-80198046D01*
X189693927Y-80199088D01*
X189799869Y-80448389D01*
X189940979Y-80679606D01*
X189940981Y-80679608D01*
X189940982Y-80679610D01*
X190114255Y-80887820D01*
X190315998Y-81068582D01*
X190541910Y-81218044D01*
X190664543Y-81275532D01*
X190787173Y-81333019D01*
X190787175Y-81333019D01*
X190787176Y-81333020D01*
X191046569Y-81411060D01*
X191314561Y-81450500D01*
X192117631Y-81450500D01*
X192117637Y-81450500D01*
X192291223Y-81437794D01*
X192320156Y-81435677D01*
X192584553Y-81376780D01*
X192793871Y-81296723D01*
X192837554Y-81280016D01*
X192837558Y-81280014D01*
X193073777Y-81147441D01*
X193288177Y-80981888D01*
X193476186Y-80786881D01*
X193633799Y-80566579D01*
X193757656Y-80325675D01*
X193845118Y-80069305D01*
X193894319Y-79802933D01*
X193904212Y-79532235D01*
X193874586Y-79262982D01*
X193806072Y-79000912D01*
X193786856Y-78955694D01*
X193700130Y-78751610D01*
X193559020Y-78520393D01*
X193552627Y-78512711D01*
X193385745Y-78312180D01*
X193184002Y-78131418D01*
X192958090Y-77981956D01*
X192934924Y-77971096D01*
X192712826Y-77866980D01*
X192563241Y-77821977D01*
X192453431Y-77788940D01*
X192453427Y-77788939D01*
X192453426Y-77788939D01*
X192185439Y-77749500D01*
X191382369Y-77749500D01*
X191382363Y-77749500D01*
X191179844Y-77764322D01*
X190915444Y-77823220D01*
X190662445Y-77919983D01*
X190426219Y-78052561D01*
X190211827Y-78218108D01*
X190211823Y-78218111D01*
X190211823Y-78218112D01*
X190142202Y-78290324D01*
X190023812Y-78413121D01*
X189866200Y-78633420D01*
X189742343Y-78874325D01*
X189690519Y-79026234D01*
X189653568Y-79084758D01*
X189594161Y-79120273D01*
X189525116Y-79125115D01*
X189461334Y-79098239D01*
X189416576Y-79045445D01*
X189400500Y-78978124D01*
X189400500Y-77865528D01*
X189402073Y-77843934D01*
X189404123Y-77829938D01*
X189405289Y-77821977D01*
X189401067Y-77773717D01*
X189400500Y-77760731D01*
X189400500Y-77756292D01*
X189399706Y-77749500D01*
X189396941Y-77725850D01*
X189396504Y-77721567D01*
X189393366Y-77685694D01*
X189389999Y-77647203D01*
X189389997Y-77647199D01*
X189389715Y-77643966D01*
X189386355Y-77628806D01*
X189366812Y-77575112D01*
X189359707Y-77555591D01*
X189358299Y-77551539D01*
X189334814Y-77480666D01*
X189334812Y-77480663D01*
X189333789Y-77477575D01*
X189327023Y-77463599D01*
X189300292Y-77422957D01*
X189284202Y-77398494D01*
X189281902Y-77394883D01*
X189277618Y-77387938D01*
X189242712Y-77331345D01*
X189242711Y-77331344D01*
X189241004Y-77328576D01*
X189231195Y-77316534D01*
X189174538Y-77263081D01*
X189171429Y-77260062D01*
X188259587Y-76348219D01*
X188225777Y-76296087D01*
X188216170Y-76234699D01*
X188232432Y-76174733D01*
X188257656Y-76125675D01*
X188334646Y-75900000D01*
X189668540Y-75900000D01*
X189694402Y-75998926D01*
X189800316Y-76248160D01*
X189941387Y-76479315D01*
X190114618Y-76687475D01*
X190316302Y-76868183D01*
X190542154Y-77017605D01*
X190787352Y-77132550D01*
X191046682Y-77210570D01*
X191249999Y-77240493D01*
X191250000Y-77240493D01*
X191250000Y-75900000D01*
X192250000Y-75900000D01*
X192250000Y-77240310D01*
X192320085Y-77235180D01*
X192584411Y-77176298D01*
X192837344Y-77079559D01*
X193073500Y-76947022D01*
X193287838Y-76781517D01*
X193475801Y-76586557D01*
X193633372Y-76366315D01*
X193757194Y-76125478D01*
X193834117Y-75900000D01*
X192250000Y-75900000D01*
X191250000Y-75900000D01*
X189668540Y-75900000D01*
X188334646Y-75900000D01*
X188345118Y-75869305D01*
X188394319Y-75602933D01*
X188404212Y-75332235D01*
X188374586Y-75062982D01*
X188331977Y-74899999D01*
X189665882Y-74899999D01*
X189665883Y-74900000D01*
X191250000Y-74900000D01*
X191250000Y-73559690D01*
X191179914Y-73564819D01*
X190915588Y-73623701D01*
X190662655Y-73720440D01*
X190426499Y-73852977D01*
X190212161Y-74018482D01*
X190024198Y-74213442D01*
X189866627Y-74433684D01*
X189742805Y-74674521D01*
X189665882Y-74899999D01*
X188331977Y-74899999D01*
X188306072Y-74800912D01*
X188269268Y-74714306D01*
X188200130Y-74551610D01*
X188059020Y-74320393D01*
X188040965Y-74298698D01*
X187885745Y-74112180D01*
X187684002Y-73931418D01*
X187458090Y-73781956D01*
X187458086Y-73781954D01*
X187212826Y-73666980D01*
X187067372Y-73623220D01*
X186953431Y-73588940D01*
X186953427Y-73588939D01*
X186953426Y-73588939D01*
X186753430Y-73559506D01*
X192250000Y-73559506D01*
X192250000Y-74900000D01*
X193831459Y-74900000D01*
X193831459Y-74899999D01*
X193805597Y-74801073D01*
X193699683Y-74551839D01*
X193558612Y-74320684D01*
X193385381Y-74112524D01*
X193183697Y-73931816D01*
X192957845Y-73782394D01*
X192712647Y-73667449D01*
X192453317Y-73589429D01*
X192250000Y-73559506D01*
X186753430Y-73559506D01*
X186685439Y-73549500D01*
X185882369Y-73549500D01*
X185882363Y-73549500D01*
X185679844Y-73564322D01*
X185415444Y-73623220D01*
X185162445Y-73719983D01*
X184926219Y-73852561D01*
X184711827Y-74018108D01*
X184523812Y-74213121D01*
X184366200Y-74433420D01*
X184287012Y-74587445D01*
X184244846Y-74637801D01*
X184185124Y-74665135D01*
X184119452Y-74664135D01*
X184060590Y-74634997D01*
X184019976Y-74583380D01*
X184005500Y-74519316D01*
X184005500Y-56149500D01*
X184016842Y-56092480D01*
X184049141Y-56044141D01*
X184097480Y-56011842D01*
X184154500Y-56000500D01*
X196850500Y-56000500D01*
X196907520Y-56011842D01*
X196955859Y-56044141D01*
X196988158Y-56092480D01*
X196999500Y-56149500D01*
X196999500Y-140850500D01*
X196988158Y-140907520D01*
X196955859Y-140955859D01*
X196907520Y-140988158D01*
X196850500Y-140999500D01*
X112149500Y-140999500D01*
X112092480Y-140988158D01*
X112044141Y-140955859D01*
X112011842Y-140907520D01*
X112000500Y-140850500D01*
X112000500Y-128543709D01*
X114249500Y-128543709D01*
X114257746Y-128614254D01*
X114264759Y-128674258D01*
X114324761Y-128839114D01*
X114324763Y-128839117D01*
X114421170Y-128985696D01*
X114548782Y-129106092D01*
X114632415Y-129154377D01*
X114700720Y-129193813D01*
X114801101Y-129223865D01*
X114868790Y-129244130D01*
X115043935Y-129254331D01*
X115043935Y-129254330D01*
X115043936Y-129254331D01*
X115216711Y-129223865D01*
X115216710Y-129223865D01*
X115377804Y-129154377D01*
X115518530Y-129049610D01*
X115631302Y-128915214D01*
X115710040Y-128758433D01*
X115750500Y-128587721D01*
X115750500Y-68456291D01*
X115735241Y-68325745D01*
X115704603Y-68241567D01*
X115675238Y-68160885D01*
X115668361Y-68150429D01*
X115578830Y-68014304D01*
X115451218Y-67893908D01*
X115367585Y-67845623D01*
X115299279Y-67806186D01*
X115131211Y-67755870D01*
X114956063Y-67745668D01*
X114783288Y-67776134D01*
X114622196Y-67845623D01*
X114481470Y-67950390D01*
X114368697Y-68084786D01*
X114289961Y-68241564D01*
X114289960Y-68241565D01*
X114289960Y-68241567D01*
X114249500Y-68412279D01*
X114249500Y-128543709D01*
X112000500Y-128543709D01*
X112000500Y-56149500D01*
X112011842Y-56092480D01*
X112044141Y-56044141D01*
X112092480Y-56011842D01*
X112149500Y-56000500D01*
X118338392Y-56000500D01*
X118395624Y-56011930D01*
G37*
%TD.AperFunction*%
%TA.AperFunction,Conductor*%
G36*
X174705859Y-90267226D02*
G01*
X174738158Y-90315565D01*
X174749500Y-90372585D01*
X174749500Y-109328415D01*
X174733260Y-109396060D01*
X174688080Y-109448959D01*
X174623809Y-109475581D01*
X174554456Y-109470122D01*
X174495141Y-109433774D01*
X168539981Y-103478614D01*
X162367014Y-97305646D01*
X162352859Y-97289267D01*
X162339610Y-97271470D01*
X162302505Y-97240335D01*
X162292922Y-97231554D01*
X162289777Y-97228409D01*
X162265742Y-97209405D01*
X162262380Y-97206666D01*
X162202727Y-97156611D01*
X162189620Y-97148261D01*
X162140762Y-97125478D01*
X162119008Y-97115334D01*
X162115140Y-97113461D01*
X162048433Y-97079960D01*
X162048431Y-97079959D01*
X162045527Y-97078501D01*
X162030848Y-97073398D01*
X161954547Y-97057642D01*
X161950319Y-97056705D01*
X161874554Y-97038749D01*
X161859108Y-97037171D01*
X161786704Y-97039278D01*
X161781247Y-97039437D01*
X161776914Y-97039500D01*
X154529591Y-97039500D01*
X154456975Y-97020607D01*
X154402774Y-96968721D01*
X154360387Y-96900000D01*
X154342712Y-96871344D01*
X154218656Y-96747288D01*
X154069334Y-96655186D01*
X154069332Y-96655185D01*
X154055765Y-96646817D01*
X154003879Y-96592616D01*
X153984986Y-96520000D01*
X154003879Y-96447384D01*
X154055765Y-96393183D01*
X154069332Y-96384814D01*
X154069334Y-96384814D01*
X154218656Y-96292712D01*
X154342712Y-96168656D01*
X154402774Y-96071278D01*
X154456975Y-96019393D01*
X154529591Y-96000500D01*
X165034473Y-96000500D01*
X165056067Y-96002072D01*
X165078023Y-96005289D01*
X165078023Y-96005288D01*
X165078024Y-96005289D01*
X165126283Y-96001067D01*
X165139269Y-96000500D01*
X165143707Y-96000500D01*
X165143709Y-96000500D01*
X165174163Y-95996939D01*
X165178410Y-95996506D01*
X165252797Y-95989999D01*
X165252800Y-95989997D01*
X165256034Y-95989715D01*
X165271191Y-95986355D01*
X165274250Y-95985241D01*
X165274255Y-95985241D01*
X165344431Y-95959698D01*
X165348481Y-95958292D01*
X165422421Y-95933791D01*
X165436401Y-95927022D01*
X165439112Y-95925238D01*
X165439117Y-95925237D01*
X165501509Y-95884200D01*
X165505091Y-95881918D01*
X165568656Y-95842712D01*
X165568658Y-95842709D01*
X165571427Y-95841002D01*
X165583457Y-95831202D01*
X165585692Y-95828832D01*
X165585696Y-95828830D01*
X165636919Y-95774535D01*
X165639870Y-95771496D01*
X167157226Y-94254139D01*
X167205565Y-94221841D01*
X167262585Y-94210499D01*
X168640376Y-94210499D01*
X168680112Y-94206226D01*
X168699983Y-94204091D01*
X168834831Y-94153796D01*
X168950046Y-94067546D01*
X169036296Y-93952331D01*
X169036296Y-93952329D01*
X169039983Y-93947405D01*
X169074410Y-93896141D01*
X169134794Y-93862316D01*
X169203947Y-93859423D01*
X169266946Y-93888086D01*
X169382559Y-93978071D01*
X169489005Y-94035677D01*
X169594336Y-94092679D01*
X169822087Y-94170866D01*
X170059601Y-94210500D01*
X170300398Y-94210500D01*
X170300399Y-94210500D01*
X170537913Y-94170866D01*
X170765664Y-94092679D01*
X170977439Y-93978072D01*
X171148651Y-93844813D01*
X171167461Y-93830173D01*
X171167463Y-93830171D01*
X171330551Y-93653010D01*
X171330551Y-93653008D01*
X171338913Y-93643926D01*
X171341321Y-93646143D01*
X171379365Y-93611110D01*
X171450287Y-93593143D01*
X171521212Y-93611100D01*
X171559009Y-93645895D01*
X171561483Y-93643619D01*
X171732876Y-93829800D01*
X171922834Y-93977651D01*
X172134540Y-94092220D01*
X172220000Y-94121559D01*
X172220000Y-93210000D01*
X173220000Y-93210000D01*
X173220000Y-94121559D01*
X173305459Y-94092220D01*
X173517165Y-93977651D01*
X173707123Y-93829800D01*
X173870155Y-93652701D01*
X174001815Y-93451180D01*
X174098507Y-93230744D01*
X174103761Y-93210000D01*
X173220000Y-93210000D01*
X172220000Y-93210000D01*
X172220000Y-91298440D01*
X173220000Y-91298440D01*
X173220000Y-92210000D01*
X174103760Y-92210000D01*
X174098507Y-92189255D01*
X174001815Y-91968819D01*
X173870155Y-91767298D01*
X173707123Y-91590199D01*
X173517165Y-91442348D01*
X173305459Y-91327779D01*
X173220000Y-91298440D01*
X172220000Y-91298440D01*
X172134540Y-91327779D01*
X171922834Y-91442348D01*
X171871018Y-91482679D01*
X171811282Y-91510668D01*
X171745316Y-91510123D01*
X171686051Y-91481150D01*
X171645103Y-91429428D01*
X171630500Y-91365097D01*
X171630500Y-91309307D01*
X171631644Y-91290878D01*
X171631872Y-91289047D01*
X171634228Y-91270147D01*
X171630627Y-91183084D01*
X171630500Y-91176927D01*
X171630500Y-91150016D01*
X171630340Y-91148080D01*
X171628272Y-91123131D01*
X171627896Y-91117072D01*
X171624294Y-91029969D01*
X171620004Y-91009513D01*
X171617344Y-90991256D01*
X171615620Y-90970437D01*
X171594222Y-90885940D01*
X171592851Y-90880015D01*
X171574964Y-90794701D01*
X171567369Y-90775237D01*
X171561737Y-90757656D01*
X171556610Y-90737410D01*
X171553982Y-90731419D01*
X171530854Y-90678691D01*
X171521611Y-90657620D01*
X171519253Y-90651928D01*
X171507149Y-90620908D01*
X171487583Y-90570762D01*
X171487582Y-90570759D01*
X171476893Y-90552823D01*
X171468436Y-90536394D01*
X171460049Y-90517272D01*
X171444936Y-90494141D01*
X171412368Y-90444292D01*
X171409145Y-90439130D01*
X171364533Y-90364260D01*
X171351033Y-90348320D01*
X171339998Y-90333520D01*
X171328573Y-90316033D01*
X171283643Y-90267226D01*
X171269558Y-90251925D01*
X171265499Y-90247328D01*
X171248082Y-90226765D01*
X171229035Y-90207718D01*
X171224771Y-90203274D01*
X171165762Y-90139173D01*
X171149278Y-90126343D01*
X171135439Y-90114122D01*
X169921317Y-88900000D01*
X173338632Y-88900000D01*
X174705859Y-90267226D01*
G37*
%TD.AperFunction*%
%TA.AperFunction,Conductor*%
G36*
X143747520Y-92201842D02*
G01*
X143795859Y-92234141D01*
X143828158Y-92282480D01*
X143839500Y-92339500D01*
X143839500Y-93085331D01*
X143821651Y-93156045D01*
X143772379Y-93209817D01*
X143703489Y-93233764D01*
X143628972Y-93240284D01*
X143613785Y-93243651D01*
X143540603Y-93270286D01*
X143536515Y-93271707D01*
X143462594Y-93296203D01*
X143448587Y-93302984D01*
X143383535Y-93345769D01*
X143379883Y-93348095D01*
X143313591Y-93388985D01*
X143301526Y-93398813D01*
X143248098Y-93455443D01*
X143245080Y-93458550D01*
X142247773Y-94455859D01*
X142199434Y-94488158D01*
X142142414Y-94499500D01*
X140789000Y-94499500D01*
X140731980Y-94488158D01*
X140683641Y-94455859D01*
X140651342Y-94407520D01*
X140640000Y-94350500D01*
X140640000Y-94305000D01*
X139239000Y-94305000D01*
X139181980Y-94293658D01*
X139133641Y-94261359D01*
X139101342Y-94213020D01*
X139090000Y-94156000D01*
X139090000Y-93804000D01*
X139101342Y-93746980D01*
X139133641Y-93698641D01*
X139181980Y-93666342D01*
X139239000Y-93655000D01*
X140640000Y-93655000D01*
X140640000Y-93609500D01*
X140651342Y-93552480D01*
X140683641Y-93504141D01*
X140731980Y-93471842D01*
X140789000Y-93460500D01*
X141692541Y-93460500D01*
X141738584Y-93467792D01*
X141780114Y-93488952D01*
X141787270Y-93494151D01*
X141960197Y-93571144D01*
X142145354Y-93610500D01*
X142334645Y-93610500D01*
X142334646Y-93610500D01*
X142519803Y-93571144D01*
X142692730Y-93494151D01*
X142845871Y-93382888D01*
X142972533Y-93242216D01*
X143067179Y-93078284D01*
X143125674Y-92898256D01*
X143145460Y-92710000D01*
X143125674Y-92521744D01*
X143081420Y-92385544D01*
X143075961Y-92316191D01*
X143102583Y-92251920D01*
X143155482Y-92206740D01*
X143223127Y-92190500D01*
X143690500Y-92190500D01*
X143747520Y-92201842D01*
G37*
%TD.AperFunction*%
%TA.AperFunction,Conductor*%
G36*
X175705859Y-76080881D02*
G01*
X175738158Y-76129220D01*
X175749500Y-76186240D01*
X175749500Y-88828415D01*
X175733260Y-88896060D01*
X175688080Y-88948959D01*
X175623809Y-88975581D01*
X175554456Y-88970122D01*
X175495141Y-88933774D01*
X175260000Y-88698633D01*
X175260000Y-75635022D01*
X175705859Y-76080881D01*
G37*
%TD.AperFunction*%
%TA.AperFunction,Conductor*%
G36*
X144135891Y-74243338D02*
G01*
X144185970Y-74279639D01*
X144216993Y-74333148D01*
X144223614Y-74394645D01*
X144220001Y-74429999D01*
X144220002Y-74430000D01*
X145671000Y-74430000D01*
X145728020Y-74441342D01*
X145776359Y-74473641D01*
X145808658Y-74521980D01*
X145820000Y-74579000D01*
X145820000Y-75281000D01*
X145808658Y-75338020D01*
X145776359Y-75386359D01*
X145728020Y-75418658D01*
X145671000Y-75430000D01*
X144220004Y-75430000D01*
X144230494Y-75532698D01*
X144285641Y-75699120D01*
X144377683Y-75848344D01*
X144501655Y-75972316D01*
X144664710Y-76072889D01*
X144716596Y-76127090D01*
X144735489Y-76199706D01*
X144716597Y-76272321D01*
X144664710Y-76326523D01*
X144501343Y-76427288D01*
X144377288Y-76551343D01*
X144301686Y-76673915D01*
X144285223Y-76700607D01*
X144283015Y-76704186D01*
X144243779Y-76746507D01*
X144179390Y-76793290D01*
X144174128Y-76797113D01*
X144047467Y-76937783D01*
X143952820Y-77101717D01*
X143894326Y-77281742D01*
X143874539Y-77469999D01*
X143894326Y-77658257D01*
X143952004Y-77835772D01*
X143952821Y-77838284D01*
X144047467Y-78002216D01*
X144102295Y-78063109D01*
X144174130Y-78142889D01*
X144243777Y-78193491D01*
X144283014Y-78235813D01*
X144330500Y-78312800D01*
X144377288Y-78388656D01*
X144501344Y-78512712D01*
X144650666Y-78604814D01*
X144817203Y-78659999D01*
X144919991Y-78670500D01*
X145720008Y-78670499D01*
X145822797Y-78659999D01*
X145989334Y-78604814D01*
X146138656Y-78512712D01*
X146214641Y-78436726D01*
X146262980Y-78404428D01*
X146320000Y-78393086D01*
X146377020Y-78404428D01*
X146425359Y-78436726D01*
X146501344Y-78512712D01*
X146650666Y-78604814D01*
X146817203Y-78659999D01*
X146919991Y-78670500D01*
X147720008Y-78670499D01*
X147822797Y-78659999D01*
X147989334Y-78604814D01*
X148138656Y-78512712D01*
X148262712Y-78388656D01*
X148322774Y-78291278D01*
X148376975Y-78239393D01*
X148449591Y-78220500D01*
X150871504Y-78220500D01*
X150938104Y-78236213D01*
X150990657Y-78280038D01*
X151018080Y-78342732D01*
X151014587Y-78411071D01*
X150992402Y-78487427D01*
X150992402Y-78487430D01*
X150992402Y-78487431D01*
X150990413Y-78512712D01*
X150989500Y-78524310D01*
X150989500Y-78955690D01*
X150992402Y-78992572D01*
X151014587Y-79068929D01*
X151018080Y-79137268D01*
X150990657Y-79199962D01*
X150938104Y-79243787D01*
X150871504Y-79259500D01*
X142938372Y-79259500D01*
X142881352Y-79248158D01*
X142833013Y-79215859D01*
X142542012Y-78924858D01*
X142505664Y-78865543D01*
X142500205Y-78796190D01*
X142526827Y-78731919D01*
X142579726Y-78686739D01*
X142632737Y-78674012D01*
X142632457Y-78671270D01*
X142640004Y-78670499D01*
X142640008Y-78670499D01*
X142742797Y-78659999D01*
X142909334Y-78604814D01*
X143058656Y-78512712D01*
X143182712Y-78388656D01*
X143274814Y-78239334D01*
X143329999Y-78072797D01*
X143340500Y-77970009D01*
X143340499Y-76969992D01*
X143329999Y-76867203D01*
X143274814Y-76700666D01*
X143182712Y-76551344D01*
X143058656Y-76427288D01*
X143058656Y-76427287D01*
X143046341Y-76414973D01*
X143047158Y-76414155D01*
X143009392Y-76374705D01*
X142990500Y-76302089D01*
X142990500Y-76097911D01*
X143009392Y-76025295D01*
X143047158Y-75985844D01*
X143046341Y-75985027D01*
X143112070Y-75919298D01*
X143182712Y-75848656D01*
X143274814Y-75699334D01*
X143329999Y-75532797D01*
X143340500Y-75430009D01*
X143340499Y-74952584D01*
X143351841Y-74895565D01*
X143384137Y-74847229D01*
X143957226Y-74274140D01*
X144005565Y-74241842D01*
X144062585Y-74230500D01*
X144075386Y-74230500D01*
X144135891Y-74243338D01*
G37*
%TD.AperFunction*%
%TA.AperFunction,Conductor*%
G36*
X144135891Y-62813338D02*
G01*
X144185970Y-62849639D01*
X144216993Y-62903148D01*
X144223614Y-62964645D01*
X144220001Y-62999999D01*
X144220002Y-63000000D01*
X145671000Y-63000000D01*
X145728020Y-63011342D01*
X145776359Y-63043641D01*
X145808658Y-63091980D01*
X145820000Y-63149000D01*
X145820000Y-63851000D01*
X145808658Y-63908020D01*
X145776359Y-63956359D01*
X145728020Y-63988658D01*
X145671000Y-64000000D01*
X144220004Y-64000000D01*
X144230494Y-64102698D01*
X144285641Y-64269120D01*
X144377683Y-64418344D01*
X144501655Y-64542316D01*
X144664710Y-64642889D01*
X144716596Y-64697090D01*
X144735489Y-64769706D01*
X144716597Y-64842321D01*
X144664710Y-64896523D01*
X144501343Y-64997288D01*
X144377288Y-65121343D01*
X144340863Y-65180398D01*
X144285223Y-65270607D01*
X144283015Y-65274186D01*
X144243779Y-65316507D01*
X144176566Y-65365342D01*
X144174128Y-65367113D01*
X144047467Y-65507783D01*
X143952820Y-65671717D01*
X143894326Y-65851742D01*
X143874539Y-66040000D01*
X143894326Y-66228257D01*
X143915222Y-66292569D01*
X143952821Y-66408284D01*
X143977137Y-66450400D01*
X144047467Y-66572216D01*
X144174130Y-66712889D01*
X144243777Y-66763491D01*
X144283014Y-66805813D01*
X144366089Y-66940500D01*
X144377288Y-66958656D01*
X144501344Y-67082712D01*
X144650666Y-67174814D01*
X144817203Y-67229999D01*
X144919991Y-67240500D01*
X145720008Y-67240499D01*
X145822797Y-67229999D01*
X145989334Y-67174814D01*
X146138656Y-67082712D01*
X146214641Y-67006727D01*
X146262980Y-66974428D01*
X146320000Y-66963086D01*
X146377020Y-66974428D01*
X146425359Y-67006727D01*
X146501344Y-67082712D01*
X146650666Y-67174814D01*
X146817203Y-67229999D01*
X146919991Y-67240500D01*
X147720008Y-67240499D01*
X147822797Y-67229999D01*
X147989334Y-67174814D01*
X148138656Y-67082712D01*
X148262712Y-66958656D01*
X148322774Y-66861278D01*
X148376975Y-66809393D01*
X148449591Y-66790500D01*
X150936504Y-66790500D01*
X151003104Y-66806213D01*
X151055657Y-66850038D01*
X151083080Y-66912732D01*
X151079587Y-66981071D01*
X151057402Y-67057427D01*
X151057402Y-67057430D01*
X151057402Y-67057431D01*
X151055413Y-67082712D01*
X151054500Y-67094310D01*
X151054500Y-67525695D01*
X151056319Y-67548813D01*
X151048553Y-67609319D01*
X151017191Y-67661642D01*
X150967489Y-67697012D01*
X150907778Y-67709500D01*
X142818371Y-67709500D01*
X142761351Y-67698158D01*
X142713012Y-67665859D01*
X142542011Y-67494858D01*
X142505663Y-67435543D01*
X142500204Y-67366190D01*
X142526826Y-67301919D01*
X142579725Y-67256739D01*
X142632737Y-67244012D01*
X142632457Y-67241270D01*
X142640004Y-67240499D01*
X142640008Y-67240499D01*
X142742797Y-67229999D01*
X142909334Y-67174814D01*
X143058656Y-67082712D01*
X143182712Y-66958656D01*
X143274814Y-66809334D01*
X143329999Y-66642797D01*
X143340500Y-66540009D01*
X143340499Y-65539992D01*
X143329999Y-65437203D01*
X143274814Y-65270666D01*
X143182712Y-65121344D01*
X143058656Y-64997288D01*
X143058656Y-64997287D01*
X143046341Y-64984973D01*
X143047158Y-64984155D01*
X143009392Y-64944705D01*
X142990500Y-64872089D01*
X142990500Y-64667911D01*
X143009392Y-64595295D01*
X143047158Y-64555844D01*
X143046341Y-64555027D01*
X143083938Y-64517430D01*
X143182712Y-64418656D01*
X143274814Y-64269334D01*
X143329999Y-64102797D01*
X143340500Y-64000009D01*
X143340499Y-63522584D01*
X143351841Y-63465565D01*
X143384137Y-63417229D01*
X143957226Y-62844141D01*
X144005565Y-62811842D01*
X144062585Y-62800500D01*
X144075386Y-62800500D01*
X144135891Y-62813338D01*
G37*
%TD.AperFunction*%
%TD*%
%TA.AperFunction,Conductor*%
%TO.N,+12V*%
G36*
X183438000Y-56017113D02*
G01*
X183483387Y-56062500D01*
X183500000Y-56124500D01*
X183500000Y-72500000D01*
X183500000Y-77500000D01*
X187237271Y-77500000D01*
X187284724Y-77509439D01*
X187324952Y-77536319D01*
X187863181Y-78074548D01*
X187890061Y-78114776D01*
X187899500Y-78162229D01*
X187899500Y-85376000D01*
X187882887Y-85438000D01*
X187837500Y-85483387D01*
X187775500Y-85500000D01*
X179124000Y-85500000D01*
X179062000Y-85483387D01*
X179016613Y-85438000D01*
X179000000Y-85376000D01*
X179000000Y-74500001D01*
X178999999Y-74499999D01*
X165500000Y-61000000D01*
X137425902Y-61000000D01*
X137409717Y-60998939D01*
X137394584Y-60996946D01*
X137376001Y-60994500D01*
X137376000Y-60994500D01*
X132051362Y-60994500D01*
X132001581Y-60999403D01*
X131989427Y-61000000D01*
X131499999Y-61000000D01*
X128500000Y-63999999D01*
X128500000Y-64489427D01*
X128499403Y-64501581D01*
X128494500Y-64551362D01*
X128494500Y-97876001D01*
X128498939Y-97909716D01*
X128500000Y-97925902D01*
X128500000Y-98500000D01*
X129074098Y-98500000D01*
X129090282Y-98501060D01*
X129105415Y-98503053D01*
X129123999Y-98505500D01*
X134876000Y-98505500D01*
X134938000Y-98522113D01*
X134983387Y-98567500D01*
X135000000Y-98629500D01*
X135000000Y-135876000D01*
X134983387Y-135938000D01*
X134938000Y-135983387D01*
X134876000Y-136000000D01*
X118624768Y-136000000D01*
X118562547Y-135983259D01*
X118517127Y-135937558D01*
X118500770Y-135875235D01*
X118861111Y-77500000D01*
X118993063Y-56123734D01*
X119009930Y-56062059D01*
X119055282Y-56016986D01*
X119117061Y-56000500D01*
X183376000Y-56000500D01*
X183438000Y-56017113D01*
G37*
%TD.AperFunction*%
%TD*%
%TA.AperFunction,Conductor*%
%TO.N,load*%
G36*
X137438000Y-61516613D02*
G01*
X137483387Y-61562000D01*
X137500000Y-61624000D01*
X137500000Y-81500000D01*
X138500000Y-82500000D01*
X141876000Y-82500000D01*
X141938000Y-82516613D01*
X141983387Y-82562000D01*
X142000000Y-82624000D01*
X142000000Y-87439353D01*
X141987391Y-87493833D01*
X141952129Y-87537233D01*
X137823608Y-90748303D01*
X137806666Y-90757671D01*
X137733228Y-90805970D01*
X137730190Y-90807905D01*
X137665281Y-90847943D01*
X137650165Y-90860256D01*
X137597849Y-90915707D01*
X137595336Y-90918295D01*
X137566800Y-90946830D01*
X137555250Y-90957026D01*
X137499999Y-90999999D01*
X137496036Y-91008104D01*
X137472326Y-91041304D01*
X136014358Y-92499272D01*
X136000727Y-92511053D01*
X135981467Y-92525392D01*
X135949633Y-92563329D01*
X135942341Y-92571289D01*
X135938408Y-92575222D01*
X135919176Y-92599545D01*
X135916902Y-92602337D01*
X135867894Y-92660744D01*
X135857418Y-92677187D01*
X135825192Y-92746294D01*
X135823622Y-92749536D01*
X135789393Y-92817692D01*
X135782996Y-92836098D01*
X135767573Y-92910788D01*
X135766793Y-92914305D01*
X135749208Y-92988505D01*
X135747229Y-93007878D01*
X135749448Y-93084131D01*
X135749500Y-93087737D01*
X135749500Y-97876000D01*
X135732887Y-97938000D01*
X135687500Y-97983387D01*
X135625500Y-98000000D01*
X129124000Y-98000000D01*
X129062000Y-97983387D01*
X129016613Y-97938000D01*
X129000000Y-97876000D01*
X129000000Y-64551362D01*
X129009439Y-64503909D01*
X129036319Y-64463681D01*
X131963681Y-61536319D01*
X132003909Y-61509439D01*
X132051362Y-61500000D01*
X137376000Y-61500000D01*
X137438000Y-61516613D01*
G37*
%TD.AperFunction*%
%TD*%
M02*
