G04 #@! TF.GenerationSoftware,KiCad,Pcbnew,8.0.6-8.0.6-0~ubuntu24.04.1*
G04 #@! TF.CreationDate,2024-10-18T15:37:14+01:00*
G04 #@! TF.ProjectId,PowerDelivery,506f7765-7244-4656-9c69-766572792e6b,rev?*
G04 #@! TF.SameCoordinates,Original*
G04 #@! TF.FileFunction,Legend,Top*
G04 #@! TF.FilePolarity,Positive*
%FSLAX46Y46*%
G04 Gerber Fmt 4.6, Leading zero omitted, Abs format (unit mm)*
G04 Created by KiCad (PCBNEW 8.0.6-8.0.6-0~ubuntu24.04.1) date 2024-10-18 15:37:14*
%MOMM*%
%LPD*%
G01*
G04 APERTURE LIST*
G04 Aperture macros list*
%AMRoundRect*
0 Rectangle with rounded corners*
0 $1 Rounding radius*
0 $2 $3 $4 $5 $6 $7 $8 $9 X,Y pos of 4 corners*
0 Add a 4 corners polygon primitive as box body*
4,1,4,$2,$3,$4,$5,$6,$7,$8,$9,$2,$3,0*
0 Add four circle primitives for the rounded corners*
1,1,$1+$1,$2,$3*
1,1,$1+$1,$4,$5*
1,1,$1+$1,$6,$7*
1,1,$1+$1,$8,$9*
0 Add four rect primitives between the rounded corners*
20,1,$1+$1,$2,$3,$4,$5,0*
20,1,$1+$1,$4,$5,$6,$7,0*
20,1,$1+$1,$6,$7,$8,$9,0*
20,1,$1+$1,$8,$9,$2,$3,0*%
G04 Aperture macros list end*
%ADD10C,0.200000*%
%ADD11C,0.150000*%
%ADD12C,0.300000*%
%ADD13C,0.120000*%
%ADD14C,0.000000*%
%ADD15RoundRect,0.250001X-1.399999X1.099999X-1.399999X-1.099999X1.399999X-1.099999X1.399999X1.099999X0*%
%ADD16O,3.300000X2.700000*%
%ADD17C,1.600000*%
%ADD18O,1.600000X1.600000*%
%ADD19R,3.000000X3.000000*%
%ADD20C,3.000000*%
%ADD21R,1.600000X1.600000*%
%ADD22R,2.200000X2.200000*%
%ADD23O,2.200000X2.200000*%
%ADD24C,2.400000*%
%ADD25O,2.400000X2.400000*%
%ADD26C,1.440000*%
%ADD27R,1.500000X1.500000*%
%ADD28C,1.500000*%
%ADD29C,5.700000*%
%ADD30O,3.500000X3.500000*%
%ADD31R,2.000000X1.905000*%
%ADD32O,2.000000X1.905000*%
%ADD33R,1.800000X1.800000*%
%ADD34C,1.800000*%
%ADD35R,1.700000X1.700000*%
%ADD36O,1.700000X1.700000*%
G04 APERTURE END LIST*
D10*
X183274435Y-103806028D02*
X183774435Y-105306028D01*
X183774435Y-105306028D02*
X184274435Y-103806028D01*
X184417292Y-105448885D02*
X185560149Y-105448885D01*
X185845863Y-105234600D02*
X186060149Y-105306028D01*
X186060149Y-105306028D02*
X186417291Y-105306028D01*
X186417291Y-105306028D02*
X186560149Y-105234600D01*
X186560149Y-105234600D02*
X186631577Y-105163171D01*
X186631577Y-105163171D02*
X186703006Y-105020314D01*
X186703006Y-105020314D02*
X186703006Y-104877457D01*
X186703006Y-104877457D02*
X186631577Y-104734600D01*
X186631577Y-104734600D02*
X186560149Y-104663171D01*
X186560149Y-104663171D02*
X186417291Y-104591742D01*
X186417291Y-104591742D02*
X186131577Y-104520314D01*
X186131577Y-104520314D02*
X185988720Y-104448885D01*
X185988720Y-104448885D02*
X185917291Y-104377457D01*
X185917291Y-104377457D02*
X185845863Y-104234600D01*
X185845863Y-104234600D02*
X185845863Y-104091742D01*
X185845863Y-104091742D02*
X185917291Y-103948885D01*
X185917291Y-103948885D02*
X185988720Y-103877457D01*
X185988720Y-103877457D02*
X186131577Y-103806028D01*
X186131577Y-103806028D02*
X186488720Y-103806028D01*
X186488720Y-103806028D02*
X186703006Y-103877457D01*
X187345862Y-104520314D02*
X187845862Y-104520314D01*
X188060148Y-105306028D02*
X187345862Y-105306028D01*
X187345862Y-105306028D02*
X187345862Y-103806028D01*
X187345862Y-103806028D02*
X188060148Y-103806028D01*
X188703005Y-105306028D02*
X188703005Y-103806028D01*
X188703005Y-103806028D02*
X189560148Y-105306028D01*
X189560148Y-105306028D02*
X189560148Y-103806028D01*
X190203006Y-105234600D02*
X190417292Y-105306028D01*
X190417292Y-105306028D02*
X190774434Y-105306028D01*
X190774434Y-105306028D02*
X190917292Y-105234600D01*
X190917292Y-105234600D02*
X190988720Y-105163171D01*
X190988720Y-105163171D02*
X191060149Y-105020314D01*
X191060149Y-105020314D02*
X191060149Y-104877457D01*
X191060149Y-104877457D02*
X190988720Y-104734600D01*
X190988720Y-104734600D02*
X190917292Y-104663171D01*
X190917292Y-104663171D02*
X190774434Y-104591742D01*
X190774434Y-104591742D02*
X190488720Y-104520314D01*
X190488720Y-104520314D02*
X190345863Y-104448885D01*
X190345863Y-104448885D02*
X190274434Y-104377457D01*
X190274434Y-104377457D02*
X190203006Y-104234600D01*
X190203006Y-104234600D02*
X190203006Y-104091742D01*
X190203006Y-104091742D02*
X190274434Y-103948885D01*
X190274434Y-103948885D02*
X190345863Y-103877457D01*
X190345863Y-103877457D02*
X190488720Y-103806028D01*
X190488720Y-103806028D02*
X190845863Y-103806028D01*
X190845863Y-103806028D02*
X191060149Y-103877457D01*
X183417292Y-102377457D02*
X184131578Y-102377457D01*
X183274435Y-102806028D02*
X183774435Y-101306028D01*
X183774435Y-101306028D02*
X184274435Y-102806028D01*
X184417292Y-102948885D02*
X185560149Y-102948885D01*
X185845863Y-102734600D02*
X186060149Y-102806028D01*
X186060149Y-102806028D02*
X186417291Y-102806028D01*
X186417291Y-102806028D02*
X186560149Y-102734600D01*
X186560149Y-102734600D02*
X186631577Y-102663171D01*
X186631577Y-102663171D02*
X186703006Y-102520314D01*
X186703006Y-102520314D02*
X186703006Y-102377457D01*
X186703006Y-102377457D02*
X186631577Y-102234600D01*
X186631577Y-102234600D02*
X186560149Y-102163171D01*
X186560149Y-102163171D02*
X186417291Y-102091742D01*
X186417291Y-102091742D02*
X186131577Y-102020314D01*
X186131577Y-102020314D02*
X185988720Y-101948885D01*
X185988720Y-101948885D02*
X185917291Y-101877457D01*
X185917291Y-101877457D02*
X185845863Y-101734600D01*
X185845863Y-101734600D02*
X185845863Y-101591742D01*
X185845863Y-101591742D02*
X185917291Y-101448885D01*
X185917291Y-101448885D02*
X185988720Y-101377457D01*
X185988720Y-101377457D02*
X186131577Y-101306028D01*
X186131577Y-101306028D02*
X186488720Y-101306028D01*
X186488720Y-101306028D02*
X186703006Y-101377457D01*
X187345862Y-102020314D02*
X187845862Y-102020314D01*
X188060148Y-102806028D02*
X187345862Y-102806028D01*
X187345862Y-102806028D02*
X187345862Y-101306028D01*
X187345862Y-101306028D02*
X188060148Y-101306028D01*
X188703005Y-102806028D02*
X188703005Y-101306028D01*
X188703005Y-101306028D02*
X189560148Y-102806028D01*
X189560148Y-102806028D02*
X189560148Y-101306028D01*
X190203006Y-102734600D02*
X190417292Y-102806028D01*
X190417292Y-102806028D02*
X190774434Y-102806028D01*
X190774434Y-102806028D02*
X190917292Y-102734600D01*
X190917292Y-102734600D02*
X190988720Y-102663171D01*
X190988720Y-102663171D02*
X191060149Y-102520314D01*
X191060149Y-102520314D02*
X191060149Y-102377457D01*
X191060149Y-102377457D02*
X190988720Y-102234600D01*
X190988720Y-102234600D02*
X190917292Y-102163171D01*
X190917292Y-102163171D02*
X190774434Y-102091742D01*
X190774434Y-102091742D02*
X190488720Y-102020314D01*
X190488720Y-102020314D02*
X190345863Y-101948885D01*
X190345863Y-101948885D02*
X190274434Y-101877457D01*
X190274434Y-101877457D02*
X190203006Y-101734600D01*
X190203006Y-101734600D02*
X190203006Y-101591742D01*
X190203006Y-101591742D02*
X190274434Y-101448885D01*
X190274434Y-101448885D02*
X190345863Y-101377457D01*
X190345863Y-101377457D02*
X190488720Y-101306028D01*
X190488720Y-101306028D02*
X190845863Y-101306028D01*
X190845863Y-101306028D02*
X191060149Y-101377457D01*
X185488720Y-99520314D02*
X184988720Y-99520314D01*
X184988720Y-100306028D02*
X184988720Y-98806028D01*
X184988720Y-98806028D02*
X185703006Y-98806028D01*
X186203006Y-99877457D02*
X186917292Y-99877457D01*
X186060149Y-100306028D02*
X186560149Y-98806028D01*
X186560149Y-98806028D02*
X187060149Y-100306028D01*
X187560148Y-98806028D02*
X187560148Y-100020314D01*
X187560148Y-100020314D02*
X187631577Y-100163171D01*
X187631577Y-100163171D02*
X187703006Y-100234600D01*
X187703006Y-100234600D02*
X187845863Y-100306028D01*
X187845863Y-100306028D02*
X188131577Y-100306028D01*
X188131577Y-100306028D02*
X188274434Y-100234600D01*
X188274434Y-100234600D02*
X188345863Y-100163171D01*
X188345863Y-100163171D02*
X188417291Y-100020314D01*
X188417291Y-100020314D02*
X188417291Y-98806028D01*
X189845863Y-100306028D02*
X189131577Y-100306028D01*
X189131577Y-100306028D02*
X189131577Y-98806028D01*
X190131578Y-98806028D02*
X190988721Y-98806028D01*
X190560149Y-100306028D02*
X190560149Y-98806028D01*
X184917292Y-97734600D02*
X185131578Y-97806028D01*
X185131578Y-97806028D02*
X185488720Y-97806028D01*
X185488720Y-97806028D02*
X185631578Y-97734600D01*
X185631578Y-97734600D02*
X185703006Y-97663171D01*
X185703006Y-97663171D02*
X185774435Y-97520314D01*
X185774435Y-97520314D02*
X185774435Y-97377457D01*
X185774435Y-97377457D02*
X185703006Y-97234600D01*
X185703006Y-97234600D02*
X185631578Y-97163171D01*
X185631578Y-97163171D02*
X185488720Y-97091742D01*
X185488720Y-97091742D02*
X185203006Y-97020314D01*
X185203006Y-97020314D02*
X185060149Y-96948885D01*
X185060149Y-96948885D02*
X184988720Y-96877457D01*
X184988720Y-96877457D02*
X184917292Y-96734600D01*
X184917292Y-96734600D02*
X184917292Y-96591742D01*
X184917292Y-96591742D02*
X184988720Y-96448885D01*
X184988720Y-96448885D02*
X185060149Y-96377457D01*
X185060149Y-96377457D02*
X185203006Y-96306028D01*
X185203006Y-96306028D02*
X185560149Y-96306028D01*
X185560149Y-96306028D02*
X185774435Y-96377457D01*
X186417291Y-97806028D02*
X186417291Y-96306028D01*
X187917292Y-96377457D02*
X187774435Y-96306028D01*
X187774435Y-96306028D02*
X187560149Y-96306028D01*
X187560149Y-96306028D02*
X187345863Y-96377457D01*
X187345863Y-96377457D02*
X187203006Y-96520314D01*
X187203006Y-96520314D02*
X187131577Y-96663171D01*
X187131577Y-96663171D02*
X187060149Y-96948885D01*
X187060149Y-96948885D02*
X187060149Y-97163171D01*
X187060149Y-97163171D02*
X187131577Y-97448885D01*
X187131577Y-97448885D02*
X187203006Y-97591742D01*
X187203006Y-97591742D02*
X187345863Y-97734600D01*
X187345863Y-97734600D02*
X187560149Y-97806028D01*
X187560149Y-97806028D02*
X187703006Y-97806028D01*
X187703006Y-97806028D02*
X187917292Y-97734600D01*
X187917292Y-97734600D02*
X187988720Y-97663171D01*
X187988720Y-97663171D02*
X187988720Y-97163171D01*
X187988720Y-97163171D02*
X187703006Y-97163171D01*
X188274435Y-97948885D02*
X189417292Y-97948885D01*
X189774434Y-97806028D02*
X189774434Y-96306028D01*
X190488720Y-97806028D02*
X190488720Y-96306028D01*
X190488720Y-96306028D02*
X191345863Y-97806028D01*
X191345863Y-97806028D02*
X191345863Y-96306028D01*
X186845863Y-93806028D02*
X187774435Y-93806028D01*
X187774435Y-93806028D02*
X187274435Y-94377457D01*
X187274435Y-94377457D02*
X187488720Y-94377457D01*
X187488720Y-94377457D02*
X187631578Y-94448885D01*
X187631578Y-94448885D02*
X187703006Y-94520314D01*
X187703006Y-94520314D02*
X187774435Y-94663171D01*
X187774435Y-94663171D02*
X187774435Y-95020314D01*
X187774435Y-95020314D02*
X187703006Y-95163171D01*
X187703006Y-95163171D02*
X187631578Y-95234600D01*
X187631578Y-95234600D02*
X187488720Y-95306028D01*
X187488720Y-95306028D02*
X187060149Y-95306028D01*
X187060149Y-95306028D02*
X186917292Y-95234600D01*
X186917292Y-95234600D02*
X186845863Y-95163171D01*
X188417291Y-95163171D02*
X188488720Y-95234600D01*
X188488720Y-95234600D02*
X188417291Y-95306028D01*
X188417291Y-95306028D02*
X188345863Y-95234600D01*
X188345863Y-95234600D02*
X188417291Y-95163171D01*
X188417291Y-95163171D02*
X188417291Y-95306028D01*
X188988720Y-93806028D02*
X189917292Y-93806028D01*
X189917292Y-93806028D02*
X189417292Y-94377457D01*
X189417292Y-94377457D02*
X189631577Y-94377457D01*
X189631577Y-94377457D02*
X189774435Y-94448885D01*
X189774435Y-94448885D02*
X189845863Y-94520314D01*
X189845863Y-94520314D02*
X189917292Y-94663171D01*
X189917292Y-94663171D02*
X189917292Y-95020314D01*
X189917292Y-95020314D02*
X189845863Y-95163171D01*
X189845863Y-95163171D02*
X189774435Y-95234600D01*
X189774435Y-95234600D02*
X189631577Y-95306028D01*
X189631577Y-95306028D02*
X189203006Y-95306028D01*
X189203006Y-95306028D02*
X189060149Y-95234600D01*
X189060149Y-95234600D02*
X188988720Y-95163171D01*
X190345863Y-93806028D02*
X190845863Y-95306028D01*
X190845863Y-95306028D02*
X191345863Y-93806028D01*
X188274435Y-91377457D02*
X188131578Y-91306028D01*
X188131578Y-91306028D02*
X187917292Y-91306028D01*
X187917292Y-91306028D02*
X187703006Y-91377457D01*
X187703006Y-91377457D02*
X187560149Y-91520314D01*
X187560149Y-91520314D02*
X187488720Y-91663171D01*
X187488720Y-91663171D02*
X187417292Y-91948885D01*
X187417292Y-91948885D02*
X187417292Y-92163171D01*
X187417292Y-92163171D02*
X187488720Y-92448885D01*
X187488720Y-92448885D02*
X187560149Y-92591742D01*
X187560149Y-92591742D02*
X187703006Y-92734600D01*
X187703006Y-92734600D02*
X187917292Y-92806028D01*
X187917292Y-92806028D02*
X188060149Y-92806028D01*
X188060149Y-92806028D02*
X188274435Y-92734600D01*
X188274435Y-92734600D02*
X188345863Y-92663171D01*
X188345863Y-92663171D02*
X188345863Y-92163171D01*
X188345863Y-92163171D02*
X188060149Y-92163171D01*
X188988720Y-92806028D02*
X188988720Y-91306028D01*
X188988720Y-91306028D02*
X189845863Y-92806028D01*
X189845863Y-92806028D02*
X189845863Y-91306028D01*
X190560149Y-92806028D02*
X190560149Y-91306028D01*
X190560149Y-91306028D02*
X190917292Y-91306028D01*
X190917292Y-91306028D02*
X191131578Y-91377457D01*
X191131578Y-91377457D02*
X191274435Y-91520314D01*
X191274435Y-91520314D02*
X191345864Y-91663171D01*
X191345864Y-91663171D02*
X191417292Y-91948885D01*
X191417292Y-91948885D02*
X191417292Y-92163171D01*
X191417292Y-92163171D02*
X191345864Y-92448885D01*
X191345864Y-92448885D02*
X191274435Y-92591742D01*
X191274435Y-92591742D02*
X191131578Y-92734600D01*
X191131578Y-92734600D02*
X190917292Y-92806028D01*
X190917292Y-92806028D02*
X190560149Y-92806028D01*
D11*
X113500000Y-126500000D02*
X114500000Y-126500000D01*
X114000000Y-126500000D02*
X113500000Y-126500000D01*
X114000000Y-123000000D02*
X114000000Y-126500000D01*
X113500000Y-104000000D02*
X114500000Y-104000000D01*
X114000000Y-104000000D02*
X113500000Y-104000000D01*
X114000000Y-107500000D02*
X114000000Y-104000000D01*
X113500000Y-70500000D02*
X114500000Y-70500000D01*
X114000000Y-70500000D02*
X113500000Y-70500000D01*
X114000000Y-74000000D02*
X114000000Y-70500000D01*
X113500000Y-93000000D02*
X114500000Y-93000000D01*
X114000000Y-93000000D02*
X113500000Y-93000000D01*
X114000000Y-89500000D02*
X114000000Y-93000000D01*
X113630180Y-74836779D02*
X114630180Y-74836779D01*
X114153990Y-74836779D02*
X114153990Y-75408207D01*
X113630180Y-75408207D02*
X114630180Y-75408207D01*
X113677800Y-76265350D02*
X113630180Y-76170112D01*
X113630180Y-76170112D02*
X113630180Y-75979636D01*
X113630180Y-75979636D02*
X113677800Y-75884398D01*
X113677800Y-75884398D02*
X113773038Y-75836779D01*
X113773038Y-75836779D02*
X114153990Y-75836779D01*
X114153990Y-75836779D02*
X114249228Y-75884398D01*
X114249228Y-75884398D02*
X114296847Y-75979636D01*
X114296847Y-75979636D02*
X114296847Y-76170112D01*
X114296847Y-76170112D02*
X114249228Y-76265350D01*
X114249228Y-76265350D02*
X114153990Y-76312969D01*
X114153990Y-76312969D02*
X114058752Y-76312969D01*
X114058752Y-76312969D02*
X113963514Y-75836779D01*
X113630180Y-77170112D02*
X114153990Y-77170112D01*
X114153990Y-77170112D02*
X114249228Y-77122493D01*
X114249228Y-77122493D02*
X114296847Y-77027255D01*
X114296847Y-77027255D02*
X114296847Y-76836779D01*
X114296847Y-76836779D02*
X114249228Y-76741541D01*
X113677800Y-77170112D02*
X113630180Y-77074874D01*
X113630180Y-77074874D02*
X113630180Y-76836779D01*
X113630180Y-76836779D02*
X113677800Y-76741541D01*
X113677800Y-76741541D02*
X113773038Y-76693922D01*
X113773038Y-76693922D02*
X113868276Y-76693922D01*
X113868276Y-76693922D02*
X113963514Y-76741541D01*
X113963514Y-76741541D02*
X114011133Y-76836779D01*
X114011133Y-76836779D02*
X114011133Y-77074874D01*
X114011133Y-77074874D02*
X114058752Y-77170112D01*
X114296847Y-77503446D02*
X114296847Y-77884398D01*
X114630180Y-77646303D02*
X113773038Y-77646303D01*
X113773038Y-77646303D02*
X113677800Y-77693922D01*
X113677800Y-77693922D02*
X113630180Y-77789160D01*
X113630180Y-77789160D02*
X113630180Y-77884398D01*
X113630180Y-78217732D02*
X114296847Y-78217732D01*
X114630180Y-78217732D02*
X114582561Y-78170113D01*
X114582561Y-78170113D02*
X114534942Y-78217732D01*
X114534942Y-78217732D02*
X114582561Y-78265351D01*
X114582561Y-78265351D02*
X114630180Y-78217732D01*
X114630180Y-78217732D02*
X114534942Y-78217732D01*
X114296847Y-78693922D02*
X113630180Y-78693922D01*
X114201609Y-78693922D02*
X114249228Y-78741541D01*
X114249228Y-78741541D02*
X114296847Y-78836779D01*
X114296847Y-78836779D02*
X114296847Y-78979636D01*
X114296847Y-78979636D02*
X114249228Y-79074874D01*
X114249228Y-79074874D02*
X114153990Y-79122493D01*
X114153990Y-79122493D02*
X113630180Y-79122493D01*
X114296847Y-80027255D02*
X113487323Y-80027255D01*
X113487323Y-80027255D02*
X113392085Y-79979636D01*
X113392085Y-79979636D02*
X113344466Y-79932017D01*
X113344466Y-79932017D02*
X113296847Y-79836779D01*
X113296847Y-79836779D02*
X113296847Y-79693922D01*
X113296847Y-79693922D02*
X113344466Y-79598684D01*
X113677800Y-80027255D02*
X113630180Y-79932017D01*
X113630180Y-79932017D02*
X113630180Y-79741541D01*
X113630180Y-79741541D02*
X113677800Y-79646303D01*
X113677800Y-79646303D02*
X113725419Y-79598684D01*
X113725419Y-79598684D02*
X113820657Y-79551065D01*
X113820657Y-79551065D02*
X114106371Y-79551065D01*
X114106371Y-79551065D02*
X114201609Y-79598684D01*
X114201609Y-79598684D02*
X114249228Y-79646303D01*
X114249228Y-79646303D02*
X114296847Y-79741541D01*
X114296847Y-79741541D02*
X114296847Y-79932017D01*
X114296847Y-79932017D02*
X114249228Y-80027255D01*
X114153990Y-81265351D02*
X114153990Y-81598684D01*
X113630180Y-81741541D02*
X113630180Y-81265351D01*
X113630180Y-81265351D02*
X114630180Y-81265351D01*
X114630180Y-81265351D02*
X114630180Y-81741541D01*
X113630180Y-82312970D02*
X113677800Y-82217732D01*
X113677800Y-82217732D02*
X113773038Y-82170113D01*
X113773038Y-82170113D02*
X114630180Y-82170113D01*
X113677800Y-83074875D02*
X113630180Y-82979637D01*
X113630180Y-82979637D02*
X113630180Y-82789161D01*
X113630180Y-82789161D02*
X113677800Y-82693923D01*
X113677800Y-82693923D02*
X113773038Y-82646304D01*
X113773038Y-82646304D02*
X114153990Y-82646304D01*
X114153990Y-82646304D02*
X114249228Y-82693923D01*
X114249228Y-82693923D02*
X114296847Y-82789161D01*
X114296847Y-82789161D02*
X114296847Y-82979637D01*
X114296847Y-82979637D02*
X114249228Y-83074875D01*
X114249228Y-83074875D02*
X114153990Y-83122494D01*
X114153990Y-83122494D02*
X114058752Y-83122494D01*
X114058752Y-83122494D02*
X113963514Y-82646304D01*
X113630180Y-83551066D02*
X114296847Y-83551066D01*
X114201609Y-83551066D02*
X114249228Y-83598685D01*
X114249228Y-83598685D02*
X114296847Y-83693923D01*
X114296847Y-83693923D02*
X114296847Y-83836780D01*
X114296847Y-83836780D02*
X114249228Y-83932018D01*
X114249228Y-83932018D02*
X114153990Y-83979637D01*
X114153990Y-83979637D02*
X113630180Y-83979637D01*
X114153990Y-83979637D02*
X114249228Y-84027256D01*
X114249228Y-84027256D02*
X114296847Y-84122494D01*
X114296847Y-84122494D02*
X114296847Y-84265351D01*
X114296847Y-84265351D02*
X114249228Y-84360590D01*
X114249228Y-84360590D02*
X114153990Y-84408209D01*
X114153990Y-84408209D02*
X113630180Y-84408209D01*
X113677800Y-85265351D02*
X113630180Y-85170113D01*
X113630180Y-85170113D02*
X113630180Y-84979637D01*
X113630180Y-84979637D02*
X113677800Y-84884399D01*
X113677800Y-84884399D02*
X113773038Y-84836780D01*
X113773038Y-84836780D02*
X114153990Y-84836780D01*
X114153990Y-84836780D02*
X114249228Y-84884399D01*
X114249228Y-84884399D02*
X114296847Y-84979637D01*
X114296847Y-84979637D02*
X114296847Y-85170113D01*
X114296847Y-85170113D02*
X114249228Y-85265351D01*
X114249228Y-85265351D02*
X114153990Y-85312970D01*
X114153990Y-85312970D02*
X114058752Y-85312970D01*
X114058752Y-85312970D02*
X113963514Y-84836780D01*
X114296847Y-85741542D02*
X113630180Y-85741542D01*
X114201609Y-85741542D02*
X114249228Y-85789161D01*
X114249228Y-85789161D02*
X114296847Y-85884399D01*
X114296847Y-85884399D02*
X114296847Y-86027256D01*
X114296847Y-86027256D02*
X114249228Y-86122494D01*
X114249228Y-86122494D02*
X114153990Y-86170113D01*
X114153990Y-86170113D02*
X113630180Y-86170113D01*
X114296847Y-86503447D02*
X114296847Y-86884399D01*
X114630180Y-86646304D02*
X113773038Y-86646304D01*
X113773038Y-86646304D02*
X113677800Y-86693923D01*
X113677800Y-86693923D02*
X113630180Y-86789161D01*
X113630180Y-86789161D02*
X113630180Y-86884399D01*
X114011133Y-87979638D02*
X114011133Y-88741543D01*
X113630180Y-108336779D02*
X114630180Y-108336779D01*
X114153990Y-108336779D02*
X114153990Y-108908207D01*
X113630180Y-108908207D02*
X114630180Y-108908207D01*
X113677800Y-109765350D02*
X113630180Y-109670112D01*
X113630180Y-109670112D02*
X113630180Y-109479636D01*
X113630180Y-109479636D02*
X113677800Y-109384398D01*
X113677800Y-109384398D02*
X113773038Y-109336779D01*
X113773038Y-109336779D02*
X114153990Y-109336779D01*
X114153990Y-109336779D02*
X114249228Y-109384398D01*
X114249228Y-109384398D02*
X114296847Y-109479636D01*
X114296847Y-109479636D02*
X114296847Y-109670112D01*
X114296847Y-109670112D02*
X114249228Y-109765350D01*
X114249228Y-109765350D02*
X114153990Y-109812969D01*
X114153990Y-109812969D02*
X114058752Y-109812969D01*
X114058752Y-109812969D02*
X113963514Y-109336779D01*
X113630180Y-110670112D02*
X114153990Y-110670112D01*
X114153990Y-110670112D02*
X114249228Y-110622493D01*
X114249228Y-110622493D02*
X114296847Y-110527255D01*
X114296847Y-110527255D02*
X114296847Y-110336779D01*
X114296847Y-110336779D02*
X114249228Y-110241541D01*
X113677800Y-110670112D02*
X113630180Y-110574874D01*
X113630180Y-110574874D02*
X113630180Y-110336779D01*
X113630180Y-110336779D02*
X113677800Y-110241541D01*
X113677800Y-110241541D02*
X113773038Y-110193922D01*
X113773038Y-110193922D02*
X113868276Y-110193922D01*
X113868276Y-110193922D02*
X113963514Y-110241541D01*
X113963514Y-110241541D02*
X114011133Y-110336779D01*
X114011133Y-110336779D02*
X114011133Y-110574874D01*
X114011133Y-110574874D02*
X114058752Y-110670112D01*
X114296847Y-111003446D02*
X114296847Y-111384398D01*
X114630180Y-111146303D02*
X113773038Y-111146303D01*
X113773038Y-111146303D02*
X113677800Y-111193922D01*
X113677800Y-111193922D02*
X113630180Y-111289160D01*
X113630180Y-111289160D02*
X113630180Y-111384398D01*
X113630180Y-111717732D02*
X114296847Y-111717732D01*
X114630180Y-111717732D02*
X114582561Y-111670113D01*
X114582561Y-111670113D02*
X114534942Y-111717732D01*
X114534942Y-111717732D02*
X114582561Y-111765351D01*
X114582561Y-111765351D02*
X114630180Y-111717732D01*
X114630180Y-111717732D02*
X114534942Y-111717732D01*
X114296847Y-112193922D02*
X113630180Y-112193922D01*
X114201609Y-112193922D02*
X114249228Y-112241541D01*
X114249228Y-112241541D02*
X114296847Y-112336779D01*
X114296847Y-112336779D02*
X114296847Y-112479636D01*
X114296847Y-112479636D02*
X114249228Y-112574874D01*
X114249228Y-112574874D02*
X114153990Y-112622493D01*
X114153990Y-112622493D02*
X113630180Y-112622493D01*
X114296847Y-113527255D02*
X113487323Y-113527255D01*
X113487323Y-113527255D02*
X113392085Y-113479636D01*
X113392085Y-113479636D02*
X113344466Y-113432017D01*
X113344466Y-113432017D02*
X113296847Y-113336779D01*
X113296847Y-113336779D02*
X113296847Y-113193922D01*
X113296847Y-113193922D02*
X113344466Y-113098684D01*
X113677800Y-113527255D02*
X113630180Y-113432017D01*
X113630180Y-113432017D02*
X113630180Y-113241541D01*
X113630180Y-113241541D02*
X113677800Y-113146303D01*
X113677800Y-113146303D02*
X113725419Y-113098684D01*
X113725419Y-113098684D02*
X113820657Y-113051065D01*
X113820657Y-113051065D02*
X114106371Y-113051065D01*
X114106371Y-113051065D02*
X114201609Y-113098684D01*
X114201609Y-113098684D02*
X114249228Y-113146303D01*
X114249228Y-113146303D02*
X114296847Y-113241541D01*
X114296847Y-113241541D02*
X114296847Y-113432017D01*
X114296847Y-113432017D02*
X114249228Y-113527255D01*
X114153990Y-114765351D02*
X114153990Y-115098684D01*
X113630180Y-115241541D02*
X113630180Y-114765351D01*
X113630180Y-114765351D02*
X114630180Y-114765351D01*
X114630180Y-114765351D02*
X114630180Y-115241541D01*
X113630180Y-115812970D02*
X113677800Y-115717732D01*
X113677800Y-115717732D02*
X113773038Y-115670113D01*
X113773038Y-115670113D02*
X114630180Y-115670113D01*
X113677800Y-116574875D02*
X113630180Y-116479637D01*
X113630180Y-116479637D02*
X113630180Y-116289161D01*
X113630180Y-116289161D02*
X113677800Y-116193923D01*
X113677800Y-116193923D02*
X113773038Y-116146304D01*
X113773038Y-116146304D02*
X114153990Y-116146304D01*
X114153990Y-116146304D02*
X114249228Y-116193923D01*
X114249228Y-116193923D02*
X114296847Y-116289161D01*
X114296847Y-116289161D02*
X114296847Y-116479637D01*
X114296847Y-116479637D02*
X114249228Y-116574875D01*
X114249228Y-116574875D02*
X114153990Y-116622494D01*
X114153990Y-116622494D02*
X114058752Y-116622494D01*
X114058752Y-116622494D02*
X113963514Y-116146304D01*
X113630180Y-117051066D02*
X114296847Y-117051066D01*
X114201609Y-117051066D02*
X114249228Y-117098685D01*
X114249228Y-117098685D02*
X114296847Y-117193923D01*
X114296847Y-117193923D02*
X114296847Y-117336780D01*
X114296847Y-117336780D02*
X114249228Y-117432018D01*
X114249228Y-117432018D02*
X114153990Y-117479637D01*
X114153990Y-117479637D02*
X113630180Y-117479637D01*
X114153990Y-117479637D02*
X114249228Y-117527256D01*
X114249228Y-117527256D02*
X114296847Y-117622494D01*
X114296847Y-117622494D02*
X114296847Y-117765351D01*
X114296847Y-117765351D02*
X114249228Y-117860590D01*
X114249228Y-117860590D02*
X114153990Y-117908209D01*
X114153990Y-117908209D02*
X113630180Y-117908209D01*
X113677800Y-118765351D02*
X113630180Y-118670113D01*
X113630180Y-118670113D02*
X113630180Y-118479637D01*
X113630180Y-118479637D02*
X113677800Y-118384399D01*
X113677800Y-118384399D02*
X113773038Y-118336780D01*
X113773038Y-118336780D02*
X114153990Y-118336780D01*
X114153990Y-118336780D02*
X114249228Y-118384399D01*
X114249228Y-118384399D02*
X114296847Y-118479637D01*
X114296847Y-118479637D02*
X114296847Y-118670113D01*
X114296847Y-118670113D02*
X114249228Y-118765351D01*
X114249228Y-118765351D02*
X114153990Y-118812970D01*
X114153990Y-118812970D02*
X114058752Y-118812970D01*
X114058752Y-118812970D02*
X113963514Y-118336780D01*
X114296847Y-119241542D02*
X113630180Y-119241542D01*
X114201609Y-119241542D02*
X114249228Y-119289161D01*
X114249228Y-119289161D02*
X114296847Y-119384399D01*
X114296847Y-119384399D02*
X114296847Y-119527256D01*
X114296847Y-119527256D02*
X114249228Y-119622494D01*
X114249228Y-119622494D02*
X114153990Y-119670113D01*
X114153990Y-119670113D02*
X113630180Y-119670113D01*
X114296847Y-120003447D02*
X114296847Y-120384399D01*
X114630180Y-120146304D02*
X113773038Y-120146304D01*
X113773038Y-120146304D02*
X113677800Y-120193923D01*
X113677800Y-120193923D02*
X113630180Y-120289161D01*
X113630180Y-120289161D02*
X113630180Y-120384399D01*
X114011133Y-121479638D02*
X114011133Y-122241543D01*
X113630180Y-121860590D02*
X114392085Y-121860590D01*
D12*
X181079974Y-127380952D02*
X181079974Y-126999999D01*
X181079974Y-126999999D02*
X181175212Y-126809523D01*
X181175212Y-126809523D02*
X181365688Y-126619047D01*
X181365688Y-126619047D02*
X181746640Y-126523809D01*
X181746640Y-126523809D02*
X182413307Y-126523809D01*
X182413307Y-126523809D02*
X182794259Y-126619047D01*
X182794259Y-126619047D02*
X182984736Y-126809523D01*
X182984736Y-126809523D02*
X183079974Y-126999999D01*
X183079974Y-126999999D02*
X183079974Y-127380952D01*
X183079974Y-127380952D02*
X182984736Y-127571428D01*
X182984736Y-127571428D02*
X182794259Y-127761904D01*
X182794259Y-127761904D02*
X182413307Y-127857142D01*
X182413307Y-127857142D02*
X181746640Y-127857142D01*
X181746640Y-127857142D02*
X181365688Y-127761904D01*
X181365688Y-127761904D02*
X181175212Y-127571428D01*
X181175212Y-127571428D02*
X181079974Y-127380952D01*
X182984736Y-124809523D02*
X183079974Y-124999999D01*
X183079974Y-124999999D02*
X183079974Y-125380952D01*
X183079974Y-125380952D02*
X182984736Y-125571428D01*
X182984736Y-125571428D02*
X182889497Y-125666666D01*
X182889497Y-125666666D02*
X182699021Y-125761904D01*
X182699021Y-125761904D02*
X182127593Y-125761904D01*
X182127593Y-125761904D02*
X181937116Y-125666666D01*
X181937116Y-125666666D02*
X181841878Y-125571428D01*
X181841878Y-125571428D02*
X181746640Y-125380952D01*
X181746640Y-125380952D02*
X181746640Y-124999999D01*
X181746640Y-124999999D02*
X181841878Y-124809523D01*
X181746640Y-124238094D02*
X181746640Y-123476190D01*
X181079974Y-123952380D02*
X182794259Y-123952380D01*
X182794259Y-123952380D02*
X182984736Y-123857142D01*
X182984736Y-123857142D02*
X183079974Y-123666666D01*
X183079974Y-123666666D02*
X183079974Y-123476190D01*
X183079974Y-122523809D02*
X182984736Y-122714285D01*
X182984736Y-122714285D02*
X182889497Y-122809523D01*
X182889497Y-122809523D02*
X182699021Y-122904761D01*
X182699021Y-122904761D02*
X182127593Y-122904761D01*
X182127593Y-122904761D02*
X181937116Y-122809523D01*
X181937116Y-122809523D02*
X181841878Y-122714285D01*
X181841878Y-122714285D02*
X181746640Y-122523809D01*
X181746640Y-122523809D02*
X181746640Y-122238094D01*
X181746640Y-122238094D02*
X181841878Y-122047618D01*
X181841878Y-122047618D02*
X181937116Y-121952380D01*
X181937116Y-121952380D02*
X182127593Y-121857142D01*
X182127593Y-121857142D02*
X182699021Y-121857142D01*
X182699021Y-121857142D02*
X182889497Y-121952380D01*
X182889497Y-121952380D02*
X182984736Y-122047618D01*
X182984736Y-122047618D02*
X183079974Y-122238094D01*
X183079974Y-122238094D02*
X183079974Y-122523809D01*
X181746640Y-121285713D02*
X181746640Y-120523809D01*
X183079974Y-120999999D02*
X181365688Y-120999999D01*
X181365688Y-120999999D02*
X181175212Y-120904761D01*
X181175212Y-120904761D02*
X181079974Y-120714285D01*
X181079974Y-120714285D02*
X181079974Y-120523809D01*
X183079974Y-119571428D02*
X182984736Y-119761904D01*
X182984736Y-119761904D02*
X182889497Y-119857142D01*
X182889497Y-119857142D02*
X182699021Y-119952380D01*
X182699021Y-119952380D02*
X182127593Y-119952380D01*
X182127593Y-119952380D02*
X181937116Y-119857142D01*
X181937116Y-119857142D02*
X181841878Y-119761904D01*
X181841878Y-119761904D02*
X181746640Y-119571428D01*
X181746640Y-119571428D02*
X181746640Y-119285713D01*
X181746640Y-119285713D02*
X181841878Y-119095237D01*
X181841878Y-119095237D02*
X181937116Y-118999999D01*
X181937116Y-118999999D02*
X182127593Y-118904761D01*
X182127593Y-118904761D02*
X182699021Y-118904761D01*
X182699021Y-118904761D02*
X182889497Y-118999999D01*
X182889497Y-118999999D02*
X182984736Y-119095237D01*
X182984736Y-119095237D02*
X183079974Y-119285713D01*
X183079974Y-119285713D02*
X183079974Y-119571428D01*
X183079974Y-118047618D02*
X181746640Y-118047618D01*
X182127593Y-118047618D02*
X181937116Y-117952380D01*
X181937116Y-117952380D02*
X181841878Y-117857142D01*
X181841878Y-117857142D02*
X181746640Y-117666666D01*
X181746640Y-117666666D02*
X181746640Y-117476189D01*
X181746640Y-115952380D02*
X183365688Y-115952380D01*
X183365688Y-115952380D02*
X183556164Y-116047618D01*
X183556164Y-116047618D02*
X183651402Y-116142856D01*
X183651402Y-116142856D02*
X183746640Y-116333333D01*
X183746640Y-116333333D02*
X183746640Y-116619047D01*
X183746640Y-116619047D02*
X183651402Y-116809523D01*
X182984736Y-115952380D02*
X183079974Y-116142856D01*
X183079974Y-116142856D02*
X183079974Y-116523809D01*
X183079974Y-116523809D02*
X182984736Y-116714285D01*
X182984736Y-116714285D02*
X182889497Y-116809523D01*
X182889497Y-116809523D02*
X182699021Y-116904761D01*
X182699021Y-116904761D02*
X182127593Y-116904761D01*
X182127593Y-116904761D02*
X181937116Y-116809523D01*
X181937116Y-116809523D02*
X181841878Y-116714285D01*
X181841878Y-116714285D02*
X181746640Y-116523809D01*
X181746640Y-116523809D02*
X181746640Y-116142856D01*
X181746640Y-116142856D02*
X181841878Y-115952380D01*
X182984736Y-114238094D02*
X183079974Y-114428570D01*
X183079974Y-114428570D02*
X183079974Y-114809523D01*
X183079974Y-114809523D02*
X182984736Y-114999999D01*
X182984736Y-114999999D02*
X182794259Y-115095237D01*
X182794259Y-115095237D02*
X182032355Y-115095237D01*
X182032355Y-115095237D02*
X181841878Y-114999999D01*
X181841878Y-114999999D02*
X181746640Y-114809523D01*
X181746640Y-114809523D02*
X181746640Y-114428570D01*
X181746640Y-114428570D02*
X181841878Y-114238094D01*
X181841878Y-114238094D02*
X182032355Y-114142856D01*
X182032355Y-114142856D02*
X182222831Y-114142856D01*
X182222831Y-114142856D02*
X182413307Y-115095237D01*
X184966528Y-124857142D02*
X186966528Y-124857142D01*
X185061766Y-124857142D02*
X184966528Y-124666666D01*
X184966528Y-124666666D02*
X184966528Y-124285713D01*
X184966528Y-124285713D02*
X185061766Y-124095237D01*
X185061766Y-124095237D02*
X185157004Y-123999999D01*
X185157004Y-123999999D02*
X185347481Y-123904761D01*
X185347481Y-123904761D02*
X185918909Y-123904761D01*
X185918909Y-123904761D02*
X186109385Y-123999999D01*
X186109385Y-123999999D02*
X186204624Y-124095237D01*
X186204624Y-124095237D02*
X186299862Y-124285713D01*
X186299862Y-124285713D02*
X186299862Y-124666666D01*
X186299862Y-124666666D02*
X186204624Y-124857142D01*
X186299862Y-122761904D02*
X186204624Y-122952380D01*
X186204624Y-122952380D02*
X186109385Y-123047618D01*
X186109385Y-123047618D02*
X185918909Y-123142856D01*
X185918909Y-123142856D02*
X185347481Y-123142856D01*
X185347481Y-123142856D02*
X185157004Y-123047618D01*
X185157004Y-123047618D02*
X185061766Y-122952380D01*
X185061766Y-122952380D02*
X184966528Y-122761904D01*
X184966528Y-122761904D02*
X184966528Y-122476189D01*
X184966528Y-122476189D02*
X185061766Y-122285713D01*
X185061766Y-122285713D02*
X185157004Y-122190475D01*
X185157004Y-122190475D02*
X185347481Y-122095237D01*
X185347481Y-122095237D02*
X185918909Y-122095237D01*
X185918909Y-122095237D02*
X186109385Y-122190475D01*
X186109385Y-122190475D02*
X186204624Y-122285713D01*
X186204624Y-122285713D02*
X186299862Y-122476189D01*
X186299862Y-122476189D02*
X186299862Y-122761904D01*
X184966528Y-121428570D02*
X186299862Y-121047618D01*
X186299862Y-121047618D02*
X185347481Y-120666665D01*
X185347481Y-120666665D02*
X186299862Y-120285713D01*
X186299862Y-120285713D02*
X184966528Y-119904761D01*
X186204624Y-118380951D02*
X186299862Y-118571427D01*
X186299862Y-118571427D02*
X186299862Y-118952380D01*
X186299862Y-118952380D02*
X186204624Y-119142856D01*
X186204624Y-119142856D02*
X186014147Y-119238094D01*
X186014147Y-119238094D02*
X185252243Y-119238094D01*
X185252243Y-119238094D02*
X185061766Y-119142856D01*
X185061766Y-119142856D02*
X184966528Y-118952380D01*
X184966528Y-118952380D02*
X184966528Y-118571427D01*
X184966528Y-118571427D02*
X185061766Y-118380951D01*
X185061766Y-118380951D02*
X185252243Y-118285713D01*
X185252243Y-118285713D02*
X185442719Y-118285713D01*
X185442719Y-118285713D02*
X185633195Y-119238094D01*
X186299862Y-117428570D02*
X184966528Y-117428570D01*
X185347481Y-117428570D02*
X185157004Y-117333332D01*
X185157004Y-117333332D02*
X185061766Y-117238094D01*
X185061766Y-117238094D02*
X184966528Y-117047618D01*
X184966528Y-117047618D02*
X184966528Y-116857141D01*
X189519750Y-126190476D02*
X187519750Y-126190476D01*
X189424512Y-126190476D02*
X189519750Y-126380952D01*
X189519750Y-126380952D02*
X189519750Y-126761905D01*
X189519750Y-126761905D02*
X189424512Y-126952381D01*
X189424512Y-126952381D02*
X189329273Y-127047619D01*
X189329273Y-127047619D02*
X189138797Y-127142857D01*
X189138797Y-127142857D02*
X188567369Y-127142857D01*
X188567369Y-127142857D02*
X188376892Y-127047619D01*
X188376892Y-127047619D02*
X188281654Y-126952381D01*
X188281654Y-126952381D02*
X188186416Y-126761905D01*
X188186416Y-126761905D02*
X188186416Y-126380952D01*
X188186416Y-126380952D02*
X188281654Y-126190476D01*
X189424512Y-124476190D02*
X189519750Y-124666666D01*
X189519750Y-124666666D02*
X189519750Y-125047619D01*
X189519750Y-125047619D02*
X189424512Y-125238095D01*
X189424512Y-125238095D02*
X189234035Y-125333333D01*
X189234035Y-125333333D02*
X188472131Y-125333333D01*
X188472131Y-125333333D02*
X188281654Y-125238095D01*
X188281654Y-125238095D02*
X188186416Y-125047619D01*
X188186416Y-125047619D02*
X188186416Y-124666666D01*
X188186416Y-124666666D02*
X188281654Y-124476190D01*
X188281654Y-124476190D02*
X188472131Y-124380952D01*
X188472131Y-124380952D02*
X188662607Y-124380952D01*
X188662607Y-124380952D02*
X188853083Y-125333333D01*
X189519750Y-123238095D02*
X189424512Y-123428571D01*
X189424512Y-123428571D02*
X189234035Y-123523809D01*
X189234035Y-123523809D02*
X187519750Y-123523809D01*
X189519750Y-122476190D02*
X188186416Y-122476190D01*
X187519750Y-122476190D02*
X187614988Y-122571428D01*
X187614988Y-122571428D02*
X187710226Y-122476190D01*
X187710226Y-122476190D02*
X187614988Y-122380952D01*
X187614988Y-122380952D02*
X187519750Y-122476190D01*
X187519750Y-122476190D02*
X187710226Y-122476190D01*
X188186416Y-121714285D02*
X189519750Y-121238095D01*
X189519750Y-121238095D02*
X188186416Y-120761904D01*
X189424512Y-119238094D02*
X189519750Y-119428570D01*
X189519750Y-119428570D02*
X189519750Y-119809523D01*
X189519750Y-119809523D02*
X189424512Y-119999999D01*
X189424512Y-119999999D02*
X189234035Y-120095237D01*
X189234035Y-120095237D02*
X188472131Y-120095237D01*
X188472131Y-120095237D02*
X188281654Y-119999999D01*
X188281654Y-119999999D02*
X188186416Y-119809523D01*
X188186416Y-119809523D02*
X188186416Y-119428570D01*
X188186416Y-119428570D02*
X188281654Y-119238094D01*
X188281654Y-119238094D02*
X188472131Y-119142856D01*
X188472131Y-119142856D02*
X188662607Y-119142856D01*
X188662607Y-119142856D02*
X188853083Y-120095237D01*
X189519750Y-118285713D02*
X188186416Y-118285713D01*
X188567369Y-118285713D02*
X188376892Y-118190475D01*
X188376892Y-118190475D02*
X188281654Y-118095237D01*
X188281654Y-118095237D02*
X188186416Y-117904761D01*
X188186416Y-117904761D02*
X188186416Y-117714284D01*
X188186416Y-117238094D02*
X189519750Y-116761904D01*
X188186416Y-116285713D02*
X189519750Y-116761904D01*
X189519750Y-116761904D02*
X189995940Y-116952380D01*
X189995940Y-116952380D02*
X190091178Y-117047618D01*
X190091178Y-117047618D02*
X190186416Y-117238094D01*
X191406304Y-122428571D02*
X192739638Y-121952381D01*
X192739638Y-121952381D02*
X191406304Y-121476190D01*
X190739638Y-120904761D02*
X190739638Y-119666666D01*
X190739638Y-119666666D02*
X191501542Y-120333333D01*
X191501542Y-120333333D02*
X191501542Y-120047618D01*
X191501542Y-120047618D02*
X191596780Y-119857142D01*
X191596780Y-119857142D02*
X191692019Y-119761904D01*
X191692019Y-119761904D02*
X191882495Y-119666666D01*
X191882495Y-119666666D02*
X192358685Y-119666666D01*
X192358685Y-119666666D02*
X192549161Y-119761904D01*
X192549161Y-119761904D02*
X192644400Y-119857142D01*
X192644400Y-119857142D02*
X192739638Y-120047618D01*
X192739638Y-120047618D02*
X192739638Y-120619047D01*
X192739638Y-120619047D02*
X192644400Y-120809523D01*
X192644400Y-120809523D02*
X192549161Y-120904761D01*
D11*
X138666666Y-128954819D02*
X138666666Y-129669104D01*
X138666666Y-129669104D02*
X138619047Y-129811961D01*
X138619047Y-129811961D02*
X138523809Y-129907200D01*
X138523809Y-129907200D02*
X138380952Y-129954819D01*
X138380952Y-129954819D02*
X138285714Y-129954819D01*
X139571428Y-129288152D02*
X139571428Y-129954819D01*
X139333333Y-128907200D02*
X139095238Y-129621485D01*
X139095238Y-129621485D02*
X139714285Y-129621485D01*
X164857142Y-81954819D02*
X164523809Y-81478628D01*
X164285714Y-81954819D02*
X164285714Y-80954819D01*
X164285714Y-80954819D02*
X164666666Y-80954819D01*
X164666666Y-80954819D02*
X164761904Y-81002438D01*
X164761904Y-81002438D02*
X164809523Y-81050057D01*
X164809523Y-81050057D02*
X164857142Y-81145295D01*
X164857142Y-81145295D02*
X164857142Y-81288152D01*
X164857142Y-81288152D02*
X164809523Y-81383390D01*
X164809523Y-81383390D02*
X164761904Y-81431009D01*
X164761904Y-81431009D02*
X164666666Y-81478628D01*
X164666666Y-81478628D02*
X164285714Y-81478628D01*
X165809523Y-81954819D02*
X165238095Y-81954819D01*
X165523809Y-81954819D02*
X165523809Y-80954819D01*
X165523809Y-80954819D02*
X165428571Y-81097676D01*
X165428571Y-81097676D02*
X165333333Y-81192914D01*
X165333333Y-81192914D02*
X165238095Y-81240533D01*
X166428571Y-80954819D02*
X166523809Y-80954819D01*
X166523809Y-80954819D02*
X166619047Y-81002438D01*
X166619047Y-81002438D02*
X166666666Y-81050057D01*
X166666666Y-81050057D02*
X166714285Y-81145295D01*
X166714285Y-81145295D02*
X166761904Y-81335771D01*
X166761904Y-81335771D02*
X166761904Y-81573866D01*
X166761904Y-81573866D02*
X166714285Y-81764342D01*
X166714285Y-81764342D02*
X166666666Y-81859580D01*
X166666666Y-81859580D02*
X166619047Y-81907200D01*
X166619047Y-81907200D02*
X166523809Y-81954819D01*
X166523809Y-81954819D02*
X166428571Y-81954819D01*
X166428571Y-81954819D02*
X166333333Y-81907200D01*
X166333333Y-81907200D02*
X166285714Y-81859580D01*
X166285714Y-81859580D02*
X166238095Y-81764342D01*
X166238095Y-81764342D02*
X166190476Y-81573866D01*
X166190476Y-81573866D02*
X166190476Y-81335771D01*
X166190476Y-81335771D02*
X166238095Y-81145295D01*
X166238095Y-81145295D02*
X166285714Y-81050057D01*
X166285714Y-81050057D02*
X166333333Y-81002438D01*
X166333333Y-81002438D02*
X166428571Y-80954819D01*
X124534819Y-75833333D02*
X125249104Y-75833333D01*
X125249104Y-75833333D02*
X125391961Y-75880952D01*
X125391961Y-75880952D02*
X125487200Y-75976190D01*
X125487200Y-75976190D02*
X125534819Y-76119047D01*
X125534819Y-76119047D02*
X125534819Y-76214285D01*
X124534819Y-75452380D02*
X124534819Y-74833333D01*
X124534819Y-74833333D02*
X124915771Y-75166666D01*
X124915771Y-75166666D02*
X124915771Y-75023809D01*
X124915771Y-75023809D02*
X124963390Y-74928571D01*
X124963390Y-74928571D02*
X125011009Y-74880952D01*
X125011009Y-74880952D02*
X125106247Y-74833333D01*
X125106247Y-74833333D02*
X125344342Y-74833333D01*
X125344342Y-74833333D02*
X125439580Y-74880952D01*
X125439580Y-74880952D02*
X125487200Y-74928571D01*
X125487200Y-74928571D02*
X125534819Y-75023809D01*
X125534819Y-75023809D02*
X125534819Y-75309523D01*
X125534819Y-75309523D02*
X125487200Y-75404761D01*
X125487200Y-75404761D02*
X125439580Y-75452380D01*
X156883333Y-94359580D02*
X156835714Y-94407200D01*
X156835714Y-94407200D02*
X156692857Y-94454819D01*
X156692857Y-94454819D02*
X156597619Y-94454819D01*
X156597619Y-94454819D02*
X156454762Y-94407200D01*
X156454762Y-94407200D02*
X156359524Y-94311961D01*
X156359524Y-94311961D02*
X156311905Y-94216723D01*
X156311905Y-94216723D02*
X156264286Y-94026247D01*
X156264286Y-94026247D02*
X156264286Y-93883390D01*
X156264286Y-93883390D02*
X156311905Y-93692914D01*
X156311905Y-93692914D02*
X156359524Y-93597676D01*
X156359524Y-93597676D02*
X156454762Y-93502438D01*
X156454762Y-93502438D02*
X156597619Y-93454819D01*
X156597619Y-93454819D02*
X156692857Y-93454819D01*
X156692857Y-93454819D02*
X156835714Y-93502438D01*
X156835714Y-93502438D02*
X156883333Y-93550057D01*
X157788095Y-93454819D02*
X157311905Y-93454819D01*
X157311905Y-93454819D02*
X157264286Y-93931009D01*
X157264286Y-93931009D02*
X157311905Y-93883390D01*
X157311905Y-93883390D02*
X157407143Y-93835771D01*
X157407143Y-93835771D02*
X157645238Y-93835771D01*
X157645238Y-93835771D02*
X157740476Y-93883390D01*
X157740476Y-93883390D02*
X157788095Y-93931009D01*
X157788095Y-93931009D02*
X157835714Y-94026247D01*
X157835714Y-94026247D02*
X157835714Y-94264342D01*
X157835714Y-94264342D02*
X157788095Y-94359580D01*
X157788095Y-94359580D02*
X157740476Y-94407200D01*
X157740476Y-94407200D02*
X157645238Y-94454819D01*
X157645238Y-94454819D02*
X157407143Y-94454819D01*
X157407143Y-94454819D02*
X157311905Y-94407200D01*
X157311905Y-94407200D02*
X157264286Y-94359580D01*
X124534819Y-109333333D02*
X125249104Y-109333333D01*
X125249104Y-109333333D02*
X125391961Y-109380952D01*
X125391961Y-109380952D02*
X125487200Y-109476190D01*
X125487200Y-109476190D02*
X125534819Y-109619047D01*
X125534819Y-109619047D02*
X125534819Y-109714285D01*
X124534819Y-108952380D02*
X124534819Y-108285714D01*
X124534819Y-108285714D02*
X125534819Y-108714285D01*
X162238095Y-130454819D02*
X162238095Y-131264342D01*
X162238095Y-131264342D02*
X162285714Y-131359580D01*
X162285714Y-131359580D02*
X162333333Y-131407200D01*
X162333333Y-131407200D02*
X162428571Y-131454819D01*
X162428571Y-131454819D02*
X162619047Y-131454819D01*
X162619047Y-131454819D02*
X162714285Y-131407200D01*
X162714285Y-131407200D02*
X162761904Y-131359580D01*
X162761904Y-131359580D02*
X162809523Y-131264342D01*
X162809523Y-131264342D02*
X162809523Y-130454819D01*
X163809523Y-131454819D02*
X163238095Y-131454819D01*
X163523809Y-131454819D02*
X163523809Y-130454819D01*
X163523809Y-130454819D02*
X163428571Y-130597676D01*
X163428571Y-130597676D02*
X163333333Y-130692914D01*
X163333333Y-130692914D02*
X163238095Y-130740533D01*
X162261905Y-74454819D02*
X162261905Y-73454819D01*
X162261905Y-73454819D02*
X162500000Y-73454819D01*
X162500000Y-73454819D02*
X162642857Y-73502438D01*
X162642857Y-73502438D02*
X162738095Y-73597676D01*
X162738095Y-73597676D02*
X162785714Y-73692914D01*
X162785714Y-73692914D02*
X162833333Y-73883390D01*
X162833333Y-73883390D02*
X162833333Y-74026247D01*
X162833333Y-74026247D02*
X162785714Y-74216723D01*
X162785714Y-74216723D02*
X162738095Y-74311961D01*
X162738095Y-74311961D02*
X162642857Y-74407200D01*
X162642857Y-74407200D02*
X162500000Y-74454819D01*
X162500000Y-74454819D02*
X162261905Y-74454819D01*
X163785714Y-74454819D02*
X163214286Y-74454819D01*
X163500000Y-74454819D02*
X163500000Y-73454819D01*
X163500000Y-73454819D02*
X163404762Y-73597676D01*
X163404762Y-73597676D02*
X163309524Y-73692914D01*
X163309524Y-73692914D02*
X163214286Y-73740533D01*
X163454819Y-70451904D02*
X162454819Y-70451904D01*
X163454819Y-69880476D02*
X162883390Y-70309047D01*
X162454819Y-69880476D02*
X163026247Y-70451904D01*
X137333333Y-61454819D02*
X137000000Y-60978628D01*
X136761905Y-61454819D02*
X136761905Y-60454819D01*
X136761905Y-60454819D02*
X137142857Y-60454819D01*
X137142857Y-60454819D02*
X137238095Y-60502438D01*
X137238095Y-60502438D02*
X137285714Y-60550057D01*
X137285714Y-60550057D02*
X137333333Y-60645295D01*
X137333333Y-60645295D02*
X137333333Y-60788152D01*
X137333333Y-60788152D02*
X137285714Y-60883390D01*
X137285714Y-60883390D02*
X137238095Y-60931009D01*
X137238095Y-60931009D02*
X137142857Y-60978628D01*
X137142857Y-60978628D02*
X136761905Y-60978628D01*
X138190476Y-60454819D02*
X138000000Y-60454819D01*
X138000000Y-60454819D02*
X137904762Y-60502438D01*
X137904762Y-60502438D02*
X137857143Y-60550057D01*
X137857143Y-60550057D02*
X137761905Y-60692914D01*
X137761905Y-60692914D02*
X137714286Y-60883390D01*
X137714286Y-60883390D02*
X137714286Y-61264342D01*
X137714286Y-61264342D02*
X137761905Y-61359580D01*
X137761905Y-61359580D02*
X137809524Y-61407200D01*
X137809524Y-61407200D02*
X137904762Y-61454819D01*
X137904762Y-61454819D02*
X138095238Y-61454819D01*
X138095238Y-61454819D02*
X138190476Y-61407200D01*
X138190476Y-61407200D02*
X138238095Y-61359580D01*
X138238095Y-61359580D02*
X138285714Y-61264342D01*
X138285714Y-61264342D02*
X138285714Y-61026247D01*
X138285714Y-61026247D02*
X138238095Y-60931009D01*
X138238095Y-60931009D02*
X138190476Y-60883390D01*
X138190476Y-60883390D02*
X138095238Y-60835771D01*
X138095238Y-60835771D02*
X137904762Y-60835771D01*
X137904762Y-60835771D02*
X137809524Y-60883390D01*
X137809524Y-60883390D02*
X137761905Y-60931009D01*
X137761905Y-60931009D02*
X137714286Y-61026247D01*
X169857142Y-94454819D02*
X169523809Y-93978628D01*
X169285714Y-94454819D02*
X169285714Y-93454819D01*
X169285714Y-93454819D02*
X169666666Y-93454819D01*
X169666666Y-93454819D02*
X169761904Y-93502438D01*
X169761904Y-93502438D02*
X169809523Y-93550057D01*
X169809523Y-93550057D02*
X169857142Y-93645295D01*
X169857142Y-93645295D02*
X169857142Y-93788152D01*
X169857142Y-93788152D02*
X169809523Y-93883390D01*
X169809523Y-93883390D02*
X169761904Y-93931009D01*
X169761904Y-93931009D02*
X169666666Y-93978628D01*
X169666666Y-93978628D02*
X169285714Y-93978628D01*
X170809523Y-94454819D02*
X170238095Y-94454819D01*
X170523809Y-94454819D02*
X170523809Y-93454819D01*
X170523809Y-93454819D02*
X170428571Y-93597676D01*
X170428571Y-93597676D02*
X170333333Y-93692914D01*
X170333333Y-93692914D02*
X170238095Y-93740533D01*
X171142857Y-93454819D02*
X171809523Y-93454819D01*
X171809523Y-93454819D02*
X171380952Y-94454819D01*
X168833333Y-126859580D02*
X168785714Y-126907200D01*
X168785714Y-126907200D02*
X168642857Y-126954819D01*
X168642857Y-126954819D02*
X168547619Y-126954819D01*
X168547619Y-126954819D02*
X168404762Y-126907200D01*
X168404762Y-126907200D02*
X168309524Y-126811961D01*
X168309524Y-126811961D02*
X168261905Y-126716723D01*
X168261905Y-126716723D02*
X168214286Y-126526247D01*
X168214286Y-126526247D02*
X168214286Y-126383390D01*
X168214286Y-126383390D02*
X168261905Y-126192914D01*
X168261905Y-126192914D02*
X168309524Y-126097676D01*
X168309524Y-126097676D02*
X168404762Y-126002438D01*
X168404762Y-126002438D02*
X168547619Y-125954819D01*
X168547619Y-125954819D02*
X168642857Y-125954819D01*
X168642857Y-125954819D02*
X168785714Y-126002438D01*
X168785714Y-126002438D02*
X168833333Y-126050057D01*
X169214286Y-126050057D02*
X169261905Y-126002438D01*
X169261905Y-126002438D02*
X169357143Y-125954819D01*
X169357143Y-125954819D02*
X169595238Y-125954819D01*
X169595238Y-125954819D02*
X169690476Y-126002438D01*
X169690476Y-126002438D02*
X169738095Y-126050057D01*
X169738095Y-126050057D02*
X169785714Y-126145295D01*
X169785714Y-126145295D02*
X169785714Y-126240533D01*
X169785714Y-126240533D02*
X169738095Y-126383390D01*
X169738095Y-126383390D02*
X169166667Y-126954819D01*
X169166667Y-126954819D02*
X169785714Y-126954819D01*
X145833333Y-116859580D02*
X145785714Y-116907200D01*
X145785714Y-116907200D02*
X145642857Y-116954819D01*
X145642857Y-116954819D02*
X145547619Y-116954819D01*
X145547619Y-116954819D02*
X145404762Y-116907200D01*
X145404762Y-116907200D02*
X145309524Y-116811961D01*
X145309524Y-116811961D02*
X145261905Y-116716723D01*
X145261905Y-116716723D02*
X145214286Y-116526247D01*
X145214286Y-116526247D02*
X145214286Y-116383390D01*
X145214286Y-116383390D02*
X145261905Y-116192914D01*
X145261905Y-116192914D02*
X145309524Y-116097676D01*
X145309524Y-116097676D02*
X145404762Y-116002438D01*
X145404762Y-116002438D02*
X145547619Y-115954819D01*
X145547619Y-115954819D02*
X145642857Y-115954819D01*
X145642857Y-115954819D02*
X145785714Y-116002438D01*
X145785714Y-116002438D02*
X145833333Y-116050057D01*
X146166667Y-115954819D02*
X146833333Y-115954819D01*
X146833333Y-115954819D02*
X146404762Y-116954819D01*
X148333333Y-80454819D02*
X148000000Y-79978628D01*
X147761905Y-80454819D02*
X147761905Y-79454819D01*
X147761905Y-79454819D02*
X148142857Y-79454819D01*
X148142857Y-79454819D02*
X148238095Y-79502438D01*
X148238095Y-79502438D02*
X148285714Y-79550057D01*
X148285714Y-79550057D02*
X148333333Y-79645295D01*
X148333333Y-79645295D02*
X148333333Y-79788152D01*
X148333333Y-79788152D02*
X148285714Y-79883390D01*
X148285714Y-79883390D02*
X148238095Y-79931009D01*
X148238095Y-79931009D02*
X148142857Y-79978628D01*
X148142857Y-79978628D02*
X147761905Y-79978628D01*
X149190476Y-79788152D02*
X149190476Y-80454819D01*
X148952381Y-79407200D02*
X148714286Y-80121485D01*
X148714286Y-80121485D02*
X149333333Y-80121485D01*
X167228095Y-108084819D02*
X167228095Y-108894342D01*
X167228095Y-108894342D02*
X167275714Y-108989580D01*
X167275714Y-108989580D02*
X167323333Y-109037200D01*
X167323333Y-109037200D02*
X167418571Y-109084819D01*
X167418571Y-109084819D02*
X167609047Y-109084819D01*
X167609047Y-109084819D02*
X167704285Y-109037200D01*
X167704285Y-109037200D02*
X167751904Y-108989580D01*
X167751904Y-108989580D02*
X167799523Y-108894342D01*
X167799523Y-108894342D02*
X167799523Y-108084819D01*
X168180476Y-108084819D02*
X168799523Y-108084819D01*
X168799523Y-108084819D02*
X168466190Y-108465771D01*
X168466190Y-108465771D02*
X168609047Y-108465771D01*
X168609047Y-108465771D02*
X168704285Y-108513390D01*
X168704285Y-108513390D02*
X168751904Y-108561009D01*
X168751904Y-108561009D02*
X168799523Y-108656247D01*
X168799523Y-108656247D02*
X168799523Y-108894342D01*
X168799523Y-108894342D02*
X168751904Y-108989580D01*
X168751904Y-108989580D02*
X168704285Y-109037200D01*
X168704285Y-109037200D02*
X168609047Y-109084819D01*
X168609047Y-109084819D02*
X168323333Y-109084819D01*
X168323333Y-109084819D02*
X168228095Y-109037200D01*
X168228095Y-109037200D02*
X168180476Y-108989580D01*
X141333333Y-84909580D02*
X141285714Y-84957200D01*
X141285714Y-84957200D02*
X141142857Y-85004819D01*
X141142857Y-85004819D02*
X141047619Y-85004819D01*
X141047619Y-85004819D02*
X140904762Y-84957200D01*
X140904762Y-84957200D02*
X140809524Y-84861961D01*
X140809524Y-84861961D02*
X140761905Y-84766723D01*
X140761905Y-84766723D02*
X140714286Y-84576247D01*
X140714286Y-84576247D02*
X140714286Y-84433390D01*
X140714286Y-84433390D02*
X140761905Y-84242914D01*
X140761905Y-84242914D02*
X140809524Y-84147676D01*
X140809524Y-84147676D02*
X140904762Y-84052438D01*
X140904762Y-84052438D02*
X141047619Y-84004819D01*
X141047619Y-84004819D02*
X141142857Y-84004819D01*
X141142857Y-84004819D02*
X141285714Y-84052438D01*
X141285714Y-84052438D02*
X141333333Y-84100057D01*
X142190476Y-84338152D02*
X142190476Y-85004819D01*
X141952381Y-83957200D02*
X141714286Y-84671485D01*
X141714286Y-84671485D02*
X142333333Y-84671485D01*
X147904761Y-103454819D02*
X147571428Y-102978628D01*
X147333333Y-103454819D02*
X147333333Y-102454819D01*
X147333333Y-102454819D02*
X147714285Y-102454819D01*
X147714285Y-102454819D02*
X147809523Y-102502438D01*
X147809523Y-102502438D02*
X147857142Y-102550057D01*
X147857142Y-102550057D02*
X147904761Y-102645295D01*
X147904761Y-102645295D02*
X147904761Y-102788152D01*
X147904761Y-102788152D02*
X147857142Y-102883390D01*
X147857142Y-102883390D02*
X147809523Y-102931009D01*
X147809523Y-102931009D02*
X147714285Y-102978628D01*
X147714285Y-102978628D02*
X147333333Y-102978628D01*
X148190476Y-102454819D02*
X148523809Y-103454819D01*
X148523809Y-103454819D02*
X148857142Y-102454819D01*
X149714285Y-103454819D02*
X149142857Y-103454819D01*
X149428571Y-103454819D02*
X149428571Y-102454819D01*
X149428571Y-102454819D02*
X149333333Y-102597676D01*
X149333333Y-102597676D02*
X149238095Y-102692914D01*
X149238095Y-102692914D02*
X149142857Y-102740533D01*
X165904761Y-118050057D02*
X165809523Y-118002438D01*
X165809523Y-118002438D02*
X165714285Y-117907200D01*
X165714285Y-117907200D02*
X165571428Y-117764342D01*
X165571428Y-117764342D02*
X165476190Y-117716723D01*
X165476190Y-117716723D02*
X165380952Y-117716723D01*
X165428571Y-117954819D02*
X165333333Y-117907200D01*
X165333333Y-117907200D02*
X165238095Y-117811961D01*
X165238095Y-117811961D02*
X165190476Y-117621485D01*
X165190476Y-117621485D02*
X165190476Y-117288152D01*
X165190476Y-117288152D02*
X165238095Y-117097676D01*
X165238095Y-117097676D02*
X165333333Y-117002438D01*
X165333333Y-117002438D02*
X165428571Y-116954819D01*
X165428571Y-116954819D02*
X165619047Y-116954819D01*
X165619047Y-116954819D02*
X165714285Y-117002438D01*
X165714285Y-117002438D02*
X165809523Y-117097676D01*
X165809523Y-117097676D02*
X165857142Y-117288152D01*
X165857142Y-117288152D02*
X165857142Y-117621485D01*
X165857142Y-117621485D02*
X165809523Y-117811961D01*
X165809523Y-117811961D02*
X165714285Y-117907200D01*
X165714285Y-117907200D02*
X165619047Y-117954819D01*
X165619047Y-117954819D02*
X165428571Y-117954819D01*
X166809523Y-117954819D02*
X166238095Y-117954819D01*
X166523809Y-117954819D02*
X166523809Y-116954819D01*
X166523809Y-116954819D02*
X166428571Y-117097676D01*
X166428571Y-117097676D02*
X166333333Y-117192914D01*
X166333333Y-117192914D02*
X166238095Y-117240533D01*
X170833333Y-116359580D02*
X170785714Y-116407200D01*
X170785714Y-116407200D02*
X170642857Y-116454819D01*
X170642857Y-116454819D02*
X170547619Y-116454819D01*
X170547619Y-116454819D02*
X170404762Y-116407200D01*
X170404762Y-116407200D02*
X170309524Y-116311961D01*
X170309524Y-116311961D02*
X170261905Y-116216723D01*
X170261905Y-116216723D02*
X170214286Y-116026247D01*
X170214286Y-116026247D02*
X170214286Y-115883390D01*
X170214286Y-115883390D02*
X170261905Y-115692914D01*
X170261905Y-115692914D02*
X170309524Y-115597676D01*
X170309524Y-115597676D02*
X170404762Y-115502438D01*
X170404762Y-115502438D02*
X170547619Y-115454819D01*
X170547619Y-115454819D02*
X170642857Y-115454819D01*
X170642857Y-115454819D02*
X170785714Y-115502438D01*
X170785714Y-115502438D02*
X170833333Y-115550057D01*
X171785714Y-116454819D02*
X171214286Y-116454819D01*
X171500000Y-116454819D02*
X171500000Y-115454819D01*
X171500000Y-115454819D02*
X171404762Y-115597676D01*
X171404762Y-115597676D02*
X171309524Y-115692914D01*
X171309524Y-115692914D02*
X171214286Y-115740533D01*
X157333333Y-138859580D02*
X157285714Y-138907200D01*
X157285714Y-138907200D02*
X157142857Y-138954819D01*
X157142857Y-138954819D02*
X157047619Y-138954819D01*
X157047619Y-138954819D02*
X156904762Y-138907200D01*
X156904762Y-138907200D02*
X156809524Y-138811961D01*
X156809524Y-138811961D02*
X156761905Y-138716723D01*
X156761905Y-138716723D02*
X156714286Y-138526247D01*
X156714286Y-138526247D02*
X156714286Y-138383390D01*
X156714286Y-138383390D02*
X156761905Y-138192914D01*
X156761905Y-138192914D02*
X156809524Y-138097676D01*
X156809524Y-138097676D02*
X156904762Y-138002438D01*
X156904762Y-138002438D02*
X157047619Y-137954819D01*
X157047619Y-137954819D02*
X157142857Y-137954819D01*
X157142857Y-137954819D02*
X157285714Y-138002438D01*
X157285714Y-138002438D02*
X157333333Y-138050057D01*
X157666667Y-137954819D02*
X158285714Y-137954819D01*
X158285714Y-137954819D02*
X157952381Y-138335771D01*
X157952381Y-138335771D02*
X158095238Y-138335771D01*
X158095238Y-138335771D02*
X158190476Y-138383390D01*
X158190476Y-138383390D02*
X158238095Y-138431009D01*
X158238095Y-138431009D02*
X158285714Y-138526247D01*
X158285714Y-138526247D02*
X158285714Y-138764342D01*
X158285714Y-138764342D02*
X158238095Y-138859580D01*
X158238095Y-138859580D02*
X158190476Y-138907200D01*
X158190476Y-138907200D02*
X158095238Y-138954819D01*
X158095238Y-138954819D02*
X157809524Y-138954819D01*
X157809524Y-138954819D02*
X157714286Y-138907200D01*
X157714286Y-138907200D02*
X157666667Y-138859580D01*
X150833333Y-125954819D02*
X150500000Y-125478628D01*
X150261905Y-125954819D02*
X150261905Y-124954819D01*
X150261905Y-124954819D02*
X150642857Y-124954819D01*
X150642857Y-124954819D02*
X150738095Y-125002438D01*
X150738095Y-125002438D02*
X150785714Y-125050057D01*
X150785714Y-125050057D02*
X150833333Y-125145295D01*
X150833333Y-125145295D02*
X150833333Y-125288152D01*
X150833333Y-125288152D02*
X150785714Y-125383390D01*
X150785714Y-125383390D02*
X150738095Y-125431009D01*
X150738095Y-125431009D02*
X150642857Y-125478628D01*
X150642857Y-125478628D02*
X150261905Y-125478628D01*
X151404762Y-125383390D02*
X151309524Y-125335771D01*
X151309524Y-125335771D02*
X151261905Y-125288152D01*
X151261905Y-125288152D02*
X151214286Y-125192914D01*
X151214286Y-125192914D02*
X151214286Y-125145295D01*
X151214286Y-125145295D02*
X151261905Y-125050057D01*
X151261905Y-125050057D02*
X151309524Y-125002438D01*
X151309524Y-125002438D02*
X151404762Y-124954819D01*
X151404762Y-124954819D02*
X151595238Y-124954819D01*
X151595238Y-124954819D02*
X151690476Y-125002438D01*
X151690476Y-125002438D02*
X151738095Y-125050057D01*
X151738095Y-125050057D02*
X151785714Y-125145295D01*
X151785714Y-125145295D02*
X151785714Y-125192914D01*
X151785714Y-125192914D02*
X151738095Y-125288152D01*
X151738095Y-125288152D02*
X151690476Y-125335771D01*
X151690476Y-125335771D02*
X151595238Y-125383390D01*
X151595238Y-125383390D02*
X151404762Y-125383390D01*
X151404762Y-125383390D02*
X151309524Y-125431009D01*
X151309524Y-125431009D02*
X151261905Y-125478628D01*
X151261905Y-125478628D02*
X151214286Y-125573866D01*
X151214286Y-125573866D02*
X151214286Y-125764342D01*
X151214286Y-125764342D02*
X151261905Y-125859580D01*
X151261905Y-125859580D02*
X151309524Y-125907200D01*
X151309524Y-125907200D02*
X151404762Y-125954819D01*
X151404762Y-125954819D02*
X151595238Y-125954819D01*
X151595238Y-125954819D02*
X151690476Y-125907200D01*
X151690476Y-125907200D02*
X151738095Y-125859580D01*
X151738095Y-125859580D02*
X151785714Y-125764342D01*
X151785714Y-125764342D02*
X151785714Y-125573866D01*
X151785714Y-125573866D02*
X151738095Y-125478628D01*
X151738095Y-125478628D02*
X151690476Y-125431009D01*
X151690476Y-125431009D02*
X151595238Y-125383390D01*
X150238095Y-108454819D02*
X150238095Y-109264342D01*
X150238095Y-109264342D02*
X150285714Y-109359580D01*
X150285714Y-109359580D02*
X150333333Y-109407200D01*
X150333333Y-109407200D02*
X150428571Y-109454819D01*
X150428571Y-109454819D02*
X150619047Y-109454819D01*
X150619047Y-109454819D02*
X150714285Y-109407200D01*
X150714285Y-109407200D02*
X150761904Y-109359580D01*
X150761904Y-109359580D02*
X150809523Y-109264342D01*
X150809523Y-109264342D02*
X150809523Y-108454819D01*
X151761904Y-108454819D02*
X151285714Y-108454819D01*
X151285714Y-108454819D02*
X151238095Y-108931009D01*
X151238095Y-108931009D02*
X151285714Y-108883390D01*
X151285714Y-108883390D02*
X151380952Y-108835771D01*
X151380952Y-108835771D02*
X151619047Y-108835771D01*
X151619047Y-108835771D02*
X151714285Y-108883390D01*
X151714285Y-108883390D02*
X151761904Y-108931009D01*
X151761904Y-108931009D02*
X151809523Y-109026247D01*
X151809523Y-109026247D02*
X151809523Y-109264342D01*
X151809523Y-109264342D02*
X151761904Y-109359580D01*
X151761904Y-109359580D02*
X151714285Y-109407200D01*
X151714285Y-109407200D02*
X151619047Y-109454819D01*
X151619047Y-109454819D02*
X151380952Y-109454819D01*
X151380952Y-109454819D02*
X151285714Y-109407200D01*
X151285714Y-109407200D02*
X151238095Y-109359580D01*
X124534819Y-121833333D02*
X125249104Y-121833333D01*
X125249104Y-121833333D02*
X125391961Y-121880952D01*
X125391961Y-121880952D02*
X125487200Y-121976190D01*
X125487200Y-121976190D02*
X125534819Y-122119047D01*
X125534819Y-122119047D02*
X125534819Y-122214285D01*
X124963390Y-121214285D02*
X124915771Y-121309523D01*
X124915771Y-121309523D02*
X124868152Y-121357142D01*
X124868152Y-121357142D02*
X124772914Y-121404761D01*
X124772914Y-121404761D02*
X124725295Y-121404761D01*
X124725295Y-121404761D02*
X124630057Y-121357142D01*
X124630057Y-121357142D02*
X124582438Y-121309523D01*
X124582438Y-121309523D02*
X124534819Y-121214285D01*
X124534819Y-121214285D02*
X124534819Y-121023809D01*
X124534819Y-121023809D02*
X124582438Y-120928571D01*
X124582438Y-120928571D02*
X124630057Y-120880952D01*
X124630057Y-120880952D02*
X124725295Y-120833333D01*
X124725295Y-120833333D02*
X124772914Y-120833333D01*
X124772914Y-120833333D02*
X124868152Y-120880952D01*
X124868152Y-120880952D02*
X124915771Y-120928571D01*
X124915771Y-120928571D02*
X124963390Y-121023809D01*
X124963390Y-121023809D02*
X124963390Y-121214285D01*
X124963390Y-121214285D02*
X125011009Y-121309523D01*
X125011009Y-121309523D02*
X125058628Y-121357142D01*
X125058628Y-121357142D02*
X125153866Y-121404761D01*
X125153866Y-121404761D02*
X125344342Y-121404761D01*
X125344342Y-121404761D02*
X125439580Y-121357142D01*
X125439580Y-121357142D02*
X125487200Y-121309523D01*
X125487200Y-121309523D02*
X125534819Y-121214285D01*
X125534819Y-121214285D02*
X125534819Y-121023809D01*
X125534819Y-121023809D02*
X125487200Y-120928571D01*
X125487200Y-120928571D02*
X125439580Y-120880952D01*
X125439580Y-120880952D02*
X125344342Y-120833333D01*
X125344342Y-120833333D02*
X125153866Y-120833333D01*
X125153866Y-120833333D02*
X125058628Y-120880952D01*
X125058628Y-120880952D02*
X125011009Y-120928571D01*
X125011009Y-120928571D02*
X124963390Y-121023809D01*
X156357142Y-102454819D02*
X156023809Y-101978628D01*
X155785714Y-102454819D02*
X155785714Y-101454819D01*
X155785714Y-101454819D02*
X156166666Y-101454819D01*
X156166666Y-101454819D02*
X156261904Y-101502438D01*
X156261904Y-101502438D02*
X156309523Y-101550057D01*
X156309523Y-101550057D02*
X156357142Y-101645295D01*
X156357142Y-101645295D02*
X156357142Y-101788152D01*
X156357142Y-101788152D02*
X156309523Y-101883390D01*
X156309523Y-101883390D02*
X156261904Y-101931009D01*
X156261904Y-101931009D02*
X156166666Y-101978628D01*
X156166666Y-101978628D02*
X155785714Y-101978628D01*
X157309523Y-102454819D02*
X156738095Y-102454819D01*
X157023809Y-102454819D02*
X157023809Y-101454819D01*
X157023809Y-101454819D02*
X156928571Y-101597676D01*
X156928571Y-101597676D02*
X156833333Y-101692914D01*
X156833333Y-101692914D02*
X156738095Y-101740533D01*
X158166666Y-101788152D02*
X158166666Y-102454819D01*
X157928571Y-101407200D02*
X157690476Y-102121485D01*
X157690476Y-102121485D02*
X158309523Y-102121485D01*
X138666666Y-91954819D02*
X138666666Y-92669104D01*
X138666666Y-92669104D02*
X138619047Y-92811961D01*
X138619047Y-92811961D02*
X138523809Y-92907200D01*
X138523809Y-92907200D02*
X138380952Y-92954819D01*
X138380952Y-92954819D02*
X138285714Y-92954819D01*
X139095238Y-92050057D02*
X139142857Y-92002438D01*
X139142857Y-92002438D02*
X139238095Y-91954819D01*
X139238095Y-91954819D02*
X139476190Y-91954819D01*
X139476190Y-91954819D02*
X139571428Y-92002438D01*
X139571428Y-92002438D02*
X139619047Y-92050057D01*
X139619047Y-92050057D02*
X139666666Y-92145295D01*
X139666666Y-92145295D02*
X139666666Y-92240533D01*
X139666666Y-92240533D02*
X139619047Y-92383390D01*
X139619047Y-92383390D02*
X139047619Y-92954819D01*
X139047619Y-92954819D02*
X139666666Y-92954819D01*
X155333333Y-80454819D02*
X155000000Y-79978628D01*
X154761905Y-80454819D02*
X154761905Y-79454819D01*
X154761905Y-79454819D02*
X155142857Y-79454819D01*
X155142857Y-79454819D02*
X155238095Y-79502438D01*
X155238095Y-79502438D02*
X155285714Y-79550057D01*
X155285714Y-79550057D02*
X155333333Y-79645295D01*
X155333333Y-79645295D02*
X155333333Y-79788152D01*
X155333333Y-79788152D02*
X155285714Y-79883390D01*
X155285714Y-79883390D02*
X155238095Y-79931009D01*
X155238095Y-79931009D02*
X155142857Y-79978628D01*
X155142857Y-79978628D02*
X154761905Y-79978628D01*
X155809524Y-80454819D02*
X156000000Y-80454819D01*
X156000000Y-80454819D02*
X156095238Y-80407200D01*
X156095238Y-80407200D02*
X156142857Y-80359580D01*
X156142857Y-80359580D02*
X156238095Y-80216723D01*
X156238095Y-80216723D02*
X156285714Y-80026247D01*
X156285714Y-80026247D02*
X156285714Y-79645295D01*
X156285714Y-79645295D02*
X156238095Y-79550057D01*
X156238095Y-79550057D02*
X156190476Y-79502438D01*
X156190476Y-79502438D02*
X156095238Y-79454819D01*
X156095238Y-79454819D02*
X155904762Y-79454819D01*
X155904762Y-79454819D02*
X155809524Y-79502438D01*
X155809524Y-79502438D02*
X155761905Y-79550057D01*
X155761905Y-79550057D02*
X155714286Y-79645295D01*
X155714286Y-79645295D02*
X155714286Y-79883390D01*
X155714286Y-79883390D02*
X155761905Y-79978628D01*
X155761905Y-79978628D02*
X155809524Y-80026247D01*
X155809524Y-80026247D02*
X155904762Y-80073866D01*
X155904762Y-80073866D02*
X156095238Y-80073866D01*
X156095238Y-80073866D02*
X156190476Y-80026247D01*
X156190476Y-80026247D02*
X156238095Y-79978628D01*
X156238095Y-79978628D02*
X156285714Y-79883390D01*
X150833333Y-132954819D02*
X150500000Y-132478628D01*
X150261905Y-132954819D02*
X150261905Y-131954819D01*
X150261905Y-131954819D02*
X150642857Y-131954819D01*
X150642857Y-131954819D02*
X150738095Y-132002438D01*
X150738095Y-132002438D02*
X150785714Y-132050057D01*
X150785714Y-132050057D02*
X150833333Y-132145295D01*
X150833333Y-132145295D02*
X150833333Y-132288152D01*
X150833333Y-132288152D02*
X150785714Y-132383390D01*
X150785714Y-132383390D02*
X150738095Y-132431009D01*
X150738095Y-132431009D02*
X150642857Y-132478628D01*
X150642857Y-132478628D02*
X150261905Y-132478628D01*
X151166667Y-131954819D02*
X151785714Y-131954819D01*
X151785714Y-131954819D02*
X151452381Y-132335771D01*
X151452381Y-132335771D02*
X151595238Y-132335771D01*
X151595238Y-132335771D02*
X151690476Y-132383390D01*
X151690476Y-132383390D02*
X151738095Y-132431009D01*
X151738095Y-132431009D02*
X151785714Y-132526247D01*
X151785714Y-132526247D02*
X151785714Y-132764342D01*
X151785714Y-132764342D02*
X151738095Y-132859580D01*
X151738095Y-132859580D02*
X151690476Y-132907200D01*
X151690476Y-132907200D02*
X151595238Y-132954819D01*
X151595238Y-132954819D02*
X151309524Y-132954819D01*
X151309524Y-132954819D02*
X151214286Y-132907200D01*
X151214286Y-132907200D02*
X151166667Y-132859580D01*
X172238095Y-62454819D02*
X172238095Y-63264342D01*
X172238095Y-63264342D02*
X172285714Y-63359580D01*
X172285714Y-63359580D02*
X172333333Y-63407200D01*
X172333333Y-63407200D02*
X172428571Y-63454819D01*
X172428571Y-63454819D02*
X172619047Y-63454819D01*
X172619047Y-63454819D02*
X172714285Y-63407200D01*
X172714285Y-63407200D02*
X172761904Y-63359580D01*
X172761904Y-63359580D02*
X172809523Y-63264342D01*
X172809523Y-63264342D02*
X172809523Y-62454819D01*
X173714285Y-62788152D02*
X173714285Y-63454819D01*
X173476190Y-62407200D02*
X173238095Y-63121485D01*
X173238095Y-63121485D02*
X173857142Y-63121485D01*
X155368095Y-84964819D02*
X155368095Y-85774342D01*
X155368095Y-85774342D02*
X155415714Y-85869580D01*
X155415714Y-85869580D02*
X155463333Y-85917200D01*
X155463333Y-85917200D02*
X155558571Y-85964819D01*
X155558571Y-85964819D02*
X155749047Y-85964819D01*
X155749047Y-85964819D02*
X155844285Y-85917200D01*
X155844285Y-85917200D02*
X155891904Y-85869580D01*
X155891904Y-85869580D02*
X155939523Y-85774342D01*
X155939523Y-85774342D02*
X155939523Y-84964819D01*
X156368095Y-85060057D02*
X156415714Y-85012438D01*
X156415714Y-85012438D02*
X156510952Y-84964819D01*
X156510952Y-84964819D02*
X156749047Y-84964819D01*
X156749047Y-84964819D02*
X156844285Y-85012438D01*
X156844285Y-85012438D02*
X156891904Y-85060057D01*
X156891904Y-85060057D02*
X156939523Y-85155295D01*
X156939523Y-85155295D02*
X156939523Y-85250533D01*
X156939523Y-85250533D02*
X156891904Y-85393390D01*
X156891904Y-85393390D02*
X156320476Y-85964819D01*
X156320476Y-85964819D02*
X156939523Y-85964819D01*
X167357142Y-88584819D02*
X167023809Y-88108628D01*
X166785714Y-88584819D02*
X166785714Y-87584819D01*
X166785714Y-87584819D02*
X167166666Y-87584819D01*
X167166666Y-87584819D02*
X167261904Y-87632438D01*
X167261904Y-87632438D02*
X167309523Y-87680057D01*
X167309523Y-87680057D02*
X167357142Y-87775295D01*
X167357142Y-87775295D02*
X167357142Y-87918152D01*
X167357142Y-87918152D02*
X167309523Y-88013390D01*
X167309523Y-88013390D02*
X167261904Y-88061009D01*
X167261904Y-88061009D02*
X167166666Y-88108628D01*
X167166666Y-88108628D02*
X166785714Y-88108628D01*
X168309523Y-88584819D02*
X167738095Y-88584819D01*
X168023809Y-88584819D02*
X168023809Y-87584819D01*
X168023809Y-87584819D02*
X167928571Y-87727676D01*
X167928571Y-87727676D02*
X167833333Y-87822914D01*
X167833333Y-87822914D02*
X167738095Y-87870533D01*
X168690476Y-87680057D02*
X168738095Y-87632438D01*
X168738095Y-87632438D02*
X168833333Y-87584819D01*
X168833333Y-87584819D02*
X169071428Y-87584819D01*
X169071428Y-87584819D02*
X169166666Y-87632438D01*
X169166666Y-87632438D02*
X169214285Y-87680057D01*
X169214285Y-87680057D02*
X169261904Y-87775295D01*
X169261904Y-87775295D02*
X169261904Y-87870533D01*
X169261904Y-87870533D02*
X169214285Y-88013390D01*
X169214285Y-88013390D02*
X168642857Y-88584819D01*
X168642857Y-88584819D02*
X169261904Y-88584819D01*
X144833333Y-80454819D02*
X144500000Y-79978628D01*
X144261905Y-80454819D02*
X144261905Y-79454819D01*
X144261905Y-79454819D02*
X144642857Y-79454819D01*
X144642857Y-79454819D02*
X144738095Y-79502438D01*
X144738095Y-79502438D02*
X144785714Y-79550057D01*
X144785714Y-79550057D02*
X144833333Y-79645295D01*
X144833333Y-79645295D02*
X144833333Y-79788152D01*
X144833333Y-79788152D02*
X144785714Y-79883390D01*
X144785714Y-79883390D02*
X144738095Y-79931009D01*
X144738095Y-79931009D02*
X144642857Y-79978628D01*
X144642857Y-79978628D02*
X144261905Y-79978628D01*
X145214286Y-79550057D02*
X145261905Y-79502438D01*
X145261905Y-79502438D02*
X145357143Y-79454819D01*
X145357143Y-79454819D02*
X145595238Y-79454819D01*
X145595238Y-79454819D02*
X145690476Y-79502438D01*
X145690476Y-79502438D02*
X145738095Y-79550057D01*
X145738095Y-79550057D02*
X145785714Y-79645295D01*
X145785714Y-79645295D02*
X145785714Y-79740533D01*
X145785714Y-79740533D02*
X145738095Y-79883390D01*
X145738095Y-79883390D02*
X145166667Y-80454819D01*
X145166667Y-80454819D02*
X145785714Y-80454819D01*
X172357142Y-74454819D02*
X172023809Y-73978628D01*
X171785714Y-74454819D02*
X171785714Y-73454819D01*
X171785714Y-73454819D02*
X172166666Y-73454819D01*
X172166666Y-73454819D02*
X172261904Y-73502438D01*
X172261904Y-73502438D02*
X172309523Y-73550057D01*
X172309523Y-73550057D02*
X172357142Y-73645295D01*
X172357142Y-73645295D02*
X172357142Y-73788152D01*
X172357142Y-73788152D02*
X172309523Y-73883390D01*
X172309523Y-73883390D02*
X172261904Y-73931009D01*
X172261904Y-73931009D02*
X172166666Y-73978628D01*
X172166666Y-73978628D02*
X171785714Y-73978628D01*
X173309523Y-74454819D02*
X172738095Y-74454819D01*
X173023809Y-74454819D02*
X173023809Y-73454819D01*
X173023809Y-73454819D02*
X172928571Y-73597676D01*
X172928571Y-73597676D02*
X172833333Y-73692914D01*
X172833333Y-73692914D02*
X172738095Y-73740533D01*
X174261904Y-74454819D02*
X173690476Y-74454819D01*
X173976190Y-74454819D02*
X173976190Y-73454819D01*
X173976190Y-73454819D02*
X173880952Y-73597676D01*
X173880952Y-73597676D02*
X173785714Y-73692914D01*
X173785714Y-73692914D02*
X173690476Y-73740533D01*
X174857142Y-130454819D02*
X174523809Y-129978628D01*
X174285714Y-130454819D02*
X174285714Y-129454819D01*
X174285714Y-129454819D02*
X174666666Y-129454819D01*
X174666666Y-129454819D02*
X174761904Y-129502438D01*
X174761904Y-129502438D02*
X174809523Y-129550057D01*
X174809523Y-129550057D02*
X174857142Y-129645295D01*
X174857142Y-129645295D02*
X174857142Y-129788152D01*
X174857142Y-129788152D02*
X174809523Y-129883390D01*
X174809523Y-129883390D02*
X174761904Y-129931009D01*
X174761904Y-129931009D02*
X174666666Y-129978628D01*
X174666666Y-129978628D02*
X174285714Y-129978628D01*
X175809523Y-130454819D02*
X175238095Y-130454819D01*
X175523809Y-130454819D02*
X175523809Y-129454819D01*
X175523809Y-129454819D02*
X175428571Y-129597676D01*
X175428571Y-129597676D02*
X175333333Y-129692914D01*
X175333333Y-129692914D02*
X175238095Y-129740533D01*
X176380952Y-129883390D02*
X176285714Y-129835771D01*
X176285714Y-129835771D02*
X176238095Y-129788152D01*
X176238095Y-129788152D02*
X176190476Y-129692914D01*
X176190476Y-129692914D02*
X176190476Y-129645295D01*
X176190476Y-129645295D02*
X176238095Y-129550057D01*
X176238095Y-129550057D02*
X176285714Y-129502438D01*
X176285714Y-129502438D02*
X176380952Y-129454819D01*
X176380952Y-129454819D02*
X176571428Y-129454819D01*
X176571428Y-129454819D02*
X176666666Y-129502438D01*
X176666666Y-129502438D02*
X176714285Y-129550057D01*
X176714285Y-129550057D02*
X176761904Y-129645295D01*
X176761904Y-129645295D02*
X176761904Y-129692914D01*
X176761904Y-129692914D02*
X176714285Y-129788152D01*
X176714285Y-129788152D02*
X176666666Y-129835771D01*
X176666666Y-129835771D02*
X176571428Y-129883390D01*
X176571428Y-129883390D02*
X176380952Y-129883390D01*
X176380952Y-129883390D02*
X176285714Y-129931009D01*
X176285714Y-129931009D02*
X176238095Y-129978628D01*
X176238095Y-129978628D02*
X176190476Y-130073866D01*
X176190476Y-130073866D02*
X176190476Y-130264342D01*
X176190476Y-130264342D02*
X176238095Y-130359580D01*
X176238095Y-130359580D02*
X176285714Y-130407200D01*
X176285714Y-130407200D02*
X176380952Y-130454819D01*
X176380952Y-130454819D02*
X176571428Y-130454819D01*
X176571428Y-130454819D02*
X176666666Y-130407200D01*
X176666666Y-130407200D02*
X176714285Y-130359580D01*
X176714285Y-130359580D02*
X176761904Y-130264342D01*
X176761904Y-130264342D02*
X176761904Y-130073866D01*
X176761904Y-130073866D02*
X176714285Y-129978628D01*
X176714285Y-129978628D02*
X176666666Y-129931009D01*
X176666666Y-129931009D02*
X176571428Y-129883390D01*
X156357142Y-107454819D02*
X156023809Y-106978628D01*
X155785714Y-107454819D02*
X155785714Y-106454819D01*
X155785714Y-106454819D02*
X156166666Y-106454819D01*
X156166666Y-106454819D02*
X156261904Y-106502438D01*
X156261904Y-106502438D02*
X156309523Y-106550057D01*
X156309523Y-106550057D02*
X156357142Y-106645295D01*
X156357142Y-106645295D02*
X156357142Y-106788152D01*
X156357142Y-106788152D02*
X156309523Y-106883390D01*
X156309523Y-106883390D02*
X156261904Y-106931009D01*
X156261904Y-106931009D02*
X156166666Y-106978628D01*
X156166666Y-106978628D02*
X155785714Y-106978628D01*
X157309523Y-107454819D02*
X156738095Y-107454819D01*
X157023809Y-107454819D02*
X157023809Y-106454819D01*
X157023809Y-106454819D02*
X156928571Y-106597676D01*
X156928571Y-106597676D02*
X156833333Y-106692914D01*
X156833333Y-106692914D02*
X156738095Y-106740533D01*
X157642857Y-106454819D02*
X158261904Y-106454819D01*
X158261904Y-106454819D02*
X157928571Y-106835771D01*
X157928571Y-106835771D02*
X158071428Y-106835771D01*
X158071428Y-106835771D02*
X158166666Y-106883390D01*
X158166666Y-106883390D02*
X158214285Y-106931009D01*
X158214285Y-106931009D02*
X158261904Y-107026247D01*
X158261904Y-107026247D02*
X158261904Y-107264342D01*
X158261904Y-107264342D02*
X158214285Y-107359580D01*
X158214285Y-107359580D02*
X158166666Y-107407200D01*
X158166666Y-107407200D02*
X158071428Y-107454819D01*
X158071428Y-107454819D02*
X157785714Y-107454819D01*
X157785714Y-107454819D02*
X157690476Y-107407200D01*
X157690476Y-107407200D02*
X157642857Y-107359580D01*
X156357142Y-115954819D02*
X156023809Y-115478628D01*
X155785714Y-115954819D02*
X155785714Y-114954819D01*
X155785714Y-114954819D02*
X156166666Y-114954819D01*
X156166666Y-114954819D02*
X156261904Y-115002438D01*
X156261904Y-115002438D02*
X156309523Y-115050057D01*
X156309523Y-115050057D02*
X156357142Y-115145295D01*
X156357142Y-115145295D02*
X156357142Y-115288152D01*
X156357142Y-115288152D02*
X156309523Y-115383390D01*
X156309523Y-115383390D02*
X156261904Y-115431009D01*
X156261904Y-115431009D02*
X156166666Y-115478628D01*
X156166666Y-115478628D02*
X155785714Y-115478628D01*
X157309523Y-115954819D02*
X156738095Y-115954819D01*
X157023809Y-115954819D02*
X157023809Y-114954819D01*
X157023809Y-114954819D02*
X156928571Y-115097676D01*
X156928571Y-115097676D02*
X156833333Y-115192914D01*
X156833333Y-115192914D02*
X156738095Y-115240533D01*
X158214285Y-114954819D02*
X157738095Y-114954819D01*
X157738095Y-114954819D02*
X157690476Y-115431009D01*
X157690476Y-115431009D02*
X157738095Y-115383390D01*
X157738095Y-115383390D02*
X157833333Y-115335771D01*
X157833333Y-115335771D02*
X158071428Y-115335771D01*
X158071428Y-115335771D02*
X158166666Y-115383390D01*
X158166666Y-115383390D02*
X158214285Y-115431009D01*
X158214285Y-115431009D02*
X158261904Y-115526247D01*
X158261904Y-115526247D02*
X158261904Y-115764342D01*
X158261904Y-115764342D02*
X158214285Y-115859580D01*
X158214285Y-115859580D02*
X158166666Y-115907200D01*
X158166666Y-115907200D02*
X158071428Y-115954819D01*
X158071428Y-115954819D02*
X157833333Y-115954819D01*
X157833333Y-115954819D02*
X157738095Y-115907200D01*
X157738095Y-115907200D02*
X157690476Y-115859580D01*
X160261905Y-121454819D02*
X160261905Y-120454819D01*
X160261905Y-120454819D02*
X160500000Y-120454819D01*
X160500000Y-120454819D02*
X160642857Y-120502438D01*
X160642857Y-120502438D02*
X160738095Y-120597676D01*
X160738095Y-120597676D02*
X160785714Y-120692914D01*
X160785714Y-120692914D02*
X160833333Y-120883390D01*
X160833333Y-120883390D02*
X160833333Y-121026247D01*
X160833333Y-121026247D02*
X160785714Y-121216723D01*
X160785714Y-121216723D02*
X160738095Y-121311961D01*
X160738095Y-121311961D02*
X160642857Y-121407200D01*
X160642857Y-121407200D02*
X160500000Y-121454819D01*
X160500000Y-121454819D02*
X160261905Y-121454819D01*
X161214286Y-120550057D02*
X161261905Y-120502438D01*
X161261905Y-120502438D02*
X161357143Y-120454819D01*
X161357143Y-120454819D02*
X161595238Y-120454819D01*
X161595238Y-120454819D02*
X161690476Y-120502438D01*
X161690476Y-120502438D02*
X161738095Y-120550057D01*
X161738095Y-120550057D02*
X161785714Y-120645295D01*
X161785714Y-120645295D02*
X161785714Y-120740533D01*
X161785714Y-120740533D02*
X161738095Y-120883390D01*
X161738095Y-120883390D02*
X161166667Y-121454819D01*
X161166667Y-121454819D02*
X161785714Y-121454819D01*
X150833333Y-136454819D02*
X150500000Y-135978628D01*
X150261905Y-136454819D02*
X150261905Y-135454819D01*
X150261905Y-135454819D02*
X150642857Y-135454819D01*
X150642857Y-135454819D02*
X150738095Y-135502438D01*
X150738095Y-135502438D02*
X150785714Y-135550057D01*
X150785714Y-135550057D02*
X150833333Y-135645295D01*
X150833333Y-135645295D02*
X150833333Y-135788152D01*
X150833333Y-135788152D02*
X150785714Y-135883390D01*
X150785714Y-135883390D02*
X150738095Y-135931009D01*
X150738095Y-135931009D02*
X150642857Y-135978628D01*
X150642857Y-135978628D02*
X150261905Y-135978628D01*
X151785714Y-136454819D02*
X151214286Y-136454819D01*
X151500000Y-136454819D02*
X151500000Y-135454819D01*
X151500000Y-135454819D02*
X151404762Y-135597676D01*
X151404762Y-135597676D02*
X151309524Y-135692914D01*
X151309524Y-135692914D02*
X151214286Y-135740533D01*
X141833333Y-99359580D02*
X141785714Y-99407200D01*
X141785714Y-99407200D02*
X141642857Y-99454819D01*
X141642857Y-99454819D02*
X141547619Y-99454819D01*
X141547619Y-99454819D02*
X141404762Y-99407200D01*
X141404762Y-99407200D02*
X141309524Y-99311961D01*
X141309524Y-99311961D02*
X141261905Y-99216723D01*
X141261905Y-99216723D02*
X141214286Y-99026247D01*
X141214286Y-99026247D02*
X141214286Y-98883390D01*
X141214286Y-98883390D02*
X141261905Y-98692914D01*
X141261905Y-98692914D02*
X141309524Y-98597676D01*
X141309524Y-98597676D02*
X141404762Y-98502438D01*
X141404762Y-98502438D02*
X141547619Y-98454819D01*
X141547619Y-98454819D02*
X141642857Y-98454819D01*
X141642857Y-98454819D02*
X141785714Y-98502438D01*
X141785714Y-98502438D02*
X141833333Y-98550057D01*
X142690476Y-98454819D02*
X142500000Y-98454819D01*
X142500000Y-98454819D02*
X142404762Y-98502438D01*
X142404762Y-98502438D02*
X142357143Y-98550057D01*
X142357143Y-98550057D02*
X142261905Y-98692914D01*
X142261905Y-98692914D02*
X142214286Y-98883390D01*
X142214286Y-98883390D02*
X142214286Y-99264342D01*
X142214286Y-99264342D02*
X142261905Y-99359580D01*
X142261905Y-99359580D02*
X142309524Y-99407200D01*
X142309524Y-99407200D02*
X142404762Y-99454819D01*
X142404762Y-99454819D02*
X142595238Y-99454819D01*
X142595238Y-99454819D02*
X142690476Y-99407200D01*
X142690476Y-99407200D02*
X142738095Y-99359580D01*
X142738095Y-99359580D02*
X142785714Y-99264342D01*
X142785714Y-99264342D02*
X142785714Y-99026247D01*
X142785714Y-99026247D02*
X142738095Y-98931009D01*
X142738095Y-98931009D02*
X142690476Y-98883390D01*
X142690476Y-98883390D02*
X142595238Y-98835771D01*
X142595238Y-98835771D02*
X142404762Y-98835771D01*
X142404762Y-98835771D02*
X142309524Y-98883390D01*
X142309524Y-98883390D02*
X142261905Y-98931009D01*
X142261905Y-98931009D02*
X142214286Y-99026247D01*
X150857142Y-121954819D02*
X150523809Y-121478628D01*
X150285714Y-121954819D02*
X150285714Y-120954819D01*
X150285714Y-120954819D02*
X150666666Y-120954819D01*
X150666666Y-120954819D02*
X150761904Y-121002438D01*
X150761904Y-121002438D02*
X150809523Y-121050057D01*
X150809523Y-121050057D02*
X150857142Y-121145295D01*
X150857142Y-121145295D02*
X150857142Y-121288152D01*
X150857142Y-121288152D02*
X150809523Y-121383390D01*
X150809523Y-121383390D02*
X150761904Y-121431009D01*
X150761904Y-121431009D02*
X150666666Y-121478628D01*
X150666666Y-121478628D02*
X150285714Y-121478628D01*
X151809523Y-121954819D02*
X151238095Y-121954819D01*
X151523809Y-121954819D02*
X151523809Y-120954819D01*
X151523809Y-120954819D02*
X151428571Y-121097676D01*
X151428571Y-121097676D02*
X151333333Y-121192914D01*
X151333333Y-121192914D02*
X151238095Y-121240533D01*
X152666666Y-120954819D02*
X152476190Y-120954819D01*
X152476190Y-120954819D02*
X152380952Y-121002438D01*
X152380952Y-121002438D02*
X152333333Y-121050057D01*
X152333333Y-121050057D02*
X152238095Y-121192914D01*
X152238095Y-121192914D02*
X152190476Y-121383390D01*
X152190476Y-121383390D02*
X152190476Y-121764342D01*
X152190476Y-121764342D02*
X152238095Y-121859580D01*
X152238095Y-121859580D02*
X152285714Y-121907200D01*
X152285714Y-121907200D02*
X152380952Y-121954819D01*
X152380952Y-121954819D02*
X152571428Y-121954819D01*
X152571428Y-121954819D02*
X152666666Y-121907200D01*
X152666666Y-121907200D02*
X152714285Y-121859580D01*
X152714285Y-121859580D02*
X152761904Y-121764342D01*
X152761904Y-121764342D02*
X152761904Y-121526247D01*
X152761904Y-121526247D02*
X152714285Y-121431009D01*
X152714285Y-121431009D02*
X152666666Y-121383390D01*
X152666666Y-121383390D02*
X152571428Y-121335771D01*
X152571428Y-121335771D02*
X152380952Y-121335771D01*
X152380952Y-121335771D02*
X152285714Y-121383390D01*
X152285714Y-121383390D02*
X152238095Y-121431009D01*
X152238095Y-121431009D02*
X152190476Y-121526247D01*
X150833333Y-129454819D02*
X150500000Y-128978628D01*
X150261905Y-129454819D02*
X150261905Y-128454819D01*
X150261905Y-128454819D02*
X150642857Y-128454819D01*
X150642857Y-128454819D02*
X150738095Y-128502438D01*
X150738095Y-128502438D02*
X150785714Y-128550057D01*
X150785714Y-128550057D02*
X150833333Y-128645295D01*
X150833333Y-128645295D02*
X150833333Y-128788152D01*
X150833333Y-128788152D02*
X150785714Y-128883390D01*
X150785714Y-128883390D02*
X150738095Y-128931009D01*
X150738095Y-128931009D02*
X150642857Y-128978628D01*
X150642857Y-128978628D02*
X150261905Y-128978628D01*
X151738095Y-128454819D02*
X151261905Y-128454819D01*
X151261905Y-128454819D02*
X151214286Y-128931009D01*
X151214286Y-128931009D02*
X151261905Y-128883390D01*
X151261905Y-128883390D02*
X151357143Y-128835771D01*
X151357143Y-128835771D02*
X151595238Y-128835771D01*
X151595238Y-128835771D02*
X151690476Y-128883390D01*
X151690476Y-128883390D02*
X151738095Y-128931009D01*
X151738095Y-128931009D02*
X151785714Y-129026247D01*
X151785714Y-129026247D02*
X151785714Y-129264342D01*
X151785714Y-129264342D02*
X151738095Y-129359580D01*
X151738095Y-129359580D02*
X151690476Y-129407200D01*
X151690476Y-129407200D02*
X151595238Y-129454819D01*
X151595238Y-129454819D02*
X151357143Y-129454819D01*
X151357143Y-129454819D02*
X151261905Y-129407200D01*
X151261905Y-129407200D02*
X151214286Y-129359580D01*
X151833333Y-80454819D02*
X151500000Y-79978628D01*
X151261905Y-80454819D02*
X151261905Y-79454819D01*
X151261905Y-79454819D02*
X151642857Y-79454819D01*
X151642857Y-79454819D02*
X151738095Y-79502438D01*
X151738095Y-79502438D02*
X151785714Y-79550057D01*
X151785714Y-79550057D02*
X151833333Y-79645295D01*
X151833333Y-79645295D02*
X151833333Y-79788152D01*
X151833333Y-79788152D02*
X151785714Y-79883390D01*
X151785714Y-79883390D02*
X151738095Y-79931009D01*
X151738095Y-79931009D02*
X151642857Y-79978628D01*
X151642857Y-79978628D02*
X151261905Y-79978628D01*
X152166667Y-79454819D02*
X152833333Y-79454819D01*
X152833333Y-79454819D02*
X152404762Y-80454819D01*
X124534819Y-88333333D02*
X125249104Y-88333333D01*
X125249104Y-88333333D02*
X125391961Y-88380952D01*
X125391961Y-88380952D02*
X125487200Y-88476190D01*
X125487200Y-88476190D02*
X125534819Y-88619047D01*
X125534819Y-88619047D02*
X125534819Y-88714285D01*
X124534819Y-87428571D02*
X124534819Y-87619047D01*
X124534819Y-87619047D02*
X124582438Y-87714285D01*
X124582438Y-87714285D02*
X124630057Y-87761904D01*
X124630057Y-87761904D02*
X124772914Y-87857142D01*
X124772914Y-87857142D02*
X124963390Y-87904761D01*
X124963390Y-87904761D02*
X125344342Y-87904761D01*
X125344342Y-87904761D02*
X125439580Y-87857142D01*
X125439580Y-87857142D02*
X125487200Y-87809523D01*
X125487200Y-87809523D02*
X125534819Y-87714285D01*
X125534819Y-87714285D02*
X125534819Y-87523809D01*
X125534819Y-87523809D02*
X125487200Y-87428571D01*
X125487200Y-87428571D02*
X125439580Y-87380952D01*
X125439580Y-87380952D02*
X125344342Y-87333333D01*
X125344342Y-87333333D02*
X125106247Y-87333333D01*
X125106247Y-87333333D02*
X125011009Y-87380952D01*
X125011009Y-87380952D02*
X124963390Y-87428571D01*
X124963390Y-87428571D02*
X124915771Y-87523809D01*
X124915771Y-87523809D02*
X124915771Y-87714285D01*
X124915771Y-87714285D02*
X124963390Y-87809523D01*
X124963390Y-87809523D02*
X125011009Y-87857142D01*
X125011009Y-87857142D02*
X125106247Y-87904761D01*
D13*
X126390000Y-127690000D02*
X126390000Y-129500000D01*
X126390000Y-131310000D02*
X126390000Y-129500000D01*
X127790000Y-120390000D02*
X127790000Y-127690000D01*
X127790000Y-127690000D02*
X126390000Y-127690000D01*
X127790000Y-131310000D02*
X126390000Y-131310000D01*
X127790000Y-138610000D02*
X127790000Y-131310000D01*
X137610000Y-120390000D02*
X127790000Y-120390000D01*
X137610000Y-129500000D02*
X137610000Y-120390000D01*
X137610000Y-129500000D02*
X137610000Y-138610000D01*
X137610000Y-138610000D02*
X127790000Y-138610000D01*
X137850000Y-120150000D02*
X135000000Y-120150000D01*
X137850000Y-123000000D02*
X137850000Y-120150000D01*
X161130000Y-78230000D02*
X161130000Y-84770000D01*
X161130000Y-84770000D02*
X161460000Y-84770000D01*
X161460000Y-78230000D02*
X161130000Y-78230000D01*
X163540000Y-78230000D02*
X163870000Y-78230000D01*
X163870000Y-78230000D02*
X163870000Y-84770000D01*
X163870000Y-84770000D02*
X163540000Y-84770000D01*
X116190000Y-70420000D02*
X116190000Y-80580000D01*
X116190000Y-80580000D02*
X123810000Y-80580000D01*
X117460000Y-80580000D02*
X117460000Y-70420000D01*
X123810000Y-70420000D02*
X116190000Y-70420000D01*
X123810000Y-80580000D02*
X123810000Y-70420000D01*
X153080000Y-91980000D02*
X153080000Y-96020000D01*
X153705000Y-91980000D02*
X153080000Y-91980000D01*
X153705000Y-96020000D02*
X153080000Y-96020000D01*
X155920000Y-91980000D02*
X155295000Y-91980000D01*
X155920000Y-91980000D02*
X155920000Y-96020000D01*
X155920000Y-96020000D02*
X155295000Y-96020000D01*
X116190000Y-103920000D02*
X116190000Y-114080000D01*
X116190000Y-114080000D02*
X123810000Y-114080000D01*
X117460000Y-114080000D02*
X117460000Y-103920000D01*
X123810000Y-103920000D02*
X116190000Y-103920000D01*
X123810000Y-114080000D02*
X123810000Y-103920000D01*
D14*
G36*
X180380749Y-75615106D02*
G01*
X180405671Y-75713134D01*
X180352058Y-75839854D01*
X180254029Y-75864776D01*
X180127309Y-75811162D01*
X180102388Y-75713134D01*
X180156001Y-75586414D01*
X180254029Y-75561492D01*
X180380749Y-75615106D01*
G37*
G36*
X180987317Y-75311822D02*
G01*
X181012238Y-75409850D01*
X180958625Y-75536570D01*
X180860597Y-75561492D01*
X180733877Y-75507879D01*
X180708955Y-75409850D01*
X180762568Y-75283130D01*
X180860597Y-75258209D01*
X180987317Y-75311822D01*
G37*
G36*
X181618806Y-71163880D02*
G01*
X181618806Y-71618806D01*
X181163880Y-71618806D01*
X180708955Y-71618806D01*
X180708955Y-71163880D01*
X180708955Y-70708955D01*
X181163880Y-70708955D01*
X181618806Y-70708955D01*
X181618806Y-71163880D01*
G37*
G36*
X181618806Y-77836119D02*
G01*
X181618806Y-78291044D01*
X181163880Y-78291044D01*
X180708955Y-78291044D01*
X180708955Y-77836119D01*
X180708955Y-77381194D01*
X181163880Y-77381194D01*
X181618806Y-77381194D01*
X181618806Y-77836119D01*
G37*
G36*
X186143138Y-77738091D02*
G01*
X186168059Y-77836119D01*
X186114446Y-77962839D01*
X186016418Y-77987761D01*
X185889697Y-77934147D01*
X185864776Y-77836119D01*
X185918389Y-77709399D01*
X186016418Y-77684477D01*
X186143138Y-77738091D01*
G37*
G36*
X186446421Y-75615106D02*
G01*
X186471343Y-75713134D01*
X186417729Y-75839854D01*
X186319701Y-75864776D01*
X186192981Y-75811162D01*
X186168059Y-75713134D01*
X186221673Y-75586414D01*
X186319701Y-75561492D01*
X186446421Y-75615106D01*
G37*
G36*
X187052988Y-76828240D02*
G01*
X187077910Y-76926268D01*
X187024297Y-77052988D01*
X186926268Y-77077910D01*
X186799548Y-77024297D01*
X186774626Y-76926268D01*
X186828240Y-76799548D01*
X186926268Y-76774626D01*
X187052988Y-76828240D01*
G37*
G36*
X188291044Y-71163880D02*
G01*
X188291044Y-71618806D01*
X187836119Y-71618806D01*
X187381194Y-71618806D01*
X187381194Y-71163880D01*
X187381194Y-70708955D01*
X187836119Y-70708955D01*
X188291044Y-70708955D01*
X188291044Y-71163880D01*
G37*
G36*
X182225373Y-71163880D02*
G01*
X182225373Y-72225373D01*
X181163880Y-72225373D01*
X180102388Y-72225373D01*
X180102388Y-71922089D01*
X180405671Y-71922089D01*
X181163880Y-71922089D01*
X181922089Y-71922089D01*
X181922089Y-71163880D01*
X181922089Y-70405671D01*
X181163880Y-70405671D01*
X180405671Y-70405671D01*
X180405671Y-71163880D01*
X180405671Y-71922089D01*
X180102388Y-71922089D01*
X180102388Y-71163880D01*
X180102388Y-70102388D01*
X181163880Y-70102388D01*
X182225373Y-70102388D01*
X182225373Y-71163880D01*
G37*
G36*
X182225373Y-77836119D02*
G01*
X182225373Y-78897612D01*
X181163880Y-78897612D01*
X180102388Y-78897612D01*
X180102388Y-78594328D01*
X180405671Y-78594328D01*
X181163880Y-78594328D01*
X181922089Y-78594328D01*
X181922089Y-77836119D01*
X181922089Y-77077910D01*
X181163880Y-77077910D01*
X180405671Y-77077910D01*
X180405671Y-77836119D01*
X180405671Y-78594328D01*
X180102388Y-78594328D01*
X180102388Y-77836119D01*
X180102388Y-76774626D01*
X181163880Y-76774626D01*
X182225373Y-76774626D01*
X182225373Y-77836119D01*
G37*
G36*
X188897612Y-71163880D02*
G01*
X188897612Y-72225373D01*
X187836119Y-72225373D01*
X186774626Y-72225373D01*
X186774626Y-71922089D01*
X187077910Y-71922089D01*
X187836119Y-71922089D01*
X188594328Y-71922089D01*
X188594328Y-71163880D01*
X188594328Y-70405671D01*
X187836119Y-70405671D01*
X187077910Y-70405671D01*
X187077910Y-71163880D01*
X187077910Y-71922089D01*
X186774626Y-71922089D01*
X186774626Y-71163880D01*
X186774626Y-70102388D01*
X187836119Y-70102388D01*
X188897612Y-70102388D01*
X188897612Y-71163880D01*
G37*
G36*
X184323436Y-76221673D02*
G01*
X184348358Y-76319701D01*
X184401971Y-76446421D01*
X184500000Y-76471343D01*
X184626720Y-76524956D01*
X184651641Y-76622985D01*
X184598028Y-76749705D01*
X184500000Y-76774626D01*
X184373280Y-76828240D01*
X184348358Y-76926268D01*
X184322925Y-77025478D01*
X184220129Y-77069325D01*
X184045074Y-77077910D01*
X183846655Y-77065194D01*
X183758962Y-77013796D01*
X183741791Y-76926268D01*
X183795404Y-76799548D01*
X183893432Y-76774626D01*
X183992642Y-76749193D01*
X184036489Y-76646397D01*
X184045074Y-76471343D01*
X184057791Y-76272924D01*
X184109189Y-76185230D01*
X184196716Y-76168059D01*
X184323436Y-76221673D01*
G37*
G36*
X188897612Y-72831940D02*
G01*
X188884895Y-73030359D01*
X188833497Y-73118053D01*
X188745970Y-73135223D01*
X188619250Y-73188837D01*
X188594328Y-73286865D01*
X188647941Y-73413585D01*
X188745970Y-73438507D01*
X188872690Y-73492121D01*
X188897612Y-73590149D01*
X188843998Y-73716869D01*
X188745970Y-73741791D01*
X188619250Y-73688177D01*
X188594328Y-73590149D01*
X188568895Y-73490939D01*
X188466099Y-73447093D01*
X188291044Y-73438507D01*
X188092625Y-73425791D01*
X188004932Y-73374393D01*
X187987761Y-73286865D01*
X188013194Y-73187656D01*
X188115990Y-73143809D01*
X188291044Y-73135223D01*
X188489464Y-73122507D01*
X188577157Y-73071109D01*
X188594328Y-72983582D01*
X188540714Y-72856862D01*
X188442686Y-72831940D01*
X188315966Y-72778326D01*
X188291044Y-72680298D01*
X188316477Y-72581089D01*
X188419273Y-72537242D01*
X188594328Y-72528656D01*
X188897612Y-72528656D01*
X188897612Y-72831940D01*
G37*
G36*
X182779508Y-71947522D02*
G01*
X182823354Y-72050318D01*
X182831940Y-72225373D01*
X182844656Y-72423792D01*
X182896054Y-72511485D01*
X182983582Y-72528656D01*
X183110302Y-72582270D01*
X183135223Y-72680298D01*
X183081610Y-72807018D01*
X182983582Y-72831940D01*
X182856862Y-72885553D01*
X182831940Y-72983582D01*
X182806507Y-73082791D01*
X182703711Y-73126638D01*
X182528656Y-73135223D01*
X182330237Y-73147940D01*
X182242544Y-73199338D01*
X182225373Y-73286865D01*
X182171759Y-73413585D01*
X182073731Y-73438507D01*
X181947011Y-73492121D01*
X181922089Y-73590149D01*
X181975703Y-73716869D01*
X182073731Y-73741791D01*
X182200451Y-73795404D01*
X182225373Y-73893432D01*
X182278986Y-74020152D01*
X182377015Y-74045074D01*
X182503735Y-73991461D01*
X182528656Y-73893432D01*
X182582270Y-73766712D01*
X182680298Y-73741791D01*
X182807018Y-73795404D01*
X182831940Y-73893432D01*
X182778326Y-74020152D01*
X182680298Y-74045074D01*
X182553578Y-74098688D01*
X182528656Y-74196716D01*
X182475043Y-74323436D01*
X182377015Y-74348358D01*
X182250295Y-74401971D01*
X182225373Y-74500000D01*
X182171759Y-74626720D01*
X182073731Y-74651641D01*
X181947011Y-74598028D01*
X181922089Y-74500000D01*
X181975703Y-74373280D01*
X182073731Y-74348358D01*
X182200451Y-74294744D01*
X182225373Y-74196716D01*
X182171759Y-74069996D01*
X182073731Y-74045074D01*
X181947011Y-73991461D01*
X181922089Y-73893432D01*
X181905490Y-73808737D01*
X181832573Y-73762973D01*
X181668659Y-73744578D01*
X181467164Y-73741791D01*
X181213079Y-73747324D01*
X181075785Y-73771629D01*
X181020602Y-73826267D01*
X181012238Y-73893432D01*
X181037671Y-73992642D01*
X181140467Y-74036489D01*
X181315522Y-74045074D01*
X181513941Y-74057791D01*
X181601635Y-74109189D01*
X181618806Y-74196716D01*
X181565192Y-74323436D01*
X181467164Y-74348358D01*
X181340444Y-74401971D01*
X181315522Y-74500000D01*
X181369135Y-74626720D01*
X181467164Y-74651641D01*
X181593884Y-74705255D01*
X181618806Y-74803283D01*
X181631469Y-74878838D01*
X181689795Y-74924119D01*
X181824287Y-74946754D01*
X182065447Y-74954367D01*
X182225373Y-74954925D01*
X182831940Y-74954925D01*
X182831940Y-75409850D01*
X182831940Y-75864776D01*
X183135223Y-75864776D01*
X183333643Y-75877492D01*
X183421336Y-75928890D01*
X183438507Y-76016418D01*
X183492121Y-76143138D01*
X183590149Y-76168059D01*
X183716869Y-76221673D01*
X183741791Y-76319701D01*
X183688177Y-76446421D01*
X183590149Y-76471343D01*
X183490939Y-76496776D01*
X183447093Y-76599572D01*
X183438507Y-76774626D01*
X183425791Y-76973046D01*
X183374393Y-77060739D01*
X183286865Y-77077910D01*
X183202170Y-77061311D01*
X183156406Y-76988394D01*
X183138011Y-76824480D01*
X183135223Y-76622985D01*
X183129690Y-76368900D01*
X183105385Y-76231605D01*
X183050747Y-76176423D01*
X182983582Y-76168059D01*
X182908027Y-76180723D01*
X182862746Y-76239049D01*
X182840111Y-76373540D01*
X182832498Y-76614700D01*
X182831940Y-76774626D01*
X182828774Y-77076844D01*
X182814193Y-77257971D01*
X182780570Y-77348509D01*
X182720280Y-77378962D01*
X182680298Y-77381194D01*
X182604744Y-77368530D01*
X182559462Y-77310204D01*
X182536828Y-77175713D01*
X182529214Y-76934552D01*
X182528656Y-76774626D01*
X182525490Y-76472409D01*
X182510909Y-76291282D01*
X182477286Y-76200744D01*
X182416996Y-76170291D01*
X182377015Y-76168059D01*
X182250295Y-76221673D01*
X182225373Y-76319701D01*
X182216446Y-76383713D01*
X182172913Y-76426642D01*
X182069644Y-76452674D01*
X181881510Y-76465999D01*
X181583383Y-76470804D01*
X181315522Y-76471343D01*
X180931448Y-76469855D01*
X180673879Y-76462600D01*
X180517685Y-76445388D01*
X180437736Y-76414033D01*
X180408904Y-76364345D01*
X180405671Y-76319701D01*
X180431104Y-76220492D01*
X180533900Y-76176645D01*
X180708955Y-76168059D01*
X180907374Y-76155343D01*
X180995068Y-76103945D01*
X181012238Y-76016418D01*
X181065852Y-75889697D01*
X181163880Y-75864776D01*
X181290600Y-75811162D01*
X181315522Y-75713134D01*
X181369135Y-75586414D01*
X181467164Y-75561492D01*
X181566373Y-75586925D01*
X181610220Y-75689721D01*
X181618806Y-75864776D01*
X181618806Y-76168059D01*
X181922089Y-76168059D01*
X182120508Y-76155343D01*
X182208202Y-76103945D01*
X182225373Y-76016418D01*
X182171759Y-75889697D01*
X182073731Y-75864776D01*
X181947011Y-75811162D01*
X181922089Y-75713134D01*
X181947522Y-75613924D01*
X182050318Y-75570078D01*
X182225373Y-75561492D01*
X182423792Y-75548776D01*
X182511485Y-75497378D01*
X182528656Y-75409850D01*
X182515993Y-75334296D01*
X182457667Y-75289014D01*
X182323175Y-75266380D01*
X182082015Y-75258767D01*
X181922089Y-75258209D01*
X181619871Y-75255043D01*
X181438745Y-75240461D01*
X181348207Y-75206838D01*
X181317754Y-75146548D01*
X181315522Y-75106567D01*
X181261909Y-74979847D01*
X181163880Y-74954925D01*
X181037160Y-74901312D01*
X181012238Y-74803283D01*
X180958625Y-74676563D01*
X180860597Y-74651641D01*
X180733877Y-74705255D01*
X180708955Y-74803283D01*
X180683522Y-74902493D01*
X180580726Y-74946340D01*
X180405671Y-74954925D01*
X180207252Y-74942208D01*
X180119559Y-74890810D01*
X180102388Y-74803283D01*
X180127821Y-74704074D01*
X180230617Y-74660227D01*
X180405671Y-74651641D01*
X180708955Y-74651641D01*
X180708955Y-74348358D01*
X180696238Y-74149939D01*
X180644840Y-74062245D01*
X180557313Y-74045074D01*
X180430593Y-74098688D01*
X180405671Y-74196716D01*
X180352058Y-74323436D01*
X180254029Y-74348358D01*
X180127309Y-74294744D01*
X180102388Y-74196716D01*
X180156001Y-74069996D01*
X180254029Y-74045074D01*
X180380749Y-73991461D01*
X180405671Y-73893432D01*
X180352058Y-73766712D01*
X180254029Y-73741791D01*
X180405671Y-73741791D01*
X180708955Y-73741791D01*
X180907374Y-73729074D01*
X180995068Y-73677676D01*
X181012238Y-73590149D01*
X181037671Y-73490939D01*
X181140467Y-73447093D01*
X181315522Y-73438507D01*
X181513941Y-73425791D01*
X181601635Y-73374393D01*
X181618806Y-73286865D01*
X181644239Y-73187656D01*
X181747035Y-73143809D01*
X181922089Y-73135223D01*
X182120508Y-73122507D01*
X182208202Y-73071109D01*
X182225373Y-72983582D01*
X182199940Y-72884372D01*
X182097144Y-72840525D01*
X181922089Y-72831940D01*
X181723670Y-72844656D01*
X181635976Y-72896054D01*
X181618806Y-72983582D01*
X181593373Y-73082791D01*
X181490577Y-73126638D01*
X181315522Y-73135223D01*
X181117103Y-73122507D01*
X181029409Y-73071109D01*
X181012238Y-72983582D01*
X180958625Y-72856862D01*
X180860597Y-72831940D01*
X180733877Y-72885553D01*
X180708955Y-72983582D01*
X180655341Y-73110302D01*
X180557313Y-73135223D01*
X180458103Y-73160657D01*
X180414257Y-73263453D01*
X180405671Y-73438507D01*
X180405671Y-73741791D01*
X180254029Y-73741791D01*
X180154820Y-73716358D01*
X180110973Y-73613562D01*
X180102388Y-73438507D01*
X180115104Y-73240088D01*
X180166502Y-73152394D01*
X180254029Y-73135223D01*
X180380749Y-73081610D01*
X180405671Y-72983582D01*
X180352058Y-72856862D01*
X180254029Y-72831940D01*
X180127309Y-72778326D01*
X180102388Y-72680298D01*
X180156001Y-72553578D01*
X180254029Y-72528656D01*
X180380749Y-72582270D01*
X180405671Y-72680298D01*
X180459285Y-72807018D01*
X180557313Y-72831940D01*
X180684033Y-72778326D01*
X180708955Y-72680298D01*
X180734388Y-72581089D01*
X180837184Y-72537242D01*
X181012238Y-72528656D01*
X181210658Y-72541373D01*
X181298351Y-72592771D01*
X181315522Y-72680298D01*
X181369135Y-72807018D01*
X181467164Y-72831940D01*
X181593884Y-72778326D01*
X181618806Y-72680298D01*
X182528656Y-72680298D01*
X182582270Y-72807018D01*
X182680298Y-72831940D01*
X182807018Y-72778326D01*
X182831940Y-72680298D01*
X182778326Y-72553578D01*
X182680298Y-72528656D01*
X182553578Y-72582270D01*
X182528656Y-72680298D01*
X181618806Y-72680298D01*
X181635405Y-72595603D01*
X181708322Y-72549838D01*
X181872236Y-72531444D01*
X182073731Y-72528656D01*
X182528656Y-72528656D01*
X182528656Y-72225373D01*
X182541373Y-72026954D01*
X182592771Y-71939260D01*
X182680298Y-71922089D01*
X182779508Y-71947522D01*
G37*
G36*
X186471343Y-70557313D02*
G01*
X186465810Y-70811398D01*
X186441504Y-70948692D01*
X186386866Y-71003875D01*
X186319701Y-71012238D01*
X186220492Y-71037671D01*
X186176645Y-71140467D01*
X186168059Y-71315522D01*
X186180776Y-71513941D01*
X186232174Y-71601635D01*
X186319701Y-71618806D01*
X186418911Y-71644239D01*
X186462757Y-71747035D01*
X186471343Y-71922089D01*
X186458626Y-72120508D01*
X186407228Y-72208202D01*
X186319701Y-72225373D01*
X186192981Y-72171759D01*
X186168059Y-72073731D01*
X186114446Y-71947011D01*
X186016418Y-71922089D01*
X185917208Y-71947522D01*
X185873361Y-72050318D01*
X185864776Y-72225373D01*
X185877492Y-72423792D01*
X185928890Y-72511485D01*
X186016418Y-72528656D01*
X186143138Y-72582270D01*
X186168059Y-72680298D01*
X186221673Y-72807018D01*
X186319701Y-72831940D01*
X186446421Y-72885553D01*
X186471343Y-72983582D01*
X186524956Y-73110302D01*
X186622985Y-73135223D01*
X186722194Y-73109790D01*
X186766041Y-73006994D01*
X186774626Y-72831940D01*
X186787343Y-72633521D01*
X186838741Y-72545827D01*
X186926268Y-72528656D01*
X187052988Y-72582270D01*
X187077910Y-72680298D01*
X187103343Y-72779508D01*
X187206139Y-72823354D01*
X187381194Y-72831940D01*
X187579613Y-72819223D01*
X187667306Y-72767825D01*
X187684477Y-72680298D01*
X187738091Y-72553578D01*
X187836119Y-72528656D01*
X187962839Y-72582270D01*
X187987761Y-72680298D01*
X187934147Y-72807018D01*
X187836119Y-72831940D01*
X187709399Y-72885553D01*
X187684477Y-72983582D01*
X187630864Y-73110302D01*
X187532835Y-73135223D01*
X187406115Y-73188837D01*
X187381194Y-73286865D01*
X187434807Y-73413585D01*
X187532835Y-73438507D01*
X187659555Y-73492121D01*
X187684477Y-73590149D01*
X187709910Y-73689358D01*
X187812706Y-73733205D01*
X187987761Y-73741791D01*
X188186180Y-73754507D01*
X188273873Y-73805905D01*
X188291044Y-73893432D01*
X188316477Y-73992642D01*
X188419273Y-74036489D01*
X188594328Y-74045074D01*
X188897612Y-74045074D01*
X188897612Y-74348358D01*
X188884895Y-74546777D01*
X188833497Y-74634471D01*
X188745970Y-74651641D01*
X188661275Y-74668241D01*
X188615510Y-74741158D01*
X188597116Y-74905072D01*
X188594328Y-75106567D01*
X188588795Y-75360652D01*
X188564489Y-75497946D01*
X188509851Y-75553129D01*
X188442686Y-75561492D01*
X188357991Y-75578091D01*
X188312226Y-75651008D01*
X188293832Y-75814923D01*
X188291044Y-76016418D01*
X188291044Y-76471343D01*
X188594328Y-76471343D01*
X188792747Y-76484059D01*
X188880441Y-76535457D01*
X188897612Y-76622985D01*
X188843998Y-76749705D01*
X188745970Y-76774626D01*
X188646760Y-76800060D01*
X188602913Y-76902856D01*
X188594328Y-77077910D01*
X188581611Y-77276329D01*
X188530213Y-77364023D01*
X188442686Y-77381194D01*
X188315966Y-77434807D01*
X188291044Y-77532835D01*
X188237431Y-77659555D01*
X188139403Y-77684477D01*
X188012683Y-77738091D01*
X187987761Y-77836119D01*
X188041374Y-77962839D01*
X188139403Y-77987761D01*
X188266123Y-78041374D01*
X188291044Y-78139403D01*
X188344658Y-78266123D01*
X188442686Y-78291044D01*
X188541896Y-78265611D01*
X188585743Y-78162815D01*
X188594328Y-77987761D01*
X188607044Y-77789342D01*
X188658442Y-77701648D01*
X188745970Y-77684477D01*
X188845179Y-77709910D01*
X188889026Y-77812706D01*
X188897612Y-77987761D01*
X188884895Y-78186180D01*
X188833497Y-78273873D01*
X188745970Y-78291044D01*
X188646760Y-78316477D01*
X188602913Y-78419273D01*
X188594328Y-78594328D01*
X188581611Y-78792747D01*
X188530213Y-78880441D01*
X188442686Y-78897612D01*
X188343477Y-78872178D01*
X188299630Y-78769382D01*
X188291044Y-78594328D01*
X188278328Y-78395909D01*
X188226930Y-78308215D01*
X188139403Y-78291044D01*
X188012683Y-78344658D01*
X187987761Y-78442686D01*
X187934147Y-78569406D01*
X187836119Y-78594328D01*
X187709399Y-78540714D01*
X187684477Y-78442686D01*
X187738091Y-78315966D01*
X187836119Y-78291044D01*
X187962839Y-78237431D01*
X187987761Y-78139403D01*
X187962328Y-78040193D01*
X187859532Y-77996346D01*
X187684477Y-77987761D01*
X187381194Y-77987761D01*
X187381194Y-78291044D01*
X187368477Y-78489464D01*
X187317079Y-78577157D01*
X187229552Y-78594328D01*
X187102832Y-78647941D01*
X187077910Y-78745970D01*
X187065246Y-78821524D01*
X187006920Y-78866806D01*
X186872429Y-78889440D01*
X186631269Y-78897054D01*
X186471343Y-78897612D01*
X186169125Y-78894446D01*
X185987999Y-78879864D01*
X185897460Y-78846241D01*
X185867008Y-78785951D01*
X185864776Y-78745970D01*
X185811162Y-78619250D01*
X185713134Y-78594328D01*
X185586414Y-78540714D01*
X185561492Y-78442686D01*
X185507879Y-78315966D01*
X185409850Y-78291044D01*
X185283130Y-78344658D01*
X185258209Y-78442686D01*
X185204595Y-78569406D01*
X185106567Y-78594328D01*
X184979847Y-78647941D01*
X184954925Y-78745970D01*
X184938326Y-78830665D01*
X184865409Y-78876430D01*
X184701494Y-78894824D01*
X184500000Y-78897612D01*
X184245915Y-78892078D01*
X184108620Y-78867773D01*
X184053438Y-78813135D01*
X184045074Y-78745970D01*
X184028475Y-78661275D01*
X183955558Y-78615510D01*
X183791644Y-78597116D01*
X183590149Y-78594328D01*
X183336064Y-78599861D01*
X183198770Y-78624167D01*
X183143587Y-78678805D01*
X183135223Y-78745970D01*
X183109790Y-78845179D01*
X183006994Y-78889026D01*
X182831940Y-78897612D01*
X182633521Y-78884895D01*
X182545827Y-78833497D01*
X182528656Y-78745970D01*
X182582270Y-78619250D01*
X182680298Y-78594328D01*
X182807018Y-78540714D01*
X182831940Y-78442686D01*
X182778326Y-78315966D01*
X182680298Y-78291044D01*
X182581089Y-78265611D01*
X182537242Y-78162815D01*
X182528656Y-77987761D01*
X182528656Y-77684477D01*
X182831940Y-77684477D01*
X183030359Y-77671761D01*
X183118053Y-77620363D01*
X183135223Y-77532835D01*
X183160657Y-77433626D01*
X183263453Y-77389779D01*
X183438507Y-77381194D01*
X183636926Y-77393910D01*
X183724620Y-77445308D01*
X183741791Y-77532835D01*
X183716358Y-77632045D01*
X183613562Y-77675892D01*
X183438507Y-77684477D01*
X183240088Y-77697194D01*
X183152394Y-77748592D01*
X183135223Y-77836119D01*
X183081610Y-77962839D01*
X182983582Y-77987761D01*
X182856862Y-78041374D01*
X182831940Y-78139403D01*
X182848539Y-78224098D01*
X182921456Y-78269862D01*
X183085370Y-78288257D01*
X183286865Y-78291044D01*
X183540950Y-78285511D01*
X183678245Y-78261206D01*
X183733427Y-78206568D01*
X183741791Y-78139403D01*
X184045074Y-78139403D01*
X184098688Y-78266123D01*
X184196716Y-78291044D01*
X184323436Y-78237431D01*
X184348358Y-78139403D01*
X184294744Y-78012683D01*
X184196716Y-77987761D01*
X184651641Y-77987761D01*
X184654807Y-78289979D01*
X184669389Y-78471105D01*
X184703012Y-78561643D01*
X184763302Y-78592096D01*
X184803283Y-78594328D01*
X184930003Y-78540714D01*
X184954925Y-78442686D01*
X185008538Y-78315966D01*
X185106567Y-78291044D01*
X185233287Y-78237431D01*
X185258209Y-78139403D01*
X185204595Y-78012683D01*
X185106567Y-77987761D01*
X184979847Y-77934147D01*
X184954925Y-77836119D01*
X185008538Y-77709399D01*
X185106567Y-77684477D01*
X185233287Y-77630864D01*
X185258209Y-77532835D01*
X185311822Y-77406115D01*
X185409850Y-77381194D01*
X185509060Y-77406627D01*
X185552907Y-77509423D01*
X185561492Y-77684477D01*
X185574209Y-77882896D01*
X185625607Y-77970590D01*
X185713134Y-77987761D01*
X185812343Y-78013194D01*
X185856190Y-78115990D01*
X185864776Y-78291044D01*
X185877492Y-78489464D01*
X185928890Y-78577157D01*
X186016418Y-78594328D01*
X186115627Y-78568895D01*
X186159474Y-78466099D01*
X186168059Y-78291044D01*
X186180776Y-78092625D01*
X186232174Y-78004932D01*
X186319701Y-77987761D01*
X186446421Y-78041374D01*
X186471343Y-78139403D01*
X186524956Y-78266123D01*
X186622985Y-78291044D01*
X186749705Y-78344658D01*
X186774626Y-78442686D01*
X186828240Y-78569406D01*
X186926268Y-78594328D01*
X187010963Y-78577729D01*
X187056728Y-78504812D01*
X187075122Y-78340897D01*
X187077910Y-78139403D01*
X187072377Y-77885318D01*
X187048071Y-77748023D01*
X186993433Y-77692841D01*
X186926268Y-77684477D01*
X186799548Y-77738091D01*
X186774626Y-77836119D01*
X186721013Y-77962839D01*
X186622985Y-77987761D01*
X186496265Y-77934147D01*
X186471343Y-77836119D01*
X186417729Y-77709399D01*
X186319701Y-77684477D01*
X186220492Y-77659044D01*
X186176645Y-77556248D01*
X186175497Y-77532835D01*
X187684477Y-77532835D01*
X187738091Y-77659555D01*
X187836119Y-77684477D01*
X187962839Y-77630864D01*
X187987761Y-77532835D01*
X188041374Y-77406115D01*
X188139403Y-77381194D01*
X188238612Y-77355761D01*
X188282459Y-77252965D01*
X188291044Y-77077910D01*
X188278328Y-76879491D01*
X188226930Y-76791797D01*
X188139403Y-76774626D01*
X188040193Y-76800060D01*
X187996346Y-76902856D01*
X187987761Y-77077910D01*
X187975044Y-77276329D01*
X187923646Y-77364023D01*
X187836119Y-77381194D01*
X187709399Y-77434807D01*
X187684477Y-77532835D01*
X186175497Y-77532835D01*
X186168059Y-77381194D01*
X186471343Y-77381194D01*
X186926268Y-77381194D01*
X187381194Y-77381194D01*
X187381194Y-76926268D01*
X187381194Y-76471343D01*
X186926268Y-76471343D01*
X186471343Y-76471343D01*
X186471343Y-76926268D01*
X186471343Y-77381194D01*
X186168059Y-77381194D01*
X186168059Y-77077910D01*
X185561492Y-77077910D01*
X185259274Y-77081076D01*
X185078148Y-77095657D01*
X184987610Y-77129280D01*
X184957157Y-77189570D01*
X184954925Y-77229552D01*
X184901312Y-77356272D01*
X184803283Y-77381194D01*
X184727729Y-77393857D01*
X184682447Y-77452183D01*
X184659813Y-77586675D01*
X184652199Y-77827835D01*
X184651641Y-77987761D01*
X184196716Y-77987761D01*
X184069996Y-78041374D01*
X184045074Y-78139403D01*
X183741791Y-78139403D01*
X183795404Y-78012683D01*
X183893432Y-77987761D01*
X184020152Y-77934147D01*
X184045074Y-77836119D01*
X184098688Y-77709399D01*
X184196716Y-77684477D01*
X184323436Y-77630864D01*
X184348358Y-77532835D01*
X184401971Y-77406115D01*
X184500000Y-77381194D01*
X184626720Y-77327580D01*
X184651641Y-77229552D01*
X184705255Y-77102832D01*
X184803283Y-77077910D01*
X184887978Y-77061311D01*
X184933743Y-76988394D01*
X184940715Y-76926268D01*
X184952137Y-76824480D01*
X184954925Y-76622985D01*
X184949392Y-76368900D01*
X184925086Y-76231605D01*
X184870448Y-76176423D01*
X184803283Y-76168059D01*
X184718588Y-76151460D01*
X184672823Y-76078543D01*
X184665851Y-76016418D01*
X184954925Y-76016418D01*
X185008538Y-76143138D01*
X185106567Y-76168059D01*
X185233287Y-76114446D01*
X185258209Y-76016418D01*
X185283642Y-75917208D01*
X185386438Y-75873361D01*
X185561492Y-75864776D01*
X185864776Y-75864776D01*
X185864776Y-76319701D01*
X185870309Y-76573786D01*
X185894614Y-76711080D01*
X185949253Y-76766263D01*
X186016418Y-76774626D01*
X186115627Y-76749193D01*
X186159474Y-76646397D01*
X186168059Y-76471343D01*
X186168059Y-76168059D01*
X186471343Y-76168059D01*
X186774626Y-76168059D01*
X186774626Y-75864776D01*
X186787343Y-75666357D01*
X186838741Y-75578663D01*
X186926268Y-75561492D01*
X187052988Y-75507879D01*
X187077910Y-75409850D01*
X187131524Y-75283130D01*
X187229552Y-75258209D01*
X187356272Y-75311822D01*
X187381194Y-75409850D01*
X187434807Y-75536570D01*
X187532835Y-75561492D01*
X187632045Y-75586925D01*
X187675892Y-75689721D01*
X187684477Y-75864776D01*
X187697194Y-76063195D01*
X187748592Y-76150888D01*
X187836119Y-76168059D01*
X187935329Y-76142626D01*
X187979175Y-76039830D01*
X187987761Y-75864776D01*
X187975044Y-75666357D01*
X187923646Y-75578663D01*
X187836119Y-75561492D01*
X187709399Y-75507879D01*
X187684477Y-75409850D01*
X187630864Y-75283130D01*
X187532835Y-75258209D01*
X187406115Y-75204595D01*
X187381194Y-75106567D01*
X187364594Y-75021872D01*
X187291677Y-74976107D01*
X187127763Y-74957713D01*
X186926268Y-74954925D01*
X186672183Y-74960458D01*
X186534889Y-74984764D01*
X186479706Y-75039402D01*
X186471343Y-75106567D01*
X186445910Y-75205776D01*
X186343114Y-75249623D01*
X186168059Y-75258209D01*
X185969640Y-75270925D01*
X185881947Y-75322323D01*
X185864776Y-75409850D01*
X185811162Y-75536570D01*
X185713134Y-75561492D01*
X185613924Y-75536059D01*
X185570078Y-75433263D01*
X185561492Y-75258209D01*
X185574209Y-75059789D01*
X185625607Y-74972096D01*
X185713134Y-74954925D01*
X185839854Y-74901312D01*
X185864776Y-74803283D01*
X185839343Y-74704074D01*
X185736547Y-74660227D01*
X185561492Y-74651641D01*
X185258209Y-74651641D01*
X185258209Y-74954925D01*
X185245492Y-75153344D01*
X185194094Y-75241038D01*
X185106567Y-75258209D01*
X184979847Y-75311822D01*
X184954925Y-75409850D01*
X185008538Y-75536570D01*
X185106567Y-75561492D01*
X185233287Y-75615106D01*
X185258209Y-75713134D01*
X185204595Y-75839854D01*
X185106567Y-75864776D01*
X184979847Y-75918389D01*
X184954925Y-76016418D01*
X184665851Y-76016418D01*
X184654429Y-75914629D01*
X184651641Y-75713134D01*
X184657174Y-75459049D01*
X184665884Y-75409850D01*
X184681480Y-75321755D01*
X184736118Y-75266572D01*
X184803283Y-75258209D01*
X184930003Y-75204595D01*
X184954925Y-75106567D01*
X184901312Y-74979847D01*
X184803283Y-74954925D01*
X184676563Y-74901312D01*
X184651641Y-74803283D01*
X184598028Y-74676563D01*
X184500000Y-74651641D01*
X184373280Y-74705255D01*
X184348358Y-74803283D01*
X184294744Y-74930003D01*
X184196716Y-74954925D01*
X184069996Y-75008538D01*
X184045074Y-75106567D01*
X184098688Y-75233287D01*
X184196716Y-75258209D01*
X184323436Y-75311822D01*
X184348358Y-75409850D01*
X184294744Y-75536570D01*
X184196716Y-75561492D01*
X184069996Y-75507879D01*
X184045074Y-75409850D01*
X184019641Y-75310641D01*
X183916845Y-75266794D01*
X183741791Y-75258209D01*
X183543372Y-75270925D01*
X183455678Y-75322323D01*
X183438507Y-75409850D01*
X183384894Y-75536570D01*
X183286865Y-75561492D01*
X183202170Y-75544893D01*
X183156406Y-75471976D01*
X183138011Y-75308062D01*
X183135223Y-75106567D01*
X183140757Y-74852482D01*
X183165062Y-74715188D01*
X183219700Y-74660005D01*
X183286865Y-74651641D01*
X183413585Y-74705255D01*
X183438507Y-74803283D01*
X183463940Y-74902493D01*
X183566736Y-74946340D01*
X183741791Y-74954925D01*
X183940210Y-74942208D01*
X184027903Y-74890810D01*
X184045074Y-74803283D01*
X183991461Y-74676563D01*
X183893432Y-74651641D01*
X183766712Y-74598028D01*
X183741791Y-74500000D01*
X184045074Y-74500000D01*
X184098688Y-74626720D01*
X184196716Y-74651641D01*
X184323436Y-74598028D01*
X184348358Y-74500000D01*
X184651641Y-74500000D01*
X184705255Y-74626720D01*
X184803283Y-74651641D01*
X184930003Y-74598028D01*
X184954925Y-74500000D01*
X184901312Y-74373280D01*
X184803283Y-74348358D01*
X184676563Y-74401971D01*
X184651641Y-74500000D01*
X184348358Y-74500000D01*
X184294744Y-74373280D01*
X184196716Y-74348358D01*
X184069996Y-74401971D01*
X184045074Y-74500000D01*
X183741791Y-74500000D01*
X183716358Y-74400790D01*
X183613562Y-74356943D01*
X183438507Y-74348358D01*
X183135223Y-74348358D01*
X183135223Y-73893432D01*
X183438507Y-73893432D01*
X183492121Y-74020152D01*
X183590149Y-74045074D01*
X183716869Y-73991461D01*
X183741791Y-73893432D01*
X184045074Y-73893432D01*
X184057738Y-73968987D01*
X184116064Y-74014269D01*
X184250555Y-74036903D01*
X184491715Y-74044516D01*
X184651641Y-74045074D01*
X184953859Y-74041908D01*
X185134986Y-74027327D01*
X185225524Y-73993704D01*
X185255977Y-73933414D01*
X185258209Y-73893432D01*
X185311822Y-73766712D01*
X185409850Y-73741791D01*
X185536570Y-73795404D01*
X185561492Y-73893432D01*
X185615106Y-74020152D01*
X185713134Y-74045074D01*
X185839854Y-74098688D01*
X185864776Y-74196716D01*
X185890209Y-74295926D01*
X185993005Y-74339772D01*
X186168059Y-74348358D01*
X186366478Y-74361074D01*
X186454172Y-74412472D01*
X186471343Y-74500000D01*
X186524956Y-74626720D01*
X186622985Y-74651641D01*
X186722194Y-74626208D01*
X186766041Y-74523412D01*
X186774626Y-74348358D01*
X186787343Y-74149939D01*
X186838741Y-74062245D01*
X186926268Y-74045074D01*
X187025478Y-74070507D01*
X187069325Y-74173303D01*
X187077910Y-74348358D01*
X187077910Y-74651641D01*
X187381194Y-74651641D01*
X187579613Y-74664358D01*
X187667306Y-74715756D01*
X187684477Y-74803283D01*
X187738091Y-74930003D01*
X187836119Y-74954925D01*
X187962839Y-75008538D01*
X187987761Y-75106567D01*
X188041374Y-75233287D01*
X188139403Y-75258209D01*
X188238612Y-75232776D01*
X188282459Y-75129980D01*
X188291044Y-74954925D01*
X188278328Y-74756506D01*
X188226930Y-74668812D01*
X188139403Y-74651641D01*
X188040193Y-74626208D01*
X187996346Y-74523412D01*
X187987761Y-74348358D01*
X187975044Y-74149939D01*
X187923646Y-74062245D01*
X187836119Y-74045074D01*
X187709399Y-73991461D01*
X187684477Y-73893432D01*
X187630864Y-73766712D01*
X187532835Y-73741791D01*
X187406115Y-73688177D01*
X187381194Y-73590149D01*
X187327580Y-73463429D01*
X187229552Y-73438507D01*
X187102832Y-73384894D01*
X187077910Y-73286865D01*
X187024297Y-73160145D01*
X186926268Y-73135223D01*
X186799548Y-73188837D01*
X186774626Y-73286865D01*
X186828240Y-73413585D01*
X186926268Y-73438507D01*
X187052988Y-73492121D01*
X187077910Y-73590149D01*
X187065246Y-73665703D01*
X187006920Y-73710985D01*
X186872429Y-73733619D01*
X186631269Y-73741233D01*
X186471343Y-73741791D01*
X186169125Y-73738625D01*
X185987999Y-73724043D01*
X185897460Y-73690420D01*
X185867008Y-73630130D01*
X185864776Y-73590149D01*
X185918389Y-73463429D01*
X186016418Y-73438507D01*
X186143138Y-73384894D01*
X186168059Y-73286865D01*
X186114446Y-73160145D01*
X186016418Y-73135223D01*
X185889697Y-73188837D01*
X185864776Y-73286865D01*
X185811162Y-73413585D01*
X185713134Y-73438507D01*
X185628439Y-73421908D01*
X185582674Y-73348991D01*
X185564280Y-73185077D01*
X185561492Y-72983582D01*
X185555959Y-72729497D01*
X185531653Y-72592202D01*
X185477015Y-72537020D01*
X185409850Y-72528656D01*
X185325155Y-72545256D01*
X185279391Y-72618173D01*
X185260996Y-72782087D01*
X185258209Y-72983582D01*
X185252675Y-73237667D01*
X185228370Y-73374961D01*
X185173732Y-73430144D01*
X185106567Y-73438507D01*
X184979847Y-73492121D01*
X184954925Y-73590149D01*
X184938326Y-73674844D01*
X184865409Y-73720609D01*
X184701494Y-73739003D01*
X184500000Y-73741791D01*
X184245915Y-73747324D01*
X184108620Y-73771629D01*
X184053438Y-73826267D01*
X184045074Y-73893432D01*
X183741791Y-73893432D01*
X183688177Y-73766712D01*
X183590149Y-73741791D01*
X183463429Y-73795404D01*
X183438507Y-73893432D01*
X183135223Y-73893432D01*
X183135223Y-73741791D01*
X183135223Y-73135223D01*
X183438507Y-73135223D01*
X183636926Y-73147940D01*
X183724620Y-73199338D01*
X183741791Y-73286865D01*
X183754454Y-73362420D01*
X183812780Y-73407701D01*
X183947272Y-73430336D01*
X184188432Y-73437949D01*
X184348358Y-73438507D01*
X184650576Y-73435341D01*
X184831702Y-73420760D01*
X184922240Y-73387137D01*
X184952693Y-73326847D01*
X184954925Y-73286865D01*
X184901312Y-73160145D01*
X184803283Y-73135223D01*
X184676563Y-73081610D01*
X184651641Y-72983582D01*
X184598028Y-72856862D01*
X184500000Y-72831940D01*
X184373280Y-72778326D01*
X184348358Y-72680298D01*
X184651641Y-72680298D01*
X184705255Y-72807018D01*
X184803283Y-72831940D01*
X184930003Y-72778326D01*
X184954925Y-72680298D01*
X184901312Y-72553578D01*
X184803283Y-72528656D01*
X184676563Y-72582270D01*
X184651641Y-72680298D01*
X184348358Y-72680298D01*
X184401971Y-72553578D01*
X184500000Y-72528656D01*
X184626720Y-72475043D01*
X184651641Y-72377015D01*
X184598028Y-72250295D01*
X184500000Y-72225373D01*
X184415305Y-72208774D01*
X184369540Y-72135856D01*
X184351146Y-71971942D01*
X184350456Y-71922089D01*
X184651641Y-71922089D01*
X184664358Y-72120508D01*
X184715756Y-72208202D01*
X184803283Y-72225373D01*
X184902493Y-72199940D01*
X184946340Y-72097144D01*
X184954925Y-71922089D01*
X184942208Y-71723670D01*
X184890810Y-71635976D01*
X184803283Y-71618806D01*
X184704074Y-71644239D01*
X184660227Y-71747035D01*
X184651641Y-71922089D01*
X184350456Y-71922089D01*
X184348358Y-71770447D01*
X184348358Y-71315522D01*
X184045074Y-71315522D01*
X183846655Y-71328239D01*
X183758962Y-71379637D01*
X183741791Y-71467164D01*
X183795404Y-71593884D01*
X183893432Y-71618806D01*
X183968987Y-71631469D01*
X184014269Y-71689795D01*
X184036903Y-71824287D01*
X184044516Y-72065447D01*
X184045074Y-72225373D01*
X184041908Y-72527591D01*
X184027327Y-72708717D01*
X183993704Y-72799255D01*
X183933414Y-72829708D01*
X183893432Y-72831940D01*
X183808737Y-72815341D01*
X183762973Y-72742424D01*
X183744578Y-72578509D01*
X183741791Y-72377015D01*
X183736258Y-72122929D01*
X183711952Y-71985635D01*
X183657314Y-71930453D01*
X183590149Y-71922089D01*
X183463429Y-71975703D01*
X183438507Y-72073731D01*
X183384894Y-72200451D01*
X183286865Y-72225373D01*
X183187656Y-72199940D01*
X183143809Y-72097144D01*
X183135223Y-71922089D01*
X183122507Y-71723670D01*
X183071109Y-71635976D01*
X182983582Y-71618806D01*
X182856862Y-71565192D01*
X182831940Y-71467164D01*
X182778326Y-71340444D01*
X182680298Y-71315522D01*
X182553578Y-71261909D01*
X182528656Y-71163880D01*
X182582270Y-71037160D01*
X182680298Y-71012238D01*
X182807018Y-70958625D01*
X182831940Y-70860597D01*
X182778326Y-70733877D01*
X182680298Y-70708955D01*
X182581089Y-70683522D01*
X182537242Y-70580726D01*
X182528656Y-70405671D01*
X182541373Y-70207252D01*
X182592771Y-70119559D01*
X182680298Y-70102388D01*
X182779508Y-70127821D01*
X182823354Y-70230617D01*
X182831940Y-70405671D01*
X182844656Y-70604090D01*
X182896054Y-70691784D01*
X182983582Y-70708955D01*
X183082791Y-70683522D01*
X183126638Y-70580726D01*
X183135223Y-70405671D01*
X183147940Y-70207252D01*
X183199338Y-70119559D01*
X183286865Y-70102388D01*
X183386075Y-70127821D01*
X183429922Y-70230617D01*
X183438507Y-70405671D01*
X183425791Y-70604090D01*
X183374393Y-70691784D01*
X183286865Y-70708955D01*
X183202170Y-70725554D01*
X183156406Y-70798471D01*
X183138011Y-70962385D01*
X183135223Y-71163880D01*
X183140757Y-71417965D01*
X183165062Y-71555259D01*
X183219700Y-71610442D01*
X183286865Y-71618806D01*
X183386075Y-71593373D01*
X183429922Y-71490577D01*
X183438507Y-71315522D01*
X183438507Y-71012238D01*
X183741791Y-71012238D01*
X184045074Y-71012238D01*
X184045074Y-70860597D01*
X184348358Y-70860597D01*
X184401971Y-70987317D01*
X184500000Y-71012238D01*
X184626720Y-71065852D01*
X184651641Y-71163880D01*
X184677074Y-71263090D01*
X184779870Y-71306937D01*
X184954925Y-71315522D01*
X185153344Y-71302805D01*
X185241038Y-71251407D01*
X185258209Y-71163880D01*
X185311822Y-71037160D01*
X185409850Y-71012238D01*
X185509060Y-71037671D01*
X185552907Y-71140467D01*
X185561492Y-71315522D01*
X185548776Y-71513941D01*
X185497378Y-71601635D01*
X185409850Y-71618806D01*
X185310641Y-71644239D01*
X185266794Y-71747035D01*
X185258209Y-71922089D01*
X185270925Y-72120508D01*
X185322323Y-72208202D01*
X185409850Y-72225373D01*
X185536570Y-72171759D01*
X185561492Y-72073731D01*
X185615106Y-71947011D01*
X185713134Y-71922089D01*
X185788688Y-71909426D01*
X185833970Y-71851100D01*
X185856605Y-71716608D01*
X185864218Y-71475448D01*
X185864776Y-71315522D01*
X185867942Y-71013304D01*
X185882523Y-70832178D01*
X185916146Y-70741640D01*
X185976436Y-70711187D01*
X186016418Y-70708955D01*
X186143138Y-70655341D01*
X186168059Y-70557313D01*
X186114446Y-70430593D01*
X186016418Y-70405671D01*
X185889697Y-70459285D01*
X185864776Y-70557313D01*
X185848177Y-70642008D01*
X185775259Y-70687773D01*
X185611345Y-70706167D01*
X185409850Y-70708955D01*
X185155765Y-70714488D01*
X185018471Y-70738794D01*
X184963288Y-70793432D01*
X184954925Y-70860597D01*
X184901312Y-70987317D01*
X184803283Y-71012238D01*
X184676563Y-70958625D01*
X184651641Y-70860597D01*
X184598028Y-70733877D01*
X184500000Y-70708955D01*
X184373280Y-70762568D01*
X184348358Y-70860597D01*
X184045074Y-70860597D01*
X184045074Y-70708955D01*
X184032358Y-70510536D01*
X183980960Y-70422842D01*
X183893432Y-70405671D01*
X183766712Y-70352058D01*
X183741791Y-70254029D01*
X183795404Y-70127309D01*
X183893432Y-70102388D01*
X184020152Y-70156001D01*
X184045074Y-70254029D01*
X184098688Y-70380749D01*
X184196716Y-70405671D01*
X184323436Y-70352058D01*
X184348358Y-70254029D01*
X184401971Y-70127309D01*
X184500000Y-70102388D01*
X184599209Y-70127821D01*
X184643056Y-70230617D01*
X184651641Y-70405671D01*
X184664358Y-70604090D01*
X184715756Y-70691784D01*
X184803283Y-70708955D01*
X184902493Y-70683522D01*
X184946340Y-70580726D01*
X184954925Y-70405671D01*
X184967642Y-70207252D01*
X185019040Y-70119559D01*
X185106567Y-70102388D01*
X185233287Y-70156001D01*
X185258209Y-70254029D01*
X185283642Y-70353239D01*
X185386438Y-70397086D01*
X185561492Y-70405671D01*
X185759911Y-70392955D01*
X185847605Y-70341557D01*
X185864776Y-70254029D01*
X185890209Y-70154820D01*
X185993005Y-70110973D01*
X186168059Y-70102388D01*
X186471343Y-70102388D01*
X186471343Y-70557313D01*
G37*
D13*
X154360000Y-125870000D02*
X154360000Y-136150000D01*
X154360000Y-136150000D02*
X159660000Y-136150000D01*
X156010000Y-125870000D02*
X154360000Y-125870000D01*
X159660000Y-125870000D02*
X158010000Y-125870000D01*
X159660000Y-136150000D02*
X159660000Y-125870000D01*
X158010000Y-125870000D02*
G75*
G02*
X156010000Y-125870000I-1000000J0D01*
G01*
X164530000Y-71280000D02*
X164530000Y-76720000D01*
X164530000Y-76720000D02*
X164660000Y-76720000D01*
X164660000Y-71280000D02*
X164530000Y-71280000D01*
X167340000Y-71280000D02*
X167470000Y-71280000D01*
X167470000Y-71280000D02*
X167470000Y-76720000D01*
X167470000Y-72060000D02*
X164530000Y-72060000D01*
X167470000Y-72180000D02*
X164530000Y-72180000D01*
X167470000Y-72300000D02*
X164530000Y-72300000D01*
X167470000Y-76720000D02*
X167340000Y-76720000D01*
X128780000Y-61000000D02*
X128880000Y-61000000D01*
X128880000Y-57880000D02*
X128880000Y-64120000D01*
X128880000Y-64120000D02*
X146120000Y-64120000D01*
X146120000Y-57880000D02*
X128880000Y-57880000D01*
X146120000Y-64120000D02*
X146120000Y-57880000D01*
X146220000Y-61000000D02*
X146120000Y-61000000D01*
X160730000Y-92630000D02*
X167270000Y-92630000D01*
X160730000Y-92960000D02*
X160730000Y-92630000D01*
X160730000Y-95040000D02*
X160730000Y-95370000D01*
X160730000Y-95370000D02*
X167270000Y-95370000D01*
X167270000Y-92630000D02*
X167270000Y-92960000D01*
X167270000Y-95370000D02*
X167270000Y-95040000D01*
X163480000Y-125080000D02*
X163480000Y-125705000D01*
X163480000Y-125080000D02*
X167520000Y-125080000D01*
X163480000Y-127295000D02*
X163480000Y-127920000D01*
X163480000Y-127920000D02*
X167520000Y-127920000D01*
X167520000Y-125080000D02*
X167520000Y-125705000D01*
X167520000Y-127295000D02*
X167520000Y-127920000D01*
X140480000Y-115080000D02*
X140480000Y-115705000D01*
X140480000Y-115080000D02*
X144520000Y-115080000D01*
X140480000Y-117295000D02*
X140480000Y-117920000D01*
X140480000Y-117920000D02*
X144520000Y-117920000D01*
X144520000Y-115080000D02*
X144520000Y-115705000D01*
X144520000Y-117295000D02*
X144520000Y-117920000D01*
X147130000Y-71230000D02*
X147130000Y-77770000D01*
X147130000Y-77770000D02*
X147460000Y-77770000D01*
X147460000Y-71230000D02*
X147130000Y-71230000D01*
X149540000Y-71230000D02*
X149870000Y-71230000D01*
X149870000Y-71230000D02*
X149870000Y-77770000D01*
X149870000Y-77770000D02*
X149540000Y-77770000D01*
X165340000Y-97350000D02*
X165340000Y-107630000D01*
X165340000Y-107630000D02*
X166990000Y-107630000D01*
X168990000Y-107630000D02*
X170640000Y-107630000D01*
X170640000Y-97350000D02*
X165340000Y-97350000D01*
X170640000Y-107630000D02*
X170640000Y-97350000D01*
X166990000Y-107630000D02*
G75*
G02*
X168990000Y-107630000I1000000J0D01*
G01*
X139480000Y-81205000D02*
X139480000Y-80580000D01*
X139480000Y-83420000D02*
X139480000Y-82795000D01*
X143520000Y-80580000D02*
X139480000Y-80580000D01*
X143520000Y-81205000D02*
X143520000Y-80580000D01*
X143520000Y-83420000D02*
X139480000Y-83420000D01*
X143520000Y-83420000D02*
X143520000Y-82795000D01*
X145970000Y-92115000D02*
X151040000Y-92115000D01*
X145970000Y-101885000D02*
X145970000Y-92115000D01*
X145970000Y-101885000D02*
X151040000Y-101885000D01*
X151040000Y-101885000D02*
X151040000Y-92115000D01*
X168120000Y-114800000D02*
X168120000Y-111200000D01*
X163920000Y-111890000D02*
G75*
G02*
X165171629Y-110644542I2350000J-1110000D01*
G01*
X165166158Y-115367199D02*
G75*
G02*
X163920000Y-114140000I1103842J2367199D01*
G01*
X167392795Y-110675816D02*
G75*
G02*
X168120000Y-111200000I-1122795J-2324184D01*
G01*
X168120000Y-114800000D02*
G75*
G02*
X167392795Y-115324184I-1850000J1800000D01*
G01*
X169580000Y-110980000D02*
X170205000Y-110980000D01*
X169580000Y-115020000D02*
X169580000Y-110980000D01*
X169580000Y-115020000D02*
X170205000Y-115020000D01*
X171795000Y-110980000D02*
X172420000Y-110980000D01*
X171795000Y-115020000D02*
X172420000Y-115020000D01*
X172420000Y-115020000D02*
X172420000Y-110980000D01*
X152480000Y-137080000D02*
X152480000Y-137705000D01*
X152480000Y-137080000D02*
X156520000Y-137080000D01*
X152480000Y-139295000D02*
X152480000Y-139920000D01*
X152480000Y-139920000D02*
X156520000Y-139920000D01*
X156520000Y-137080000D02*
X156520000Y-137705000D01*
X156520000Y-139295000D02*
X156520000Y-139920000D01*
X141730000Y-124130000D02*
X148270000Y-124130000D01*
X141730000Y-124460000D02*
X141730000Y-124130000D01*
X141730000Y-126540000D02*
X141730000Y-126870000D01*
X141730000Y-126870000D02*
X148270000Y-126870000D01*
X148270000Y-124130000D02*
X148270000Y-124460000D01*
X148270000Y-126870000D02*
X148270000Y-126540000D01*
X142340000Y-103850000D02*
X142340000Y-114130000D01*
X142340000Y-114130000D02*
X143990000Y-114130000D01*
X145990000Y-114130000D02*
X147640000Y-114130000D01*
X147640000Y-103850000D02*
X142340000Y-103850000D01*
X147640000Y-114130000D02*
X147640000Y-103850000D01*
X143990000Y-114130000D02*
G75*
G02*
X145990000Y-114130000I1000000J0D01*
G01*
X116190000Y-116420000D02*
X116190000Y-126580000D01*
X116190000Y-126580000D02*
X123810000Y-126580000D01*
X117460000Y-126580000D02*
X117460000Y-116420000D01*
X123810000Y-116420000D02*
X116190000Y-116420000D01*
X123810000Y-126580000D02*
X123810000Y-116420000D01*
X152130000Y-98730000D02*
X152460000Y-98730000D01*
X152130000Y-105270000D02*
X152130000Y-98730000D01*
X152460000Y-105270000D02*
X152130000Y-105270000D01*
X154540000Y-105270000D02*
X154870000Y-105270000D01*
X154870000Y-98730000D02*
X154540000Y-98730000D01*
X154870000Y-105270000D02*
X154870000Y-98730000D01*
X126390000Y-90190000D02*
X126390000Y-92000000D01*
X126390000Y-93810000D02*
X126390000Y-92000000D01*
X127790000Y-66090000D02*
X127790000Y-90190000D01*
X127790000Y-90190000D02*
X126390000Y-90190000D01*
X127790000Y-93810000D02*
X126390000Y-93810000D01*
X127790000Y-117910000D02*
X127790000Y-93810000D01*
X137610000Y-66090000D02*
X127790000Y-66090000D01*
X137610000Y-92000000D02*
X137610000Y-66090000D01*
X137610000Y-92000000D02*
X137610000Y-117910000D01*
X137610000Y-117910000D02*
X127790000Y-117910000D01*
X137850000Y-65850000D02*
X135000000Y-65850000D01*
X137850000Y-68700000D02*
X137850000Y-65850000D01*
X154130000Y-71230000D02*
X154130000Y-77770000D01*
X154130000Y-77770000D02*
X154460000Y-77770000D01*
X154460000Y-71230000D02*
X154130000Y-71230000D01*
X156540000Y-71230000D02*
X156870000Y-71230000D01*
X156870000Y-71230000D02*
X156870000Y-77770000D01*
X156870000Y-77770000D02*
X156540000Y-77770000D01*
X141730000Y-131130000D02*
X148270000Y-131130000D01*
X141730000Y-131460000D02*
X141730000Y-131130000D01*
X141730000Y-133540000D02*
X141730000Y-133870000D01*
X141730000Y-133870000D02*
X148270000Y-133870000D01*
X148270000Y-131130000D02*
X148270000Y-131460000D01*
X148270000Y-133870000D02*
X148270000Y-133540000D01*
X155460000Y-57380000D02*
X155460000Y-67620000D01*
X155460000Y-59960000D02*
X152920000Y-59960000D01*
X155460000Y-62500000D02*
X152920000Y-62500000D01*
X155460000Y-65040000D02*
X152920000Y-65040000D01*
X171350000Y-57380000D02*
X155460000Y-57380000D01*
X171350000Y-57380000D02*
X171350000Y-67620000D01*
X171350000Y-67620000D02*
X155460000Y-67620000D01*
X144850000Y-82860000D02*
X144850000Y-88160000D01*
X144850000Y-88160000D02*
X155130000Y-88160000D01*
X155130000Y-82860000D02*
X144850000Y-82860000D01*
X155130000Y-84510000D02*
X155130000Y-82860000D01*
X155130000Y-88160000D02*
X155130000Y-86510000D01*
X155130000Y-86510000D02*
G75*
G02*
X155130000Y-84510000I0J1000000D01*
G01*
X164730000Y-89130000D02*
X171270000Y-89130000D01*
X164730000Y-89460000D02*
X164730000Y-89130000D01*
X164730000Y-91540000D02*
X164730000Y-91870000D01*
X164730000Y-91870000D02*
X171270000Y-91870000D01*
X171270000Y-89130000D02*
X171270000Y-89460000D01*
X171270000Y-91870000D02*
X171270000Y-91540000D01*
X143630000Y-71230000D02*
X143630000Y-77770000D01*
X143630000Y-77770000D02*
X143960000Y-77770000D01*
X143960000Y-71230000D02*
X143630000Y-71230000D01*
X146040000Y-71230000D02*
X146370000Y-71230000D01*
X146370000Y-71230000D02*
X146370000Y-77770000D01*
X146370000Y-77770000D02*
X146040000Y-77770000D01*
X168630000Y-70730000D02*
X168630000Y-77270000D01*
X168630000Y-77270000D02*
X168960000Y-77270000D01*
X168960000Y-70730000D02*
X168630000Y-70730000D01*
X171040000Y-70730000D02*
X171370000Y-70730000D01*
X171370000Y-70730000D02*
X171370000Y-77270000D01*
X171370000Y-77270000D02*
X171040000Y-77270000D01*
X165730000Y-128630000D02*
X172270000Y-128630000D01*
X165730000Y-128960000D02*
X165730000Y-128630000D01*
X165730000Y-131040000D02*
X165730000Y-131370000D01*
X165730000Y-131370000D02*
X172270000Y-131370000D01*
X172270000Y-128630000D02*
X172270000Y-128960000D01*
X172270000Y-131370000D02*
X172270000Y-131040000D01*
X153730000Y-108130000D02*
X153730000Y-108460000D01*
X153730000Y-110870000D02*
X153730000Y-110540000D01*
X160270000Y-108130000D02*
X153730000Y-108130000D01*
X160270000Y-108460000D02*
X160270000Y-108130000D01*
X160270000Y-110540000D02*
X160270000Y-110870000D01*
X160270000Y-110870000D02*
X153730000Y-110870000D01*
X153730000Y-111630000D02*
X160270000Y-111630000D01*
X153730000Y-111960000D02*
X153730000Y-111630000D01*
X153730000Y-114040000D02*
X153730000Y-114370000D01*
X153730000Y-114370000D02*
X160270000Y-114370000D01*
X160270000Y-111630000D02*
X160270000Y-111960000D01*
X160270000Y-114370000D02*
X160270000Y-114040000D01*
X159565000Y-122545000D02*
X159565000Y-119455000D01*
X154015000Y-121000462D02*
G75*
G02*
X159565000Y-119455170I2990000J462D01*
G01*
X159565000Y-122544830D02*
G75*
G02*
X154015000Y-120999538I-2560000J1544830D01*
G01*
X159505000Y-121000000D02*
G75*
G02*
X154505000Y-121000000I-2500000J0D01*
G01*
X154505000Y-121000000D02*
G75*
G02*
X159505000Y-121000000I2500000J0D01*
G01*
X141730000Y-134630000D02*
X148270000Y-134630000D01*
X141730000Y-134960000D02*
X141730000Y-134630000D01*
X141730000Y-137040000D02*
X141730000Y-137370000D01*
X141730000Y-137370000D02*
X148270000Y-137370000D01*
X148270000Y-134630000D02*
X148270000Y-134960000D01*
X148270000Y-137370000D02*
X148270000Y-137040000D01*
X139980000Y-100705000D02*
X139980000Y-100080000D01*
X139980000Y-102920000D02*
X139980000Y-102295000D01*
X144020000Y-100080000D02*
X139980000Y-100080000D01*
X144020000Y-100705000D02*
X144020000Y-100080000D01*
X144020000Y-102920000D02*
X139980000Y-102920000D01*
X144020000Y-102920000D02*
X144020000Y-102295000D01*
X141730000Y-120130000D02*
X141730000Y-120460000D01*
X141730000Y-122870000D02*
X141730000Y-122540000D01*
X148270000Y-120130000D02*
X141730000Y-120130000D01*
X148270000Y-120460000D02*
X148270000Y-120130000D01*
X148270000Y-122540000D02*
X148270000Y-122870000D01*
X148270000Y-122870000D02*
X141730000Y-122870000D01*
X141730000Y-127630000D02*
X148270000Y-127630000D01*
X141730000Y-127960000D02*
X141730000Y-127630000D01*
X141730000Y-130040000D02*
X141730000Y-130370000D01*
X141730000Y-130370000D02*
X148270000Y-130370000D01*
X148270000Y-127630000D02*
X148270000Y-127960000D01*
X148270000Y-130370000D02*
X148270000Y-130040000D01*
X150630000Y-71230000D02*
X150630000Y-77770000D01*
X150630000Y-77770000D02*
X150960000Y-77770000D01*
X150960000Y-71230000D02*
X150630000Y-71230000D01*
X153040000Y-71230000D02*
X153370000Y-71230000D01*
X153370000Y-71230000D02*
X153370000Y-77770000D01*
X153370000Y-77770000D02*
X153040000Y-77770000D01*
X116190000Y-82920000D02*
X116190000Y-93080000D01*
X116190000Y-93080000D02*
X123810000Y-93080000D01*
X117460000Y-93080000D02*
X117460000Y-82920000D01*
X123810000Y-82920000D02*
X116190000Y-82920000D01*
X123810000Y-93080000D02*
X123810000Y-82920000D01*
%LPC*%
D15*
X135250000Y-123200000D03*
D16*
X135250000Y-127400000D03*
X135250000Y-131600000D03*
X135250000Y-135800000D03*
X129750000Y-123200000D03*
X129750000Y-127400000D03*
X129750000Y-131600000D03*
X129750000Y-135800000D03*
D17*
X162500000Y-77690000D03*
D18*
X162500000Y-85310000D03*
D19*
X120000000Y-72960000D03*
D20*
X120000000Y-78040000D03*
D17*
X154500000Y-92750000D03*
X154500000Y-95250000D03*
D19*
X120000000Y-106460000D03*
D20*
X120000000Y-111540000D03*
D21*
X153200000Y-127200000D03*
D18*
X153200000Y-129740000D03*
X153200000Y-132280000D03*
X153200000Y-134820000D03*
X160820000Y-134820000D03*
X160820000Y-132280000D03*
X160820000Y-129740000D03*
X160820000Y-127200000D03*
D22*
X166000000Y-70190000D03*
D23*
X166000000Y-77810000D03*
D24*
X127340000Y-61000000D03*
D25*
X147660000Y-61000000D03*
D17*
X160190000Y-94000000D03*
D18*
X167810000Y-94000000D03*
D17*
X164250000Y-126500000D03*
X166750000Y-126500000D03*
X141250000Y-116500000D03*
X143750000Y-116500000D03*
X148500000Y-70690000D03*
D18*
X148500000Y-78310000D03*
D21*
X171800000Y-106300000D03*
D18*
X171800000Y-103760000D03*
X171800000Y-101220000D03*
X171800000Y-98680000D03*
X164180000Y-98680000D03*
X164180000Y-101220000D03*
X164180000Y-103760000D03*
X164180000Y-106300000D03*
D17*
X142750000Y-82000000D03*
X140250000Y-82000000D03*
D26*
X148500000Y-94460000D03*
X148500000Y-97000000D03*
X148500000Y-99540000D03*
D27*
X166270000Y-115540000D03*
D28*
X163730000Y-113000000D03*
X166270000Y-110460000D03*
D17*
X171000000Y-114250000D03*
X171000000Y-111750000D03*
X153250000Y-138500000D03*
X155750000Y-138500000D03*
X141190000Y-125500000D03*
D18*
X148810000Y-125500000D03*
D21*
X148800000Y-112800000D03*
D18*
X148800000Y-110260000D03*
X148800000Y-107720000D03*
X148800000Y-105180000D03*
X141180000Y-105180000D03*
X141180000Y-107720000D03*
X141180000Y-110260000D03*
X141180000Y-112800000D03*
D19*
X120000000Y-118960000D03*
D20*
X120000000Y-124040000D03*
D17*
X153500000Y-105810000D03*
D18*
X153500000Y-98190000D03*
D29*
X115500000Y-59500000D03*
D15*
X135250000Y-68900000D03*
D16*
X135250000Y-73100000D03*
X135250000Y-77300000D03*
X135250000Y-81500000D03*
X135250000Y-85700000D03*
X135250000Y-89900000D03*
X135250000Y-94100000D03*
X135250000Y-98300000D03*
X135250000Y-102500000D03*
X135250000Y-106700000D03*
X135250000Y-110900000D03*
X135250000Y-115100000D03*
X129750000Y-68900000D03*
X129750000Y-73100000D03*
X129750000Y-77300000D03*
X129750000Y-81500000D03*
X129750000Y-85700000D03*
X129750000Y-89900000D03*
X129750000Y-94100000D03*
X129750000Y-98300000D03*
X129750000Y-102500000D03*
X129750000Y-106700000D03*
X129750000Y-110900000D03*
X129750000Y-115100000D03*
D29*
X193500000Y-137500000D03*
D17*
X155500000Y-70690000D03*
D18*
X155500000Y-78310000D03*
D17*
X141190000Y-132500000D03*
D18*
X148810000Y-132500000D03*
D30*
X168430000Y-62500000D03*
D31*
X151770000Y-59960000D03*
D32*
X151770000Y-62500000D03*
X151770000Y-65040000D03*
D21*
X153800000Y-81700000D03*
D18*
X151260000Y-81700000D03*
X148720000Y-81700000D03*
X146180000Y-81700000D03*
X146180000Y-89320000D03*
X148720000Y-89320000D03*
X151260000Y-89320000D03*
X153800000Y-89320000D03*
D17*
X164190000Y-90500000D03*
D18*
X171810000Y-90500000D03*
D29*
X193500000Y-59500000D03*
X115500000Y-137500000D03*
D17*
X145000000Y-70690000D03*
D18*
X145000000Y-78310000D03*
D17*
X170000000Y-70190000D03*
D18*
X170000000Y-77810000D03*
D17*
X165190000Y-130000000D03*
D18*
X172810000Y-130000000D03*
D17*
X160810000Y-109500000D03*
D18*
X153190000Y-109500000D03*
D17*
X153190000Y-113000000D03*
D18*
X160810000Y-113000000D03*
D33*
X158275000Y-121000000D03*
D34*
X155735000Y-121000000D03*
D17*
X141190000Y-136000000D03*
D18*
X148810000Y-136000000D03*
D17*
X143250000Y-101500000D03*
X140750000Y-101500000D03*
X148810000Y-121500000D03*
D18*
X141190000Y-121500000D03*
D17*
X141190000Y-129000000D03*
D18*
X148810000Y-129000000D03*
D17*
X152000000Y-70690000D03*
D18*
X152000000Y-78310000D03*
D19*
X120000000Y-85460000D03*
D20*
X120000000Y-90540000D03*
D35*
X193500000Y-92150000D03*
D36*
X193500000Y-94690000D03*
X193500000Y-97230000D03*
X193500000Y-99770000D03*
X193500000Y-102310000D03*
X193500000Y-104850000D03*
D35*
X141000000Y-91040000D03*
D36*
X141000000Y-88500000D03*
%LPD*%
M02*
