M48
; DRILL file {KiCad 9.0.5} date 2025-10-18T17:07:29+0100
; FORMAT={-:-/ absolute / metric / decimal}
; #@! TF.CreationDate,2025-10-18T17:07:29+01:00
; #@! TF.GenerationSoftware,Kicad,Pcbnew,9.0.5
; #@! TF.FileFunction,Plated,1,2,PTH
FMAT,2
METRIC
; #@! TA.AperFunction,Plated,PTH,ViaDrill
T1C0.800
; #@! TA.AperFunction,Plated,PTH,ComponentDrill
T2C0.800
; #@! TA.AperFunction,Plated,PTH,ComponentDrill
T3C0.900
; #@! TA.AperFunction,Plated,PTH,ComponentDrill
T4C1.000
; #@! TA.AperFunction,Plated,PTH,ComponentDrill
T5C1.100
; #@! TA.AperFunction,Plated,PTH,ComponentDrill
T6C1.200
; #@! TA.AperFunction,Plated,PTH,ComponentDrill
T7C1.400
; #@! TA.AperFunction,Plated,PTH,ComponentDrill
T8C1.520
; #@! TA.AperFunction,Plated,PTH,ComponentDrill
T9C3.200
%
G90
G05
T1
X159.5Y-72.6
X166.5Y-59.0
X166.5Y-62.0
X166.5Y-65.0
X169.5Y-59.0
X169.5Y-62.0
X169.5Y-65.0
X172.5Y-59.0
X172.5Y-62.0
X172.5Y-65.0
T2
X149.75Y-81.5
X150.25Y-101.0
X150.68Y-104.68
X150.68Y-107.22
X150.68Y-109.76
X150.68Y-112.3
X150.69Y-121.0
X150.69Y-125.0
X150.69Y-128.5
X150.69Y-132.0
X150.69Y-135.5
X150.75Y-116.0
X152.25Y-81.5
X152.75Y-101.0
X153.25Y-116.0
X154.5Y-70.19
X154.5Y-77.81
X155.68Y-81.2
X155.68Y-88.82
X158.0Y-70.19
X158.0Y-77.81
X158.0Y-93.96
X158.0Y-96.5
X158.0Y-99.04
X158.22Y-81.2
X158.22Y-88.82
X158.3Y-104.68
X158.3Y-107.22
X158.3Y-109.76
X158.3Y-112.3
X158.31Y-121.0
X158.31Y-125.0
X158.31Y-128.5
X158.31Y-132.0
X158.31Y-135.5
X160.76Y-81.2
X160.76Y-88.82
X161.5Y-70.19
X161.5Y-77.81
X162.69Y-109.0
X162.69Y-112.5
X162.7Y-126.7
X162.7Y-129.24
X162.7Y-131.78
X162.7Y-134.32
X162.75Y-138.0
X163.0Y-97.69
X163.0Y-105.31
X163.3Y-81.2
X163.3Y-88.82
X164.0Y-92.25
X164.0Y-94.75
X165.0Y-70.19
X165.0Y-77.81
X165.25Y-138.0
X169.69Y-93.5
X170.31Y-109.0
X170.31Y-112.5
X170.32Y-126.7
X170.32Y-129.24
X170.32Y-131.78
X170.32Y-134.32
X172.0Y-77.19
X172.0Y-84.81
X173.23Y-112.5
X173.68Y-98.18
X173.68Y-100.72
X173.68Y-103.26
X173.68Y-105.8
X173.69Y-90.0
X173.75Y-126.0
X174.69Y-129.5
X175.77Y-109.96
X175.77Y-115.04
X176.25Y-126.0
X177.31Y-93.5
X179.5Y-69.69
X179.5Y-77.31
X180.5Y-111.25
X180.5Y-113.75
X181.3Y-98.18
X181.3Y-100.72
X181.3Y-103.26
X181.3Y-105.8
X181.31Y-90.0
X182.31Y-129.5
T3
X165.235Y-120.5
X167.775Y-120.5
T4
X128.5Y-78.225
X128.5Y-80.765
X193.5Y-92.15
X193.5Y-94.69
X193.5Y-97.23
X193.5Y-99.77
X193.5Y-102.31
X193.5Y-104.85
T5
X161.27Y-59.46
X161.27Y-62.0
X161.27Y-64.54
X175.5Y-69.69
X175.5Y-77.31
T6
X136.84Y-60.5
X157.16Y-60.5
T7
X135.75Y-68.4
X135.75Y-72.6
X135.75Y-76.8
X135.75Y-81.0
X135.75Y-85.2
X135.75Y-89.4
X135.75Y-93.6
X135.75Y-97.8
X135.75Y-102.0
X135.75Y-106.2
X135.75Y-110.4
X135.75Y-114.6
X135.75Y-122.7
X135.75Y-126.9
X135.75Y-131.1
X135.75Y-135.3
X141.25Y-68.4
X141.25Y-72.6
X141.25Y-76.8
X141.25Y-81.0
X141.25Y-85.2
X141.25Y-89.4
X141.25Y-93.6
X141.25Y-97.8
X141.25Y-102.0
X141.25Y-106.2
X141.25Y-110.4
X141.25Y-114.6
X141.25Y-122.7
X141.25Y-126.9
X141.25Y-131.1
X141.25Y-135.3
T8
X120.0Y-72.96
X120.0Y-78.04
X120.0Y-85.46
X120.0Y-90.54
X120.0Y-106.46
X120.0Y-111.54
X120.0Y-118.96
X120.0Y-124.04
T9
X117.0Y-61.0
X117.0Y-136.0
X192.0Y-61.0
X192.0Y-136.0
M30
