G04 #@! TF.GenerationSoftware,KiCad,Pcbnew,9.0.5*
G04 #@! TF.CreationDate,2025-10-18T17:06:13+01:00*
G04 #@! TF.ProjectId,PowerDelivery,506f7765-7244-4656-9c69-766572792e6b,rev?*
G04 #@! TF.SameCoordinates,Original*
G04 #@! TF.FileFunction,Soldermask,Top*
G04 #@! TF.FilePolarity,Negative*
%FSLAX46Y46*%
G04 Gerber Fmt 4.6, Leading zero omitted, Abs format (unit mm)*
G04 Created by KiCad (PCBNEW 9.0.5) date 2025-10-18 17:06:13*
%MOMM*%
%LPD*%
G01*
G04 APERTURE LIST*
G04 Aperture macros list*
%AMRoundRect*
0 Rectangle with rounded corners*
0 $1 Rounding radius*
0 $2 $3 $4 $5 $6 $7 $8 $9 X,Y pos of 4 corners*
0 Add a 4 corners polygon primitive as box body*
4,1,4,$2,$3,$4,$5,$6,$7,$8,$9,$2,$3,0*
0 Add four circle primitives for the rounded corners*
1,1,$1+$1,$2,$3*
1,1,$1+$1,$4,$5*
1,1,$1+$1,$6,$7*
1,1,$1+$1,$8,$9*
0 Add four rect primitives between the rounded corners*
20,1,$1+$1,$2,$3,$4,$5,0*
20,1,$1+$1,$4,$5,$6,$7,0*
20,1,$1+$1,$6,$7,$8,$9,0*
20,1,$1+$1,$8,$9,$2,$3,0*%
G04 Aperture macros list end*
%ADD10RoundRect,0.250001X-1.399999X1.099999X-1.399999X-1.099999X1.399999X-1.099999X1.399999X1.099999X0*%
%ADD11O,3.300000X2.700000*%
%ADD12C,1.600000*%
%ADD13O,1.600000X1.600000*%
%ADD14R,3.000000X3.000000*%
%ADD15C,3.000000*%
%ADD16R,1.600000X1.600000*%
%ADD17R,2.200000X2.200000*%
%ADD18O,2.200000X2.200000*%
%ADD19C,2.400000*%
%ADD20O,2.400000X2.400000*%
%ADD21C,1.440000*%
%ADD22R,1.500000X1.500000*%
%ADD23C,1.500000*%
%ADD24C,5.700000*%
%ADD25O,3.500000X3.500000*%
%ADD26R,2.000000X1.905000*%
%ADD27O,2.000000X1.905000*%
%ADD28R,1.800000X1.800000*%
%ADD29C,1.800000*%
%ADD30R,1.700000X1.700000*%
%ADD31O,1.700000X1.700000*%
G04 APERTURE END LIST*
D10*
X141250000Y-122700000D03*
D11*
X141250000Y-126900000D03*
X141250000Y-131100000D03*
X141250000Y-135300000D03*
X135750000Y-122700000D03*
X135750000Y-126900000D03*
X135750000Y-131100000D03*
X135750000Y-135300000D03*
D12*
X172000000Y-77190000D03*
D13*
X172000000Y-84810000D03*
D14*
X120000000Y-72960000D03*
D15*
X120000000Y-78040000D03*
D12*
X164000000Y-92250000D03*
X164000000Y-94750000D03*
D14*
X120000000Y-106460000D03*
D15*
X120000000Y-111540000D03*
D16*
X162700000Y-126700000D03*
D13*
X162700000Y-129240000D03*
X162700000Y-131780000D03*
X162700000Y-134320000D03*
X170320000Y-134320000D03*
X170320000Y-131780000D03*
X170320000Y-129240000D03*
X170320000Y-126700000D03*
D17*
X175500000Y-69690000D03*
D18*
X175500000Y-77310000D03*
D19*
X136840000Y-60500000D03*
D20*
X157160000Y-60500000D03*
D12*
X169690000Y-93500000D03*
D13*
X177310000Y-93500000D03*
D12*
X173750000Y-126000000D03*
X176250000Y-126000000D03*
X150750000Y-116000000D03*
X153250000Y-116000000D03*
X158000000Y-70190000D03*
D13*
X158000000Y-77810000D03*
D16*
X181300000Y-105800000D03*
D13*
X181300000Y-103260000D03*
X181300000Y-100720000D03*
X181300000Y-98180000D03*
X173680000Y-98180000D03*
X173680000Y-100720000D03*
X173680000Y-103260000D03*
X173680000Y-105800000D03*
D12*
X152250000Y-81500000D03*
X149750000Y-81500000D03*
D21*
X158000000Y-93960000D03*
X158000000Y-96500000D03*
X158000000Y-99040000D03*
D22*
X175770000Y-115040000D03*
D23*
X173230000Y-112500000D03*
X175770000Y-109960000D03*
D12*
X180500000Y-113750000D03*
X180500000Y-111250000D03*
X162750000Y-138000000D03*
X165250000Y-138000000D03*
X150690000Y-125000000D03*
D13*
X158310000Y-125000000D03*
D16*
X158300000Y-112300000D03*
D13*
X158300000Y-109760000D03*
X158300000Y-107220000D03*
X158300000Y-104680000D03*
X150680000Y-104680000D03*
X150680000Y-107220000D03*
X150680000Y-109760000D03*
X150680000Y-112300000D03*
D14*
X120000000Y-118960000D03*
D15*
X120000000Y-124040000D03*
D12*
X163000000Y-105310000D03*
D13*
X163000000Y-97690000D03*
D24*
X117000000Y-61000000D03*
D10*
X141250000Y-68400000D03*
D11*
X141250000Y-72600000D03*
X141250000Y-76800000D03*
X141250000Y-81000000D03*
X141250000Y-85200000D03*
X141250000Y-89400000D03*
X141250000Y-93600000D03*
X141250000Y-97800000D03*
X141250000Y-102000000D03*
X141250000Y-106200000D03*
X141250000Y-110400000D03*
X141250000Y-114600000D03*
X135750000Y-68400000D03*
X135750000Y-72600000D03*
X135750000Y-76800000D03*
X135750000Y-81000000D03*
X135750000Y-85200000D03*
X135750000Y-89400000D03*
X135750000Y-93600000D03*
X135750000Y-97800000D03*
X135750000Y-102000000D03*
X135750000Y-106200000D03*
X135750000Y-110400000D03*
X135750000Y-114600000D03*
D24*
X192000000Y-136000000D03*
D12*
X165000000Y-70190000D03*
D13*
X165000000Y-77810000D03*
D12*
X150690000Y-132000000D03*
D13*
X158310000Y-132000000D03*
D25*
X177930000Y-62000000D03*
D26*
X161270000Y-59460000D03*
D27*
X161270000Y-62000000D03*
X161270000Y-64540000D03*
D16*
X163300000Y-81200000D03*
D13*
X160760000Y-81200000D03*
X158220000Y-81200000D03*
X155680000Y-81200000D03*
X155680000Y-88820000D03*
X158220000Y-88820000D03*
X160760000Y-88820000D03*
X163300000Y-88820000D03*
D12*
X173690000Y-90000000D03*
D13*
X181310000Y-90000000D03*
D24*
X192000000Y-61000000D03*
X117000000Y-136000000D03*
D12*
X154500000Y-70190000D03*
D13*
X154500000Y-77810000D03*
D12*
X179500000Y-69690000D03*
D13*
X179500000Y-77310000D03*
D12*
X174690000Y-129500000D03*
D13*
X182310000Y-129500000D03*
D12*
X170310000Y-109000000D03*
D13*
X162690000Y-109000000D03*
D12*
X162690000Y-112500000D03*
D13*
X170310000Y-112500000D03*
D28*
X167775000Y-120500000D03*
D29*
X165235000Y-120500000D03*
D12*
X150690000Y-135500000D03*
D13*
X158310000Y-135500000D03*
D12*
X152750000Y-101000000D03*
X150250000Y-101000000D03*
X158310000Y-121000000D03*
D13*
X150690000Y-121000000D03*
D12*
X150690000Y-128500000D03*
D13*
X158310000Y-128500000D03*
D12*
X161500000Y-70190000D03*
D13*
X161500000Y-77810000D03*
D14*
X120000000Y-85460000D03*
D15*
X120000000Y-90540000D03*
D30*
X193500000Y-92150000D03*
D31*
X193500000Y-94690000D03*
X193500000Y-97230000D03*
X193500000Y-99770000D03*
X193500000Y-102310000D03*
X193500000Y-104850000D03*
D30*
X128500000Y-78225000D03*
D31*
X128500000Y-80765000D03*
M02*
