G04 #@! TF.GenerationSoftware,KiCad,Pcbnew,8.0.6-8.0.6-0~ubuntu24.04.1*
G04 #@! TF.CreationDate,2024-10-18T15:37:13+01:00*
G04 #@! TF.ProjectId,PowerDelivery,506f7765-7244-4656-9c69-766572792e6b,rev?*
G04 #@! TF.SameCoordinates,Original*
G04 #@! TF.FileFunction,Copper,L1,Top*
G04 #@! TF.FilePolarity,Positive*
%FSLAX46Y46*%
G04 Gerber Fmt 4.6, Leading zero omitted, Abs format (unit mm)*
G04 Created by KiCad (PCBNEW 8.0.6-8.0.6-0~ubuntu24.04.1) date 2024-10-18 15:37:13*
%MOMM*%
%LPD*%
G01*
G04 APERTURE LIST*
G04 Aperture macros list*
%AMRoundRect*
0 Rectangle with rounded corners*
0 $1 Rounding radius*
0 $2 $3 $4 $5 $6 $7 $8 $9 X,Y pos of 4 corners*
0 Add a 4 corners polygon primitive as box body*
4,1,4,$2,$3,$4,$5,$6,$7,$8,$9,$2,$3,0*
0 Add four circle primitives for the rounded corners*
1,1,$1+$1,$2,$3*
1,1,$1+$1,$4,$5*
1,1,$1+$1,$6,$7*
1,1,$1+$1,$8,$9*
0 Add four rect primitives between the rounded corners*
20,1,$1+$1,$2,$3,$4,$5,0*
20,1,$1+$1,$4,$5,$6,$7,0*
20,1,$1+$1,$6,$7,$8,$9,0*
20,1,$1+$1,$8,$9,$2,$3,0*%
G04 Aperture macros list end*
G04 #@! TA.AperFunction,ComponentPad*
%ADD10RoundRect,0.250001X-1.399999X1.099999X-1.399999X-1.099999X1.399999X-1.099999X1.399999X1.099999X0*%
G04 #@! TD*
G04 #@! TA.AperFunction,ComponentPad*
%ADD11O,3.300000X2.700000*%
G04 #@! TD*
G04 #@! TA.AperFunction,ComponentPad*
%ADD12C,1.600000*%
G04 #@! TD*
G04 #@! TA.AperFunction,ComponentPad*
%ADD13O,1.600000X1.600000*%
G04 #@! TD*
G04 #@! TA.AperFunction,ComponentPad*
%ADD14R,3.000000X3.000000*%
G04 #@! TD*
G04 #@! TA.AperFunction,ComponentPad*
%ADD15C,3.000000*%
G04 #@! TD*
G04 #@! TA.AperFunction,ComponentPad*
%ADD16R,1.600000X1.600000*%
G04 #@! TD*
G04 #@! TA.AperFunction,ComponentPad*
%ADD17R,2.200000X2.200000*%
G04 #@! TD*
G04 #@! TA.AperFunction,ComponentPad*
%ADD18O,2.200000X2.200000*%
G04 #@! TD*
G04 #@! TA.AperFunction,ComponentPad*
%ADD19C,2.400000*%
G04 #@! TD*
G04 #@! TA.AperFunction,ComponentPad*
%ADD20O,2.400000X2.400000*%
G04 #@! TD*
G04 #@! TA.AperFunction,ComponentPad*
%ADD21C,1.440000*%
G04 #@! TD*
G04 #@! TA.AperFunction,ComponentPad*
%ADD22R,1.500000X1.500000*%
G04 #@! TD*
G04 #@! TA.AperFunction,ComponentPad*
%ADD23C,1.500000*%
G04 #@! TD*
G04 #@! TA.AperFunction,ComponentPad*
%ADD24C,5.700000*%
G04 #@! TD*
G04 #@! TA.AperFunction,ComponentPad*
%ADD25R,2.000000X1.905000*%
G04 #@! TD*
G04 #@! TA.AperFunction,ComponentPad*
%ADD26O,2.000000X1.905000*%
G04 #@! TD*
G04 #@! TA.AperFunction,ComponentPad*
%ADD27R,1.800000X1.800000*%
G04 #@! TD*
G04 #@! TA.AperFunction,ComponentPad*
%ADD28C,1.800000*%
G04 #@! TD*
G04 #@! TA.AperFunction,ComponentPad*
%ADD29R,1.700000X1.700000*%
G04 #@! TD*
G04 #@! TA.AperFunction,ComponentPad*
%ADD30O,1.700000X1.700000*%
G04 #@! TD*
G04 #@! TA.AperFunction,ViaPad*
%ADD31C,1.600000*%
G04 #@! TD*
G04 #@! TA.AperFunction,Conductor*
%ADD32C,1.000000*%
G04 #@! TD*
G04 #@! TA.AperFunction,Conductor*
%ADD33C,1.905000*%
G04 #@! TD*
G04 #@! TA.AperFunction,Conductor*
%ADD34C,2.000000*%
G04 #@! TD*
G04 #@! TA.AperFunction,Conductor*
%ADD35C,3.300000*%
G04 #@! TD*
G04 #@! TA.AperFunction,Conductor*
%ADD36C,0.500000*%
G04 #@! TD*
G04 APERTURE END LIST*
D10*
X135250000Y-123200000D03*
D11*
X135250000Y-127400000D03*
X135250000Y-131600000D03*
X135250000Y-135800000D03*
X129750000Y-123200000D03*
X129750000Y-127400000D03*
X129750000Y-131600000D03*
X129750000Y-135800000D03*
D12*
X162500000Y-77690000D03*
D13*
X162500000Y-85310000D03*
D14*
X120000000Y-72960000D03*
D15*
X120000000Y-78040000D03*
D12*
X154500000Y-92750000D03*
X154500000Y-95250000D03*
D14*
X120000000Y-106460000D03*
D15*
X120000000Y-111540000D03*
D16*
X153200000Y-127200000D03*
D13*
X153200000Y-129740000D03*
X153200000Y-132280000D03*
X153200000Y-134820000D03*
X160820000Y-134820000D03*
X160820000Y-132280000D03*
X160820000Y-129740000D03*
X160820000Y-127200000D03*
D17*
X166000000Y-70190000D03*
D18*
X166000000Y-77810000D03*
D19*
X127340000Y-61000000D03*
D20*
X147660000Y-61000000D03*
D12*
X160190000Y-94000000D03*
D13*
X167810000Y-94000000D03*
D12*
X164250000Y-126500000D03*
X166750000Y-126500000D03*
X141250000Y-116500000D03*
X143750000Y-116500000D03*
X148500000Y-70690000D03*
D13*
X148500000Y-78310000D03*
D16*
X171800000Y-106300000D03*
D13*
X171800000Y-103760000D03*
X171800000Y-101220000D03*
X171800000Y-98680000D03*
X164180000Y-98680000D03*
X164180000Y-101220000D03*
X164180000Y-103760000D03*
X164180000Y-106300000D03*
D12*
X142750000Y-82000000D03*
X140250000Y-82000000D03*
D21*
X148500000Y-94460000D03*
X148500000Y-97000000D03*
X148500000Y-99540000D03*
D22*
X166270000Y-115540000D03*
D23*
X163730000Y-113000000D03*
X166270000Y-110460000D03*
D12*
X171000000Y-114250000D03*
X171000000Y-111750000D03*
X153250000Y-138500000D03*
X155750000Y-138500000D03*
X141190000Y-125500000D03*
D13*
X148810000Y-125500000D03*
D16*
X148800000Y-112800000D03*
D13*
X148800000Y-110260000D03*
X148800000Y-107720000D03*
X148800000Y-105180000D03*
X141180000Y-105180000D03*
X141180000Y-107720000D03*
X141180000Y-110260000D03*
X141180000Y-112800000D03*
D14*
X120000000Y-118960000D03*
D15*
X120000000Y-124040000D03*
D12*
X153500000Y-105810000D03*
D13*
X153500000Y-98190000D03*
D24*
X115500000Y-59500000D03*
D10*
X135250000Y-68900000D03*
D11*
X135250000Y-73100000D03*
X135250000Y-77300000D03*
X135250000Y-81500000D03*
X135250000Y-85700000D03*
X135250000Y-89900000D03*
X135250000Y-94100000D03*
X135250000Y-98300000D03*
X135250000Y-102500000D03*
X135250000Y-106700000D03*
X135250000Y-110900000D03*
X135250000Y-115100000D03*
X129750000Y-68900000D03*
X129750000Y-73100000D03*
X129750000Y-77300000D03*
X129750000Y-81500000D03*
X129750000Y-85700000D03*
X129750000Y-89900000D03*
X129750000Y-94100000D03*
X129750000Y-98300000D03*
X129750000Y-102500000D03*
X129750000Y-106700000D03*
X129750000Y-110900000D03*
X129750000Y-115100000D03*
D24*
X193500000Y-137500000D03*
D12*
X155500000Y-70690000D03*
D13*
X155500000Y-78310000D03*
D12*
X141190000Y-132500000D03*
D13*
X148810000Y-132500000D03*
D25*
X151770000Y-59960000D03*
D26*
X151770000Y-62500000D03*
X151770000Y-65040000D03*
D16*
X153800000Y-81700000D03*
D13*
X151260000Y-81700000D03*
X148720000Y-81700000D03*
X146180000Y-81700000D03*
X146180000Y-89320000D03*
X148720000Y-89320000D03*
X151260000Y-89320000D03*
X153800000Y-89320000D03*
D12*
X164190000Y-90500000D03*
D13*
X171810000Y-90500000D03*
D24*
X193500000Y-59500000D03*
X115500000Y-137500000D03*
D12*
X145000000Y-70690000D03*
D13*
X145000000Y-78310000D03*
D12*
X170000000Y-70190000D03*
D13*
X170000000Y-77810000D03*
D12*
X165190000Y-130000000D03*
D13*
X172810000Y-130000000D03*
D12*
X160810000Y-109500000D03*
D13*
X153190000Y-109500000D03*
D12*
X153190000Y-113000000D03*
D13*
X160810000Y-113000000D03*
D27*
X158275000Y-121000000D03*
D28*
X155735000Y-121000000D03*
D12*
X141190000Y-136000000D03*
D13*
X148810000Y-136000000D03*
D12*
X143250000Y-101500000D03*
X140750000Y-101500000D03*
X148810000Y-121500000D03*
D13*
X141190000Y-121500000D03*
D12*
X141190000Y-129000000D03*
D13*
X148810000Y-129000000D03*
D12*
X152000000Y-70690000D03*
D13*
X152000000Y-78310000D03*
D14*
X120000000Y-85460000D03*
D15*
X120000000Y-90540000D03*
D29*
X193500000Y-92150000D03*
D30*
X193500000Y-94690000D03*
X193500000Y-97230000D03*
X193500000Y-99770000D03*
X193500000Y-102310000D03*
X193500000Y-104850000D03*
D29*
X141000000Y-91040000D03*
D30*
X141000000Y-88500000D03*
D31*
X160000000Y-59500000D03*
X157000000Y-65500000D03*
X163000000Y-59500000D03*
X163000000Y-65500000D03*
X160000000Y-65500000D03*
X157000000Y-59500000D03*
X160000000Y-62500000D03*
X163000000Y-62500000D03*
X157000000Y-62500000D03*
X159000000Y-74500000D03*
D32*
X160810000Y-113000000D02*
X163730000Y-113000000D01*
X166000000Y-70190000D02*
X164310000Y-68500000D01*
X154500000Y-64500000D02*
X152500000Y-62500000D01*
D33*
X149160000Y-62500000D02*
X147660000Y-61000000D01*
D32*
X147660000Y-66350000D02*
X147660000Y-64340000D01*
X152000000Y-70690000D02*
X147660000Y-66350000D01*
X147660000Y-64340000D02*
X147660000Y-61000000D01*
X155500000Y-68500000D02*
X154500000Y-67500000D01*
X164310000Y-68500000D02*
X155500000Y-68500000D01*
D33*
X151770000Y-62500000D02*
X149160000Y-62500000D01*
D32*
X152500000Y-62500000D02*
X151770000Y-62500000D01*
X154500000Y-67500000D02*
X154500000Y-64500000D01*
X162500000Y-77690000D02*
X165880000Y-77690000D01*
X162000000Y-89000000D02*
X160000000Y-87000000D01*
X160000000Y-87000000D02*
X160000000Y-80190000D01*
X165880000Y-77690000D02*
X166000000Y-77810000D01*
X160000000Y-80190000D02*
X162500000Y-77690000D01*
X149780000Y-107720000D02*
X151000000Y-106500000D01*
X151000000Y-104500000D02*
X153500000Y-102000000D01*
X151000000Y-106500000D02*
X151000000Y-104500000D01*
X158000000Y-102000000D02*
X162000000Y-98000000D01*
X153500000Y-102000000D02*
X158000000Y-102000000D01*
X162000000Y-98000000D02*
X162000000Y-89000000D01*
X148800000Y-107720000D02*
X149780000Y-107720000D01*
X177975585Y-102310000D02*
X193500000Y-102310000D01*
X167810000Y-94000000D02*
X169665585Y-94000000D01*
X169665585Y-94000000D02*
X177975585Y-102310000D01*
X172810000Y-122690000D02*
X179500000Y-116000000D01*
X179500000Y-116000000D02*
X179500000Y-107000000D01*
X181650000Y-104850000D02*
X193500000Y-104850000D01*
X172810000Y-130000000D02*
X172810000Y-122690000D01*
X179500000Y-107000000D02*
X181650000Y-104850000D01*
X177797919Y-99770000D02*
X193500000Y-99770000D01*
X171810000Y-93782081D02*
X177797919Y-99770000D01*
X171810000Y-90500000D02*
X171810000Y-93782081D01*
D34*
X191340000Y-94690000D02*
X171150000Y-74500000D01*
X193500000Y-94690000D02*
X191340000Y-94690000D01*
X171150000Y-74500000D02*
X159000000Y-74500000D01*
D32*
X160810000Y-109500000D02*
X160810000Y-103458630D01*
X139000000Y-137000000D02*
X137500000Y-138500000D01*
X160820000Y-127200000D02*
X160700000Y-127200000D01*
X141250000Y-116750000D02*
X141250000Y-116500000D01*
X139000000Y-134000000D02*
X139000000Y-137000000D01*
X129750000Y-136275000D02*
X129750000Y-135800000D01*
X160810000Y-103458630D02*
X163048630Y-101220000D01*
X160700000Y-127200000D02*
X157000000Y-123500000D01*
X141180000Y-112800000D02*
X137150000Y-112800000D01*
X144795585Y-115000000D02*
X155310000Y-115000000D01*
X160820000Y-127200000D02*
X163550000Y-127200000D01*
X139690000Y-120000000D02*
X132000000Y-120000000D01*
X141180000Y-112800000D02*
X142595585Y-112800000D01*
X141190000Y-132500000D02*
X140500000Y-132500000D01*
X155310000Y-115000000D02*
X160810000Y-109500000D01*
X157000000Y-123500000D02*
X148000000Y-123500000D01*
X148000000Y-123500000D02*
X141250000Y-116750000D01*
X132000000Y-120000000D02*
X129750000Y-122250000D01*
X153800000Y-92050000D02*
X154500000Y-92750000D01*
X141250000Y-112870000D02*
X141180000Y-112800000D01*
X137150000Y-112800000D02*
X135250000Y-110900000D01*
D35*
X135250000Y-110900000D02*
X135250000Y-106700000D01*
D32*
X141250000Y-116500000D02*
X141250000Y-112870000D01*
X141190000Y-121500000D02*
X139690000Y-120000000D01*
X131975000Y-138500000D02*
X129750000Y-136275000D01*
X129750000Y-122250000D02*
X129750000Y-123200000D01*
X140500000Y-132500000D02*
X139000000Y-134000000D01*
X163550000Y-127200000D02*
X164250000Y-126500000D01*
X163048630Y-101220000D02*
X164180000Y-101220000D01*
X153800000Y-89320000D02*
X153800000Y-92050000D01*
X137500000Y-138500000D02*
X131975000Y-138500000D01*
X142595585Y-112800000D02*
X144795585Y-115000000D01*
X145120000Y-101500000D02*
X148800000Y-105180000D01*
X137250000Y-66250000D02*
X142750000Y-71750000D01*
X153250000Y-134870000D02*
X153200000Y-134820000D01*
X143250000Y-82500000D02*
X142750000Y-82000000D01*
X142750000Y-82000000D02*
X145880000Y-82000000D01*
X128250000Y-66250000D02*
X137250000Y-66250000D01*
X143250000Y-101500000D02*
X143250000Y-82500000D01*
X127100000Y-70450000D02*
X127100000Y-67400000D01*
X145880000Y-82000000D02*
X146180000Y-81700000D01*
X143250000Y-101500000D02*
X145120000Y-101500000D01*
X129750000Y-73100000D02*
X127100000Y-70450000D01*
X142750000Y-71750000D02*
X142750000Y-82000000D01*
X153250000Y-138500000D02*
X153250000Y-134870000D01*
X127100000Y-67400000D02*
X128250000Y-66250000D01*
X128500000Y-118000000D02*
X140235585Y-118000000D01*
X138810000Y-61000000D02*
X148500000Y-70690000D01*
X127340000Y-61000000D02*
X138810000Y-61000000D01*
X120000000Y-91500000D02*
X126500000Y-98000000D01*
X139000000Y-126810000D02*
X141190000Y-129000000D01*
X143000000Y-122500000D02*
X142000000Y-123500000D01*
X120000000Y-90540000D02*
X120000000Y-91500000D01*
X142000000Y-123500000D02*
X140000000Y-123500000D01*
X126500000Y-98000000D02*
X126500000Y-116000000D01*
X140235585Y-118000000D02*
X143000000Y-120764415D01*
X140000000Y-123500000D02*
X139000000Y-124500000D01*
X126500000Y-116000000D02*
X128500000Y-118000000D01*
X143000000Y-120764415D02*
X143000000Y-122500000D01*
X139000000Y-124500000D02*
X139000000Y-126810000D01*
X164180000Y-110975126D02*
X166270000Y-113065126D01*
X166270000Y-113065126D02*
X166270000Y-115540000D01*
X164180000Y-106300000D02*
X171800000Y-106300000D01*
X166270000Y-115540000D02*
X169710000Y-115540000D01*
X164180000Y-106300000D02*
X164180000Y-110975126D01*
X169710000Y-115540000D02*
X171000000Y-114250000D01*
X152430000Y-110260000D02*
X153190000Y-109500000D01*
X153190000Y-106120000D02*
X153500000Y-105810000D01*
X148800000Y-110260000D02*
X152430000Y-110260000D01*
X153190000Y-109500000D02*
X153190000Y-106120000D01*
X155235000Y-121500000D02*
X155735000Y-121000000D01*
X148810000Y-121500000D02*
X155235000Y-121500000D01*
X152980000Y-132500000D02*
X153200000Y-132280000D01*
X148810000Y-136000000D02*
X148810000Y-132500000D01*
X148810000Y-132500000D02*
X152980000Y-132500000D01*
X148500000Y-78310000D02*
X148500000Y-81480000D01*
X148500000Y-81480000D02*
X148720000Y-81700000D01*
X145000000Y-78310000D02*
X148500000Y-78310000D01*
X145310000Y-125500000D02*
X148810000Y-129000000D01*
X152460000Y-129000000D02*
X153200000Y-129740000D01*
X148810000Y-129000000D02*
X152460000Y-129000000D01*
X141190000Y-125500000D02*
X145310000Y-125500000D01*
X155500000Y-74810000D02*
X152000000Y-78310000D01*
X155500000Y-70690000D02*
X155500000Y-74810000D01*
X152000000Y-80960000D02*
X151260000Y-81700000D01*
X152000000Y-78310000D02*
X152000000Y-80960000D01*
X159020000Y-133014415D02*
X159020000Y-133025585D01*
X159020000Y-133025585D02*
X160814415Y-134820000D01*
X153200000Y-127200000D02*
X153205585Y-127200000D01*
X148810000Y-125500000D02*
X151500000Y-125500000D01*
X153205585Y-127200000D02*
X159020000Y-133014415D01*
X160814415Y-134820000D02*
X160820000Y-134820000D01*
X151500000Y-125500000D02*
X153200000Y-127200000D01*
X146180000Y-89314415D02*
X146180000Y-89320000D01*
X155500000Y-80000000D02*
X153800000Y-81700000D01*
X147974415Y-87520000D02*
X146180000Y-89314415D01*
X155500000Y-78310000D02*
X155500000Y-80000000D01*
X153800000Y-81705585D02*
X147985585Y-87520000D01*
X153800000Y-81700000D02*
X153800000Y-81705585D01*
X147985585Y-87520000D02*
X147974415Y-87520000D01*
X162500000Y-85310000D02*
X170000000Y-77810000D01*
X164180000Y-103760000D02*
X165311370Y-103760000D01*
X165311370Y-103760000D02*
X166000000Y-103071370D01*
X166000000Y-103071370D02*
X166000000Y-88810000D01*
X166000000Y-88810000D02*
X162500000Y-85310000D01*
X171000000Y-57500000D02*
X172000000Y-58500000D01*
X154000000Y-57500000D02*
X171000000Y-57500000D01*
X172000000Y-58500000D02*
X172000000Y-68190000D01*
X170000000Y-70190000D02*
X169690000Y-70190000D01*
X151770000Y-59960000D02*
X151770000Y-59730000D01*
X151770000Y-59730000D02*
X154000000Y-57500000D01*
X172000000Y-68190000D02*
X170000000Y-70190000D01*
X164180000Y-98680000D02*
X164180000Y-90510000D01*
X164180000Y-90510000D02*
X164190000Y-90500000D01*
X149690000Y-98190000D02*
X148500000Y-97000000D01*
X153500000Y-98190000D02*
X149690000Y-98190000D01*
X148800000Y-112800000D02*
X152990000Y-112800000D01*
X152990000Y-112800000D02*
X153190000Y-113000000D01*
D36*
X137302081Y-83600000D02*
X141000000Y-87297919D01*
X131850000Y-83600000D02*
X137302081Y-83600000D01*
X129750000Y-81500000D02*
X131850000Y-83600000D01*
X141000000Y-87297919D02*
X141000000Y-88500000D01*
D32*
X153054415Y-87520000D02*
X154545585Y-87520000D01*
X160190000Y-93164415D02*
X160190000Y-94000000D01*
X151310000Y-89370000D02*
X151260000Y-89320000D01*
X151260000Y-89320000D02*
X151260000Y-89314415D01*
X151260000Y-89314415D02*
X153054415Y-87520000D01*
X148720000Y-89320000D02*
X151260000Y-89320000D01*
X154545585Y-87520000D02*
X160190000Y-93164415D01*
X160820000Y-132280000D02*
X160820000Y-129740000D01*
X160820000Y-129740000D02*
X164930000Y-129740000D01*
X164930000Y-129740000D02*
X165190000Y-130000000D01*
G04 #@! TA.AperFunction,Conductor*
G36*
X153727553Y-56270462D02*
G01*
X153782091Y-56325000D01*
X153802053Y-56399500D01*
X153782091Y-56474000D01*
X153727553Y-56528538D01*
X153710072Y-56537158D01*
X153654834Y-56560037D01*
X153654834Y-56560038D01*
X153624488Y-56572607D01*
X153526090Y-56613365D01*
X153526080Y-56613370D01*
X153362219Y-56722860D01*
X153362214Y-56722864D01*
X153222858Y-56862221D01*
X151621719Y-58463359D01*
X151554924Y-58501923D01*
X151516360Y-58507000D01*
X150722136Y-58507000D01*
X150722111Y-58507002D01*
X150662521Y-58513408D01*
X150662515Y-58513409D01*
X150527670Y-58563702D01*
X150527666Y-58563704D01*
X150412455Y-58649952D01*
X150412452Y-58649955D01*
X150326204Y-58765166D01*
X150326202Y-58765170D01*
X150275908Y-58900017D01*
X150269500Y-58959614D01*
X150269500Y-58959632D01*
X150269501Y-60898000D01*
X150249539Y-60972500D01*
X150195001Y-61027038D01*
X150120501Y-61047000D01*
X149823570Y-61047000D01*
X149749070Y-61027038D01*
X149718211Y-61003359D01*
X149342719Y-60627867D01*
X149304155Y-60561072D01*
X149302821Y-60555694D01*
X149289508Y-60497363D01*
X149196393Y-60260112D01*
X149068959Y-60039388D01*
X149021230Y-59979538D01*
X148910053Y-59840126D01*
X148875485Y-59808052D01*
X148723217Y-59666768D01*
X148512634Y-59523195D01*
X148512631Y-59523194D01*
X148512629Y-59523192D01*
X148283013Y-59412615D01*
X148283009Y-59412613D01*
X148283004Y-59412611D01*
X148282996Y-59412608D01*
X148282992Y-59412607D01*
X148039463Y-59337488D01*
X148039461Y-59337487D01*
X147787437Y-59299500D01*
X147787435Y-59299500D01*
X147532565Y-59299500D01*
X147532562Y-59299500D01*
X147280538Y-59337487D01*
X147280536Y-59337488D01*
X147037007Y-59412607D01*
X147036986Y-59412615D01*
X146807370Y-59523192D01*
X146596780Y-59666770D01*
X146409946Y-59840126D01*
X146251045Y-60039382D01*
X146251040Y-60039390D01*
X146123608Y-60260108D01*
X146123605Y-60260115D01*
X146030491Y-60497363D01*
X146030490Y-60497367D01*
X145973779Y-60745835D01*
X145973776Y-60745855D01*
X145954732Y-60999994D01*
X145954732Y-61000005D01*
X145973776Y-61254144D01*
X145973779Y-61254164D01*
X146030490Y-61502632D01*
X146030491Y-61502636D01*
X146123605Y-61739884D01*
X146123608Y-61739891D01*
X146187324Y-61850250D01*
X146251041Y-61960612D01*
X146251045Y-61960617D01*
X146401674Y-62149500D01*
X146409950Y-62159877D01*
X146596783Y-62333232D01*
X146596793Y-62333239D01*
X146601148Y-62336713D01*
X146600018Y-62338129D01*
X146644729Y-62390059D01*
X146659500Y-62454740D01*
X146659500Y-66448539D01*
X146697948Y-66641834D01*
X146697949Y-66641836D01*
X146773367Y-66823912D01*
X146773368Y-66823915D01*
X146846197Y-66932911D01*
X146882861Y-66987782D01*
X147022218Y-67127139D01*
X147022221Y-67127141D01*
X149120666Y-69225586D01*
X149159230Y-69292381D01*
X149159230Y-69369509D01*
X149120666Y-69436304D01*
X149053871Y-69474868D01*
X148976743Y-69474868D01*
X148952339Y-69465985D01*
X148946496Y-69463261D01*
X148946494Y-69463260D01*
X148726692Y-69404365D01*
X148726693Y-69404365D01*
X148673970Y-69399752D01*
X148601493Y-69373372D01*
X148581598Y-69356678D01*
X139595634Y-60370714D01*
X139595632Y-60370711D01*
X139447785Y-60222864D01*
X139447782Y-60222861D01*
X139392911Y-60186197D01*
X139283915Y-60113368D01*
X139283913Y-60113367D01*
X139151549Y-60058541D01*
X139101836Y-60037949D01*
X139101835Y-60037948D01*
X139005188Y-60018724D01*
X139005188Y-60018723D01*
X138908541Y-59999500D01*
X130654500Y-59999500D01*
X130580000Y-59979538D01*
X130525462Y-59925000D01*
X130505500Y-59850500D01*
X130505500Y-59251356D01*
X130502605Y-59197350D01*
X130502603Y-59197321D01*
X130499771Y-59170979D01*
X130499764Y-59170933D01*
X130491116Y-59117559D01*
X130491114Y-59117554D01*
X130491114Y-59117552D01*
X130440832Y-58982743D01*
X130407347Y-58921420D01*
X130376137Y-58879729D01*
X130321125Y-58806241D01*
X129693760Y-58178876D01*
X129653510Y-58142721D01*
X129653500Y-58142712D01*
X129652889Y-58142220D01*
X129632858Y-58126078D01*
X129632859Y-58126078D01*
X129610916Y-58110255D01*
X129588974Y-58094433D01*
X129458097Y-58034662D01*
X129458094Y-58034661D01*
X129458085Y-58034658D01*
X129391061Y-58014977D01*
X129391048Y-58014974D01*
X129391044Y-58014973D01*
X129248652Y-57994501D01*
X129248640Y-57994500D01*
X129248638Y-57994500D01*
X118862716Y-57994500D01*
X118841154Y-57995190D01*
X118830367Y-57995536D01*
X118814542Y-57996551D01*
X118782344Y-57999652D01*
X118643708Y-58038144D01*
X118643706Y-58038144D01*
X118643705Y-58038145D01*
X118643698Y-58038147D01*
X118581983Y-58065237D01*
X118580231Y-58065971D01*
X118579727Y-58066226D01*
X118457551Y-58142219D01*
X118457550Y-58142220D01*
X118361733Y-58249555D01*
X118323096Y-58307767D01*
X118261400Y-58437750D01*
X118238823Y-58579842D01*
X118238823Y-58579846D01*
X118237791Y-58649708D01*
X118252654Y-58765169D01*
X118256162Y-58792414D01*
X118280405Y-58879729D01*
X118283873Y-58895486D01*
X118331168Y-59183977D01*
X118332912Y-59200015D01*
X118348740Y-59491932D01*
X118348740Y-59508066D01*
X118332912Y-59799983D01*
X118331168Y-59816021D01*
X118283872Y-60104518D01*
X118280404Y-60120275D01*
X118202194Y-60401959D01*
X118197043Y-60417247D01*
X118088832Y-60688837D01*
X118082057Y-60703480D01*
X117945125Y-60961762D01*
X117936807Y-60975586D01*
X117772741Y-61217564D01*
X117762979Y-61230406D01*
X117642425Y-61372336D01*
X117573720Y-61453222D01*
X117562624Y-61464935D01*
X117350389Y-61665974D01*
X117338093Y-61676419D01*
X117105352Y-61853344D01*
X117091998Y-61862398D01*
X116841498Y-62013118D01*
X116827245Y-62020675D01*
X116561919Y-62143428D01*
X116546931Y-62149399D01*
X116269887Y-62242747D01*
X116254351Y-62247060D01*
X115968836Y-62309907D01*
X115952925Y-62312516D01*
X115662275Y-62344127D01*
X115646165Y-62345000D01*
X115353835Y-62345000D01*
X115337725Y-62344127D01*
X115047073Y-62312516D01*
X115031165Y-62309908D01*
X114745642Y-62247059D01*
X114730111Y-62242747D01*
X114453064Y-62149398D01*
X114438079Y-62143428D01*
X114413503Y-62132058D01*
X114388314Y-62120405D01*
X114372321Y-62114372D01*
X114319674Y-62094514D01*
X114285266Y-62084319D01*
X114285263Y-62084318D01*
X114285262Y-62084318D01*
X114213583Y-62068633D01*
X114213581Y-62068633D01*
X114069705Y-62068633D01*
X114069693Y-62068634D01*
X114000543Y-62078577D01*
X114000539Y-62078578D01*
X113862499Y-62119111D01*
X113862490Y-62119115D01*
X113741461Y-62196897D01*
X113741456Y-62196901D01*
X113688653Y-62242655D01*
X113688651Y-62242657D01*
X113594431Y-62351391D01*
X113534663Y-62482264D01*
X113534658Y-62482278D01*
X113514977Y-62549302D01*
X113514974Y-62549315D01*
X113514973Y-62549319D01*
X113494501Y-62691711D01*
X113494500Y-62691729D01*
X113494500Y-96748643D01*
X113497394Y-96802649D01*
X113497396Y-96802678D01*
X113500228Y-96829020D01*
X113500235Y-96829066D01*
X113508883Y-96882440D01*
X113559166Y-97017252D01*
X113559167Y-97017255D01*
X113592650Y-97078575D01*
X113592655Y-97078583D01*
X113678874Y-97193758D01*
X113678877Y-97193761D01*
X114306239Y-97821123D01*
X114346500Y-97857288D01*
X114346518Y-97857303D01*
X114346521Y-97857305D01*
X114367141Y-97873921D01*
X114367140Y-97873921D01*
X114380596Y-97883624D01*
X114411026Y-97905567D01*
X114541903Y-97965338D01*
X114580019Y-97976530D01*
X114608938Y-97985022D01*
X114608940Y-97985022D01*
X114608942Y-97985023D01*
X114608946Y-97985024D01*
X114608947Y-97985024D01*
X114608951Y-97985025D01*
X114608955Y-97985026D01*
X114751347Y-98005498D01*
X114751351Y-98005498D01*
X114751362Y-98005500D01*
X125028862Y-98005500D01*
X125103362Y-98025462D01*
X125134221Y-98049141D01*
X125455859Y-98370779D01*
X125494423Y-98437574D01*
X125499500Y-98476138D01*
X125499500Y-98858612D01*
X125479538Y-98933112D01*
X125425000Y-98987650D01*
X125350500Y-99007612D01*
X125329297Y-99006096D01*
X125248641Y-98994500D01*
X125248638Y-98994500D01*
X114751362Y-98994500D01*
X114751357Y-98994500D01*
X114697350Y-98997394D01*
X114697321Y-98997396D01*
X114670979Y-99000228D01*
X114670933Y-99000235D01*
X114617559Y-99008883D01*
X114482747Y-99059166D01*
X114482744Y-99059167D01*
X114421424Y-99092650D01*
X114421416Y-99092655D01*
X114306241Y-99178874D01*
X113678876Y-99806239D01*
X113642721Y-99846489D01*
X113642694Y-99846521D01*
X113626078Y-99867140D01*
X113594433Y-99911026D01*
X113534661Y-100041905D01*
X113534658Y-100041914D01*
X113514977Y-100108938D01*
X113514974Y-100108951D01*
X113514973Y-100108955D01*
X113494501Y-100251347D01*
X113494500Y-100251365D01*
X113494500Y-134308281D01*
X113499821Y-134381431D01*
X113499823Y-134381440D01*
X113505020Y-134416970D01*
X113505022Y-134416976D01*
X113520877Y-134488592D01*
X113520879Y-134488598D01*
X113581291Y-134619173D01*
X113581291Y-134619174D01*
X113581293Y-134619177D01*
X113619356Y-134677768D01*
X113714110Y-134786039D01*
X113835532Y-134863231D01*
X113899230Y-134891943D01*
X113899232Y-134891943D01*
X113899232Y-134891944D01*
X113933428Y-134901802D01*
X114037475Y-134931798D01*
X114181353Y-134931091D01*
X114250462Y-134920808D01*
X114250469Y-134920807D01*
X114388320Y-134879592D01*
X114438089Y-134856565D01*
X114453065Y-134850598D01*
X114730114Y-134757250D01*
X114745640Y-134752939D01*
X115031160Y-134690091D01*
X115047073Y-134687481D01*
X115337722Y-134655873D01*
X115353831Y-134655000D01*
X115646168Y-134655000D01*
X115662277Y-134655873D01*
X115952921Y-134687481D01*
X115968825Y-134690088D01*
X116254354Y-134752937D01*
X116269883Y-134757249D01*
X116412736Y-134805383D01*
X116412736Y-134805382D01*
X116485159Y-134829785D01*
X116485162Y-134829785D01*
X116546941Y-134850602D01*
X116561906Y-134856564D01*
X116816851Y-134974513D01*
X116827239Y-134979319D01*
X116841492Y-134986876D01*
X117092003Y-135137603D01*
X117105354Y-135146655D01*
X117204851Y-135222290D01*
X117269921Y-135271755D01*
X117269923Y-135271757D01*
X117338093Y-135323579D01*
X117350388Y-135334023D01*
X117562624Y-135535063D01*
X117573708Y-135546763D01*
X117762986Y-135769600D01*
X117772741Y-135782434D01*
X117936807Y-136024412D01*
X117945125Y-136038236D01*
X118082057Y-136296517D01*
X118088832Y-136311160D01*
X118197042Y-136582748D01*
X118202193Y-136598036D01*
X118269134Y-136839137D01*
X118272024Y-136849544D01*
X118280404Y-136879724D01*
X118283873Y-136895483D01*
X118331168Y-137183977D01*
X118332912Y-137200015D01*
X118348740Y-137491932D01*
X118348740Y-137508066D01*
X118332912Y-137799983D01*
X118331168Y-137816021D01*
X118283872Y-138104515D01*
X118280404Y-138120271D01*
X118261744Y-138187479D01*
X118261733Y-138187516D01*
X118256154Y-138207612D01*
X118248507Y-138239027D01*
X118245251Y-138254548D01*
X118239623Y-138286415D01*
X118239623Y-138430294D01*
X118239624Y-138430306D01*
X118249567Y-138499456D01*
X118249568Y-138499460D01*
X118290101Y-138637500D01*
X118290105Y-138637509D01*
X118367887Y-138758538D01*
X118367891Y-138758543D01*
X118413645Y-138811346D01*
X118413647Y-138811348D01*
X118522381Y-138905568D01*
X118582986Y-138933245D01*
X118653257Y-138965338D01*
X118691373Y-138976530D01*
X118720292Y-138985022D01*
X118720294Y-138985022D01*
X118720296Y-138985023D01*
X118720300Y-138985024D01*
X118720301Y-138985024D01*
X118720305Y-138985025D01*
X118720309Y-138985026D01*
X118862701Y-139005498D01*
X118862705Y-139005498D01*
X118862716Y-139005500D01*
X131003862Y-139005500D01*
X131078362Y-139025462D01*
X131109221Y-139049141D01*
X131194115Y-139134035D01*
X131194122Y-139134043D01*
X131197861Y-139137782D01*
X131337218Y-139277139D01*
X131402675Y-139320876D01*
X131501083Y-139386631D01*
X131629834Y-139439961D01*
X131629833Y-139439961D01*
X131658998Y-139452041D01*
X131683164Y-139462051D01*
X131779810Y-139481274D01*
X131779811Y-139481275D01*
X131827485Y-139490758D01*
X131876459Y-139500500D01*
X131876460Y-139500500D01*
X131876463Y-139500500D01*
X137598537Y-139500500D01*
X137598540Y-139500500D01*
X137598541Y-139500500D01*
X137695188Y-139481275D01*
X137791836Y-139462051D01*
X137845165Y-139439961D01*
X137973914Y-139386632D01*
X138137782Y-139277139D01*
X138277139Y-139137782D01*
X138277139Y-139137780D01*
X138289401Y-139125519D01*
X138289404Y-139125514D01*
X139777139Y-137637782D01*
X139886631Y-137473915D01*
X139886632Y-137473914D01*
X139956404Y-137305468D01*
X139962051Y-137291836D01*
X140000500Y-137098541D01*
X140000500Y-136901460D01*
X140000500Y-134476138D01*
X140020462Y-134401638D01*
X140044141Y-134370779D01*
X140247662Y-134167258D01*
X140639045Y-133775874D01*
X140705838Y-133737312D01*
X140782963Y-133737312D01*
X140963308Y-133785635D01*
X141190000Y-133805468D01*
X141416692Y-133785635D01*
X141636496Y-133726739D01*
X141842734Y-133630568D01*
X142029139Y-133500047D01*
X142190047Y-133339139D01*
X142320568Y-133152734D01*
X142416739Y-132946496D01*
X142475635Y-132726692D01*
X142495468Y-132500000D01*
X142475635Y-132273308D01*
X142416739Y-132053504D01*
X142320568Y-131847266D01*
X142190047Y-131660861D01*
X142029139Y-131499953D01*
X142029137Y-131499951D01*
X141842741Y-131369437D01*
X141842738Y-131369435D01*
X141842734Y-131369432D01*
X141636496Y-131273261D01*
X141416692Y-131214365D01*
X141416693Y-131214365D01*
X141190000Y-131194532D01*
X140963306Y-131214365D01*
X140743507Y-131273260D01*
X140743506Y-131273260D01*
X140743504Y-131273261D01*
X140537266Y-131369432D01*
X140537263Y-131369434D01*
X140537261Y-131369435D01*
X140537258Y-131369437D01*
X140357353Y-131495407D01*
X140300960Y-131519490D01*
X140208168Y-131537948D01*
X140208167Y-131537948D01*
X140208164Y-131537949D01*
X140132745Y-131569188D01*
X140132743Y-131569188D01*
X140026090Y-131613365D01*
X140026078Y-131613372D01*
X139955009Y-131660860D01*
X139955008Y-131660861D01*
X139862219Y-131722860D01*
X139862214Y-131722864D01*
X138222864Y-133362214D01*
X138222860Y-133362219D01*
X138113370Y-133526081D01*
X138113368Y-133526086D01*
X138061132Y-133652197D01*
X138061132Y-133652198D01*
X138037949Y-133708163D01*
X138037948Y-133708165D01*
X138019140Y-133802723D01*
X138019140Y-133802724D01*
X137999500Y-133901455D01*
X137999500Y-136523861D01*
X137979538Y-136598361D01*
X137955859Y-136629220D01*
X137129221Y-137455859D01*
X137062426Y-137494423D01*
X137023862Y-137499500D01*
X132654500Y-137499500D01*
X132580000Y-137479538D01*
X132525462Y-137425000D01*
X132505500Y-137350500D01*
X132505500Y-121149500D01*
X132525462Y-121075000D01*
X132580000Y-121020462D01*
X132654500Y-121000500D01*
X139213862Y-121000500D01*
X139288362Y-121020462D01*
X139319220Y-121044140D01*
X139856679Y-121581600D01*
X139895242Y-121648393D01*
X139899752Y-121673970D01*
X139904364Y-121726689D01*
X139904365Y-121726695D01*
X139940929Y-121863153D01*
X139963261Y-121946496D01*
X140059432Y-122152734D01*
X140059435Y-122152738D01*
X140059437Y-122152741D01*
X140138066Y-122265037D01*
X140164445Y-122337514D01*
X140151051Y-122413470D01*
X140101474Y-122472553D01*
X140028997Y-122498932D01*
X140016012Y-122499499D01*
X139901460Y-122499499D01*
X139708167Y-122537947D01*
X139526090Y-122613365D01*
X139526080Y-122613370D01*
X139362220Y-122722859D01*
X139362215Y-122722863D01*
X138222864Y-123862214D01*
X138222860Y-123862219D01*
X138113368Y-124026084D01*
X138113367Y-124026087D01*
X138037949Y-124208163D01*
X138037948Y-124208165D01*
X137999500Y-124401460D01*
X137999500Y-126908540D01*
X138037948Y-127101834D01*
X138037949Y-127101836D01*
X138059032Y-127152735D01*
X138113367Y-127283912D01*
X138113368Y-127283915D01*
X138150268Y-127339139D01*
X138222861Y-127447782D01*
X138222864Y-127447785D01*
X138370708Y-127595629D01*
X138370713Y-127595633D01*
X139856679Y-129081600D01*
X139895242Y-129148393D01*
X139899752Y-129173970D01*
X139904364Y-129226689D01*
X139904365Y-129226695D01*
X139958431Y-129428471D01*
X139963261Y-129446496D01*
X140059432Y-129652734D01*
X140059435Y-129652738D01*
X140059437Y-129652741D01*
X140189951Y-129839137D01*
X140350862Y-130000048D01*
X140380017Y-130020462D01*
X140537266Y-130130568D01*
X140743504Y-130226739D01*
X140963308Y-130285635D01*
X141190000Y-130305468D01*
X141416692Y-130285635D01*
X141636496Y-130226739D01*
X141842734Y-130130568D01*
X142029139Y-130000047D01*
X142190047Y-129839139D01*
X142320568Y-129652734D01*
X142416739Y-129446496D01*
X142475635Y-129226692D01*
X142495468Y-129000000D01*
X142475635Y-128773308D01*
X142416739Y-128553504D01*
X142320568Y-128347266D01*
X142190881Y-128162052D01*
X142190048Y-128160862D01*
X142029137Y-127999951D01*
X141842741Y-127869437D01*
X141842738Y-127869435D01*
X141842734Y-127869432D01*
X141636496Y-127773261D01*
X141618471Y-127768431D01*
X141416695Y-127714365D01*
X141416689Y-127714364D01*
X141363971Y-127709752D01*
X141291494Y-127683372D01*
X141271599Y-127666678D01*
X140569335Y-126964414D01*
X140530771Y-126897619D01*
X140530771Y-126820491D01*
X140569335Y-126753696D01*
X140636130Y-126715132D01*
X140713258Y-126715132D01*
X140737662Y-126724014D01*
X140743504Y-126726739D01*
X140963308Y-126785635D01*
X141190000Y-126805468D01*
X141416692Y-126785635D01*
X141636496Y-126726739D01*
X141842734Y-126630568D01*
X141990009Y-126527446D01*
X142062485Y-126501067D01*
X142075471Y-126500500D01*
X144833862Y-126500500D01*
X144908362Y-126520462D01*
X144939220Y-126544140D01*
X147476679Y-129081600D01*
X147515242Y-129148393D01*
X147519752Y-129173970D01*
X147524364Y-129226689D01*
X147524365Y-129226695D01*
X147578431Y-129428471D01*
X147583261Y-129446496D01*
X147679432Y-129652734D01*
X147679435Y-129652738D01*
X147679437Y-129652741D01*
X147809951Y-129839137D01*
X147970862Y-130000048D01*
X148000017Y-130020462D01*
X148157266Y-130130568D01*
X148363504Y-130226739D01*
X148583308Y-130285635D01*
X148810000Y-130305468D01*
X149036692Y-130285635D01*
X149256496Y-130226739D01*
X149462734Y-130130568D01*
X149610009Y-130027446D01*
X149682485Y-130001067D01*
X149695471Y-130000500D01*
X151809092Y-130000500D01*
X151883592Y-130020462D01*
X151938130Y-130075000D01*
X151953014Y-130110935D01*
X151973261Y-130186496D01*
X152069432Y-130392734D01*
X152069435Y-130392738D01*
X152069437Y-130392741D01*
X152199951Y-130579137D01*
X152199953Y-130579139D01*
X152360861Y-130740047D01*
X152547266Y-130870568D01*
X152556685Y-130874960D01*
X152556689Y-130874962D01*
X152615771Y-130924540D01*
X152642148Y-130997018D01*
X152628753Y-131072974D01*
X152579175Y-131132056D01*
X152556689Y-131145038D01*
X152547268Y-131149431D01*
X152547258Y-131149437D01*
X152360862Y-131279951D01*
X152199947Y-131440866D01*
X152195771Y-131445844D01*
X152193686Y-131444094D01*
X152144318Y-131485531D01*
X152081329Y-131499500D01*
X149695471Y-131499500D01*
X149620971Y-131479538D01*
X149610009Y-131472554D01*
X149462741Y-131369437D01*
X149462738Y-131369435D01*
X149462734Y-131369432D01*
X149256496Y-131273261D01*
X149036692Y-131214365D01*
X149036693Y-131214365D01*
X148810000Y-131194532D01*
X148583306Y-131214365D01*
X148363507Y-131273260D01*
X148363506Y-131273260D01*
X148363504Y-131273261D01*
X148157266Y-131369432D01*
X148157263Y-131369434D01*
X148157261Y-131369435D01*
X148157258Y-131369437D01*
X147970862Y-131499951D01*
X147809953Y-131660861D01*
X147679437Y-131847258D01*
X147679435Y-131847261D01*
X147679434Y-131847263D01*
X147679432Y-131847266D01*
X147583261Y-132053504D01*
X147583260Y-132053507D01*
X147524365Y-132273306D01*
X147504532Y-132500000D01*
X147524347Y-132726492D01*
X147524365Y-132726692D01*
X147583261Y-132946496D01*
X147679432Y-133152734D01*
X147782555Y-133300010D01*
X147808933Y-133372484D01*
X147809500Y-133385470D01*
X147809500Y-135114528D01*
X147789538Y-135189028D01*
X147782554Y-135199990D01*
X147679434Y-135347262D01*
X147679434Y-135347263D01*
X147679432Y-135347266D01*
X147583261Y-135553504D01*
X147583260Y-135553507D01*
X147524365Y-135773306D01*
X147520276Y-135820047D01*
X147504532Y-136000000D01*
X147524365Y-136226692D01*
X147583261Y-136446496D01*
X147679432Y-136652734D01*
X147679435Y-136652738D01*
X147679437Y-136652741D01*
X147809951Y-136839137D01*
X147809953Y-136839139D01*
X147970861Y-137000047D01*
X148157266Y-137130568D01*
X148363504Y-137226739D01*
X148583308Y-137285635D01*
X148810000Y-137305468D01*
X149036692Y-137285635D01*
X149256496Y-137226739D01*
X149462734Y-137130568D01*
X149649139Y-137000047D01*
X149810047Y-136839139D01*
X149940568Y-136652734D01*
X150036739Y-136446496D01*
X150095635Y-136226692D01*
X150115468Y-136000000D01*
X150095635Y-135773308D01*
X150036739Y-135553504D01*
X149940568Y-135347266D01*
X149837446Y-135199990D01*
X149811067Y-135127513D01*
X149810500Y-135114528D01*
X149810500Y-133649500D01*
X149830462Y-133575000D01*
X149885000Y-133520462D01*
X149959500Y-133500500D01*
X152344520Y-133500500D01*
X152419020Y-133520462D01*
X152473558Y-133575000D01*
X152493520Y-133649500D01*
X152473558Y-133724000D01*
X152429982Y-133771554D01*
X152360862Y-133819951D01*
X152199951Y-133980862D01*
X152069437Y-134167258D01*
X152069435Y-134167261D01*
X152069434Y-134167263D01*
X152069432Y-134167266D01*
X151974532Y-134370779D01*
X151973260Y-134373507D01*
X151914365Y-134593306D01*
X151894532Y-134820000D01*
X151914365Y-135046693D01*
X151936021Y-135127513D01*
X151973261Y-135266496D01*
X152069432Y-135472734D01*
X152069435Y-135472738D01*
X152069437Y-135472741D01*
X152199951Y-135659137D01*
X152205859Y-135665045D01*
X152244423Y-135731840D01*
X152249500Y-135770404D01*
X152249500Y-137614528D01*
X152229538Y-137689028D01*
X152222554Y-137699990D01*
X152119434Y-137847262D01*
X152119434Y-137847263D01*
X152119432Y-137847266D01*
X152024440Y-138050976D01*
X152023260Y-138053507D01*
X151964365Y-138273306D01*
X151964365Y-138273308D01*
X151944532Y-138500000D01*
X151964365Y-138726692D01*
X152023261Y-138946496D01*
X152119432Y-139152734D01*
X152119435Y-139152738D01*
X152119437Y-139152741D01*
X152249951Y-139339137D01*
X152410862Y-139500048D01*
X152411508Y-139500500D01*
X152597266Y-139630568D01*
X152803504Y-139726739D01*
X153023308Y-139785635D01*
X153250000Y-139805468D01*
X153476692Y-139785635D01*
X153696496Y-139726739D01*
X153902734Y-139630568D01*
X154089139Y-139500047D01*
X154250047Y-139339139D01*
X154380568Y-139152734D01*
X154476739Y-138946496D01*
X154535635Y-138726692D01*
X154555468Y-138500000D01*
X154535635Y-138273308D01*
X154476739Y-138053504D01*
X154380568Y-137847266D01*
X154277446Y-137699990D01*
X154251067Y-137627513D01*
X154250500Y-137614528D01*
X154250500Y-135634062D01*
X154270462Y-135559562D01*
X154277447Y-135548599D01*
X154290340Y-135530185D01*
X154330568Y-135472734D01*
X154426739Y-135266496D01*
X154485635Y-135046692D01*
X154505468Y-134820000D01*
X154485635Y-134593308D01*
X154426739Y-134373504D01*
X154330568Y-134167266D01*
X154200047Y-133980861D01*
X154039139Y-133819953D01*
X154039137Y-133819951D01*
X153852741Y-133689437D01*
X153852734Y-133689432D01*
X153843312Y-133685038D01*
X153784230Y-133635463D01*
X153757851Y-133562986D01*
X153771244Y-133487030D01*
X153820821Y-133427946D01*
X153843308Y-133414963D01*
X153852734Y-133410568D01*
X154039139Y-133280047D01*
X154200047Y-133119139D01*
X154330568Y-132932734D01*
X154426739Y-132726496D01*
X154485635Y-132506692D01*
X154505468Y-132280000D01*
X154485635Y-132053308D01*
X154426739Y-131833504D01*
X154330568Y-131627266D01*
X154227129Y-131479538D01*
X154200048Y-131440862D01*
X154039137Y-131279951D01*
X153852741Y-131149437D01*
X153852734Y-131149432D01*
X153852732Y-131149431D01*
X153843312Y-131145038D01*
X153784230Y-131095463D01*
X153757851Y-131022986D01*
X153771244Y-130947030D01*
X153820821Y-130887946D01*
X153843311Y-130874962D01*
X153852734Y-130870568D01*
X154039139Y-130740047D01*
X154200047Y-130579139D01*
X154330568Y-130392734D01*
X154426739Y-130186496D01*
X154433997Y-130159408D01*
X154472557Y-130092616D01*
X154539351Y-130054050D01*
X154616479Y-130054048D01*
X154683274Y-130092609D01*
X156509239Y-131918575D01*
X158209991Y-133619327D01*
X158228519Y-133641902D01*
X158242861Y-133663367D01*
X158382218Y-133802724D01*
X158382221Y-133802726D01*
X159487213Y-134907718D01*
X159525777Y-134974513D01*
X159530287Y-135000088D01*
X159534365Y-135046693D01*
X159556021Y-135127513D01*
X159593261Y-135266496D01*
X159689432Y-135472734D01*
X159689435Y-135472738D01*
X159689437Y-135472741D01*
X159819951Y-135659137D01*
X159819953Y-135659139D01*
X159980861Y-135820047D01*
X160167266Y-135950568D01*
X160373504Y-136046739D01*
X160593308Y-136105635D01*
X160820000Y-136125468D01*
X161046692Y-136105635D01*
X161266496Y-136046739D01*
X161472734Y-135950568D01*
X161659139Y-135820047D01*
X161820047Y-135659139D01*
X161950568Y-135472734D01*
X162046739Y-135266496D01*
X162105635Y-135046692D01*
X162125468Y-134820000D01*
X162105635Y-134593308D01*
X162046739Y-134373504D01*
X161950568Y-134167266D01*
X161820047Y-133980861D01*
X161659139Y-133819953D01*
X161659137Y-133819951D01*
X161472741Y-133689437D01*
X161472734Y-133689432D01*
X161463312Y-133685038D01*
X161404230Y-133635463D01*
X161377851Y-133562986D01*
X161391244Y-133487030D01*
X161440821Y-133427946D01*
X161463308Y-133414963D01*
X161472734Y-133410568D01*
X161659139Y-133280047D01*
X161820047Y-133119139D01*
X161950568Y-132932734D01*
X162046739Y-132726496D01*
X162105635Y-132506692D01*
X162125468Y-132280000D01*
X162105635Y-132053308D01*
X162046739Y-131833504D01*
X161950568Y-131627266D01*
X161909166Y-131568137D01*
X161847446Y-131479990D01*
X161821067Y-131407513D01*
X161820500Y-131394528D01*
X161820500Y-130889500D01*
X161840462Y-130815000D01*
X161895000Y-130760462D01*
X161969500Y-130740500D01*
X164043321Y-130740500D01*
X164117821Y-130760462D01*
X164165375Y-130804038D01*
X164189951Y-130839137D01*
X164350862Y-131000048D01*
X164426859Y-131053261D01*
X164537266Y-131130568D01*
X164743504Y-131226739D01*
X164963308Y-131285635D01*
X165190000Y-131305468D01*
X165416692Y-131285635D01*
X165636496Y-131226739D01*
X165842734Y-131130568D01*
X166029139Y-131000047D01*
X166190047Y-130839139D01*
X166320568Y-130652734D01*
X166416739Y-130446496D01*
X166475635Y-130226692D01*
X166495468Y-130000000D01*
X166475635Y-129773308D01*
X166416739Y-129553504D01*
X166320568Y-129347266D01*
X166199226Y-129173970D01*
X166190048Y-129160862D01*
X166029137Y-128999951D01*
X165842741Y-128869437D01*
X165842738Y-128869435D01*
X165842734Y-128869432D01*
X165636496Y-128773261D01*
X165416692Y-128714365D01*
X165416693Y-128714365D01*
X165190000Y-128694532D01*
X164963306Y-128714365D01*
X164888450Y-128734423D01*
X164849886Y-128739500D01*
X161705471Y-128739500D01*
X161630971Y-128719538D01*
X161620009Y-128712554D01*
X161472741Y-128609437D01*
X161472734Y-128609432D01*
X161472732Y-128609431D01*
X161463312Y-128605038D01*
X161404230Y-128555463D01*
X161377851Y-128482986D01*
X161391244Y-128407030D01*
X161440821Y-128347946D01*
X161463311Y-128334962D01*
X161472734Y-128330568D01*
X161620009Y-128227446D01*
X161692485Y-128201067D01*
X161705471Y-128200500D01*
X163648537Y-128200500D01*
X163648540Y-128200500D01*
X163648541Y-128200500D01*
X163745188Y-128181275D01*
X163841836Y-128162051D01*
X163895165Y-128139961D01*
X164023914Y-128086632D01*
X164187782Y-127977139D01*
X164327139Y-127837782D01*
X164327139Y-127837780D01*
X164331599Y-127833321D01*
X164398393Y-127794757D01*
X164423969Y-127790247D01*
X164476692Y-127785635D01*
X164696496Y-127726739D01*
X164902734Y-127630568D01*
X165089139Y-127500047D01*
X165250047Y-127339139D01*
X165380568Y-127152734D01*
X165476739Y-126946496D01*
X165535635Y-126726692D01*
X165555468Y-126500000D01*
X165535635Y-126273308D01*
X165476739Y-126053504D01*
X165380568Y-125847266D01*
X165250047Y-125660861D01*
X165089139Y-125499953D01*
X165089137Y-125499951D01*
X164902741Y-125369437D01*
X164902738Y-125369435D01*
X164902734Y-125369432D01*
X164696496Y-125273261D01*
X164476692Y-125214365D01*
X164476693Y-125214365D01*
X164250000Y-125194532D01*
X164023306Y-125214365D01*
X163803507Y-125273260D01*
X163803506Y-125273260D01*
X163803504Y-125273261D01*
X163597266Y-125369432D01*
X163597263Y-125369434D01*
X163597261Y-125369435D01*
X163597258Y-125369437D01*
X163410862Y-125499951D01*
X163249951Y-125660862D01*
X163119437Y-125847258D01*
X163119435Y-125847261D01*
X163119434Y-125847263D01*
X163119432Y-125847266D01*
X163023261Y-126053504D01*
X163023260Y-126053507D01*
X163013733Y-126089064D01*
X162975169Y-126155859D01*
X162908374Y-126194423D01*
X162869810Y-126199500D01*
X161705471Y-126199500D01*
X161630971Y-126179538D01*
X161620009Y-126172554D01*
X161472741Y-126069437D01*
X161472738Y-126069435D01*
X161472734Y-126069432D01*
X161266496Y-125973261D01*
X161046692Y-125914365D01*
X161046693Y-125914365D01*
X160862466Y-125898247D01*
X160789989Y-125871868D01*
X160770093Y-125855173D01*
X157777141Y-122862221D01*
X157777139Y-122862218D01*
X157637782Y-122722861D01*
X157604919Y-122700902D01*
X157473919Y-122613370D01*
X157473909Y-122613365D01*
X157384868Y-122576483D01*
X157345165Y-122560038D01*
X157318500Y-122548993D01*
X157291837Y-122537949D01*
X157195188Y-122518724D01*
X157195188Y-122518723D01*
X157098541Y-122499500D01*
X156495106Y-122499500D01*
X156420606Y-122479538D01*
X156366068Y-122425000D01*
X156346106Y-122350500D01*
X156366068Y-122276000D01*
X156420606Y-122221462D01*
X156424190Y-122219459D01*
X156503620Y-122176473D01*
X156503626Y-122176470D01*
X156686784Y-122033913D01*
X156843979Y-121863153D01*
X156970924Y-121668849D01*
X157064157Y-121456300D01*
X157121134Y-121231305D01*
X157140300Y-121000000D01*
X157121134Y-120768695D01*
X157064157Y-120543700D01*
X156970924Y-120331151D01*
X156843979Y-120136847D01*
X156686784Y-119966087D01*
X156686783Y-119966086D01*
X156686781Y-119966084D01*
X156686779Y-119966082D01*
X156503630Y-119823533D01*
X156503624Y-119823529D01*
X156299503Y-119713064D01*
X156079984Y-119637703D01*
X156079983Y-119637702D01*
X156079981Y-119637702D01*
X155851049Y-119599500D01*
X155618951Y-119599500D01*
X155390019Y-119637702D01*
X155390017Y-119637702D01*
X155390015Y-119637703D01*
X155170496Y-119713064D01*
X154966375Y-119823529D01*
X154966369Y-119823533D01*
X154783220Y-119966082D01*
X154783218Y-119966084D01*
X154626023Y-120136844D01*
X154499075Y-120331151D01*
X154482284Y-120369432D01*
X154464333Y-120410354D01*
X154416129Y-120470559D01*
X154344277Y-120498596D01*
X154327885Y-120499500D01*
X149695471Y-120499500D01*
X149620971Y-120479538D01*
X149610009Y-120472554D01*
X149462741Y-120369437D01*
X149462738Y-120369435D01*
X149462734Y-120369432D01*
X149256496Y-120273261D01*
X149036692Y-120214365D01*
X149036693Y-120214365D01*
X148810000Y-120194532D01*
X148583306Y-120214365D01*
X148363507Y-120273260D01*
X148363506Y-120273260D01*
X148363504Y-120273261D01*
X148157266Y-120369432D01*
X148157263Y-120369434D01*
X148157261Y-120369435D01*
X148157258Y-120369437D01*
X147970862Y-120499951D01*
X147809951Y-120660862D01*
X147679437Y-120847258D01*
X147679435Y-120847261D01*
X147679434Y-120847263D01*
X147679432Y-120847266D01*
X147598669Y-121020462D01*
X147583260Y-121053507D01*
X147524364Y-121273310D01*
X147523680Y-121277189D01*
X147522845Y-121278978D01*
X147522681Y-121279592D01*
X147522572Y-121279563D01*
X147491079Y-121347089D01*
X147427897Y-121391324D01*
X147351062Y-121398041D01*
X147281162Y-121365440D01*
X147271586Y-121356665D01*
X142593290Y-116678370D01*
X142554726Y-116611575D01*
X142550216Y-116560024D01*
X142551924Y-116540500D01*
X142555468Y-116500000D01*
X142535635Y-116273308D01*
X142476739Y-116053504D01*
X142380568Y-115847266D01*
X142277446Y-115699990D01*
X142251067Y-115627513D01*
X142250500Y-115614528D01*
X142250500Y-114229553D01*
X142270462Y-114155053D01*
X142325000Y-114100515D01*
X142399500Y-114080553D01*
X142474000Y-114100515D01*
X142504859Y-114124194D01*
X144014700Y-115634035D01*
X144014707Y-115634043D01*
X144018446Y-115637782D01*
X144157803Y-115777139D01*
X144223260Y-115820876D01*
X144321668Y-115886631D01*
X144450419Y-115939961D01*
X144450418Y-115939961D01*
X144479583Y-115952041D01*
X144503749Y-115962051D01*
X144600395Y-115981274D01*
X144600396Y-115981275D01*
X144648070Y-115990758D01*
X144697044Y-116000500D01*
X144697045Y-116000500D01*
X144697048Y-116000500D01*
X155408537Y-116000500D01*
X155408540Y-116000500D01*
X155408541Y-116000500D01*
X155505188Y-115981275D01*
X155601836Y-115962051D01*
X155655165Y-115939961D01*
X155783914Y-115886632D01*
X155947782Y-115777139D01*
X156087139Y-115637782D01*
X156087139Y-115637780D01*
X156099401Y-115625519D01*
X156099405Y-115625514D01*
X159345589Y-112379329D01*
X159412382Y-112340767D01*
X159489510Y-112340767D01*
X159556305Y-112379331D01*
X159594869Y-112446126D01*
X159594869Y-112523254D01*
X159585988Y-112547656D01*
X159583261Y-112553502D01*
X159583260Y-112553505D01*
X159524365Y-112773306D01*
X159504532Y-113000000D01*
X159524365Y-113226693D01*
X159538960Y-113281162D01*
X159583261Y-113446496D01*
X159679432Y-113652734D01*
X159679435Y-113652738D01*
X159679437Y-113652741D01*
X159809951Y-113839137D01*
X159970862Y-114000048D01*
X160050899Y-114056090D01*
X160157266Y-114130568D01*
X160363504Y-114226739D01*
X160583308Y-114285635D01*
X160810000Y-114305468D01*
X161036692Y-114285635D01*
X161256496Y-114226739D01*
X161462734Y-114130568D01*
X161610009Y-114027446D01*
X161682485Y-114001067D01*
X161695471Y-114000500D01*
X162931701Y-114000500D01*
X163006201Y-114020462D01*
X163017160Y-114027444D01*
X163102361Y-114087102D01*
X163300670Y-114179575D01*
X163512023Y-114236207D01*
X163730000Y-114255277D01*
X163947977Y-114236207D01*
X164159330Y-114179575D01*
X164357639Y-114087102D01*
X164536877Y-113961598D01*
X164691598Y-113806877D01*
X164817102Y-113627639D01*
X164831268Y-113597261D01*
X164857379Y-113541264D01*
X164909575Y-113429330D01*
X164909577Y-113429319D01*
X164911800Y-113423216D01*
X164914165Y-113424076D01*
X164946781Y-113367569D01*
X165013572Y-113328997D01*
X165090700Y-113328989D01*
X165157499Y-113367545D01*
X165225859Y-113435905D01*
X165264423Y-113502700D01*
X165269500Y-113541264D01*
X165269500Y-114277735D01*
X165249538Y-114352235D01*
X165209794Y-114397014D01*
X165162456Y-114432451D01*
X165162452Y-114432455D01*
X165076204Y-114547666D01*
X165076202Y-114547670D01*
X165025908Y-114682517D01*
X165019500Y-114742114D01*
X165019500Y-116337863D01*
X165019502Y-116337888D01*
X165025908Y-116397478D01*
X165025909Y-116397484D01*
X165076202Y-116532329D01*
X165076204Y-116532333D01*
X165162452Y-116647544D01*
X165162455Y-116647547D01*
X165277666Y-116733795D01*
X165277670Y-116733797D01*
X165412517Y-116784091D01*
X165472114Y-116790499D01*
X165472118Y-116790499D01*
X165472127Y-116790500D01*
X167067872Y-116790499D01*
X167127483Y-116784091D01*
X167223447Y-116748298D01*
X167262329Y-116733797D01*
X167262333Y-116733795D01*
X167336370Y-116678370D01*
X167377546Y-116647546D01*
X167412984Y-116600206D01*
X167473610Y-116552530D01*
X167532264Y-116540500D01*
X169808541Y-116540500D01*
X169905774Y-116521159D01*
X170001836Y-116502051D01*
X170069764Y-116473914D01*
X170183914Y-116426632D01*
X170347782Y-116317139D01*
X170487139Y-116177782D01*
X170487139Y-116177780D01*
X170499401Y-116165519D01*
X170499404Y-116165514D01*
X171081600Y-115583319D01*
X171148393Y-115544757D01*
X171173967Y-115540247D01*
X171226692Y-115535635D01*
X171446496Y-115476739D01*
X171652734Y-115380568D01*
X171839139Y-115250047D01*
X172000047Y-115089139D01*
X172130568Y-114902734D01*
X172226739Y-114696496D01*
X172285635Y-114476692D01*
X172305468Y-114250000D01*
X172285635Y-114023308D01*
X172226739Y-113803504D01*
X172130568Y-113597266D01*
X172018897Y-113437782D01*
X172000048Y-113410862D01*
X171839137Y-113249951D01*
X171652741Y-113119437D01*
X171652738Y-113119435D01*
X171652734Y-113119432D01*
X171446496Y-113023261D01*
X171226692Y-112964365D01*
X171226693Y-112964365D01*
X171000000Y-112944532D01*
X170773306Y-112964365D01*
X170553507Y-113023260D01*
X170553506Y-113023260D01*
X170553504Y-113023261D01*
X170347266Y-113119432D01*
X170347263Y-113119434D01*
X170347261Y-113119435D01*
X170347258Y-113119437D01*
X170160862Y-113249951D01*
X169999951Y-113410862D01*
X169869437Y-113597258D01*
X169869435Y-113597261D01*
X169869434Y-113597263D01*
X169869432Y-113597266D01*
X169773261Y-113803504D01*
X169773260Y-113803507D01*
X169714365Y-114023304D01*
X169714365Y-114023308D01*
X169709751Y-114076031D01*
X169683369Y-114148507D01*
X169666677Y-114168399D01*
X169339221Y-114495858D01*
X169272427Y-114534423D01*
X169233862Y-114539500D01*
X167532264Y-114539500D01*
X167457764Y-114519538D01*
X167412984Y-114479793D01*
X167377547Y-114432455D01*
X167377543Y-114432451D01*
X167330206Y-114397014D01*
X167282529Y-114336387D01*
X167270500Y-114277735D01*
X167270500Y-112966584D01*
X167257546Y-112901461D01*
X167232055Y-112773308D01*
X167232051Y-112773290D01*
X167183490Y-112656054D01*
X167183489Y-112656052D01*
X167156635Y-112591220D01*
X167156632Y-112591212D01*
X167047139Y-112427344D01*
X166907782Y-112287987D01*
X166907781Y-112287986D01*
X165224141Y-110604346D01*
X165185577Y-110537551D01*
X165180500Y-110498987D01*
X165180500Y-107449500D01*
X165200462Y-107375000D01*
X165255000Y-107320462D01*
X165329500Y-107300500D01*
X170450305Y-107300500D01*
X170524805Y-107320462D01*
X170569585Y-107360206D01*
X170642455Y-107457547D01*
X170757666Y-107543795D01*
X170757670Y-107543797D01*
X170892517Y-107594091D01*
X170952114Y-107600499D01*
X170952118Y-107600499D01*
X170952127Y-107600500D01*
X172647872Y-107600499D01*
X172707483Y-107594091D01*
X172803447Y-107558298D01*
X172842329Y-107543797D01*
X172842333Y-107543795D01*
X172932710Y-107476138D01*
X172957546Y-107457546D01*
X173043796Y-107342331D01*
X173094091Y-107207483D01*
X173100500Y-107147873D01*
X173100499Y-105452128D01*
X173094091Y-105392517D01*
X173070174Y-105328392D01*
X173043797Y-105257670D01*
X173043795Y-105257666D01*
X172957547Y-105142455D01*
X172957544Y-105142452D01*
X172842333Y-105056204D01*
X172842329Y-105056202D01*
X172698751Y-105002652D01*
X172699748Y-104999977D01*
X172645416Y-104970715D01*
X172604895Y-104905089D01*
X172602615Y-104827995D01*
X172639188Y-104760089D01*
X172642222Y-104756963D01*
X172800047Y-104599139D01*
X172930568Y-104412734D01*
X173026739Y-104206496D01*
X173085635Y-103986692D01*
X173105468Y-103760000D01*
X173085635Y-103533308D01*
X173026739Y-103313504D01*
X172930568Y-103107266D01*
X172855810Y-103000500D01*
X172800048Y-102920862D01*
X172639137Y-102759951D01*
X172452741Y-102629437D01*
X172452738Y-102629435D01*
X172452734Y-102629432D01*
X172246496Y-102533261D01*
X172026692Y-102474365D01*
X172026693Y-102474365D01*
X171800000Y-102454532D01*
X171573306Y-102474365D01*
X171353507Y-102533260D01*
X171353506Y-102533260D01*
X171353504Y-102533261D01*
X171147266Y-102629432D01*
X171147263Y-102629434D01*
X171147261Y-102629435D01*
X171147258Y-102629437D01*
X170960862Y-102759951D01*
X170799951Y-102920862D01*
X170669437Y-103107258D01*
X170669435Y-103107261D01*
X170669434Y-103107263D01*
X170669432Y-103107266D01*
X170574662Y-103310500D01*
X170573260Y-103313507D01*
X170514365Y-103533306D01*
X170494532Y-103760000D01*
X170514365Y-103986693D01*
X170543764Y-104096410D01*
X170573261Y-104206496D01*
X170669432Y-104412734D01*
X170669435Y-104412738D01*
X170669437Y-104412741D01*
X170799951Y-104599137D01*
X170957743Y-104756929D01*
X170996307Y-104823724D01*
X170996307Y-104900852D01*
X170957743Y-104967647D01*
X170900516Y-105000686D01*
X170901250Y-105002652D01*
X170757670Y-105056202D01*
X170757666Y-105056204D01*
X170642455Y-105142452D01*
X170569585Y-105239794D01*
X170508957Y-105287470D01*
X170450305Y-105299500D01*
X165065471Y-105299500D01*
X164990971Y-105279538D01*
X164980009Y-105272554D01*
X164832741Y-105169437D01*
X164832734Y-105169432D01*
X164832732Y-105169431D01*
X164823312Y-105165038D01*
X164764230Y-105115463D01*
X164737851Y-105042986D01*
X164751244Y-104967030D01*
X164800821Y-104907946D01*
X164823311Y-104894962D01*
X164832734Y-104890568D01*
X164980009Y-104787446D01*
X165052485Y-104761067D01*
X165065471Y-104760500D01*
X165409911Y-104760500D01*
X165545628Y-104733504D01*
X165603206Y-104722051D01*
X165656535Y-104699961D01*
X165785284Y-104646632D01*
X165949152Y-104537139D01*
X166088509Y-104397782D01*
X166088510Y-104397780D01*
X166096995Y-104389295D01*
X166097001Y-104389288D01*
X166629288Y-103857001D01*
X166629295Y-103856995D01*
X166637780Y-103848510D01*
X166637782Y-103848509D01*
X166777139Y-103709152D01*
X166886632Y-103545284D01*
X166962051Y-103363205D01*
X167000500Y-103169911D01*
X167000500Y-95291349D01*
X167020462Y-95216849D01*
X167075000Y-95162311D01*
X167149500Y-95142349D01*
X167212468Y-95156309D01*
X167363504Y-95226739D01*
X167583308Y-95285635D01*
X167810000Y-95305468D01*
X168036692Y-95285635D01*
X168256496Y-95226739D01*
X168462734Y-95130568D01*
X168610009Y-95027446D01*
X168682485Y-95001067D01*
X168695471Y-95000500D01*
X169189447Y-95000500D01*
X169263947Y-95020462D01*
X169294806Y-95044141D01*
X171447386Y-97196721D01*
X171485950Y-97263516D01*
X171485950Y-97340644D01*
X171447386Y-97407439D01*
X171380592Y-97446002D01*
X171373323Y-97447950D01*
X171353506Y-97453260D01*
X171353504Y-97453261D01*
X171147266Y-97549432D01*
X171147263Y-97549434D01*
X171147261Y-97549435D01*
X171147258Y-97549437D01*
X170960862Y-97679951D01*
X170799951Y-97840862D01*
X170669437Y-98027258D01*
X170669435Y-98027261D01*
X170669434Y-98027263D01*
X170669432Y-98027266D01*
X170585635Y-98206968D01*
X170573260Y-98233507D01*
X170514365Y-98453306D01*
X170494532Y-98680000D01*
X170514365Y-98906693D01*
X170539430Y-99000235D01*
X170573261Y-99126496D01*
X170669432Y-99332734D01*
X170669435Y-99332738D01*
X170669437Y-99332741D01*
X170799951Y-99519137D01*
X170960862Y-99680048D01*
X171040899Y-99736090D01*
X171147266Y-99810568D01*
X171353504Y-99906739D01*
X171573308Y-99965635D01*
X171800000Y-99985468D01*
X172026692Y-99965635D01*
X172246496Y-99906739D01*
X172452734Y-99810568D01*
X172639139Y-99680047D01*
X172800047Y-99519139D01*
X172930568Y-99332734D01*
X173026739Y-99126496D01*
X173033997Y-99099408D01*
X173072557Y-99032616D01*
X173139351Y-98994050D01*
X173216479Y-98994048D01*
X173283274Y-99032609D01*
X177337804Y-103087140D01*
X177367925Y-103107266D01*
X177501665Y-103196629D01*
X177501675Y-103196634D01*
X177548190Y-103215901D01*
X177683750Y-103272052D01*
X177844974Y-103304121D01*
X177877044Y-103310500D01*
X177877045Y-103310500D01*
X178074125Y-103310500D01*
X192529087Y-103310500D01*
X192603587Y-103330462D01*
X192624863Y-103345360D01*
X192628595Y-103348491D01*
X192628599Y-103348495D01*
X192784913Y-103457947D01*
X192834489Y-103517030D01*
X192847882Y-103592986D01*
X192821503Y-103665463D01*
X192784912Y-103702054D01*
X192628595Y-103811508D01*
X192624863Y-103814640D01*
X192554961Y-103847236D01*
X192529087Y-103849500D01*
X181551459Y-103849500D01*
X181487521Y-103862217D01*
X181487522Y-103862218D01*
X181358166Y-103887948D01*
X181358156Y-103887951D01*
X181342679Y-103894363D01*
X181342675Y-103894365D01*
X181176083Y-103963368D01*
X181012219Y-104072860D01*
X181012214Y-104072864D01*
X178722864Y-106362214D01*
X178722860Y-106362219D01*
X178613368Y-106526083D01*
X178580466Y-106605519D01*
X178537949Y-106708164D01*
X178537948Y-106708166D01*
X178521306Y-106791834D01*
X178521306Y-106791835D01*
X178499500Y-106901455D01*
X178499500Y-115523861D01*
X178479538Y-115598361D01*
X178455859Y-115629220D01*
X172032864Y-122052214D01*
X172032860Y-122052219D01*
X171923368Y-122216083D01*
X171889433Y-122298013D01*
X171847950Y-122398161D01*
X171847947Y-122398168D01*
X171847296Y-122401447D01*
X171847294Y-122401459D01*
X171809500Y-122591455D01*
X171809500Y-129114528D01*
X171789538Y-129189028D01*
X171782554Y-129199990D01*
X171679434Y-129347262D01*
X171679434Y-129347263D01*
X171679432Y-129347266D01*
X171633162Y-129446492D01*
X171583260Y-129553507D01*
X171524365Y-129773306D01*
X171504532Y-130000000D01*
X171524365Y-130226693D01*
X171545473Y-130305468D01*
X171583261Y-130446496D01*
X171679432Y-130652734D01*
X171679435Y-130652738D01*
X171679437Y-130652741D01*
X171809951Y-130839137D01*
X171970862Y-131000048D01*
X172046859Y-131053261D01*
X172157266Y-131130568D01*
X172363504Y-131226739D01*
X172583308Y-131285635D01*
X172810000Y-131305468D01*
X173036692Y-131285635D01*
X173256496Y-131226739D01*
X173462734Y-131130568D01*
X173649139Y-131000047D01*
X173810047Y-130839139D01*
X173940568Y-130652734D01*
X174036739Y-130446496D01*
X174095635Y-130226692D01*
X174115468Y-130000000D01*
X174095635Y-129773308D01*
X174036739Y-129553504D01*
X173940568Y-129347266D01*
X173899166Y-129288137D01*
X173837446Y-129199990D01*
X173811067Y-129127513D01*
X173810500Y-129114528D01*
X173810500Y-123166138D01*
X173830462Y-123091638D01*
X173854141Y-123060779D01*
X176948838Y-119966082D01*
X180277140Y-116637781D01*
X180304416Y-116596956D01*
X180304419Y-116596954D01*
X180347597Y-116532333D01*
X180386632Y-116473914D01*
X180462051Y-116291835D01*
X180500500Y-116098541D01*
X180500500Y-107476138D01*
X180520462Y-107401638D01*
X180544141Y-107370779D01*
X182020779Y-105894141D01*
X182087574Y-105855577D01*
X182126138Y-105850500D01*
X192529087Y-105850500D01*
X192603587Y-105870462D01*
X192624863Y-105885360D01*
X192628595Y-105888491D01*
X192628599Y-105888495D01*
X192822170Y-106024035D01*
X193036337Y-106123903D01*
X193264592Y-106185063D01*
X193500000Y-106205659D01*
X193735408Y-106185063D01*
X193963663Y-106123903D01*
X194177830Y-106024035D01*
X194371401Y-105888495D01*
X194538495Y-105721401D01*
X194674035Y-105527830D01*
X194773903Y-105313663D01*
X194835063Y-105085408D01*
X194855659Y-104850000D01*
X194835063Y-104614592D01*
X194773903Y-104386337D01*
X194674035Y-104172171D01*
X194538495Y-103978599D01*
X194371401Y-103811505D01*
X194215086Y-103702052D01*
X194165511Y-103642970D01*
X194152118Y-103567014D01*
X194178497Y-103494537D01*
X194215085Y-103457948D01*
X194371401Y-103348495D01*
X194538495Y-103181401D01*
X194674035Y-102987830D01*
X194773903Y-102773663D01*
X194835063Y-102545408D01*
X194855659Y-102310000D01*
X194835063Y-102074592D01*
X194773903Y-101846337D01*
X194674035Y-101632171D01*
X194538495Y-101438599D01*
X194371401Y-101271505D01*
X194215086Y-101162052D01*
X194165511Y-101102970D01*
X194152118Y-101027014D01*
X194178497Y-100954537D01*
X194215085Y-100917948D01*
X194371401Y-100808495D01*
X194538495Y-100641401D01*
X194674035Y-100447830D01*
X194773903Y-100233663D01*
X194835063Y-100005408D01*
X194855659Y-99770000D01*
X194835063Y-99534592D01*
X194773903Y-99306337D01*
X194674035Y-99092171D01*
X194538495Y-98898599D01*
X194371401Y-98731505D01*
X194215086Y-98622052D01*
X194165511Y-98562970D01*
X194152118Y-98487014D01*
X194178497Y-98414537D01*
X194215085Y-98377948D01*
X194371401Y-98268495D01*
X194538495Y-98101401D01*
X194674035Y-97907830D01*
X194773903Y-97693663D01*
X194835063Y-97465408D01*
X194855659Y-97230000D01*
X194835063Y-96994592D01*
X194773903Y-96766337D01*
X194674035Y-96552171D01*
X194538495Y-96358599D01*
X194371401Y-96191505D01*
X194346336Y-96173954D01*
X194296759Y-96114869D01*
X194283367Y-96038913D01*
X194309747Y-95966437D01*
X194344220Y-95931358D01*
X194477510Y-95834517D01*
X194644517Y-95667510D01*
X194783343Y-95476433D01*
X194890568Y-95265992D01*
X194963553Y-95041368D01*
X195000500Y-94808092D01*
X195000500Y-94571908D01*
X194963553Y-94338632D01*
X194890568Y-94114008D01*
X194783343Y-93903567D01*
X194644517Y-93712490D01*
X194477510Y-93545483D01*
X194286433Y-93406657D01*
X194075992Y-93299432D01*
X193851368Y-93226447D01*
X193618092Y-93189500D01*
X193618087Y-93189500D01*
X192023246Y-93189500D01*
X191948746Y-93169538D01*
X191917887Y-93145859D01*
X186991143Y-88219115D01*
X172127510Y-73355483D01*
X172127506Y-73355480D01*
X172127503Y-73355477D01*
X171936435Y-73216658D01*
X171936434Y-73216657D01*
X171725992Y-73109432D01*
X171501368Y-73036447D01*
X171268092Y-72999500D01*
X158881908Y-72999500D01*
X158648632Y-73036447D01*
X158424008Y-73109432D01*
X158424002Y-73109434D01*
X158424002Y-73109435D01*
X158213565Y-73216658D01*
X158022499Y-73355476D01*
X158022488Y-73355485D01*
X157855485Y-73522488D01*
X157855476Y-73522499D01*
X157729345Y-73696103D01*
X157716657Y-73713567D01*
X157609432Y-73924008D01*
X157536447Y-74148632D01*
X157499500Y-74381908D01*
X157499500Y-74618092D01*
X157536447Y-74851368D01*
X157609432Y-75075992D01*
X157716657Y-75286433D01*
X157855483Y-75477510D01*
X158022490Y-75644517D01*
X158213567Y-75783343D01*
X158424008Y-75890568D01*
X158648632Y-75963553D01*
X158881908Y-76000500D01*
X165437138Y-76000500D01*
X165511638Y-76020462D01*
X165566176Y-76075000D01*
X165586138Y-76149500D01*
X165566176Y-76224000D01*
X165511638Y-76278538D01*
X165494157Y-76287158D01*
X165271143Y-76379532D01*
X165056340Y-76511164D01*
X164889334Y-76653801D01*
X164819720Y-76687005D01*
X164792567Y-76689500D01*
X163385471Y-76689500D01*
X163310971Y-76669538D01*
X163300009Y-76662554D01*
X163152741Y-76559437D01*
X163152738Y-76559435D01*
X163152734Y-76559432D01*
X162946496Y-76463261D01*
X162726692Y-76404365D01*
X162726693Y-76404365D01*
X162500000Y-76384532D01*
X162273306Y-76404365D01*
X162053507Y-76463260D01*
X162053506Y-76463260D01*
X162053504Y-76463261D01*
X161847266Y-76559432D01*
X161847263Y-76559434D01*
X161847261Y-76559435D01*
X161847258Y-76559437D01*
X161660862Y-76689951D01*
X161499951Y-76850862D01*
X161369437Y-77037258D01*
X161369435Y-77037261D01*
X161369434Y-77037263D01*
X161369432Y-77037266D01*
X161273261Y-77243504D01*
X161273260Y-77243507D01*
X161214365Y-77463304D01*
X161214364Y-77463309D01*
X161209752Y-77516029D01*
X161183372Y-77588505D01*
X161166678Y-77608400D01*
X159362221Y-79412858D01*
X159222864Y-79552214D01*
X159222860Y-79552219D01*
X159113368Y-79716083D01*
X159063377Y-79836776D01*
X159037949Y-79898163D01*
X159037948Y-79898165D01*
X159024780Y-79964368D01*
X158999500Y-80091458D01*
X158999500Y-87098539D01*
X159037948Y-87291834D01*
X159037949Y-87291836D01*
X159113367Y-87473912D01*
X159113368Y-87473915D01*
X159184288Y-87580053D01*
X159222861Y-87637782D01*
X159362218Y-87777139D01*
X159362221Y-87777141D01*
X160955859Y-89370779D01*
X160994423Y-89437574D01*
X160999500Y-89476138D01*
X160999500Y-92199277D01*
X160979538Y-92273777D01*
X160925000Y-92328315D01*
X160850500Y-92348277D01*
X160776000Y-92328315D01*
X160745141Y-92304636D01*
X155322726Y-86882221D01*
X155322724Y-86882218D01*
X155183367Y-86742861D01*
X155134171Y-86709989D01*
X155019504Y-86633370D01*
X155019494Y-86633365D01*
X154904129Y-86585580D01*
X154890750Y-86580038D01*
X154848230Y-86562426D01*
X154837424Y-86557950D01*
X154837419Y-86557948D01*
X154730791Y-86536739D01*
X154644129Y-86519500D01*
X154644126Y-86519500D01*
X152955874Y-86519500D01*
X152955870Y-86519500D01*
X152869209Y-86536739D01*
X152762579Y-86557949D01*
X152709249Y-86580038D01*
X152671598Y-86595634D01*
X152580505Y-86633365D01*
X152580495Y-86633370D01*
X152416634Y-86742860D01*
X152416629Y-86742864D01*
X152277273Y-86882221D01*
X151172280Y-87987213D01*
X151105485Y-88025777D01*
X151079910Y-88030287D01*
X151033306Y-88034365D01*
X150813507Y-88093260D01*
X150813506Y-88093260D01*
X150813504Y-88093261D01*
X150607266Y-88189432D01*
X150607263Y-88189434D01*
X150607261Y-88189435D01*
X150607258Y-88189437D01*
X150459991Y-88292554D01*
X150387515Y-88318933D01*
X150374529Y-88319500D01*
X149605471Y-88319500D01*
X149530971Y-88299538D01*
X149520009Y-88292554D01*
X149372741Y-88189437D01*
X149372738Y-88189435D01*
X149372734Y-88189432D01*
X149166496Y-88093261D01*
X149166494Y-88093260D01*
X149166491Y-88093259D01*
X149166488Y-88093258D01*
X149148215Y-88088362D01*
X149081421Y-88049797D01*
X149042858Y-87983002D01*
X149042859Y-87905874D01*
X149081420Y-87839083D01*
X153876365Y-83044140D01*
X153943160Y-83005576D01*
X153981724Y-83000499D01*
X154647864Y-83000499D01*
X154647872Y-83000499D01*
X154707483Y-82994091D01*
X154803447Y-82958298D01*
X154842329Y-82943797D01*
X154842333Y-82943795D01*
X154929767Y-82878341D01*
X154957546Y-82857546D01*
X155043796Y-82742331D01*
X155094091Y-82607483D01*
X155100500Y-82547873D01*
X155100499Y-81876136D01*
X155120461Y-81801637D01*
X155144136Y-81770782D01*
X156129288Y-80785631D01*
X156129295Y-80785625D01*
X156137780Y-80777140D01*
X156137782Y-80777139D01*
X156277139Y-80637782D01*
X156386632Y-80473914D01*
X156462051Y-80291835D01*
X156462707Y-80288540D01*
X156464952Y-80277256D01*
X156470273Y-80250500D01*
X156481275Y-80195188D01*
X156500500Y-80098541D01*
X156500500Y-79195470D01*
X156520462Y-79120970D01*
X156527433Y-79110026D01*
X156630568Y-78962734D01*
X156726739Y-78756496D01*
X156785635Y-78536692D01*
X156805468Y-78310000D01*
X156785635Y-78083308D01*
X156726739Y-77863504D01*
X156630568Y-77657266D01*
X156531674Y-77516029D01*
X156500048Y-77470862D01*
X156339137Y-77309951D01*
X156152741Y-77179437D01*
X156152738Y-77179435D01*
X156152734Y-77179432D01*
X155946496Y-77083261D01*
X155726692Y-77024365D01*
X155726693Y-77024365D01*
X155500000Y-77004532D01*
X155273306Y-77024365D01*
X155053505Y-77083260D01*
X155053501Y-77083262D01*
X155047653Y-77085989D01*
X154971696Y-77099376D01*
X154899221Y-77072991D01*
X154849648Y-77013904D01*
X154836261Y-76937947D01*
X154862646Y-76865472D01*
X154879326Y-76845594D01*
X156277139Y-75447782D01*
X156308732Y-75400500D01*
X156386632Y-75283914D01*
X156462051Y-75101835D01*
X156500500Y-74908541D01*
X156500500Y-71575470D01*
X156520462Y-71500970D01*
X156527433Y-71490026D01*
X156630568Y-71342734D01*
X156726739Y-71136496D01*
X156785635Y-70916692D01*
X156805468Y-70690000D01*
X156785635Y-70463308D01*
X156726739Y-70243504D01*
X156630568Y-70037266D01*
X156500047Y-69850861D01*
X156404045Y-69754859D01*
X156365481Y-69688064D01*
X156365481Y-69610936D01*
X156404045Y-69544141D01*
X156470840Y-69505577D01*
X156509404Y-69500500D01*
X163833862Y-69500500D01*
X163908362Y-69520462D01*
X163939221Y-69544141D01*
X164355859Y-69960779D01*
X164394423Y-70027574D01*
X164399500Y-70066138D01*
X164399500Y-71337863D01*
X164399502Y-71337888D01*
X164405908Y-71397478D01*
X164405909Y-71397484D01*
X164456202Y-71532329D01*
X164456204Y-71532333D01*
X164542452Y-71647544D01*
X164542455Y-71647547D01*
X164657666Y-71733795D01*
X164657670Y-71733797D01*
X164792517Y-71784091D01*
X164852114Y-71790499D01*
X164852118Y-71790499D01*
X164852127Y-71790500D01*
X167147872Y-71790499D01*
X167207483Y-71784091D01*
X167303447Y-71748298D01*
X167342329Y-71733797D01*
X167342333Y-71733795D01*
X167400772Y-71690047D01*
X167457546Y-71647546D01*
X167511502Y-71575470D01*
X167543795Y-71532333D01*
X167543797Y-71532329D01*
X167579435Y-71436778D01*
X167594091Y-71397483D01*
X167599977Y-71342736D01*
X167600499Y-71337885D01*
X167600499Y-71337882D01*
X167600500Y-71337873D01*
X167600499Y-69042128D01*
X167594091Y-68982517D01*
X167561459Y-68895025D01*
X167543797Y-68847670D01*
X167543795Y-68847666D01*
X167457547Y-68732455D01*
X167457544Y-68732452D01*
X167342333Y-68646204D01*
X167342329Y-68646202D01*
X167207482Y-68595908D01*
X167147885Y-68589500D01*
X167147873Y-68589500D01*
X165876138Y-68589500D01*
X165801638Y-68569538D01*
X165770779Y-68545859D01*
X165087141Y-67862221D01*
X165087139Y-67862218D01*
X164947782Y-67722861D01*
X164914829Y-67700842D01*
X164783916Y-67613368D01*
X164636286Y-67552219D01*
X164636284Y-67552218D01*
X164601834Y-67537948D01*
X164601836Y-67537948D01*
X164505188Y-67518724D01*
X164505188Y-67518723D01*
X164408541Y-67499500D01*
X155976139Y-67499500D01*
X155901639Y-67479538D01*
X155870780Y-67455859D01*
X155544141Y-67129220D01*
X155505577Y-67062425D01*
X155500500Y-67023861D01*
X155500500Y-64401460D01*
X155478184Y-64289273D01*
X155462051Y-64208165D01*
X155386632Y-64026086D01*
X155363826Y-63991955D01*
X155349968Y-63971215D01*
X155277139Y-63862218D01*
X155137782Y-63722861D01*
X155134050Y-63719129D01*
X155134035Y-63719115D01*
X153914920Y-62500000D01*
X166174671Y-62500000D01*
X166193966Y-62794380D01*
X166251519Y-63083722D01*
X166253302Y-63088974D01*
X166346347Y-63363075D01*
X166476823Y-63627658D01*
X166633549Y-63862214D01*
X166640727Y-63872957D01*
X166835242Y-64094758D01*
X167057043Y-64289273D01*
X167057049Y-64289277D01*
X167302341Y-64453176D01*
X167481882Y-64541714D01*
X167566923Y-64583652D01*
X167846278Y-64678481D01*
X168135620Y-64736034D01*
X168430000Y-64755329D01*
X168724380Y-64736034D01*
X169013722Y-64678481D01*
X169293077Y-64583652D01*
X169463158Y-64499777D01*
X169557658Y-64453176D01*
X169557661Y-64453173D01*
X169557665Y-64453172D01*
X169802957Y-64289273D01*
X170024758Y-64094758D01*
X170219273Y-63872957D01*
X170383172Y-63627665D01*
X170383173Y-63627661D01*
X170383176Y-63627658D01*
X170429777Y-63533158D01*
X170513652Y-63363077D01*
X170608481Y-63083722D01*
X170666034Y-62794380D01*
X170685329Y-62500000D01*
X170666034Y-62205620D01*
X170608481Y-61916278D01*
X170513652Y-61636923D01*
X170384111Y-61374240D01*
X170383174Y-61372339D01*
X170219277Y-61127049D01*
X170219274Y-61127045D01*
X170219273Y-61127043D01*
X170024758Y-60905242D01*
X169802957Y-60710727D01*
X169792112Y-60703480D01*
X169557658Y-60546823D01*
X169293075Y-60416347D01*
X169133616Y-60362218D01*
X169013722Y-60321519D01*
X168871058Y-60293141D01*
X168724381Y-60263966D01*
X168430000Y-60244671D01*
X168135618Y-60263966D01*
X167846283Y-60321518D01*
X167846278Y-60321519D01*
X167846272Y-60321520D01*
X167846272Y-60321521D01*
X167566928Y-60416346D01*
X167566926Y-60416346D01*
X167566923Y-60416348D01*
X167504889Y-60446939D01*
X167302339Y-60546825D01*
X167057049Y-60710722D01*
X167057045Y-60710725D01*
X166835242Y-60905242D01*
X166640725Y-61127045D01*
X166640722Y-61127049D01*
X166476825Y-61372339D01*
X166387520Y-61553434D01*
X166359304Y-61610652D01*
X166346346Y-61636928D01*
X166251521Y-61916272D01*
X166251518Y-61916283D01*
X166193966Y-62205618D01*
X166182799Y-62375991D01*
X166174671Y-62500000D01*
X153914920Y-62500000D01*
X153277141Y-61862221D01*
X153277139Y-61862218D01*
X153137782Y-61722861D01*
X152987128Y-61622197D01*
X152949351Y-61585869D01*
X152946801Y-61582358D01*
X152919173Y-61510348D01*
X152931251Y-61434172D01*
X152979799Y-61374240D01*
X153003144Y-61361711D01*
X153002977Y-61361404D01*
X153012333Y-61356295D01*
X153069938Y-61313171D01*
X153127546Y-61270046D01*
X153213796Y-61154831D01*
X153224160Y-61127045D01*
X153254014Y-61047000D01*
X153264091Y-61019983D01*
X153266239Y-61000005D01*
X153270499Y-60960385D01*
X153270499Y-60960382D01*
X153270500Y-60960373D01*
X153270499Y-59706136D01*
X153290461Y-59631637D01*
X153314136Y-59600782D01*
X154370779Y-58544141D01*
X154437574Y-58505577D01*
X154476138Y-58500500D01*
X170523862Y-58500500D01*
X170598362Y-58520462D01*
X170629221Y-58544141D01*
X170955859Y-58870779D01*
X170994423Y-58937574D01*
X170999500Y-58976138D01*
X170999500Y-67713861D01*
X170979538Y-67788361D01*
X170955859Y-67819220D01*
X169918401Y-68856678D01*
X169851606Y-68895242D01*
X169826029Y-68899752D01*
X169773310Y-68904364D01*
X169773304Y-68904365D01*
X169553507Y-68963260D01*
X169553506Y-68963260D01*
X169553504Y-68963261D01*
X169347266Y-69059432D01*
X169347263Y-69059434D01*
X169347261Y-69059435D01*
X169347258Y-69059437D01*
X169160862Y-69189951D01*
X168999951Y-69350862D01*
X168869437Y-69537258D01*
X168869435Y-69537261D01*
X168869434Y-69537263D01*
X168869432Y-69537266D01*
X168773261Y-69743504D01*
X168741437Y-69862270D01*
X168735175Y-69880717D01*
X168727949Y-69898164D01*
X168727947Y-69898169D01*
X168717744Y-69949460D01*
X168715535Y-69958936D01*
X168714366Y-69963300D01*
X168713645Y-69967384D01*
X168712286Y-69976899D01*
X168689500Y-70091457D01*
X168689500Y-70288541D01*
X168712287Y-70403100D01*
X168713642Y-70412594D01*
X168714364Y-70416690D01*
X168714365Y-70416692D01*
X168715536Y-70421065D01*
X168717746Y-70430542D01*
X168727948Y-70481832D01*
X168735174Y-70499278D01*
X168741437Y-70517729D01*
X168761529Y-70592711D01*
X168773261Y-70636496D01*
X168869432Y-70842734D01*
X168869435Y-70842738D01*
X168869437Y-70842741D01*
X168999951Y-71029137D01*
X169160862Y-71190048D01*
X169240899Y-71246090D01*
X169347266Y-71320568D01*
X169553504Y-71416739D01*
X169773308Y-71475635D01*
X170000000Y-71495468D01*
X170226692Y-71475635D01*
X170446496Y-71416739D01*
X170652734Y-71320568D01*
X170839139Y-71190047D01*
X171000047Y-71029139D01*
X171130568Y-70842734D01*
X171226739Y-70636496D01*
X171285635Y-70416692D01*
X171290247Y-70363969D01*
X171316625Y-70291494D01*
X171333315Y-70271603D01*
X172629288Y-68975631D01*
X172629295Y-68975625D01*
X172637780Y-68967140D01*
X172637782Y-68967139D01*
X172777139Y-68827782D01*
X172886632Y-68663914D01*
X172962051Y-68481835D01*
X173000500Y-68288541D01*
X173000500Y-58605910D01*
X173000501Y-58605889D01*
X173000501Y-58401459D01*
X172962052Y-58208167D01*
X172962052Y-58208165D01*
X172891627Y-58038144D01*
X172886634Y-58026090D01*
X172886629Y-58026080D01*
X172798723Y-57894521D01*
X172777140Y-57862219D01*
X171785633Y-56870713D01*
X171785632Y-56870711D01*
X171637785Y-56722864D01*
X171637782Y-56722861D01*
X171577083Y-56682303D01*
X171473919Y-56613370D01*
X171473909Y-56613365D01*
X171384868Y-56576483D01*
X171345165Y-56560038D01*
X171312563Y-56546534D01*
X171289927Y-56537158D01*
X171228737Y-56490205D01*
X171199222Y-56418948D01*
X171209289Y-56342480D01*
X171256242Y-56281290D01*
X171327499Y-56251775D01*
X171346947Y-56250500D01*
X193455830Y-56250500D01*
X193496095Y-56250500D01*
X193503892Y-56250703D01*
X193831867Y-56267892D01*
X193847372Y-56269521D01*
X193921675Y-56281290D01*
X194167900Y-56320288D01*
X194183155Y-56323531D01*
X194208786Y-56330398D01*
X194496611Y-56407521D01*
X194511436Y-56412339D01*
X194814407Y-56528639D01*
X194828654Y-56534982D01*
X195117800Y-56682309D01*
X195131287Y-56690095D01*
X195403460Y-56866847D01*
X195416073Y-56876010D01*
X195668273Y-57080238D01*
X195679863Y-57090674D01*
X195909325Y-57320136D01*
X195919761Y-57331726D01*
X196123989Y-57583926D01*
X196133155Y-57596543D01*
X196305688Y-57862220D01*
X196309898Y-57868702D01*
X196317696Y-57882209D01*
X196465017Y-58171345D01*
X196471360Y-58185592D01*
X196587660Y-58488563D01*
X196592480Y-58503396D01*
X196676468Y-58816844D01*
X196679711Y-58832099D01*
X196730477Y-59152624D01*
X196732107Y-59168135D01*
X196749296Y-59496107D01*
X196749500Y-59503905D01*
X196749500Y-137496094D01*
X196749296Y-137503892D01*
X196732107Y-137831864D01*
X196730477Y-137847375D01*
X196679711Y-138167900D01*
X196676468Y-138183155D01*
X196592480Y-138496603D01*
X196587660Y-138511436D01*
X196471360Y-138814407D01*
X196465017Y-138828654D01*
X196317696Y-139117790D01*
X196309898Y-139131297D01*
X196133156Y-139403455D01*
X196123989Y-139416073D01*
X195919761Y-139668273D01*
X195909325Y-139679863D01*
X195679863Y-139909325D01*
X195668273Y-139919761D01*
X195416073Y-140123989D01*
X195403455Y-140133156D01*
X195131297Y-140309898D01*
X195117790Y-140317696D01*
X194828654Y-140465017D01*
X194814407Y-140471360D01*
X194511436Y-140587660D01*
X194496603Y-140592480D01*
X194183155Y-140676468D01*
X194167900Y-140679711D01*
X193847375Y-140730477D01*
X193831864Y-140732107D01*
X193503893Y-140749296D01*
X193496095Y-140749500D01*
X115503905Y-140749500D01*
X115496107Y-140749296D01*
X115168135Y-140732107D01*
X115152624Y-140730477D01*
X114832099Y-140679711D01*
X114816844Y-140676468D01*
X114503396Y-140592480D01*
X114488563Y-140587660D01*
X114185592Y-140471360D01*
X114171345Y-140465017D01*
X113882209Y-140317696D01*
X113868706Y-140309900D01*
X113596543Y-140133155D01*
X113583926Y-140123989D01*
X113331726Y-139919761D01*
X113320136Y-139909325D01*
X113090674Y-139679863D01*
X113080238Y-139668273D01*
X112913243Y-139462052D01*
X112876006Y-139416068D01*
X112866843Y-139403455D01*
X112855918Y-139386632D01*
X112690095Y-139131287D01*
X112682309Y-139117800D01*
X112534982Y-138828654D01*
X112528639Y-138814407D01*
X112412339Y-138511436D01*
X112407521Y-138496611D01*
X112325143Y-138189170D01*
X112323531Y-138183155D01*
X112320288Y-138167900D01*
X112269522Y-137847375D01*
X112267892Y-137831864D01*
X112250704Y-137503892D01*
X112250500Y-137496094D01*
X112250500Y-59503905D01*
X112250704Y-59496107D01*
X112261008Y-59299500D01*
X112267892Y-59168130D01*
X112269522Y-59152624D01*
X112296429Y-58982743D01*
X112320288Y-58832095D01*
X112323531Y-58816844D01*
X112330077Y-58792414D01*
X112407523Y-58503382D01*
X112412339Y-58488563D01*
X112528639Y-58185592D01*
X112534982Y-58171345D01*
X112549567Y-58142721D01*
X112682313Y-57882191D01*
X112690090Y-57868720D01*
X112866853Y-57596530D01*
X112875999Y-57583939D01*
X113080246Y-57331716D01*
X113090664Y-57320146D01*
X113320146Y-57090664D01*
X113331716Y-57080246D01*
X113583939Y-56875999D01*
X113596530Y-56866853D01*
X113868720Y-56690090D01*
X113882191Y-56682313D01*
X114171350Y-56534979D01*
X114185592Y-56528639D01*
X114488563Y-56412339D01*
X114503382Y-56407523D01*
X114816848Y-56323530D01*
X114832095Y-56320288D01*
X115152629Y-56269521D01*
X115168130Y-56267892D01*
X115496107Y-56250703D01*
X115503905Y-56250500D01*
X115544170Y-56250500D01*
X153653053Y-56250500D01*
X153727553Y-56270462D01*
G37*
G04 #@! TD.AperFunction*
G04 #@! TA.AperFunction,Conductor*
G36*
X133114686Y-67270462D02*
G01*
X133169224Y-67325000D01*
X133189186Y-67399500D01*
X133169224Y-67474000D01*
X133167000Y-67477725D01*
X133165187Y-67480663D01*
X133110001Y-67647201D01*
X133110001Y-67647203D01*
X133099500Y-67749992D01*
X133099500Y-70050008D01*
X133110001Y-70152797D01*
X133149367Y-70271597D01*
X133165187Y-70319336D01*
X133216854Y-70403100D01*
X133257289Y-70468655D01*
X133381345Y-70592711D01*
X133530666Y-70684814D01*
X133697203Y-70739999D01*
X133799992Y-70750500D01*
X133799996Y-70750500D01*
X136700004Y-70750500D01*
X136700008Y-70750500D01*
X136802797Y-70739999D01*
X136969334Y-70684814D01*
X137118655Y-70592711D01*
X137242711Y-70468655D01*
X137334814Y-70319334D01*
X137389999Y-70152797D01*
X137400500Y-70050008D01*
X137400500Y-68175138D01*
X137420462Y-68100638D01*
X137475000Y-68046100D01*
X137549500Y-68026138D01*
X137624000Y-68046100D01*
X137654859Y-68069779D01*
X141705859Y-72120779D01*
X141744423Y-72187574D01*
X141749500Y-72226138D01*
X141749500Y-81114528D01*
X141729538Y-81189028D01*
X141722554Y-81199990D01*
X141619434Y-81347262D01*
X141619434Y-81347263D01*
X141619432Y-81347266D01*
X141587867Y-81414957D01*
X141523260Y-81553507D01*
X141464365Y-81773306D01*
X141444532Y-82000000D01*
X141464365Y-82226693D01*
X141503292Y-82371972D01*
X141523261Y-82446496D01*
X141619432Y-82652734D01*
X141619435Y-82652738D01*
X141619437Y-82652741D01*
X141749951Y-82839137D01*
X141910862Y-83000048D01*
X141940017Y-83020462D01*
X142097266Y-83130568D01*
X142097268Y-83130569D01*
X142097275Y-83130573D01*
X142163469Y-83161439D01*
X142222553Y-83211015D01*
X142248933Y-83283491D01*
X142249500Y-83296479D01*
X142249500Y-87479886D01*
X142229538Y-87554386D01*
X142175000Y-87608924D01*
X142100500Y-87628886D01*
X142026000Y-87608924D01*
X141995141Y-87585245D01*
X141871401Y-87461505D01*
X141814036Y-87421337D01*
X141764460Y-87362253D01*
X141750500Y-87299284D01*
X141750500Y-87224005D01*
X141750499Y-87223997D01*
X141721658Y-87079007D01*
X141665083Y-86942421D01*
X141615759Y-86868604D01*
X141582951Y-86819503D01*
X141478416Y-86714968D01*
X137780497Y-83017048D01*
X137698186Y-82962051D01*
X137698184Y-82962048D01*
X137669265Y-82942727D01*
X137657576Y-82934916D01*
X137657573Y-82934914D01*
X137657572Y-82934914D01*
X137520995Y-82878342D01*
X137520993Y-82878341D01*
X137376002Y-82849500D01*
X137375999Y-82849500D01*
X137149139Y-82849500D01*
X137074639Y-82829538D01*
X137020101Y-82775000D01*
X137000139Y-82700500D01*
X137020101Y-82626000D01*
X137030923Y-82609802D01*
X137091936Y-82530289D01*
X137213224Y-82320212D01*
X137306054Y-82096100D01*
X137368838Y-81861789D01*
X137400500Y-81621288D01*
X137400500Y-81378712D01*
X137368838Y-81138211D01*
X137306054Y-80903900D01*
X137213224Y-80679788D01*
X137091936Y-80469711D01*
X136944265Y-80277262D01*
X136772738Y-80105735D01*
X136580289Y-79958064D01*
X136476539Y-79898164D01*
X136370216Y-79836778D01*
X136370214Y-79836777D01*
X136370212Y-79836776D01*
X136238932Y-79782398D01*
X136146103Y-79743947D01*
X136146101Y-79743946D01*
X136146100Y-79743946D01*
X135911789Y-79681162D01*
X135911787Y-79681161D01*
X135911781Y-79681160D01*
X135671293Y-79649500D01*
X135671288Y-79649500D01*
X134828712Y-79649500D01*
X134828706Y-79649500D01*
X134588218Y-79681160D01*
X134353896Y-79743947D01*
X134129783Y-79836778D01*
X133919712Y-79958063D01*
X133919711Y-79958064D01*
X133727262Y-80105735D01*
X133727260Y-80105736D01*
X133727256Y-80105740D01*
X133555740Y-80277256D01*
X133555736Y-80277260D01*
X133555735Y-80277262D01*
X133495426Y-80355859D01*
X133408063Y-80469712D01*
X133286778Y-80679783D01*
X133193947Y-80903896D01*
X133131160Y-81138218D01*
X133099500Y-81378706D01*
X133099500Y-81621293D01*
X133131160Y-81861781D01*
X133131161Y-81861787D01*
X133131162Y-81861789D01*
X133193946Y-82096100D01*
X133280234Y-82304419D01*
X133286778Y-82320216D01*
X133322188Y-82381547D01*
X133408064Y-82530289D01*
X133469071Y-82609796D01*
X133498586Y-82681051D01*
X133488519Y-82757520D01*
X133441567Y-82818710D01*
X133370310Y-82848225D01*
X133350861Y-82849500D01*
X132222585Y-82849500D01*
X132148085Y-82829538D01*
X132117226Y-82805859D01*
X131759709Y-82448342D01*
X131721145Y-82381547D01*
X131721145Y-82304419D01*
X131727410Y-82285963D01*
X131733507Y-82271244D01*
X131806054Y-82096100D01*
X131868838Y-81861789D01*
X131900500Y-81621288D01*
X131900500Y-81378712D01*
X131868838Y-81138211D01*
X131806054Y-80903900D01*
X131713224Y-80679788D01*
X131591936Y-80469711D01*
X131444265Y-80277262D01*
X131272738Y-80105735D01*
X131080289Y-79958064D01*
X130976539Y-79898164D01*
X130870216Y-79836778D01*
X130870214Y-79836777D01*
X130870212Y-79836776D01*
X130738932Y-79782398D01*
X130646103Y-79743947D01*
X130646101Y-79743946D01*
X130646100Y-79743946D01*
X130411789Y-79681162D01*
X130411787Y-79681161D01*
X130411781Y-79681160D01*
X130171293Y-79649500D01*
X130171288Y-79649500D01*
X129328712Y-79649500D01*
X129328706Y-79649500D01*
X129088218Y-79681160D01*
X128853896Y-79743947D01*
X128629783Y-79836778D01*
X128419712Y-79958063D01*
X128419711Y-79958064D01*
X128227262Y-80105735D01*
X128227260Y-80105736D01*
X128227256Y-80105740D01*
X128055740Y-80277256D01*
X128055736Y-80277260D01*
X128055735Y-80277262D01*
X127995426Y-80355859D01*
X127908063Y-80469712D01*
X127786778Y-80679783D01*
X127693947Y-80903896D01*
X127631160Y-81138218D01*
X127599500Y-81378706D01*
X127599500Y-81621293D01*
X127631160Y-81861781D01*
X127631161Y-81861787D01*
X127631162Y-81861789D01*
X127693946Y-82096100D01*
X127780234Y-82304419D01*
X127786778Y-82320216D01*
X127822188Y-82381547D01*
X127908064Y-82530289D01*
X128055735Y-82722738D01*
X128227262Y-82894265D01*
X128419711Y-83041936D01*
X128629788Y-83163224D01*
X128853900Y-83256054D01*
X129088211Y-83318838D01*
X129088217Y-83318838D01*
X129088218Y-83318839D01*
X129123881Y-83323534D01*
X129328712Y-83350500D01*
X130171288Y-83350500D01*
X130411789Y-83318838D01*
X130411817Y-83318830D01*
X130413452Y-83318506D01*
X130414029Y-83318543D01*
X130416626Y-83318202D01*
X130416693Y-83318717D01*
X130490416Y-83323534D01*
X130547911Y-83359278D01*
X131267048Y-84078415D01*
X131267049Y-84078416D01*
X131371584Y-84182951D01*
X131420685Y-84215759D01*
X131494502Y-84265083D01*
X131525444Y-84277899D01*
X131631087Y-84321658D01*
X131776082Y-84350500D01*
X136929495Y-84350500D01*
X137003995Y-84370462D01*
X137034854Y-84394141D01*
X140010049Y-87369336D01*
X140048613Y-87436131D01*
X140048613Y-87513259D01*
X140010050Y-87580053D01*
X139961507Y-87628596D01*
X139961505Y-87628599D01*
X139825965Y-87822171D01*
X139727718Y-88032861D01*
X139726096Y-88036340D01*
X139664937Y-88264590D01*
X139644341Y-88500000D01*
X139664937Y-88735409D01*
X139709429Y-88901459D01*
X139726097Y-88963663D01*
X139825965Y-89177830D01*
X139961505Y-89371401D01*
X140128599Y-89538495D01*
X140322170Y-89674035D01*
X140536337Y-89773903D01*
X140764592Y-89835063D01*
X141000000Y-89855659D01*
X141235408Y-89835063D01*
X141463663Y-89773903D01*
X141677830Y-89674035D01*
X141871401Y-89538495D01*
X141995141Y-89414755D01*
X142061936Y-89376191D01*
X142139064Y-89376191D01*
X142205859Y-89414755D01*
X142244423Y-89481550D01*
X142249500Y-89520114D01*
X142249500Y-100614528D01*
X142229538Y-100689028D01*
X142222554Y-100699990D01*
X142119434Y-100847262D01*
X142119434Y-100847263D01*
X142119432Y-100847266D01*
X142030514Y-101037950D01*
X142023260Y-101053507D01*
X141964365Y-101273306D01*
X141944532Y-101500000D01*
X141964365Y-101726693D01*
X141996424Y-101846337D01*
X142023261Y-101946496D01*
X142119432Y-102152734D01*
X142119435Y-102152738D01*
X142119437Y-102152741D01*
X142249951Y-102339137D01*
X142410862Y-102500048D01*
X142458296Y-102533261D01*
X142597266Y-102630568D01*
X142803504Y-102726739D01*
X143023308Y-102785635D01*
X143250000Y-102805468D01*
X143476692Y-102785635D01*
X143696496Y-102726739D01*
X143902734Y-102630568D01*
X144041704Y-102533261D01*
X144050009Y-102527446D01*
X144122485Y-102501067D01*
X144135471Y-102500500D01*
X144643862Y-102500500D01*
X144718362Y-102520462D01*
X144749221Y-102544141D01*
X147466677Y-105261597D01*
X147505241Y-105328392D01*
X147509751Y-105353967D01*
X147514364Y-105406690D01*
X147514365Y-105406695D01*
X147546824Y-105527831D01*
X147573261Y-105626496D01*
X147669432Y-105832734D01*
X147669435Y-105832738D01*
X147669437Y-105832741D01*
X147799951Y-106019137D01*
X147960862Y-106180048D01*
X147997439Y-106205659D01*
X148147266Y-106310568D01*
X148156685Y-106314960D01*
X148156689Y-106314962D01*
X148215771Y-106364540D01*
X148242148Y-106437018D01*
X148228753Y-106512974D01*
X148179175Y-106572056D01*
X148156689Y-106585038D01*
X148147268Y-106589431D01*
X148147258Y-106589437D01*
X147960862Y-106719951D01*
X147799951Y-106880862D01*
X147669437Y-107067258D01*
X147669435Y-107067261D01*
X147669434Y-107067263D01*
X147669432Y-107067266D01*
X147573261Y-107273504D01*
X147573260Y-107273507D01*
X147514365Y-107493306D01*
X147514365Y-107493308D01*
X147494532Y-107720000D01*
X147514365Y-107946692D01*
X147573261Y-108166496D01*
X147669432Y-108372734D01*
X147669435Y-108372738D01*
X147669437Y-108372741D01*
X147799951Y-108559137D01*
X147960862Y-108720048D01*
X147999991Y-108747446D01*
X148147266Y-108850568D01*
X148156685Y-108854960D01*
X148156689Y-108854962D01*
X148215771Y-108904540D01*
X148242148Y-108977018D01*
X148228753Y-109052974D01*
X148179175Y-109112056D01*
X148156689Y-109125038D01*
X148147268Y-109129431D01*
X148147258Y-109129437D01*
X147960862Y-109259951D01*
X147799951Y-109420862D01*
X147669437Y-109607258D01*
X147669435Y-109607261D01*
X147669434Y-109607263D01*
X147669432Y-109607266D01*
X147613742Y-109726693D01*
X147573260Y-109813507D01*
X147514365Y-110033306D01*
X147494532Y-110260000D01*
X147514365Y-110486693D01*
X147545890Y-110604346D01*
X147573261Y-110706496D01*
X147669432Y-110912734D01*
X147669435Y-110912738D01*
X147669437Y-110912741D01*
X147799951Y-111099137D01*
X147957743Y-111256929D01*
X147996307Y-111323724D01*
X147996307Y-111400852D01*
X147957743Y-111467647D01*
X147900516Y-111500686D01*
X147901250Y-111502652D01*
X147757670Y-111556202D01*
X147757666Y-111556204D01*
X147642455Y-111642452D01*
X147642452Y-111642455D01*
X147556204Y-111757666D01*
X147556202Y-111757670D01*
X147505908Y-111892517D01*
X147499500Y-111952114D01*
X147499500Y-113647863D01*
X147499502Y-113647888D01*
X147505908Y-113707478D01*
X147505909Y-113707484D01*
X147539830Y-113798431D01*
X147547161Y-113875210D01*
X147515120Y-113945368D01*
X147452293Y-113990106D01*
X147400224Y-113999500D01*
X145271723Y-113999500D01*
X145197223Y-113979538D01*
X145166364Y-113955859D01*
X143372726Y-112162221D01*
X143372724Y-112162218D01*
X143233367Y-112022861D01*
X143197556Y-111998933D01*
X143069504Y-111913370D01*
X143069494Y-111913365D01*
X142963429Y-111869432D01*
X142940750Y-111860038D01*
X142907120Y-111846108D01*
X142887424Y-111837950D01*
X142887421Y-111837949D01*
X142775518Y-111815690D01*
X142775518Y-111815689D01*
X142694126Y-111799500D01*
X142065471Y-111799500D01*
X141990971Y-111779538D01*
X141980009Y-111772554D01*
X141832741Y-111669437D01*
X141832734Y-111669432D01*
X141832732Y-111669431D01*
X141823312Y-111665038D01*
X141764230Y-111615463D01*
X141737851Y-111542986D01*
X141751244Y-111467030D01*
X141800821Y-111407946D01*
X141823311Y-111394962D01*
X141832734Y-111390568D01*
X142019139Y-111260047D01*
X142180047Y-111099139D01*
X142310568Y-110912734D01*
X142406739Y-110706496D01*
X142465635Y-110486692D01*
X142485468Y-110260000D01*
X142465635Y-110033308D01*
X142406739Y-109813504D01*
X142310568Y-109607266D01*
X142180047Y-109420861D01*
X142019139Y-109259953D01*
X142019137Y-109259951D01*
X141832741Y-109129437D01*
X141832734Y-109129432D01*
X141832732Y-109129431D01*
X141823312Y-109125038D01*
X141764230Y-109075463D01*
X141737851Y-109002986D01*
X141751244Y-108927030D01*
X141800821Y-108867946D01*
X141823311Y-108854962D01*
X141832734Y-108850568D01*
X142019139Y-108720047D01*
X142180047Y-108559139D01*
X142310568Y-108372734D01*
X142406739Y-108166496D01*
X142465635Y-107946692D01*
X142485468Y-107720000D01*
X142465635Y-107493308D01*
X142406739Y-107273504D01*
X142310568Y-107067266D01*
X142180047Y-106880861D01*
X142019139Y-106719953D01*
X142019137Y-106719951D01*
X141832741Y-106589437D01*
X141832734Y-106589432D01*
X141832732Y-106589431D01*
X141823312Y-106585038D01*
X141764230Y-106535463D01*
X141737851Y-106462986D01*
X141751244Y-106387030D01*
X141800821Y-106327946D01*
X141823311Y-106314962D01*
X141832734Y-106310568D01*
X142019139Y-106180047D01*
X142180047Y-106019139D01*
X142310568Y-105832734D01*
X142406739Y-105626496D01*
X142465635Y-105406692D01*
X142485468Y-105180000D01*
X142465635Y-104953308D01*
X142406739Y-104733504D01*
X142310568Y-104527266D01*
X142213951Y-104389281D01*
X142180048Y-104340862D01*
X142019137Y-104179951D01*
X141832741Y-104049437D01*
X141832738Y-104049435D01*
X141832734Y-104049432D01*
X141626496Y-103953261D01*
X141557475Y-103934767D01*
X141406693Y-103894365D01*
X141180000Y-103874532D01*
X140953306Y-103894365D01*
X140733507Y-103953260D01*
X140733506Y-103953260D01*
X140733504Y-103953261D01*
X140527266Y-104049432D01*
X140527263Y-104049434D01*
X140527261Y-104049435D01*
X140527258Y-104049437D01*
X140340862Y-104179951D01*
X140179951Y-104340862D01*
X140049437Y-104527258D01*
X140049435Y-104527261D01*
X140049434Y-104527263D01*
X140049432Y-104527266D01*
X139958602Y-104722051D01*
X139953260Y-104733507D01*
X139894365Y-104953306D01*
X139874532Y-105180000D01*
X139894365Y-105406693D01*
X139926824Y-105527830D01*
X139953261Y-105626496D01*
X140049432Y-105832734D01*
X140049435Y-105832738D01*
X140049437Y-105832741D01*
X140179951Y-106019137D01*
X140340862Y-106180048D01*
X140377439Y-106205659D01*
X140527266Y-106310568D01*
X140536685Y-106314960D01*
X140536689Y-106314962D01*
X140595771Y-106364540D01*
X140622148Y-106437018D01*
X140608753Y-106512974D01*
X140559175Y-106572056D01*
X140536689Y-106585038D01*
X140527268Y-106589431D01*
X140527258Y-106589437D01*
X140340862Y-106719951D01*
X140179951Y-106880862D01*
X140049437Y-107067258D01*
X140049435Y-107067261D01*
X140049434Y-107067263D01*
X140049432Y-107067266D01*
X139953261Y-107273504D01*
X139953260Y-107273507D01*
X139894365Y-107493306D01*
X139894365Y-107493308D01*
X139874532Y-107720000D01*
X139894365Y-107946692D01*
X139953261Y-108166496D01*
X140049432Y-108372734D01*
X140049435Y-108372738D01*
X140049437Y-108372741D01*
X140179951Y-108559137D01*
X140340862Y-108720048D01*
X140379991Y-108747446D01*
X140527266Y-108850568D01*
X140536685Y-108854960D01*
X140536689Y-108854962D01*
X140595771Y-108904540D01*
X140622148Y-108977018D01*
X140608753Y-109052974D01*
X140559175Y-109112056D01*
X140536689Y-109125038D01*
X140527268Y-109129431D01*
X140527258Y-109129437D01*
X140340862Y-109259951D01*
X140179951Y-109420862D01*
X140049437Y-109607258D01*
X140049435Y-109607261D01*
X140049434Y-109607263D01*
X140049432Y-109607266D01*
X139993742Y-109726693D01*
X139953260Y-109813507D01*
X139894365Y-110033306D01*
X139874532Y-110260000D01*
X139894365Y-110486693D01*
X139925890Y-110604346D01*
X139953261Y-110706496D01*
X140049432Y-110912734D01*
X140049435Y-110912738D01*
X140049437Y-110912741D01*
X140179951Y-111099137D01*
X140340862Y-111260048D01*
X140420899Y-111316090D01*
X140527266Y-111390568D01*
X140536685Y-111394960D01*
X140536689Y-111394962D01*
X140595771Y-111444540D01*
X140622148Y-111517018D01*
X140608753Y-111592974D01*
X140559175Y-111652056D01*
X140536689Y-111665038D01*
X140527268Y-111669431D01*
X140527258Y-111669437D01*
X140379991Y-111772554D01*
X140307515Y-111798933D01*
X140294529Y-111799500D01*
X137626139Y-111799500D01*
X137551639Y-111779538D01*
X137520780Y-111755859D01*
X137365712Y-111600791D01*
X137327148Y-111533996D01*
X137327148Y-111456868D01*
X137329246Y-111449040D01*
X137363704Y-111320442D01*
X137400500Y-111040951D01*
X137400500Y-106559049D01*
X137374587Y-106362219D01*
X137363706Y-106279572D01*
X137363704Y-106279559D01*
X137363704Y-106279558D01*
X137290742Y-106007261D01*
X137182863Y-105746817D01*
X137041912Y-105502683D01*
X137041910Y-105502680D01*
X137041909Y-105502678D01*
X136896870Y-105313661D01*
X136870300Y-105279035D01*
X136670965Y-105079700D01*
X136623119Y-105042986D01*
X136447321Y-104908090D01*
X136447319Y-104908089D01*
X136203187Y-104767139D01*
X136203185Y-104767138D01*
X136203183Y-104767137D01*
X135942739Y-104659258D01*
X135804191Y-104622134D01*
X135737396Y-104583569D01*
X135698833Y-104516774D01*
X135698833Y-104439646D01*
X135737398Y-104372851D01*
X135804193Y-104334288D01*
X135823291Y-104330488D01*
X135911789Y-104318838D01*
X136146100Y-104256054D01*
X136370212Y-104163224D01*
X136580289Y-104041936D01*
X136772738Y-103894265D01*
X136944265Y-103722738D01*
X137091936Y-103530289D01*
X137213224Y-103320212D01*
X137306054Y-103096100D01*
X137368838Y-102861789D01*
X137400500Y-102621288D01*
X137400500Y-102378712D01*
X137370751Y-102152741D01*
X137368839Y-102138218D01*
X137368838Y-102138217D01*
X137368838Y-102138211D01*
X137306054Y-101903900D01*
X137213224Y-101679788D01*
X137091936Y-101469711D01*
X136944265Y-101277262D01*
X136772738Y-101105735D01*
X136580289Y-100958064D01*
X136510263Y-100917634D01*
X136370216Y-100836778D01*
X136370214Y-100836777D01*
X136370212Y-100836776D01*
X136210207Y-100770500D01*
X136146103Y-100743947D01*
X136146101Y-100743946D01*
X136146100Y-100743946D01*
X135911789Y-100681162D01*
X135911787Y-100681161D01*
X135911781Y-100681160D01*
X135671293Y-100649500D01*
X135671288Y-100649500D01*
X134828712Y-100649500D01*
X134828706Y-100649500D01*
X134588218Y-100681160D01*
X134353896Y-100743947D01*
X134129783Y-100836778D01*
X133919712Y-100958063D01*
X133919711Y-100958064D01*
X133727262Y-101105735D01*
X133727260Y-101105736D01*
X133727256Y-101105740D01*
X133555740Y-101277256D01*
X133555736Y-101277260D01*
X133555735Y-101277262D01*
X133532735Y-101307236D01*
X133408063Y-101469712D01*
X133286778Y-101679783D01*
X133193947Y-101903896D01*
X133131160Y-102138218D01*
X133099500Y-102378706D01*
X133099500Y-102621293D01*
X133131160Y-102861781D01*
X133131161Y-102861787D01*
X133131162Y-102861789D01*
X133193946Y-103096100D01*
X133286775Y-103320210D01*
X133286778Y-103320216D01*
X133366297Y-103457946D01*
X133408064Y-103530289D01*
X133555735Y-103722738D01*
X133727262Y-103894265D01*
X133919711Y-104041936D01*
X134129788Y-104163224D01*
X134353900Y-104256054D01*
X134588211Y-104318838D01*
X134676693Y-104330486D01*
X134747947Y-104360000D01*
X134794900Y-104421189D01*
X134804969Y-104497657D01*
X134775454Y-104568915D01*
X134714265Y-104615868D01*
X134695808Y-104622134D01*
X134633375Y-104638863D01*
X134557261Y-104659258D01*
X134557258Y-104659259D01*
X134557255Y-104659260D01*
X134296812Y-104767139D01*
X134052680Y-104908089D01*
X134052678Y-104908090D01*
X133829034Y-105079700D01*
X133629700Y-105279034D01*
X133458090Y-105502678D01*
X133458089Y-105502680D01*
X133317139Y-105746812D01*
X133209259Y-106007257D01*
X133136295Y-106279559D01*
X133136293Y-106279572D01*
X133099500Y-106559043D01*
X133099500Y-111040956D01*
X133136293Y-111320427D01*
X133136295Y-111320440D01*
X133180855Y-111486739D01*
X133199468Y-111556204D01*
X133209259Y-111592742D01*
X133229851Y-111642455D01*
X133310827Y-111837950D01*
X133317139Y-111853187D01*
X133458089Y-112097319D01*
X133458090Y-112097321D01*
X133604394Y-112287986D01*
X133629700Y-112320965D01*
X133829035Y-112520300D01*
X133872307Y-112553504D01*
X134052678Y-112691909D01*
X134052681Y-112691910D01*
X134052683Y-112691912D01*
X134296817Y-112832863D01*
X134557261Y-112940742D01*
X134695808Y-112977865D01*
X134762602Y-113016429D01*
X134801166Y-113083224D01*
X134801166Y-113160352D01*
X134762602Y-113227147D01*
X134695807Y-113265711D01*
X134676691Y-113269513D01*
X134588218Y-113281160D01*
X134353896Y-113343947D01*
X134129783Y-113436778D01*
X133919712Y-113558063D01*
X133919711Y-113558064D01*
X133727262Y-113705735D01*
X133727260Y-113705736D01*
X133727256Y-113705740D01*
X133555740Y-113877256D01*
X133555736Y-113877260D01*
X133555735Y-113877262D01*
X133477256Y-113979538D01*
X133408063Y-114069712D01*
X133286778Y-114279783D01*
X133193947Y-114503896D01*
X133131160Y-114738218D01*
X133099500Y-114978706D01*
X133099500Y-115221293D01*
X133131160Y-115461781D01*
X133131161Y-115461787D01*
X133131162Y-115461789D01*
X133193946Y-115696100D01*
X133272866Y-115886631D01*
X133286778Y-115920216D01*
X133310932Y-115962051D01*
X133408064Y-116130289D01*
X133555735Y-116322738D01*
X133727262Y-116494265D01*
X133919711Y-116641936D01*
X133929430Y-116647547D01*
X134057454Y-116721462D01*
X134111992Y-116776000D01*
X134131954Y-116850500D01*
X134111992Y-116925000D01*
X134057454Y-116979538D01*
X133982954Y-116999500D01*
X128976138Y-116999500D01*
X128901638Y-116979538D01*
X128870779Y-116955859D01*
X127544141Y-115629221D01*
X127505577Y-115562426D01*
X127500500Y-115523862D01*
X127500500Y-111778152D01*
X127520462Y-111703652D01*
X127575000Y-111649114D01*
X127649500Y-111629152D01*
X127724000Y-111649114D01*
X127778538Y-111703652D01*
X127784566Y-111715878D01*
X127784625Y-111715850D01*
X127786774Y-111720210D01*
X127872928Y-111869432D01*
X127908064Y-111930289D01*
X128055735Y-112122738D01*
X128227262Y-112294265D01*
X128419711Y-112441936D01*
X128629788Y-112563224D01*
X128853900Y-112656054D01*
X129088211Y-112718838D01*
X129088217Y-112718838D01*
X129088218Y-112718839D01*
X129153600Y-112727446D01*
X129328712Y-112750500D01*
X130171288Y-112750500D01*
X130411789Y-112718838D01*
X130646100Y-112656054D01*
X130870212Y-112563224D01*
X131080289Y-112441936D01*
X131272738Y-112294265D01*
X131444265Y-112122738D01*
X131591936Y-111930289D01*
X131713224Y-111720212D01*
X131806054Y-111496100D01*
X131868838Y-111261789D01*
X131900500Y-111021288D01*
X131900500Y-110778712D01*
X131868838Y-110538211D01*
X131806054Y-110303900D01*
X131713224Y-110079788D01*
X131591936Y-109869711D01*
X131444265Y-109677262D01*
X131272738Y-109505735D01*
X131080289Y-109358064D01*
X131010263Y-109317634D01*
X130870216Y-109236778D01*
X130870214Y-109236777D01*
X130870212Y-109236776D01*
X130658456Y-109149064D01*
X130646103Y-109143947D01*
X130646101Y-109143946D01*
X130646100Y-109143946D01*
X130411789Y-109081162D01*
X130411787Y-109081161D01*
X130411781Y-109081160D01*
X130171293Y-109049500D01*
X130171288Y-109049500D01*
X129328712Y-109049500D01*
X129328706Y-109049500D01*
X129088218Y-109081160D01*
X128853896Y-109143947D01*
X128629783Y-109236778D01*
X128419712Y-109358063D01*
X128419711Y-109358064D01*
X128227262Y-109505735D01*
X128227260Y-109505736D01*
X128227256Y-109505740D01*
X128055740Y-109677256D01*
X128055736Y-109677260D01*
X128055735Y-109677262D01*
X127962714Y-109798488D01*
X127908063Y-109869712D01*
X127786774Y-110079789D01*
X127784625Y-110084150D01*
X127784338Y-110084008D01*
X127784337Y-110084012D01*
X127784289Y-110083984D01*
X127783521Y-110083605D01*
X127740204Y-110140058D01*
X127668947Y-110169572D01*
X127592479Y-110159504D01*
X127531289Y-110112551D01*
X127501775Y-110041294D01*
X127500500Y-110021847D01*
X127500500Y-107578152D01*
X127520462Y-107503652D01*
X127575000Y-107449114D01*
X127649500Y-107429152D01*
X127724000Y-107449114D01*
X127778538Y-107503652D01*
X127784566Y-107515878D01*
X127784625Y-107515850D01*
X127786774Y-107520210D01*
X127833130Y-107600500D01*
X127908064Y-107730289D01*
X128055735Y-107922738D01*
X128227262Y-108094265D01*
X128419711Y-108241936D01*
X128629788Y-108363224D01*
X128853900Y-108456054D01*
X129088211Y-108518838D01*
X129088217Y-108518838D01*
X129088218Y-108518839D01*
X129153600Y-108527446D01*
X129328712Y-108550500D01*
X130171288Y-108550500D01*
X130411789Y-108518838D01*
X130646100Y-108456054D01*
X130870212Y-108363224D01*
X131080289Y-108241936D01*
X131272738Y-108094265D01*
X131444265Y-107922738D01*
X131591936Y-107730289D01*
X131713224Y-107520212D01*
X131806054Y-107296100D01*
X131868838Y-107061789D01*
X131900500Y-106821288D01*
X131900500Y-106578712D01*
X131868838Y-106338211D01*
X131806054Y-106103900D01*
X131713224Y-105879788D01*
X131591936Y-105669711D01*
X131444265Y-105477262D01*
X131272738Y-105305735D01*
X131080289Y-105158064D01*
X130933406Y-105073261D01*
X130870216Y-105036778D01*
X130870214Y-105036777D01*
X130870212Y-105036776D01*
X130710726Y-104970715D01*
X130646103Y-104943947D01*
X130646101Y-104943946D01*
X130646100Y-104943946D01*
X130411789Y-104881162D01*
X130411787Y-104881161D01*
X130411781Y-104881160D01*
X130171293Y-104849500D01*
X130171288Y-104849500D01*
X129328712Y-104849500D01*
X129328706Y-104849500D01*
X129088218Y-104881160D01*
X128853896Y-104943947D01*
X128629783Y-105036778D01*
X128419712Y-105158063D01*
X128404897Y-105169431D01*
X128227262Y-105305735D01*
X128227260Y-105305736D01*
X128227256Y-105305740D01*
X128055740Y-105477256D01*
X127908063Y-105669712D01*
X127786774Y-105879789D01*
X127784625Y-105884150D01*
X127784338Y-105884008D01*
X127784337Y-105884012D01*
X127784289Y-105883984D01*
X127783521Y-105883605D01*
X127740204Y-105940058D01*
X127668947Y-105969572D01*
X127592479Y-105959504D01*
X127531289Y-105912551D01*
X127501775Y-105841294D01*
X127500500Y-105821847D01*
X127500500Y-103378152D01*
X127520462Y-103303652D01*
X127575000Y-103249114D01*
X127649500Y-103229152D01*
X127724000Y-103249114D01*
X127778538Y-103303652D01*
X127784566Y-103315878D01*
X127784625Y-103315850D01*
X127786774Y-103320210D01*
X127866297Y-103457946D01*
X127908064Y-103530289D01*
X128055735Y-103722738D01*
X128227262Y-103894265D01*
X128419711Y-104041936D01*
X128629788Y-104163224D01*
X128853900Y-104256054D01*
X129088211Y-104318838D01*
X129088217Y-104318838D01*
X129088218Y-104318839D01*
X129148826Y-104326818D01*
X129328712Y-104350500D01*
X130171288Y-104350500D01*
X130411789Y-104318838D01*
X130646100Y-104256054D01*
X130870212Y-104163224D01*
X131080289Y-104041936D01*
X131272738Y-103894265D01*
X131444265Y-103722738D01*
X131591936Y-103530289D01*
X131713224Y-103320212D01*
X131806054Y-103096100D01*
X131868838Y-102861789D01*
X131900500Y-102621288D01*
X131900500Y-102378712D01*
X131870751Y-102152741D01*
X131868839Y-102138218D01*
X131868838Y-102138217D01*
X131868838Y-102138211D01*
X131806054Y-101903900D01*
X131713224Y-101679788D01*
X131591936Y-101469711D01*
X131444265Y-101277262D01*
X131272738Y-101105735D01*
X131080289Y-100958064D01*
X131010263Y-100917634D01*
X130870216Y-100836778D01*
X130870214Y-100836777D01*
X130870212Y-100836776D01*
X130710207Y-100770500D01*
X130646103Y-100743947D01*
X130646101Y-100743946D01*
X130646100Y-100743946D01*
X130411789Y-100681162D01*
X130411787Y-100681161D01*
X130411781Y-100681160D01*
X130171293Y-100649500D01*
X130171288Y-100649500D01*
X129328712Y-100649500D01*
X129328706Y-100649500D01*
X129088218Y-100681160D01*
X128853896Y-100743947D01*
X128629783Y-100836778D01*
X128419712Y-100958063D01*
X128419711Y-100958064D01*
X128227262Y-101105735D01*
X128227260Y-101105736D01*
X128227256Y-101105740D01*
X128055740Y-101277256D01*
X128055736Y-101277260D01*
X128055735Y-101277262D01*
X128032735Y-101307236D01*
X127908063Y-101469712D01*
X127786774Y-101679789D01*
X127784625Y-101684150D01*
X127784338Y-101684008D01*
X127784337Y-101684012D01*
X127784289Y-101683984D01*
X127783521Y-101683605D01*
X127740204Y-101740058D01*
X127668947Y-101769572D01*
X127592479Y-101759504D01*
X127531289Y-101712551D01*
X127501775Y-101641294D01*
X127500500Y-101621847D01*
X127500500Y-99178152D01*
X127520462Y-99103652D01*
X127575000Y-99049114D01*
X127649500Y-99029152D01*
X127724000Y-99049114D01*
X127778538Y-99103652D01*
X127784566Y-99115878D01*
X127784625Y-99115850D01*
X127786774Y-99120210D01*
X127842914Y-99217446D01*
X127908064Y-99330289D01*
X128055735Y-99522738D01*
X128227262Y-99694265D01*
X128419711Y-99841936D01*
X128629788Y-99963224D01*
X128853900Y-100056054D01*
X129088211Y-100118838D01*
X129088217Y-100118838D01*
X129088218Y-100118839D01*
X129153600Y-100127446D01*
X129328712Y-100150500D01*
X130171288Y-100150500D01*
X130411789Y-100118838D01*
X130646100Y-100056054D01*
X130870212Y-99963224D01*
X131080289Y-99841936D01*
X131272738Y-99694265D01*
X131444265Y-99522738D01*
X131591936Y-99330289D01*
X131713224Y-99120212D01*
X131806054Y-98896100D01*
X131868838Y-98661789D01*
X131900500Y-98421288D01*
X131900500Y-98178712D01*
X131900499Y-98178706D01*
X133099500Y-98178706D01*
X133099500Y-98421293D01*
X133131160Y-98661781D01*
X133131161Y-98661787D01*
X133131162Y-98661789D01*
X133193946Y-98896100D01*
X133286775Y-99120210D01*
X133286778Y-99120216D01*
X133320646Y-99178877D01*
X133408064Y-99330289D01*
X133555735Y-99522738D01*
X133727262Y-99694265D01*
X133919711Y-99841936D01*
X134129788Y-99963224D01*
X134353900Y-100056054D01*
X134588211Y-100118838D01*
X134588217Y-100118838D01*
X134588218Y-100118839D01*
X134653600Y-100127446D01*
X134828712Y-100150500D01*
X135671288Y-100150500D01*
X135911789Y-100118838D01*
X136146100Y-100056054D01*
X136370212Y-99963224D01*
X136580289Y-99841936D01*
X136772738Y-99694265D01*
X136944265Y-99522738D01*
X137091936Y-99330289D01*
X137213224Y-99120212D01*
X137306054Y-98896100D01*
X137368838Y-98661789D01*
X137400500Y-98421288D01*
X137400500Y-98178712D01*
X137368838Y-97938211D01*
X137306054Y-97703900D01*
X137213224Y-97479788D01*
X137091936Y-97269711D01*
X136944265Y-97077262D01*
X136772738Y-96905735D01*
X136580289Y-96758064D01*
X136510263Y-96717634D01*
X136370216Y-96636778D01*
X136370214Y-96636777D01*
X136370212Y-96636776D01*
X136165950Y-96552168D01*
X136146103Y-96543947D01*
X136146101Y-96543946D01*
X136146100Y-96543946D01*
X135911789Y-96481162D01*
X135911787Y-96481161D01*
X135911781Y-96481160D01*
X135671293Y-96449500D01*
X135671288Y-96449500D01*
X134828712Y-96449500D01*
X134828706Y-96449500D01*
X134588218Y-96481160D01*
X134353896Y-96543947D01*
X134129783Y-96636778D01*
X133919712Y-96758063D01*
X133919711Y-96758064D01*
X133727262Y-96905735D01*
X133727260Y-96905736D01*
X133727256Y-96905740D01*
X133555740Y-97077256D01*
X133555736Y-97077260D01*
X133555735Y-97077262D01*
X133503099Y-97145859D01*
X133408063Y-97269712D01*
X133286778Y-97479783D01*
X133193947Y-97703896D01*
X133131160Y-97938218D01*
X133099500Y-98178706D01*
X131900499Y-98178706D01*
X131868838Y-97938211D01*
X131806054Y-97703900D01*
X131713224Y-97479788D01*
X131591936Y-97269711D01*
X131444265Y-97077262D01*
X131272738Y-96905735D01*
X131080289Y-96758064D01*
X131010263Y-96717634D01*
X130870216Y-96636778D01*
X130870214Y-96636777D01*
X130870212Y-96636776D01*
X130665950Y-96552168D01*
X130646103Y-96543947D01*
X130646101Y-96543946D01*
X130646100Y-96543946D01*
X130411789Y-96481162D01*
X130411787Y-96481161D01*
X130411781Y-96481160D01*
X130171293Y-96449500D01*
X130171288Y-96449500D01*
X129328712Y-96449500D01*
X129328706Y-96449500D01*
X129088218Y-96481160D01*
X128853896Y-96543947D01*
X128629783Y-96636778D01*
X128419712Y-96758063D01*
X128419711Y-96758064D01*
X128227262Y-96905735D01*
X128227260Y-96905736D01*
X128227256Y-96905740D01*
X128055740Y-97077256D01*
X128055736Y-97077260D01*
X128055735Y-97077262D01*
X128003099Y-97145859D01*
X127908063Y-97269712D01*
X127786778Y-97479783D01*
X127714773Y-97653618D01*
X127667820Y-97714808D01*
X127596563Y-97744323D01*
X127520095Y-97734256D01*
X127458905Y-97687303D01*
X127439457Y-97653618D01*
X127422459Y-97612581D01*
X127422459Y-97612580D01*
X127391263Y-97537266D01*
X127386632Y-97526086D01*
X127385145Y-97523861D01*
X127333122Y-97446003D01*
X127277139Y-97362218D01*
X127137782Y-97222861D01*
X127134050Y-97219129D01*
X127134035Y-97219115D01*
X126549141Y-96634221D01*
X126510577Y-96567426D01*
X126505500Y-96528862D01*
X126505500Y-89778706D01*
X133099500Y-89778706D01*
X133099500Y-90021293D01*
X133131160Y-90261781D01*
X133131161Y-90261787D01*
X133131162Y-90261789D01*
X133193946Y-90496100D01*
X133286776Y-90720212D01*
X133408064Y-90930289D01*
X133555735Y-91122738D01*
X133727262Y-91294265D01*
X133919711Y-91441936D01*
X134129788Y-91563224D01*
X134353900Y-91656054D01*
X134588211Y-91718838D01*
X134588217Y-91718838D01*
X134588218Y-91718839D01*
X134653600Y-91727446D01*
X134828712Y-91750500D01*
X135671288Y-91750500D01*
X135911789Y-91718838D01*
X136146100Y-91656054D01*
X136370212Y-91563224D01*
X136580289Y-91441936D01*
X136772738Y-91294265D01*
X136944265Y-91122738D01*
X137091936Y-90930289D01*
X137213224Y-90720212D01*
X137306054Y-90496100D01*
X137368838Y-90261789D01*
X137400500Y-90021288D01*
X137400500Y-89778712D01*
X137368838Y-89538211D01*
X137306054Y-89303900D01*
X137213224Y-89079788D01*
X137091936Y-88869711D01*
X136944265Y-88677262D01*
X136772738Y-88505735D01*
X136580289Y-88358064D01*
X136478919Y-88299538D01*
X136370216Y-88236778D01*
X136370214Y-88236777D01*
X136370212Y-88236776D01*
X136214345Y-88172214D01*
X136146103Y-88143947D01*
X136146101Y-88143946D01*
X136146100Y-88143946D01*
X135911789Y-88081162D01*
X135911787Y-88081161D01*
X135911781Y-88081160D01*
X135671293Y-88049500D01*
X135671288Y-88049500D01*
X134828712Y-88049500D01*
X134828706Y-88049500D01*
X134588218Y-88081160D01*
X134353896Y-88143947D01*
X134129783Y-88236778D01*
X133919712Y-88358063D01*
X133914297Y-88362218D01*
X133727262Y-88505735D01*
X133727260Y-88505736D01*
X133727256Y-88505740D01*
X133555740Y-88677256D01*
X133555736Y-88677260D01*
X133555735Y-88677262D01*
X133462714Y-88798488D01*
X133408063Y-88869712D01*
X133286778Y-89079783D01*
X133193947Y-89303896D01*
X133131160Y-89538218D01*
X133099500Y-89778706D01*
X126505500Y-89778706D01*
X126505500Y-71630138D01*
X126525462Y-71555638D01*
X126580000Y-71501100D01*
X126654500Y-71481138D01*
X126729000Y-71501100D01*
X126759859Y-71524779D01*
X127642634Y-72407554D01*
X127681198Y-72474349D01*
X127681198Y-72551477D01*
X127631160Y-72738218D01*
X127599500Y-72978706D01*
X127599500Y-73221293D01*
X127631160Y-73461781D01*
X127631161Y-73461787D01*
X127631162Y-73461789D01*
X127647426Y-73522488D01*
X127693947Y-73696103D01*
X127786778Y-73920216D01*
X127788971Y-73924014D01*
X127908064Y-74130289D01*
X128055735Y-74322738D01*
X128227262Y-74494265D01*
X128419711Y-74641936D01*
X128629788Y-74763224D01*
X128853900Y-74856054D01*
X129088211Y-74918838D01*
X129088217Y-74918838D01*
X129088218Y-74918839D01*
X129153600Y-74927446D01*
X129328712Y-74950500D01*
X130171288Y-74950500D01*
X130411789Y-74918838D01*
X130646100Y-74856054D01*
X130870212Y-74763224D01*
X131080289Y-74641936D01*
X131272738Y-74494265D01*
X131444265Y-74322738D01*
X131591936Y-74130289D01*
X131713224Y-73920212D01*
X131806054Y-73696100D01*
X131868838Y-73461789D01*
X131900500Y-73221288D01*
X131900500Y-72978712D01*
X131900499Y-72978706D01*
X133099500Y-72978706D01*
X133099500Y-73221293D01*
X133131160Y-73461781D01*
X133131161Y-73461787D01*
X133131162Y-73461789D01*
X133147426Y-73522488D01*
X133193947Y-73696103D01*
X133286778Y-73920216D01*
X133288971Y-73924014D01*
X133408064Y-74130289D01*
X133555735Y-74322738D01*
X133727262Y-74494265D01*
X133919711Y-74641936D01*
X134129788Y-74763224D01*
X134353900Y-74856054D01*
X134588211Y-74918838D01*
X134588217Y-74918838D01*
X134588218Y-74918839D01*
X134653600Y-74927446D01*
X134828712Y-74950500D01*
X135671288Y-74950500D01*
X135911789Y-74918838D01*
X136146100Y-74856054D01*
X136370212Y-74763224D01*
X136580289Y-74641936D01*
X136772738Y-74494265D01*
X136944265Y-74322738D01*
X137091936Y-74130289D01*
X137213224Y-73920212D01*
X137306054Y-73696100D01*
X137368838Y-73461789D01*
X137400500Y-73221288D01*
X137400500Y-72978712D01*
X137368838Y-72738211D01*
X137306054Y-72503900D01*
X137213224Y-72279788D01*
X137091936Y-72069711D01*
X136944265Y-71877262D01*
X136772738Y-71705735D01*
X136580289Y-71558064D01*
X136510263Y-71517634D01*
X136370216Y-71436778D01*
X136370214Y-71436777D01*
X136370212Y-71436776D01*
X136238932Y-71382398D01*
X136146103Y-71343947D01*
X136146101Y-71343946D01*
X136146100Y-71343946D01*
X135911789Y-71281162D01*
X135911787Y-71281161D01*
X135911781Y-71281160D01*
X135671293Y-71249500D01*
X135671288Y-71249500D01*
X134828712Y-71249500D01*
X134828706Y-71249500D01*
X134588218Y-71281160D01*
X134353896Y-71343947D01*
X134129783Y-71436778D01*
X133919712Y-71558063D01*
X133897027Y-71575470D01*
X133727262Y-71705735D01*
X133727260Y-71705736D01*
X133727256Y-71705740D01*
X133555740Y-71877256D01*
X133555736Y-71877260D01*
X133555735Y-71877262D01*
X133480252Y-71975634D01*
X133408063Y-72069712D01*
X133286778Y-72279783D01*
X133193947Y-72503896D01*
X133131160Y-72738218D01*
X133099500Y-72978706D01*
X131900499Y-72978706D01*
X131868838Y-72738211D01*
X131806054Y-72503900D01*
X131713224Y-72279788D01*
X131591936Y-72069711D01*
X131444265Y-71877262D01*
X131272738Y-71705735D01*
X131080289Y-71558064D01*
X131010263Y-71517634D01*
X130870216Y-71436778D01*
X130870214Y-71436777D01*
X130870212Y-71436776D01*
X130738932Y-71382398D01*
X130646103Y-71343947D01*
X130646101Y-71343946D01*
X130646100Y-71343946D01*
X130411789Y-71281162D01*
X130411787Y-71281161D01*
X130411781Y-71281160D01*
X130171293Y-71249500D01*
X130171288Y-71249500D01*
X129376138Y-71249500D01*
X129301638Y-71229538D01*
X129270779Y-71205859D01*
X129047976Y-70983056D01*
X129009412Y-70916261D01*
X129009412Y-70839133D01*
X129047976Y-70772338D01*
X129114771Y-70733774D01*
X129172783Y-70729972D01*
X129201663Y-70733774D01*
X129328712Y-70750500D01*
X130171288Y-70750500D01*
X130411789Y-70718838D01*
X130646100Y-70656054D01*
X130870212Y-70563224D01*
X131080289Y-70441936D01*
X131272738Y-70294265D01*
X131444265Y-70122738D01*
X131591936Y-69930289D01*
X131713224Y-69720212D01*
X131806054Y-69496100D01*
X131868838Y-69261789D01*
X131900500Y-69021288D01*
X131900500Y-68778712D01*
X131868838Y-68538211D01*
X131806054Y-68303900D01*
X131713224Y-68079788D01*
X131591936Y-67869711D01*
X131444265Y-67677262D01*
X131272738Y-67505735D01*
X131271862Y-67504859D01*
X131233298Y-67438064D01*
X131233298Y-67360936D01*
X131271862Y-67294141D01*
X131338657Y-67255577D01*
X131377221Y-67250500D01*
X133040186Y-67250500D01*
X133114686Y-67270462D01*
G37*
G04 #@! TD.AperFunction*
G04 #@! TA.AperFunction,Conductor*
G36*
X150052970Y-82271244D02*
G01*
X150112054Y-82320821D01*
X150125036Y-82343308D01*
X150129432Y-82352734D01*
X150129437Y-82352741D01*
X150259951Y-82539137D01*
X150420862Y-82700048D01*
X150481249Y-82742331D01*
X150607266Y-82830568D01*
X150813504Y-82926739D01*
X150840588Y-82933996D01*
X150907384Y-82972559D01*
X150945948Y-83039353D01*
X150945949Y-83116481D01*
X150907386Y-83183277D01*
X147380674Y-86709989D01*
X147358100Y-86728515D01*
X147336639Y-86742856D01*
X147336638Y-86742856D01*
X147197273Y-86882221D01*
X146092280Y-87987213D01*
X146025485Y-88025777D01*
X145999910Y-88030287D01*
X145953306Y-88034365D01*
X145733507Y-88093260D01*
X145733506Y-88093260D01*
X145733504Y-88093261D01*
X145527266Y-88189432D01*
X145527263Y-88189434D01*
X145527261Y-88189435D01*
X145527258Y-88189437D01*
X145340862Y-88319951D01*
X145179951Y-88480862D01*
X145049437Y-88667258D01*
X145049435Y-88667261D01*
X145049434Y-88667263D01*
X145049432Y-88667266D01*
X144953261Y-88873504D01*
X144953260Y-88873507D01*
X144894365Y-89093306D01*
X144894365Y-89093308D01*
X144874532Y-89320000D01*
X144894365Y-89546692D01*
X144953261Y-89766496D01*
X145049432Y-89972734D01*
X145049435Y-89972738D01*
X145049437Y-89972741D01*
X145179951Y-90159137D01*
X145340862Y-90320048D01*
X145370017Y-90340462D01*
X145527266Y-90450568D01*
X145733504Y-90546739D01*
X145953308Y-90605635D01*
X146180000Y-90625468D01*
X146406692Y-90605635D01*
X146626496Y-90546739D01*
X146832734Y-90450568D01*
X147019139Y-90320047D01*
X147180047Y-90159139D01*
X147310568Y-89972734D01*
X147314961Y-89963312D01*
X147364537Y-89904230D01*
X147437014Y-89877851D01*
X147512970Y-89891244D01*
X147572054Y-89940821D01*
X147585036Y-89963308D01*
X147589432Y-89972734D01*
X147589437Y-89972741D01*
X147719951Y-90159137D01*
X147880862Y-90320048D01*
X147910017Y-90340462D01*
X148067266Y-90450568D01*
X148273504Y-90546739D01*
X148493308Y-90605635D01*
X148720000Y-90625468D01*
X148946692Y-90605635D01*
X149166496Y-90546739D01*
X149372734Y-90450568D01*
X149520009Y-90347446D01*
X149592485Y-90321067D01*
X149605471Y-90320500D01*
X150374529Y-90320500D01*
X150449029Y-90340462D01*
X150459991Y-90347446D01*
X150607266Y-90450568D01*
X150813504Y-90546739D01*
X151033308Y-90605635D01*
X151260000Y-90625468D01*
X151486692Y-90605635D01*
X151706496Y-90546739D01*
X151912734Y-90450568D01*
X152099139Y-90320047D01*
X152260047Y-90159139D01*
X152390568Y-89972734D01*
X152394961Y-89963312D01*
X152444537Y-89904230D01*
X152517014Y-89877851D01*
X152592970Y-89891244D01*
X152652054Y-89940821D01*
X152665036Y-89963308D01*
X152669432Y-89972734D01*
X152772555Y-90120010D01*
X152798933Y-90192484D01*
X152799500Y-90205470D01*
X152799500Y-92148540D01*
X152834290Y-92323448D01*
X152837947Y-92341828D01*
X152837949Y-92341836D01*
X152913368Y-92523916D01*
X153000842Y-92654829D01*
X153022861Y-92687782D01*
X153022864Y-92687785D01*
X153166678Y-92831599D01*
X153205242Y-92898394D01*
X153209752Y-92923971D01*
X153214364Y-92976689D01*
X153214365Y-92976695D01*
X153250987Y-93113368D01*
X153273261Y-93196496D01*
X153369432Y-93402734D01*
X153369435Y-93402738D01*
X153369437Y-93402741D01*
X153499951Y-93589137D01*
X153660862Y-93750048D01*
X153694081Y-93773308D01*
X153847266Y-93880568D01*
X154053504Y-93976739D01*
X154273308Y-94035635D01*
X154500000Y-94055468D01*
X154726692Y-94035635D01*
X154946496Y-93976739D01*
X155152734Y-93880568D01*
X155339139Y-93750047D01*
X155500047Y-93589139D01*
X155630568Y-93402734D01*
X155726739Y-93196496D01*
X155785635Y-92976692D01*
X155805468Y-92750000D01*
X155785635Y-92523308D01*
X155726739Y-92303504D01*
X155630568Y-92097266D01*
X155556090Y-91990899D01*
X155500048Y-91910862D01*
X155339137Y-91749951D01*
X155152741Y-91619437D01*
X155152738Y-91619435D01*
X155152734Y-91619432D01*
X154946496Y-91523261D01*
X154946493Y-91523260D01*
X154910933Y-91513731D01*
X154844139Y-91475166D01*
X154805576Y-91408370D01*
X154800500Y-91369809D01*
X154800500Y-90205470D01*
X154820462Y-90130970D01*
X154827433Y-90120026D01*
X154930568Y-89972734D01*
X155026739Y-89766496D01*
X155033997Y-89739408D01*
X155072557Y-89672616D01*
X155139351Y-89634050D01*
X155216479Y-89634048D01*
X155283275Y-89672610D01*
X158953379Y-93342714D01*
X158991943Y-93409509D01*
X158991943Y-93486637D01*
X158983061Y-93511040D01*
X158963263Y-93553498D01*
X158963260Y-93553505D01*
X158904365Y-93773306D01*
X158897881Y-93847419D01*
X158884532Y-94000000D01*
X158904365Y-94226692D01*
X158963261Y-94446496D01*
X159059432Y-94652734D01*
X159059435Y-94652738D01*
X159059437Y-94652741D01*
X159189951Y-94839137D01*
X159350862Y-95000048D01*
X159409874Y-95041368D01*
X159537266Y-95130568D01*
X159743504Y-95226739D01*
X159963308Y-95285635D01*
X160190000Y-95305468D01*
X160416692Y-95285635D01*
X160636496Y-95226739D01*
X160787531Y-95156309D01*
X160863485Y-95142916D01*
X160935962Y-95169295D01*
X160985539Y-95228378D01*
X160999500Y-95291349D01*
X160999500Y-97523861D01*
X160979538Y-97598361D01*
X160955859Y-97629220D01*
X157629221Y-100955859D01*
X157562426Y-100994423D01*
X157523862Y-100999500D01*
X153401459Y-100999500D01*
X153304811Y-101018723D01*
X153304812Y-101018724D01*
X153208163Y-101037949D01*
X153208158Y-101037950D01*
X153154834Y-101060037D01*
X153154834Y-101060038D01*
X153124488Y-101072607D01*
X153026090Y-101113365D01*
X153026080Y-101113370D01*
X152862219Y-101222860D01*
X152862214Y-101222864D01*
X150222864Y-103862214D01*
X150222860Y-103862219D01*
X150113370Y-104026081D01*
X150113364Y-104026094D01*
X150084239Y-104096410D01*
X150084239Y-104096411D01*
X150037948Y-104208165D01*
X150032827Y-104233914D01*
X150032824Y-104233928D01*
X150030842Y-104243887D01*
X149996722Y-104313058D01*
X149932588Y-104355901D01*
X149855625Y-104360938D01*
X149786454Y-104326818D01*
X149779349Y-104320163D01*
X149639137Y-104179951D01*
X149452741Y-104049437D01*
X149452738Y-104049435D01*
X149452734Y-104049432D01*
X149246496Y-103953261D01*
X149228471Y-103948431D01*
X149026695Y-103894365D01*
X149026690Y-103894364D01*
X148973967Y-103889751D01*
X148901490Y-103863370D01*
X148881597Y-103846677D01*
X145897141Y-100862221D01*
X145897139Y-100862218D01*
X145757782Y-100722861D01*
X145723553Y-100699990D01*
X145593916Y-100613368D01*
X145434022Y-100547139D01*
X145434022Y-100547138D01*
X145434020Y-100547138D01*
X145411836Y-100537949D01*
X145411834Y-100537948D01*
X145411833Y-100537948D01*
X145315188Y-100518724D01*
X145315188Y-100518723D01*
X145218541Y-100499500D01*
X144399500Y-100499500D01*
X144325000Y-100479538D01*
X144270462Y-100425000D01*
X144250500Y-100350500D01*
X144250500Y-94460000D01*
X147274838Y-94460000D01*
X147293451Y-94672747D01*
X147348724Y-94879030D01*
X147438979Y-95072581D01*
X147438982Y-95072585D01*
X147438984Y-95072588D01*
X147561465Y-95247513D01*
X147712486Y-95398534D01*
X147850682Y-95495298D01*
X147887419Y-95521021D01*
X148045983Y-95594961D01*
X148105065Y-95644538D01*
X148131444Y-95717015D01*
X148118051Y-95792971D01*
X148068473Y-95852054D01*
X148045988Y-95865036D01*
X147887419Y-95938979D01*
X147887418Y-95938980D01*
X147887414Y-95938982D01*
X147887411Y-95938984D01*
X147712486Y-96061465D01*
X147561465Y-96212486D01*
X147438984Y-96387411D01*
X147438982Y-96387414D01*
X147438981Y-96387416D01*
X147438979Y-96387419D01*
X147355040Y-96567426D01*
X147348723Y-96580973D01*
X147293451Y-96787251D01*
X147274838Y-97000000D01*
X147293451Y-97212748D01*
X147327721Y-97340644D01*
X147348724Y-97419030D01*
X147438979Y-97612581D01*
X147438984Y-97612588D01*
X147561465Y-97787513D01*
X147712486Y-97938534D01*
X147850682Y-98035298D01*
X147887419Y-98061021D01*
X148080970Y-98151276D01*
X148254667Y-98197817D01*
X148321461Y-98236381D01*
X148909115Y-98824035D01*
X148909122Y-98824043D01*
X148912861Y-98827782D01*
X149052218Y-98967139D01*
X149101739Y-99000228D01*
X149216083Y-99076631D01*
X149254757Y-99092650D01*
X149335460Y-99126078D01*
X149398164Y-99152051D01*
X149494810Y-99171274D01*
X149494811Y-99171275D01*
X149533013Y-99178874D01*
X149591459Y-99190500D01*
X149591460Y-99190500D01*
X149788540Y-99190500D01*
X152614529Y-99190500D01*
X152689029Y-99210462D01*
X152699991Y-99217446D01*
X152847266Y-99320568D01*
X153053504Y-99416739D01*
X153273308Y-99475635D01*
X153500000Y-99495468D01*
X153726692Y-99475635D01*
X153946496Y-99416739D01*
X154152734Y-99320568D01*
X154339139Y-99190047D01*
X154500047Y-99029139D01*
X154630568Y-98842734D01*
X154726739Y-98636496D01*
X154785635Y-98416692D01*
X154805468Y-98190000D01*
X154785635Y-97963308D01*
X154726739Y-97743504D01*
X154630568Y-97537266D01*
X154507999Y-97362218D01*
X154500048Y-97350862D01*
X154339137Y-97189951D01*
X154152741Y-97059437D01*
X154152738Y-97059435D01*
X154152734Y-97059432D01*
X153946496Y-96963261D01*
X153726692Y-96904365D01*
X153726693Y-96904365D01*
X153500000Y-96884532D01*
X153273306Y-96904365D01*
X153053507Y-96963260D01*
X153053506Y-96963260D01*
X153053504Y-96963261D01*
X152847266Y-97059432D01*
X152847263Y-97059434D01*
X152847261Y-97059435D01*
X152847258Y-97059437D01*
X152699991Y-97162554D01*
X152627515Y-97188933D01*
X152614529Y-97189500D01*
X150166138Y-97189500D01*
X150091638Y-97169538D01*
X150060779Y-97145859D01*
X149736381Y-96821461D01*
X149697817Y-96754666D01*
X149651276Y-96580970D01*
X149561021Y-96387419D01*
X149527468Y-96339500D01*
X149438534Y-96212486D01*
X149287513Y-96061465D01*
X149112588Y-95938984D01*
X149112581Y-95938979D01*
X149096238Y-95931358D01*
X148954016Y-95865038D01*
X148894934Y-95815463D01*
X148868555Y-95742986D01*
X148881948Y-95667030D01*
X148931525Y-95607946D01*
X148954011Y-95594963D01*
X149112581Y-95521021D01*
X149213870Y-95450098D01*
X149287513Y-95398534D01*
X149287515Y-95398531D01*
X149287519Y-95398529D01*
X149438529Y-95247519D01*
X149438531Y-95247515D01*
X149438534Y-95247513D01*
X149520421Y-95130564D01*
X149561021Y-95072581D01*
X149651276Y-94879030D01*
X149706549Y-94672747D01*
X149725162Y-94460000D01*
X149706549Y-94247253D01*
X149651276Y-94040970D01*
X149561021Y-93847419D01*
X149535298Y-93810682D01*
X149438534Y-93672486D01*
X149287513Y-93521465D01*
X149112588Y-93398984D01*
X149112585Y-93398982D01*
X149112581Y-93398979D01*
X148919030Y-93308724D01*
X148712747Y-93253451D01*
X148712748Y-93253451D01*
X148500000Y-93234838D01*
X148287251Y-93253451D01*
X148080973Y-93308723D01*
X148080972Y-93308723D01*
X148080970Y-93308724D01*
X147887419Y-93398979D01*
X147887416Y-93398981D01*
X147887414Y-93398982D01*
X147887411Y-93398984D01*
X147712486Y-93521465D01*
X147561465Y-93672486D01*
X147438984Y-93847411D01*
X147438982Y-93847414D01*
X147438981Y-93847416D01*
X147438979Y-93847419D01*
X147351212Y-94035635D01*
X147348723Y-94040973D01*
X147293451Y-94247251D01*
X147293451Y-94247253D01*
X147274838Y-94460000D01*
X144250500Y-94460000D01*
X144250500Y-83149500D01*
X144270462Y-83075000D01*
X144325000Y-83020462D01*
X144399500Y-83000500D01*
X145978537Y-83000500D01*
X145978540Y-83000500D01*
X145978541Y-83000500D01*
X146001872Y-82995858D01*
X146043926Y-82993563D01*
X146179999Y-83005468D01*
X146180000Y-83005468D01*
X146406692Y-82985635D01*
X146626496Y-82926739D01*
X146832734Y-82830568D01*
X147019139Y-82700047D01*
X147180047Y-82539139D01*
X147310568Y-82352734D01*
X147314961Y-82343312D01*
X147364537Y-82284230D01*
X147437014Y-82257851D01*
X147512970Y-82271244D01*
X147572054Y-82320821D01*
X147585036Y-82343308D01*
X147589432Y-82352734D01*
X147589437Y-82352741D01*
X147719951Y-82539137D01*
X147880862Y-82700048D01*
X147941249Y-82742331D01*
X148067266Y-82830568D01*
X148273504Y-82926739D01*
X148493308Y-82985635D01*
X148720000Y-83005468D01*
X148946692Y-82985635D01*
X149166496Y-82926739D01*
X149372734Y-82830568D01*
X149559139Y-82700047D01*
X149720047Y-82539139D01*
X149850568Y-82352734D01*
X149854961Y-82343312D01*
X149904537Y-82284230D01*
X149977014Y-82257851D01*
X150052970Y-82271244D01*
G37*
G04 #@! TD.AperFunction*
G04 #@! TA.AperFunction,Conductor*
G36*
X138408362Y-62020462D02*
G01*
X138439221Y-62044141D01*
X147166678Y-70771598D01*
X147205242Y-70838393D01*
X147209752Y-70863970D01*
X147214365Y-70916692D01*
X147273261Y-71136496D01*
X147369432Y-71342734D01*
X147369435Y-71342738D01*
X147369437Y-71342741D01*
X147499951Y-71529137D01*
X147499953Y-71529139D01*
X147660861Y-71690047D01*
X147847266Y-71820568D01*
X148053504Y-71916739D01*
X148273308Y-71975635D01*
X148500000Y-71995468D01*
X148726692Y-71975635D01*
X148946496Y-71916739D01*
X149152734Y-71820568D01*
X149339139Y-71690047D01*
X149500047Y-71529139D01*
X149630568Y-71342734D01*
X149726739Y-71136496D01*
X149785635Y-70916692D01*
X149805468Y-70690000D01*
X149785635Y-70463308D01*
X149726739Y-70243504D01*
X149724015Y-70237663D01*
X149710621Y-70161711D01*
X149736997Y-70089233D01*
X149796079Y-70039654D01*
X149872035Y-70026259D01*
X149944513Y-70052635D01*
X149964413Y-70069333D01*
X150666677Y-70771597D01*
X150705241Y-70838392D01*
X150709751Y-70863967D01*
X150714364Y-70916690D01*
X150714365Y-70916695D01*
X150732147Y-70983056D01*
X150773261Y-71136496D01*
X150869432Y-71342734D01*
X150869435Y-71342738D01*
X150869437Y-71342741D01*
X150999951Y-71529137D01*
X150999953Y-71529139D01*
X151160861Y-71690047D01*
X151347266Y-71820568D01*
X151553504Y-71916739D01*
X151773308Y-71975635D01*
X152000000Y-71995468D01*
X152226692Y-71975635D01*
X152446496Y-71916739D01*
X152652734Y-71820568D01*
X152839139Y-71690047D01*
X153000047Y-71529139D01*
X153130568Y-71342734D01*
X153226739Y-71136496D01*
X153285635Y-70916692D01*
X153305468Y-70690000D01*
X153285635Y-70463308D01*
X153226739Y-70243504D01*
X153130568Y-70037266D01*
X153000047Y-69850861D01*
X152839139Y-69689953D01*
X152839137Y-69689951D01*
X152652741Y-69559437D01*
X152652738Y-69559435D01*
X152652734Y-69559432D01*
X152446496Y-69463261D01*
X152428471Y-69458431D01*
X152226695Y-69404365D01*
X152226690Y-69404364D01*
X152173967Y-69399751D01*
X152101490Y-69373370D01*
X152081597Y-69356677D01*
X148704141Y-65979221D01*
X148665577Y-65912426D01*
X148660500Y-65873862D01*
X148660500Y-64066455D01*
X148680462Y-63991955D01*
X148735000Y-63937417D01*
X148809500Y-63917455D01*
X148832801Y-63919288D01*
X149045646Y-63953000D01*
X149045651Y-63953000D01*
X151931849Y-63953000D01*
X151931854Y-63953000D01*
X152157745Y-63917222D01*
X152330967Y-63860938D01*
X152407986Y-63856902D01*
X152476708Y-63891917D01*
X152482367Y-63897287D01*
X153455859Y-64870779D01*
X153494423Y-64937574D01*
X153499500Y-64976138D01*
X153499500Y-67598541D01*
X153509179Y-67647201D01*
X153537948Y-67791834D01*
X153537949Y-67791836D01*
X153613367Y-67973912D01*
X153613368Y-67973915D01*
X153648263Y-68026138D01*
X153722861Y-68137782D01*
X153722864Y-68137785D01*
X153870708Y-68285629D01*
X153870713Y-68285633D01*
X154862219Y-69277140D01*
X154862222Y-69277142D01*
X154884810Y-69292235D01*
X154935664Y-69350223D01*
X154950710Y-69425869D01*
X154925917Y-69498904D01*
X154867929Y-69549758D01*
X154865038Y-69551144D01*
X154847266Y-69559432D01*
X154847263Y-69559433D01*
X154847263Y-69559434D01*
X154847258Y-69559437D01*
X154660862Y-69689951D01*
X154499951Y-69850862D01*
X154369437Y-70037258D01*
X154369435Y-70037261D01*
X154369434Y-70037263D01*
X154369432Y-70037266D01*
X154311402Y-70161711D01*
X154273260Y-70243507D01*
X154214365Y-70463306D01*
X154194532Y-70690000D01*
X154207894Y-70842734D01*
X154214365Y-70916692D01*
X154273261Y-71136496D01*
X154369432Y-71342734D01*
X154472555Y-71490010D01*
X154498933Y-71562484D01*
X154499500Y-71575470D01*
X154499500Y-74333860D01*
X154479538Y-74408360D01*
X154455859Y-74439219D01*
X151918400Y-76976678D01*
X151851605Y-77015242D01*
X151826029Y-77019752D01*
X151773309Y-77024364D01*
X151773304Y-77024365D01*
X151553507Y-77083260D01*
X151553506Y-77083260D01*
X151553504Y-77083261D01*
X151347266Y-77179432D01*
X151347263Y-77179434D01*
X151347261Y-77179435D01*
X151347258Y-77179437D01*
X151160862Y-77309951D01*
X150999951Y-77470862D01*
X150869437Y-77657258D01*
X150869435Y-77657261D01*
X150869434Y-77657263D01*
X150869432Y-77657266D01*
X150773261Y-77863504D01*
X150773260Y-77863507D01*
X150714365Y-78083306D01*
X150694532Y-78310000D01*
X150714365Y-78536693D01*
X150755729Y-78691067D01*
X150773261Y-78756496D01*
X150869432Y-78962734D01*
X150972555Y-79110010D01*
X150998933Y-79182484D01*
X150999500Y-79195470D01*
X150999500Y-80309091D01*
X150979538Y-80383591D01*
X150925000Y-80438129D01*
X150889065Y-80453014D01*
X150813504Y-80473261D01*
X150607266Y-80569432D01*
X150607263Y-80569434D01*
X150607261Y-80569435D01*
X150607258Y-80569437D01*
X150420862Y-80699951D01*
X150259951Y-80860862D01*
X150129437Y-81047258D01*
X150129431Y-81047268D01*
X150125038Y-81056689D01*
X150075460Y-81115771D01*
X150002982Y-81142148D01*
X149927026Y-81128753D01*
X149867944Y-81079175D01*
X149854962Y-81056689D01*
X149850568Y-81047266D01*
X149720047Y-80860861D01*
X149559139Y-80699953D01*
X149559135Y-80699949D01*
X149554158Y-80695773D01*
X149555899Y-80693697D01*
X149514440Y-80644255D01*
X149500500Y-80581329D01*
X149500500Y-79195470D01*
X149520462Y-79120970D01*
X149527433Y-79110026D01*
X149630568Y-78962734D01*
X149726739Y-78756496D01*
X149785635Y-78536692D01*
X149805468Y-78310000D01*
X149785635Y-78083308D01*
X149726739Y-77863504D01*
X149630568Y-77657266D01*
X149531674Y-77516029D01*
X149500048Y-77470862D01*
X149339137Y-77309951D01*
X149152741Y-77179437D01*
X149152738Y-77179435D01*
X149152734Y-77179432D01*
X148946496Y-77083261D01*
X148726692Y-77024365D01*
X148726693Y-77024365D01*
X148500000Y-77004532D01*
X148273306Y-77024365D01*
X148053507Y-77083260D01*
X148053506Y-77083260D01*
X148053504Y-77083261D01*
X147847266Y-77179432D01*
X147847263Y-77179434D01*
X147847261Y-77179435D01*
X147847258Y-77179437D01*
X147699991Y-77282554D01*
X147627515Y-77308933D01*
X147614529Y-77309500D01*
X145885471Y-77309500D01*
X145810971Y-77289538D01*
X145800009Y-77282554D01*
X145652741Y-77179437D01*
X145652738Y-77179435D01*
X145652734Y-77179432D01*
X145446496Y-77083261D01*
X145226692Y-77024365D01*
X145226693Y-77024365D01*
X145000000Y-77004532D01*
X144773306Y-77024365D01*
X144553507Y-77083260D01*
X144553506Y-77083260D01*
X144553504Y-77083261D01*
X144347266Y-77179432D01*
X144347263Y-77179434D01*
X144347261Y-77179435D01*
X144347258Y-77179437D01*
X144160862Y-77309951D01*
X144004859Y-77465955D01*
X143938064Y-77504519D01*
X143860936Y-77504519D01*
X143794141Y-77465955D01*
X143755577Y-77399160D01*
X143750500Y-77360596D01*
X143750500Y-71855910D01*
X143750501Y-71855889D01*
X143750501Y-71651459D01*
X143726805Y-71532333D01*
X143712052Y-71458165D01*
X143655057Y-71320568D01*
X143636634Y-71276090D01*
X143636629Y-71276080D01*
X143543361Y-71136496D01*
X143527140Y-71112219D01*
X138035633Y-65620713D01*
X138035632Y-65620711D01*
X137887785Y-65472864D01*
X137887784Y-65472863D01*
X137887782Y-65472861D01*
X137854829Y-65450842D01*
X137723916Y-65363368D01*
X137575881Y-65302051D01*
X137541836Y-65287949D01*
X137541835Y-65287948D01*
X137445188Y-65268724D01*
X137445188Y-65268723D01*
X137348541Y-65249500D01*
X128355910Y-65249500D01*
X128355890Y-65249499D01*
X128348541Y-65249499D01*
X128151460Y-65249499D01*
X127958167Y-65287947D01*
X127776090Y-65363365D01*
X127776080Y-65363370D01*
X127612220Y-65472859D01*
X127612215Y-65472863D01*
X126759859Y-66325220D01*
X126693064Y-66363784D01*
X126615936Y-66363784D01*
X126549141Y-66325220D01*
X126510577Y-66258425D01*
X126505500Y-66219861D01*
X126505500Y-64154500D01*
X126525462Y-64080000D01*
X126580000Y-64025462D01*
X126654500Y-64005500D01*
X129248643Y-64005500D01*
X129302649Y-64002605D01*
X129302678Y-64002603D01*
X129329020Y-63999771D01*
X129329026Y-63999770D01*
X129329036Y-63999769D01*
X129337856Y-63998339D01*
X129382440Y-63991116D01*
X129382443Y-63991114D01*
X129382448Y-63991114D01*
X129517257Y-63940832D01*
X129578580Y-63907347D01*
X129693761Y-63821123D01*
X130321123Y-63193761D01*
X130357288Y-63153500D01*
X130373922Y-63132858D01*
X130405567Y-63088974D01*
X130465338Y-62958097D01*
X130485023Y-62891058D01*
X130485024Y-62891054D01*
X130485025Y-62891048D01*
X130485026Y-62891044D01*
X130505498Y-62748652D01*
X130505500Y-62748634D01*
X130505500Y-62149500D01*
X130525462Y-62075000D01*
X130580000Y-62020462D01*
X130654500Y-62000500D01*
X138333862Y-62000500D01*
X138408362Y-62020462D01*
G37*
G04 #@! TD.AperFunction*
G04 #@! TA.AperFunction,Conductor*
G36*
X129315677Y-58519685D02*
G01*
X129336319Y-58536319D01*
X129963681Y-59163681D01*
X129997166Y-59225004D01*
X130000000Y-59251362D01*
X130000000Y-62748638D01*
X129980315Y-62815677D01*
X129963681Y-62836319D01*
X129336319Y-63463681D01*
X129274996Y-63497166D01*
X129248638Y-63500000D01*
X126000000Y-63500000D01*
X126000000Y-64199999D01*
X126000000Y-96748638D01*
X125980315Y-96815677D01*
X125963681Y-96836319D01*
X125336319Y-97463681D01*
X125274996Y-97497166D01*
X125248638Y-97500000D01*
X114751362Y-97500000D01*
X114684323Y-97480315D01*
X114663681Y-97463681D01*
X114036319Y-96836319D01*
X114002834Y-96774996D01*
X114000000Y-96748638D01*
X114000000Y-62691726D01*
X114019685Y-62624687D01*
X114072489Y-62578932D01*
X114141647Y-62568988D01*
X114176063Y-62579186D01*
X114232958Y-62605508D01*
X114258024Y-62617105D01*
X114258025Y-62617105D01*
X114258031Y-62617108D01*
X114602330Y-62733116D01*
X114957153Y-62811218D01*
X115318341Y-62850500D01*
X115318347Y-62850500D01*
X115681653Y-62850500D01*
X115681659Y-62850500D01*
X116042847Y-62811218D01*
X116397670Y-62733116D01*
X116741969Y-62617108D01*
X117071708Y-62464555D01*
X117383019Y-62277245D01*
X117672254Y-62057375D01*
X117936021Y-61807521D01*
X118171227Y-61530614D01*
X118375117Y-61229900D01*
X118545298Y-60908905D01*
X118679775Y-60571391D01*
X118776973Y-60221316D01*
X118835751Y-59862785D01*
X118855421Y-59500000D01*
X118835751Y-59137215D01*
X118776973Y-58778684D01*
X118743236Y-58657174D01*
X118744268Y-58587312D01*
X118782906Y-58529098D01*
X118846884Y-58501015D01*
X118862716Y-58500000D01*
X129248638Y-58500000D01*
X129315677Y-58519685D01*
G37*
G04 #@! TD.AperFunction*
G04 #@! TA.AperFunction,Conductor*
G36*
X125315677Y-99519685D02*
G01*
X125336319Y-99536319D01*
X125463181Y-99663181D01*
X125496666Y-99724504D01*
X125499500Y-99750862D01*
X125499500Y-116098541D01*
X125499500Y-116098543D01*
X125499499Y-116098543D01*
X125537947Y-116291829D01*
X125537950Y-116291839D01*
X125613364Y-116473907D01*
X125613371Y-116473920D01*
X125722860Y-116637781D01*
X125722863Y-116637785D01*
X125866537Y-116781459D01*
X125866559Y-116781479D01*
X125963681Y-116878601D01*
X125997166Y-116939924D01*
X126000000Y-116966282D01*
X126000000Y-120000000D01*
X131248638Y-120000000D01*
X131315677Y-120019685D01*
X131336319Y-120036319D01*
X131963681Y-120663681D01*
X131997166Y-120725004D01*
X132000000Y-120751362D01*
X132000000Y-137748638D01*
X131980315Y-137815677D01*
X131963681Y-137836319D01*
X131336319Y-138463681D01*
X131274996Y-138497166D01*
X131248638Y-138500000D01*
X118862716Y-138500000D01*
X118795677Y-138480315D01*
X118749922Y-138427511D01*
X118739978Y-138358353D01*
X118743236Y-138342826D01*
X118748348Y-138324410D01*
X118776973Y-138221316D01*
X118835751Y-137862785D01*
X118855421Y-137500000D01*
X118835751Y-137137215D01*
X118776973Y-136778684D01*
X118759097Y-136714303D01*
X118679778Y-136428618D01*
X118679773Y-136428603D01*
X118545299Y-136091098D01*
X118545298Y-136091095D01*
X118375117Y-135770100D01*
X118171227Y-135469386D01*
X117936021Y-135192479D01*
X117672254Y-134942625D01*
X117672244Y-134942617D01*
X117603635Y-134890462D01*
X117383019Y-134722755D01*
X117071708Y-134535445D01*
X117071707Y-134535444D01*
X117071703Y-134535442D01*
X117071699Y-134535440D01*
X116741979Y-134382896D01*
X116741974Y-134382894D01*
X116741969Y-134382892D01*
X116574143Y-134326344D01*
X116397669Y-134266883D01*
X116042845Y-134188781D01*
X115681660Y-134149500D01*
X115681659Y-134149500D01*
X115318341Y-134149500D01*
X115318339Y-134149500D01*
X114957154Y-134188781D01*
X114602330Y-134266883D01*
X114258031Y-134382892D01*
X114176066Y-134420813D01*
X114106957Y-134431096D01*
X114043259Y-134402384D01*
X114005196Y-134343793D01*
X114000000Y-134308273D01*
X114000000Y-100251362D01*
X114019685Y-100184323D01*
X114036319Y-100163681D01*
X114663681Y-99536319D01*
X114725004Y-99502834D01*
X114751362Y-99500000D01*
X125248638Y-99500000D01*
X125315677Y-99519685D01*
G37*
G04 #@! TD.AperFunction*
M02*
