%TF.GenerationSoftware,KiCad,Pcbnew,7.0.1*%
%TF.CreationDate,2024-01-20T22:06:59+00:00*%
%TF.ProjectId,PowerDelivery,506f7765-7244-4656-9c69-766572792e6b,rev?*%
%TF.SameCoordinates,Original*%
%TF.FileFunction,Copper,L2,Bot*%
%TF.FilePolarity,Positive*%
%FSLAX46Y46*%
G04 Gerber Fmt 4.6, Leading zero omitted, Abs format (unit mm)*
G04 Created by KiCad (PCBNEW 7.0.1) date 2024-01-20 22:06:59*
%MOMM*%
%LPD*%
G01*
G04 APERTURE LIST*
G04 Aperture macros list*
%AMRoundRect*
0 Rectangle with rounded corners*
0 $1 Rounding radius*
0 $2 $3 $4 $5 $6 $7 $8 $9 X,Y pos of 4 corners*
0 Add a 4 corners polygon primitive as box body*
4,1,4,$2,$3,$4,$5,$6,$7,$8,$9,$2,$3,0*
0 Add four circle primitives for the rounded corners*
1,1,$1+$1,$2,$3*
1,1,$1+$1,$4,$5*
1,1,$1+$1,$6,$7*
1,1,$1+$1,$8,$9*
0 Add four rect primitives between the rounded corners*
20,1,$1+$1,$2,$3,$4,$5,0*
20,1,$1+$1,$4,$5,$6,$7,0*
20,1,$1+$1,$6,$7,$8,$9,0*
20,1,$1+$1,$8,$9,$2,$3,0*%
G04 Aperture macros list end*
%TA.AperFunction,ComponentPad*%
%ADD10RoundRect,0.250001X-1.099999X-1.399999X1.099999X-1.399999X1.099999X1.399999X-1.099999X1.399999X0*%
%TD*%
%TA.AperFunction,ComponentPad*%
%ADD11O,2.700000X3.300000*%
%TD*%
%TA.AperFunction,ComponentPad*%
%ADD12C,2.800000*%
%TD*%
%TA.AperFunction,ComponentPad*%
%ADD13C,2.400000*%
%TD*%
%TA.AperFunction,ComponentPad*%
%ADD14RoundRect,0.250001X1.399999X-1.099999X1.399999X1.099999X-1.399999X1.099999X-1.399999X-1.099999X0*%
%TD*%
%TA.AperFunction,ComponentPad*%
%ADD15O,3.300000X2.700000*%
%TD*%
%TA.AperFunction,ComponentPad*%
%ADD16R,1.905000X2.000000*%
%TD*%
%TA.AperFunction,ComponentPad*%
%ADD17O,1.905000X2.000000*%
%TD*%
%TA.AperFunction,ViaPad*%
%ADD18C,0.800000*%
%TD*%
%TA.AperFunction,ViaPad*%
%ADD19C,5.000000*%
%TD*%
%TA.AperFunction,Conductor*%
%ADD20C,0.500000*%
%TD*%
%TA.AperFunction,Conductor*%
%ADD21C,3.000000*%
%TD*%
%TA.AperFunction,Conductor*%
%ADD22C,4.000000*%
%TD*%
%TA.AperFunction,Conductor*%
%ADD23C,1.905000*%
%TD*%
G04 APERTURE END LIST*
D10*
%TO.P,J1,1,Pin_1*%
%TO.N,current_sense_out*%
X150300000Y-130250000D03*
D11*
%TO.P,J1,2,Pin_2*%
%TO.N,voltage_sense_out*%
X154500000Y-130250000D03*
%TO.P,J1,3,Pin_3*%
%TO.N,mc_trigger*%
X158700000Y-130250000D03*
%TO.P,J1,4,Pin_4*%
%TO.N,fault_signal*%
X150300000Y-135750000D03*
%TO.P,J1,5,Pin_5*%
%TO.N,GND*%
X154500000Y-135750000D03*
%TO.P,J1,6,Pin_6*%
%TO.N,+3.3V*%
X158700000Y-135750000D03*
%TD*%
D12*
%TO.P,J3,1,Pin_1*%
%TO.N,load*%
X132305000Y-65345000D03*
%TO.P,J3,2,Pin_2*%
X132305000Y-74845000D03*
%TO.P,J3,3,Pin_3*%
X132305000Y-84345000D03*
%TO.P,J3,4,Pin_4*%
X132305000Y-93845000D03*
%TO.P,J3,5,Pin_5*%
%TO.N,+12V*%
X132305000Y-103345000D03*
%TO.P,J3,6,Pin_6*%
X132305000Y-112845000D03*
%TO.P,J3,7,Pin_7*%
X132305000Y-122345000D03*
%TO.P,J3,8,Pin_8*%
X132305000Y-131845000D03*
%TD*%
D13*
%TO.P,R6,1*%
%TO.N,load*%
X139700000Y-85090000D03*
%TO.P,R6,2*%
%TO.N,Net-(D1-K)*%
X160020000Y-85090000D03*
%TD*%
D14*
%TO.P,J2,1,Pin_1*%
%TO.N,+3.3V*%
X186250000Y-121600000D03*
D15*
%TO.P,J2,2,Pin_2*%
X186250000Y-117400000D03*
%TO.P,J2,3,Pin_3*%
%TO.N,GND*%
X186250000Y-113200000D03*
%TO.P,J2,4,Pin_4*%
%TO.N,unconnected-(J2-Pin_4-Pad4)*%
X186250000Y-109000000D03*
%TO.P,J2,5,Pin_5*%
%TO.N,GND*%
X186250000Y-104800000D03*
%TO.P,J2,6,Pin_6*%
%TO.N,unconnected-(J2-Pin_6-Pad6)*%
X186250000Y-100600000D03*
%TO.P,J2,7,Pin_7*%
%TO.N,GND*%
X186250000Y-96400000D03*
%TO.P,J2,8,Pin_8*%
%TO.N,unconnected-(J2-Pin_8-Pad8)*%
X186250000Y-92200000D03*
%TO.P,J2,9,Pin_9*%
%TO.N,unconnected-(J2-Pin_9-Pad9)*%
X186250000Y-88000000D03*
%TO.P,J2,10,Pin_10*%
%TO.N,+12V*%
X186250000Y-83800000D03*
%TO.P,J2,11,Pin_11*%
X186250000Y-79600000D03*
%TO.P,J2,12,Pin_12*%
%TO.N,+3.3V*%
X186250000Y-75400000D03*
%TO.P,J2,13,Pin_13*%
X191750000Y-121600000D03*
%TO.P,J2,14,Pin_14*%
%TO.N,-12V*%
X191750000Y-117400000D03*
%TO.P,J2,15,Pin_15*%
%TO.N,GND*%
X191750000Y-113200000D03*
%TO.P,J2,16,Pin_16*%
%TO.N,unconnected-(J2-Pin_16-Pad16)*%
X191750000Y-109000000D03*
%TO.P,J2,17,Pin_17*%
%TO.N,GND*%
X191750000Y-104800000D03*
%TO.P,J2,18,Pin_18*%
X191750000Y-100600000D03*
%TO.P,J2,19,Pin_19*%
X191750000Y-96400000D03*
%TO.P,J2,20,Pin_20*%
%TO.N,unconnected-(J2-Pin_20-Pad20)*%
X191750000Y-92200000D03*
%TO.P,J2,21,Pin_21*%
%TO.N,unconnected-(J2-Pin_21-Pad21)*%
X191750000Y-88000000D03*
%TO.P,J2,22,Pin_22*%
%TO.N,unconnected-(J2-Pin_22-Pad22)*%
X191750000Y-83800000D03*
%TO.P,J2,23,Pin_23*%
%TO.N,unconnected-(J2-Pin_23-Pad23)*%
X191750000Y-79600000D03*
%TO.P,J2,24,Pin_24*%
%TO.N,GND*%
X191750000Y-75400000D03*
%TD*%
D16*
%TO.P,U4,1,GATE*%
%TO.N,Net-(U4-GATE)*%
X167640000Y-92710000D03*
D17*
%TO.P,U4,2,DRAIN*%
%TO.N,Net-(D1-K)*%
X170180000Y-92710000D03*
%TO.P,U4,3,SOURCE*%
%TO.N,GND*%
X172720000Y-92710000D03*
%TD*%
D18*
%TO.N,GND*%
X168910000Y-82550000D03*
X166370000Y-85090000D03*
X171450000Y-85090000D03*
X139700000Y-93980000D03*
X171450000Y-82550000D03*
X173990000Y-74930000D03*
X173990000Y-82550000D03*
X173990000Y-80010000D03*
D19*
X115500000Y-137500000D03*
D18*
X153650000Y-113210000D03*
X173990000Y-85090000D03*
X168910000Y-80010000D03*
X173990000Y-77470000D03*
X168910000Y-85090000D03*
X166370000Y-116840000D03*
X151130000Y-116840000D03*
X171450000Y-80010000D03*
X166370000Y-80010000D03*
X166370000Y-82550000D03*
X144780000Y-63500000D03*
X160020000Y-111760000D03*
X166370000Y-74930000D03*
D19*
X193500000Y-59500000D03*
D18*
X166370000Y-77470000D03*
D19*
X193500000Y-137500000D03*
D18*
X144780000Y-74930000D03*
D19*
X115500000Y-59500000D03*
D18*
%TO.N,Net-(D1-A)*%
X158750000Y-92710000D03*
X157480000Y-105410000D03*
%TO.N,current_sense_out*%
X157480000Y-77470000D03*
X162560000Y-77470000D03*
%TO.N,voltage_sense_out*%
X157480000Y-66040000D03*
X162560000Y-66040000D03*
%TO.N,mc_trigger*%
X142240000Y-92710000D03*
%TO.N,+12V*%
X157480000Y-63500000D03*
X147320000Y-104140000D03*
X144780000Y-93980000D03*
X162560000Y-102870000D03*
X144780000Y-66040000D03*
X157480000Y-74930000D03*
%TO.N,-12V*%
X152400000Y-78740000D03*
X157480000Y-107950000D03*
X152400000Y-67310000D03*
%TO.N,load*%
X144780000Y-77470000D03*
%TD*%
D20*
%TO.N,+12V*%
X156330000Y-76080000D02*
X157480000Y-74930000D01*
X156330000Y-86330000D02*
X156330000Y-76080000D01*
X162560000Y-92560000D02*
X156330000Y-86330000D01*
X162560000Y-102870000D02*
X162560000Y-92560000D01*
D21*
%TO.N,Net-(D1-K)*%
X168787500Y-89000000D02*
X170180000Y-90392500D01*
D22*
X163930000Y-89000000D02*
X168787500Y-89000000D01*
X160020000Y-85090000D02*
X163930000Y-89000000D01*
D23*
X170180000Y-90392500D02*
X170180000Y-92710000D01*
D20*
%TO.N,Net-(D1-A)*%
X158750000Y-104140000D02*
X157480000Y-105410000D01*
X158750000Y-92710000D02*
X158750000Y-104140000D01*
%TO.N,current_sense_out*%
X157480000Y-77470000D02*
X162560000Y-77470000D01*
%TO.N,voltage_sense_out*%
X157480000Y-66040000D02*
X162560000Y-66040000D01*
%TO.N,mc_trigger*%
X142240000Y-92710000D02*
X142240000Y-109576346D01*
X158700000Y-126036346D02*
X158700000Y-130250000D01*
X142240000Y-109576346D02*
X158700000Y-126036346D01*
%TO.N,+12V*%
X144780000Y-66040000D02*
X154940000Y-66040000D01*
X157480000Y-68580000D02*
X154940000Y-66040000D01*
X145930000Y-67190000D02*
X145930000Y-92830000D01*
X144780000Y-66040000D02*
X145930000Y-67190000D01*
X144780000Y-101600000D02*
X147320000Y-104140000D01*
X157480000Y-74930000D02*
X157480000Y-68580000D01*
X145930000Y-92830000D02*
X144780000Y-93980000D01*
X144780000Y-93980000D02*
X144780000Y-101600000D01*
X154940000Y-66040000D02*
X157480000Y-63500000D01*
%TO.N,-12V*%
X158410000Y-107020000D02*
X174339848Y-107020000D01*
X152400000Y-67310000D02*
X152400000Y-78740000D01*
X189650000Y-115300000D02*
X191750000Y-117400000D01*
X157480000Y-107950000D02*
X158410000Y-107020000D01*
X157480000Y-107950000D02*
X152400000Y-102870000D01*
X152400000Y-102870000D02*
X152400000Y-78740000D01*
X174339848Y-107020000D02*
X182619848Y-115300000D01*
X182619848Y-115300000D02*
X189650000Y-115300000D01*
%TO.N,load*%
X144780000Y-80010000D02*
X139700000Y-85090000D01*
X144780000Y-77470000D02*
X144780000Y-80010000D01*
%TD*%
%TA.AperFunction,Conductor*%
%TO.N,GND*%
G36*
X118395624Y-56011930D02*
G01*
X118444076Y-56044467D01*
X118476313Y-56093118D01*
X118487389Y-56150420D01*
X117995279Y-135872112D01*
X118011829Y-136003560D01*
X118028186Y-136065884D01*
X118078315Y-136188507D01*
X118125151Y-136250000D01*
X118158584Y-136293896D01*
X118204004Y-136339597D01*
X118308896Y-136420514D01*
X118431209Y-136471399D01*
X118493430Y-136488140D01*
X118594099Y-136501446D01*
X118624766Y-136505500D01*
X118624768Y-136505500D01*
X134876000Y-136505500D01*
X134876001Y-136505500D01*
X134887283Y-136504014D01*
X135006834Y-136488275D01*
X135068834Y-136471662D01*
X135190750Y-136421163D01*
X135295442Y-136340829D01*
X135340829Y-136295442D01*
X135421163Y-136190750D01*
X135451447Y-136117637D01*
X148449500Y-136117637D01*
X148464322Y-136320155D01*
X148523220Y-136584555D01*
X148619983Y-136837554D01*
X148687630Y-136958086D01*
X148752559Y-137073777D01*
X148918112Y-137288177D01*
X149113119Y-137476186D01*
X149195927Y-137535430D01*
X149333420Y-137633799D01*
X149574325Y-137757656D01*
X149830691Y-137845117D01*
X149830693Y-137845117D01*
X149830695Y-137845118D01*
X150097067Y-137894319D01*
X150367765Y-137904212D01*
X150637018Y-137874586D01*
X150899088Y-137806072D01*
X151148390Y-137700130D01*
X151379610Y-137559018D01*
X151587820Y-137385745D01*
X151768582Y-137184002D01*
X151918044Y-136958090D01*
X152033020Y-136712824D01*
X152111060Y-136453431D01*
X152140999Y-136250000D01*
X152659690Y-136250000D01*
X152664819Y-136320085D01*
X152723701Y-136584411D01*
X152820440Y-136837344D01*
X152952977Y-137073500D01*
X153118482Y-137287838D01*
X153313442Y-137475801D01*
X153533684Y-137633372D01*
X153774521Y-137757194D01*
X153999999Y-137834117D01*
X154000000Y-137834117D01*
X154000000Y-136250000D01*
X155000000Y-136250000D01*
X155000000Y-137831459D01*
X155098926Y-137805597D01*
X155348160Y-137699683D01*
X155579315Y-137558612D01*
X155787475Y-137385381D01*
X155968183Y-137183697D01*
X156117605Y-136957845D01*
X156232550Y-136712647D01*
X156310570Y-136453317D01*
X156340493Y-136250000D01*
X155000000Y-136250000D01*
X154000000Y-136250000D01*
X152659690Y-136250000D01*
X152140999Y-136250000D01*
X152150500Y-136185439D01*
X152150500Y-136117637D01*
X156849500Y-136117637D01*
X156864322Y-136320155D01*
X156923220Y-136584555D01*
X157019983Y-136837554D01*
X157087630Y-136958086D01*
X157152559Y-137073777D01*
X157318112Y-137288177D01*
X157513119Y-137476186D01*
X157595927Y-137535430D01*
X157733420Y-137633799D01*
X157974325Y-137757656D01*
X158230691Y-137845117D01*
X158230693Y-137845117D01*
X158230695Y-137845118D01*
X158497067Y-137894319D01*
X158767765Y-137904212D01*
X159037018Y-137874586D01*
X159299088Y-137806072D01*
X159548390Y-137700130D01*
X159779610Y-137559018D01*
X159987820Y-137385745D01*
X160168582Y-137184002D01*
X160318044Y-136958090D01*
X160433020Y-136712824D01*
X160511060Y-136453431D01*
X160550500Y-136185439D01*
X160550500Y-135382369D01*
X160535677Y-135179844D01*
X160476780Y-134915447D01*
X160427721Y-134787176D01*
X160380016Y-134662445D01*
X160312505Y-134542154D01*
X160247441Y-134426223D01*
X160081888Y-134211823D01*
X159886881Y-134023814D01*
X159858758Y-134003693D01*
X159666579Y-133866200D01*
X159425674Y-133742343D01*
X159169308Y-133654882D01*
X158902933Y-133605681D01*
X158632234Y-133595788D01*
X158632231Y-133595788D01*
X158362982Y-133625414D01*
X158100909Y-133693928D01*
X157851610Y-133799869D01*
X157620393Y-133940979D01*
X157412180Y-134114254D01*
X157324759Y-134211823D01*
X157231418Y-134315998D01*
X157158494Y-134426223D01*
X157081954Y-134541913D01*
X156966980Y-134787173D01*
X156888939Y-135046573D01*
X156849500Y-135314561D01*
X156849500Y-136117637D01*
X152150500Y-136117637D01*
X152150500Y-135382369D01*
X152140812Y-135249999D01*
X152659506Y-135249999D01*
X152659507Y-135250000D01*
X154000000Y-135250000D01*
X154000000Y-133668541D01*
X153999999Y-133668540D01*
X153901073Y-133694402D01*
X153651839Y-133800316D01*
X153420684Y-133941387D01*
X153212524Y-134114618D01*
X153031816Y-134316302D01*
X152882394Y-134542154D01*
X152767449Y-134787352D01*
X152689429Y-135046682D01*
X152659506Y-135249999D01*
X152140812Y-135249999D01*
X152135677Y-135179844D01*
X152076780Y-134915447D01*
X152027721Y-134787176D01*
X151980016Y-134662445D01*
X151912505Y-134542154D01*
X151847441Y-134426223D01*
X151681888Y-134211823D01*
X151486881Y-134023814D01*
X151458758Y-134003693D01*
X151266579Y-133866200D01*
X151025674Y-133742343D01*
X150801551Y-133665882D01*
X155000000Y-133665882D01*
X155000000Y-135250000D01*
X156340310Y-135250000D01*
X156335180Y-135179914D01*
X156276298Y-134915588D01*
X156179559Y-134662655D01*
X156047022Y-134426499D01*
X155881517Y-134212161D01*
X155686557Y-134024198D01*
X155466315Y-133866627D01*
X155225478Y-133742805D01*
X155000000Y-133665882D01*
X150801551Y-133665882D01*
X150769308Y-133654882D01*
X150502933Y-133605681D01*
X150232234Y-133595788D01*
X150232231Y-133595788D01*
X149962982Y-133625414D01*
X149700909Y-133693928D01*
X149451610Y-133799869D01*
X149220393Y-133940979D01*
X149012180Y-134114254D01*
X148924759Y-134211823D01*
X148831418Y-134315998D01*
X148758494Y-134426223D01*
X148681954Y-134541913D01*
X148566980Y-134787173D01*
X148488939Y-135046573D01*
X148449500Y-135314561D01*
X148449500Y-136117637D01*
X135451447Y-136117637D01*
X135471662Y-136068834D01*
X135488275Y-136006834D01*
X135505500Y-135876000D01*
X135505500Y-131700013D01*
X148449500Y-131700013D01*
X148460000Y-131802793D01*
X148460000Y-131802795D01*
X148460001Y-131802797D01*
X148515186Y-131969334D01*
X148607289Y-132118655D01*
X148731345Y-132242711D01*
X148880666Y-132334814D01*
X149047203Y-132389999D01*
X149085748Y-132393936D01*
X149149987Y-132400500D01*
X149149992Y-132400500D01*
X151450008Y-132400500D01*
X151450013Y-132400500D01*
X151507112Y-132394666D01*
X151552797Y-132389999D01*
X151719334Y-132334814D01*
X151868655Y-132242711D01*
X151992711Y-132118655D01*
X152084814Y-131969334D01*
X152139999Y-131802797D01*
X152144666Y-131757112D01*
X152150500Y-131700013D01*
X152150500Y-130617637D01*
X152649500Y-130617637D01*
X152664322Y-130820155D01*
X152723220Y-131084555D01*
X152819983Y-131337554D01*
X152952561Y-131573780D01*
X153118108Y-131788172D01*
X153118112Y-131788177D01*
X153313119Y-131976186D01*
X153395927Y-132035430D01*
X153533420Y-132133799D01*
X153774325Y-132257656D01*
X154030691Y-132345117D01*
X154030693Y-132345117D01*
X154030695Y-132345118D01*
X154297067Y-132394319D01*
X154567765Y-132404212D01*
X154837018Y-132374586D01*
X155099088Y-132306072D01*
X155348390Y-132200130D01*
X155579610Y-132059018D01*
X155787820Y-131885745D01*
X155968582Y-131684002D01*
X156118044Y-131458090D01*
X156233020Y-131212824D01*
X156311060Y-130953431D01*
X156350500Y-130685439D01*
X156350500Y-129882369D01*
X156335677Y-129679844D01*
X156276780Y-129415447D01*
X156227721Y-129287176D01*
X156180016Y-129162445D01*
X156140874Y-129092703D01*
X156047441Y-128926223D01*
X155881888Y-128711823D01*
X155686881Y-128523814D01*
X155658758Y-128503693D01*
X155466579Y-128366200D01*
X155225674Y-128242343D01*
X154969308Y-128154882D01*
X154702933Y-128105681D01*
X154432234Y-128095788D01*
X154432231Y-128095788D01*
X154162982Y-128125414D01*
X153900909Y-128193928D01*
X153651610Y-128299869D01*
X153420393Y-128440979D01*
X153212180Y-128614254D01*
X153124759Y-128711823D01*
X153031418Y-128815998D01*
X152958494Y-128926223D01*
X152881954Y-129041913D01*
X152766980Y-129287173D01*
X152688939Y-129546573D01*
X152649500Y-129814561D01*
X152649500Y-130617637D01*
X152150500Y-130617637D01*
X152150500Y-128799987D01*
X152141493Y-128711827D01*
X152139999Y-128697203D01*
X152084814Y-128530666D01*
X151992711Y-128381345D01*
X151868655Y-128257289D01*
X151719334Y-128165186D01*
X151552797Y-128110001D01*
X151552795Y-128110000D01*
X151552793Y-128110000D01*
X151450013Y-128099500D01*
X151450008Y-128099500D01*
X149149992Y-128099500D01*
X149149987Y-128099500D01*
X149047206Y-128110000D01*
X148880665Y-128165186D01*
X148731346Y-128257288D01*
X148607288Y-128381346D01*
X148515186Y-128530665D01*
X148460000Y-128697206D01*
X148449500Y-128799987D01*
X148449500Y-131700013D01*
X135505500Y-131700013D01*
X135505500Y-98654500D01*
X135516842Y-98597480D01*
X135549141Y-98549141D01*
X135597480Y-98516842D01*
X135654500Y-98505500D01*
X137376001Y-98505500D01*
X137387283Y-98504014D01*
X137506834Y-98488275D01*
X137568834Y-98471662D01*
X137690750Y-98421163D01*
X137795442Y-98340829D01*
X137840829Y-98295442D01*
X137921163Y-98190750D01*
X137971662Y-98068834D01*
X137988275Y-98006834D01*
X138005500Y-97876000D01*
X138005500Y-92710000D01*
X141334539Y-92710000D01*
X141354326Y-92898257D01*
X141412820Y-93078282D01*
X141469538Y-93176521D01*
X141489500Y-93251021D01*
X141489500Y-109510819D01*
X141487927Y-109532414D01*
X141484710Y-109554370D01*
X141488933Y-109602629D01*
X141489500Y-109615615D01*
X141489500Y-109620056D01*
X141493055Y-109650478D01*
X141493495Y-109654784D01*
X141500283Y-109732368D01*
X141503649Y-109747551D01*
X141530280Y-109820721D01*
X141531702Y-109824812D01*
X141556206Y-109898759D01*
X141562982Y-109912755D01*
X141564762Y-109915462D01*
X141564763Y-109915463D01*
X141605794Y-109977849D01*
X141608078Y-109981434D01*
X141647288Y-110045002D01*
X141647289Y-110045003D01*
X141648994Y-110047767D01*
X141658806Y-110059811D01*
X141661168Y-110062040D01*
X141661170Y-110062042D01*
X141679787Y-110079606D01*
X141715444Y-110113247D01*
X141718552Y-110116266D01*
X157905859Y-126303572D01*
X157938158Y-126351911D01*
X157949500Y-126408931D01*
X157949500Y-128159694D01*
X157938331Y-128216295D01*
X157906498Y-128264410D01*
X157858775Y-128296824D01*
X157851610Y-128299870D01*
X157851608Y-128299870D01*
X157851606Y-128299872D01*
X157620393Y-128440979D01*
X157412180Y-128614254D01*
X157324759Y-128711823D01*
X157231418Y-128815998D01*
X157158494Y-128926223D01*
X157081954Y-129041913D01*
X156966980Y-129287173D01*
X156888939Y-129546573D01*
X156849500Y-129814561D01*
X156849500Y-130617637D01*
X156864322Y-130820155D01*
X156923220Y-131084555D01*
X157019983Y-131337554D01*
X157152561Y-131573780D01*
X157318108Y-131788172D01*
X157318112Y-131788177D01*
X157513119Y-131976186D01*
X157595927Y-132035430D01*
X157733420Y-132133799D01*
X157974325Y-132257656D01*
X158230691Y-132345117D01*
X158230693Y-132345117D01*
X158230695Y-132345118D01*
X158497067Y-132394319D01*
X158767765Y-132404212D01*
X159037018Y-132374586D01*
X159299088Y-132306072D01*
X159548390Y-132200130D01*
X159779610Y-132059018D01*
X159987820Y-131885745D01*
X160168582Y-131684002D01*
X160318044Y-131458090D01*
X160433020Y-131212824D01*
X160511060Y-130953431D01*
X160550500Y-130685439D01*
X160550500Y-129882369D01*
X160535677Y-129679844D01*
X160476780Y-129415447D01*
X160427721Y-129287176D01*
X160380016Y-129162445D01*
X160340874Y-129092703D01*
X160247441Y-128926223D01*
X160081888Y-128711823D01*
X159886881Y-128523814D01*
X159858758Y-128503693D01*
X159666579Y-128366200D01*
X159531371Y-128296685D01*
X159488529Y-128263603D01*
X159460332Y-128217400D01*
X159450500Y-128164173D01*
X159450500Y-126101873D01*
X159452073Y-126080278D01*
X159455289Y-126058323D01*
X159451066Y-126010064D01*
X159450500Y-125997080D01*
X159450500Y-125992635D01*
X159446944Y-125962216D01*
X159446503Y-125957902D01*
X159439714Y-125880305D01*
X159436354Y-125865150D01*
X159435241Y-125862091D01*
X159409691Y-125791894D01*
X159408307Y-125787911D01*
X159384814Y-125717011D01*
X159384812Y-125717008D01*
X159383791Y-125713926D01*
X159377023Y-125699946D01*
X159375238Y-125697232D01*
X159375237Y-125697229D01*
X159334213Y-125634855D01*
X159331912Y-125631244D01*
X159291005Y-125564923D01*
X159281197Y-125552882D01*
X159224556Y-125499444D01*
X159221447Y-125496425D01*
X156475035Y-122750013D01*
X184099500Y-122750013D01*
X184110000Y-122852793D01*
X184110000Y-122852795D01*
X184110001Y-122852797D01*
X184165186Y-123019334D01*
X184257289Y-123168655D01*
X184381345Y-123292711D01*
X184530666Y-123384814D01*
X184697203Y-123439999D01*
X184735748Y-123443936D01*
X184799987Y-123450500D01*
X184799992Y-123450500D01*
X187700008Y-123450500D01*
X187700013Y-123450500D01*
X187757112Y-123444666D01*
X187802797Y-123439999D01*
X187969334Y-123384814D01*
X188118655Y-123292711D01*
X188242711Y-123168655D01*
X188334814Y-123019334D01*
X188389999Y-122852797D01*
X188396733Y-122786881D01*
X188400500Y-122750013D01*
X188400500Y-121667768D01*
X189595788Y-121667768D01*
X189625414Y-121937017D01*
X189693928Y-122199090D01*
X189799869Y-122448389D01*
X189940979Y-122679606D01*
X189940981Y-122679608D01*
X189940982Y-122679610D01*
X190114255Y-122887820D01*
X190315998Y-123068582D01*
X190541910Y-123218044D01*
X190664543Y-123275532D01*
X190787173Y-123333019D01*
X190787175Y-123333019D01*
X190787176Y-123333020D01*
X191046569Y-123411060D01*
X191314561Y-123450500D01*
X192117631Y-123450500D01*
X192117637Y-123450500D01*
X192291223Y-123437794D01*
X192320156Y-123435677D01*
X192584553Y-123376780D01*
X192698971Y-123333019D01*
X192837554Y-123280016D01*
X192837558Y-123280014D01*
X193073777Y-123147441D01*
X193288177Y-122981888D01*
X193476186Y-122786881D01*
X193633799Y-122566579D01*
X193757656Y-122325675D01*
X193845118Y-122069305D01*
X193894319Y-121802933D01*
X193904212Y-121532235D01*
X193874586Y-121262982D01*
X193806072Y-121000912D01*
X193700130Y-120751610D01*
X193628000Y-120633421D01*
X193559020Y-120520393D01*
X193500432Y-120449992D01*
X193385745Y-120312180D01*
X193184002Y-120131418D01*
X192958090Y-119981956D01*
X192958086Y-119981954D01*
X192712826Y-119866980D01*
X192567372Y-119823220D01*
X192453431Y-119788940D01*
X192453427Y-119788939D01*
X192453426Y-119788939D01*
X192185439Y-119749500D01*
X191382369Y-119749500D01*
X191382363Y-119749500D01*
X191179844Y-119764322D01*
X190915444Y-119823220D01*
X190662445Y-119919983D01*
X190426219Y-120052561D01*
X190211827Y-120218108D01*
X190023812Y-120413121D01*
X189866200Y-120633420D01*
X189742343Y-120874325D01*
X189654882Y-121130691D01*
X189605681Y-121397066D01*
X189595788Y-121667768D01*
X188400500Y-121667768D01*
X188400500Y-120449987D01*
X188389999Y-120347206D01*
X188389999Y-120347203D01*
X188334814Y-120180666D01*
X188242711Y-120031345D01*
X188118655Y-119907289D01*
X187969334Y-119815186D01*
X187802797Y-119760001D01*
X187802795Y-119760000D01*
X187802793Y-119760000D01*
X187700013Y-119749500D01*
X187700008Y-119749500D01*
X184799992Y-119749500D01*
X184799987Y-119749500D01*
X184697206Y-119760000D01*
X184530665Y-119815186D01*
X184381346Y-119907288D01*
X184257288Y-120031346D01*
X184165186Y-120180665D01*
X184110000Y-120347206D01*
X184099500Y-120449987D01*
X184099500Y-122750013D01*
X156475035Y-122750013D01*
X143034141Y-109309119D01*
X143001842Y-109260780D01*
X142990500Y-109203760D01*
X142990500Y-93251021D01*
X143010462Y-93176521D01*
X143021696Y-93157063D01*
X143067179Y-93078284D01*
X143125674Y-92898256D01*
X143145460Y-92710000D01*
X143125674Y-92521744D01*
X143067179Y-92341716D01*
X142972533Y-92177784D01*
X142845871Y-92037112D01*
X142692730Y-91925849D01*
X142519803Y-91848856D01*
X142334646Y-91809500D01*
X142145354Y-91809500D01*
X142052775Y-91829177D01*
X141960196Y-91848856D01*
X141787271Y-91925848D01*
X141634127Y-92037113D01*
X141507467Y-92177783D01*
X141412820Y-92341717D01*
X141354326Y-92521742D01*
X141334539Y-92710000D01*
X138005500Y-92710000D01*
X138005500Y-91320105D01*
X138020651Y-91254642D01*
X138063023Y-91202492D01*
X141247500Y-88725675D01*
X142262476Y-87936249D01*
X142344453Y-87855998D01*
X142379715Y-87812599D01*
X142441489Y-87715927D01*
X142479873Y-87607814D01*
X142492482Y-87553334D01*
X142505500Y-87439353D01*
X142505500Y-83407586D01*
X142516842Y-83350566D01*
X142549141Y-83302227D01*
X144925141Y-80926227D01*
X144984456Y-80889879D01*
X145053809Y-80884420D01*
X145118080Y-80911042D01*
X145163260Y-80963941D01*
X145179500Y-81031586D01*
X145179500Y-92457415D01*
X145168158Y-92514435D01*
X145135859Y-92562774D01*
X144632465Y-93066166D01*
X144598203Y-93091751D01*
X144558086Y-93106551D01*
X144500197Y-93118855D01*
X144327270Y-93195849D01*
X144174127Y-93307113D01*
X144047467Y-93447783D01*
X143952820Y-93611717D01*
X143894326Y-93791742D01*
X143874539Y-93979999D01*
X143894326Y-94168257D01*
X143952820Y-94348282D01*
X144009538Y-94446521D01*
X144029500Y-94521021D01*
X144029500Y-101534473D01*
X144027927Y-101556068D01*
X144024710Y-101578024D01*
X144028933Y-101626283D01*
X144029500Y-101639269D01*
X144029500Y-101643710D01*
X144033055Y-101674132D01*
X144033495Y-101678438D01*
X144040283Y-101756022D01*
X144043649Y-101771205D01*
X144044758Y-101774254D01*
X144044759Y-101774255D01*
X144049236Y-101786557D01*
X144070280Y-101844375D01*
X144071702Y-101848466D01*
X144096206Y-101922413D01*
X144102982Y-101936409D01*
X144104762Y-101939116D01*
X144104763Y-101939117D01*
X144145794Y-102001503D01*
X144148078Y-102005088D01*
X144187288Y-102068656D01*
X144187289Y-102068657D01*
X144188994Y-102071421D01*
X144198806Y-102083465D01*
X144201168Y-102085694D01*
X144201170Y-102085696D01*
X144255444Y-102136901D01*
X144258552Y-102139920D01*
X145344798Y-103226166D01*
X146402985Y-104284352D01*
X146439333Y-104343667D01*
X146492820Y-104508282D01*
X146492821Y-104508284D01*
X146587467Y-104672216D01*
X146714129Y-104812888D01*
X146867270Y-104924151D01*
X147040197Y-105001144D01*
X147225354Y-105040500D01*
X147414645Y-105040500D01*
X147414646Y-105040500D01*
X147599803Y-105001144D01*
X147772730Y-104924151D01*
X147925871Y-104812888D01*
X148052533Y-104672216D01*
X148147179Y-104508284D01*
X148205674Y-104328256D01*
X148225460Y-104140000D01*
X148205674Y-103951744D01*
X148147179Y-103771716D01*
X148052533Y-103607784D01*
X147925871Y-103467112D01*
X147772730Y-103355849D01*
X147772386Y-103355696D01*
X147599803Y-103278856D01*
X147541913Y-103266551D01*
X147501795Y-103251751D01*
X147467533Y-103226166D01*
X145574141Y-101332773D01*
X145541842Y-101284434D01*
X145530500Y-101227414D01*
X145530500Y-94521021D01*
X145550462Y-94446521D01*
X145556037Y-94436863D01*
X145607179Y-94348284D01*
X145660666Y-94183666D01*
X145697013Y-94124353D01*
X146414352Y-93407013D01*
X146430727Y-93392862D01*
X146448530Y-93379610D01*
X146479666Y-93342503D01*
X146488453Y-93332913D01*
X146491591Y-93329776D01*
X146510578Y-93305762D01*
X146513319Y-93302397D01*
X146519775Y-93294702D01*
X146561302Y-93245214D01*
X146561304Y-93245209D01*
X146563393Y-93242720D01*
X146571733Y-93229630D01*
X146573108Y-93226680D01*
X146573111Y-93226677D01*
X146604668Y-93159000D01*
X146606537Y-93155141D01*
X146640040Y-93088433D01*
X146640040Y-93088429D01*
X146641505Y-93085514D01*
X146646598Y-93070862D01*
X146662352Y-92994561D01*
X146663283Y-92990359D01*
X146680500Y-92917721D01*
X146680500Y-92917718D01*
X146681250Y-92914554D01*
X146682828Y-92899107D01*
X146682733Y-92895857D01*
X146682734Y-92895855D01*
X146680562Y-92821246D01*
X146680500Y-92816913D01*
X146680500Y-67255527D01*
X146682073Y-67233932D01*
X146685289Y-67211975D01*
X146681067Y-67163717D01*
X146680500Y-67150731D01*
X146680500Y-67146292D01*
X146680500Y-67146291D01*
X146676941Y-67115850D01*
X146676504Y-67111567D01*
X146675526Y-67100387D01*
X146669999Y-67037203D01*
X146669997Y-67037199D01*
X146669715Y-67033966D01*
X146666354Y-67018803D01*
X146656039Y-66990461D01*
X146648328Y-66920052D01*
X146673999Y-66854037D01*
X146727252Y-66807335D01*
X146796053Y-66790500D01*
X151416873Y-66790500D01*
X151484518Y-66806740D01*
X151537417Y-66851920D01*
X151564039Y-66916191D01*
X151558580Y-66985544D01*
X151514326Y-67121742D01*
X151494539Y-67309999D01*
X151514326Y-67498257D01*
X151572820Y-67678282D01*
X151629538Y-67776521D01*
X151649500Y-67851021D01*
X151649500Y-78198979D01*
X151629538Y-78273479D01*
X151572820Y-78371717D01*
X151514326Y-78551742D01*
X151494539Y-78740000D01*
X151514326Y-78928257D01*
X151572820Y-79108282D01*
X151629538Y-79206521D01*
X151649500Y-79281021D01*
X151649500Y-102804473D01*
X151647927Y-102826068D01*
X151644710Y-102848024D01*
X151648933Y-102896283D01*
X151649500Y-102909269D01*
X151649500Y-102913710D01*
X151653055Y-102944132D01*
X151653495Y-102948438D01*
X151660283Y-103026022D01*
X151663649Y-103041205D01*
X151690280Y-103114375D01*
X151691702Y-103118466D01*
X151716206Y-103192413D01*
X151722982Y-103206409D01*
X151724762Y-103209116D01*
X151724763Y-103209117D01*
X151765794Y-103271503D01*
X151768078Y-103275088D01*
X151807288Y-103338656D01*
X151807290Y-103338658D01*
X151808995Y-103341422D01*
X151818810Y-103353470D01*
X151875443Y-103406901D01*
X151878552Y-103409920D01*
X156562985Y-108094353D01*
X156599333Y-108153668D01*
X156652820Y-108318282D01*
X156652821Y-108318284D01*
X156747467Y-108482216D01*
X156874129Y-108622888D01*
X157027270Y-108734151D01*
X157200197Y-108811144D01*
X157385354Y-108850500D01*
X157574645Y-108850500D01*
X157574646Y-108850500D01*
X157759803Y-108811144D01*
X157932730Y-108734151D01*
X158085871Y-108622888D01*
X158212533Y-108482216D01*
X158307179Y-108318284D01*
X158360666Y-108153666D01*
X158397013Y-108094353D01*
X158677225Y-107814141D01*
X158725565Y-107781842D01*
X158782585Y-107770500D01*
X173967262Y-107770500D01*
X174024282Y-107781842D01*
X174072621Y-107814141D01*
X182042830Y-115784349D01*
X182056986Y-115800730D01*
X182070237Y-115818529D01*
X182107348Y-115849669D01*
X182116931Y-115858450D01*
X182120070Y-115861589D01*
X182144096Y-115880586D01*
X182147426Y-115883298D01*
X182204634Y-115931302D01*
X182204636Y-115931303D01*
X182207128Y-115933394D01*
X182220223Y-115941736D01*
X182223170Y-115943110D01*
X182223171Y-115943111D01*
X182268337Y-115964172D01*
X182290824Y-115974658D01*
X182294725Y-115976547D01*
X182361415Y-116010040D01*
X182361416Y-116010040D01*
X182364321Y-116011499D01*
X182378991Y-116016599D01*
X182413347Y-116023692D01*
X182455299Y-116032354D01*
X182459426Y-116033269D01*
X182532127Y-116050500D01*
X182532128Y-116050500D01*
X182535288Y-116051249D01*
X182550737Y-116052827D01*
X182553989Y-116052732D01*
X182553992Y-116052733D01*
X182628580Y-116050563D01*
X182632913Y-116050500D01*
X184350351Y-116050500D01*
X184413595Y-116064588D01*
X184464880Y-116104189D01*
X184494506Y-116161813D01*
X184496872Y-116226564D01*
X184471532Y-116286195D01*
X184465369Y-116294810D01*
X184366198Y-116433423D01*
X184242343Y-116674325D01*
X184154882Y-116930691D01*
X184105681Y-117197066D01*
X184095788Y-117467768D01*
X184125414Y-117737017D01*
X184193928Y-117999090D01*
X184299869Y-118248389D01*
X184440979Y-118479606D01*
X184440981Y-118479608D01*
X184440982Y-118479610D01*
X184614255Y-118687820D01*
X184815998Y-118868582D01*
X185041910Y-119018044D01*
X185164543Y-119075532D01*
X185287173Y-119133019D01*
X185287175Y-119133019D01*
X185287176Y-119133020D01*
X185546569Y-119211060D01*
X185814561Y-119250500D01*
X186617631Y-119250500D01*
X186617637Y-119250500D01*
X186791223Y-119237794D01*
X186820156Y-119235677D01*
X187084553Y-119176780D01*
X187198971Y-119133019D01*
X187337554Y-119080016D01*
X187337558Y-119080014D01*
X187573777Y-118947441D01*
X187788177Y-118781888D01*
X187976186Y-118586881D01*
X188133799Y-118366579D01*
X188257656Y-118125675D01*
X188345118Y-117869305D01*
X188394319Y-117602933D01*
X188404212Y-117332235D01*
X188374586Y-117062982D01*
X188306072Y-116800912D01*
X188200130Y-116551610D01*
X188059018Y-116320390D01*
X188055143Y-116315734D01*
X188037731Y-116294810D01*
X188007569Y-116235076D01*
X188006592Y-116168165D01*
X188034996Y-116107575D01*
X188087052Y-116065527D01*
X188152260Y-116050500D01*
X189277414Y-116050500D01*
X189334434Y-116061842D01*
X189382773Y-116094141D01*
X189740412Y-116451780D01*
X189774221Y-116503911D01*
X189783829Y-116565297D01*
X189767566Y-116625265D01*
X189742345Y-116674322D01*
X189654882Y-116930691D01*
X189605681Y-117197066D01*
X189595788Y-117467768D01*
X189625414Y-117737017D01*
X189693928Y-117999090D01*
X189799869Y-118248389D01*
X189940979Y-118479606D01*
X189940981Y-118479608D01*
X189940982Y-118479610D01*
X190114255Y-118687820D01*
X190315998Y-118868582D01*
X190541910Y-119018044D01*
X190664543Y-119075532D01*
X190787173Y-119133019D01*
X190787175Y-119133019D01*
X190787176Y-119133020D01*
X191046569Y-119211060D01*
X191314561Y-119250500D01*
X192117631Y-119250500D01*
X192117637Y-119250500D01*
X192291223Y-119237794D01*
X192320156Y-119235677D01*
X192584553Y-119176780D01*
X192698971Y-119133019D01*
X192837554Y-119080016D01*
X192837558Y-119080014D01*
X193073777Y-118947441D01*
X193288177Y-118781888D01*
X193476186Y-118586881D01*
X193633799Y-118366579D01*
X193757656Y-118125675D01*
X193845118Y-117869305D01*
X193894319Y-117602933D01*
X193904212Y-117332235D01*
X193874586Y-117062982D01*
X193806072Y-116800912D01*
X193700130Y-116551610D01*
X193671020Y-116503911D01*
X193559020Y-116320393D01*
X193480935Y-116226564D01*
X193385745Y-116112180D01*
X193184002Y-115931418D01*
X192958090Y-115781956D01*
X192958086Y-115781954D01*
X192712826Y-115666980D01*
X192571700Y-115624522D01*
X192453431Y-115588940D01*
X192453427Y-115588939D01*
X192453426Y-115588939D01*
X192185439Y-115549500D01*
X191382369Y-115549500D01*
X191382363Y-115549500D01*
X191179843Y-115564323D01*
X191092766Y-115583720D01*
X191018748Y-115581353D01*
X190955011Y-115543644D01*
X190553688Y-115142320D01*
X190517595Y-115083782D01*
X190511636Y-115015268D01*
X190537081Y-114951376D01*
X190588510Y-114905717D01*
X190654966Y-114888019D01*
X190722292Y-114902051D01*
X190787352Y-114932550D01*
X191046682Y-115010570D01*
X191249999Y-115040493D01*
X191250000Y-115040493D01*
X191250000Y-113700000D01*
X192250000Y-113700000D01*
X192250000Y-115040310D01*
X192320085Y-115035180D01*
X192584411Y-114976298D01*
X192837344Y-114879559D01*
X193073500Y-114747022D01*
X193287838Y-114581517D01*
X193475801Y-114386557D01*
X193633372Y-114166315D01*
X193757194Y-113925478D01*
X193834117Y-113700000D01*
X192250000Y-113700000D01*
X191250000Y-113700000D01*
X189668540Y-113700000D01*
X189694402Y-113798926D01*
X189800316Y-114048160D01*
X189941388Y-114279315D01*
X189985015Y-114331739D01*
X190016505Y-114397395D01*
X190013122Y-114470132D01*
X189975673Y-114532581D01*
X189913102Y-114569825D01*
X189840354Y-114572971D01*
X189814547Y-114567642D01*
X189810319Y-114566705D01*
X189734554Y-114548749D01*
X189719108Y-114547171D01*
X189646704Y-114549278D01*
X189641247Y-114549437D01*
X189636914Y-114549500D01*
X188149034Y-114549500D01*
X188085790Y-114535412D01*
X188034505Y-114495811D01*
X188004879Y-114438187D01*
X188002513Y-114373436D01*
X188027854Y-114313803D01*
X188133372Y-114166315D01*
X188257194Y-113925478D01*
X188334117Y-113700000D01*
X184168540Y-113700000D01*
X184194402Y-113798926D01*
X184300316Y-114048160D01*
X184441390Y-114279319D01*
X184462920Y-114305190D01*
X184493082Y-114364924D01*
X184494059Y-114431835D01*
X184465655Y-114492425D01*
X184413599Y-114534473D01*
X184348391Y-114549500D01*
X182992434Y-114549500D01*
X182935414Y-114538158D01*
X182887075Y-114505859D01*
X181081215Y-112699999D01*
X184165882Y-112699999D01*
X184165883Y-112700000D01*
X185750000Y-112700000D01*
X185750000Y-111359690D01*
X185679914Y-111364819D01*
X185415588Y-111423701D01*
X185162655Y-111520440D01*
X184926499Y-111652977D01*
X184712161Y-111818482D01*
X184524198Y-112013442D01*
X184366627Y-112233684D01*
X184242805Y-112474521D01*
X184165882Y-112699999D01*
X181081215Y-112699999D01*
X179740722Y-111359506D01*
X186750000Y-111359506D01*
X186750000Y-112700000D01*
X188331459Y-112700000D01*
X188331459Y-112699999D01*
X189665882Y-112699999D01*
X189665883Y-112700000D01*
X191250000Y-112700000D01*
X191250000Y-111359690D01*
X191179914Y-111364819D01*
X190915588Y-111423701D01*
X190662655Y-111520440D01*
X190426499Y-111652977D01*
X190212161Y-111818482D01*
X190024198Y-112013442D01*
X189866627Y-112233684D01*
X189742805Y-112474521D01*
X189665882Y-112699999D01*
X188331459Y-112699999D01*
X188305597Y-112601073D01*
X188199683Y-112351839D01*
X188058612Y-112120684D01*
X187885381Y-111912524D01*
X187683697Y-111731816D01*
X187457845Y-111582394D01*
X187212647Y-111467449D01*
X186953317Y-111389429D01*
X186750000Y-111359506D01*
X192250000Y-111359506D01*
X192250000Y-112700000D01*
X193831459Y-112700000D01*
X193831459Y-112699999D01*
X193805597Y-112601073D01*
X193699683Y-112351839D01*
X193558612Y-112120684D01*
X193385381Y-111912524D01*
X193183697Y-111731816D01*
X192957845Y-111582394D01*
X192712647Y-111467449D01*
X192453317Y-111389429D01*
X192250000Y-111359506D01*
X186750000Y-111359506D01*
X179740722Y-111359506D01*
X177448984Y-109067768D01*
X184095788Y-109067768D01*
X184125414Y-109337017D01*
X184193928Y-109599090D01*
X184299869Y-109848389D01*
X184440979Y-110079606D01*
X184440981Y-110079608D01*
X184440982Y-110079610D01*
X184614255Y-110287820D01*
X184815998Y-110468582D01*
X185041910Y-110618044D01*
X185164543Y-110675532D01*
X185287173Y-110733019D01*
X185287175Y-110733019D01*
X185287176Y-110733020D01*
X185546569Y-110811060D01*
X185814561Y-110850500D01*
X186617631Y-110850500D01*
X186617637Y-110850500D01*
X186791223Y-110837794D01*
X186820156Y-110835677D01*
X187084553Y-110776780D01*
X187198971Y-110733019D01*
X187337554Y-110680016D01*
X187337558Y-110680014D01*
X187573777Y-110547441D01*
X187788177Y-110381888D01*
X187976186Y-110186881D01*
X188133799Y-109966579D01*
X188257656Y-109725675D01*
X188345118Y-109469305D01*
X188394319Y-109202933D01*
X188399259Y-109067768D01*
X189595788Y-109067768D01*
X189625414Y-109337017D01*
X189693928Y-109599090D01*
X189799869Y-109848389D01*
X189940979Y-110079606D01*
X189940981Y-110079608D01*
X189940982Y-110079610D01*
X190114255Y-110287820D01*
X190315998Y-110468582D01*
X190541910Y-110618044D01*
X190664543Y-110675532D01*
X190787173Y-110733019D01*
X190787175Y-110733019D01*
X190787176Y-110733020D01*
X191046569Y-110811060D01*
X191314561Y-110850500D01*
X192117631Y-110850500D01*
X192117637Y-110850500D01*
X192291223Y-110837794D01*
X192320156Y-110835677D01*
X192584553Y-110776780D01*
X192698971Y-110733019D01*
X192837554Y-110680016D01*
X192837558Y-110680014D01*
X193073777Y-110547441D01*
X193288177Y-110381888D01*
X193476186Y-110186881D01*
X193633799Y-109966579D01*
X193757656Y-109725675D01*
X193845118Y-109469305D01*
X193894319Y-109202933D01*
X193904212Y-108932235D01*
X193874586Y-108662982D01*
X193806072Y-108400912D01*
X193700130Y-108151610D01*
X193628000Y-108033421D01*
X193559020Y-107920393D01*
X193385745Y-107712180D01*
X193184002Y-107531418D01*
X192958090Y-107381956D01*
X192958086Y-107381954D01*
X192712826Y-107266980D01*
X192567372Y-107223220D01*
X192453431Y-107188940D01*
X192453427Y-107188939D01*
X192453426Y-107188939D01*
X192185439Y-107149500D01*
X191382369Y-107149500D01*
X191382363Y-107149500D01*
X191179844Y-107164322D01*
X190915444Y-107223220D01*
X190662445Y-107319983D01*
X190426219Y-107452561D01*
X190211827Y-107618108D01*
X190023812Y-107813121D01*
X189866200Y-108033420D01*
X189742343Y-108274325D01*
X189654882Y-108530691D01*
X189605681Y-108797066D01*
X189595788Y-109067768D01*
X188399259Y-109067768D01*
X188404212Y-108932235D01*
X188374586Y-108662982D01*
X188306072Y-108400912D01*
X188200130Y-108151610D01*
X188128000Y-108033421D01*
X188059020Y-107920393D01*
X187885745Y-107712180D01*
X187684002Y-107531418D01*
X187458090Y-107381956D01*
X187458086Y-107381954D01*
X187212826Y-107266980D01*
X187067372Y-107223220D01*
X186953431Y-107188940D01*
X186953427Y-107188939D01*
X186953426Y-107188939D01*
X186685439Y-107149500D01*
X185882369Y-107149500D01*
X185882363Y-107149500D01*
X185679844Y-107164322D01*
X185415444Y-107223220D01*
X185162445Y-107319983D01*
X184926219Y-107452561D01*
X184711827Y-107618108D01*
X184523812Y-107813121D01*
X184366200Y-108033420D01*
X184242343Y-108274325D01*
X184154882Y-108530691D01*
X184105681Y-108797066D01*
X184095788Y-109067768D01*
X177448984Y-109067768D01*
X174916862Y-106535646D01*
X174902707Y-106519267D01*
X174889458Y-106501470D01*
X174884171Y-106497034D01*
X174852354Y-106470336D01*
X174842770Y-106461554D01*
X174839625Y-106458409D01*
X174815579Y-106439396D01*
X174812228Y-106436666D01*
X174752575Y-106386611D01*
X174739468Y-106378261D01*
X174672476Y-106347022D01*
X174668856Y-106345334D01*
X174664988Y-106343461D01*
X174598281Y-106309960D01*
X174598279Y-106309959D01*
X174595375Y-106308501D01*
X174580696Y-106303398D01*
X174504395Y-106287642D01*
X174500167Y-106286705D01*
X174424402Y-106268749D01*
X174408956Y-106267171D01*
X174336552Y-106269278D01*
X174331095Y-106269437D01*
X174326762Y-106269500D01*
X158475527Y-106269500D01*
X158453932Y-106267927D01*
X158431975Y-106264710D01*
X158383717Y-106268933D01*
X158370731Y-106269500D01*
X158366286Y-106269500D01*
X158335868Y-106273054D01*
X158331565Y-106273494D01*
X158255383Y-106280160D01*
X158185617Y-106269485D01*
X158128590Y-106227901D01*
X158097098Y-106164738D01*
X158098206Y-106094168D01*
X158131667Y-106032026D01*
X158212533Y-105942216D01*
X158307179Y-105778284D01*
X158360666Y-105613666D01*
X158397013Y-105554353D01*
X158651366Y-105300000D01*
X184168540Y-105300000D01*
X184194402Y-105398926D01*
X184300316Y-105648160D01*
X184441387Y-105879315D01*
X184614618Y-106087475D01*
X184816302Y-106268183D01*
X185042154Y-106417605D01*
X185287352Y-106532550D01*
X185546682Y-106610570D01*
X185749999Y-106640493D01*
X185750000Y-106640493D01*
X185750000Y-105300000D01*
X186750000Y-105300000D01*
X186750000Y-106640310D01*
X186820085Y-106635180D01*
X187084411Y-106576298D01*
X187337344Y-106479559D01*
X187573500Y-106347022D01*
X187787838Y-106181517D01*
X187975801Y-105986557D01*
X188133372Y-105766315D01*
X188257194Y-105525478D01*
X188334117Y-105300000D01*
X189668540Y-105300000D01*
X189694402Y-105398926D01*
X189800316Y-105648160D01*
X189941387Y-105879315D01*
X190114618Y-106087475D01*
X190316302Y-106268183D01*
X190542154Y-106417605D01*
X190787352Y-106532550D01*
X191046682Y-106610570D01*
X191249999Y-106640493D01*
X191250000Y-106640493D01*
X191250000Y-105300000D01*
X192250000Y-105300000D01*
X192250000Y-106640310D01*
X192320085Y-106635180D01*
X192584411Y-106576298D01*
X192837344Y-106479559D01*
X193073500Y-106347022D01*
X193287838Y-106181517D01*
X193475801Y-105986557D01*
X193633372Y-105766315D01*
X193757194Y-105525478D01*
X193834117Y-105300000D01*
X192250000Y-105300000D01*
X191250000Y-105300000D01*
X189668540Y-105300000D01*
X188334117Y-105300000D01*
X186750000Y-105300000D01*
X185750000Y-105300000D01*
X184168540Y-105300000D01*
X158651366Y-105300000D01*
X159234352Y-104717013D01*
X159250727Y-104702862D01*
X159268530Y-104689610D01*
X159299666Y-104652503D01*
X159308453Y-104642913D01*
X159311590Y-104639777D01*
X159330591Y-104615743D01*
X159333324Y-104612390D01*
X159381302Y-104555214D01*
X159381303Y-104555210D01*
X159383391Y-104552723D01*
X159391732Y-104539630D01*
X159393106Y-104536683D01*
X159393111Y-104536677D01*
X159424678Y-104468979D01*
X159426534Y-104465147D01*
X159460040Y-104398433D01*
X159460041Y-104398427D01*
X159461503Y-104395517D01*
X159466596Y-104380864D01*
X159467253Y-104377677D01*
X159467256Y-104377673D01*
X159482354Y-104304546D01*
X159483268Y-104300420D01*
X159483368Y-104299999D01*
X184165882Y-104299999D01*
X184165883Y-104300000D01*
X185750000Y-104300000D01*
X185750000Y-102959690D01*
X185679914Y-102964819D01*
X185415588Y-103023701D01*
X185162655Y-103120440D01*
X184926499Y-103252977D01*
X184712161Y-103418482D01*
X184524198Y-103613442D01*
X184366627Y-103833684D01*
X184242805Y-104074521D01*
X184165882Y-104299999D01*
X159483368Y-104299999D01*
X159500500Y-104227721D01*
X159500500Y-104227719D01*
X159501249Y-104224559D01*
X159502827Y-104209110D01*
X159502732Y-104205858D01*
X159502733Y-104205856D01*
X159500563Y-104131267D01*
X159500500Y-104126935D01*
X159500500Y-93251021D01*
X159520462Y-93176521D01*
X159531696Y-93157063D01*
X159577179Y-93078284D01*
X159635674Y-92898256D01*
X159655460Y-92710000D01*
X159635674Y-92521744D01*
X159577179Y-92341716D01*
X159482533Y-92177784D01*
X159355871Y-92037112D01*
X159202730Y-91925849D01*
X159029803Y-91848856D01*
X158844646Y-91809500D01*
X158655354Y-91809500D01*
X158562775Y-91829177D01*
X158470196Y-91848856D01*
X158297271Y-91925848D01*
X158144127Y-92037113D01*
X158017467Y-92177783D01*
X157922820Y-92341717D01*
X157864326Y-92521742D01*
X157844539Y-92710000D01*
X157864326Y-92898257D01*
X157922820Y-93078282D01*
X157979538Y-93176521D01*
X157999500Y-93251021D01*
X157999500Y-103767414D01*
X157988158Y-103824434D01*
X157955859Y-103872773D01*
X157332464Y-104496166D01*
X157298202Y-104521751D01*
X157258085Y-104536551D01*
X157200197Y-104548855D01*
X157027270Y-104625849D01*
X156874127Y-104737113D01*
X156747467Y-104877783D01*
X156652820Y-105041717D01*
X156594326Y-105221742D01*
X156574539Y-105410000D01*
X156594326Y-105598256D01*
X156597327Y-105607493D01*
X156603343Y-105672984D01*
X156580579Y-105734686D01*
X156533469Y-105780577D01*
X156471191Y-105801717D01*
X156405880Y-105793986D01*
X156350259Y-105758892D01*
X155308387Y-104717020D01*
X153194141Y-102602773D01*
X153161842Y-102554434D01*
X153150500Y-102497414D01*
X153150500Y-79281021D01*
X153170462Y-79206521D01*
X153176037Y-79196863D01*
X153227179Y-79108284D01*
X153285674Y-78928256D01*
X153305460Y-78740000D01*
X153285674Y-78551744D01*
X153227179Y-78371716D01*
X153170462Y-78273479D01*
X153150500Y-78198979D01*
X153150500Y-67851021D01*
X153170462Y-67776521D01*
X153176037Y-67766863D01*
X153227179Y-67678284D01*
X153285674Y-67498256D01*
X153305460Y-67310000D01*
X153285674Y-67121744D01*
X153251233Y-67015745D01*
X153241420Y-66985544D01*
X153235961Y-66916191D01*
X153262583Y-66851920D01*
X153315482Y-66806740D01*
X153383127Y-66790500D01*
X154567414Y-66790500D01*
X154624434Y-66801842D01*
X154672773Y-66834141D01*
X156685859Y-68847226D01*
X156718158Y-68895565D01*
X156729500Y-68952585D01*
X156729500Y-74388979D01*
X156709538Y-74463479D01*
X156652819Y-74561717D01*
X156599333Y-74726331D01*
X156562985Y-74785646D01*
X155845646Y-75502984D01*
X155829269Y-75517137D01*
X155811472Y-75530387D01*
X155780331Y-75567498D01*
X155771569Y-75577061D01*
X155768412Y-75580218D01*
X155749392Y-75604272D01*
X155746659Y-75607627D01*
X155696616Y-75667266D01*
X155688256Y-75680390D01*
X155655340Y-75750975D01*
X155653454Y-75754871D01*
X155618504Y-75824462D01*
X155613397Y-75839156D01*
X155597641Y-75915459D01*
X155596704Y-75919685D01*
X155578749Y-75995445D01*
X155577171Y-76010891D01*
X155579437Y-76088751D01*
X155579500Y-76093086D01*
X155579500Y-86264473D01*
X155577927Y-86286068D01*
X155574710Y-86308024D01*
X155578933Y-86356283D01*
X155579500Y-86369269D01*
X155579500Y-86373710D01*
X155583055Y-86404132D01*
X155583495Y-86408438D01*
X155590283Y-86486022D01*
X155593649Y-86501205D01*
X155594758Y-86504254D01*
X155594759Y-86504255D01*
X155619877Y-86573270D01*
X155620280Y-86574375D01*
X155621702Y-86578466D01*
X155646206Y-86652413D01*
X155652982Y-86666409D01*
X155654762Y-86669116D01*
X155654763Y-86669117D01*
X155695794Y-86731503D01*
X155698078Y-86735088D01*
X155737288Y-86798656D01*
X155737289Y-86798657D01*
X155738994Y-86801421D01*
X155748806Y-86813465D01*
X155751168Y-86815694D01*
X155751170Y-86815696D01*
X155805444Y-86866901D01*
X155808552Y-86869920D01*
X158789132Y-89850500D01*
X161765859Y-92827226D01*
X161798158Y-92875565D01*
X161809500Y-92932585D01*
X161809500Y-102328979D01*
X161789538Y-102403479D01*
X161732820Y-102501717D01*
X161674326Y-102681742D01*
X161654539Y-102870000D01*
X161674326Y-103058257D01*
X161728883Y-103226166D01*
X161732821Y-103238284D01*
X161827467Y-103402216D01*
X161954129Y-103542888D01*
X162107270Y-103654151D01*
X162280197Y-103731144D01*
X162465354Y-103770500D01*
X162654645Y-103770500D01*
X162654646Y-103770500D01*
X162839803Y-103731144D01*
X163012730Y-103654151D01*
X163165871Y-103542888D01*
X163292533Y-103402216D01*
X163387179Y-103238284D01*
X163445674Y-103058256D01*
X163456053Y-102959506D01*
X186750000Y-102959506D01*
X186750000Y-104300000D01*
X188331459Y-104300000D01*
X188331459Y-104299999D01*
X189665882Y-104299999D01*
X189665883Y-104300000D01*
X191250000Y-104300000D01*
X191250000Y-102959690D01*
X191179914Y-102964819D01*
X190915588Y-103023701D01*
X190662655Y-103120440D01*
X190426499Y-103252977D01*
X190212161Y-103418482D01*
X190024198Y-103613442D01*
X189866627Y-103833684D01*
X189742805Y-104074521D01*
X189665882Y-104299999D01*
X188331459Y-104299999D01*
X188305597Y-104201073D01*
X188199683Y-103951839D01*
X188058612Y-103720684D01*
X187885381Y-103512524D01*
X187683697Y-103331816D01*
X187457845Y-103182394D01*
X187212647Y-103067449D01*
X186953317Y-102989429D01*
X186750000Y-102959506D01*
X192250000Y-102959506D01*
X192250000Y-104300000D01*
X193831459Y-104300000D01*
X193831459Y-104299999D01*
X193805597Y-104201073D01*
X193699683Y-103951839D01*
X193558612Y-103720684D01*
X193385381Y-103512524D01*
X193183697Y-103331816D01*
X192957845Y-103182394D01*
X192712647Y-103067449D01*
X192453317Y-102989429D01*
X192250000Y-102959506D01*
X186750000Y-102959506D01*
X163456053Y-102959506D01*
X163465460Y-102870000D01*
X163445674Y-102681744D01*
X163387179Y-102501716D01*
X163330462Y-102403479D01*
X163310500Y-102328979D01*
X163310500Y-100667768D01*
X184095788Y-100667768D01*
X184125414Y-100937017D01*
X184193928Y-101199090D01*
X184299869Y-101448389D01*
X184440979Y-101679606D01*
X184440981Y-101679608D01*
X184440982Y-101679610D01*
X184614255Y-101887820D01*
X184815998Y-102068582D01*
X185041910Y-102218044D01*
X185164543Y-102275532D01*
X185287173Y-102333019D01*
X185287175Y-102333019D01*
X185287176Y-102333020D01*
X185546569Y-102411060D01*
X185814561Y-102450500D01*
X186617631Y-102450500D01*
X186617637Y-102450500D01*
X186791223Y-102437794D01*
X186820156Y-102435677D01*
X187084553Y-102376780D01*
X187209534Y-102328979D01*
X187337554Y-102280016D01*
X187337558Y-102280014D01*
X187573777Y-102147441D01*
X187788177Y-101981888D01*
X187976186Y-101786881D01*
X188133799Y-101566579D01*
X188257656Y-101325675D01*
X188334646Y-101100000D01*
X189668540Y-101100000D01*
X189694402Y-101198926D01*
X189800316Y-101448160D01*
X189941387Y-101679315D01*
X190114618Y-101887475D01*
X190316302Y-102068183D01*
X190542154Y-102217605D01*
X190787352Y-102332550D01*
X191046682Y-102410570D01*
X191249999Y-102440493D01*
X191250000Y-102440493D01*
X191250000Y-101100000D01*
X192250000Y-101100000D01*
X192250000Y-102440310D01*
X192320085Y-102435180D01*
X192584411Y-102376298D01*
X192837344Y-102279559D01*
X193073500Y-102147022D01*
X193287838Y-101981517D01*
X193475801Y-101786557D01*
X193633372Y-101566315D01*
X193757194Y-101325478D01*
X193834117Y-101100000D01*
X192250000Y-101100000D01*
X191250000Y-101100000D01*
X189668540Y-101100000D01*
X188334646Y-101100000D01*
X188345118Y-101069305D01*
X188394319Y-100802933D01*
X188404212Y-100532235D01*
X188374586Y-100262982D01*
X188331977Y-100099999D01*
X189665882Y-100099999D01*
X189665883Y-100100000D01*
X191250000Y-100100000D01*
X191250000Y-98759690D01*
X191179914Y-98764819D01*
X190915588Y-98823701D01*
X190662655Y-98920440D01*
X190426499Y-99052977D01*
X190212161Y-99218482D01*
X190024198Y-99413442D01*
X189866627Y-99633684D01*
X189742805Y-99874521D01*
X189665882Y-100099999D01*
X188331977Y-100099999D01*
X188306072Y-100000912D01*
X188200130Y-99751610D01*
X188128000Y-99633421D01*
X188059020Y-99520393D01*
X187970015Y-99413442D01*
X187885745Y-99312180D01*
X187684002Y-99131418D01*
X187458090Y-98981956D01*
X187458086Y-98981954D01*
X187212826Y-98866980D01*
X187067372Y-98823220D01*
X186953431Y-98788940D01*
X186953427Y-98788939D01*
X186953426Y-98788939D01*
X186753430Y-98759506D01*
X192250000Y-98759506D01*
X192250000Y-100100000D01*
X193831459Y-100100000D01*
X193831459Y-100099999D01*
X193805597Y-100001073D01*
X193699683Y-99751839D01*
X193558612Y-99520684D01*
X193385381Y-99312524D01*
X193183697Y-99131816D01*
X192957845Y-98982394D01*
X192712647Y-98867449D01*
X192453317Y-98789429D01*
X192250000Y-98759506D01*
X186753430Y-98759506D01*
X186685439Y-98749500D01*
X185882369Y-98749500D01*
X185882363Y-98749500D01*
X185679844Y-98764322D01*
X185415444Y-98823220D01*
X185162445Y-98919983D01*
X184926219Y-99052561D01*
X184711827Y-99218108D01*
X184523812Y-99413121D01*
X184366200Y-99633420D01*
X184242343Y-99874325D01*
X184154882Y-100130691D01*
X184105681Y-100397066D01*
X184095788Y-100667768D01*
X163310500Y-100667768D01*
X163310500Y-96900000D01*
X184168540Y-96900000D01*
X184194402Y-96998926D01*
X184300316Y-97248160D01*
X184441387Y-97479315D01*
X184614618Y-97687475D01*
X184816302Y-97868183D01*
X185042154Y-98017605D01*
X185287352Y-98132550D01*
X185546682Y-98210570D01*
X185749999Y-98240493D01*
X185750000Y-98240493D01*
X185750000Y-96900000D01*
X186750000Y-96900000D01*
X186750000Y-98240310D01*
X186820085Y-98235180D01*
X187084411Y-98176298D01*
X187337344Y-98079559D01*
X187573500Y-97947022D01*
X187787838Y-97781517D01*
X187975801Y-97586557D01*
X188133372Y-97366315D01*
X188257194Y-97125478D01*
X188334117Y-96900000D01*
X189668540Y-96900000D01*
X189694402Y-96998926D01*
X189800316Y-97248160D01*
X189941387Y-97479315D01*
X190114618Y-97687475D01*
X190316302Y-97868183D01*
X190542154Y-98017605D01*
X190787352Y-98132550D01*
X191046682Y-98210570D01*
X191249999Y-98240493D01*
X191250000Y-98240493D01*
X191250000Y-96900000D01*
X192250000Y-96900000D01*
X192250000Y-98240310D01*
X192320085Y-98235180D01*
X192584411Y-98176298D01*
X192837344Y-98079559D01*
X193073500Y-97947022D01*
X193287838Y-97781517D01*
X193475801Y-97586557D01*
X193633372Y-97366315D01*
X193757194Y-97125478D01*
X193834117Y-96900000D01*
X192250000Y-96900000D01*
X191250000Y-96900000D01*
X189668540Y-96900000D01*
X188334117Y-96900000D01*
X186750000Y-96900000D01*
X185750000Y-96900000D01*
X184168540Y-96900000D01*
X163310500Y-96900000D01*
X163310500Y-95899999D01*
X184165882Y-95899999D01*
X184165883Y-95900000D01*
X185750000Y-95900000D01*
X185750000Y-94559690D01*
X185679914Y-94564819D01*
X185415588Y-94623701D01*
X185162655Y-94720440D01*
X184926499Y-94852977D01*
X184712161Y-95018482D01*
X184524198Y-95213442D01*
X184366627Y-95433684D01*
X184242805Y-95674521D01*
X184165882Y-95899999D01*
X163310500Y-95899999D01*
X163310500Y-94559506D01*
X186750000Y-94559506D01*
X186750000Y-95900000D01*
X188331459Y-95900000D01*
X188331459Y-95899999D01*
X189665882Y-95899999D01*
X189665883Y-95900000D01*
X191250000Y-95900000D01*
X191250000Y-94559690D01*
X191179914Y-94564819D01*
X190915588Y-94623701D01*
X190662655Y-94720440D01*
X190426499Y-94852977D01*
X190212161Y-95018482D01*
X190024198Y-95213442D01*
X189866627Y-95433684D01*
X189742805Y-95674521D01*
X189665882Y-95899999D01*
X188331459Y-95899999D01*
X188305597Y-95801073D01*
X188199683Y-95551839D01*
X188058612Y-95320684D01*
X187885381Y-95112524D01*
X187683697Y-94931816D01*
X187457845Y-94782394D01*
X187212647Y-94667449D01*
X186953317Y-94589429D01*
X186750000Y-94559506D01*
X192250000Y-94559506D01*
X192250000Y-95900000D01*
X193831459Y-95900000D01*
X193831459Y-95899999D01*
X193805597Y-95801073D01*
X193699683Y-95551839D01*
X193558612Y-95320684D01*
X193385381Y-95112524D01*
X193183697Y-94931816D01*
X192957845Y-94782394D01*
X192712647Y-94667449D01*
X192453317Y-94589429D01*
X192250000Y-94559506D01*
X186750000Y-94559506D01*
X163310500Y-94559506D01*
X163310500Y-92625527D01*
X163312073Y-92603932D01*
X163312297Y-92602400D01*
X163315289Y-92581977D01*
X163311066Y-92533718D01*
X163310500Y-92520734D01*
X163310500Y-92516294D01*
X163310283Y-92514435D01*
X163306936Y-92485805D01*
X163306505Y-92481591D01*
X163299998Y-92407202D01*
X163299997Y-92407200D01*
X163299714Y-92403961D01*
X163296354Y-92388804D01*
X163269700Y-92315571D01*
X163268292Y-92311523D01*
X163244813Y-92240665D01*
X163244811Y-92240662D01*
X163243786Y-92237568D01*
X163237024Y-92223600D01*
X163194217Y-92158515D01*
X163191887Y-92154859D01*
X163152711Y-92091344D01*
X163152709Y-92091342D01*
X163151002Y-92088574D01*
X163141195Y-92076534D01*
X163084538Y-92023081D01*
X163081429Y-92020062D01*
X162406173Y-91344805D01*
X162368891Y-91282511D01*
X162365472Y-91209994D01*
X162396726Y-91144469D01*
X162455235Y-91101491D01*
X162527109Y-91091262D01*
X162595281Y-91116210D01*
X162629509Y-91139472D01*
X162654627Y-91156543D01*
X162683471Y-91171239D01*
X162695669Y-91178196D01*
X162722993Y-91195537D01*
X162827690Y-91244804D01*
X162831856Y-91246845D01*
X162832616Y-91247232D01*
X162934968Y-91299383D01*
X162965438Y-91310352D01*
X162978379Y-91315712D01*
X163007685Y-91329503D01*
X163082114Y-91353686D01*
X163117738Y-91365261D01*
X163122153Y-91366773D01*
X163231004Y-91405962D01*
X163251368Y-91410513D01*
X163262589Y-91413022D01*
X163276132Y-91416727D01*
X163282594Y-91418826D01*
X163306921Y-91426731D01*
X163420592Y-91448414D01*
X163425162Y-91449361D01*
X163449316Y-91454760D01*
X163538060Y-91474598D01*
X163553024Y-91476012D01*
X163570286Y-91477643D01*
X163584177Y-91479620D01*
X163615985Y-91485688D01*
X163731483Y-91492954D01*
X163736093Y-91493316D01*
X163851302Y-91504207D01*
X163851306Y-91504206D01*
X163851308Y-91504207D01*
X163966917Y-91500574D01*
X163971597Y-91500500D01*
X166038499Y-91500500D01*
X166099185Y-91513418D01*
X166149348Y-91549933D01*
X166180289Y-91603713D01*
X166185482Y-91654140D01*
X166187000Y-91654140D01*
X166187000Y-93757876D01*
X166193408Y-93817481D01*
X166241866Y-93947405D01*
X166243704Y-93952331D01*
X166329954Y-94067546D01*
X166445169Y-94153796D01*
X166580017Y-94204091D01*
X166639627Y-94210500D01*
X168640372Y-94210499D01*
X168640376Y-94210499D01*
X168680112Y-94206226D01*
X168699983Y-94204091D01*
X168834831Y-94153796D01*
X168950046Y-94067546D01*
X169036296Y-93952331D01*
X169036296Y-93952329D01*
X169039983Y-93947405D01*
X169074410Y-93896141D01*
X169134794Y-93862316D01*
X169203947Y-93859423D01*
X169266946Y-93888086D01*
X169382559Y-93978071D01*
X169489005Y-94035677D01*
X169594336Y-94092679D01*
X169822087Y-94170866D01*
X170059601Y-94210500D01*
X170300398Y-94210500D01*
X170300399Y-94210500D01*
X170537913Y-94170866D01*
X170765664Y-94092679D01*
X170977439Y-93978072D01*
X171129880Y-93859423D01*
X171167461Y-93830173D01*
X171167463Y-93830171D01*
X171330551Y-93653010D01*
X171330551Y-93653008D01*
X171338913Y-93643926D01*
X171341321Y-93646143D01*
X171379365Y-93611110D01*
X171450287Y-93593143D01*
X171521212Y-93611100D01*
X171559009Y-93645895D01*
X171561483Y-93643619D01*
X171732876Y-93829800D01*
X171922834Y-93977651D01*
X172134540Y-94092220D01*
X172220000Y-94121559D01*
X172220000Y-93210000D01*
X173220000Y-93210000D01*
X173220000Y-94121559D01*
X173305459Y-94092220D01*
X173517165Y-93977651D01*
X173707123Y-93829800D01*
X173870155Y-93652701D01*
X174001815Y-93451180D01*
X174098507Y-93230744D01*
X174103761Y-93210000D01*
X173220000Y-93210000D01*
X172220000Y-93210000D01*
X172220000Y-92267768D01*
X184095788Y-92267768D01*
X184110774Y-92403961D01*
X184125414Y-92537018D01*
X184137168Y-92581976D01*
X184193928Y-92799090D01*
X184299869Y-93048389D01*
X184440979Y-93279606D01*
X184440981Y-93279608D01*
X184440982Y-93279610D01*
X184614255Y-93487820D01*
X184815998Y-93668582D01*
X185041910Y-93818044D01*
X185136351Y-93862316D01*
X185287173Y-93933019D01*
X185287175Y-93933019D01*
X185287176Y-93933020D01*
X185546569Y-94011060D01*
X185814561Y-94050500D01*
X186617631Y-94050500D01*
X186617637Y-94050500D01*
X186791223Y-94037794D01*
X186820156Y-94035677D01*
X187084553Y-93976780D01*
X187198971Y-93933019D01*
X187337554Y-93880016D01*
X187369092Y-93862316D01*
X187573777Y-93747441D01*
X187788177Y-93581888D01*
X187976186Y-93386881D01*
X188133799Y-93166579D01*
X188257656Y-92925675D01*
X188345118Y-92669305D01*
X188394319Y-92402933D01*
X188399259Y-92267768D01*
X189595788Y-92267768D01*
X189610774Y-92403961D01*
X189625414Y-92537018D01*
X189637168Y-92581976D01*
X189693928Y-92799090D01*
X189799869Y-93048389D01*
X189940979Y-93279606D01*
X189940981Y-93279608D01*
X189940982Y-93279610D01*
X190114255Y-93487820D01*
X190315998Y-93668582D01*
X190541910Y-93818044D01*
X190636351Y-93862316D01*
X190787173Y-93933019D01*
X190787175Y-93933019D01*
X190787176Y-93933020D01*
X191046569Y-94011060D01*
X191314561Y-94050500D01*
X192117631Y-94050500D01*
X192117637Y-94050500D01*
X192291223Y-94037794D01*
X192320156Y-94035677D01*
X192584553Y-93976780D01*
X192698971Y-93933019D01*
X192837554Y-93880016D01*
X192869092Y-93862316D01*
X193073777Y-93747441D01*
X193288177Y-93581888D01*
X193476186Y-93386881D01*
X193633799Y-93166579D01*
X193757656Y-92925675D01*
X193845118Y-92669305D01*
X193894319Y-92402933D01*
X193904212Y-92132235D01*
X193874586Y-91862982D01*
X193806072Y-91600912D01*
X193801519Y-91590199D01*
X193700130Y-91351610D01*
X193559020Y-91120393D01*
X193536546Y-91093388D01*
X193385745Y-90912180D01*
X193184002Y-90731418D01*
X192958090Y-90581956D01*
X192958086Y-90581954D01*
X192712826Y-90466980D01*
X192567372Y-90423220D01*
X192453431Y-90388940D01*
X192453427Y-90388939D01*
X192453426Y-90388939D01*
X192185439Y-90349500D01*
X191382369Y-90349500D01*
X191382363Y-90349500D01*
X191179844Y-90364322D01*
X190915444Y-90423220D01*
X190662445Y-90519983D01*
X190426219Y-90652561D01*
X190211827Y-90818108D01*
X190211823Y-90818111D01*
X190211823Y-90818112D01*
X190203842Y-90826390D01*
X190023812Y-91013121D01*
X189866200Y-91233420D01*
X189742343Y-91474325D01*
X189654882Y-91730691D01*
X189605681Y-91997066D01*
X189604217Y-92037113D01*
X189599077Y-92177784D01*
X189595788Y-92267768D01*
X188399259Y-92267768D01*
X188404212Y-92132235D01*
X188374586Y-91862982D01*
X188306072Y-91600912D01*
X188301519Y-91590199D01*
X188200130Y-91351610D01*
X188059020Y-91120393D01*
X188036546Y-91093388D01*
X187885745Y-90912180D01*
X187684002Y-90731418D01*
X187458090Y-90581956D01*
X187458086Y-90581954D01*
X187212826Y-90466980D01*
X187067372Y-90423220D01*
X186953431Y-90388940D01*
X186953427Y-90388939D01*
X186953426Y-90388939D01*
X186685439Y-90349500D01*
X185882369Y-90349500D01*
X185882363Y-90349500D01*
X185679844Y-90364322D01*
X185415444Y-90423220D01*
X185162445Y-90519983D01*
X184926219Y-90652561D01*
X184711827Y-90818108D01*
X184711823Y-90818111D01*
X184711823Y-90818112D01*
X184703842Y-90826390D01*
X184523812Y-91013121D01*
X184366200Y-91233420D01*
X184242343Y-91474325D01*
X184154882Y-91730691D01*
X184105681Y-91997066D01*
X184104217Y-92037113D01*
X184099077Y-92177784D01*
X184095788Y-92267768D01*
X172220000Y-92267768D01*
X172220000Y-91298440D01*
X173220000Y-91298440D01*
X173220000Y-92210000D01*
X174103760Y-92210000D01*
X174098507Y-92189255D01*
X174001815Y-91968819D01*
X173870155Y-91767298D01*
X173707123Y-91590199D01*
X173517165Y-91442348D01*
X173305459Y-91327779D01*
X173220000Y-91298440D01*
X172220000Y-91298440D01*
X172212097Y-91292797D01*
X172177667Y-91296171D01*
X172113472Y-91271393D01*
X172067256Y-91220411D01*
X172048877Y-91154099D01*
X172058732Y-91104370D01*
X172056153Y-91103613D01*
X172059154Y-91093392D01*
X172059156Y-91093388D01*
X172139775Y-90818822D01*
X172163680Y-90652561D01*
X172180500Y-90535582D01*
X172180500Y-90249418D01*
X172139776Y-89966183D01*
X172139775Y-89966182D01*
X172139775Y-89966177D01*
X172059156Y-89691611D01*
X171940282Y-89431313D01*
X171785573Y-89190582D01*
X171645088Y-89028454D01*
X171299299Y-88682665D01*
X171270853Y-88642857D01*
X171256834Y-88595980D01*
X171248566Y-88530527D01*
X171170320Y-88225778D01*
X171161275Y-88202933D01*
X171054494Y-87933234D01*
X170902916Y-87657516D01*
X170902915Y-87657515D01*
X170902912Y-87657509D01*
X170717980Y-87402973D01*
X170717978Y-87402970D01*
X170502594Y-87173610D01*
X170502592Y-87173609D01*
X170502590Y-87173606D01*
X170260166Y-86973054D01*
X169994504Y-86804461D01*
X169709812Y-86670495D01*
X169410585Y-86573270D01*
X169325656Y-86557069D01*
X169101515Y-86514312D01*
X168866083Y-86499500D01*
X168866082Y-86499500D01*
X165027459Y-86499500D01*
X164970439Y-86488158D01*
X164922100Y-86455859D01*
X161732551Y-83266310D01*
X161555604Y-83110309D01*
X161295378Y-82933460D01*
X161015028Y-82790615D01*
X160719001Y-82684039D01*
X160411936Y-82615401D01*
X160098691Y-82585792D01*
X159784224Y-82595674D01*
X159784217Y-82595674D01*
X159784217Y-82595675D01*
X159704830Y-82608248D01*
X159473453Y-82644895D01*
X159263921Y-82705770D01*
X159171311Y-82732676D01*
X159171309Y-82732676D01*
X159171305Y-82732678D01*
X158882557Y-82857630D01*
X158611732Y-83017795D01*
X158585941Y-83037801D01*
X158363120Y-83210639D01*
X158363118Y-83210641D01*
X158140641Y-83433118D01*
X157947795Y-83681732D01*
X157787630Y-83952557D01*
X157662678Y-84241305D01*
X157574895Y-84543453D01*
X157525674Y-84854224D01*
X157515792Y-85168691D01*
X157545401Y-85481936D01*
X157614039Y-85789001D01*
X157720615Y-86085028D01*
X157720616Y-86085031D01*
X157720617Y-86085032D01*
X157858826Y-86356283D01*
X157863461Y-86365378D01*
X157903786Y-86424715D01*
X157928735Y-86492891D01*
X157918506Y-86564764D01*
X157875527Y-86623272D01*
X157810002Y-86654525D01*
X157737485Y-86651106D01*
X157675192Y-86613824D01*
X157124141Y-86062773D01*
X157091842Y-86014434D01*
X157080500Y-85957414D01*
X157080500Y-78489701D01*
X157095015Y-78425555D01*
X157135731Y-78373906D01*
X157194717Y-78344818D01*
X157260478Y-78343957D01*
X157385354Y-78370500D01*
X157574645Y-78370500D01*
X157574646Y-78370500D01*
X157759803Y-78331144D01*
X157932730Y-78254151D01*
X157939885Y-78248952D01*
X157981416Y-78227792D01*
X158027459Y-78220500D01*
X162012541Y-78220500D01*
X162058584Y-78227792D01*
X162100114Y-78248952D01*
X162107270Y-78254151D01*
X162280197Y-78331144D01*
X162465354Y-78370500D01*
X162654645Y-78370500D01*
X162654646Y-78370500D01*
X162839803Y-78331144D01*
X163012730Y-78254151D01*
X163165871Y-78142888D01*
X163292533Y-78002216D01*
X163387179Y-77838284D01*
X163445674Y-77658256D01*
X163465460Y-77470000D01*
X163445674Y-77281744D01*
X163387179Y-77101716D01*
X163292533Y-76937784D01*
X163165871Y-76797112D01*
X163012730Y-76685849D01*
X162971129Y-76667327D01*
X162839803Y-76608856D01*
X162818905Y-76604414D01*
X162654646Y-76569500D01*
X162465354Y-76569500D01*
X162425998Y-76577865D01*
X162280198Y-76608855D01*
X162224345Y-76633723D01*
X162107270Y-76685849D01*
X162100114Y-76691047D01*
X162058584Y-76712208D01*
X162012541Y-76719500D01*
X158027459Y-76719500D01*
X157981416Y-76712208D01*
X157939885Y-76691047D01*
X157932730Y-76685849D01*
X157759803Y-76608856D01*
X157759801Y-76608855D01*
X157624624Y-76580123D01*
X157574646Y-76569500D01*
X157385354Y-76569500D01*
X157385353Y-76569500D01*
X157263382Y-76595425D01*
X157187846Y-76591863D01*
X157123787Y-76551678D01*
X157087705Y-76485222D01*
X157088893Y-76409612D01*
X157127043Y-76344324D01*
X157421365Y-76050001D01*
X167924670Y-76050001D01*
X167926553Y-76078732D01*
X167926789Y-76093448D01*
X167925722Y-76125367D01*
X167936620Y-76233705D01*
X167937049Y-76238869D01*
X167943966Y-76344382D01*
X167950236Y-76375908D01*
X167952349Y-76390054D01*
X167955881Y-76425160D01*
X167980346Y-76527820D01*
X167981542Y-76533292D01*
X167995689Y-76604414D01*
X168001519Y-76633722D01*
X168012933Y-76667350D01*
X168016769Y-76680660D01*
X168025731Y-76718261D01*
X168036842Y-76747110D01*
X168062460Y-76813628D01*
X168064507Y-76819281D01*
X168079674Y-76863958D01*
X168087754Y-76887762D01*
X168096349Y-76913079D01*
X168113526Y-76947912D01*
X168118934Y-76960258D01*
X168134022Y-76999433D01*
X168181526Y-77086119D01*
X168184494Y-77091822D01*
X168189374Y-77101717D01*
X168226828Y-77177665D01*
X168250271Y-77212751D01*
X168257031Y-77223896D01*
X168278825Y-77263665D01*
X168278826Y-77263666D01*
X168335490Y-77340573D01*
X168339423Y-77346176D01*
X168390728Y-77422960D01*
X168420742Y-77457184D01*
X168428671Y-77467038D01*
X168457554Y-77506238D01*
X168521651Y-77572515D01*
X168526551Y-77577835D01*
X168567037Y-77624000D01*
X168585244Y-77644760D01*
X168621986Y-77676982D01*
X168630827Y-77685401D01*
X168667020Y-77722824D01*
X168667021Y-77722825D01*
X168685268Y-77737234D01*
X168736757Y-77777894D01*
X168742618Y-77782773D01*
X168790695Y-77824936D01*
X168807043Y-77839273D01*
X168850465Y-77868287D01*
X168860026Y-77875240D01*
X168895002Y-77902859D01*
X168903485Y-77909558D01*
X168949008Y-77936521D01*
X168977021Y-77953113D01*
X168983866Y-77957422D01*
X169052335Y-78003172D01*
X169068251Y-78011021D01*
X169102181Y-78027754D01*
X169112201Y-78033181D01*
X169162730Y-78063109D01*
X169238348Y-78095174D01*
X169246081Y-78098717D01*
X169316924Y-78133653D01*
X169372713Y-78152590D01*
X169382976Y-78156501D01*
X169440128Y-78180736D01*
X169502441Y-78197805D01*
X169516109Y-78201549D01*
X169524641Y-78204163D01*
X169596274Y-78228480D01*
X169596276Y-78228480D01*
X169596278Y-78228481D01*
X169657367Y-78240631D01*
X169667625Y-78243053D01*
X169730729Y-78260340D01*
X169805526Y-78270398D01*
X169814688Y-78271924D01*
X169885620Y-78286034D01*
X169951104Y-78290325D01*
X169961186Y-78291332D01*
X170029347Y-78300500D01*
X170101447Y-78300500D01*
X170111190Y-78300818D01*
X170180000Y-78305329D01*
X170248809Y-78300818D01*
X170252079Y-78300711D01*
X170255231Y-78300500D01*
X170255244Y-78300500D01*
X170328636Y-78295586D01*
X170328844Y-78295617D01*
X170328842Y-78295573D01*
X170328842Y-78295572D01*
X170474380Y-78286034D01*
X170474386Y-78286032D01*
X170479095Y-78285724D01*
X170480628Y-78285412D01*
X170480634Y-78285412D01*
X170623589Y-78256354D01*
X170623760Y-78256320D01*
X170763722Y-78228481D01*
X170763723Y-78228480D01*
X170768095Y-78227611D01*
X170774527Y-78225872D01*
X170775890Y-78225398D01*
X170775903Y-78225396D01*
X170910408Y-78178690D01*
X170911288Y-78178389D01*
X170966275Y-78159722D01*
X171043077Y-78133652D01*
X171043081Y-78133649D01*
X171044262Y-78133249D01*
X171058874Y-78127137D01*
X171060537Y-78126560D01*
X171184563Y-78063885D01*
X171185729Y-78063302D01*
X171307665Y-78003172D01*
X171309302Y-78002077D01*
X171324893Y-77992974D01*
X171329459Y-77990668D01*
X171432424Y-77919986D01*
X171441312Y-77913885D01*
X171442810Y-77912870D01*
X171552957Y-77839273D01*
X171556960Y-77835761D01*
X171570874Y-77824944D01*
X171577869Y-77820144D01*
X171676027Y-77731363D01*
X171677591Y-77729970D01*
X171774758Y-77644758D01*
X171780479Y-77638232D01*
X171792562Y-77625965D01*
X171801330Y-77618035D01*
X171801333Y-77618032D01*
X171884652Y-77519480D01*
X171886275Y-77517596D01*
X171969273Y-77422957D01*
X171975959Y-77412950D01*
X171986059Y-77399537D01*
X171995865Y-77387939D01*
X172063489Y-77282007D01*
X172065095Y-77279548D01*
X172133172Y-77177665D01*
X172139979Y-77163860D01*
X172148023Y-77149587D01*
X172157993Y-77133970D01*
X172209456Y-77023066D01*
X172210974Y-77019897D01*
X172263647Y-76913087D01*
X172263646Y-76913087D01*
X172263652Y-76913077D01*
X172269681Y-76895315D01*
X172275604Y-76880522D01*
X172284823Y-76860658D01*
X172320075Y-76747012D01*
X172321231Y-76743452D01*
X172358481Y-76633722D01*
X172362793Y-76612040D01*
X172366616Y-76596980D01*
X172374093Y-76572879D01*
X172393328Y-76458844D01*
X172394087Y-76454714D01*
X172416034Y-76344380D01*
X172417697Y-76318993D01*
X172419452Y-76303963D01*
X172424209Y-76275770D01*
X172427959Y-76163593D01*
X172428194Y-76158845D01*
X172430369Y-76125675D01*
X172435329Y-76050000D01*
X172433444Y-76021261D01*
X172433209Y-76006552D01*
X172434277Y-75974631D01*
X172423372Y-75866238D01*
X172422951Y-75861166D01*
X172416034Y-75755620D01*
X172409764Y-75724101D01*
X172407650Y-75709951D01*
X172404118Y-75674838D01*
X172379649Y-75572167D01*
X172378454Y-75566694D01*
X172358481Y-75466277D01*
X172347072Y-75432668D01*
X172343228Y-75419334D01*
X172334269Y-75381739D01*
X172297531Y-75286352D01*
X172295485Y-75280699D01*
X172281445Y-75239340D01*
X172263652Y-75186923D01*
X172246479Y-75152099D01*
X172241069Y-75139751D01*
X172225977Y-75100566D01*
X172205380Y-75062982D01*
X172178443Y-75013829D01*
X172175498Y-75008166D01*
X172133173Y-74922338D01*
X172109741Y-74887270D01*
X172102963Y-74876094D01*
X172081175Y-74836334D01*
X172024506Y-74759422D01*
X172020573Y-74753818D01*
X171969277Y-74677047D01*
X171939256Y-74642815D01*
X171931325Y-74632956D01*
X171902449Y-74593765D01*
X171892405Y-74583380D01*
X171838330Y-74527466D01*
X171833437Y-74522152D01*
X171774759Y-74455242D01*
X171749875Y-74433420D01*
X171738009Y-74423014D01*
X171729163Y-74414588D01*
X171692980Y-74377176D01*
X171623245Y-74322107D01*
X171617376Y-74317222D01*
X171552957Y-74260727D01*
X171509527Y-74231707D01*
X171499975Y-74224761D01*
X171456518Y-74190444D01*
X171449184Y-74186100D01*
X171382958Y-74146874D01*
X171376149Y-74142587D01*
X171307665Y-74096828D01*
X171257814Y-74072243D01*
X171247795Y-74066816D01*
X171197273Y-74036892D01*
X171153857Y-74018482D01*
X171121653Y-74004826D01*
X171113933Y-74001289D01*
X171057452Y-73973437D01*
X171043077Y-73966348D01*
X170987277Y-73947406D01*
X170977009Y-73943492D01*
X170949473Y-73931816D01*
X170919872Y-73919264D01*
X170843883Y-73898448D01*
X170835355Y-73895835D01*
X170763722Y-73871518D01*
X170702643Y-73859369D01*
X170692349Y-73856938D01*
X170629269Y-73839659D01*
X170554497Y-73829603D01*
X170545291Y-73828070D01*
X170474383Y-73813966D01*
X170408912Y-73809674D01*
X170398803Y-73808664D01*
X170330653Y-73799500D01*
X170258553Y-73799500D01*
X170248809Y-73799181D01*
X170244232Y-73798881D01*
X170180000Y-73794670D01*
X170115767Y-73798881D01*
X170111190Y-73799181D01*
X170107910Y-73799288D01*
X170031361Y-73804412D01*
X170031157Y-73804426D01*
X169880906Y-73814274D01*
X169736538Y-73843617D01*
X169735931Y-73843739D01*
X169591942Y-73872381D01*
X169585432Y-73874139D01*
X169449648Y-73921288D01*
X169448670Y-73921624D01*
X169315759Y-73966742D01*
X169301150Y-73972853D01*
X169299467Y-73973437D01*
X169175404Y-74036128D01*
X169174107Y-74036776D01*
X169052328Y-74096831D01*
X169050686Y-74097929D01*
X169035122Y-74107016D01*
X169030543Y-74109329D01*
X168918708Y-74186100D01*
X168917163Y-74187146D01*
X168807043Y-74260726D01*
X168803028Y-74264248D01*
X168789121Y-74275057D01*
X168782130Y-74279855D01*
X168684033Y-74368579D01*
X168682331Y-74370095D01*
X168585236Y-74455246D01*
X168579508Y-74461778D01*
X168567456Y-74474016D01*
X168558672Y-74481962D01*
X168475404Y-74580450D01*
X168473645Y-74582492D01*
X168390727Y-74677040D01*
X168384033Y-74687059D01*
X168373942Y-74700459D01*
X168364138Y-74712057D01*
X168364135Y-74712061D01*
X168307311Y-74801073D01*
X168296570Y-74817898D01*
X168294870Y-74820500D01*
X168226827Y-74922336D01*
X168220016Y-74936146D01*
X168211981Y-74950405D01*
X168202005Y-74966033D01*
X168150545Y-75076925D01*
X168149024Y-75080104D01*
X168096346Y-75186926D01*
X168090320Y-75204675D01*
X168084393Y-75219477D01*
X168075177Y-75239340D01*
X168039953Y-75352890D01*
X168038736Y-75356637D01*
X168001517Y-75466281D01*
X167997205Y-75487958D01*
X167993382Y-75503020D01*
X167985907Y-75527119D01*
X167966685Y-75641070D01*
X167965898Y-75645352D01*
X167943966Y-75755616D01*
X167942301Y-75781010D01*
X167940546Y-75796033D01*
X167935791Y-75824227D01*
X167932040Y-75936393D01*
X167931804Y-75941156D01*
X167924670Y-76050001D01*
X157421365Y-76050001D01*
X157627537Y-75843828D01*
X157661797Y-75818246D01*
X157701908Y-75803449D01*
X157759803Y-75791144D01*
X157932730Y-75714151D01*
X158085871Y-75602888D01*
X158212533Y-75462216D01*
X158307179Y-75298284D01*
X158365674Y-75118256D01*
X158385460Y-74930000D01*
X158365674Y-74741744D01*
X158307179Y-74561716D01*
X158250462Y-74463479D01*
X158230500Y-74388979D01*
X158230500Y-68645527D01*
X158232073Y-68623932D01*
X158235289Y-68601977D01*
X158231066Y-68553718D01*
X158230500Y-68540734D01*
X158230500Y-68536294D01*
X158230500Y-68536291D01*
X158226936Y-68505805D01*
X158226505Y-68501591D01*
X158219998Y-68427202D01*
X158219997Y-68427200D01*
X158219714Y-68423961D01*
X158216354Y-68408803D01*
X158189718Y-68335620D01*
X158188295Y-68331526D01*
X158163794Y-68257585D01*
X158157021Y-68243595D01*
X158114212Y-68178507D01*
X158111901Y-68174880D01*
X158072711Y-68111344D01*
X158072707Y-68111340D01*
X158071003Y-68108577D01*
X158061190Y-68096529D01*
X158004538Y-68043081D01*
X158001429Y-68040062D01*
X157127044Y-67165677D01*
X157088892Y-67100387D01*
X157087704Y-67024777D01*
X157123787Y-66958321D01*
X157187846Y-66918136D01*
X157263380Y-66914574D01*
X157385354Y-66940500D01*
X157574645Y-66940500D01*
X157574646Y-66940500D01*
X157759803Y-66901144D01*
X157932730Y-66824151D01*
X157939885Y-66818952D01*
X157981416Y-66797792D01*
X158027459Y-66790500D01*
X162012541Y-66790500D01*
X162058584Y-66797792D01*
X162100114Y-66818952D01*
X162107270Y-66824151D01*
X162280197Y-66901144D01*
X162465354Y-66940500D01*
X162654645Y-66940500D01*
X162654646Y-66940500D01*
X162839803Y-66901144D01*
X163012730Y-66824151D01*
X163165871Y-66712888D01*
X163292533Y-66572216D01*
X163387179Y-66408284D01*
X163445674Y-66228256D01*
X163465460Y-66040000D01*
X163445674Y-65851744D01*
X163387179Y-65671716D01*
X163292533Y-65507784D01*
X163165871Y-65367112D01*
X163012730Y-65255849D01*
X162990292Y-65245859D01*
X162839803Y-65178856D01*
X162759861Y-65161864D01*
X162654646Y-65139500D01*
X162465354Y-65139500D01*
X162425999Y-65147865D01*
X162280198Y-65178855D01*
X162184264Y-65221568D01*
X162107270Y-65255849D01*
X162100114Y-65261047D01*
X162058584Y-65282208D01*
X162012541Y-65289500D01*
X158027459Y-65289500D01*
X157981416Y-65282208D01*
X157939885Y-65261047D01*
X157932730Y-65255849D01*
X157759803Y-65178856D01*
X157759801Y-65178855D01*
X157624624Y-65150123D01*
X157574646Y-65139500D01*
X157385354Y-65139500D01*
X157385353Y-65139500D01*
X157263379Y-65165426D01*
X157187844Y-65161864D01*
X157123784Y-65121679D01*
X157087702Y-65055223D01*
X157088890Y-64979613D01*
X157127040Y-64914325D01*
X157627536Y-64413829D01*
X157661797Y-64388246D01*
X157701908Y-64373449D01*
X157759803Y-64361144D01*
X157932730Y-64284151D01*
X158085871Y-64172888D01*
X158212533Y-64032216D01*
X158307179Y-63868284D01*
X158365674Y-63688256D01*
X158385460Y-63500000D01*
X158365674Y-63311744D01*
X158307179Y-63131716D01*
X158212533Y-62967784D01*
X158085871Y-62827112D01*
X157932730Y-62715849D01*
X157759803Y-62638856D01*
X157574646Y-62599500D01*
X157385354Y-62599500D01*
X157292775Y-62619178D01*
X157200196Y-62638856D01*
X157027271Y-62715848D01*
X156874127Y-62827113D01*
X156747467Y-62967783D01*
X156652819Y-63131717D01*
X156599333Y-63296331D01*
X156562985Y-63355646D01*
X154672773Y-65245859D01*
X154624434Y-65278158D01*
X154567414Y-65289500D01*
X145327459Y-65289500D01*
X145281416Y-65282208D01*
X145239885Y-65261047D01*
X145232730Y-65255849D01*
X145059803Y-65178856D01*
X145059801Y-65178855D01*
X144924624Y-65150123D01*
X144874646Y-65139500D01*
X144685354Y-65139500D01*
X144592775Y-65159177D01*
X144500196Y-65178856D01*
X144327271Y-65255848D01*
X144174127Y-65367113D01*
X144047467Y-65507783D01*
X143952820Y-65671717D01*
X143894326Y-65851742D01*
X143874540Y-66039999D01*
X143894326Y-66228257D01*
X143946519Y-66388891D01*
X143952821Y-66408284D01*
X144047467Y-66572216D01*
X144174129Y-66712888D01*
X144327270Y-66824151D01*
X144500197Y-66901144D01*
X144558090Y-66913449D01*
X144598201Y-66928247D01*
X144632465Y-66953832D01*
X145135859Y-67457226D01*
X145168158Y-67505565D01*
X145179500Y-67562585D01*
X145179500Y-76450299D01*
X145164985Y-76514445D01*
X145124269Y-76566094D01*
X145065283Y-76595182D01*
X144999521Y-76596042D01*
X144874646Y-76569500D01*
X144685354Y-76569500D01*
X144603596Y-76586878D01*
X144500196Y-76608856D01*
X144327271Y-76685848D01*
X144174127Y-76797113D01*
X144047467Y-76937783D01*
X143952820Y-77101717D01*
X143894326Y-77281742D01*
X143874539Y-77469999D01*
X143894326Y-77658257D01*
X143952820Y-77838282D01*
X144009538Y-77936521D01*
X144029500Y-78011021D01*
X144029500Y-79637415D01*
X144018158Y-79694435D01*
X143985859Y-79742774D01*
X141777774Y-81950859D01*
X141729435Y-81983158D01*
X141672415Y-81994500D01*
X138771102Y-81994500D01*
X138714082Y-81983158D01*
X138665743Y-81950859D01*
X138049141Y-81334257D01*
X138016842Y-81285918D01*
X138005500Y-81228898D01*
X138005500Y-61654500D01*
X138016842Y-61597480D01*
X138049141Y-61549141D01*
X138097480Y-61516842D01*
X138154500Y-61505500D01*
X165228898Y-61505500D01*
X165285918Y-61516842D01*
X165334257Y-61549141D01*
X178450858Y-74665742D01*
X178483157Y-74714081D01*
X178494499Y-74771101D01*
X178494499Y-85376001D01*
X178500035Y-85418044D01*
X178511725Y-85506834D01*
X178518742Y-85533020D01*
X178528339Y-85568836D01*
X178578836Y-85690749D01*
X178654228Y-85789001D01*
X178659171Y-85795442D01*
X178704558Y-85840829D01*
X178809250Y-85921163D01*
X178931166Y-85971662D01*
X178993166Y-85988275D01*
X179111651Y-86003874D01*
X179123999Y-86005500D01*
X185178024Y-86005500D01*
X185244535Y-86021168D01*
X185297057Y-86064878D01*
X185324545Y-86127436D01*
X185321219Y-86195686D01*
X185287776Y-86255274D01*
X185231251Y-86293668D01*
X185162445Y-86319983D01*
X184926219Y-86452561D01*
X184711827Y-86618108D01*
X184711823Y-86618111D01*
X184711823Y-86618112D01*
X184680013Y-86651106D01*
X184523812Y-86813121D01*
X184366200Y-87033420D01*
X184242343Y-87274325D01*
X184154882Y-87530691D01*
X184105681Y-87797066D01*
X184095788Y-88067768D01*
X184125414Y-88337017D01*
X184193928Y-88599090D01*
X184299869Y-88848389D01*
X184440979Y-89079606D01*
X184440981Y-89079608D01*
X184440982Y-89079610D01*
X184614255Y-89287820D01*
X184815998Y-89468582D01*
X185041910Y-89618044D01*
X185164542Y-89675531D01*
X185287173Y-89733019D01*
X185287175Y-89733019D01*
X185287176Y-89733020D01*
X185546569Y-89811060D01*
X185814561Y-89850500D01*
X186617631Y-89850500D01*
X186617637Y-89850500D01*
X186791223Y-89837794D01*
X186820156Y-89835677D01*
X187084553Y-89776780D01*
X187198971Y-89733019D01*
X187337554Y-89680016D01*
X187337558Y-89680014D01*
X187573777Y-89547441D01*
X187788177Y-89381888D01*
X187976186Y-89186881D01*
X188133799Y-88966579D01*
X188257656Y-88725675D01*
X188345118Y-88469305D01*
X188394319Y-88202933D01*
X188399259Y-88067768D01*
X189595788Y-88067768D01*
X189625414Y-88337017D01*
X189693928Y-88599090D01*
X189799869Y-88848389D01*
X189940979Y-89079606D01*
X189940981Y-89079608D01*
X189940982Y-89079610D01*
X190114255Y-89287820D01*
X190315998Y-89468582D01*
X190541910Y-89618044D01*
X190664542Y-89675531D01*
X190787173Y-89733019D01*
X190787175Y-89733019D01*
X190787176Y-89733020D01*
X191046569Y-89811060D01*
X191314561Y-89850500D01*
X192117631Y-89850500D01*
X192117637Y-89850500D01*
X192291223Y-89837794D01*
X192320156Y-89835677D01*
X192584553Y-89776780D01*
X192698971Y-89733019D01*
X192837554Y-89680016D01*
X192837558Y-89680014D01*
X193073777Y-89547441D01*
X193288177Y-89381888D01*
X193476186Y-89186881D01*
X193633799Y-88966579D01*
X193757656Y-88725675D01*
X193845118Y-88469305D01*
X193894319Y-88202933D01*
X193904212Y-87932235D01*
X193874586Y-87662982D01*
X193806072Y-87400912D01*
X193700130Y-87151610D01*
X193628000Y-87033421D01*
X193559020Y-86920393D01*
X193517016Y-86869920D01*
X193385745Y-86712180D01*
X193184002Y-86531418D01*
X192958090Y-86381956D01*
X192940498Y-86373709D01*
X192712826Y-86266980D01*
X192567372Y-86223220D01*
X192453431Y-86188940D01*
X192453427Y-86188939D01*
X192453426Y-86188939D01*
X192185439Y-86149500D01*
X191382369Y-86149500D01*
X191382363Y-86149500D01*
X191179844Y-86164322D01*
X190915444Y-86223220D01*
X190662445Y-86319983D01*
X190426219Y-86452561D01*
X190211827Y-86618108D01*
X190211823Y-86618111D01*
X190211823Y-86618112D01*
X190180013Y-86651106D01*
X190023812Y-86813121D01*
X189866200Y-87033420D01*
X189742343Y-87274325D01*
X189654882Y-87530691D01*
X189605681Y-87797066D01*
X189595788Y-88067768D01*
X188399259Y-88067768D01*
X188404212Y-87932235D01*
X188374586Y-87662982D01*
X188306072Y-87400912D01*
X188200130Y-87151610D01*
X188128000Y-87033421D01*
X188059020Y-86920393D01*
X188017016Y-86869920D01*
X187885745Y-86712180D01*
X187684002Y-86531418D01*
X187458090Y-86381956D01*
X187260676Y-86289412D01*
X187208239Y-86248410D01*
X187178890Y-86188665D01*
X187178485Y-86122103D01*
X187207105Y-86062006D01*
X187259038Y-86020368D01*
X187323920Y-86005500D01*
X188876001Y-86005500D01*
X188887283Y-86004014D01*
X189006834Y-85988275D01*
X189068834Y-85971662D01*
X189190750Y-85921163D01*
X189295442Y-85840829D01*
X189340829Y-85795442D01*
X189421163Y-85690750D01*
X189471662Y-85568834D01*
X189488275Y-85506834D01*
X189505500Y-85376000D01*
X189505500Y-84687277D01*
X189520766Y-84621580D01*
X189563435Y-84569344D01*
X189624764Y-84541274D01*
X189692187Y-84543122D01*
X189751887Y-84574508D01*
X189791631Y-84629002D01*
X189799869Y-84648389D01*
X189940979Y-84879606D01*
X189940981Y-84879608D01*
X189940982Y-84879610D01*
X190114255Y-85087820D01*
X190315998Y-85268582D01*
X190541910Y-85418044D01*
X190664543Y-85475532D01*
X190787173Y-85533019D01*
X190787175Y-85533019D01*
X190787176Y-85533020D01*
X191046569Y-85611060D01*
X191314561Y-85650500D01*
X192117631Y-85650500D01*
X192117637Y-85650500D01*
X192291223Y-85637794D01*
X192320156Y-85635677D01*
X192584553Y-85576780D01*
X192698971Y-85533019D01*
X192837554Y-85480016D01*
X192837558Y-85480014D01*
X193073777Y-85347441D01*
X193288177Y-85181888D01*
X193476186Y-84986881D01*
X193633799Y-84766579D01*
X193757656Y-84525675D01*
X193845118Y-84269305D01*
X193894319Y-84002933D01*
X193904212Y-83732235D01*
X193874586Y-83462982D01*
X193806072Y-83200912D01*
X193700130Y-82951610D01*
X193680421Y-82919316D01*
X193559020Y-82720393D01*
X193528766Y-82684039D01*
X193385745Y-82512180D01*
X193184002Y-82331418D01*
X192958090Y-82181956D01*
X192958086Y-82181954D01*
X192712826Y-82066980D01*
X192567372Y-82023220D01*
X192453431Y-81988940D01*
X192453427Y-81988939D01*
X192453426Y-81988939D01*
X192185439Y-81949500D01*
X191382369Y-81949500D01*
X191382363Y-81949500D01*
X191179844Y-81964322D01*
X190915444Y-82023220D01*
X190662445Y-82119983D01*
X190426219Y-82252561D01*
X190211827Y-82418108D01*
X190023812Y-82613121D01*
X189866200Y-82833420D01*
X189787012Y-82987445D01*
X189744846Y-83037801D01*
X189685124Y-83065135D01*
X189619452Y-83064135D01*
X189560590Y-83034997D01*
X189519976Y-82983380D01*
X189505500Y-82919316D01*
X189505500Y-80487277D01*
X189520766Y-80421580D01*
X189563435Y-80369344D01*
X189624764Y-80341274D01*
X189692187Y-80343122D01*
X189751887Y-80374508D01*
X189791631Y-80429002D01*
X189799869Y-80448389D01*
X189940979Y-80679606D01*
X190111425Y-80884420D01*
X190114255Y-80887820D01*
X190315998Y-81068582D01*
X190541910Y-81218044D01*
X190565064Y-81228898D01*
X190787173Y-81333019D01*
X190787175Y-81333019D01*
X190787176Y-81333020D01*
X191046569Y-81411060D01*
X191314561Y-81450500D01*
X192117631Y-81450500D01*
X192117637Y-81450500D01*
X192291223Y-81437794D01*
X192320156Y-81435677D01*
X192584553Y-81376780D01*
X192698971Y-81333019D01*
X192837554Y-81280016D01*
X192837558Y-81280014D01*
X193073777Y-81147441D01*
X193288177Y-80981888D01*
X193476186Y-80786881D01*
X193633799Y-80566579D01*
X193757656Y-80325675D01*
X193845118Y-80069305D01*
X193894319Y-79802933D01*
X193904212Y-79532235D01*
X193874586Y-79262982D01*
X193806072Y-79000912D01*
X193700130Y-78751610D01*
X193700129Y-78751609D01*
X193559020Y-78520393D01*
X193533478Y-78489701D01*
X193385745Y-78312180D01*
X193184002Y-78131418D01*
X192958090Y-77981956D01*
X192905759Y-77957424D01*
X192712826Y-77866980D01*
X192557135Y-77820140D01*
X192453431Y-77788940D01*
X192453427Y-77788939D01*
X192453426Y-77788939D01*
X192185439Y-77749500D01*
X191382369Y-77749500D01*
X191382363Y-77749500D01*
X191179844Y-77764322D01*
X190915444Y-77823220D01*
X190662445Y-77919983D01*
X190426219Y-78052561D01*
X190211827Y-78218108D01*
X190211823Y-78218111D01*
X190211823Y-78218112D01*
X190142202Y-78290324D01*
X190023812Y-78413121D01*
X189866200Y-78633420D01*
X189787012Y-78787445D01*
X189744846Y-78837801D01*
X189685124Y-78865135D01*
X189619452Y-78864135D01*
X189560590Y-78834997D01*
X189519976Y-78783380D01*
X189505500Y-78719316D01*
X189505500Y-77623999D01*
X189499422Y-77577835D01*
X189488275Y-77493166D01*
X189471662Y-77431166D01*
X189421163Y-77309250D01*
X189368263Y-77240310D01*
X189340830Y-77204559D01*
X189295440Y-77159169D01*
X189190749Y-77078836D01*
X189068836Y-77028339D01*
X189068837Y-77028339D01*
X189068834Y-77028338D01*
X189006834Y-77011725D01*
X188908708Y-76998806D01*
X188876001Y-76994500D01*
X188876000Y-76994500D01*
X187933819Y-76994500D01*
X187866660Y-76978506D01*
X187813919Y-76933958D01*
X187786918Y-76870420D01*
X187791454Y-76801532D01*
X187826552Y-76742084D01*
X187976186Y-76586881D01*
X188133799Y-76366579D01*
X188257656Y-76125675D01*
X188334646Y-75900000D01*
X189668540Y-75900000D01*
X189694402Y-75998926D01*
X189800316Y-76248160D01*
X189941387Y-76479315D01*
X190114618Y-76687475D01*
X190316302Y-76868183D01*
X190542154Y-77017605D01*
X190787352Y-77132550D01*
X191046682Y-77210570D01*
X191249999Y-77240493D01*
X191250000Y-77240493D01*
X191250000Y-75900000D01*
X192250000Y-75900000D01*
X192250000Y-77240310D01*
X192320085Y-77235180D01*
X192584411Y-77176298D01*
X192837344Y-77079559D01*
X193073500Y-76947022D01*
X193287838Y-76781517D01*
X193475801Y-76586557D01*
X193633372Y-76366315D01*
X193757194Y-76125478D01*
X193834117Y-75900000D01*
X192250000Y-75900000D01*
X191250000Y-75900000D01*
X189668540Y-75900000D01*
X188334646Y-75900000D01*
X188345118Y-75869305D01*
X188394319Y-75602933D01*
X188404212Y-75332235D01*
X188374586Y-75062982D01*
X188331977Y-74899999D01*
X189665882Y-74899999D01*
X189665883Y-74900000D01*
X191250000Y-74900000D01*
X191250000Y-73559690D01*
X191179914Y-73564819D01*
X190915588Y-73623701D01*
X190662655Y-73720440D01*
X190426499Y-73852977D01*
X190212161Y-74018482D01*
X190024198Y-74213442D01*
X189866627Y-74433684D01*
X189742805Y-74674521D01*
X189665882Y-74899999D01*
X188331977Y-74899999D01*
X188306072Y-74800912D01*
X188280928Y-74741744D01*
X188200130Y-74551610D01*
X188059020Y-74320393D01*
X188025284Y-74279855D01*
X187885745Y-74112180D01*
X187684002Y-73931418D01*
X187458090Y-73781956D01*
X187458086Y-73781954D01*
X187212826Y-73666980D01*
X187067372Y-73623220D01*
X186953431Y-73588940D01*
X186953427Y-73588939D01*
X186953426Y-73588939D01*
X186753430Y-73559506D01*
X192250000Y-73559506D01*
X192250000Y-74900000D01*
X193831459Y-74900000D01*
X193831459Y-74899999D01*
X193805597Y-74801073D01*
X193699683Y-74551839D01*
X193558612Y-74320684D01*
X193385381Y-74112524D01*
X193183697Y-73931816D01*
X192957845Y-73782394D01*
X192712647Y-73667449D01*
X192453317Y-73589429D01*
X192250000Y-73559506D01*
X186753430Y-73559506D01*
X186685439Y-73549500D01*
X185882369Y-73549500D01*
X185882363Y-73549500D01*
X185679844Y-73564322D01*
X185415444Y-73623220D01*
X185162445Y-73719983D01*
X184926219Y-73852561D01*
X184711827Y-74018108D01*
X184523812Y-74213121D01*
X184366200Y-74433420D01*
X184287012Y-74587445D01*
X184244846Y-74637801D01*
X184185124Y-74665135D01*
X184119452Y-74664135D01*
X184060590Y-74634997D01*
X184019976Y-74583380D01*
X184005500Y-74519316D01*
X184005500Y-56149500D01*
X184016842Y-56092480D01*
X184049141Y-56044141D01*
X184097480Y-56011842D01*
X184154500Y-56000500D01*
X196850500Y-56000500D01*
X196907520Y-56011842D01*
X196955859Y-56044141D01*
X196988158Y-56092480D01*
X196999500Y-56149500D01*
X196999500Y-140850500D01*
X196988158Y-140907520D01*
X196955859Y-140955859D01*
X196907520Y-140988158D01*
X196850500Y-140999500D01*
X112149500Y-140999500D01*
X112092480Y-140988158D01*
X112044141Y-140955859D01*
X112011842Y-140907520D01*
X112000500Y-140850500D01*
X112000500Y-56149500D01*
X112011842Y-56092480D01*
X112044141Y-56044141D01*
X112092480Y-56011842D01*
X112149500Y-56000500D01*
X118338392Y-56000500D01*
X118395624Y-56011930D01*
G37*
%TD.AperFunction*%
%TD*%
%TA.AperFunction,Conductor*%
%TO.N,+12V*%
G36*
X183438000Y-56017113D02*
G01*
X183483387Y-56062500D01*
X183500000Y-56124500D01*
X183500000Y-72500000D01*
X183500000Y-77500000D01*
X188876000Y-77500000D01*
X188938000Y-77516613D01*
X188983387Y-77562000D01*
X189000000Y-77624000D01*
X189000000Y-85376000D01*
X188983387Y-85438000D01*
X188938000Y-85483387D01*
X188876000Y-85500000D01*
X179124000Y-85500000D01*
X179062000Y-85483387D01*
X179016613Y-85438000D01*
X179000000Y-85376000D01*
X179000000Y-74500001D01*
X178999999Y-74499999D01*
X165500000Y-61000000D01*
X131500000Y-61000000D01*
X131499999Y-61000000D01*
X128500000Y-63999999D01*
X128500000Y-64000000D01*
X128500000Y-98500000D01*
X134876000Y-98500000D01*
X134938000Y-98516613D01*
X134983387Y-98562000D01*
X135000000Y-98624000D01*
X135000000Y-135876000D01*
X134983387Y-135938000D01*
X134938000Y-135983387D01*
X134876000Y-136000000D01*
X118624768Y-136000000D01*
X118562547Y-135983259D01*
X118517127Y-135937558D01*
X118500770Y-135875235D01*
X118812494Y-85376000D01*
X118993063Y-56123734D01*
X119009930Y-56062059D01*
X119055282Y-56016986D01*
X119117061Y-56000500D01*
X183376000Y-56000500D01*
X183438000Y-56017113D01*
G37*
%TD.AperFunction*%
%TD*%
%TA.AperFunction,Conductor*%
%TO.N,load*%
G36*
X137438000Y-61516613D02*
G01*
X137483387Y-61562000D01*
X137500000Y-61624000D01*
X137500000Y-81500000D01*
X138500000Y-82500000D01*
X141876000Y-82500000D01*
X141938000Y-82516613D01*
X141983387Y-82562000D01*
X142000000Y-82624000D01*
X142000000Y-87439353D01*
X141987391Y-87493833D01*
X141952129Y-87537232D01*
X137500000Y-91000000D01*
X137500000Y-91000001D01*
X137500000Y-97876000D01*
X137483387Y-97938000D01*
X137438000Y-97983387D01*
X137376000Y-98000000D01*
X129124000Y-98000000D01*
X129062000Y-97983387D01*
X129016613Y-97938000D01*
X129000000Y-97876000D01*
X129000000Y-64551362D01*
X129009439Y-64503909D01*
X129036319Y-64463681D01*
X131963681Y-61536319D01*
X132003909Y-61509439D01*
X132051362Y-61500000D01*
X137376000Y-61500000D01*
X137438000Y-61516613D01*
G37*
%TD.AperFunction*%
%TD*%
M02*
