<?xml version='1.0' encoding='UTF-8' standalone='no'?>
<svg xmlns:svg="http://www.w3.org/2000/svg" viewBox="0 0 4200 2970" xmlns:dc="http://purl.org/dc/elements/1.1/" xmlns:sodipodi="http://sodipodi.sourceforge.net/DTD/sodipodi-0.dtd" height="297mm" xmlns="http://www.w3.org/2000/svg" xmlns:inkscape="http://www.inkscape.org/namespaces/inkscape" width="420mm" xmlns:freecad="https://www.freecad.org/wiki/index.php?title=Svg_Namespace" xmlns:cc="http://creativecommons.org/ns#" xmlns:rdf="http://www.w3.org/1999/02/22-rdf-syntax-ns#" xmlns:xlink="http://www.w3.org/1999/xlink" version="1.2" baseProfile="tiny">
 <title>FreeCAD SVG Export</title>
 <desc>Drawing page: Page exported from FreeCAD document: OCT_ULBLK_AB</desc>
 <defs/>
 <g id="Page" inkscape:groupmode="layer" inkscape:label="TechDraw">
  <g id="A3_Landscape_ISO5457_advanced.svg" style="stroke: none;" transform="scale(10.000000, 10.000000)">
   <title id="title">Drawing sheet ISO 5457 - A3T - Advanced</title>
   <metadata id="metadata">
    <rdf:RDF>
     <cc:Work rdf:about="">
      <cc:license rdf:resource="http://creativecommons.org/publicdomain/zero/1.0/"/>
      <dc:title>Drawing sheet ISO 5457 - A3T - Advanced</dc:title>
      <dc:creator>
       <cc:Agent>
        <dc:title>Benjamin May</dc:title>
       </cc:Agent>
      </dc:creator>
     </cc:Work>
     <cc:License rdf:about="http://creativecommons.org/publicdomain/zero/1.0/">
      <cc:permits rdf:resource="http://creativecommons.org/ns#Reproduction"/>
      <cc:permits rdf:resource="http://creativecommons.org/ns#Distribution"/>
      <cc:permits rdf:resource="http://creativecommons.org/ns#DerivativeWorks"/>
     </cc:License>
    </rdf:RDF>
   </metadata>
   <rect id="drawing_space_frame" y="10" height="277" style="fill:none;stroke:#000000;stroke-width:0.7;stroke-linecap:round;stroke-linejoin:round" width="390" x="20"/>
   <g id="centring_marks" style="fill:none;stroke:#000000;stroke-width:0.7;stroke-linecap:round">
    <path id="top_centering" d="m 210,5 v 10"/>
    <path id="right_centering" d="m 415,148.5 h -10"/>
    <path id="bottom_centering" d="m 210,292 v -10"/>
    <path id="left_centering" d="m 15,148.5 h 10"/>
   </g>
   <g id="grid_reference_system">
    <g id="grid_reference_borders" style="fill:none;stroke:#000000;stroke-width:0.35;stroke-linecap:round;stroke-linejoin:round">
     <rect id="grid_reference_border" y="5" height="287" width="400" x="15"/>
     <path id="upper_border_1" d="m 60,5 v 5"/>
     <path id="upper_border_2" d="m 110,5 v 5"/>
     <path id="upper_border_3" d="m 160,5 v 5"/>
     <path id="upper_border_5" d="m 260,5 v 5"/>
     <path id="upper_border_6" d="m 310,5 v 5"/>
     <path id="upper_border_7" d="m 360,5 v 5"/>
     <path id="right_border_1" d="m 415,48.5 h -5"/>
     <path id="right_border_2" d="m 415,98.5 h -5"/>
     <path id="right_border_4" d="m 415,198.5 h -5"/>
     <path id="right_border_5" d="m 415,248.5 h -5"/>
     <path id="lower_border_1" d="m 60,292 v -5"/>
     <path id="lower_border_2" d="m 110,292 v -5"/>
     <path id="lower_border_3" d="m 160,292 v -5"/>
     <path id="lower_border_5" d="m 260,292 v -5"/>
     <path id="lower_border_6" d="m 310,292 v -5"/>
     <path id="lower_border_7" d="m 360,292 v -5"/>
     <path id="left_border_1" d="m 15,48.5 h 5"/>
     <path id="left_border_2" d="m 15,98.5 h 5"/>
     <path id="left_border_4" d="m 15,198.5 h 5"/>
     <path id="left_border_5" d="m 15,248.5 h 5"/>
    </g>
    <g id="grid_reference_markers" style="font-size:3.5px;font-family:osifont;text-align:center;text-anchor:middle;fill:#000000;stroke:none">
     <text id="upper_marker_1" y="8.8" x="35">1</text>
     <text id="upper_marker_2" y="8.8" x="85">2</text>
     <text id="upper_marker_3" y="8.8" x="135">3</text>
     <text id="upper_marker_4" y="8.8" x="185">4</text>
     <text id="upper_marker_5" y="8.8" x="235">5</text>
     <text id="upper_marker_6" y="8.8" x="285">6</text>
     <text id="upper_marker_7" y="8.8" x="335">7</text>
     <text id="upper_marker_8" y="8.8" x="385">8</text>
     <text id="right_marker_1" y="24.8" x="412.5">A</text>
     <text id="right_marker_2" y="74.8" x="412.5">B</text>
     <text id="right_marker_3" y="124.8" x="412.5">C</text>
     <text id="right_marker_4" y="174.8" x="412.5">D</text>
     <text id="right_marker_5" y="224.8" x="412.5">E</text>
     <text id="right_marker_6" y="274.8" x="412.5">F</text>
     <text id="lower_marker_1" y="290.8" x="35">1</text>
     <text id="lower_marker_2" y="290.8" x="85">2</text>
     <text id="lower_marker_3" y="290.8" x="135">3</text>
     <text id="lower_marker_4" y="290.8" x="185">4</text>
     <text id="lower_marker_5" y="290.8" x="235">5</text>
     <text id="lower_marker_6" y="290.8" x="285">6</text>
     <text id="lower_marker_7" y="290.8" x="335">7</text>
     <text id="lower_marker_8" y="290.8" x="385">A3</text>
     <text id="left_marker_1" y="24.8" x="17.5">A</text>
     <text id="left_marker_2" y="74.8" x="17.5">B</text>
     <text id="left_marker_3" y="124.8" x="17.5">C</text>
     <text id="left_marker_4" y="174.8" x="17.5">D</text>
     <text id="left_marker_5" y="224.8" x="17.5">E</text>
     <text id="left_marker_6" y="274.8" x="17.5">F</text>
    </g>
   </g>
   <g id="trimming_marks" style="fill:#000000;stroke:none">>
    <path id="top_left_trimming" d="m 0,0 h 10 v 5 h -5 v 5 h -5 z"/>
    <path id="top_right_trimming" d="m 420,0 h -10 v 5 h 5 v 5 h 5 z"/>
    <path id="bottom_right_trimming" d="m 420,297 h -10 v -5 h 5 v -5 h 5 z"/>
    <path id="bottom_left_trimming" d="m 0,297 h 10 v -5 h -5 v -5 h -5 z"/>
   </g>
   <!-- Title block -->
   <g id="title_block_borders" style="fill:none;stroke:#000000;stroke-width:0.35;stroke-linecap:round;stroke-linejoin:round">
    <rect id="title_block_frame" y="239" height="48" style="stroke-width:0.7" width="180" x="230"/>
    <rect id="legal_owner_border" y="239" height="24" width="40" x="370"/>
    <rect id="identification_number_border" y="263" height="12" width="60" x="310"/>
    <rect id="revision_index_border" y="275" height="12" width="20" x="370"/>
    <rect id="date_of_issue_border" y="275" height="12" width="40" x="330"/>
    <rect id="sheet_number_border" y="275" height="12" width="20" x="390"/>
    <rect id="language_code_border" y="275" height="12" width="20" x="310"/>
    <rect id="title_border" y="239" height="24" width="80" x="230"/>
    <rect id="responsible_department_border" y="263" height="12" width="40" x="370"/>
    <rect id="approval_person_border" y="251" height="12" width="60" x="310"/>
    <rect id="creator_border" y="239" height="12" width="60" x="310"/>
    <rect id="document_type_border" y="263" height="12" width="80" x="230"/>
    <rect id="document_status_border" y="275" height="12" width="80" x="230"/>
   </g>
   <g id="title_block_labels" style="font-size:3.5px;font-family:osifont;text-anchor:start;fill:#000000;stroke:none">
    <text id="legal_owner_label" y="242.6" x="370.5">Owner:</text>
    <text id="identification_number_label" y="266.6" x="310.5">Drawing number:</text>
    <text id="revision_index_label" y="278.6" x="370.5">Revision:</text>
    <text id="date_of_issue_label" y="278.6" x="330.5">Issue date:</text>
    <text id="sheet_number_label" y="278.6" x="390.5">Sheet:</text>
    <text id="language_code_label" y="278.6" x="310.5">Language:</text>
    <text id="title_label" y="242.6" x="230.5">Title, supplementary title:</text>
    <text id="responsible_department_label" y="266.6" x="370.5">Responsible department:</text>
    <text id="approval_person_label" y="254.6" x="310.5">Approved by:</text>
    <text id="creator_label" y="242.6" x="310.5">Created by:</text>
    <text id="document_type label" y="266.6" x="230.5">Document type:</text>
    <text id="document_status_label" y="278.6" x="230.5">Document status:</text>
    <text id="sheet_scale_label" y="230.6" x="350.5">Scale:</text>
    <text id="general_tolerances_label" y="230.6" x="310.5">General tolerances:</text>
    <text id="part_material_label" y="230.6" x="230.5">Part Material:</text>
   </g>
   <g id="title_block_data_fields" style="font-size:5px;font-family:osifont;text-anchor:start;fill:#000000;stroke:none">
    <text id="legal_owner_1_data_field" y="248.1" freecad:autofill="organization" style="font-size:3.5px;text-align:center;text-anchor:middle" x="390" freecad:editable="legal_owner_1">
     <tspan xml:space="preserve"/>
    </text>
    <text id="legal_owner_2_data_field" y="252.1" style="font-size:3.5px;text-align:center;text-anchor:middle" x="390" freecad:editable="legal_owner_2">
     <tspan xml:space="preserve"/>
    </text>
    <text id="legal_owner_3_data_field" y="256.1" style="font-size:3.5px;text-align:center;text-anchor:middle" x="390" freecad:editable="legal_owner_3">
     <tspan xml:space="preserve"/>
    </text>
    <text id="legal_owner_4_data_field" y="260.1" style="font-size:3.5px;text-align:center;text-anchor:middle" x="390" freecad:editable="legal_owner_4">
     <tspan xml:space="preserve"/>
    </text>
    <text id="identification_number_data_field" y="272.2" x="311" freecad:editable="drawing_number">
     <tspan xml:space="preserve">DN</tspan>
    </text>
    <text id="revision_index_data_field" y="284.2" style="text-align:center;text-anchor:middle" x="380" freecad:editable="revision_index">
     <tspan xml:space="preserve">A</tspan>
    </text>
    <text id="date_of_issue_data_field" y="284.2" freecad:autofill="date" x="331" freecad:editable="date_of_issue">
     <tspan xml:space="preserve">13/02/2026</tspan>
    </text>
    <text id="sheet_number_data_field" y="284.2" freecad:autofill="sheet" style="text-align:center;text-anchor:middle" x="400" freecad:editable="sheet_number">
     <tspan xml:space="preserve">1 / 1</tspan>
    </text>
    <text id="language_data_field" y="284.2" style="text-align:center;text-anchor:middle" x="320" freecad:editable="language_code">
     <tspan xml:space="preserve">EN</tspan>
    </text>
    <text id="title_data_field" y="248.2" freecad:autofill="title" x="231" freecad:editable="title">
     <tspan xml:space="preserve">OCT-ULBLK-AB</tspan>
    </text>
    <text id="supplementary_title_1_data_field" y="254.2" x="231" freecad:editable="supplementary_title_1">
     <tspan xml:space="preserve">Upper Left Panel Block</tspan>
    </text>
    <text id="supplementary_title_2_data_field" y="260.2" x="231" freecad:editable="supplementary_title_2">
     <tspan xml:space="preserve"/>
    </text>
    <text id="responsible_department_data_field" y="272.2" x="371" freecad:editable="responsible_department">
     <tspan xml:space="preserve">RD</tspan>
    </text>
    <text id="approval_person_data_field" y="260.2" x="311" freecad:editable="approval_person">
     <tspan xml:space="preserve">S. Aphelion</tspan>
    </text>
    <text id="creator_data_field" y="248.2" freecad:autofill="author" x="311" freecad:editable="creator">
     <tspan xml:space="preserve">Michael Stoll</tspan>
    </text>
    <text id="document_type_data_field" y="272.2" x="231" freecad:editable="document_type">
     <tspan xml:space="preserve">Component Drawing</tspan>
    </text>
    <text id="document_status_data_field" y="284.2" x="231" freecad:editable="document_status">
     <tspan xml:space="preserve">In preparation</tspan>
    </text>
    <text id="sheet_scale_data_field" y="236.2" freecad:autofill="scale" style="text-align:center;text-anchor:middle" x="360" freecad:editable="scale">
     <tspan xml:space="preserve">2 : 1</tspan>
    </text>
    <text id="general_tolerances_data_field" y="236.2" x="311" freecad:editable="general_tolerances">
     <tspan xml:space="preserve">ISO 2768-m</tspan>
    </text>
    <text id="part_material_data_field" y="236.2" x="231" freecad:editable="part_material">
     <tspan xml:space="preserve">Aluminium 6082 T6</tspan>
    </text>
   </g>
   <g id="extras_outlines" style="fill:none;stroke:#000000;stroke-width:0.5;stroke-linecap:round;stroke-linejoin:round">
    <path id="first_angle_trapezoid" d="m 389,222 -10,2.5 v 5 l 10,2.5 z"/>
    <circle id="first_angle_inner circle" cx="396" cy="227" r="2.5"/>
    <circle id="first_angle_outer circle" cx="396" cy="227" r="5"/>
   </g>
   <g id="extras_centre_lines" style="fill:none;stroke:#000000;stroke-width:0.25;stroke-linecap:round;stroke-linejoin:round;stroke-dasharray:6, 0.75, 0.125, 0.75">
    <path id="first_angle_horizontal" style="stroke-dashoffset:0.25" d="m 378,227 h 24"/>
    <path id="first_angle_vertical" style="stroke-dashoffset:4.625" d="m 396,233 v -12"/>
   </g>
  </g>
  <g stroke-linecap="square" stroke-linejoin="bevel" id="DrawingContent" fill-rule="evenodd" stroke="black" fill="none" stroke-width="1">
   <g stroke-linecap="square" stroke-linejoin="bevel" font-size="29.1042" stroke-opacity="1" transform="matrix(1,0,0,1,1585.71,1965.92)" font-style="normal" stroke="#000000" font-family="MS Shell Dlg 2" fill="none" stroke-width="1" font-weight="400">
    <rect y="0" height="0" width="0" x="0"/>
   </g>
   <g font-size="29.1042" transform="matrix(1,0,0,1,1585.71,1965.92)" font-style="normal" stroke="none" font-family="MS Shell Dlg 2" fill="#f1f3f5" font-weight="400" fill-opacity="0">
    <path vector-effect="non-scaling-stroke" fill-rule="evenodd" d="M-200,400 L-200,-400 L200,-400 L200,400 L-200,400"/>
   </g>
   <g font-size="29.1042" transform="matrix(1,0,0,1,1585.71,1965.92)" font-style="normal" stroke="none" font-family="MS Shell Dlg 2" fill="#f1f3f5" font-weight="400" fill-opacity="0">
    <path vector-effect="non-scaling-stroke" fill-rule="evenodd" d="M33,200 C33,218.225 18.2254,233 0,233 C-18.2254,233 -33,218.225 -33,200 C-33,181.775 -18.2254,167 0,167 C18.2254,167 33,181.775 33,200 "/>
   </g>
   <g font-size="29.1042" transform="matrix(1,0,0,1,1585.71,1965.92)" font-style="normal" stroke="none" font-family="MS Shell Dlg 2" fill="#f1f3f5" font-weight="400" fill-opacity="0">
    <path vector-effect="non-scaling-stroke" fill-rule="evenodd" d="M33,-200 C33,-181.775 18.2254,-167 0,-167 C-18.2254,-167 -33,-181.775 -33,-200 C-33,-218.225 -18.2254,-233 0,-233 C18.2254,-233 33,-218.225 33,-200 "/>
   </g>
   <g stroke-linecap="round" stroke-linejoin="bevel" font-size="29.1042" stroke-opacity="1" transform="matrix(1,0,0,1,1585.71,1965.92)" font-style="normal" stroke="#000000" font-family="MS Shell Dlg 2" fill="none" stroke-width="7" font-weight="400">
    <path vector-effect="none" fill-rule="evenodd" d="M-200,400 L-200,-400"/>
   </g>
   <g stroke-linecap="round" stroke-linejoin="bevel" font-size="29.1042" stroke-opacity="1" transform="matrix(1,0,0,1,1585.71,1965.92)" font-style="normal" stroke="#000000" font-family="MS Shell Dlg 2" fill="none" stroke-width="7" font-weight="400">
    <path vector-effect="none" fill-rule="evenodd" d="M-200,400 L200,400"/>
   </g>
   <g stroke-linecap="round" stroke-linejoin="bevel" font-size="29.1042" stroke-opacity="1" transform="matrix(1,0,0,1,1585.71,1965.92)" font-style="normal" stroke="#000000" font-family="MS Shell Dlg 2" fill="none" stroke-width="7" font-weight="400">
    <path vector-effect="none" fill-rule="evenodd" d="M-200,-400 L200,-400"/>
   </g>
   <g stroke-linecap="round" stroke-linejoin="bevel" font-size="29.1042" stroke-opacity="1" transform="matrix(1,0,0,1,1585.71,1965.92)" font-style="normal" stroke="#000000" font-family="MS Shell Dlg 2" fill="none" stroke-width="7" font-weight="400">
    <path vector-effect="none" fill-rule="evenodd" d="M200,400 L200,-400"/>
   </g>
   <g stroke-linecap="round" stroke-linejoin="bevel" font-size="29.1042" stroke-opacity="1" transform="matrix(1,0,0,1,1585.71,1965.92)" font-style="normal" stroke="#000000" font-family="MS Shell Dlg 2" fill="none" stroke-width="7" font-weight="400">
    <path vector-effect="none" fill-rule="evenodd" d="M33,-200 C33,-181.775 18.2254,-167 0,-167 C-18.2254,-167 -33,-181.775 -33,-200 C-33,-218.225 -18.2254,-233 0,-233 C18.2254,-233 33,-218.225 33,-200 "/>
   </g>
   <g stroke-linecap="round" stroke-linejoin="bevel" font-size="29.1042" stroke-opacity="1" transform="matrix(1,0,0,1,1585.71,1965.92)" font-style="normal" stroke="#000000" font-family="MS Shell Dlg 2" fill="none" stroke-width="7" font-weight="400">
    <path vector-effect="none" fill-rule="evenodd" d="M33,200 C33,218.225 18.2254,233 0,233 C-18.2254,233 -33,218.225 -33,200 C-33,181.775 -18.2254,167 0,167 C18.2254,167 33,181.775 33,200 "/>
   </g>
   <g stroke-linecap="square" stroke-linejoin="bevel" font-size="29.1042" stroke-opacity="1" transform="matrix(0.862129,0.506688,-0.506688,0.862129,1142.9,1359.52)" font-style="normal" stroke="#000000" font-family="MS Shell Dlg 2" fill="none" stroke-width="1" font-weight="400">
    <text font-size="67" y="92" xml:space="preserve" font-style="normal" stroke="none" font-family="osifont" x="4" fill="#000000" font-weight="400" fill-opacity="1">⌀3.3</text>
   </g>
   <g stroke-linecap="round" stroke-linejoin="bevel" font-size="29.1042" stroke-opacity="1" transform="matrix(1,0,0,1,1585.71,1965.92)" font-style="normal" stroke="#000000" font-family="MS Shell Dlg 2" fill="none" stroke-width="3.5" font-weight="400">
    <path vector-effect="none" fill-rule="evenodd" d="M88.7993,-147.811 L-509.674,-499.544"/>
   </g>
   <g stroke-linecap="round" stroke-linejoin="bevel" font-size="29.1042" stroke-opacity="1" transform="matrix(1,0,0,1,1557.26,1749.2)" font-style="normal" stroke="#000000" font-family="MS Shell Dlg 2" fill="#000000" stroke-width="3.5" font-weight="400" fill-opacity="1">
    <path vector-effect="none" fill-rule="evenodd" d="M0,0 L-27.2188,-22.7632 L-33.1302,-12.705 L0,0"/>
   </g>
   <g stroke-linecap="round" stroke-linejoin="bevel" font-size="29.1042" stroke-opacity="1" transform="matrix(1,0,0,1,1614.16,1782.64)" font-style="normal" stroke="#000000" font-family="MS Shell Dlg 2" fill="#000000" stroke-width="3.5" font-weight="400" fill-opacity="1">
    <path vector-effect="none" fill-rule="evenodd" d="M0,0 L27.2188,22.7632 L33.1302,12.705 L0,0"/>
   </g>
   <g stroke-linecap="square" stroke-linejoin="bevel" font-size="29.1042" stroke-opacity="1" transform="matrix(0,-1,1,0,1154.61,2324.3)" font-style="normal" stroke="#000000" font-family="MS Shell Dlg 2" fill="none" stroke-width="1" font-weight="400">
    <text font-size="67" y="92" xml:space="preserve" font-style="normal" stroke="none" font-family="osifont" x="4" fill="#000000" font-weight="400" fill-opacity="1">10.0</text>
   </g>
   <g stroke-linecap="round" stroke-linejoin="bevel" font-size="29.1042" stroke-opacity="1" transform="matrix(1,0,0,1,1585.71,1965.92)" font-style="normal" stroke="#000000" font-family="MS Shell Dlg 2" fill="none" stroke-width="3.5" font-weight="400">
    <path vector-effect="none" fill-rule="evenodd" d="M-305.102,400 L-305.102,200 M0,200 L-333.102,200 M0,400 L-333.102,400"/>
   </g>
   <g stroke-linecap="round" stroke-linejoin="bevel" font-size="29.1042" stroke-opacity="1" transform="matrix(1,0,0,1,1280.61,2165.92)" font-style="normal" stroke="#000000" font-family="MS Shell Dlg 2" fill="#000000" stroke-width="3.5" font-weight="400" fill-opacity="1">
    <path vector-effect="none" fill-rule="evenodd" d="M0,0 L-5.83333,35 L5.83333,35 L0,0"/>
   </g>
   <g stroke-linecap="round" stroke-linejoin="bevel" font-size="29.1042" stroke-opacity="1" transform="matrix(1,0,0,1,1280.61,2365.92)" font-style="normal" stroke="#000000" font-family="MS Shell Dlg 2" fill="#000000" stroke-width="3.5" font-weight="400" fill-opacity="1">
    <path vector-effect="none" fill-rule="evenodd" d="M0,0 L5.83333,-35 L-5.83333,-35 L0,0"/>
   </g>
   <g stroke-linecap="square" stroke-linejoin="bevel" font-size="29.1042" stroke-opacity="1" transform="matrix(0,-1,1,0,1916.71,2029.67)" font-style="normal" stroke="#000000" font-family="MS Shell Dlg 2" fill="none" stroke-width="1" font-weight="400">
    <text font-size="67" y="92" xml:space="preserve" font-style="normal" stroke="none" font-family="osifont" x="4" fill="#000000" font-weight="400" fill-opacity="1">40.0</text>
   </g>
   <g stroke-linecap="round" stroke-linejoin="bevel" font-size="29.1042" stroke-opacity="1" transform="matrix(1,0,0,1,1585.71,1965.92)" font-style="normal" stroke="#000000" font-family="MS Shell Dlg 2" fill="none" stroke-width="3.5" font-weight="400">
    <path vector-effect="none" fill-rule="evenodd" d="M457.003,400 L457.003,-400 M200,-400 L485.003,-400 M200,400 L485.003,400"/>
   </g>
   <g stroke-linecap="round" stroke-linejoin="bevel" font-size="29.1042" stroke-opacity="1" transform="matrix(1,0,0,1,2042.71,1565.92)" font-style="normal" stroke="#000000" font-family="MS Shell Dlg 2" fill="#000000" stroke-width="3.5" font-weight="400" fill-opacity="1">
    <path vector-effect="none" fill-rule="evenodd" d="M0,0 L-5.83333,35 L5.83333,35 L0,0"/>
   </g>
   <g stroke-linecap="round" stroke-linejoin="bevel" font-size="29.1042" stroke-opacity="1" transform="matrix(1,0,0,1,2042.71,2365.92)" font-style="normal" stroke="#000000" font-family="MS Shell Dlg 2" fill="#000000" stroke-width="3.5" font-weight="400" fill-opacity="1">
    <path vector-effect="none" fill-rule="evenodd" d="M0,0 L5.83333,-35 L-5.83333,-35 L0,0"/>
   </g>
   <g stroke-linecap="square" stroke-linejoin="bevel" font-size="29.1042" stroke-opacity="1" transform="matrix(0,-1,1,0,1154.61,2028.17)" font-style="normal" stroke="#000000" font-family="MS Shell Dlg 2" fill="none" stroke-width="1" font-weight="400">
    <text font-size="67" y="92" xml:space="preserve" font-style="normal" stroke="none" font-family="osifont" x="4" fill="#000000" font-weight="400" fill-opacity="1">20.0</text>
   </g>
   <g stroke-linecap="round" stroke-linejoin="bevel" font-size="29.1042" stroke-opacity="1" transform="matrix(1,0,0,1,1585.71,1965.92)" font-style="normal" stroke="#000000" font-family="MS Shell Dlg 2" fill="none" stroke-width="3.5" font-weight="400">
    <path vector-effect="none" fill-rule="evenodd" d="M-305.102,200 L-305.102,-200 M0,-200 L-333.102,-200 M0,200 L-333.102,200"/>
   </g>
   <g stroke-linecap="round" stroke-linejoin="bevel" font-size="29.1042" stroke-opacity="1" transform="matrix(1,0,0,1,1280.61,1765.92)" font-style="normal" stroke="#000000" font-family="MS Shell Dlg 2" fill="#000000" stroke-width="3.5" font-weight="400" fill-opacity="1">
    <path vector-effect="none" fill-rule="evenodd" d="M0,0 L-5.83333,35 L5.83333,35 L0,0"/>
   </g>
   <g stroke-linecap="round" stroke-linejoin="bevel" font-size="29.1042" stroke-opacity="1" transform="matrix(1,0,0,1,1280.61,2165.92)" font-style="normal" stroke="#000000" font-family="MS Shell Dlg 2" fill="#000000" stroke-width="3.5" font-weight="400" fill-opacity="1">
    <path vector-effect="none" fill-rule="evenodd" d="M0,0 L5.83333,-35 L-5.83333,-35 L0,0"/>
   </g>
   <g stroke-linecap="square" stroke-linejoin="bevel" font-size="29.1042" stroke-opacity="1" transform="matrix(1,0,0,1,1427.33,2537.93)" font-style="normal" stroke="#000000" font-family="MS Shell Dlg 2" fill="none" stroke-width="1" font-weight="400">
    <text font-size="67" y="92" xml:space="preserve" font-style="normal" stroke="none" font-family="osifont" x="4" fill="#000000" font-weight="400" fill-opacity="1">10.0</text>
   </g>
   <g stroke-linecap="round" stroke-linejoin="bevel" font-size="29.1042" stroke-opacity="1" transform="matrix(1,0,0,1,1585.71,1965.92)" font-style="normal" stroke="#000000" font-family="MS Shell Dlg 2" fill="none" stroke-width="3.5" font-weight="400">
    <path vector-effect="none" fill-rule="evenodd" d="M-200,698.003 L-5.32907e-14,698.003 M0,200 L-5.6287e-14,726.003 M-200,200 L-200,726.003"/>
   </g>
   <g stroke-linecap="round" stroke-linejoin="bevel" font-size="29.1042" stroke-opacity="1" transform="matrix(1,0,0,1,1585.71,2663.93)" font-style="normal" stroke="#000000" font-family="MS Shell Dlg 2" fill="#000000" stroke-width="3.5" font-weight="400" fill-opacity="1">
    <path vector-effect="none" fill-rule="evenodd" d="M0,0 L-35,-5.83333 L-35,5.83333 L0,0"/>
   </g>
   <g stroke-linecap="round" stroke-linejoin="bevel" font-size="29.1042" stroke-opacity="1" transform="matrix(1,0,0,1,1385.71,2663.93)" font-style="normal" stroke="#000000" font-family="MS Shell Dlg 2" fill="#000000" stroke-width="3.5" font-weight="400" fill-opacity="1">
    <path vector-effect="none" fill-rule="evenodd" d="M0,0 L35,5.83333 L35,-5.83333 L0,0"/>
   </g>
   <g font-size="29.1042" transform="matrix(1,0,0,1,1585.71,865.924)" font-style="normal" stroke="none" font-family="MS Shell Dlg 2" fill="#f1f3f5" font-weight="400" fill-opacity="0">
    <path vector-effect="non-scaling-stroke" fill-rule="evenodd" d="M-200,200 L200,200 L200,-200 L-200,-200 L-200,200"/>
   </g>
   <g font-size="29.1042" transform="matrix(1,0,0,1,1585.71,865.924)" font-style="normal" stroke="none" font-family="MS Shell Dlg 2" fill="#f1f3f5" font-weight="400" fill-opacity="0">
    <path vector-effect="non-scaling-stroke" fill-rule="evenodd" d="M133,0 C133,18.2254 118.225,33 100,33 C81.7746,33 67,18.2254 67,0 C67,-18.2254 81.7746,-33 100,-33 C118.225,-33 133,-18.2254 133,0 "/>
   </g>
   <g stroke-linecap="round" stroke-linejoin="bevel" font-size="29.1042" stroke-opacity="1" transform="matrix(1,0,0,1,1585.71,865.924)" font-style="normal" stroke="#000000" font-family="MS Shell Dlg 2" fill="none" stroke-width="7" font-weight="400">
    <path vector-effect="none" fill-rule="evenodd" d="M-200,200 L200,200"/>
   </g>
   <g stroke-linecap="round" stroke-linejoin="bevel" font-size="29.1042" stroke-opacity="1" transform="matrix(1,0,0,1,1585.71,865.924)" font-style="normal" stroke="#000000" font-family="MS Shell Dlg 2" fill="none" stroke-width="7" font-weight="400">
    <path vector-effect="none" fill-rule="evenodd" d="M-200,-200 L-200,200"/>
   </g>
   <g stroke-linecap="round" stroke-linejoin="bevel" font-size="29.1042" stroke-opacity="1" transform="matrix(1,0,0,1,1585.71,865.924)" font-style="normal" stroke="#000000" font-family="MS Shell Dlg 2" fill="none" stroke-width="7" font-weight="400">
    <path vector-effect="none" fill-rule="evenodd" d="M200,200 L200,-200"/>
   </g>
   <g stroke-linecap="round" stroke-linejoin="bevel" font-size="29.1042" stroke-opacity="1" transform="matrix(1,0,0,1,1585.71,865.924)" font-style="normal" stroke="#000000" font-family="MS Shell Dlg 2" fill="none" stroke-width="7" font-weight="400">
    <path vector-effect="none" fill-rule="evenodd" d="M200,-200 L-200,-200"/>
   </g>
   <g stroke-linecap="round" stroke-linejoin="bevel" font-size="29.1042" stroke-opacity="1" transform="matrix(1,0,0,1,1585.71,865.924)" font-style="normal" stroke="#000000" font-family="MS Shell Dlg 2" fill="none" stroke-width="7" font-weight="400">
    <path vector-effect="none" fill-rule="evenodd" d="M133,0 C133,18.2254 118.225,33 100,33 C81.7746,33 67,18.2254 67,0 C67,-18.2254 81.7746,-33 100,-33 C118.225,-33 133,-18.2254 133,0 "/>
   </g>
   <g stroke-linecap="square" stroke-linejoin="bevel" font-size="29.1042" stroke-opacity="1" transform="matrix(0,-1,1,0,1125.28,928.174)" font-style="normal" stroke="#000000" font-family="MS Shell Dlg 2" fill="none" stroke-width="1" font-weight="400">
    <text font-size="67" y="92" xml:space="preserve" font-style="normal" stroke="none" font-family="osifont" x="4" fill="#000000" font-weight="400" fill-opacity="1">20.0</text>
   </g>
   <g stroke-linecap="round" stroke-linejoin="bevel" font-size="29.1042" stroke-opacity="1" transform="matrix(1,0,0,1,1585.71,865.924)" font-style="normal" stroke="#000000" font-family="MS Shell Dlg 2" fill="none" stroke-width="3.5" font-weight="400">
    <path vector-effect="none" fill-rule="evenodd" d="M-334.432,-200 L-334.432,200 M-200,200 L-362.432,200 M-200,-200 L-362.432,-200"/>
   </g>
   <g stroke-linecap="round" stroke-linejoin="bevel" font-size="29.1042" stroke-opacity="1" transform="matrix(1,0,0,1,1251.28,1065.92)" font-style="normal" stroke="#000000" font-family="MS Shell Dlg 2" fill="#000000" stroke-width="3.5" font-weight="400" fill-opacity="1">
    <path vector-effect="none" fill-rule="evenodd" d="M0,0 L5.83333,-35 L-5.83333,-35 L0,0"/>
   </g>
   <g stroke-linecap="round" stroke-linejoin="bevel" font-size="29.1042" stroke-opacity="1" transform="matrix(1,0,0,1,1251.28,665.924)" font-style="normal" stroke="#000000" font-family="MS Shell Dlg 2" fill="#000000" stroke-width="3.5" font-weight="400" fill-opacity="1">
    <path vector-effect="none" fill-rule="evenodd" d="M0,0 L-5.83333,35 L5.83333,35 L0,0"/>
   </g>
   <g stroke-linecap="square" stroke-linejoin="bevel" font-size="29.1042" stroke-opacity="1" transform="matrix(0,-1,1,0,1998.57,1024.3)" font-style="normal" stroke="#000000" font-family="MS Shell Dlg 2" fill="none" stroke-width="1" font-weight="400">
    <text font-size="67" y="92" xml:space="preserve" font-style="normal" stroke="none" font-family="osifont" x="4" fill="#000000" font-weight="400" fill-opacity="1">10.0</text>
   </g>
   <g stroke-linecap="round" stroke-linejoin="bevel" font-size="29.1042" stroke-opacity="1" transform="matrix(1,0,0,1,1585.71,865.924)" font-style="normal" stroke="#000000" font-family="MS Shell Dlg 2" fill="none" stroke-width="3.5" font-weight="400">
    <path vector-effect="none" fill-rule="evenodd" d="M538.864,200 L538.864,3.55271e-14 M100,0 L566.864,3.77938e-14 M100,200 L566.864,200"/>
   </g>
   <g stroke-linecap="round" stroke-linejoin="bevel" font-size="29.1042" stroke-opacity="1" transform="matrix(1,0,0,1,2124.57,865.924)" font-style="normal" stroke="#000000" font-family="MS Shell Dlg 2" fill="#000000" stroke-width="3.5" font-weight="400" fill-opacity="1">
    <path vector-effect="none" fill-rule="evenodd" d="M0,0 L-5.83333,35 L5.83333,35 L0,0"/>
   </g>
   <g stroke-linecap="round" stroke-linejoin="bevel" font-size="29.1042" stroke-opacity="1" transform="matrix(1,0,0,1,2124.57,1065.92)" font-style="normal" stroke="#000000" font-family="MS Shell Dlg 2" fill="#000000" stroke-width="3.5" font-weight="400" fill-opacity="1">
    <path vector-effect="none" fill-rule="evenodd" d="M0,0 L5.83333,-35 L-5.83333,-35 L0,0"/>
   </g>
   <g stroke-linecap="square" stroke-linejoin="bevel" font-size="29.1042" stroke-opacity="1" transform="matrix(1,0,0,1,1688.08,463.451)" font-style="normal" stroke="#000000" font-family="MS Shell Dlg 2" fill="none" stroke-width="1" font-weight="400">
    <text font-size="67" y="92" xml:space="preserve" font-style="normal" stroke="none" font-family="osifont" x="4" fill="#000000" font-weight="400" fill-opacity="1">5.0</text>
   </g>
   <g stroke-linecap="round" stroke-linejoin="bevel" font-size="29.1042" stroke-opacity="1" transform="matrix(1,0,0,1,1585.71,865.924)" font-style="normal" stroke="#000000" font-family="MS Shell Dlg 2" fill="none" stroke-width="3.5" font-weight="400">
    <path vector-effect="none" fill-rule="evenodd" d="M270,-276.473 L30,-276.473 M100,0 L100,-304.473 M200,0 L200,-304.473"/>
   </g>
   <g stroke-linecap="round" stroke-linejoin="bevel" font-size="29.1042" stroke-opacity="1" transform="matrix(1,0,0,1,1685.71,589.451)" font-style="normal" stroke="#000000" font-family="MS Shell Dlg 2" fill="#000000" stroke-width="3.5" font-weight="400" fill-opacity="1">
    <path vector-effect="none" fill-rule="evenodd" d="M0,0 L-35,-5.83333 L-35,5.83333 L0,0"/>
   </g>
   <g stroke-linecap="round" stroke-linejoin="bevel" font-size="29.1042" stroke-opacity="1" transform="matrix(1,0,0,1,1785.71,589.451)" font-style="normal" stroke="#000000" font-family="MS Shell Dlg 2" fill="#000000" stroke-width="3.5" font-weight="400" fill-opacity="1">
    <path vector-effect="none" fill-rule="evenodd" d="M0,0 L35,5.83333 L35,-5.83333 L0,0"/>
   </g>
   <g stroke-linecap="square" stroke-linejoin="bevel" font-size="29.1042" stroke-opacity="1" transform="matrix(0.864943,-0.50187,0.50187,0.864943,2208.95,416.649)" font-style="normal" stroke="#000000" font-family="MS Shell Dlg 2" fill="none" stroke-width="1" font-weight="400">
    <text font-size="67" y="92" xml:space="preserve" font-style="normal" stroke="none" font-family="osifont" x="4" fill="#000000" font-weight="400" fill-opacity="1">⌀3.3</text>
   </g>
   <g stroke-linecap="round" stroke-linejoin="bevel" font-size="29.1042" stroke-opacity="1" transform="matrix(1,0,0,1,1585.71,865.924)" font-style="normal" stroke="#000000" font-family="MS Shell Dlg 2" fill="none" stroke-width="3.5" font-weight="400">
    <path vector-effect="none" fill-rule="evenodd" d="M10.9109,51.6926 L810.809,-412.436"/>
   </g>
   <g stroke-linecap="round" stroke-linejoin="bevel" font-size="29.1042" stroke-opacity="1" transform="matrix(1,0,0,1,1714.25,849.362)" font-style="normal" stroke="#000000" font-family="MS Shell Dlg 2" fill="#000000" stroke-width="3.5" font-weight="400" fill-opacity="1">
    <path vector-effect="none" fill-rule="evenodd" d="M0,0 L33.2006,-12.52 L27.3454,-22.611 L0,0"/>
   </g>
   <g stroke-linecap="round" stroke-linejoin="bevel" font-size="29.1042" stroke-opacity="1" transform="matrix(1,0,0,1,1657.17,882.486)" font-style="normal" stroke="#000000" font-family="MS Shell Dlg 2" fill="#000000" stroke-width="3.5" font-weight="400" fill-opacity="1">
    <path vector-effect="none" fill-rule="evenodd" d="M0,0 L-33.2006,12.52 L-27.3454,22.611 L0,0"/>
   </g>
   <g stroke-linecap="square" stroke-linejoin="bevel" font-size="29.1042" stroke-opacity="1" transform="matrix(1,0,0,1,1523.46,1199.27)" font-style="normal" stroke="#000000" font-family="MS Shell Dlg 2" fill="none" stroke-width="1" font-weight="400">
    <text font-size="67" y="92" xml:space="preserve" font-style="normal" stroke="none" font-family="osifont" x="4" fill="#000000" font-weight="400" fill-opacity="1">20.0</text>
   </g>
   <g stroke-linecap="round" stroke-linejoin="bevel" font-size="29.1042" stroke-opacity="1" transform="matrix(1,0,0,1,1585.71,865.924)" font-style="normal" stroke="#000000" font-family="MS Shell Dlg 2" fill="none" stroke-width="3.5" font-weight="400">
    <path vector-effect="none" fill-rule="evenodd" d="M-200,459.349 L200,459.349 M200,200 L200,487.349 M-200,200 L-200,487.349"/>
   </g>
   <g stroke-linecap="round" stroke-linejoin="bevel" font-size="29.1042" stroke-opacity="1" transform="matrix(1,0,0,1,1785.71,1325.27)" font-style="normal" stroke="#000000" font-family="MS Shell Dlg 2" fill="#000000" stroke-width="3.5" font-weight="400" fill-opacity="1">
    <path vector-effect="none" fill-rule="evenodd" d="M0,0 L-35,-5.83333 L-35,5.83333 L0,0"/>
   </g>
   <g stroke-linecap="round" stroke-linejoin="bevel" font-size="29.1042" stroke-opacity="1" transform="matrix(1,0,0,1,1385.71,1325.27)" font-style="normal" stroke="#000000" font-family="MS Shell Dlg 2" fill="#000000" stroke-width="3.5" font-weight="400" fill-opacity="1">
    <path vector-effect="none" fill-rule="evenodd" d="M0,0 L35,5.83333 L35,-5.83333 L0,0"/>
   </g>
  </g>
 </g>
</svg>
