<?xml version='1.0' encoding='UTF-8' standalone='no'?>
<svg baseProfile="tiny" viewBox="0 0 4200 2970" width="420mm" xmlns:cc="http://creativecommons.org/ns#" xmlns:xlink="http://www.w3.org/1999/xlink" xmlns:dc="http://purl.org/dc/elements/1.1/" xmlns:inkscape="http://www.inkscape.org/namespaces/inkscape" xmlns="http://www.w3.org/2000/svg" xmlns:sodipodi="http://sodipodi.sourceforge.net/DTD/sodipodi-0.dtd" xmlns:freecad="https://www.freecad.org/wiki/index.php?title=Svg_Namespace" xmlns:svg="http://www.w3.org/2000/svg" height="297mm" version="1.2" xmlns:rdf="http://www.w3.org/1999/02/22-rdf-syntax-ns#">
 <title>FreeCAD SVG Export</title>
 <desc>Drawing page: Page exported from FreeCAD document: OCT_CPBRC</desc>
 <defs/>
 <g inkscape:groupmode="layer" id="Page" inkscape:label="TechDraw">
  <g id="A3_Landscape_ISO5457_advanced.svg" style="stroke: none;" transform="scale(10.000000, 10.000000)">
   <title id="title">Drawing sheet ISO 5457 - A3T - Advanced</title>
   <metadata id="metadata">
    <rdf:RDF>
     <cc:Work rdf:about="">
      <cc:license rdf:resource="http://creativecommons.org/publicdomain/zero/1.0/"/>
      <dc:title>Drawing sheet ISO 5457 - A3T - Advanced</dc:title>
      <dc:creator>
       <cc:Agent>
        <dc:title>Benjamin May</dc:title>
       </cc:Agent>
      </dc:creator>
     </cc:Work>
     <cc:License rdf:about="http://creativecommons.org/publicdomain/zero/1.0/">
      <cc:permits rdf:resource="http://creativecommons.org/ns#Reproduction"/>
      <cc:permits rdf:resource="http://creativecommons.org/ns#Distribution"/>
      <cc:permits rdf:resource="http://creativecommons.org/ns#DerivativeWorks"/>
     </cc:License>
    </rdf:RDF>
   </metadata>
   <rect width="390" id="drawing_space_frame" style="fill:none;stroke:#000000;stroke-width:0.7;stroke-linecap:round;stroke-linejoin:round" y="10" x="20" height="277"/>
   <g id="centring_marks" style="fill:none;stroke:#000000;stroke-width:0.7;stroke-linecap:round">
    <path d="m 210,5 v 10" id="top_centering"/>
    <path d="m 415,148.5 h -10" id="right_centering"/>
    <path d="m 210,292 v -10" id="bottom_centering"/>
    <path d="m 15,148.5 h 10" id="left_centering"/>
   </g>
   <g id="grid_reference_system">
    <g id="grid_reference_borders" style="fill:none;stroke:#000000;stroke-width:0.35;stroke-linecap:round;stroke-linejoin:round">
     <rect width="400" id="grid_reference_border" y="5" x="15" height="287"/>
     <path d="m 60,5 v 5" id="upper_border_1"/>
     <path d="m 110,5 v 5" id="upper_border_2"/>
     <path d="m 160,5 v 5" id="upper_border_3"/>
     <path d="m 260,5 v 5" id="upper_border_5"/>
     <path d="m 310,5 v 5" id="upper_border_6"/>
     <path d="m 360,5 v 5" id="upper_border_7"/>
     <path d="m 415,48.5 h -5" id="right_border_1"/>
     <path d="m 415,98.5 h -5" id="right_border_2"/>
     <path d="m 415,198.5 h -5" id="right_border_4"/>
     <path d="m 415,248.5 h -5" id="right_border_5"/>
     <path d="m 60,292 v -5" id="lower_border_1"/>
     <path d="m 110,292 v -5" id="lower_border_2"/>
     <path d="m 160,292 v -5" id="lower_border_3"/>
     <path d="m 260,292 v -5" id="lower_border_5"/>
     <path d="m 310,292 v -5" id="lower_border_6"/>
     <path d="m 360,292 v -5" id="lower_border_7"/>
     <path d="m 15,48.5 h 5" id="left_border_1"/>
     <path d="m 15,98.5 h 5" id="left_border_2"/>
     <path d="m 15,198.5 h 5" id="left_border_4"/>
     <path d="m 15,248.5 h 5" id="left_border_5"/>
    </g>
    <g id="grid_reference_markers" style="font-size:3.5px;font-family:osifont;text-align:center;text-anchor:middle;fill:#000000;stroke:none">
     <text id="upper_marker_1" y="8.8" x="35">1</text>
     <text id="upper_marker_2" y="8.8" x="85">2</text>
     <text id="upper_marker_3" y="8.8" x="135">3</text>
     <text id="upper_marker_4" y="8.8" x="185">4</text>
     <text id="upper_marker_5" y="8.8" x="235">5</text>
     <text id="upper_marker_6" y="8.8" x="285">6</text>
     <text id="upper_marker_7" y="8.8" x="335">7</text>
     <text id="upper_marker_8" y="8.8" x="385">8</text>
     <text id="right_marker_1" y="24.8" x="412.5">A</text>
     <text id="right_marker_2" y="74.8" x="412.5">B</text>
     <text id="right_marker_3" y="124.8" x="412.5">C</text>
     <text id="right_marker_4" y="174.8" x="412.5">D</text>
     <text id="right_marker_5" y="224.8" x="412.5">E</text>
     <text id="right_marker_6" y="274.8" x="412.5">F</text>
     <text id="lower_marker_1" y="290.8" x="35">1</text>
     <text id="lower_marker_2" y="290.8" x="85">2</text>
     <text id="lower_marker_3" y="290.8" x="135">3</text>
     <text id="lower_marker_4" y="290.8" x="185">4</text>
     <text id="lower_marker_5" y="290.8" x="235">5</text>
     <text id="lower_marker_6" y="290.8" x="285">6</text>
     <text id="lower_marker_7" y="290.8" x="335">7</text>
     <text id="lower_marker_8" y="290.8" x="385">A3</text>
     <text id="left_marker_1" y="24.8" x="17.5">A</text>
     <text id="left_marker_2" y="74.8" x="17.5">B</text>
     <text id="left_marker_3" y="124.8" x="17.5">C</text>
     <text id="left_marker_4" y="174.8" x="17.5">D</text>
     <text id="left_marker_5" y="224.8" x="17.5">E</text>
     <text id="left_marker_6" y="274.8" x="17.5">F</text>
    </g>
   </g>
   <g id="trimming_marks" style="fill:#000000;stroke:none">>
    <path d="m 0,0 h 10 v 5 h -5 v 5 h -5 z" id="top_left_trimming"/>
    <path d="m 420,0 h -10 v 5 h 5 v 5 h 5 z" id="top_right_trimming"/>
    <path d="m 420,297 h -10 v -5 h 5 v -5 h 5 z" id="bottom_right_trimming"/>
    <path d="m 0,297 h 10 v -5 h -5 v -5 h -5 z" id="bottom_left_trimming"/>
   </g>
   <!-- Title block -->
   <g id="title_block_borders" style="fill:none;stroke:#000000;stroke-width:0.35;stroke-linecap:round;stroke-linejoin:round">
    <rect width="180" id="title_block_frame" style="stroke-width:0.7" y="239" x="230" height="48"/>
    <rect width="40" id="legal_owner_border" y="239" x="370" height="24"/>
    <rect width="60" id="identification_number_border" y="263" x="310" height="12"/>
    <rect width="20" id="revision_index_border" y="275" x="370" height="12"/>
    <rect width="40" id="date_of_issue_border" y="275" x="330" height="12"/>
    <rect width="20" id="sheet_number_border" y="275" x="390" height="12"/>
    <rect width="20" id="language_code_border" y="275" x="310" height="12"/>
    <rect width="80" id="title_border" y="239" x="230" height="24"/>
    <rect width="40" id="responsible_department_border" y="263" x="370" height="12"/>
    <rect width="60" id="approval_person_border" y="251" x="310" height="12"/>
    <rect width="60" id="creator_border" y="239" x="310" height="12"/>
    <rect width="80" id="document_type_border" y="263" x="230" height="12"/>
    <rect width="80" id="document_status_border" y="275" x="230" height="12"/>
   </g>
   <g id="title_block_labels" style="font-size:3.5px;font-family:osifont;text-anchor:start;fill:#000000;stroke:none">
    <text id="legal_owner_label" y="242.6" x="370.5">Owner:</text>
    <text id="identification_number_label" y="266.6" x="310.5">Drawing number:</text>
    <text id="revision_index_label" y="278.6" x="370.5">Revision:</text>
    <text id="date_of_issue_label" y="278.6" x="330.5">Issue date:</text>
    <text id="sheet_number_label" y="278.6" x="390.5">Sheet:</text>
    <text id="language_code_label" y="278.6" x="310.5">Language:</text>
    <text id="title_label" y="242.6" x="230.5">Title, supplementary title:</text>
    <text id="responsible_department_label" y="266.6" x="370.5">Responsible department:</text>
    <text id="approval_person_label" y="254.6" x="310.5">Approved by:</text>
    <text id="creator_label" y="242.6" x="310.5">Created by:</text>
    <text id="document_type label" y="266.6" x="230.5">Document type:</text>
    <text id="document_status_label" y="278.6" x="230.5">Document status:</text>
    <text id="sheet_scale_label" y="230.6" x="350.5">Scale:</text>
    <text id="general_tolerances_label" y="230.6" x="310.5">General tolerances:</text>
    <text id="part_material_label" y="230.6" x="230.5">Part Material:</text>
   </g>
   <g id="title_block_data_fields" style="font-size:5px;font-family:osifont;text-anchor:start;fill:#000000;stroke:none">
    <text freecad:editable="legal_owner_1" id="legal_owner_1_data_field" style="font-size:3.5px;text-align:center;text-anchor:middle" y="248.1" freecad:autofill="organization" x="390">
     <tspan xml:space="preserve"/>
    </text>
    <text freecad:editable="legal_owner_2" id="legal_owner_2_data_field" style="font-size:3.5px;text-align:center;text-anchor:middle" y="252.1" x="390">
     <tspan xml:space="preserve"/>
    </text>
    <text freecad:editable="legal_owner_3" id="legal_owner_3_data_field" style="font-size:3.5px;text-align:center;text-anchor:middle" y="256.1" x="390">
     <tspan xml:space="preserve"/>
    </text>
    <text freecad:editable="legal_owner_4" id="legal_owner_4_data_field" style="font-size:3.5px;text-align:center;text-anchor:middle" y="260.1" x="390">
     <tspan xml:space="preserve"/>
    </text>
    <text freecad:editable="drawing_number" id="identification_number_data_field" y="272.2" x="311">
     <tspan xml:space="preserve">DN</tspan>
    </text>
    <text freecad:editable="revision_index" id="revision_index_data_field" style="text-align:center;text-anchor:middle" y="284.2" x="380">
     <tspan xml:space="preserve">A</tspan>
    </text>
    <text freecad:editable="date_of_issue" id="date_of_issue_data_field" y="284.2" freecad:autofill="date" x="331">
     <tspan xml:space="preserve">13/02/2026</tspan>
    </text>
    <text freecad:editable="sheet_number" id="sheet_number_data_field" style="text-align:center;text-anchor:middle" y="284.2" freecad:autofill="sheet" x="400">
     <tspan xml:space="preserve">1 / 1</tspan>
    </text>
    <text freecad:editable="language_code" id="language_data_field" style="text-align:center;text-anchor:middle" y="284.2" x="320">
     <tspan xml:space="preserve">EN</tspan>
    </text>
    <text freecad:editable="title" id="title_data_field" y="248.2" freecad:autofill="title" x="231">
     <tspan xml:space="preserve">OCT-CPBRC-AA</tspan>
    </text>
    <text freecad:editable="supplementary_title_1" id="supplementary_title_1_data_field" y="254.2" x="231">
     <tspan xml:space="preserve">Chamber Top Bracket</tspan>
    </text>
    <text freecad:editable="supplementary_title_2" id="supplementary_title_2_data_field" y="260.2" x="231">
     <tspan xml:space="preserve"/>
    </text>
    <text freecad:editable="responsible_department" id="responsible_department_data_field" y="272.2" x="371">
     <tspan xml:space="preserve">RD</tspan>
    </text>
    <text freecad:editable="approval_person" id="approval_person_data_field" y="260.2" x="311">
     <tspan xml:space="preserve">S. Aphelion</tspan>
    </text>
    <text freecad:editable="creator" id="creator_data_field" y="248.2" freecad:autofill="author" x="311">
     <tspan xml:space="preserve">Michael Stoll</tspan>
    </text>
    <text freecad:editable="document_type" id="document_type_data_field" y="272.2" x="231">
     <tspan xml:space="preserve">Component Drawing</tspan>
    </text>
    <text freecad:editable="document_status" id="document_status_data_field" y="284.2" x="231">
     <tspan xml:space="preserve">In preparation</tspan>
    </text>
    <text freecad:editable="scale" id="sheet_scale_data_field" style="text-align:center;text-anchor:middle" y="236.2" freecad:autofill="scale" x="360">
     <tspan xml:space="preserve">1 : 1</tspan>
    </text>
    <text freecad:editable="general_tolerances" id="general_tolerances_data_field" y="236.2" x="311">
     <tspan xml:space="preserve">+-0.1 mm</tspan>
    </text>
    <text freecad:editable="part_material" id="part_material_data_field" y="236.2" x="231">
     <tspan xml:space="preserve">Aluminium</tspan>
    </text>
   </g>
   <g id="extras_outlines" style="fill:none;stroke:#000000;stroke-width:0.5;stroke-linecap:round;stroke-linejoin:round">
    <path d="m 389,222 -10,2.5 v 5 l 10,2.5 z" id="first_angle_trapezoid"/>
    <circle id="first_angle_inner circle" cx="396" cy="227" r="2.5"/>
    <circle id="first_angle_outer circle" cx="396" cy="227" r="5"/>
   </g>
   <g id="extras_centre_lines" style="fill:none;stroke:#000000;stroke-width:0.25;stroke-linecap:round;stroke-linejoin:round;stroke-dasharray:6, 0.75, 0.125, 0.75">
    <path d="m 378,227 h 24" id="first_angle_horizontal" style="stroke-dashoffset:0.25"/>
    <path d="m 396,233 v -12" id="first_angle_vertical" style="stroke-dashoffset:4.625"/>
   </g>
  </g>
  <g stroke-width="1" fill="none" stroke-linecap="square" id="DrawingContent" stroke-linejoin="bevel" stroke="black" fill-rule="evenodd">
   <g font-weight="400" stroke-width="1" fill="none" stroke-linecap="square" stroke-linejoin="bevel" font-size="29.1042" stroke="#000000" stroke-opacity="1" transform="matrix(1,0,0,1,1857,1681.11)" font-family="MS Shell Dlg 2" font-style="normal">
    <rect width="0" y="0" x="0" height="0"/>
   </g>
   <g font-weight="400" fill="#f1f3f5" font-size="29.1042" fill-opacity="0" stroke="none" transform="matrix(1,0,0,1,1857,1681.11)" font-family="MS Shell Dlg 2" font-style="normal">
    <path d="M-850,100 L850,100 L850,-100 L-850,-100 L-850,100" vector-effect="non-scaling-stroke" fill-rule="evenodd"/>
   </g>
   <g font-weight="400" fill="#f1f3f5" font-size="29.1042" fill-opacity="0" stroke="none" transform="matrix(1,0,0,1,1857,1681.11)" font-family="MS Shell Dlg 2" font-style="normal">
    <path d="M771,5.68434e-13 C771,11.598 761.598,21 750,21 C738.402,21 729,11.598 729,5.68434e-13 C729,-11.598 738.402,-21 750,-21 C761.598,-21 771,-11.598 771,5.68434e-13 " vector-effect="non-scaling-stroke" fill-rule="evenodd"/>
   </g>
   <g font-weight="400" fill="#f1f3f5" font-size="29.1042" fill-opacity="0" stroke="none" transform="matrix(1,0,0,1,1857,1681.11)" font-family="MS Shell Dlg 2" font-style="normal">
    <path d="M-729,-7.10543e-13 C-729,11.598 -738.402,21 -750,21 C-761.598,21 -771,11.598 -771,-7.10543e-13 C-771,-11.598 -761.598,-21 -750,-21 C-738.402,-21 -729,-11.598 -729,-7.10543e-13 " vector-effect="non-scaling-stroke" fill-rule="evenodd"/>
   </g>
   <g font-weight="400" stroke-width="7" fill="none" stroke-linecap="round" stroke-linejoin="bevel" font-size="29.1042" stroke="#000000" stroke-opacity="1" transform="matrix(1,0,0,1,1857,1681.11)" font-family="MS Shell Dlg 2" font-style="normal">
    <path d="M-850,100 L850,100" vector-effect="none" fill-rule="evenodd"/>
   </g>
   <g font-weight="400" stroke-width="7" fill="none" stroke-linecap="round" stroke-linejoin="bevel" font-size="29.1042" stroke="#000000" stroke-opacity="1" transform="matrix(1,0,0,1,1857,1681.11)" font-family="MS Shell Dlg 2" font-style="normal">
    <path d="M-850,100 L-850,-100" vector-effect="none" fill-rule="evenodd"/>
   </g>
   <g font-weight="400" stroke-width="7" fill="none" stroke-linecap="round" stroke-linejoin="bevel" font-size="29.1042" stroke="#000000" stroke-opacity="1" transform="matrix(1,0,0,1,1857,1681.11)" font-family="MS Shell Dlg 2" font-style="normal">
    <path d="M850,100 L850,-100" vector-effect="none" fill-rule="evenodd"/>
   </g>
   <g font-weight="400" stroke-width="7" fill="none" stroke-linecap="round" stroke-linejoin="bevel" font-size="29.1042" stroke="#000000" stroke-opacity="1" transform="matrix(1,0,0,1,1857,1681.11)" font-family="MS Shell Dlg 2" font-style="normal">
    <path d="M-850,-100 L850,-100" vector-effect="none" fill-rule="evenodd"/>
   </g>
   <g font-weight="400" stroke-width="7" fill="none" stroke-linecap="round" stroke-linejoin="bevel" font-size="29.1042" stroke="#000000" stroke-opacity="1" transform="matrix(1,0,0,1,1857,1681.11)" font-family="MS Shell Dlg 2" font-style="normal">
    <path d="M771,5.68434e-13 C771,11.598 761.598,21 750,21 C738.402,21 729,11.598 729,5.68434e-13 C729,-11.598 738.402,-21 750,-21 C761.598,-21 771,-11.598 771,5.68434e-13 " vector-effect="none" fill-rule="evenodd"/>
   </g>
   <g font-weight="400" stroke-width="7" fill="none" stroke-linecap="round" stroke-linejoin="bevel" font-size="29.1042" stroke="#000000" stroke-opacity="1" transform="matrix(1,0,0,1,1857,1681.11)" font-family="MS Shell Dlg 2" font-style="normal">
    <path d="M-729,-7.10543e-13 C-729,11.598 -738.402,21 -750,21 C-761.598,21 -771,11.598 -771,-7.10543e-13 C-771,-11.598 -761.598,-21 -750,-21 C-738.402,-21 -729,-11.598 -729,-7.10543e-13 " vector-effect="none" fill-rule="evenodd"/>
   </g>
   <g font-weight="400" stroke-width="1" fill="none" stroke-linecap="square" stroke-linejoin="bevel" font-size="29.1042" stroke="#000000" stroke-opacity="1" transform="matrix(1,0,0,1,1782.12,1365.6)" font-family="MS Shell Dlg 2" font-style="normal">
    <text xml:space="preserve" font-weight="400" fill="#000000" y="92" font-size="67" fill-opacity="1" stroke="none" x="4" font-family="osifont" font-style="normal">150.0</text>
   </g>
   <g font-weight="400" stroke-width="3.5" fill="none" stroke-linecap="round" stroke-linejoin="bevel" font-size="29.1042" stroke="#000000" stroke-opacity="1" transform="matrix(1,0,0,1,1857,1681.11)" font-family="MS Shell Dlg 2" font-style="normal">
    <path d="M750,-189.504 L-750,-189.504 M-750,-7.10543e-13 L-750,-217.504 M750,5.68434e-13 L750,-217.504" vector-effect="none" fill-rule="evenodd"/>
   </g>
   <g font-weight="400" stroke-width="3.5" fill="#000000" stroke-linecap="round" stroke-linejoin="bevel" font-size="29.1042" fill-opacity="1" stroke="#000000" stroke-opacity="1" transform="matrix(1,0,0,1,1107,1491.6)" font-family="MS Shell Dlg 2" font-style="normal">
    <path d="M0,0 L35,5.83333 L35,-5.83333 L0,0" vector-effect="none" fill-rule="evenodd"/>
   </g>
   <g font-weight="400" stroke-width="3.5" fill="#000000" stroke-linecap="round" stroke-linejoin="bevel" font-size="29.1042" fill-opacity="1" stroke="#000000" stroke-opacity="1" transform="matrix(1,0,0,1,2607,1491.6)" font-family="MS Shell Dlg 2" font-style="normal">
    <path d="M0,0 L-35,-5.83333 L-35,5.83333 L0,0" vector-effect="none" fill-rule="evenodd"/>
   </g>
   <g font-weight="400" stroke-width="1" fill="none" stroke-linecap="square" stroke-linejoin="bevel" font-size="29.1042" stroke="#000000" stroke-opacity="1" transform="matrix(1,0,0,1,2598.62,1365.6)" font-family="MS Shell Dlg 2" font-style="normal">
    <text xml:space="preserve" font-weight="400" fill="#000000" y="92" font-size="67" fill-opacity="1" stroke="none" x="4" font-family="osifont" font-style="normal">10.0</text>
   </g>
   <g font-weight="400" stroke-width="3.5" fill="none" stroke-linecap="round" stroke-linejoin="bevel" font-size="29.1042" stroke="#000000" stroke-opacity="1" transform="matrix(1,0,0,1,1857,1681.11)" font-family="MS Shell Dlg 2" font-style="normal">
    <path d="M920,-189.504 L680,-189.504 M750,5.68434e-13 L750,-217.504 M850,4.61853e-13 L850,-217.504" vector-effect="none" fill-rule="evenodd"/>
   </g>
   <g font-weight="400" stroke-width="3.5" fill="#000000" stroke-linecap="round" stroke-linejoin="bevel" font-size="29.1042" fill-opacity="1" stroke="#000000" stroke-opacity="1" transform="matrix(1,0,0,1,2607,1491.6)" font-family="MS Shell Dlg 2" font-style="normal">
    <path d="M0,0 L-35,-5.83333 L-35,5.83333 L0,0" vector-effect="none" fill-rule="evenodd"/>
   </g>
   <g font-weight="400" stroke-width="3.5" fill="#000000" stroke-linecap="round" stroke-linejoin="bevel" font-size="29.1042" fill-opacity="1" stroke="#000000" stroke-opacity="1" transform="matrix(1,0,0,1,2707,1491.6)" font-family="MS Shell Dlg 2" font-style="normal">
    <path d="M0,0 L35,5.83333 L35,-5.83333 L0,0" vector-effect="none" fill-rule="evenodd"/>
   </g>
   <g font-weight="400" stroke-width="1" fill="none" stroke-linecap="square" stroke-linejoin="bevel" font-size="29.1042" stroke="#000000" stroke-opacity="1" transform="matrix(0.793186,-0.608979,0.608979,0.793186,645.715,1876.41)" font-family="MS Shell Dlg 2" font-style="normal">
    <text xml:space="preserve" font-weight="400" fill="#000000" y="92" font-size="67" fill-opacity="1" stroke="none" x="4" font-family="osifont" font-style="normal">⌀4.2</text>
   </g>
   <g font-weight="400" stroke-width="3.5" fill="none" stroke-linecap="round" stroke-linejoin="bevel" font-size="29.1042" stroke="#000000" stroke-opacity="1" transform="matrix(1,0,0,1,1857,1681.11)" font-family="MS Shell Dlg 2" font-style="normal">
    <path d="M-677.82,-55.4171 L-1137.33,297.377" vector-effect="none" fill-rule="evenodd"/>
   </g>
   <g font-weight="400" stroke-width="3.5" fill="#000000" stroke-linecap="round" stroke-linejoin="bevel" font-size="29.1042" fill-opacity="1" stroke="#000000" stroke-opacity="1" transform="matrix(1,0,0,1,1090.34,1693.89)" font-family="MS Shell Dlg 2" font-style="normal">
    <path d="M0,0 L-31.3139,16.6873 L-24.2091,25.9412 L0,0" vector-effect="none" fill-rule="evenodd"/>
   </g>
   <g font-weight="400" stroke-width="3.5" fill="#000000" stroke-linecap="round" stroke-linejoin="bevel" font-size="29.1042" fill-opacity="1" stroke="#000000" stroke-opacity="1" transform="matrix(1,0,0,1,1123.66,1668.32)" font-family="MS Shell Dlg 2" font-style="normal">
    <path d="M0,0 L31.3139,-16.6873 L24.2091,-25.9412 L0,0" vector-effect="none" fill-rule="evenodd"/>
   </g>
   <g font-weight="400" stroke-width="1" fill="none" stroke-linecap="square" stroke-linejoin="bevel" font-size="29.1042" stroke="#000000" stroke-opacity="1" transform="matrix(1.83759e-15,1,-1,1.83759e-15,2947.28,1572.73)" font-family="MS Shell Dlg 2" font-style="normal">
    <text xml:space="preserve" font-weight="400" fill="#000000" y="92" font-size="67" fill-opacity="1" stroke="none" x="4" font-family="osifont" font-style="normal">10.0</text>
   </g>
   <g font-weight="400" stroke-width="3.5" fill="none" stroke-linecap="round" stroke-linejoin="bevel" font-size="29.1042" stroke="#000000" stroke-opacity="1" transform="matrix(1,0,0,1,1857,1681.11)" font-family="MS Shell Dlg 2" font-style="normal">
    <path d="M964.283,-170 L964.283,70 M750,5.68434e-13 L992.283,2.0691e-13 M750,-100 L992.283,-100" vector-effect="none" fill-rule="evenodd"/>
   </g>
   <g font-weight="400" stroke-width="3.5" fill="#000000" stroke-linecap="round" stroke-linejoin="bevel" font-size="29.1042" fill-opacity="1" stroke="#000000" stroke-opacity="1" transform="matrix(1,0,0,1,2821.28,1681.11)" font-family="MS Shell Dlg 2" font-style="normal">
    <path d="M0,0 L-5.83333,35 L5.83333,35 L0,0" vector-effect="none" fill-rule="evenodd"/>
   </g>
   <g font-weight="400" stroke-width="3.5" fill="#000000" stroke-linecap="round" stroke-linejoin="bevel" font-size="29.1042" fill-opacity="1" stroke="#000000" stroke-opacity="1" transform="matrix(1,0,0,1,2821.28,1581.11)" font-family="MS Shell Dlg 2" font-style="normal">
    <path d="M0,0 L5.83333,-35 L-5.83333,-35 L0,0" vector-effect="none" fill-rule="evenodd"/>
   </g>
   <g font-weight="400" fill="#f1f3f5" font-size="29.1042" fill-opacity="0" stroke="none" transform="matrix(1,0,0,1,1857,981.106)" font-family="MS Shell Dlg 2" font-style="normal">
    <path d="M-850,100 L850,100 L850,56 L694,-100 L-694,-100 L-850,56 L-850,100" vector-effect="non-scaling-stroke" fill-rule="evenodd"/>
   </g>
   <g font-weight="400" fill="#f1f3f5" font-size="29.1042" fill-opacity="0" stroke="none" transform="matrix(1,0,0,1,1857,981.106)" font-family="MS Shell Dlg 2" font-style="normal">
    <path d="M321,10 C321,21.598 311.598,31 300,31 C288.402,31 279,21.598 279,10 C279,-1.59798 288.402,-11 300,-11 C311.598,-11 321,-1.59798 321,10 " vector-effect="non-scaling-stroke" fill-rule="evenodd"/>
   </g>
   <g font-weight="400" fill="#f1f3f5" font-size="29.1042" fill-opacity="0" stroke="none" transform="matrix(1,0,0,1,1857,981.106)" font-family="MS Shell Dlg 2" font-style="normal">
    <path d="M-279,10 C-279,21.598 -288.402,31 -300,31 C-311.598,31 -321,21.598 -321,10 C-321,-1.59798 -311.598,-11 -300,-11 C-288.402,-11 -279,-1.59798 -279,10 " vector-effect="non-scaling-stroke" fill-rule="evenodd"/>
   </g>
   <g font-weight="400" stroke-width="7" fill="none" stroke-linecap="round" stroke-linejoin="bevel" font-size="29.1042" stroke="#000000" stroke-opacity="1" transform="matrix(1,0,0,1,1857,981.106)" font-family="MS Shell Dlg 2" font-style="normal">
    <path d="M-850,100 L850,100" vector-effect="none" fill-rule="evenodd"/>
   </g>
   <g font-weight="400" stroke-width="7" fill="none" stroke-linecap="round" stroke-linejoin="bevel" font-size="29.1042" stroke="#000000" stroke-opacity="1" transform="matrix(1,0,0,1,1857,981.106)" font-family="MS Shell Dlg 2" font-style="normal">
    <path d="M-850,100 L-850,56" vector-effect="none" fill-rule="evenodd"/>
   </g>
   <g font-weight="400" stroke-width="7" fill="none" stroke-linecap="round" stroke-linejoin="bevel" font-size="29.1042" stroke="#000000" stroke-opacity="1" transform="matrix(1,0,0,1,1857,981.106)" font-family="MS Shell Dlg 2" font-style="normal">
    <path d="M850,100 L850,56" vector-effect="none" fill-rule="evenodd"/>
   </g>
   <g font-weight="400" stroke-width="7" fill="none" stroke-linecap="round" stroke-linejoin="bevel" font-size="29.1042" stroke="#000000" stroke-opacity="1" transform="matrix(1,0,0,1,1857,981.106)" font-family="MS Shell Dlg 2" font-style="normal">
    <path d="M-694,-100 L-850,56" vector-effect="none" fill-rule="evenodd"/>
   </g>
   <g font-weight="400" stroke-width="7" fill="none" stroke-linecap="round" stroke-linejoin="bevel" font-size="29.1042" stroke="#000000" stroke-opacity="1" transform="matrix(1,0,0,1,1857,981.106)" font-family="MS Shell Dlg 2" font-style="normal">
    <path d="M-694,-100 L694,-100" vector-effect="none" fill-rule="evenodd"/>
   </g>
   <g font-weight="400" stroke-width="7" fill="none" stroke-linecap="round" stroke-linejoin="bevel" font-size="29.1042" stroke="#000000" stroke-opacity="1" transform="matrix(1,0,0,1,1857,981.106)" font-family="MS Shell Dlg 2" font-style="normal">
    <path d="M694,-100 L850,56" vector-effect="none" fill-rule="evenodd"/>
   </g>
   <g font-weight="400" stroke-width="7" fill="none" stroke-linecap="round" stroke-linejoin="bevel" font-size="29.1042" stroke="#000000" stroke-opacity="1" transform="matrix(1,0,0,1,1857,981.106)" font-family="MS Shell Dlg 2" font-style="normal">
    <path d="M321,10 C321,21.598 311.598,31 300,31 C288.402,31 279,21.598 279,10 C279,-1.59798 288.402,-11 300,-11 C311.598,-11 321,-1.59798 321,10 " vector-effect="none" fill-rule="evenodd"/>
   </g>
   <g font-weight="400" stroke-width="7" fill="none" stroke-linecap="round" stroke-linejoin="bevel" font-size="29.1042" stroke="#000000" stroke-opacity="1" transform="matrix(1,0,0,1,1857,981.106)" font-family="MS Shell Dlg 2" font-style="normal">
    <path d="M-279,10 C-279,21.598 -288.402,31 -300,31 C-311.598,31 -321,21.598 -321,10 C-321,-1.59798 -311.598,-11 -300,-11 C-288.402,-11 -279,-1.59798 -279,10 " vector-effect="none" fill-rule="evenodd"/>
   </g>
   <g font-weight="400" stroke-width="1" fill="none" stroke-linecap="square" stroke-linejoin="bevel" font-size="29.1042" stroke="#000000" stroke-opacity="1" transform="matrix(1,0,0,1,1782.62,1171.82)" font-family="MS Shell Dlg 2" font-style="normal">
    <text xml:space="preserve" font-weight="400" fill="#000000" y="92" font-size="67" fill-opacity="1" stroke="none" x="4" font-family="osifont" font-style="normal">170.0</text>
   </g>
   <g font-weight="400" stroke-width="3.5" fill="none" stroke-linecap="round" stroke-linejoin="bevel" font-size="29.1042" stroke="#000000" stroke-opacity="1" transform="matrix(1,0,0,1,1857,981.106)" font-family="MS Shell Dlg 2" font-style="normal">
    <path d="M-850,316.713 L850,316.713 M850,100 L850,344.713 M-850,100 L-850,344.713" vector-effect="none" fill-rule="evenodd"/>
   </g>
   <g font-weight="400" stroke-width="3.5" fill="#000000" stroke-linecap="round" stroke-linejoin="bevel" font-size="29.1042" fill-opacity="1" stroke="#000000" stroke-opacity="1" transform="matrix(1,0,0,1,2707,1297.82)" font-family="MS Shell Dlg 2" font-style="normal">
    <path d="M0,0 L-35,-5.83333 L-35,5.83333 L0,0" vector-effect="none" fill-rule="evenodd"/>
   </g>
   <g font-weight="400" stroke-width="3.5" fill="#000000" stroke-linecap="round" stroke-linejoin="bevel" font-size="29.1042" fill-opacity="1" stroke="#000000" stroke-opacity="1" transform="matrix(1,0,0,1,1007,1297.82)" font-family="MS Shell Dlg 2" font-style="normal">
    <path d="M0,0 L35,5.83333 L35,-5.83333 L0,0" vector-effect="none" fill-rule="evenodd"/>
   </g>
   <g font-weight="400" stroke-width="1" fill="none" stroke-linecap="square" stroke-linejoin="bevel" font-size="29.1042" stroke="#000000" stroke-opacity="1" transform="matrix(0.930734,0.365696,-0.365696,0.930734,1018.55,727.104)" font-family="MS Shell Dlg 2" font-style="normal">
    <text xml:space="preserve" font-weight="400" fill="#000000" y="92" font-size="67" fill-opacity="1" stroke="none" x="4" font-family="osifont" font-style="normal">45.0°</text>
   </g>
   <g font-weight="400" stroke-width="3.5" fill="none" stroke-linecap="round" stroke-linejoin="bevel" font-size="29.1042" stroke="#000000" stroke-opacity="1" transform="matrix(1,0,0,1,1857,981.106)" font-family="MS Shell Dlg 2" font-style="normal">
    <path d="M-681.014,168.917 C-673.995,147.208 -670.202,124.047 -670.202,100 C-670.202,-20.9109 -766.087,-119.427 -885.966,-123.656 M-694,-100 L-755.55,-38.45 M-698.202,100 L-642.202,100" vector-effect="none" fill-rule="evenodd"/>
   </g>
   <g font-weight="400" stroke-width="3.5" fill="#000000" stroke-linecap="round" stroke-linejoin="bevel" font-size="29.1042" fill-opacity="1" stroke="#000000" stroke-opacity="1" transform="matrix(1,0,0,1,1121.25,922.857)" font-family="MS Shell Dlg 2" font-style="normal">
    <path d="M0,0 L-20.6239,-28.8735 L-28.8735,-20.6239 L0,0" vector-effect="none" fill-rule="evenodd"/>
   </g>
   <g font-weight="400" stroke-width="3.5" fill="#000000" stroke-linecap="round" stroke-linejoin="bevel" font-size="29.1042" fill-opacity="1" stroke="#000000" stroke-opacity="1" transform="matrix(1,0,0,1,1186.8,1081.11)" font-family="MS Shell Dlg 2" font-style="normal">
    <path d="M0,0 L-5.83333,35 L5.83333,35 L0,0" vector-effect="none" fill-rule="evenodd"/>
   </g>
   <g font-weight="400" stroke-width="1" fill="none" stroke-linecap="square" stroke-linejoin="bevel" font-size="29.1042" stroke="#000000" stroke-opacity="1" transform="matrix(0.697869,0.716225,-0.716225,0.697869,1312.39,559.508)" font-family="MS Shell Dlg 2" font-style="normal">
    <text xml:space="preserve" font-weight="400" fill="#000000" y="92" font-size="67" fill-opacity="1" stroke="none" x="4" font-family="osifont" font-style="normal">⌀4.2</text>
   </g>
   <g font-weight="400" stroke-width="3.5" fill="none" stroke-linecap="round" stroke-linejoin="bevel" font-size="29.1042" stroke="#000000" stroke-opacity="1" transform="matrix(1,0,0,1,1857,981.106)" font-family="MS Shell Dlg 2" font-style="normal">
    <path d="M-236.494,75.1765 L-637.301,-336.173" vector-effect="none" fill-rule="evenodd"/>
   </g>
   <g font-weight="400" stroke-width="3.5" fill="#000000" stroke-linecap="round" stroke-linejoin="bevel" font-size="29.1042" fill-opacity="1" stroke="#000000" stroke-opacity="1" transform="matrix(1,0,0,1,1542.34,976.065)" font-family="MS Shell Dlg 2" font-style="normal">
    <path d="M0,0 L-20.2474,-29.1388 L-28.6034,-20.997 L0,0" vector-effect="none" fill-rule="evenodd"/>
   </g>
   <g font-weight="400" stroke-width="3.5" fill="#000000" stroke-linecap="round" stroke-linejoin="bevel" font-size="29.1042" fill-opacity="1" stroke="#000000" stroke-opacity="1" transform="matrix(1,0,0,1,1571.65,1006.15)" font-family="MS Shell Dlg 2" font-style="normal">
    <path d="M0,0 L20.2474,29.1388 L28.6034,20.997 L0,0" vector-effect="none" fill-rule="evenodd"/>
   </g>
   <g font-weight="400" stroke-width="1" fill="none" stroke-linecap="square" stroke-linejoin="bevel" font-size="29.1042" stroke="#000000" stroke-opacity="1" transform="matrix(0,-1,1,0,769.904,1109.11)" font-family="MS Shell Dlg 2" font-style="normal">
    <text xml:space="preserve" font-weight="400" fill="#000000" y="92" font-size="67" fill-opacity="1" stroke="none" x="4" font-family="osifont" font-style="normal">4.4</text>
   </g>
   <g font-weight="400" stroke-width="3.5" fill="none" stroke-linecap="round" stroke-linejoin="bevel" font-size="29.1042" stroke="#000000" stroke-opacity="1" transform="matrix(1,0,0,1,1857,981.106)" font-family="MS Shell Dlg 2" font-style="normal">
    <path d="M-961.096,170 L-961.096,-14 M-850,56 L-989.096,56 M-850,100 L-989.096,100" vector-effect="none" fill-rule="evenodd"/>
   </g>
   <g font-weight="400" stroke-width="3.5" fill="#000000" stroke-linecap="round" stroke-linejoin="bevel" font-size="29.1042" fill-opacity="1" stroke="#000000" stroke-opacity="1" transform="matrix(1,0,0,1,895.904,1037.11)" font-family="MS Shell Dlg 2" font-style="normal">
    <path d="M0,0 L5.83333,-35 L-5.83333,-35 L0,0" vector-effect="none" fill-rule="evenodd"/>
   </g>
   <g font-weight="400" stroke-width="3.5" fill="#000000" stroke-linecap="round" stroke-linejoin="bevel" font-size="29.1042" fill-opacity="1" stroke="#000000" stroke-opacity="1" transform="matrix(1,0,0,1,895.904,1081.11)" font-family="MS Shell Dlg 2" font-style="normal">
    <path d="M0,0 L-5.83333,35 L5.83333,35 L0,0" vector-effect="none" fill-rule="evenodd"/>
   </g>
   <g font-weight="400" stroke-width="1" fill="none" stroke-linecap="square" stroke-linejoin="bevel" font-size="29.1042" stroke="#000000" stroke-opacity="1" transform="matrix(1,0,0,1,1793.87,655.963)" font-family="MS Shell Dlg 2" font-style="normal">
    <text xml:space="preserve" font-weight="400" fill="#000000" y="92" font-size="67" fill-opacity="1" stroke="none" x="4" font-family="osifont" font-style="normal">60.0</text>
   </g>
   <g font-weight="400" stroke-width="3.5" fill="none" stroke-linecap="round" stroke-linejoin="bevel" font-size="29.1042" stroke="#000000" stroke-opacity="1" transform="matrix(1,0,0,1,1857,981.106)" font-family="MS Shell Dlg 2" font-style="normal">
    <path d="M300,-199.143 L-300,-199.143 M-300,10 L-300,-227.143 M300,10 L300,-227.143" vector-effect="none" fill-rule="evenodd"/>
   </g>
   <g font-weight="400" stroke-width="3.5" fill="#000000" stroke-linecap="round" stroke-linejoin="bevel" font-size="29.1042" fill-opacity="1" stroke="#000000" stroke-opacity="1" transform="matrix(1,0,0,1,1557,781.963)" font-family="MS Shell Dlg 2" font-style="normal">
    <path d="M0,0 L35,5.83333 L35,-5.83333 L0,0" vector-effect="none" fill-rule="evenodd"/>
   </g>
   <g font-weight="400" stroke-width="3.5" fill="#000000" stroke-linecap="round" stroke-linejoin="bevel" font-size="29.1042" fill-opacity="1" stroke="#000000" stroke-opacity="1" transform="matrix(1,0,0,1,2157,781.963)" font-family="MS Shell Dlg 2" font-style="normal">
    <path d="M0,0 L-35,-5.83333 L-35,5.83333 L0,0" vector-effect="none" fill-rule="evenodd"/>
   </g>
   <g font-weight="400" stroke-width="1" fill="none" stroke-linecap="square" stroke-linejoin="bevel" font-size="29.1042" stroke="#000000" stroke-opacity="1" transform="matrix(0,1,-1,0,3034.48,987.981)" font-family="MS Shell Dlg 2" font-style="normal">
    <text xml:space="preserve" font-weight="400" fill="#000000" y="92" font-size="67" fill-opacity="1" stroke="none" x="4" font-family="osifont" font-style="normal">9.0</text>
   </g>
   <g font-weight="400" stroke-width="3.5" fill="none" stroke-linecap="round" stroke-linejoin="bevel" font-size="29.1042" stroke="#000000" stroke-opacity="1" transform="matrix(1,0,0,1,1857,981.106)" font-family="MS Shell Dlg 2" font-style="normal">
    <path d="M1051.48,170 L1051.48,-60 M300,10 L1079.48,10 M300,100 L1079.48,100" vector-effect="none" fill-rule="evenodd"/>
   </g>
   <g font-weight="400" stroke-width="3.5" fill="#000000" stroke-linecap="round" stroke-linejoin="bevel" font-size="29.1042" fill-opacity="1" stroke="#000000" stroke-opacity="1" transform="matrix(1,0,0,1,2908.48,991.106)" font-family="MS Shell Dlg 2" font-style="normal">
    <path d="M0,0 L5.83333,-35 L-5.83333,-35 L0,0" vector-effect="none" fill-rule="evenodd"/>
   </g>
   <g font-weight="400" stroke-width="3.5" fill="#000000" stroke-linecap="round" stroke-linejoin="bevel" font-size="29.1042" fill-opacity="1" stroke="#000000" stroke-opacity="1" transform="matrix(1,0,0,1,2908.48,1081.11)" font-family="MS Shell Dlg 2" font-style="normal">
    <path d="M0,0 L-5.83333,35 L5.83333,35 L0,0" vector-effect="none" fill-rule="evenodd"/>
   </g>
   <g font-weight="400" stroke-width="1" fill="none" stroke-linecap="square" stroke-linejoin="bevel" font-size="29.1042" stroke="#000000" stroke-opacity="1" transform="matrix(1,0,0,1,2367.87,655.963)" font-family="MS Shell Dlg 2" font-style="normal">
    <text xml:space="preserve" font-weight="400" fill="#000000" y="92" font-size="67" fill-opacity="1" stroke="none" x="4" font-family="osifont" font-style="normal">55.0</text>
   </g>
   <g font-weight="400" stroke-width="3.5" fill="none" stroke-linecap="round" stroke-linejoin="bevel" font-size="29.1042" stroke="#000000" stroke-opacity="1" transform="matrix(1,0,0,1,1857,981.106)" font-family="MS Shell Dlg 2" font-style="normal">
    <path d="M850,-199.143 L300,-199.143 M300,10 L300,-227.143 M850,56 L850,-227.143" vector-effect="none" fill-rule="evenodd"/>
   </g>
   <g font-weight="400" stroke-width="3.5" fill="#000000" stroke-linecap="round" stroke-linejoin="bevel" font-size="29.1042" fill-opacity="1" stroke="#000000" stroke-opacity="1" transform="matrix(1,0,0,1,2157,781.963)" font-family="MS Shell Dlg 2" font-style="normal">
    <path d="M0,0 L35,5.83333 L35,-5.83333 L0,0" vector-effect="none" fill-rule="evenodd"/>
   </g>
   <g font-weight="400" stroke-width="3.5" fill="#000000" stroke-linecap="round" stroke-linejoin="bevel" font-size="29.1042" fill-opacity="1" stroke="#000000" stroke-opacity="1" transform="matrix(1,0,0,1,2707,781.963)" font-family="MS Shell Dlg 2" font-style="normal">
    <path d="M0,0 L-35,-5.83333 L-35,5.83333 L0,0" vector-effect="none" fill-rule="evenodd"/>
   </g>
   <g font-weight="400" fill="#f1f3f5" font-size="29.1042" fill-opacity="0" stroke="none" transform="matrix(1,0,0,1,3307,1681.11)" font-family="MS Shell Dlg 2" font-style="normal">
    <path d="M100,-100 L100,-85 L-56,-85 L-85,-85 L-85,100 L-100,100 L-100,-100 L-56,-100 L100,-100" vector-effect="non-scaling-stroke" fill-rule="evenodd"/>
   </g>
   <g font-weight="400" fill="#f1f3f5" font-size="29.1042" fill-opacity="0" stroke="none" transform="matrix(1,0,0,1,3307,1681.11)" font-family="MS Shell Dlg 2" font-style="normal">
    <path d="M-100,100 L-100,-100 L-56,-100 L-56,-85 L-85,-85 L-85,100 L-100,100" vector-effect="non-scaling-stroke" fill-rule="evenodd"/>
   </g>
   <g font-weight="400" fill="#f1f3f5" font-size="29.1042" fill-opacity="0" stroke="none" transform="matrix(1,0,0,1,3307,1681.11)" font-family="MS Shell Dlg 2" font-style="normal">
    <path d="M100,-100 L-56,-100 L-56,-85 L100,-85 L100,-100" vector-effect="non-scaling-stroke" fill-rule="evenodd"/>
   </g>
   <g font-weight="400" stroke-width="7" fill="none" stroke-linecap="round" stroke-linejoin="bevel" font-size="29.1042" stroke="#000000" stroke-opacity="1" transform="matrix(1,0,0,1,3307,1681.11)" font-family="MS Shell Dlg 2" font-style="normal">
    <path d="M-100,100 L-100,-100" vector-effect="none" fill-rule="evenodd"/>
   </g>
   <g font-weight="400" stroke-width="7" fill="none" stroke-linecap="round" stroke-linejoin="bevel" font-size="29.1042" stroke="#000000" stroke-opacity="1" transform="matrix(1,0,0,1,3307,1681.11)" font-family="MS Shell Dlg 2" font-style="normal">
    <path d="M-85,100 L-100,100" vector-effect="none" fill-rule="evenodd"/>
   </g>
   <g font-weight="400" stroke-width="7" fill="none" stroke-linecap="round" stroke-linejoin="bevel" font-size="29.1042" stroke="#000000" stroke-opacity="1" transform="matrix(1,0,0,1,3307,1681.11)" font-family="MS Shell Dlg 2" font-style="normal">
    <path d="M-100,-100 L-56,-100" vector-effect="none" fill-rule="evenodd"/>
   </g>
   <g font-weight="400" stroke-width="7" fill="none" stroke-linecap="round" stroke-linejoin="bevel" font-size="29.1042" stroke="#000000" stroke-opacity="1" transform="matrix(1,0,0,1,3307,1681.11)" font-family="MS Shell Dlg 2" font-style="normal">
    <path d="M-56,-100 L-56,-85" vector-effect="none" fill-rule="evenodd"/>
   </g>
   <g font-weight="400" stroke-width="7" fill="none" stroke-linecap="round" stroke-linejoin="bevel" font-size="29.1042" stroke="#000000" stroke-opacity="1" transform="matrix(1,0,0,1,3307,1681.11)" font-family="MS Shell Dlg 2" font-style="normal">
    <path d="M-56,-85 L-85,-85" vector-effect="none" fill-rule="evenodd"/>
   </g>
   <g font-weight="400" stroke-width="7" fill="none" stroke-linecap="round" stroke-linejoin="bevel" font-size="29.1042" stroke="#000000" stroke-opacity="1" transform="matrix(1,0,0,1,3307,1681.11)" font-family="MS Shell Dlg 2" font-style="normal">
    <path d="M-85,-85 L-85,100" vector-effect="none" fill-rule="evenodd"/>
   </g>
   <g font-weight="400" stroke-width="7" fill="none" stroke-linecap="round" stroke-linejoin="bevel" font-size="29.1042" stroke="#000000" stroke-opacity="1" transform="matrix(1,0,0,1,3307,1681.11)" font-family="MS Shell Dlg 2" font-style="normal">
    <path d="M100,-100 L-56,-100" vector-effect="none" fill-rule="evenodd"/>
   </g>
   <g font-weight="400" stroke-width="7" fill="none" stroke-linecap="round" stroke-linejoin="bevel" font-size="29.1042" stroke="#000000" stroke-opacity="1" transform="matrix(1,0,0,1,3307,1681.11)" font-family="MS Shell Dlg 2" font-style="normal">
    <path d="M100,-85 L-56,-85" vector-effect="none" fill-rule="evenodd"/>
   </g>
   <g font-weight="400" stroke-width="7" fill="none" stroke-linecap="round" stroke-linejoin="bevel" font-size="29.1042" stroke="#000000" stroke-opacity="1" transform="matrix(1,0,0,1,3307,1681.11)" font-family="MS Shell Dlg 2" font-style="normal">
    <path d="M100,-100 L100,-85" vector-effect="none" fill-rule="evenodd"/>
   </g>
   <g font-weight="400" stroke-width="1" fill="none" stroke-linecap="square" stroke-linejoin="bevel" font-size="29.1042" stroke="#000000" stroke-opacity="1" transform="matrix(1,0,0,1,3034.21,1803.29)" font-family="MS Shell Dlg 2" font-style="normal">
    <text xml:space="preserve" font-weight="400" fill="#000000" y="92" font-size="67" fill-opacity="1" stroke="none" x="4" font-family="osifont" font-style="normal">1.5</text>
   </g>
   <g font-weight="400" stroke-width="3.5" fill="none" stroke-linecap="round" stroke-linejoin="bevel" font-size="29.1042" stroke="#000000" stroke-opacity="1" transform="matrix(1,0,0,1,3307,1681.11)" font-family="MS Shell Dlg 2" font-style="normal">
    <path d="M-15,248.186 L-276.294,248.186 M-100,100 L-100,276.186 M-85,100 L-85,276.186" vector-effect="none" fill-rule="evenodd"/>
   </g>
   <g font-weight="400" stroke-width="3.5" fill="#000000" stroke-linecap="round" stroke-linejoin="bevel" font-size="29.1042" fill-opacity="1" stroke="#000000" stroke-opacity="1" transform="matrix(1,0,0,1,3207,1929.29)" font-family="MS Shell Dlg 2" font-style="normal">
    <path d="M0,0 L-35,-5.83333 L-35,5.83333 L0,0" vector-effect="none" fill-rule="evenodd"/>
   </g>
   <g font-weight="400" stroke-width="3.5" fill="#000000" stroke-linecap="round" stroke-linejoin="bevel" font-size="29.1042" fill-opacity="1" stroke="#000000" stroke-opacity="1" transform="matrix(1,0,0,1,3222,1929.29)" font-family="MS Shell Dlg 2" font-style="normal">
    <path d="M0,0 L35,5.83333 L35,-5.83333 L0,0" vector-effect="none" fill-rule="evenodd"/>
   </g>
   <g font-weight="400" stroke-width="1" fill="none" stroke-linecap="square" stroke-linejoin="bevel" font-size="29.1042" stroke="#000000" stroke-opacity="1" transform="matrix(0,-1,1,0,3416.89,1509.82)" font-family="MS Shell Dlg 2" font-style="normal">
    <text xml:space="preserve" font-weight="400" fill="#000000" y="92" font-size="67" fill-opacity="1" stroke="none" x="4" font-family="osifont" font-style="normal">1.5</text>
   </g>
   <g font-weight="400" stroke-width="3.5" fill="none" stroke-linecap="round" stroke-linejoin="bevel" font-size="29.1042" stroke="#000000" stroke-opacity="1" transform="matrix(1,0,0,1,3307,1681.11)" font-family="MS Shell Dlg 2" font-style="normal">
    <path d="M235.887,-15 L235.887,-262.29 M100,-100 L263.887,-100 M100,-85 L263.887,-85" vector-effect="none" fill-rule="evenodd"/>
   </g>
   <g font-weight="400" stroke-width="3.5" fill="#000000" stroke-linecap="round" stroke-linejoin="bevel" font-size="29.1042" fill-opacity="1" stroke="#000000" stroke-opacity="1" transform="matrix(1,0,0,1,3542.89,1581.11)" font-family="MS Shell Dlg 2" font-style="normal">
    <path d="M0,0 L5.83333,-35 L-5.83333,-35 L0,0" vector-effect="none" fill-rule="evenodd"/>
   </g>
   <g font-weight="400" stroke-width="3.5" fill="#000000" stroke-linecap="round" stroke-linejoin="bevel" font-size="29.1042" fill-opacity="1" stroke="#000000" stroke-opacity="1" transform="matrix(1,0,0,1,3542.89,1596.11)" font-family="MS Shell Dlg 2" font-style="normal">
    <path d="M0,0 L-5.83333,35 L5.83333,35 L0,0" vector-effect="none" fill-rule="evenodd"/>
   </g>
   <g font-weight="400" stroke-width="1" fill="none" stroke-linecap="square" stroke-linejoin="bevel" font-size="29.1042" stroke="#000000" stroke-opacity="1" transform="matrix(0,-1,1,0,2970.93,1743.36)" font-family="MS Shell Dlg 2" font-style="normal">
    <text xml:space="preserve" font-weight="400" fill="#000000" y="92" font-size="67" fill-opacity="1" stroke="none" x="4" font-family="osifont" font-style="normal">20.0</text>
   </g>
   <g font-weight="400" stroke-width="3.5" fill="none" stroke-linecap="round" stroke-linejoin="bevel" font-size="29.1042" stroke="#000000" stroke-opacity="1" transform="matrix(1,0,0,1,3307,1681.11)" font-family="MS Shell Dlg 2" font-style="normal">
    <path d="M-210.074,100 L-210.074,-100 M-100,-100 L-238.074,-100 M-100,100 L-238.074,100" vector-effect="none" fill-rule="evenodd"/>
   </g>
   <g font-weight="400" stroke-width="3.5" fill="#000000" stroke-linecap="round" stroke-linejoin="bevel" font-size="29.1042" fill-opacity="1" stroke="#000000" stroke-opacity="1" transform="matrix(1,0,0,1,3096.93,1581.11)" font-family="MS Shell Dlg 2" font-style="normal">
    <path d="M0,0 L-5.83333,35 L5.83333,35 L0,0" vector-effect="none" fill-rule="evenodd"/>
   </g>
   <g font-weight="400" stroke-width="3.5" fill="#000000" stroke-linecap="round" stroke-linejoin="bevel" font-size="29.1042" fill-opacity="1" stroke="#000000" stroke-opacity="1" transform="matrix(1,0,0,1,3096.93,1781.11)" font-family="MS Shell Dlg 2" font-style="normal">
    <path d="M0,0 L5.83333,-35 L-5.83333,-35 L0,0" vector-effect="none" fill-rule="evenodd"/>
   </g>
   <g font-weight="400" stroke-width="1" fill="none" stroke-linecap="square" stroke-linejoin="bevel" font-size="29.1042" stroke="#000000" stroke-opacity="1" transform="matrix(1,0,0,1,3244.75,1367.24)" font-family="MS Shell Dlg 2" font-style="normal">
    <text xml:space="preserve" font-weight="400" fill="#000000" y="92" font-size="67" fill-opacity="1" stroke="none" x="4" font-family="osifont" font-style="normal">20.0</text>
   </g>
   <g font-weight="400" stroke-width="3.5" fill="none" stroke-linecap="round" stroke-linejoin="bevel" font-size="29.1042" stroke="#000000" stroke-opacity="1" transform="matrix(1,0,0,1,3307,1681.11)" font-family="MS Shell Dlg 2" font-style="normal">
    <path d="M-100,-187.865 L100,-187.865 M100,-100 L100,-215.865 M-100,-100 L-100,-215.865" vector-effect="none" fill-rule="evenodd"/>
   </g>
   <g font-weight="400" stroke-width="3.5" fill="#000000" stroke-linecap="round" stroke-linejoin="bevel" font-size="29.1042" fill-opacity="1" stroke="#000000" stroke-opacity="1" transform="matrix(1,0,0,1,3407,1493.24)" font-family="MS Shell Dlg 2" font-style="normal">
    <path d="M0,0 L-35,-5.83333 L-35,5.83333 L0,0" vector-effect="none" fill-rule="evenodd"/>
   </g>
   <g font-weight="400" stroke-width="3.5" fill="#000000" stroke-linecap="round" stroke-linejoin="bevel" font-size="29.1042" fill-opacity="1" stroke="#000000" stroke-opacity="1" transform="matrix(1,0,0,1,3207,1493.24)" font-family="MS Shell Dlg 2" font-style="normal">
    <path d="M0,0 L35,5.83333 L35,-5.83333 L0,0" vector-effect="none" fill-rule="evenodd"/>
   </g>
  </g>
 </g>
</svg>
