<?xml version='1.0' encoding='UTF-8' standalone='no'?>
<svg height="297mm" width="420mm" viewBox="0 0 4200 2970" version="1.2" xmlns:cc="http://creativecommons.org/ns#" xmlns:inkscape="http://www.inkscape.org/namespaces/inkscape" xmlns:dc="http://purl.org/dc/elements/1.1/" xmlns="http://www.w3.org/2000/svg" xmlns:xlink="http://www.w3.org/1999/xlink" xmlns:svg="http://www.w3.org/2000/svg" xmlns:sodipodi="http://sodipodi.sourceforge.net/DTD/sodipodi-0.dtd" xmlns:freecad="https://www.freecad.org/wiki/index.php?title=Svg_Namespace" baseProfile="tiny" xmlns:rdf="http://www.w3.org/1999/02/22-rdf-syntax-ns#">
 <title>FreeCAD SVG Export</title>
 <desc>Drawing page: Page exported from FreeCAD document: OCT_CFPNL_AA</desc>
 <defs/>
 <g inkscape:label="TechDraw" id="Page" inkscape:groupmode="layer">
  <g style="stroke: none;" id="A3_Landscape_ISO5457_advanced.svg" transform="scale(10.000000, 10.000000)">
   <title id="title">Drawing sheet ISO 5457 - A3T - Advanced</title>
   <metadata id="metadata">
    <rdf:RDF>
     <cc:Work rdf:about="">
      <cc:license rdf:resource="http://creativecommons.org/publicdomain/zero/1.0/"/>
      <dc:title>Drawing sheet ISO 5457 - A3T - Advanced</dc:title>
      <dc:creator>
       <cc:Agent>
        <dc:title>Benjamin May</dc:title>
       </cc:Agent>
      </dc:creator>
     </cc:Work>
     <cc:License rdf:about="http://creativecommons.org/publicdomain/zero/1.0/">
      <cc:permits rdf:resource="http://creativecommons.org/ns#Reproduction"/>
      <cc:permits rdf:resource="http://creativecommons.org/ns#Distribution"/>
      <cc:permits rdf:resource="http://creativecommons.org/ns#DerivativeWorks"/>
     </cc:License>
    </rdf:RDF>
   </metadata>
   <rect height="277" width="390" y="10" style="fill:none;stroke:#000000;stroke-width:0.7;stroke-linecap:round;stroke-linejoin:round" x="20" id="drawing_space_frame"/>
   <g style="fill:none;stroke:#000000;stroke-width:0.7;stroke-linecap:round" id="centring_marks">
    <path d="m 210,5 v 10" id="top_centering"/>
    <path d="m 415,148.5 h -10" id="right_centering"/>
    <path d="m 210,292 v -10" id="bottom_centering"/>
    <path d="m 15,148.5 h 10" id="left_centering"/>
   </g>
   <g id="grid_reference_system">
    <g style="fill:none;stroke:#000000;stroke-width:0.35;stroke-linecap:round;stroke-linejoin:round" id="grid_reference_borders">
     <rect height="287" width="400" y="5" x="15" id="grid_reference_border"/>
     <path d="m 60,5 v 5" id="upper_border_1"/>
     <path d="m 110,5 v 5" id="upper_border_2"/>
     <path d="m 160,5 v 5" id="upper_border_3"/>
     <path d="m 260,5 v 5" id="upper_border_5"/>
     <path d="m 310,5 v 5" id="upper_border_6"/>
     <path d="m 360,5 v 5" id="upper_border_7"/>
     <path d="m 415,48.5 h -5" id="right_border_1"/>
     <path d="m 415,98.5 h -5" id="right_border_2"/>
     <path d="m 415,198.5 h -5" id="right_border_4"/>
     <path d="m 415,248.5 h -5" id="right_border_5"/>
     <path d="m 60,292 v -5" id="lower_border_1"/>
     <path d="m 110,292 v -5" id="lower_border_2"/>
     <path d="m 160,292 v -5" id="lower_border_3"/>
     <path d="m 260,292 v -5" id="lower_border_5"/>
     <path d="m 310,292 v -5" id="lower_border_6"/>
     <path d="m 360,292 v -5" id="lower_border_7"/>
     <path d="m 15,48.5 h 5" id="left_border_1"/>
     <path d="m 15,98.5 h 5" id="left_border_2"/>
     <path d="m 15,198.5 h 5" id="left_border_4"/>
     <path d="m 15,248.5 h 5" id="left_border_5"/>
    </g>
    <g style="font-size:3.5px;font-family:osifont;text-align:center;text-anchor:middle;fill:#000000;stroke:none" id="grid_reference_markers">
     <text y="8.8" x="35" id="upper_marker_1">1</text>
     <text y="8.8" x="85" id="upper_marker_2">2</text>
     <text y="8.8" x="135" id="upper_marker_3">3</text>
     <text y="8.8" x="185" id="upper_marker_4">4</text>
     <text y="8.8" x="235" id="upper_marker_5">5</text>
     <text y="8.8" x="285" id="upper_marker_6">6</text>
     <text y="8.8" x="335" id="upper_marker_7">7</text>
     <text y="8.8" x="385" id="upper_marker_8">8</text>
     <text y="24.8" x="412.5" id="right_marker_1">A</text>
     <text y="74.8" x="412.5" id="right_marker_2">B</text>
     <text y="124.8" x="412.5" id="right_marker_3">C</text>
     <text y="174.8" x="412.5" id="right_marker_4">D</text>
     <text y="224.8" x="412.5" id="right_marker_5">E</text>
     <text y="274.8" x="412.5" id="right_marker_6">F</text>
     <text y="290.8" x="35" id="lower_marker_1">1</text>
     <text y="290.8" x="85" id="lower_marker_2">2</text>
     <text y="290.8" x="135" id="lower_marker_3">3</text>
     <text y="290.8" x="185" id="lower_marker_4">4</text>
     <text y="290.8" x="235" id="lower_marker_5">5</text>
     <text y="290.8" x="285" id="lower_marker_6">6</text>
     <text y="290.8" x="335" id="lower_marker_7">7</text>
     <text y="290.8" x="385" id="lower_marker_8">A3</text>
     <text y="24.8" x="17.5" id="left_marker_1">A</text>
     <text y="74.8" x="17.5" id="left_marker_2">B</text>
     <text y="124.8" x="17.5" id="left_marker_3">C</text>
     <text y="174.8" x="17.5" id="left_marker_4">D</text>
     <text y="224.8" x="17.5" id="left_marker_5">E</text>
     <text y="274.8" x="17.5" id="left_marker_6">F</text>
    </g>
   </g>
   <g style="fill:#000000;stroke:none" id="trimming_marks">>
    <path d="m 0,0 h 10 v 5 h -5 v 5 h -5 z" id="top_left_trimming"/>
    <path d="m 420,0 h -10 v 5 h 5 v 5 h 5 z" id="top_right_trimming"/>
    <path d="m 420,297 h -10 v -5 h 5 v -5 h 5 z" id="bottom_right_trimming"/>
    <path d="m 0,297 h 10 v -5 h -5 v -5 h -5 z" id="bottom_left_trimming"/>
   </g>
   <!-- Title block -->
   <g style="fill:none;stroke:#000000;stroke-width:0.35;stroke-linecap:round;stroke-linejoin:round" id="title_block_borders">
    <rect height="48" width="180" y="239" style="stroke-width:0.7" x="230" id="title_block_frame"/>
    <rect height="24" width="40" y="239" x="370" id="legal_owner_border"/>
    <rect height="12" width="60" y="263" x="310" id="identification_number_border"/>
    <rect height="12" width="20" y="275" x="370" id="revision_index_border"/>
    <rect height="12" width="40" y="275" x="330" id="date_of_issue_border"/>
    <rect height="12" width="20" y="275" x="390" id="sheet_number_border"/>
    <rect height="12" width="20" y="275" x="310" id="language_code_border"/>
    <rect height="24" width="80" y="239" x="230" id="title_border"/>
    <rect height="12" width="40" y="263" x="370" id="responsible_department_border"/>
    <rect height="12" width="60" y="251" x="310" id="approval_person_border"/>
    <rect height="12" width="60" y="239" x="310" id="creator_border"/>
    <rect height="12" width="80" y="263" x="230" id="document_type_border"/>
    <rect height="12" width="80" y="275" x="230" id="document_status_border"/>
   </g>
   <g style="font-size:3.5px;font-family:osifont;text-anchor:start;fill:#000000;stroke:none" id="title_block_labels">
    <text y="242.6" x="370.5" id="legal_owner_label">Owner:</text>
    <text y="266.6" x="310.5" id="identification_number_label">Drawing number:</text>
    <text y="278.6" x="370.5" id="revision_index_label">Revision:</text>
    <text y="278.6" x="330.5" id="date_of_issue_label">Issue date:</text>
    <text y="278.6" x="390.5" id="sheet_number_label">Sheet:</text>
    <text y="278.6" x="310.5" id="language_code_label">Language:</text>
    <text y="242.6" x="230.5" id="title_label">Title, supplementary title:</text>
    <text y="266.6" x="370.5" id="responsible_department_label">Responsible department:</text>
    <text y="254.6" x="310.5" id="approval_person_label">Approved by:</text>
    <text y="242.6" x="310.5" id="creator_label">Created by:</text>
    <text y="266.6" x="230.5" id="document_type label">Document type:</text>
    <text y="278.6" x="230.5" id="document_status_label">Document status:</text>
    <text y="230.6" x="350.5" id="sheet_scale_label">Scale:</text>
    <text y="230.6" x="310.5" id="general_tolerances_label">General tolerances:</text>
    <text y="230.6" x="230.5" id="part_material_label">Part Material:</text>
   </g>
   <g style="font-size:5px;font-family:osifont;text-anchor:start;fill:#000000;stroke:none" id="title_block_data_fields">
    <text y="248.1" freecad:editable="legal_owner_1" style="font-size:3.5px;text-align:center;text-anchor:middle" x="390" id="legal_owner_1_data_field" freecad:autofill="organization">
     <tspan xml:space="preserve"/>
    </text>
    <text y="252.1" freecad:editable="legal_owner_2" style="font-size:3.5px;text-align:center;text-anchor:middle" x="390" id="legal_owner_2_data_field">
     <tspan xml:space="preserve"/>
    </text>
    <text y="256.1" freecad:editable="legal_owner_3" style="font-size:3.5px;text-align:center;text-anchor:middle" x="390" id="legal_owner_3_data_field">
     <tspan xml:space="preserve"/>
    </text>
    <text y="260.1" freecad:editable="legal_owner_4" style="font-size:3.5px;text-align:center;text-anchor:middle" x="390" id="legal_owner_4_data_field">
     <tspan xml:space="preserve"/>
    </text>
    <text y="272.2" freecad:editable="drawing_number" x="311" id="identification_number_data_field">
     <tspan xml:space="preserve">DN</tspan>
    </text>
    <text y="284.2" freecad:editable="revision_index" style="text-align:center;text-anchor:middle" x="380" id="revision_index_data_field">
     <tspan xml:space="preserve">A</tspan>
    </text>
    <text y="284.2" freecad:editable="date_of_issue" x="331" id="date_of_issue_data_field" freecad:autofill="date">
     <tspan xml:space="preserve">08/02/2026</tspan>
    </text>
    <text y="284.2" freecad:editable="sheet_number" style="text-align:center;text-anchor:middle" x="400" id="sheet_number_data_field" freecad:autofill="sheet">
     <tspan xml:space="preserve">1 / 1</tspan>
    </text>
    <text y="284.2" freecad:editable="language_code" style="text-align:center;text-anchor:middle" x="320" id="language_data_field">
     <tspan xml:space="preserve">EN</tspan>
    </text>
    <text y="248.2" freecad:editable="title" x="231" id="title_data_field" freecad:autofill="title">
     <tspan xml:space="preserve">OCT-CFPNL-AA</tspan>
    </text>
    <text y="254.2" freecad:editable="supplementary_title_1" x="231" id="supplementary_title_1_data_field">
     <tspan xml:space="preserve">Chamber Top Bracket</tspan>
    </text>
    <text y="260.2" freecad:editable="supplementary_title_2" x="231" id="supplementary_title_2_data_field">
     <tspan xml:space="preserve"/>
    </text>
    <text y="272.2" freecad:editable="responsible_department" x="371" id="responsible_department_data_field">
     <tspan xml:space="preserve">RD</tspan>
    </text>
    <text y="260.2" freecad:editable="approval_person" x="311" id="approval_person_data_field">
     <tspan xml:space="preserve">S. Aphelion</tspan>
    </text>
    <text y="248.2" freecad:editable="creator" x="311" id="creator_data_field" freecad:autofill="author">
     <tspan xml:space="preserve">Michael Stoll</tspan>
    </text>
    <text y="272.2" freecad:editable="document_type" x="231" id="document_type_data_field">
     <tspan xml:space="preserve">Component Drawing</tspan>
    </text>
    <text y="284.2" freecad:editable="document_status" x="231" id="document_status_data_field">
     <tspan xml:space="preserve">In preparation</tspan>
    </text>
    <text y="236.2" freecad:editable="scale" style="text-align:center;text-anchor:middle" x="360" id="sheet_scale_data_field" freecad:autofill="scale">
     <tspan xml:space="preserve">1 : 1</tspan>
    </text>
    <text y="236.2" freecad:editable="general_tolerances" x="311" id="general_tolerances_data_field">
     <tspan xml:space="preserve">+-0.1 mm</tspan>
    </text>
    <text y="236.2" freecad:editable="part_material" x="231" id="part_material_data_field">
     <tspan xml:space="preserve">Aluminium</tspan>
    </text>
   </g>
   <g style="fill:none;stroke:#000000;stroke-width:0.5;stroke-linecap:round;stroke-linejoin:round" id="extras_outlines">
    <path d="m 389,222 -10,2.5 v 5 l 10,2.5 z" id="first_angle_trapezoid"/>
    <circle cx="396" r="2.5" id="first_angle_inner circle" cy="227"/>
    <circle cx="396" r="5" id="first_angle_outer circle" cy="227"/>
   </g>
   <g style="fill:none;stroke:#000000;stroke-width:0.25;stroke-linecap:round;stroke-linejoin:round;stroke-dasharray:6, 0.75, 0.125, 0.75" id="extras_centre_lines">
    <path d="m 378,227 h 24" style="stroke-dashoffset:0.25" id="first_angle_horizontal"/>
    <path d="m 396,233 v -12" style="stroke-dashoffset:4.625" id="first_angle_vertical"/>
   </g>
  </g>
  <g fill="none" stroke-width="1" fill-rule="evenodd" id="DrawingContent" stroke-linecap="square" stroke="black" stroke-linejoin="bevel">
   <g fill="none" font-size="29.1042" font-weight="400" stroke-width="1" font-family="MS Shell Dlg 2" stroke-opacity="1" font-style="normal" stroke-linecap="square" stroke="#000000" transform="matrix(1,0,0,1,1857,1681.11)" stroke-linejoin="bevel">
    <rect height="0" width="0" y="0" x="0"/>
   </g>
   <g fill="#f1f3f5" font-size="29.1042" font-weight="400" font-family="MS Shell Dlg 2" font-style="normal" fill-opacity="0" stroke="none" transform="matrix(1,0,0,1,1857,1681.11)">
    <path vector-effect="non-scaling-stroke" d="M-850,100 L850,100 L850,-100 L-850,-100 L-850,100" fill-rule="evenodd"/>
   </g>
   <g fill="#f1f3f5" font-size="29.1042" font-weight="400" font-family="MS Shell Dlg 2" font-style="normal" fill-opacity="0" stroke="none" transform="matrix(1,0,0,1,1857,1681.11)">
    <path vector-effect="non-scaling-stroke" d="M771,5.68434e-13 C771,11.598 761.598,21 750,21 C738.402,21 729,11.598 729,5.68434e-13 C729,-11.598 738.402,-21 750,-21 C761.598,-21 771,-11.598 771,5.68434e-13 " fill-rule="evenodd"/>
   </g>
   <g fill="#f1f3f5" font-size="29.1042" font-weight="400" font-family="MS Shell Dlg 2" font-style="normal" fill-opacity="0" stroke="none" transform="matrix(1,0,0,1,1857,1681.11)">
    <path vector-effect="non-scaling-stroke" d="M-729,-7.10543e-13 C-729,11.598 -738.402,21 -750,21 C-761.598,21 -771,11.598 -771,-7.10543e-13 C-771,-11.598 -761.598,-21 -750,-21 C-738.402,-21 -729,-11.598 -729,-7.10543e-13 " fill-rule="evenodd"/>
   </g>
   <g fill="none" font-size="29.1042" font-weight="400" stroke-width="7" font-family="MS Shell Dlg 2" stroke-opacity="1" font-style="normal" stroke-linecap="round" stroke="#000000" transform="matrix(1,0,0,1,1857,1681.11)" stroke-linejoin="bevel">
    <path vector-effect="none" d="M-850,100 L850,100" fill-rule="evenodd"/>
   </g>
   <g fill="none" font-size="29.1042" font-weight="400" stroke-width="7" font-family="MS Shell Dlg 2" stroke-opacity="1" font-style="normal" stroke-linecap="round" stroke="#000000" transform="matrix(1,0,0,1,1857,1681.11)" stroke-linejoin="bevel">
    <path vector-effect="none" d="M-850,100 L-850,-100" fill-rule="evenodd"/>
   </g>
   <g fill="none" font-size="29.1042" font-weight="400" stroke-width="7" font-family="MS Shell Dlg 2" stroke-opacity="1" font-style="normal" stroke-linecap="round" stroke="#000000" transform="matrix(1,0,0,1,1857,1681.11)" stroke-linejoin="bevel">
    <path vector-effect="none" d="M850,100 L850,-100" fill-rule="evenodd"/>
   </g>
   <g fill="none" font-size="29.1042" font-weight="400" stroke-width="7" font-family="MS Shell Dlg 2" stroke-opacity="1" font-style="normal" stroke-linecap="round" stroke="#000000" transform="matrix(1,0,0,1,1857,1681.11)" stroke-linejoin="bevel">
    <path vector-effect="none" d="M-850,-100 L850,-100" fill-rule="evenodd"/>
   </g>
   <g fill="none" font-size="29.1042" font-weight="400" stroke-width="7" font-family="MS Shell Dlg 2" stroke-opacity="1" font-style="normal" stroke-linecap="round" stroke="#000000" transform="matrix(1,0,0,1,1857,1681.11)" stroke-linejoin="bevel">
    <path vector-effect="none" d="M771,5.68434e-13 C771,11.598 761.598,21 750,21 C738.402,21 729,11.598 729,5.68434e-13 C729,-11.598 738.402,-21 750,-21 C761.598,-21 771,-11.598 771,5.68434e-13 " fill-rule="evenodd"/>
   </g>
   <g fill="none" font-size="29.1042" font-weight="400" stroke-width="7" font-family="MS Shell Dlg 2" stroke-opacity="1" font-style="normal" stroke-linecap="round" stroke="#000000" transform="matrix(1,0,0,1,1857,1681.11)" stroke-linejoin="bevel">
    <path vector-effect="none" d="M-729,-7.10543e-13 C-729,11.598 -738.402,21 -750,21 C-761.598,21 -771,11.598 -771,-7.10543e-13 C-771,-11.598 -761.598,-21 -750,-21 C-738.402,-21 -729,-11.598 -729,-7.10543e-13 " fill-rule="evenodd"/>
   </g>
   <g fill="none" font-size="29.1042" font-weight="400" stroke-width="1" font-family="MS Shell Dlg 2" stroke-opacity="1" font-style="normal" stroke-linecap="square" stroke="#000000" transform="matrix(1,0,0,1,2598.62,1365.6)" stroke-linejoin="bevel">
    <text fill="#000000" font-size="67" font-weight="400" y="92" font-family="osifont" x="4" font-style="normal" xml:space="preserve" fill-opacity="1" stroke="none">10.0</text>
   </g>
   <g fill="none" font-size="29.1042" font-weight="400" stroke-width="3.5" font-family="MS Shell Dlg 2" stroke-opacity="1" font-style="normal" stroke-linecap="round" stroke="#000000" transform="matrix(1,0,0,1,1857,1681.11)" stroke-linejoin="bevel">
    <path vector-effect="none" d="M920,-189.504 L680,-189.504 M750,5.68434e-13 L750,-217.504 M850,4.61853e-13 L850,-217.504" fill-rule="evenodd"/>
   </g>
   <g fill="#000000" font-size="29.1042" font-weight="400" stroke-width="3.5" font-family="MS Shell Dlg 2" stroke-opacity="1" font-style="normal" stroke-linecap="round" fill-opacity="1" stroke="#000000" transform="matrix(1,0,0,1,2607,1491.6)" stroke-linejoin="bevel">
    <path vector-effect="none" d="M0,0 L-35,-5.83333 L-35,5.83333 L0,0" fill-rule="evenodd"/>
   </g>
   <g fill="#000000" font-size="29.1042" font-weight="400" stroke-width="3.5" font-family="MS Shell Dlg 2" stroke-opacity="1" font-style="normal" stroke-linecap="round" fill-opacity="1" stroke="#000000" transform="matrix(1,0,0,1,2707,1491.6)" stroke-linejoin="bevel">
    <path vector-effect="none" d="M0,0 L35,5.83333 L35,-5.83333 L0,0" fill-rule="evenodd"/>
   </g>
   <g fill="none" font-size="29.1042" font-weight="400" stroke-width="1" font-family="MS Shell Dlg 2" stroke-opacity="1" font-style="normal" stroke-linecap="square" stroke="#000000" transform="matrix(1,0,0,1,1782.12,1365.6)" stroke-linejoin="bevel">
    <text fill="#000000" font-size="67" font-weight="400" y="92" font-family="osifont" x="4" font-style="normal" xml:space="preserve" fill-opacity="1" stroke="none">150.0</text>
   </g>
   <g fill="none" font-size="29.1042" font-weight="400" stroke-width="3.5" font-family="MS Shell Dlg 2" stroke-opacity="1" font-style="normal" stroke-linecap="round" stroke="#000000" transform="matrix(1,0,0,1,1857,1681.11)" stroke-linejoin="bevel">
    <path vector-effect="none" d="M750,-189.504 L-750,-189.504 M-750,-7.10543e-13 L-750,-217.504 M750,5.68434e-13 L750,-217.504" fill-rule="evenodd"/>
   </g>
   <g fill="#000000" font-size="29.1042" font-weight="400" stroke-width="3.5" font-family="MS Shell Dlg 2" stroke-opacity="1" font-style="normal" stroke-linecap="round" fill-opacity="1" stroke="#000000" transform="matrix(1,0,0,1,1107,1491.6)" stroke-linejoin="bevel">
    <path vector-effect="none" d="M0,0 L35,5.83333 L35,-5.83333 L0,0" fill-rule="evenodd"/>
   </g>
   <g fill="#000000" font-size="29.1042" font-weight="400" stroke-width="3.5" font-family="MS Shell Dlg 2" stroke-opacity="1" font-style="normal" stroke-linecap="round" fill-opacity="1" stroke="#000000" transform="matrix(1,0,0,1,2607,1491.6)" stroke-linejoin="bevel">
    <path vector-effect="none" d="M0,0 L-35,-5.83333 L-35,5.83333 L0,0" fill-rule="evenodd"/>
   </g>
   <g fill="none" font-size="29.1042" font-weight="400" stroke-width="1" font-family="MS Shell Dlg 2" stroke-opacity="1" font-style="normal" stroke-linecap="square" stroke="#000000" transform="matrix(1.83759e-15,1,-1,1.83759e-15,2947.28,1572.73)" stroke-linejoin="bevel">
    <text fill="#000000" font-size="67" font-weight="400" y="92" font-family="osifont" x="4" font-style="normal" xml:space="preserve" fill-opacity="1" stroke="none">10.0</text>
   </g>
   <g fill="none" font-size="29.1042" font-weight="400" stroke-width="3.5" font-family="MS Shell Dlg 2" stroke-opacity="1" font-style="normal" stroke-linecap="round" stroke="#000000" transform="matrix(1,0,0,1,1857,1681.11)" stroke-linejoin="bevel">
    <path vector-effect="none" d="M964.283,-170 L964.283,70 M750,5.68434e-13 L992.283,2.06686e-13 M750,-100 L992.283,-100" fill-rule="evenodd"/>
   </g>
   <g fill="#000000" font-size="29.1042" font-weight="400" stroke-width="3.5" font-family="MS Shell Dlg 2" stroke-opacity="1" font-style="normal" stroke-linecap="round" fill-opacity="1" stroke="#000000" transform="matrix(1,0,0,1,2821.28,1681.11)" stroke-linejoin="bevel">
    <path vector-effect="none" d="M0,0 L-5.83333,35 L5.83333,35 L0,0" fill-rule="evenodd"/>
   </g>
   <g fill="#000000" font-size="29.1042" font-weight="400" stroke-width="3.5" font-family="MS Shell Dlg 2" stroke-opacity="1" font-style="normal" stroke-linecap="round" fill-opacity="1" stroke="#000000" transform="matrix(1,0,0,1,2821.28,1581.11)" stroke-linejoin="bevel">
    <path vector-effect="none" d="M0,0 L5.83333,-35 L-5.83333,-35 L0,0" fill-rule="evenodd"/>
   </g>
   <g fill="none" font-size="29.1042" font-weight="400" stroke-width="1" font-family="MS Shell Dlg 2" stroke-opacity="1" font-style="normal" stroke-linecap="square" stroke="#000000" transform="matrix(0.793186,-0.608979,0.608979,0.793186,645.715,1876.41)" stroke-linejoin="bevel">
    <text fill="#000000" font-size="67" font-weight="400" y="92" font-family="osifont" x="4" font-style="normal" xml:space="preserve" fill-opacity="1" stroke="none">⌀4.2</text>
   </g>
   <g fill="none" font-size="29.1042" font-weight="400" stroke-width="3.5" font-family="MS Shell Dlg 2" stroke-opacity="1" font-style="normal" stroke-linecap="round" stroke="#000000" transform="matrix(1,0,0,1,1857,1681.11)" stroke-linejoin="bevel">
    <path vector-effect="none" d="M-677.82,-55.4171 L-1137.33,297.377" fill-rule="evenodd"/>
   </g>
   <g fill="#000000" font-size="29.1042" font-weight="400" stroke-width="3.5" font-family="MS Shell Dlg 2" stroke-opacity="1" font-style="normal" stroke-linecap="round" fill-opacity="1" stroke="#000000" transform="matrix(1,0,0,1,1090.34,1693.89)" stroke-linejoin="bevel">
    <path vector-effect="none" d="M0,0 L-31.3139,16.6873 L-24.2091,25.9412 L0,0" fill-rule="evenodd"/>
   </g>
   <g fill="#000000" font-size="29.1042" font-weight="400" stroke-width="3.5" font-family="MS Shell Dlg 2" stroke-opacity="1" font-style="normal" stroke-linecap="round" fill-opacity="1" stroke="#000000" transform="matrix(1,0,0,1,1123.66,1668.32)" stroke-linejoin="bevel">
    <path vector-effect="none" d="M0,0 L31.3139,-16.6873 L24.2091,-25.9412 L0,0" fill-rule="evenodd"/>
   </g>
   <g fill="#f1f3f5" font-size="29.1042" font-weight="400" font-family="MS Shell Dlg 2" font-style="normal" fill-opacity="0" stroke="none" transform="matrix(1,0,0,1,1857,981.106)">
    <path vector-effect="non-scaling-stroke" d="M-850,100 L850,100 L850,56 L694,-100 L-694,-100 L-850,56 L-850,100" fill-rule="evenodd"/>
   </g>
   <g fill="#f1f3f5" font-size="29.1042" font-weight="400" font-family="MS Shell Dlg 2" font-style="normal" fill-opacity="0" stroke="none" transform="matrix(1,0,0,1,1857,981.106)">
    <path vector-effect="non-scaling-stroke" d="M321,10 C321,21.598 311.598,31 300,31 C288.402,31 279,21.598 279,10 C279,-1.59798 288.402,-11 300,-11 C311.598,-11 321,-1.59798 321,10 " fill-rule="evenodd"/>
   </g>
   <g fill="#f1f3f5" font-size="29.1042" font-weight="400" font-family="MS Shell Dlg 2" font-style="normal" fill-opacity="0" stroke="none" transform="matrix(1,0,0,1,1857,981.106)">
    <path vector-effect="non-scaling-stroke" d="M-279,10 C-279,21.598 -288.402,31 -300,31 C-311.598,31 -321,21.598 -321,10 C-321,-1.59798 -311.598,-11 -300,-11 C-288.402,-11 -279,-1.59798 -279,10 " fill-rule="evenodd"/>
   </g>
   <g fill="none" font-size="29.1042" font-weight="400" stroke-width="7" font-family="MS Shell Dlg 2" stroke-opacity="1" font-style="normal" stroke-linecap="round" stroke="#000000" transform="matrix(1,0,0,1,1857,981.106)" stroke-linejoin="bevel">
    <path vector-effect="none" d="M-850,100 L850,100" fill-rule="evenodd"/>
   </g>
   <g fill="none" font-size="29.1042" font-weight="400" stroke-width="7" font-family="MS Shell Dlg 2" stroke-opacity="1" font-style="normal" stroke-linecap="round" stroke="#000000" transform="matrix(1,0,0,1,1857,981.106)" stroke-linejoin="bevel">
    <path vector-effect="none" d="M-850,100 L-850,56" fill-rule="evenodd"/>
   </g>
   <g fill="none" font-size="29.1042" font-weight="400" stroke-width="7" font-family="MS Shell Dlg 2" stroke-opacity="1" font-style="normal" stroke-linecap="round" stroke="#000000" transform="matrix(1,0,0,1,1857,981.106)" stroke-linejoin="bevel">
    <path vector-effect="none" d="M850,100 L850,56" fill-rule="evenodd"/>
   </g>
   <g fill="none" font-size="29.1042" font-weight="400" stroke-width="7" font-family="MS Shell Dlg 2" stroke-opacity="1" font-style="normal" stroke-linecap="round" stroke="#000000" transform="matrix(1,0,0,1,1857,981.106)" stroke-linejoin="bevel">
    <path vector-effect="none" d="M-694,-100 L-850,56" fill-rule="evenodd"/>
   </g>
   <g fill="none" font-size="29.1042" font-weight="400" stroke-width="7" font-family="MS Shell Dlg 2" stroke-opacity="1" font-style="normal" stroke-linecap="round" stroke="#000000" transform="matrix(1,0,0,1,1857,981.106)" stroke-linejoin="bevel">
    <path vector-effect="none" d="M-694,-100 L694,-100" fill-rule="evenodd"/>
   </g>
   <g fill="none" font-size="29.1042" font-weight="400" stroke-width="7" font-family="MS Shell Dlg 2" stroke-opacity="1" font-style="normal" stroke-linecap="round" stroke="#000000" transform="matrix(1,0,0,1,1857,981.106)" stroke-linejoin="bevel">
    <path vector-effect="none" d="M694,-100 L850,56" fill-rule="evenodd"/>
   </g>
   <g fill="none" font-size="29.1042" font-weight="400" stroke-width="7" font-family="MS Shell Dlg 2" stroke-opacity="1" font-style="normal" stroke-linecap="round" stroke="#000000" transform="matrix(1,0,0,1,1857,981.106)" stroke-linejoin="bevel">
    <path vector-effect="none" d="M321,10 C321,21.598 311.598,31 300,31 C288.402,31 279,21.598 279,10 C279,-1.59798 288.402,-11 300,-11 C311.598,-11 321,-1.59798 321,10 " fill-rule="evenodd"/>
   </g>
   <g fill="none" font-size="29.1042" font-weight="400" stroke-width="7" font-family="MS Shell Dlg 2" stroke-opacity="1" font-style="normal" stroke-linecap="round" stroke="#000000" transform="matrix(1,0,0,1,1857,981.106)" stroke-linejoin="bevel">
    <path vector-effect="none" d="M-279,10 C-279,21.598 -288.402,31 -300,31 C-311.598,31 -321,21.598 -321,10 C-321,-1.59798 -311.598,-11 -300,-11 C-288.402,-11 -279,-1.59798 -279,10 " fill-rule="evenodd"/>
   </g>
   <g fill="none" font-size="29.1042" font-weight="400" stroke-width="1" font-family="MS Shell Dlg 2" stroke-opacity="1" font-style="normal" stroke-linecap="square" stroke="#000000" transform="matrix(1,0,0,1,1782.62,1171.82)" stroke-linejoin="bevel">
    <text fill="#000000" font-size="67" font-weight="400" y="92" font-family="osifont" x="4" font-style="normal" xml:space="preserve" fill-opacity="1" stroke="none">170.0</text>
   </g>
   <g fill="none" font-size="29.1042" font-weight="400" stroke-width="3.5" font-family="MS Shell Dlg 2" stroke-opacity="1" font-style="normal" stroke-linecap="round" stroke="#000000" transform="matrix(1,0,0,1,1857,981.106)" stroke-linejoin="bevel">
    <path vector-effect="none" d="M-850,316.713 L850,316.713 M850,100 L850,344.713 M-850,100 L-850,344.713" fill-rule="evenodd"/>
   </g>
   <g fill="#000000" font-size="29.1042" font-weight="400" stroke-width="3.5" font-family="MS Shell Dlg 2" stroke-opacity="1" font-style="normal" stroke-linecap="round" fill-opacity="1" stroke="#000000" transform="matrix(1,0,0,1,2707,1297.82)" stroke-linejoin="bevel">
    <path vector-effect="none" d="M0,0 L-35,-5.83333 L-35,5.83333 L0,0" fill-rule="evenodd"/>
   </g>
   <g fill="#000000" font-size="29.1042" font-weight="400" stroke-width="3.5" font-family="MS Shell Dlg 2" stroke-opacity="1" font-style="normal" stroke-linecap="round" fill-opacity="1" stroke="#000000" transform="matrix(1,0,0,1,1007,1297.82)" stroke-linejoin="bevel">
    <path vector-effect="none" d="M0,0 L35,5.83333 L35,-5.83333 L0,0" fill-rule="evenodd"/>
   </g>
   <g fill="none" font-size="29.1042" font-weight="400" stroke-width="1" font-family="MS Shell Dlg 2" stroke-opacity="1" font-style="normal" stroke-linecap="square" stroke="#000000" transform="matrix(0,-1,1,0,769.904,1109.11)" stroke-linejoin="bevel">
    <text fill="#000000" font-size="67" font-weight="400" y="92" font-family="osifont" x="4" font-style="normal" xml:space="preserve" fill-opacity="1" stroke="none">4.4</text>
   </g>
   <g fill="none" font-size="29.1042" font-weight="400" stroke-width="3.5" font-family="MS Shell Dlg 2" stroke-opacity="1" font-style="normal" stroke-linecap="round" stroke="#000000" transform="matrix(1,0,0,1,1857,981.106)" stroke-linejoin="bevel">
    <path vector-effect="none" d="M-961.096,170 L-961.096,-14 M-850,56 L-989.096,56 M-850,100 L-989.096,100" fill-rule="evenodd"/>
   </g>
   <g fill="#000000" font-size="29.1042" font-weight="400" stroke-width="3.5" font-family="MS Shell Dlg 2" stroke-opacity="1" font-style="normal" stroke-linecap="round" fill-opacity="1" stroke="#000000" transform="matrix(1,0,0,1,895.904,1037.11)" stroke-linejoin="bevel">
    <path vector-effect="none" d="M0,0 L5.83333,-35 L-5.83333,-35 L0,0" fill-rule="evenodd"/>
   </g>
   <g fill="#000000" font-size="29.1042" font-weight="400" stroke-width="3.5" font-family="MS Shell Dlg 2" stroke-opacity="1" font-style="normal" stroke-linecap="round" fill-opacity="1" stroke="#000000" transform="matrix(1,0,0,1,895.904,1081.11)" stroke-linejoin="bevel">
    <path vector-effect="none" d="M0,0 L-5.83333,35 L5.83333,35 L0,0" fill-rule="evenodd"/>
   </g>
   <g fill="none" font-size="29.1042" font-weight="400" stroke-width="1" font-family="MS Shell Dlg 2" stroke-opacity="1" font-style="normal" stroke-linecap="square" stroke="#000000" transform="matrix(0.930734,0.365696,-0.365696,0.930734,1018.55,727.104)" stroke-linejoin="bevel">
    <text fill="#000000" font-size="67" font-weight="400" y="92" font-family="osifont" x="4" font-style="normal" xml:space="preserve" fill-opacity="1" stroke="none">45.0°</text>
   </g>
   <g fill="none" font-size="29.1042" font-weight="400" stroke-width="3.5" font-family="MS Shell Dlg 2" stroke-opacity="1" font-style="normal" stroke-linecap="round" stroke="#000000" transform="matrix(1,0,0,1,1857,981.106)" stroke-linejoin="bevel">
    <path vector-effect="none" d="M-681.014,168.917 C-673.995,147.208 -670.202,124.047 -670.202,100 C-670.202,-20.9109 -766.087,-119.427 -885.966,-123.656 M-694,-100 L-755.55,-38.45 M-698.202,100 L-642.202,100" fill-rule="evenodd"/>
   </g>
   <g fill="#000000" font-size="29.1042" font-weight="400" stroke-width="3.5" font-family="MS Shell Dlg 2" stroke-opacity="1" font-style="normal" stroke-linecap="round" fill-opacity="1" stroke="#000000" transform="matrix(1,0,0,1,1121.25,922.857)" stroke-linejoin="bevel">
    <path vector-effect="none" d="M0,0 L-20.6239,-28.8735 L-28.8735,-20.6239 L0,0" fill-rule="evenodd"/>
   </g>
   <g fill="#000000" font-size="29.1042" font-weight="400" stroke-width="3.5" font-family="MS Shell Dlg 2" stroke-opacity="1" font-style="normal" stroke-linecap="round" fill-opacity="1" stroke="#000000" transform="matrix(1,0,0,1,1186.8,1081.11)" stroke-linejoin="bevel">
    <path vector-effect="none" d="M0,0 L-5.83333,35 L5.83333,35 L0,0" fill-rule="evenodd"/>
   </g>
   <g fill="none" font-size="29.1042" font-weight="400" stroke-width="1" font-family="MS Shell Dlg 2" stroke-opacity="1" font-style="normal" stroke-linecap="square" stroke="#000000" transform="matrix(1,0,0,1,2367.87,655.963)" stroke-linejoin="bevel">
    <text fill="#000000" font-size="67" font-weight="400" y="92" font-family="osifont" x="4" font-style="normal" xml:space="preserve" fill-opacity="1" stroke="none">55.0</text>
   </g>
   <g fill="none" font-size="29.1042" font-weight="400" stroke-width="3.5" font-family="MS Shell Dlg 2" stroke-opacity="1" font-style="normal" stroke-linecap="round" stroke="#000000" transform="matrix(1,0,0,1,1857,981.106)" stroke-linejoin="bevel">
    <path vector-effect="none" d="M850,-199.143 L300,-199.143 M300,10 L300,-227.143 M850,56 L850,-227.143" fill-rule="evenodd"/>
   </g>
   <g fill="#000000" font-size="29.1042" font-weight="400" stroke-width="3.5" font-family="MS Shell Dlg 2" stroke-opacity="1" font-style="normal" stroke-linecap="round" fill-opacity="1" stroke="#000000" transform="matrix(1,0,0,1,2157,781.963)" stroke-linejoin="bevel">
    <path vector-effect="none" d="M0,0 L35,5.83333 L35,-5.83333 L0,0" fill-rule="evenodd"/>
   </g>
   <g fill="#000000" font-size="29.1042" font-weight="400" stroke-width="3.5" font-family="MS Shell Dlg 2" stroke-opacity="1" font-style="normal" stroke-linecap="round" fill-opacity="1" stroke="#000000" transform="matrix(1,0,0,1,2707,781.963)" stroke-linejoin="bevel">
    <path vector-effect="none" d="M0,0 L-35,-5.83333 L-35,5.83333 L0,0" fill-rule="evenodd"/>
   </g>
   <g fill="none" font-size="29.1042" font-weight="400" stroke-width="1" font-family="MS Shell Dlg 2" stroke-opacity="1" font-style="normal" stroke-linecap="square" stroke="#000000" transform="matrix(1,0,0,1,1793.87,655.963)" stroke-linejoin="bevel">
    <text fill="#000000" font-size="67" font-weight="400" y="92" font-family="osifont" x="4" font-style="normal" xml:space="preserve" fill-opacity="1" stroke="none">60.0</text>
   </g>
   <g fill="none" font-size="29.1042" font-weight="400" stroke-width="3.5" font-family="MS Shell Dlg 2" stroke-opacity="1" font-style="normal" stroke-linecap="round" stroke="#000000" transform="matrix(1,0,0,1,1857,981.106)" stroke-linejoin="bevel">
    <path vector-effect="none" d="M300,-199.143 L-300,-199.143 M-300,10 L-300,-227.143 M300,10 L300,-227.143" fill-rule="evenodd"/>
   </g>
   <g fill="#000000" font-size="29.1042" font-weight="400" stroke-width="3.5" font-family="MS Shell Dlg 2" stroke-opacity="1" font-style="normal" stroke-linecap="round" fill-opacity="1" stroke="#000000" transform="matrix(1,0,0,1,1557,781.963)" stroke-linejoin="bevel">
    <path vector-effect="none" d="M0,0 L35,5.83333 L35,-5.83333 L0,0" fill-rule="evenodd"/>
   </g>
   <g fill="#000000" font-size="29.1042" font-weight="400" stroke-width="3.5" font-family="MS Shell Dlg 2" stroke-opacity="1" font-style="normal" stroke-linecap="round" fill-opacity="1" stroke="#000000" transform="matrix(1,0,0,1,2157,781.963)" stroke-linejoin="bevel">
    <path vector-effect="none" d="M0,0 L-35,-5.83333 L-35,5.83333 L0,0" fill-rule="evenodd"/>
   </g>
   <g fill="none" font-size="29.1042" font-weight="400" stroke-width="1" font-family="MS Shell Dlg 2" stroke-opacity="1" font-style="normal" stroke-linecap="square" stroke="#000000" transform="matrix(0,1,-1,0,3034.48,987.981)" stroke-linejoin="bevel">
    <text fill="#000000" font-size="67" font-weight="400" y="92" font-family="osifont" x="4" font-style="normal" xml:space="preserve" fill-opacity="1" stroke="none">9.0</text>
   </g>
   <g fill="none" font-size="29.1042" font-weight="400" stroke-width="3.5" font-family="MS Shell Dlg 2" stroke-opacity="1" font-style="normal" stroke-linecap="round" stroke="#000000" transform="matrix(1,0,0,1,1857,981.106)" stroke-linejoin="bevel">
    <path vector-effect="none" d="M1051.48,170 L1051.48,-60 M300,10 L1079.48,10 M300,100 L1079.48,100" fill-rule="evenodd"/>
   </g>
   <g fill="#000000" font-size="29.1042" font-weight="400" stroke-width="3.5" font-family="MS Shell Dlg 2" stroke-opacity="1" font-style="normal" stroke-linecap="round" fill-opacity="1" stroke="#000000" transform="matrix(1,0,0,1,2908.48,991.106)" stroke-linejoin="bevel">
    <path vector-effect="none" d="M0,0 L5.83333,-35 L-5.83333,-35 L0,0" fill-rule="evenodd"/>
   </g>
   <g fill="#000000" font-size="29.1042" font-weight="400" stroke-width="3.5" font-family="MS Shell Dlg 2" stroke-opacity="1" font-style="normal" stroke-linecap="round" fill-opacity="1" stroke="#000000" transform="matrix(1,0,0,1,2908.48,1081.11)" stroke-linejoin="bevel">
    <path vector-effect="none" d="M0,0 L-5.83333,35 L5.83333,35 L0,0" fill-rule="evenodd"/>
   </g>
   <g fill="none" font-size="29.1042" font-weight="400" stroke-width="1" font-family="MS Shell Dlg 2" stroke-opacity="1" font-style="normal" stroke-linecap="square" stroke="#000000" transform="matrix(0.697869,0.716225,-0.716225,0.697869,1312.39,559.508)" stroke-linejoin="bevel">
    <text fill="#000000" font-size="67" font-weight="400" y="92" font-family="osifont" x="4" font-style="normal" xml:space="preserve" fill-opacity="1" stroke="none">⌀4.2</text>
   </g>
   <g fill="none" font-size="29.1042" font-weight="400" stroke-width="3.5" font-family="MS Shell Dlg 2" stroke-opacity="1" font-style="normal" stroke-linecap="round" stroke="#000000" transform="matrix(1,0,0,1,1857,981.106)" stroke-linejoin="bevel">
    <path vector-effect="none" d="M-236.494,75.1765 L-637.301,-336.173" fill-rule="evenodd"/>
   </g>
   <g fill="#000000" font-size="29.1042" font-weight="400" stroke-width="3.5" font-family="MS Shell Dlg 2" stroke-opacity="1" font-style="normal" stroke-linecap="round" fill-opacity="1" stroke="#000000" transform="matrix(1,0,0,1,1542.34,976.065)" stroke-linejoin="bevel">
    <path vector-effect="none" d="M0,0 L-20.2474,-29.1388 L-28.6034,-20.997 L0,0" fill-rule="evenodd"/>
   </g>
   <g fill="#000000" font-size="29.1042" font-weight="400" stroke-width="3.5" font-family="MS Shell Dlg 2" stroke-opacity="1" font-style="normal" stroke-linecap="round" fill-opacity="1" stroke="#000000" transform="matrix(1,0,0,1,1571.65,1006.15)" stroke-linejoin="bevel">
    <path vector-effect="none" d="M0,0 L20.2474,29.1388 L28.6034,20.997 L0,0" fill-rule="evenodd"/>
   </g>
   <g fill="#f1f3f5" font-size="29.1042" font-weight="400" font-family="MS Shell Dlg 2" font-style="normal" fill-opacity="0" stroke="none" transform="matrix(1,0,0,1,3307,1681.11)">
    <path vector-effect="non-scaling-stroke" d="M100,-100 L100,-85 L-56,-85 L-85,-85 L-85,100 L-100,100 L-100,-100 L-56,-100 L100,-100" fill-rule="evenodd"/>
   </g>
   <g fill="#f1f3f5" font-size="29.1042" font-weight="400" font-family="MS Shell Dlg 2" font-style="normal" fill-opacity="0" stroke="none" transform="matrix(1,0,0,1,3307,1681.11)">
    <path vector-effect="non-scaling-stroke" d="M-100,100 L-100,-100 L-56,-100 L-56,-85 L-85,-85 L-85,100 L-100,100" fill-rule="evenodd"/>
   </g>
   <g fill="#f1f3f5" font-size="29.1042" font-weight="400" font-family="MS Shell Dlg 2" font-style="normal" fill-opacity="0" stroke="none" transform="matrix(1,0,0,1,3307,1681.11)">
    <path vector-effect="non-scaling-stroke" d="M100,-100 L-56,-100 L-56,-85 L100,-85 L100,-100" fill-rule="evenodd"/>
   </g>
   <g fill="none" font-size="29.1042" font-weight="400" stroke-width="7" font-family="MS Shell Dlg 2" stroke-opacity="1" font-style="normal" stroke-linecap="round" stroke="#000000" transform="matrix(1,0,0,1,3307,1681.11)" stroke-linejoin="bevel">
    <path vector-effect="none" d="M-100,100 L-100,-100" fill-rule="evenodd"/>
   </g>
   <g fill="none" font-size="29.1042" font-weight="400" stroke-width="7" font-family="MS Shell Dlg 2" stroke-opacity="1" font-style="normal" stroke-linecap="round" stroke="#000000" transform="matrix(1,0,0,1,3307,1681.11)" stroke-linejoin="bevel">
    <path vector-effect="none" d="M-85,100 L-100,100" fill-rule="evenodd"/>
   </g>
   <g fill="none" font-size="29.1042" font-weight="400" stroke-width="7" font-family="MS Shell Dlg 2" stroke-opacity="1" font-style="normal" stroke-linecap="round" stroke="#000000" transform="matrix(1,0,0,1,3307,1681.11)" stroke-linejoin="bevel">
    <path vector-effect="none" d="M-100,-100 L-56,-100" fill-rule="evenodd"/>
   </g>
   <g fill="none" font-size="29.1042" font-weight="400" stroke-width="7" font-family="MS Shell Dlg 2" stroke-opacity="1" font-style="normal" stroke-linecap="round" stroke="#000000" transform="matrix(1,0,0,1,3307,1681.11)" stroke-linejoin="bevel">
    <path vector-effect="none" d="M-56,-100 L-56,-85" fill-rule="evenodd"/>
   </g>
   <g fill="none" font-size="29.1042" font-weight="400" stroke-width="7" font-family="MS Shell Dlg 2" stroke-opacity="1" font-style="normal" stroke-linecap="round" stroke="#000000" transform="matrix(1,0,0,1,3307,1681.11)" stroke-linejoin="bevel">
    <path vector-effect="none" d="M-56,-85 L-85,-85" fill-rule="evenodd"/>
   </g>
   <g fill="none" font-size="29.1042" font-weight="400" stroke-width="7" font-family="MS Shell Dlg 2" stroke-opacity="1" font-style="normal" stroke-linecap="round" stroke="#000000" transform="matrix(1,0,0,1,3307,1681.11)" stroke-linejoin="bevel">
    <path vector-effect="none" d="M-85,-85 L-85,100" fill-rule="evenodd"/>
   </g>
   <g fill="none" font-size="29.1042" font-weight="400" stroke-width="7" font-family="MS Shell Dlg 2" stroke-opacity="1" font-style="normal" stroke-linecap="round" stroke="#000000" transform="matrix(1,0,0,1,3307,1681.11)" stroke-linejoin="bevel">
    <path vector-effect="none" d="M100,-100 L-56,-100" fill-rule="evenodd"/>
   </g>
   <g fill="none" font-size="29.1042" font-weight="400" stroke-width="7" font-family="MS Shell Dlg 2" stroke-opacity="1" font-style="normal" stroke-linecap="round" stroke="#000000" transform="matrix(1,0,0,1,3307,1681.11)" stroke-linejoin="bevel">
    <path vector-effect="none" d="M100,-85 L-56,-85" fill-rule="evenodd"/>
   </g>
   <g fill="none" font-size="29.1042" font-weight="400" stroke-width="7" font-family="MS Shell Dlg 2" stroke-opacity="1" font-style="normal" stroke-linecap="round" stroke="#000000" transform="matrix(1,0,0,1,3307,1681.11)" stroke-linejoin="bevel">
    <path vector-effect="none" d="M100,-100 L100,-85" fill-rule="evenodd"/>
   </g>
   <g fill="none" font-size="29.1042" font-weight="400" stroke-width="1" font-family="MS Shell Dlg 2" stroke-opacity="1" font-style="normal" stroke-linecap="square" stroke="#000000" transform="matrix(0,-1,1,0,2970.93,1743.36)" stroke-linejoin="bevel">
    <text fill="#000000" font-size="67" font-weight="400" y="92" font-family="osifont" x="4" font-style="normal" xml:space="preserve" fill-opacity="1" stroke="none">20.0</text>
   </g>
   <g fill="none" font-size="29.1042" font-weight="400" stroke-width="3.5" font-family="MS Shell Dlg 2" stroke-opacity="1" font-style="normal" stroke-linecap="round" stroke="#000000" transform="matrix(1,0,0,1,3307,1681.11)" stroke-linejoin="bevel">
    <path vector-effect="none" d="M-210.074,100 L-210.074,-100 M-100,-100 L-238.074,-100 M-100,100 L-238.074,100" fill-rule="evenodd"/>
   </g>
   <g fill="#000000" font-size="29.1042" font-weight="400" stroke-width="3.5" font-family="MS Shell Dlg 2" stroke-opacity="1" font-style="normal" stroke-linecap="round" fill-opacity="1" stroke="#000000" transform="matrix(1,0,0,1,3096.93,1581.11)" stroke-linejoin="bevel">
    <path vector-effect="none" d="M0,0 L-5.83333,35 L5.83333,35 L0,0" fill-rule="evenodd"/>
   </g>
   <g fill="#000000" font-size="29.1042" font-weight="400" stroke-width="3.5" font-family="MS Shell Dlg 2" stroke-opacity="1" font-style="normal" stroke-linecap="round" fill-opacity="1" stroke="#000000" transform="matrix(1,0,0,1,3096.93,1781.11)" stroke-linejoin="bevel">
    <path vector-effect="none" d="M0,0 L5.83333,-35 L-5.83333,-35 L0,0" fill-rule="evenodd"/>
   </g>
   <g fill="none" font-size="29.1042" font-weight="400" stroke-width="1" font-family="MS Shell Dlg 2" stroke-opacity="1" font-style="normal" stroke-linecap="square" stroke="#000000" transform="matrix(1,0,0,1,3244.75,1367.24)" stroke-linejoin="bevel">
    <text fill="#000000" font-size="67" font-weight="400" y="92" font-family="osifont" x="4" font-style="normal" xml:space="preserve" fill-opacity="1" stroke="none">20.0</text>
   </g>
   <g fill="none" font-size="29.1042" font-weight="400" stroke-width="3.5" font-family="MS Shell Dlg 2" stroke-opacity="1" font-style="normal" stroke-linecap="round" stroke="#000000" transform="matrix(1,0,0,1,3307,1681.11)" stroke-linejoin="bevel">
    <path vector-effect="none" d="M-100,-187.865 L100,-187.865 M100,-100 L100,-215.865 M-100,-100 L-100,-215.865" fill-rule="evenodd"/>
   </g>
   <g fill="#000000" font-size="29.1042" font-weight="400" stroke-width="3.5" font-family="MS Shell Dlg 2" stroke-opacity="1" font-style="normal" stroke-linecap="round" fill-opacity="1" stroke="#000000" transform="matrix(1,0,0,1,3407,1493.24)" stroke-linejoin="bevel">
    <path vector-effect="none" d="M0,0 L-35,-5.83333 L-35,5.83333 L0,0" fill-rule="evenodd"/>
   </g>
   <g fill="#000000" font-size="29.1042" font-weight="400" stroke-width="3.5" font-family="MS Shell Dlg 2" stroke-opacity="1" font-style="normal" stroke-linecap="round" fill-opacity="1" stroke="#000000" transform="matrix(1,0,0,1,3207,1493.24)" stroke-linejoin="bevel">
    <path vector-effect="none" d="M0,0 L35,5.83333 L35,-5.83333 L0,0" fill-rule="evenodd"/>
   </g>
   <g fill="none" font-size="29.1042" font-weight="400" stroke-width="1" font-family="MS Shell Dlg 2" stroke-opacity="1" font-style="normal" stroke-linecap="square" stroke="#000000" transform="matrix(0,-1,1,0,3416.89,1509.82)" stroke-linejoin="bevel">
    <text fill="#000000" font-size="67" font-weight="400" y="92" font-family="osifont" x="4" font-style="normal" xml:space="preserve" fill-opacity="1" stroke="none">1.5</text>
   </g>
   <g fill="none" font-size="29.1042" font-weight="400" stroke-width="3.5" font-family="MS Shell Dlg 2" stroke-opacity="1" font-style="normal" stroke-linecap="round" stroke="#000000" transform="matrix(1,0,0,1,3307,1681.11)" stroke-linejoin="bevel">
    <path vector-effect="none" d="M235.887,-15 L235.887,-262.29 M100,-100 L263.887,-100 M100,-85 L263.887,-85" fill-rule="evenodd"/>
   </g>
   <g fill="#000000" font-size="29.1042" font-weight="400" stroke-width="3.5" font-family="MS Shell Dlg 2" stroke-opacity="1" font-style="normal" stroke-linecap="round" fill-opacity="1" stroke="#000000" transform="matrix(1,0,0,1,3542.89,1581.11)" stroke-linejoin="bevel">
    <path vector-effect="none" d="M0,0 L5.83333,-35 L-5.83333,-35 L0,0" fill-rule="evenodd"/>
   </g>
   <g fill="#000000" font-size="29.1042" font-weight="400" stroke-width="3.5" font-family="MS Shell Dlg 2" stroke-opacity="1" font-style="normal" stroke-linecap="round" fill-opacity="1" stroke="#000000" transform="matrix(1,0,0,1,3542.89,1596.11)" stroke-linejoin="bevel">
    <path vector-effect="none" d="M0,0 L-5.83333,35 L5.83333,35 L0,0" fill-rule="evenodd"/>
   </g>
   <g fill="none" font-size="29.1042" font-weight="400" stroke-width="1" font-family="MS Shell Dlg 2" stroke-opacity="1" font-style="normal" stroke-linecap="square" stroke="#000000" transform="matrix(1,0,0,1,3034.21,1803.29)" stroke-linejoin="bevel">
    <text fill="#000000" font-size="67" font-weight="400" y="92" font-family="osifont" x="4" font-style="normal" xml:space="preserve" fill-opacity="1" stroke="none">1.5</text>
   </g>
   <g fill="none" font-size="29.1042" font-weight="400" stroke-width="3.5" font-family="MS Shell Dlg 2" stroke-opacity="1" font-style="normal" stroke-linecap="round" stroke="#000000" transform="matrix(1,0,0,1,3307,1681.11)" stroke-linejoin="bevel">
    <path vector-effect="none" d="M-15,248.186 L-276.294,248.186 M-100,100 L-100,276.186 M-85,100 L-85,276.186" fill-rule="evenodd"/>
   </g>
   <g fill="#000000" font-size="29.1042" font-weight="400" stroke-width="3.5" font-family="MS Shell Dlg 2" stroke-opacity="1" font-style="normal" stroke-linecap="round" fill-opacity="1" stroke="#000000" transform="matrix(1,0,0,1,3207,1929.29)" stroke-linejoin="bevel">
    <path vector-effect="none" d="M0,0 L-35,-5.83333 L-35,5.83333 L0,0" fill-rule="evenodd"/>
   </g>
   <g fill="#000000" font-size="29.1042" font-weight="400" stroke-width="3.5" font-family="MS Shell Dlg 2" stroke-opacity="1" font-style="normal" stroke-linecap="round" fill-opacity="1" stroke="#000000" transform="matrix(1,0,0,1,3222,1929.29)" stroke-linejoin="bevel">
    <path vector-effect="none" d="M0,0 L35,5.83333 L35,-5.83333 L0,0" fill-rule="evenodd"/>
   </g>
  </g>
 </g>
</svg>
