<?xml version='1.0' encoding='UTF-8' standalone='no'?>
<svg xmlns:cc="http://creativecommons.org/ns#" viewBox="0 0 4200 2970" xmlns:svg="http://www.w3.org/2000/svg" xmlns="http://www.w3.org/2000/svg" xmlns:freecad="https://www.freecad.org/wiki/index.php?title=Svg_Namespace" height="297mm" version="1.2" baseProfile="tiny" xmlns:sodipodi="http://sodipodi.sourceforge.net/DTD/sodipodi-0.dtd" xmlns:inkscape="http://www.inkscape.org/namespaces/inkscape" xmlns:xlink="http://www.w3.org/1999/xlink" xmlns:dc="http://purl.org/dc/elements/1.1/" xmlns:rdf="http://www.w3.org/1999/02/22-rdf-syntax-ns#" width="420mm">
 <title>FreeCAD SVG Export</title>
 <desc>Drawing page: Page exported from FreeCAD document: Unnamed</desc>
 <defs/>
 <g inkscape:groupmode="layer" inkscape:label="TechDraw" id="Page">
  <g transform="scale(10.000000, 10.000000)" id="A3_Landscape_ISO5457_advanced.svg" style="stroke: none;">
   <title id="title">Drawing sheet ISO 5457 - A3T - Advanced</title>
   <metadata id="metadata">
    <rdf:RDF>
     <cc:Work rdf:about="">
      <cc:license rdf:resource="http://creativecommons.org/publicdomain/zero/1.0/"/>
      <dc:title>Drawing sheet ISO 5457 - A3T - Advanced</dc:title>
      <dc:creator>
       <cc:Agent>
        <dc:title>Benjamin May</dc:title>
       </cc:Agent>
      </dc:creator>
     </cc:Work>
     <cc:License rdf:about="http://creativecommons.org/publicdomain/zero/1.0/">
      <cc:permits rdf:resource="http://creativecommons.org/ns#Reproduction"/>
      <cc:permits rdf:resource="http://creativecommons.org/ns#Distribution"/>
      <cc:permits rdf:resource="http://creativecommons.org/ns#DerivativeWorks"/>
     </cc:License>
    </rdf:RDF>
   </metadata>
   <rect x="20" height="277" y="10" width="390" id="drawing_space_frame" style="fill:none;stroke:#000000;stroke-width:0.7;stroke-linecap:round;stroke-linejoin:round"/>
   <g id="centring_marks" style="fill:none;stroke:#000000;stroke-width:0.7;stroke-linecap:round">
    <path d="m 210,5 v 10" id="top_centering"/>
    <path d="m 415,148.5 h -10" id="right_centering"/>
    <path d="m 210,292 v -10" id="bottom_centering"/>
    <path d="m 15,148.5 h 10" id="left_centering"/>
   </g>
   <g id="grid_reference_system">
    <g id="grid_reference_borders" style="fill:none;stroke:#000000;stroke-width:0.35;stroke-linecap:round;stroke-linejoin:round">
     <rect x="15" height="287" y="5" width="400" id="grid_reference_border"/>
     <path d="m 60,5 v 5" id="upper_border_1"/>
     <path d="m 110,5 v 5" id="upper_border_2"/>
     <path d="m 160,5 v 5" id="upper_border_3"/>
     <path d="m 260,5 v 5" id="upper_border_5"/>
     <path d="m 310,5 v 5" id="upper_border_6"/>
     <path d="m 360,5 v 5" id="upper_border_7"/>
     <path d="m 415,48.5 h -5" id="right_border_1"/>
     <path d="m 415,98.5 h -5" id="right_border_2"/>
     <path d="m 415,198.5 h -5" id="right_border_4"/>
     <path d="m 415,248.5 h -5" id="right_border_5"/>
     <path d="m 60,292 v -5" id="lower_border_1"/>
     <path d="m 110,292 v -5" id="lower_border_2"/>
     <path d="m 160,292 v -5" id="lower_border_3"/>
     <path d="m 260,292 v -5" id="lower_border_5"/>
     <path d="m 310,292 v -5" id="lower_border_6"/>
     <path d="m 360,292 v -5" id="lower_border_7"/>
     <path d="m 15,48.5 h 5" id="left_border_1"/>
     <path d="m 15,98.5 h 5" id="left_border_2"/>
     <path d="m 15,198.5 h 5" id="left_border_4"/>
     <path d="m 15,248.5 h 5" id="left_border_5"/>
    </g>
    <g id="grid_reference_markers" style="font-size:3.5px;font-family:osifont;text-align:center;text-anchor:middle;fill:#000000;stroke:none">
     <text x="35" y="8.8" id="upper_marker_1">1</text>
     <text x="85" y="8.8" id="upper_marker_2">2</text>
     <text x="135" y="8.8" id="upper_marker_3">3</text>
     <text x="185" y="8.8" id="upper_marker_4">4</text>
     <text x="235" y="8.8" id="upper_marker_5">5</text>
     <text x="285" y="8.8" id="upper_marker_6">6</text>
     <text x="335" y="8.8" id="upper_marker_7">7</text>
     <text x="385" y="8.8" id="upper_marker_8">8</text>
     <text x="412.5" y="24.8" id="right_marker_1">A</text>
     <text x="412.5" y="74.8" id="right_marker_2">B</text>
     <text x="412.5" y="124.8" id="right_marker_3">C</text>
     <text x="412.5" y="174.8" id="right_marker_4">D</text>
     <text x="412.5" y="224.8" id="right_marker_5">E</text>
     <text x="412.5" y="274.8" id="right_marker_6">F</text>
     <text x="35" y="290.8" id="lower_marker_1">1</text>
     <text x="85" y="290.8" id="lower_marker_2">2</text>
     <text x="135" y="290.8" id="lower_marker_3">3</text>
     <text x="185" y="290.8" id="lower_marker_4">4</text>
     <text x="235" y="290.8" id="lower_marker_5">5</text>
     <text x="285" y="290.8" id="lower_marker_6">6</text>
     <text x="335" y="290.8" id="lower_marker_7">7</text>
     <text x="385" y="290.8" id="lower_marker_8">A3</text>
     <text x="17.5" y="24.8" id="left_marker_1">A</text>
     <text x="17.5" y="74.8" id="left_marker_2">B</text>
     <text x="17.5" y="124.8" id="left_marker_3">C</text>
     <text x="17.5" y="174.8" id="left_marker_4">D</text>
     <text x="17.5" y="224.8" id="left_marker_5">E</text>
     <text x="17.5" y="274.8" id="left_marker_6">F</text>
    </g>
   </g>
   <g id="trimming_marks" style="fill:#000000;stroke:none">>
    <path d="m 0,0 h 10 v 5 h -5 v 5 h -5 z" id="top_left_trimming"/>
    <path d="m 420,0 h -10 v 5 h 5 v 5 h 5 z" id="top_right_trimming"/>
    <path d="m 420,297 h -10 v -5 h 5 v -5 h 5 z" id="bottom_right_trimming"/>
    <path d="m 0,297 h 10 v -5 h -5 v -5 h -5 z" id="bottom_left_trimming"/>
   </g>
   <!-- Title block -->
   <g id="title_block_borders" style="fill:none;stroke:#000000;stroke-width:0.35;stroke-linecap:round;stroke-linejoin:round">
    <rect x="230" height="48" y="239" width="180" id="title_block_frame" style="stroke-width:0.7"/>
    <rect x="370" height="24" y="239" width="40" id="legal_owner_border"/>
    <rect x="310" height="12" y="263" width="60" id="identification_number_border"/>
    <rect x="370" height="12" y="275" width="20" id="revision_index_border"/>
    <rect x="330" height="12" y="275" width="40" id="date_of_issue_border"/>
    <rect x="390" height="12" y="275" width="20" id="sheet_number_border"/>
    <rect x="310" height="12" y="275" width="20" id="language_code_border"/>
    <rect x="230" height="24" y="239" width="80" id="title_border"/>
    <rect x="370" height="12" y="263" width="40" id="responsible_department_border"/>
    <rect x="310" height="12" y="251" width="60" id="approval_person_border"/>
    <rect x="310" height="12" y="239" width="60" id="creator_border"/>
    <rect x="230" height="12" y="263" width="80" id="document_type_border"/>
    <rect x="230" height="12" y="275" width="80" id="document_status_border"/>
   </g>
   <g id="title_block_labels" style="font-size:3.5px;font-family:osifont;text-anchor:start;fill:#000000;stroke:none">
    <text x="370.5" y="242.6" id="legal_owner_label">Owner:</text>
    <text x="310.5" y="266.6" id="identification_number_label">Drawing number:</text>
    <text x="370.5" y="278.6" id="revision_index_label">Revision:</text>
    <text x="330.5" y="278.6" id="date_of_issue_label">Issue date:</text>
    <text x="390.5" y="278.6" id="sheet_number_label">Sheet:</text>
    <text x="310.5" y="278.6" id="language_code_label">Language:</text>
    <text x="230.5" y="242.6" id="title_label">Title, supplementary title:</text>
    <text x="370.5" y="266.6" id="responsible_department_label">Responsible department:</text>
    <text x="310.5" y="254.6" id="approval_person_label">Approved by:</text>
    <text x="310.5" y="242.6" id="creator_label">Created by:</text>
    <text x="230.5" y="266.6" id="document_type label">Document type:</text>
    <text x="230.5" y="278.6" id="document_status_label">Document status:</text>
    <text x="350.5" y="230.6" id="sheet_scale_label">Scale:</text>
    <text x="310.5" y="230.6" id="general_tolerances_label">General tolerances:</text>
    <text x="230.5" y="230.6" id="part_material_label">Part Material:</text>
   </g>
   <g id="title_block_data_fields" style="font-size:5px;font-family:osifont;text-anchor:start;fill:#000000;stroke:none">
    <text x="390" freecad:autofill="organization" y="248.1" freecad:editable="legal_owner_1" id="legal_owner_1_data_field" style="font-size:3.5px;text-align:center;text-anchor:middle">
     <tspan xml:space="preserve"/>
    </text>
    <text x="390" y="252.1" freecad:editable="legal_owner_2" id="legal_owner_2_data_field" style="font-size:3.5px;text-align:center;text-anchor:middle">
     <tspan xml:space="preserve"/>
    </text>
    <text x="390" y="256.1" freecad:editable="legal_owner_3" id="legal_owner_3_data_field" style="font-size:3.5px;text-align:center;text-anchor:middle">
     <tspan xml:space="preserve"/>
    </text>
    <text x="390" y="260.1" freecad:editable="legal_owner_4" id="legal_owner_4_data_field" style="font-size:3.5px;text-align:center;text-anchor:middle">
     <tspan xml:space="preserve"/>
    </text>
    <text x="311" y="272.2" freecad:editable="drawing_number" id="identification_number_data_field">
     <tspan xml:space="preserve">DN</tspan>
    </text>
    <text x="380" y="284.2" freecad:editable="revision_index" id="revision_index_data_field" style="text-align:center;text-anchor:middle">
     <tspan xml:space="preserve">A</tspan>
    </text>
    <text x="331" freecad:autofill="date" y="284.2" freecad:editable="date_of_issue" id="date_of_issue_data_field">
     <tspan xml:space="preserve">14/02/2026</tspan>
    </text>
    <text x="400" freecad:autofill="sheet" y="284.2" freecad:editable="sheet_number" id="sheet_number_data_field" style="text-align:center;text-anchor:middle">
     <tspan xml:space="preserve">1 / 1</tspan>
    </text>
    <text x="320" y="284.2" freecad:editable="language_code" id="language_data_field" style="text-align:center;text-anchor:middle">
     <tspan xml:space="preserve">EN</tspan>
    </text>
    <text x="231" freecad:autofill="title" y="248.2" freecad:editable="title" id="title_data_field">
     <tspan xml:space="preserve">OCT-CHBRA-AB</tspan>
    </text>
    <text x="231" y="254.2" freecad:editable="supplementary_title_1" id="supplementary_title_1_data_field">
     <tspan xml:space="preserve">Chamber Brace</tspan>
    </text>
    <text x="231" y="260.2" freecad:editable="supplementary_title_2" id="supplementary_title_2_data_field">
     <tspan xml:space="preserve"/>
    </text>
    <text x="371" y="272.2" freecad:editable="responsible_department" id="responsible_department_data_field">
     <tspan xml:space="preserve">RD</tspan>
    </text>
    <text x="311" y="260.2" freecad:editable="approval_person" id="approval_person_data_field">
     <tspan xml:space="preserve">S. Aphelion</tspan>
    </text>
    <text x="311" freecad:autofill="author" y="248.2" freecad:editable="creator" id="creator_data_field">
     <tspan xml:space="preserve">Michael Stoll</tspan>
    </text>
    <text x="231" y="272.2" freecad:editable="document_type" id="document_type_data_field">
     <tspan xml:space="preserve">Component Drawing</tspan>
    </text>
    <text x="231" y="284.2" freecad:editable="document_status" id="document_status_data_field">
     <tspan xml:space="preserve">In preparation</tspan>
    </text>
    <text x="360" freecad:autofill="scale" y="236.2" freecad:editable="scale" id="sheet_scale_data_field" style="text-align:center;text-anchor:middle">
     <tspan xml:space="preserve">1 : 1</tspan>
    </text>
    <text x="311" y="236.2" freecad:editable="general_tolerances" id="general_tolerances_data_field">
     <tspan xml:space="preserve">ISO 2768-m</tspan>
    </text>
    <text x="231" y="236.2" freecad:editable="part_material" id="part_material_data_field">
     <tspan xml:space="preserve">Mild Steel</tspan>
    </text>
   </g>
   <g id="extras_outlines" style="fill:none;stroke:#000000;stroke-width:0.5;stroke-linecap:round;stroke-linejoin:round">
    <path d="m 389,222 -10,2.5 v 5 l 10,2.5 z" id="first_angle_trapezoid"/>
    <circle r="2.5" cy="227" id="first_angle_inner circle" cx="396"/>
    <circle r="5" cy="227" id="first_angle_outer circle" cx="396"/>
   </g>
   <g id="extras_centre_lines" style="fill:none;stroke:#000000;stroke-width:0.25;stroke-linecap:round;stroke-linejoin:round;stroke-dasharray:6, 0.75, 0.125, 0.75">
    <path d="m 378,227 h 24" id="first_angle_horizontal" style="stroke-dashoffset:0.25"/>
    <path d="m 396,233 v -12" id="first_angle_vertical" style="stroke-dashoffset:4.625"/>
   </g>
  </g>
  <g stroke="black" fill-rule="evenodd" fill="none" stroke-width="1" stroke-linecap="square" stroke-linejoin="bevel" id="DrawingContent">
   <g stroke-opacity="1" stroke="#000000" fill="none" font-weight="400" stroke-width="1" font-family="MS Shell Dlg 2" stroke-linecap="square" stroke-linejoin="bevel" font-size="29.1042" transform="matrix(1,0,0,1,1716.03,1457.24)" font-style="normal">
    <rect x="0" height="0" y="0" width="0"/>
   </g>
   <g fill-opacity="0" stroke="none" fill="#f1f3f5" font-weight="400" font-family="MS Shell Dlg 2" font-size="29.1042" transform="matrix(1,0,0,1,1716.03,1457.24)" font-style="normal">
    <path d="M-400,125 L-400,-75 L-400,-105 L-400,-125 L400,-125 L400,-105 L400,-75 L400,125 L-400,125" fill-rule="evenodd" vector-effect="non-scaling-stroke"/>
   </g>
   <g fill-opacity="0" stroke="none" fill="#f1f3f5" font-weight="400" font-family="MS Shell Dlg 2" font-size="29.1042" transform="matrix(1,0,0,1,1716.03,1457.24)" font-style="normal">
    <path d="M-400,125 L-400,-75 L400,-75 L400,125 L-400,125" fill-rule="evenodd" vector-effect="non-scaling-stroke"/>
   </g>
   <g fill-opacity="0" stroke="none" fill="#f1f3f5" font-weight="400" font-family="MS Shell Dlg 2" font-size="29.1042" transform="matrix(1,0,0,1,1716.03,1457.24)" font-style="normal">
    <path d="M-400,-75 L400,-75 L400,-105 L-400,-105 L-400,-75" fill-rule="evenodd" vector-effect="non-scaling-stroke"/>
   </g>
   <g fill-opacity="0" stroke="none" fill="#f1f3f5" font-weight="400" font-family="MS Shell Dlg 2" font-size="29.1042" transform="matrix(1,0,0,1,1716.03,1457.24)" font-style="normal">
    <path d="M-400,-125 L-400,-105 L400,-105 L400,-125 L-400,-125" fill-rule="evenodd" vector-effect="non-scaling-stroke"/>
   </g>
   <g fill-opacity="0" stroke="none" fill="#f1f3f5" font-weight="400" font-family="MS Shell Dlg 2" font-size="29.1042" transform="matrix(1,0,0,1,1716.03,1457.24)" font-style="normal">
    <path d="M332,25 C332,42.6731 317.673,57 300,57 C282.327,57 268,42.6731 268,25 C268,7.32689 282.327,-7 300,-7 C317.673,-7 332,7.32689 332,25 " fill-rule="evenodd" vector-effect="non-scaling-stroke"/>
   </g>
   <g fill-opacity="0" stroke="none" fill="#f1f3f5" font-weight="400" font-family="MS Shell Dlg 2" font-size="29.1042" transform="matrix(1,0,0,1,1716.03,1457.24)" font-style="normal">
    <path d="M-268,25 C-268,42.6731 -282.327,57 -300,57 C-317.673,57 -332,42.6731 -332,25 C-332,7.32689 -317.673,-7 -300,-7 C-282.327,-7 -268,7.32689 -268,25 " fill-rule="evenodd" vector-effect="non-scaling-stroke"/>
   </g>
   <g stroke-opacity="1" stroke="#000000" fill="none" font-weight="400" stroke-width="7" font-family="MS Shell Dlg 2" stroke-linecap="round" stroke-linejoin="bevel" font-size="29.1042" transform="matrix(1,0,0,1,1716.03,1457.24)" font-style="normal">
    <path d="M-400,125 L-400,-75" fill-rule="evenodd" vector-effect="none"/>
   </g>
   <g stroke-opacity="1" stroke="#000000" fill="none" font-weight="400" stroke-width="7" font-family="MS Shell Dlg 2" stroke-linecap="round" stroke-linejoin="bevel" font-size="29.1042" transform="matrix(1,0,0,1,1716.03,1457.24)" font-style="normal">
    <path d="M-400,125 L400,125" fill-rule="evenodd" vector-effect="none"/>
   </g>
   <g stroke-opacity="1" stroke="#000000" fill="none" font-weight="400" stroke-width="7" font-family="MS Shell Dlg 2" stroke-linecap="round" stroke-linejoin="bevel" font-size="29.1042" transform="matrix(1,0,0,1,1716.03,1457.24)" font-style="normal">
    <path d="M-400,-75 L400,-75" fill-rule="evenodd" vector-effect="none"/>
   </g>
   <g stroke-opacity="1" stroke="#000000" fill="none" font-weight="400" stroke-width="7" font-family="MS Shell Dlg 2" stroke-linecap="round" stroke-linejoin="bevel" font-size="29.1042" transform="matrix(1,0,0,1,1716.03,1457.24)" font-style="normal">
    <path d="M400,125 L400,-75" fill-rule="evenodd" vector-effect="none"/>
   </g>
   <g stroke-opacity="1" stroke="#000000" fill="none" font-weight="400" stroke-width="7" font-family="MS Shell Dlg 2" stroke-linecap="round" stroke-linejoin="bevel" font-size="29.1042" transform="matrix(1,0,0,1,1716.03,1457.24)" font-style="normal">
    <path d="M-268,25 C-268,42.6731 -282.327,57 -300,57 C-317.673,57 -332,42.6731 -332,25 C-332,7.32689 -317.673,-7 -300,-7 C-282.327,-7 -268,7.32689 -268,25 " fill-rule="evenodd" vector-effect="none"/>
   </g>
   <g stroke-opacity="1" stroke="#000000" fill="none" font-weight="400" stroke-width="7" font-family="MS Shell Dlg 2" stroke-linecap="round" stroke-linejoin="bevel" font-size="29.1042" transform="matrix(1,0,0,1,1716.03,1457.24)" font-style="normal">
    <path d="M332,25 C332,42.6731 317.673,57 300,57 C282.327,57 268,42.6731 268,25 C268,7.32689 282.327,-7 300,-7 C317.673,-7 332,7.32689 332,25 " fill-rule="evenodd" vector-effect="none"/>
   </g>
   <g stroke-opacity="1" stroke="#000000" fill="none" font-weight="400" stroke-width="7" font-family="MS Shell Dlg 2" stroke-linecap="round" stroke-linejoin="bevel" font-size="29.1042" transform="matrix(1,0,0,1,1716.03,1457.24)" font-style="normal">
    <path d="M-400,-75 L-400,-105" fill-rule="evenodd" vector-effect="none"/>
   </g>
   <g stroke-opacity="1" stroke="#000000" fill="none" font-weight="400" stroke-width="7" font-family="MS Shell Dlg 2" stroke-linecap="round" stroke-linejoin="bevel" font-size="29.1042" transform="matrix(1,0,0,1,1716.03,1457.24)" font-style="normal">
    <path d="M400,-75 L400,-105" fill-rule="evenodd" vector-effect="none"/>
   </g>
   <g stroke-opacity="1" stroke="#000000" fill="none" font-weight="400" stroke-width="7" font-family="MS Shell Dlg 2" stroke-linecap="round" stroke-linejoin="bevel" font-size="29.1042" transform="matrix(1,0,0,1,1716.03,1457.24)" font-style="normal">
    <path d="M-400,-125 L-400,-105" fill-rule="evenodd" vector-effect="none"/>
   </g>
   <g stroke-opacity="1" stroke="#000000" fill="none" font-weight="400" stroke-width="7" font-family="MS Shell Dlg 2" stroke-linecap="round" stroke-linejoin="bevel" font-size="29.1042" transform="matrix(1,0,0,1,1716.03,1457.24)" font-style="normal">
    <path d="M-400,-105 L400,-105" fill-rule="evenodd" vector-effect="none"/>
   </g>
   <g stroke-opacity="1" stroke="#000000" fill="none" font-weight="400" stroke-width="7" font-family="MS Shell Dlg 2" stroke-linecap="round" stroke-linejoin="bevel" font-size="29.1042" transform="matrix(1,0,0,1,1716.03,1457.24)" font-style="normal">
    <path d="M-400,-125 L400,-125" fill-rule="evenodd" vector-effect="none"/>
   </g>
   <g stroke-opacity="1" stroke="#000000" fill="none" font-weight="400" stroke-width="7" font-family="MS Shell Dlg 2" stroke-linecap="round" stroke-linejoin="bevel" font-size="29.1042" transform="matrix(1,0,0,1,1716.03,1457.24)" font-style="normal">
    <path d="M400,-125 L400,-105" fill-rule="evenodd" vector-effect="none"/>
   </g>
   <g stroke-opacity="1" stroke="#000000" fill="none" font-weight="400" stroke-width="1" font-family="MS Shell Dlg 2" stroke-linecap="square" stroke-linejoin="bevel" font-size="29.1042" transform="matrix(1,0,0,1,1652.03,1058.04)" font-style="normal">
    <text fill-opacity="1" stroke="none" fill="#000000" x="4" font-weight="400" y="92" font-family="osifont" font-size="67" xml:space="preserve" font-style="normal">80.0</text>
   </g>
   <g stroke-opacity="1" stroke="#000000" fill="none" font-weight="400" stroke-width="3.5" font-family="MS Shell Dlg 2" stroke-linecap="round" stroke-linejoin="bevel" font-size="29.1042" transform="matrix(1,0,0,1,1716.03,1457.24)" font-style="normal">
    <path d="M-400,-273.202 L400,-273.202 M400,-125 L400,-301.202 M-400,-125 L-400,-301.202" fill-rule="evenodd" vector-effect="none"/>
   </g>
   <g fill-opacity="1" stroke-opacity="1" stroke="#000000" fill="#000000" font-weight="400" stroke-width="3.5" font-family="MS Shell Dlg 2" stroke-linecap="round" stroke-linejoin="bevel" font-size="29.1042" transform="matrix(1,0,0,1,2116.03,1184.04)" font-style="normal">
    <path d="M0,0 L-35,-5.83333 L-35,5.83333 L0,0" fill-rule="evenodd" vector-effect="none"/>
   </g>
   <g fill-opacity="1" stroke-opacity="1" stroke="#000000" fill="#000000" font-weight="400" stroke-width="3.5" font-family="MS Shell Dlg 2" stroke-linecap="round" stroke-linejoin="bevel" font-size="29.1042" transform="matrix(1,0,0,1,1316.03,1184.04)" font-style="normal">
    <path d="M0,0 L35,5.83333 L35,-5.83333 L0,0" fill-rule="evenodd" vector-effect="none"/>
   </g>
   <g stroke-opacity="1" stroke="#000000" fill="none" font-weight="400" stroke-width="1" font-family="MS Shell Dlg 2" stroke-linecap="square" stroke-linejoin="bevel" font-size="29.1042" transform="matrix(0,-1,1,0,1100.23,1590.62)" font-style="normal">
    <text fill-opacity="1" stroke="none" fill="#000000" x="4" font-weight="400" y="92" font-family="osifont" font-size="67" xml:space="preserve" font-style="normal">10.0</text>
   </g>
   <g stroke-opacity="1" stroke="#000000" fill="none" font-weight="400" stroke-width="3.5" font-family="MS Shell Dlg 2" stroke-linecap="round" stroke-linejoin="bevel" font-size="29.1042" transform="matrix(1,0,0,1,1716.03,1457.24)" font-style="normal">
    <path d="M-489.799,195 L-489.799,-45 M-300,25 L-517.799,25 M-300,125 L-517.799,125" fill-rule="evenodd" vector-effect="none"/>
   </g>
   <g fill-opacity="1" stroke-opacity="1" stroke="#000000" fill="#000000" font-weight="400" stroke-width="3.5" font-family="MS Shell Dlg 2" stroke-linecap="round" stroke-linejoin="bevel" font-size="29.1042" transform="matrix(1,0,0,1,1226.23,1482.24)" font-style="normal">
    <path d="M0,0 L5.83333,-35 L-5.83333,-35 L0,0" fill-rule="evenodd" vector-effect="none"/>
   </g>
   <g fill-opacity="1" stroke-opacity="1" stroke="#000000" fill="#000000" font-weight="400" stroke-width="3.5" font-family="MS Shell Dlg 2" stroke-linecap="round" stroke-linejoin="bevel" font-size="29.1042" transform="matrix(1,0,0,1,1226.23,1582.24)" font-style="normal">
    <path d="M0,0 L-5.83333,35 L5.83333,35 L0,0" fill-rule="evenodd" vector-effect="none"/>
   </g>
   <g stroke-opacity="1" stroke="#000000" fill="none" font-weight="400" stroke-width="1" font-family="MS Shell Dlg 2" stroke-linecap="square" stroke-linejoin="bevel" font-size="29.1042" transform="matrix(1,0,0,1,1185.97,1733.18)" font-style="normal">
    <text fill-opacity="1" stroke="none" fill="#000000" x="4" font-weight="400" y="92" font-family="osifont" font-size="67" xml:space="preserve" font-style="normal">10.0</text>
   </g>
   <g stroke-opacity="1" stroke="#000000" fill="none" font-weight="400" stroke-width="3.5" font-family="MS Shell Dlg 2" stroke-linecap="round" stroke-linejoin="bevel" font-size="29.1042" transform="matrix(1,0,0,1,1716.03,1457.24)" font-style="normal">
    <path d="M-533.56,401.942 L-230,401.942 M-300,25 L-300,429.942 M-400,25 L-400,429.942" fill-rule="evenodd" vector-effect="none"/>
   </g>
   <g fill-opacity="1" stroke-opacity="1" stroke="#000000" fill="#000000" font-weight="400" stroke-width="3.5" font-family="MS Shell Dlg 2" stroke-linecap="round" stroke-linejoin="bevel" font-size="29.1042" transform="matrix(1,0,0,1,1416.03,1859.18)" font-style="normal">
    <path d="M0,0 L35,5.83333 L35,-5.83333 L0,0" fill-rule="evenodd" vector-effect="none"/>
   </g>
   <g fill-opacity="1" stroke-opacity="1" stroke="#000000" fill="#000000" font-weight="400" stroke-width="3.5" font-family="MS Shell Dlg 2" stroke-linecap="round" stroke-linejoin="bevel" font-size="29.1042" transform="matrix(1,0,0,1,1316.03,1859.18)" font-style="normal">
    <path d="M0,0 L-35,-5.83333 L-35,5.83333 L0,0" fill-rule="evenodd" vector-effect="none"/>
   </g>
   <g stroke-opacity="1" stroke="#000000" fill="none" font-weight="400" stroke-width="1" font-family="MS Shell Dlg 2" stroke-linecap="square" stroke-linejoin="bevel" font-size="29.1042" transform="matrix(1,0,0,1,1652.9,1733.18)" font-style="normal">
    <text fill-opacity="1" stroke="none" fill="#000000" x="4" font-weight="400" y="92" font-family="osifont" font-size="67" xml:space="preserve" font-style="normal">60.0</text>
   </g>
   <g stroke-opacity="1" stroke="#000000" fill="none" font-weight="400" stroke-width="3.5" font-family="MS Shell Dlg 2" stroke-linecap="round" stroke-linejoin="bevel" font-size="29.1042" transform="matrix(1,0,0,1,1716.03,1457.24)" font-style="normal">
    <path d="M-300,401.942 L300,401.942 M300,25 L300,429.942 M-300,25 L-300,429.942" fill-rule="evenodd" vector-effect="none"/>
   </g>
   <g fill-opacity="1" stroke-opacity="1" stroke="#000000" fill="#000000" font-weight="400" stroke-width="3.5" font-family="MS Shell Dlg 2" stroke-linecap="round" stroke-linejoin="bevel" font-size="29.1042" transform="matrix(1,0,0,1,2016.03,1859.18)" font-style="normal">
    <path d="M0,0 L-35,-5.83333 L-35,5.83333 L0,0" fill-rule="evenodd" vector-effect="none"/>
   </g>
   <g fill-opacity="1" stroke-opacity="1" stroke="#000000" fill="#000000" font-weight="400" stroke-width="3.5" font-family="MS Shell Dlg 2" stroke-linecap="round" stroke-linejoin="bevel" font-size="29.1042" transform="matrix(1,0,0,1,1416.03,1859.18)" font-style="normal">
    <path d="M0,0 L35,5.83333 L35,-5.83333 L0,0" fill-rule="evenodd" vector-effect="none"/>
   </g>
   <g stroke-opacity="1" stroke="#000000" fill="none" font-weight="400" stroke-width="1" font-family="MS Shell Dlg 2" stroke-linecap="square" stroke-linejoin="bevel" font-size="29.1042" transform="matrix(0.701537,0.712633,-0.712633,0.701537,2307.15,1598.36)" font-style="normal">
    <text fill-opacity="1" stroke="none" fill="#000000" x="4" font-weight="400" y="92" font-family="osifont" font-size="67" xml:space="preserve" font-style="normal">⌀6.4</text>
   </g>
   <g stroke-opacity="1" stroke="#000000" fill="none" font-weight="400" stroke-width="3.5" font-family="MS Shell Dlg 2" stroke-linecap="round" stroke-linejoin="bevel" font-size="29.1042" transform="matrix(1,0,0,1,1716.03,1457.24)" font-style="normal">
    <path d="M228.443,-47.6886 L604.805,334.626" fill-rule="evenodd" vector-effect="none"/>
   </g>
   <g fill-opacity="1" stroke-opacity="1" stroke="#000000" fill="#000000" font-weight="400" stroke-width="3.5" font-family="MS Shell Dlg 2" stroke-linecap="round" stroke-linejoin="bevel" font-size="29.1042" transform="matrix(1,0,0,1,2038.48,1505.05)" font-style="normal">
    <path d="M0,0 L20.3968,29.0345 L28.7108,20.8499 L0,0" fill-rule="evenodd" vector-effect="none"/>
   </g>
   <g fill-opacity="1" stroke-opacity="1" stroke="#000000" fill="#000000" font-weight="400" stroke-width="3.5" font-family="MS Shell Dlg 2" stroke-linecap="round" stroke-linejoin="bevel" font-size="29.1042" transform="matrix(1,0,0,1,1993.58,1459.44)" font-style="normal">
    <path d="M0,0 L-20.3968,-29.0345 L-28.7108,-20.8499 L0,0" fill-rule="evenodd" vector-effect="none"/>
   </g>
   <g fill-opacity="0" stroke="none" fill="#f1f3f5" font-weight="400" font-family="MS Shell Dlg 2" font-size="29.1042" transform="matrix(1,0,0,1,2716.03,1457.24)" font-style="normal">
    <path d="M100,125 L80,125 L80,-75 C80,-91.5685 66.5685,-105 50,-105 L-100,-105 L-100,-125 L50,-125 C77.6142,-125 100,-102.614 100,-75 L100,125" fill-rule="evenodd" vector-effect="non-scaling-stroke"/>
   </g>
   <g fill-opacity="0" stroke="none" fill="#f1f3f5" font-weight="400" font-family="MS Shell Dlg 2" font-size="29.1042" transform="matrix(1,0,0,1,2716.03,1457.24)" font-style="normal">
    <path d="M100,125 L80,125 L80,-75 L100,-75 L100,125" fill-rule="evenodd" vector-effect="non-scaling-stroke"/>
   </g>
   <g fill-opacity="0" stroke="none" fill="#f1f3f5" font-weight="400" font-family="MS Shell Dlg 2" font-size="29.1042" transform="matrix(1,0,0,1,2716.03,1457.24)" font-style="normal">
    <path d="M-100,-125 L-100,-105 L50,-105 L50,-125 L-100,-125" fill-rule="evenodd" vector-effect="non-scaling-stroke"/>
   </g>
   <g fill-opacity="0" stroke="none" fill="#f1f3f5" font-weight="400" font-family="MS Shell Dlg 2" font-size="29.1042" transform="matrix(1,0,0,1,2716.03,1457.24)" font-style="normal">
    <path d="M100,-75 L80,-75 C80,-91.5685 66.5685,-105 50,-105 L50,-125 C77.6142,-125 100,-102.614 100,-75 " fill-rule="evenodd" vector-effect="non-scaling-stroke"/>
   </g>
   <g stroke-opacity="1" stroke="#000000" fill="none" font-weight="400" stroke-width="7" font-family="MS Shell Dlg 2" stroke-linecap="round" stroke-linejoin="bevel" font-size="29.1042" transform="matrix(1,0,0,1,2716.03,1457.24)" font-style="normal">
    <path d="M100,125 L80,125" fill-rule="evenodd" vector-effect="none"/>
   </g>
   <g stroke-opacity="1" stroke="#000000" fill="none" font-weight="400" stroke-width="7" font-family="MS Shell Dlg 2" stroke-linecap="round" stroke-linejoin="bevel" font-size="29.1042" transform="matrix(1,0,0,1,2716.03,1457.24)" font-style="normal">
    <path d="M80,125 L80,-75" fill-rule="evenodd" vector-effect="none"/>
   </g>
   <g stroke-opacity="1" stroke="#000000" fill="none" font-weight="400" stroke-width="7" font-family="MS Shell Dlg 2" stroke-linecap="round" stroke-linejoin="bevel" font-size="29.1042" transform="matrix(1,0,0,1,2716.03,1457.24)" font-style="normal">
    <path d="M100,125 L100,-75" fill-rule="evenodd" vector-effect="none"/>
   </g>
   <g stroke-opacity="1" stroke="#000000" fill="none" font-weight="400" stroke-width="7" font-family="MS Shell Dlg 2" stroke-linecap="round" stroke-linejoin="bevel" font-size="29.1042" transform="matrix(1,0,0,1,2716.03,1457.24)" font-style="normal">
    <path d="M100,-75 L80,-75" fill-rule="evenodd" vector-effect="none"/>
   </g>
   <g stroke-opacity="1" stroke="#000000" fill="none" font-weight="400" stroke-width="7" font-family="MS Shell Dlg 2" stroke-linecap="round" stroke-linejoin="bevel" font-size="29.1042" transform="matrix(1,0,0,1,2716.03,1457.24)" font-style="normal">
    <path d="M80,-75 C80,-91.5685 66.5685,-105 50,-105 " fill-rule="evenodd" vector-effect="none"/>
   </g>
   <g stroke-opacity="1" stroke="#000000" fill="none" font-weight="400" stroke-width="7" font-family="MS Shell Dlg 2" stroke-linecap="round" stroke-linejoin="bevel" font-size="29.1042" transform="matrix(1,0,0,1,2716.03,1457.24)" font-style="normal">
    <path d="M100,-75 C100,-102.614 77.6142,-125 50,-125 " fill-rule="evenodd" vector-effect="none"/>
   </g>
   <g stroke-opacity="1" stroke="#000000" fill="none" font-weight="400" stroke-width="7" font-family="MS Shell Dlg 2" stroke-linecap="round" stroke-linejoin="bevel" font-size="29.1042" transform="matrix(1,0,0,1,2716.03,1457.24)" font-style="normal">
    <path d="M50,-105 L50,-125" fill-rule="evenodd" vector-effect="none"/>
   </g>
   <g stroke-opacity="1" stroke="#000000" fill="none" font-weight="400" stroke-width="7" font-family="MS Shell Dlg 2" stroke-linecap="round" stroke-linejoin="bevel" font-size="29.1042" transform="matrix(1,0,0,1,2716.03,1457.24)" font-style="normal">
    <path d="M-100,-105 L50,-105" fill-rule="evenodd" vector-effect="none"/>
   </g>
   <g stroke-opacity="1" stroke="#000000" fill="none" font-weight="400" stroke-width="7" font-family="MS Shell Dlg 2" stroke-linecap="round" stroke-linejoin="bevel" font-size="29.1042" transform="matrix(1,0,0,1,2716.03,1457.24)" font-style="normal">
    <path d="M-100,-125 L50,-125" fill-rule="evenodd" vector-effect="none"/>
   </g>
   <g stroke-opacity="1" stroke="#000000" fill="none" font-weight="400" stroke-width="7" font-family="MS Shell Dlg 2" stroke-linecap="round" stroke-linejoin="bevel" font-size="29.1042" transform="matrix(1,0,0,1,2716.03,1457.24)" font-style="normal">
    <path d="M-100,-125 L-100,-105" fill-rule="evenodd" vector-effect="none"/>
   </g>
   <g stroke-opacity="1" stroke="#000000" fill="none" font-weight="400" stroke-width="1" font-family="MS Shell Dlg 2" stroke-linecap="square" stroke-linejoin="bevel" font-size="29.1042" transform="matrix(0,-1,1,0,2973.47,1520.49)" font-style="normal">
    <text fill-opacity="1" stroke="none" fill="#000000" x="4" font-weight="400" y="92" font-family="osifont" font-size="67" xml:space="preserve" font-style="normal">25.0</text>
   </g>
   <g stroke-opacity="1" stroke="#000000" fill="none" font-weight="400" stroke-width="3.5" font-family="MS Shell Dlg 2" stroke-linecap="round" stroke-linejoin="bevel" font-size="29.1042" transform="matrix(1,0,0,1,2716.03,1457.24)" font-style="normal">
    <path d="M383.445,-125 L383.445,125 M100,125 L411.445,125 M50,-125 L411.445,-125" fill-rule="evenodd" vector-effect="none"/>
   </g>
   <g fill-opacity="1" stroke-opacity="1" stroke="#000000" fill="#000000" font-weight="400" stroke-width="3.5" font-family="MS Shell Dlg 2" stroke-linecap="round" stroke-linejoin="bevel" font-size="29.1042" transform="matrix(1,0,0,1,3099.47,1582.24)" font-style="normal">
    <path d="M0,0 L5.83333,-35 L-5.83333,-35 L0,0" fill-rule="evenodd" vector-effect="none"/>
   </g>
   <g fill-opacity="1" stroke-opacity="1" stroke="#000000" fill="#000000" font-weight="400" stroke-width="3.5" font-family="MS Shell Dlg 2" stroke-linecap="round" stroke-linejoin="bevel" font-size="29.1042" transform="matrix(1,0,0,1,3099.47,1332.24)" font-style="normal">
    <path d="M0,0 L-5.83333,35 L5.83333,35 L0,0" fill-rule="evenodd" vector-effect="none"/>
   </g>
   <g stroke-opacity="1" stroke="#000000" fill="none" font-weight="400" stroke-width="1" font-family="MS Shell Dlg 2" stroke-linecap="square" stroke-linejoin="bevel" font-size="29.1042" transform="matrix(1,0,0,1,2653.78,1122.74)" font-style="normal">
    <text fill-opacity="1" stroke="none" fill="#000000" x="4" font-weight="400" y="92" font-family="osifont" font-size="67" xml:space="preserve" font-style="normal">20.0</text>
   </g>
   <g stroke-opacity="1" stroke="#000000" fill="none" font-weight="400" stroke-width="3.5" font-family="MS Shell Dlg 2" stroke-linecap="round" stroke-linejoin="bevel" font-size="29.1042" transform="matrix(1,0,0,1,2716.03,1457.24)" font-style="normal">
    <path d="M-100,-208.504 L100,-208.504 M100,-75 L100,-236.504 M-100,-125 L-100,-236.504" fill-rule="evenodd" vector-effect="none"/>
   </g>
   <g fill-opacity="1" stroke-opacity="1" stroke="#000000" fill="#000000" font-weight="400" stroke-width="3.5" font-family="MS Shell Dlg 2" stroke-linecap="round" stroke-linejoin="bevel" font-size="29.1042" transform="matrix(1,0,0,1,2816.03,1248.74)" font-style="normal">
    <path d="M0,0 L-35,-5.83333 L-35,5.83333 L0,0" fill-rule="evenodd" vector-effect="none"/>
   </g>
   <g fill-opacity="1" stroke-opacity="1" stroke="#000000" fill="#000000" font-weight="400" stroke-width="3.5" font-family="MS Shell Dlg 2" stroke-linecap="round" stroke-linejoin="bevel" font-size="29.1042" transform="matrix(1,0,0,1,2616.03,1248.74)" font-style="normal">
    <path d="M0,0 L35,5.83333 L35,-5.83333 L0,0" fill-rule="evenodd" vector-effect="none"/>
   </g>
   <g stroke-opacity="1" stroke="#000000" fill="none" font-weight="400" stroke-width="1" font-family="MS Shell Dlg 2" stroke-linecap="square" stroke-linejoin="bevel" font-size="29.1042" transform="matrix(0,-1,1,0,2436.53,1388.99)" font-style="normal">
    <text fill-opacity="1" stroke="none" fill="#000000" x="4" font-weight="400" y="92" font-family="osifont" font-size="67" xml:space="preserve" font-style="normal">2.0</text>
   </g>
   <g stroke-opacity="1" stroke="#000000" fill="none" font-weight="400" stroke-width="3.5" font-family="MS Shell Dlg 2" stroke-linecap="round" stroke-linejoin="bevel" font-size="29.1042" transform="matrix(1,0,0,1,2716.03,1457.24)" font-style="normal">
    <path d="M-153.499,-195 L-153.499,-35 M-100,-105 L-181.499,-105 M-100,-125 L-181.499,-125" fill-rule="evenodd" vector-effect="none"/>
   </g>
   <g fill-opacity="1" stroke-opacity="1" stroke="#000000" fill="#000000" font-weight="400" stroke-width="3.5" font-family="MS Shell Dlg 2" stroke-linecap="round" stroke-linejoin="bevel" font-size="29.1042" transform="matrix(1,0,0,1,2562.53,1352.24)" font-style="normal">
    <path d="M0,0 L-5.83333,35 L5.83333,35 L0,0" fill-rule="evenodd" vector-effect="none"/>
   </g>
   <g fill-opacity="1" stroke-opacity="1" stroke="#000000" fill="#000000" font-weight="400" stroke-width="3.5" font-family="MS Shell Dlg 2" stroke-linecap="round" stroke-linejoin="bevel" font-size="29.1042" transform="matrix(1,0,0,1,2562.53,1332.24)" font-style="normal">
    <path d="M0,0 L5.83333,-35 L-5.83333,-35 L0,0" fill-rule="evenodd" vector-effect="none"/>
   </g>
   <g stroke-opacity="1" stroke="#000000" fill="none" font-weight="400" stroke-width="1" font-family="MS Shell Dlg 2" stroke-linecap="square" stroke-linejoin="bevel" font-size="29.1042" transform="matrix(0.773423,-0.63389,0.63389,0.773423,2420.72,1502.34)" font-style="normal">
    <text fill-opacity="1" stroke="none" fill="#000000" x="4" font-weight="400" y="92" font-family="osifont" font-size="67" xml:space="preserve" font-style="normal">R3.0</text>
   </g>
   <g stroke-opacity="1" stroke="#000000" fill="none" font-weight="400" stroke-width="3.5" font-family="MS Shell Dlg 2" stroke-linecap="round" stroke-linejoin="bevel" font-size="29.1042" transform="matrix(1,0,0,1,2716.03,1457.24)" font-style="normal">
    <path d="M-218.145,144.769 L127.342,-138.389" fill-rule="evenodd" vector-effect="none"/>
   </g>
   <g fill-opacity="1" stroke-opacity="1" stroke="#000000" fill="#000000" font-weight="400" stroke-width="3.5" font-family="MS Shell Dlg 2" stroke-linecap="round" stroke-linejoin="bevel" font-size="29.1042" transform="matrix(1,0,0,1,2789.23,1363.23)" font-style="normal">
    <path d="M0,0 L30.7675,-17.6745 L23.3721,-26.6978 L0,0" fill-rule="evenodd" vector-effect="none"/>
   </g>
  </g>
 </g>
</svg>
