<?xml version='1.0' encoding='UTF-8' standalone='no'?>
<svg xmlns:freecad="https://www.freecad.org/wiki/index.php?title=Svg_Namespace" xmlns:xlink="http://www.w3.org/1999/xlink" xmlns:svg="http://www.w3.org/2000/svg" xmlns:dc="http://purl.org/dc/elements/1.1/" xmlns:sodipodi="http://sodipodi.sourceforge.net/DTD/sodipodi-0.dtd" xmlns:rdf="http://www.w3.org/1999/02/22-rdf-syntax-ns#" width="420mm" baseProfile="tiny" xmlns:cc="http://creativecommons.org/ns#" xmlns:inkscape="http://www.inkscape.org/namespaces/inkscape" xmlns="http://www.w3.org/2000/svg" height="297mm" viewBox="0 0 4200 2970" version="1.2">
 <title>FreeCAD SVG Export</title>
 <desc>Drawing page: Page001 exported from FreeCAD document: OCT_UFPNL</desc>
 <defs/>
 <g inkscape:groupmode="layer" inkscape:label="TechDraw" id="Page001">
  <g style="stroke: none;" id="A3_Landscape_ISO5457_advanced1.svg" transform="scale(10.000000, 10.000000)">
   <title id="title">Drawing sheet ISO 5457 - A3T - Advanced</title>
   <metadata id="metadata">
    <rdf:RDF>
     <cc:Work rdf:about="">
      <cc:license rdf:resource="http://creativecommons.org/publicdomain/zero/1.0/"/>
      <dc:title>Drawing sheet ISO 5457 - A3T - Advanced</dc:title>
      <dc:creator>
       <cc:Agent>
        <dc:title>Benjamin May</dc:title>
       </cc:Agent>
      </dc:creator>
     </cc:Work>
     <cc:License rdf:about="http://creativecommons.org/publicdomain/zero/1.0/">
      <cc:permits rdf:resource="http://creativecommons.org/ns#Reproduction"/>
      <cc:permits rdf:resource="http://creativecommons.org/ns#Distribution"/>
      <cc:permits rdf:resource="http://creativecommons.org/ns#DerivativeWorks"/>
     </cc:License>
    </rdf:RDF>
   </metadata>
   <rect style="fill:none;stroke:#000000;stroke-width:0.7;stroke-linecap:round;stroke-linejoin:round" x="20" y="10" id="drawing_space_frame" width="390" height="277"/>
   <g style="fill:none;stroke:#000000;stroke-width:0.7;stroke-linecap:round" id="centring_marks">
    <path id="top_centering" d="m 210,5 v 10"/>
    <path id="right_centering" d="m 415,148.5 h -10"/>
    <path id="bottom_centering" d="m 210,292 v -10"/>
    <path id="left_centering" d="m 15,148.5 h 10"/>
   </g>
   <g id="grid_reference_system">
    <g style="fill:none;stroke:#000000;stroke-width:0.35;stroke-linecap:round;stroke-linejoin:round" id="grid_reference_borders">
     <rect x="15" y="5" id="grid_reference_border" width="400" height="287"/>
     <path id="upper_border_1" d="m 60,5 v 5"/>
     <path id="upper_border_2" d="m 110,5 v 5"/>
     <path id="upper_border_3" d="m 160,5 v 5"/>
     <path id="upper_border_5" d="m 260,5 v 5"/>
     <path id="upper_border_6" d="m 310,5 v 5"/>
     <path id="upper_border_7" d="m 360,5 v 5"/>
     <path id="right_border_1" d="m 415,48.5 h -5"/>
     <path id="right_border_2" d="m 415,98.5 h -5"/>
     <path id="right_border_4" d="m 415,198.5 h -5"/>
     <path id="right_border_5" d="m 415,248.5 h -5"/>
     <path id="lower_border_1" d="m 60,292 v -5"/>
     <path id="lower_border_2" d="m 110,292 v -5"/>
     <path id="lower_border_3" d="m 160,292 v -5"/>
     <path id="lower_border_5" d="m 260,292 v -5"/>
     <path id="lower_border_6" d="m 310,292 v -5"/>
     <path id="lower_border_7" d="m 360,292 v -5"/>
     <path id="left_border_1" d="m 15,48.5 h 5"/>
     <path id="left_border_2" d="m 15,98.5 h 5"/>
     <path id="left_border_4" d="m 15,198.5 h 5"/>
     <path id="left_border_5" d="m 15,248.5 h 5"/>
    </g>
    <g style="font-size:3.5px;font-family:osifont;text-align:center;text-anchor:middle;fill:#000000;stroke:none" id="grid_reference_markers">
     <text x="35" y="8.8" id="upper_marker_1">1</text>
     <text x="85" y="8.8" id="upper_marker_2">2</text>
     <text x="135" y="8.8" id="upper_marker_3">3</text>
     <text x="185" y="8.8" id="upper_marker_4">4</text>
     <text x="235" y="8.8" id="upper_marker_5">5</text>
     <text x="285" y="8.8" id="upper_marker_6">6</text>
     <text x="335" y="8.8" id="upper_marker_7">7</text>
     <text x="385" y="8.8" id="upper_marker_8">8</text>
     <text x="412.5" y="24.8" id="right_marker_1">A</text>
     <text x="412.5" y="74.8" id="right_marker_2">B</text>
     <text x="412.5" y="124.8" id="right_marker_3">C</text>
     <text x="412.5" y="174.8" id="right_marker_4">D</text>
     <text x="412.5" y="224.8" id="right_marker_5">E</text>
     <text x="412.5" y="274.8" id="right_marker_6">F</text>
     <text x="35" y="290.8" id="lower_marker_1">1</text>
     <text x="85" y="290.8" id="lower_marker_2">2</text>
     <text x="135" y="290.8" id="lower_marker_3">3</text>
     <text x="185" y="290.8" id="lower_marker_4">4</text>
     <text x="235" y="290.8" id="lower_marker_5">5</text>
     <text x="285" y="290.8" id="lower_marker_6">6</text>
     <text x="335" y="290.8" id="lower_marker_7">7</text>
     <text x="385" y="290.8" id="lower_marker_8">A3</text>
     <text x="17.5" y="24.8" id="left_marker_1">A</text>
     <text x="17.5" y="74.8" id="left_marker_2">B</text>
     <text x="17.5" y="124.8" id="left_marker_3">C</text>
     <text x="17.5" y="174.8" id="left_marker_4">D</text>
     <text x="17.5" y="224.8" id="left_marker_5">E</text>
     <text x="17.5" y="274.8" id="left_marker_6">F</text>
    </g>
   </g>
   <g style="fill:#000000;stroke:none" id="trimming_marks">>
    <path id="top_left_trimming" d="m 0,0 h 10 v 5 h -5 v 5 h -5 z"/>
    <path id="top_right_trimming" d="m 420,0 h -10 v 5 h 5 v 5 h 5 z"/>
    <path id="bottom_right_trimming" d="m 420,297 h -10 v -5 h 5 v -5 h 5 z"/>
    <path id="bottom_left_trimming" d="m 0,297 h 10 v -5 h -5 v -5 h -5 z"/>
   </g>
   <!-- Title block -->
   <g style="fill:none;stroke:#000000;stroke-width:0.35;stroke-linecap:round;stroke-linejoin:round" id="title_block_borders">
    <rect style="stroke-width:0.7" x="230" y="239" id="title_block_frame" width="180" height="48"/>
    <rect x="370" y="239" id="legal_owner_border" width="40" height="24"/>
    <rect x="310" y="263" id="identification_number_border" width="60" height="12"/>
    <rect x="370" y="275" id="revision_index_border" width="20" height="12"/>
    <rect x="330" y="275" id="date_of_issue_border" width="40" height="12"/>
    <rect x="390" y="275" id="sheet_number_border" width="20" height="12"/>
    <rect x="310" y="275" id="language_code_border" width="20" height="12"/>
    <rect x="230" y="239" id="title_border" width="80" height="24"/>
    <rect x="370" y="263" id="responsible_department_border" width="40" height="12"/>
    <rect x="310" y="251" id="approval_person_border" width="60" height="12"/>
    <rect x="310" y="239" id="creator_border" width="60" height="12"/>
    <rect x="230" y="263" id="document_type_border" width="80" height="12"/>
    <rect x="230" y="275" id="document_status_border" width="80" height="12"/>
   </g>
   <g style="font-size:3.5px;font-family:osifont;text-anchor:start;fill:#000000;stroke:none" id="title_block_labels">
    <text x="370.5" y="242.6" id="legal_owner_label">Owner:</text>
    <text x="310.5" y="266.6" id="identification_number_label">Drawing number:</text>
    <text x="370.5" y="278.6" id="revision_index_label">Revision:</text>
    <text x="330.5" y="278.6" id="date_of_issue_label">Issue date:</text>
    <text x="390.5" y="278.6" id="sheet_number_label">Sheet:</text>
    <text x="310.5" y="278.6" id="language_code_label">Language:</text>
    <text x="230.5" y="242.6" id="title_label">Title, supplementary title:</text>
    <text x="370.5" y="266.6" id="responsible_department_label">Responsible department:</text>
    <text x="310.5" y="254.6" id="approval_person_label">Approved by:</text>
    <text x="310.5" y="242.6" id="creator_label">Created by:</text>
    <text x="230.5" y="266.6" id="document_type label">Document type:</text>
    <text x="230.5" y="278.6" id="document_status_label">Document status:</text>
    <text x="350.5" y="230.6" id="sheet_scale_label">Scale:</text>
    <text x="310.5" y="230.6" id="general_tolerances_label">General tolerances:</text>
    <text x="230.5" y="230.6" id="part_material_label">Part Material:</text>
   </g>
   <g style="font-size:5px;font-family:osifont;text-anchor:start;fill:#000000;stroke:none" id="title_block_data_fields">
    <text style="font-size:3.5px;text-align:center;text-anchor:middle" x="390" y="248.1" id="legal_owner_1_data_field" freecad:editable="legal_owner_1" freecad:autofill="organization">
     <tspan xml:space="preserve"/>
    </text>
    <text style="font-size:3.5px;text-align:center;text-anchor:middle" x="390" y="252.1" id="legal_owner_2_data_field" freecad:editable="legal_owner_2">
     <tspan xml:space="preserve"/>
    </text>
    <text style="font-size:3.5px;text-align:center;text-anchor:middle" x="390" y="256.1" id="legal_owner_3_data_field" freecad:editable="legal_owner_3">
     <tspan xml:space="preserve"/>
    </text>
    <text style="font-size:3.5px;text-align:center;text-anchor:middle" x="390" y="260.1" id="legal_owner_4_data_field" freecad:editable="legal_owner_4">
     <tspan xml:space="preserve"/>
    </text>
    <text x="311" y="272.2" id="identification_number_data_field" freecad:editable="drawing_number">
     <tspan xml:space="preserve">DN</tspan>
    </text>
    <text style="text-align:center;text-anchor:middle" x="380" y="284.2" id="revision_index_data_field" freecad:editable="revision_index">
     <tspan xml:space="preserve">A</tspan>
    </text>
    <text x="331" y="284.2" id="date_of_issue_data_field" freecad:editable="date_of_issue" freecad:autofill="date">
     <tspan xml:space="preserve">13/02/2026</tspan>
    </text>
    <text style="text-align:center;text-anchor:middle" x="400" y="284.2" id="sheet_number_data_field" freecad:editable="sheet_number" freecad:autofill="sheet">
     <tspan xml:space="preserve">2 / 2</tspan>
    </text>
    <text style="text-align:center;text-anchor:middle" x="320" y="284.2" id="language_data_field" freecad:editable="language_code">
     <tspan xml:space="preserve">EN</tspan>
    </text>
    <text x="231" y="248.2" id="title_data_field" freecad:editable="title" freecad:autofill="title">
     <tspan xml:space="preserve">OCT-UFPNL-CB</tspan>
    </text>
    <text x="231" y="254.2" id="supplementary_title_1_data_field" freecad:editable="supplementary_title_1">
     <tspan xml:space="preserve">Upper Panel, Handle</tspan>
    </text>
    <text x="231" y="260.2" id="supplementary_title_2_data_field" freecad:editable="supplementary_title_2">
     <tspan xml:space="preserve"/>
    </text>
    <text x="371" y="272.2" id="responsible_department_data_field" freecad:editable="responsible_department">
     <tspan xml:space="preserve">RD</tspan>
    </text>
    <text x="311" y="260.2" id="approval_person_data_field" freecad:editable="approval_person">
     <tspan xml:space="preserve">S. Aphelion</tspan>
    </text>
    <text x="311" y="248.2" id="creator_data_field" freecad:editable="creator" freecad:autofill="author">
     <tspan xml:space="preserve">Michael Stoll</tspan>
    </text>
    <text x="231" y="272.2" id="document_type_data_field" freecad:editable="document_type">
     <tspan xml:space="preserve">Component Drawing</tspan>
    </text>
    <text x="231" y="284.2" id="document_status_data_field" freecad:editable="document_status">
     <tspan xml:space="preserve">In preparation</tspan>
    </text>
    <text style="text-align:center;text-anchor:middle" x="360" y="236.2" id="sheet_scale_data_field" freecad:editable="scale" freecad:autofill="scale">
     <tspan xml:space="preserve">1 : 1.25</tspan>
    </text>
    <text x="311" y="236.2" id="general_tolerances_data_field" freecad:editable="general_tolerances">
     <tspan xml:space="preserve">ISO 2768-m</tspan>
    </text>
    <text x="231" y="236.2" id="part_material_data_field" freecad:editable="part_material">
     <tspan xml:space="preserve">Mild Steel, S275</tspan>
    </text>
   </g>
   <g style="fill:none;stroke:#000000;stroke-width:0.5;stroke-linecap:round;stroke-linejoin:round" id="extras_outlines">
    <path id="first_angle_trapezoid" d="m 389,222 -10,2.5 v 5 l 10,2.5 z"/>
    <circle cx="396" cy="227" r="2.5" id="first_angle_inner circle"/>
    <circle cx="396" cy="227" r="5" id="first_angle_outer circle"/>
   </g>
   <g style="fill:none;stroke:#000000;stroke-width:0.25;stroke-linecap:round;stroke-linejoin:round;stroke-dasharray:6, 0.75, 0.125, 0.75" id="extras_centre_lines">
    <path style="stroke-dashoffset:0.25" id="first_angle_horizontal" d="m 378,227 h 24"/>
    <path style="stroke-dashoffset:4.625" id="first_angle_vertical" d="m 396,233 v -12"/>
   </g>
  </g>
  <g stroke-linecap="square" stroke="black" fill-rule="evenodd" id="DrawingContent" stroke-width="1" stroke-linejoin="bevel" fill="none">
   <g font-size="29.1042" stroke="none" fill-opacity="0" font-family="MS Shell Dlg 2" transform="matrix(1,0,0,1,1153.05,1453.57)" font-style="normal" fill="#f1f3f5" font-weight="400">
    <path fill-rule="evenodd" vector-effect="non-scaling-stroke" d="M-667.192,964 L667.192,964 L699.192,932 L699.192,-932 L667.192,-964 L-667.192,-964 L-699.192,-932 L-699.192,932 L-667.192,964"/>
   </g>
   <g font-size="29.1042" stroke="none" fill-opacity="0" font-family="MS Shell Dlg 2" transform="matrix(1,0,0,1,1153.05,1453.57)" font-style="normal" fill="#f1f3f5" font-weight="400">
    <path fill-rule="evenodd" vector-effect="non-scaling-stroke" d="M350.8,-288 C350.8,-276.733 341.667,-267.6 330.4,-267.6 C319.133,-267.6 310,-276.733 310,-288 C310,-299.267 319.133,-308.4 330.4,-308.4 C341.667,-308.4 350.8,-299.267 350.8,-288 "/>
   </g>
   <g font-size="29.1042" stroke="none" fill-opacity="0" font-family="MS Shell Dlg 2" transform="matrix(1,0,0,1,1153.05,1453.57)" font-style="normal" fill="#f1f3f5" font-weight="400">
    <path fill-rule="evenodd" vector-effect="non-scaling-stroke" d="M-208,4 C-208,15.2666 -217.133,24.4 -228.4,24.4 C-239.667,24.4 -248.8,15.2666 -248.8,4 C-248.8,-7.26661 -239.667,-16.4 -228.4,-16.4 C-217.133,-16.4 -208,-7.26661 -208,4 "/>
   </g>
   <g font-size="29.1042" stroke="none" fill-opacity="0" font-family="MS Shell Dlg 2" transform="matrix(1,0,0,1,1153.05,1453.57)" font-style="normal" fill="#f1f3f5" font-weight="400">
    <path fill-rule="evenodd" vector-effect="non-scaling-stroke" d="M248.8,4 C248.8,15.2666 239.667,24.4 228.4,24.4 C217.133,24.4 208,15.2666 208,4 C208,-7.26661 217.133,-16.4 228.4,-16.4 C239.667,-16.4 248.8,-7.26661 248.8,4 "/>
   </g>
   <g font-size="29.1042" stroke="none" fill-opacity="0" font-family="MS Shell Dlg 2" transform="matrix(1,0,0,1,1153.05,1453.57)" font-style="normal" fill="#f1f3f5" font-weight="400">
    <path fill-rule="evenodd" vector-effect="non-scaling-stroke" d="M-310,-288 C-310,-276.733 -319.133,-267.6 -330.4,-267.6 C-341.667,-267.6 -350.8,-276.733 -350.8,-288 C-350.8,-299.267 -341.667,-308.4 -330.4,-308.4 C-319.133,-308.4 -310,-299.267 -310,-288 "/>
   </g>
   <g font-size="29.1042" stroke="none" fill-opacity="0" font-family="MS Shell Dlg 2" transform="matrix(1,0,0,1,1153.05,1453.57)" font-style="normal" fill="#f1f3f5" font-weight="400">
    <path fill-rule="evenodd" vector-effect="non-scaling-stroke" d="M-583.2,-884 C-583.2,-874.722 -590.722,-867.2 -600,-867.2 C-609.278,-867.2 -616.8,-874.722 -616.8,-884 C-616.8,-893.278 -609.278,-900.8 -600,-900.8 C-590.722,-900.8 -583.2,-893.278 -583.2,-884 "/>
   </g>
   <g font-size="29.1042" stroke="none" fill-opacity="0" font-family="MS Shell Dlg 2" transform="matrix(1,0,0,1,1153.05,1453.57)" font-style="normal" fill="#f1f3f5" font-weight="400">
    <path fill-rule="evenodd" vector-effect="non-scaling-stroke" d="M-583.2,884 C-583.2,893.278 -590.722,900.8 -600,900.8 C-609.278,900.8 -616.8,893.278 -616.8,884 C-616.8,874.722 -609.278,867.2 -600,867.2 C-590.722,867.2 -583.2,874.722 -583.2,884 "/>
   </g>
   <g font-size="29.1042" stroke="none" fill-opacity="0" font-family="MS Shell Dlg 2" transform="matrix(1,0,0,1,1153.05,1453.57)" font-style="normal" fill="#f1f3f5" font-weight="400">
    <path fill-rule="evenodd" vector-effect="non-scaling-stroke" d="M616.8,884 C616.8,893.278 609.278,900.8 600,900.8 C590.722,900.8 583.2,893.278 583.2,884 C583.2,874.722 590.722,867.2 600,867.2 C609.278,867.2 616.8,874.722 616.8,884 "/>
   </g>
   <g font-size="29.1042" stroke="none" fill-opacity="0" font-family="MS Shell Dlg 2" transform="matrix(1,0,0,1,1153.05,1453.57)" font-style="normal" fill="#f1f3f5" font-weight="400">
    <path fill-rule="evenodd" vector-effect="non-scaling-stroke" d="M616.8,-884 C616.8,-874.722 609.278,-867.2 600,-867.2 C590.722,-867.2 583.2,-874.722 583.2,-884 C583.2,-893.278 590.722,-900.8 600,-900.8 C609.278,-900.8 616.8,-893.278 616.8,-884 "/>
   </g>
   <g stroke-linecap="round" font-size="29.1042" stroke="#000000" stroke-opacity="1" font-family="MS Shell Dlg 2" transform="matrix(1,0,0,1,1153.05,1453.57)" stroke-width="7" font-style="normal" stroke-linejoin="bevel" fill="none" font-weight="400">
    <path fill-rule="evenodd" vector-effect="none" d="M-667.192,964 L667.192,964"/>
   </g>
   <g stroke-linecap="round" font-size="29.1042" stroke="#000000" stroke-opacity="1" font-family="MS Shell Dlg 2" transform="matrix(1,0,0,1,1153.05,1453.57)" stroke-width="7" font-style="normal" stroke-linejoin="bevel" fill="none" font-weight="400">
    <path fill-rule="evenodd" vector-effect="none" d="M-667.192,964 L-699.192,932"/>
   </g>
   <g stroke-linecap="round" font-size="29.1042" stroke="#000000" stroke-opacity="1" font-family="MS Shell Dlg 2" transform="matrix(1,0,0,1,1153.05,1453.57)" stroke-width="7" font-style="normal" stroke-linejoin="bevel" fill="none" font-weight="400">
    <path fill-rule="evenodd" vector-effect="none" d="M667.192,964 L699.192,932"/>
   </g>
   <g stroke-linecap="round" font-size="29.1042" stroke="#000000" stroke-opacity="1" font-family="MS Shell Dlg 2" transform="matrix(1,0,0,1,1153.05,1453.57)" stroke-width="7" font-style="normal" stroke-linejoin="bevel" fill="none" font-weight="400">
    <path fill-rule="evenodd" vector-effect="none" d="M-699.192,-932 L-699.192,932"/>
   </g>
   <g stroke-linecap="round" font-size="29.1042" stroke="#000000" stroke-opacity="1" font-family="MS Shell Dlg 2" transform="matrix(1,0,0,1,1153.05,1453.57)" stroke-width="7" font-style="normal" stroke-linejoin="bevel" fill="none" font-weight="400">
    <path fill-rule="evenodd" vector-effect="none" d="M699.192,932 L699.192,-932"/>
   </g>
   <g stroke-linecap="round" font-size="29.1042" stroke="#000000" stroke-opacity="1" font-family="MS Shell Dlg 2" transform="matrix(1,0,0,1,1153.05,1453.57)" stroke-width="7" font-style="normal" stroke-linejoin="bevel" fill="none" font-weight="400">
    <path fill-rule="evenodd" vector-effect="none" d="M-699.192,-932 L-667.192,-964"/>
   </g>
   <g stroke-linecap="round" font-size="29.1042" stroke="#000000" stroke-opacity="1" font-family="MS Shell Dlg 2" transform="matrix(1,0,0,1,1153.05,1453.57)" stroke-width="7" font-style="normal" stroke-linejoin="bevel" fill="none" font-weight="400">
    <path fill-rule="evenodd" vector-effect="none" d="M699.192,-932 L667.192,-964"/>
   </g>
   <g stroke-linecap="round" font-size="29.1042" stroke="#000000" stroke-opacity="1" font-family="MS Shell Dlg 2" transform="matrix(1,0,0,1,1153.05,1453.57)" stroke-width="7" font-style="normal" stroke-linejoin="bevel" fill="none" font-weight="400">
    <path fill-rule="evenodd" vector-effect="none" d="M667.192,-964 L-667.192,-964"/>
   </g>
   <g stroke-linecap="round" font-size="29.1042" stroke="#000000" stroke-opacity="1" font-family="MS Shell Dlg 2" transform="matrix(1,0,0,1,1153.05,1453.57)" stroke-width="7" font-style="normal" stroke-linejoin="bevel" fill="none" font-weight="400">
    <path fill-rule="evenodd" vector-effect="none" d="M-583.2,884 C-583.2,893.278 -590.722,900.8 -600,900.8 C-609.278,900.8 -616.8,893.278 -616.8,884 C-616.8,874.722 -609.278,867.2 -600,867.2 C-590.722,867.2 -583.2,874.722 -583.2,884 "/>
   </g>
   <g stroke-linecap="round" font-size="29.1042" stroke="#000000" stroke-opacity="1" font-family="MS Shell Dlg 2" transform="matrix(1,0,0,1,1153.05,1453.57)" stroke-width="7" font-style="normal" stroke-linejoin="bevel" fill="none" font-weight="400">
    <path fill-rule="evenodd" vector-effect="none" d="M-208,4 C-208,15.2666 -217.133,24.4 -228.4,24.4 C-239.667,24.4 -248.8,15.2666 -248.8,4 C-248.8,-7.26661 -239.667,-16.4 -228.4,-16.4 C-217.133,-16.4 -208,-7.26661 -208,4 "/>
   </g>
   <g stroke-linecap="round" font-size="29.1042" stroke="#000000" stroke-opacity="1" font-family="MS Shell Dlg 2" transform="matrix(1,0,0,1,1153.05,1453.57)" stroke-width="7" font-style="normal" stroke-linejoin="bevel" fill="none" font-weight="400">
    <path fill-rule="evenodd" vector-effect="none" d="M-310,-288 C-310,-276.733 -319.133,-267.6 -330.4,-267.6 C-341.667,-267.6 -350.8,-276.733 -350.8,-288 C-350.8,-299.267 -341.667,-308.4 -330.4,-308.4 C-319.133,-308.4 -310,-299.267 -310,-288 "/>
   </g>
   <g stroke-linecap="round" font-size="29.1042" stroke="#000000" stroke-opacity="1" font-family="MS Shell Dlg 2" transform="matrix(1,0,0,1,1153.05,1453.57)" stroke-width="7" font-style="normal" stroke-linejoin="bevel" fill="none" font-weight="400">
    <path fill-rule="evenodd" vector-effect="none" d="M-583.2,-884 C-583.2,-874.722 -590.722,-867.2 -600,-867.2 C-609.278,-867.2 -616.8,-874.722 -616.8,-884 C-616.8,-893.278 -609.278,-900.8 -600,-900.8 C-590.722,-900.8 -583.2,-893.278 -583.2,-884 "/>
   </g>
   <g stroke-linecap="round" font-size="29.1042" stroke="#000000" stroke-opacity="1" font-family="MS Shell Dlg 2" transform="matrix(1,0,0,1,1153.05,1453.57)" stroke-width="7" font-style="normal" stroke-linejoin="bevel" fill="none" font-weight="400">
    <path fill-rule="evenodd" vector-effect="none" d="M248.8,4 C248.8,15.2666 239.667,24.4 228.4,24.4 C217.133,24.4 208,15.2666 208,4 C208,-7.26661 217.133,-16.4 228.4,-16.4 C239.667,-16.4 248.8,-7.26661 248.8,4 "/>
   </g>
   <g stroke-linecap="round" font-size="29.1042" stroke="#000000" stroke-opacity="1" font-family="MS Shell Dlg 2" transform="matrix(1,0,0,1,1153.05,1453.57)" stroke-width="7" font-style="normal" stroke-linejoin="bevel" fill="none" font-weight="400">
    <path fill-rule="evenodd" vector-effect="none" d="M616.8,884 C616.8,893.278 609.278,900.8 600,900.8 C590.722,900.8 583.2,893.278 583.2,884 C583.2,874.722 590.722,867.2 600,867.2 C609.278,867.2 616.8,874.722 616.8,884 "/>
   </g>
   <g stroke-linecap="round" font-size="29.1042" stroke="#000000" stroke-opacity="1" font-family="MS Shell Dlg 2" transform="matrix(1,0,0,1,1153.05,1453.57)" stroke-width="7" font-style="normal" stroke-linejoin="bevel" fill="none" font-weight="400">
    <path fill-rule="evenodd" vector-effect="none" d="M350.8,-288 C350.8,-276.733 341.667,-267.6 330.4,-267.6 C319.133,-267.6 310,-276.733 310,-288 C310,-299.267 319.133,-308.4 330.4,-308.4 C341.667,-308.4 350.8,-299.267 350.8,-288 "/>
   </g>
   <g stroke-linecap="round" font-size="29.1042" stroke="#000000" stroke-opacity="1" font-family="MS Shell Dlg 2" transform="matrix(1,0,0,1,1153.05,1453.57)" stroke-width="7" font-style="normal" stroke-linejoin="bevel" fill="none" font-weight="400">
    <path fill-rule="evenodd" vector-effect="none" d="M616.8,-884 C616.8,-874.722 609.278,-867.2 600,-867.2 C590.722,-867.2 583.2,-874.722 583.2,-884 C583.2,-893.278 590.722,-900.8 600,-900.8 C609.278,-900.8 616.8,-893.278 616.8,-884 "/>
   </g>
   <g stroke-linecap="square" font-size="29.1042" stroke="#000000" stroke-opacity="1" font-family="MS Shell Dlg 2" transform="matrix(1,0,0,1,1075.43,2594.81)" stroke-width="1" font-style="normal" stroke-linejoin="bevel" fill="none" font-weight="400">
    <text font-size="67" x="4" y="92" stroke="none" fill-opacity="1" font-family="osifont" font-style="normal" fill="#000000" font-weight="400" xml:space="preserve">174.8</text>
   </g>
   <g stroke-linecap="round" font-size="29.1042" stroke="#000000" stroke-opacity="1" font-family="MS Shell Dlg 2" transform="matrix(1,0,0,1,1153.05,1453.57)" stroke-width="3.5" font-style="normal" stroke-linejoin="bevel" fill="none" font-weight="400">
    <path fill-rule="evenodd" vector-effect="none" d="M-699.192,1267.25 L699.192,1267.25 M699.192,932 L699.192,1295.25 M-699.192,932 L-699.192,1295.25"/>
   </g>
   <g stroke-linecap="round" font-size="29.1042" stroke="#000000" stroke-opacity="1" fill-opacity="1" font-family="MS Shell Dlg 2" transform="matrix(1,0,0,1,1852.25,2720.81)" stroke-width="3.5" font-style="normal" stroke-linejoin="bevel" fill="#000000" font-weight="400">
    <path fill-rule="evenodd" vector-effect="none" d="M0,0 L-35,-5.83333 L-35,5.83333 L0,0"/>
   </g>
   <g stroke-linecap="round" font-size="29.1042" stroke="#000000" stroke-opacity="1" fill-opacity="1" font-family="MS Shell Dlg 2" transform="matrix(1,0,0,1,453.862,2720.81)" stroke-width="3.5" font-style="normal" stroke-linejoin="bevel" fill="#000000" font-weight="400">
    <path fill-rule="evenodd" vector-effect="none" d="M0,0 L35,5.83333 L35,-5.83333 L0,0"/>
   </g>
   <g stroke-linecap="square" font-size="29.1042" stroke="#000000" stroke-opacity="1" font-family="MS Shell Dlg 2" transform="matrix(1,0,0,1,1078.18,2488.01)" stroke-width="1" font-style="normal" stroke-linejoin="bevel" fill="none" font-weight="400">
    <text font-size="67" x="4" y="92" stroke="none" fill-opacity="1" font-family="osifont" font-style="normal" fill="#000000" font-weight="400" xml:space="preserve">150.0</text>
   </g>
   <g stroke-linecap="round" font-size="29.1042" stroke="#000000" stroke-opacity="1" font-family="MS Shell Dlg 2" transform="matrix(1,0,0,1,1153.05,1453.57)" stroke-width="3.5" font-style="normal" stroke-linejoin="bevel" fill="none" font-weight="400">
    <path fill-rule="evenodd" vector-effect="none" d="M-600,1160.44 L600,1160.44 M600,884 L600,1188.44 M-600,884 L-600,1188.44"/>
   </g>
   <g stroke-linecap="round" font-size="29.1042" stroke="#000000" stroke-opacity="1" fill-opacity="1" font-family="MS Shell Dlg 2" transform="matrix(1,0,0,1,1753.05,2614.01)" stroke-width="3.5" font-style="normal" stroke-linejoin="bevel" fill="#000000" font-weight="400">
    <path fill-rule="evenodd" vector-effect="none" d="M0,0 L-35,-5.83333 L-35,5.83333 L0,0"/>
   </g>
   <g stroke-linecap="round" font-size="29.1042" stroke="#000000" stroke-opacity="1" fill-opacity="1" font-family="MS Shell Dlg 2" transform="matrix(1,0,0,1,553.055,2614.01)" stroke-width="3.5" font-style="normal" stroke-linejoin="bevel" fill="#000000" font-weight="400">
    <path fill-rule="evenodd" vector-effect="none" d="M0,0 L35,5.83333 L35,-5.83333 L0,0"/>
   </g>
   <g stroke-linecap="square" font-size="29.1042" stroke="#000000" stroke-opacity="1" font-family="MS Shell Dlg 2" transform="matrix(1,0,0,1,443.334,2488.05)" stroke-width="1" font-style="normal" stroke-linejoin="bevel" fill="none" font-weight="400">
    <text font-size="67" x="4" y="92" stroke="none" fill-opacity="1" font-family="osifont" font-style="normal" fill="#000000" font-weight="400" xml:space="preserve">12.4</text>
   </g>
   <g stroke-linecap="round" font-size="29.1042" stroke="#000000" stroke-opacity="1" font-family="MS Shell Dlg 2" transform="matrix(1,0,0,1,1153.05,1453.57)" stroke-width="3.5" font-style="normal" stroke-linejoin="bevel" fill="none" font-weight="400">
    <path fill-rule="evenodd" vector-effect="none" d="M-769.192,1160.49 L-530,1160.49 M-600,884 L-600,1188.49 M-699.192,932 L-699.192,1188.49"/>
   </g>
   <g stroke-linecap="round" font-size="29.1042" stroke="#000000" stroke-opacity="1" fill-opacity="1" font-family="MS Shell Dlg 2" transform="matrix(1,0,0,1,553.055,2614.05)" stroke-width="3.5" font-style="normal" stroke-linejoin="bevel" fill="#000000" font-weight="400">
    <path fill-rule="evenodd" vector-effect="none" d="M0,0 L35,5.83333 L35,-5.83333 L0,0"/>
   </g>
   <g stroke-linecap="round" font-size="29.1042" stroke="#000000" stroke-opacity="1" fill-opacity="1" font-family="MS Shell Dlg 2" transform="matrix(1,0,0,1,453.862,2614.05)" stroke-width="3.5" font-style="normal" stroke-linejoin="bevel" fill="#000000" font-weight="400">
    <path fill-rule="evenodd" vector-effect="none" d="M0,0 L-35,-5.83333 L-35,5.83333 L0,0"/>
   </g>
   <g stroke-linecap="square" font-size="29.1042" stroke="#000000" stroke-opacity="1" font-family="MS Shell Dlg 2" transform="matrix(0,-1,1,0,240.778,2435.94)" stroke-width="1" font-style="normal" stroke-linejoin="bevel" fill="none" font-weight="400">
    <text font-size="67" x="4" y="92" stroke="none" fill-opacity="1" font-family="osifont" font-style="normal" fill="#000000" font-weight="400" xml:space="preserve">10.0</text>
   </g>
   <g stroke-linecap="round" font-size="29.1042" stroke="#000000" stroke-opacity="1" font-family="MS Shell Dlg 2" transform="matrix(1,0,0,1,1153.05,1453.57)" stroke-width="3.5" font-style="normal" stroke-linejoin="bevel" fill="none" font-weight="400">
    <path fill-rule="evenodd" vector-effect="none" d="M-786.277,1034 L-786.277,814 M-600,884 L-814.277,884 M-600,964 L-814.277,964"/>
   </g>
   <g stroke-linecap="round" font-size="29.1042" stroke="#000000" stroke-opacity="1" fill-opacity="1" font-family="MS Shell Dlg 2" transform="matrix(1,0,0,1,366.778,2337.57)" stroke-width="3.5" font-style="normal" stroke-linejoin="bevel" fill="#000000" font-weight="400">
    <path fill-rule="evenodd" vector-effect="none" d="M0,0 L5.83333,-35 L-5.83333,-35 L0,0"/>
   </g>
   <g stroke-linecap="round" font-size="29.1042" stroke="#000000" stroke-opacity="1" fill-opacity="1" font-family="MS Shell Dlg 2" transform="matrix(1,0,0,1,366.778,2417.57)" stroke-width="3.5" font-style="normal" stroke-linejoin="bevel" fill="#000000" font-weight="400">
    <path fill-rule="evenodd" vector-effect="none" d="M0,0 L-5.83333,35 L5.83333,35 L0,0"/>
   </g>
   <g stroke-linecap="square" font-size="29.1042" stroke="#000000" stroke-opacity="1" font-family="MS Shell Dlg 2" transform="matrix(0,-1,1,0,1951.41,2011.44)" stroke-width="1" font-style="normal" stroke-linejoin="bevel" fill="none" font-weight="400">
    <text font-size="67" x="4" y="92" stroke="none" fill-opacity="1" font-family="osifont" font-style="normal" fill="#000000" font-weight="400" xml:space="preserve">120.0</text>
   </g>
   <g stroke-linecap="round" font-size="29.1042" stroke="#000000" stroke-opacity="1" font-family="MS Shell Dlg 2" transform="matrix(1,0,0,1,1153.05,1453.57)" stroke-width="3.5" font-style="normal" stroke-linejoin="bevel" fill="none" font-weight="400">
    <path fill-rule="evenodd" vector-effect="none" d="M924.351,964 L924.351,4 M228.4,4 L952.351,4 M228.4,964 L952.351,964"/>
   </g>
   <g stroke-linecap="round" font-size="29.1042" stroke="#000000" stroke-opacity="1" fill-opacity="1" font-family="MS Shell Dlg 2" transform="matrix(1,0,0,1,2077.41,1457.57)" stroke-width="3.5" font-style="normal" stroke-linejoin="bevel" fill="#000000" font-weight="400">
    <path fill-rule="evenodd" vector-effect="none" d="M0,0 L-5.83333,35 L5.83333,35 L0,0"/>
   </g>
   <g stroke-linecap="round" font-size="29.1042" stroke="#000000" stroke-opacity="1" fill-opacity="1" font-family="MS Shell Dlg 2" transform="matrix(1,0,0,1,2077.41,2417.57)" stroke-width="3.5" font-style="normal" stroke-linejoin="bevel" fill="#000000" font-weight="400">
    <path fill-rule="evenodd" vector-effect="none" d="M0,0 L5.83333,-35 L-5.83333,-35 L0,0"/>
   </g>
   <g stroke-linecap="square" font-size="29.1042" stroke="#000000" stroke-opacity="1" font-family="MS Shell Dlg 2" transform="matrix(1.83759e-15,1,-1,1.83759e-15,395.172,584.961)" stroke-width="1" font-style="normal" stroke-linejoin="bevel" fill="none" font-weight="400">
    <text font-size="67" x="4" y="92" stroke="none" fill-opacity="1" font-family="osifont" font-style="normal" fill="#000000" font-weight="400" xml:space="preserve">10.0</text>
   </g>
   <g stroke-linecap="round" font-size="29.1042" stroke="#000000" stroke-opacity="1" font-family="MS Shell Dlg 2" transform="matrix(1,0,0,1,1153.05,1453.57)" stroke-width="3.5" font-style="normal" stroke-linejoin="bevel" fill="none" font-weight="400">
    <path fill-rule="evenodd" vector-effect="none" d="M-883.883,-1034 L-883.883,-748.355 M-600,-884 L-911.883,-884 M-600,-964 L-911.883,-964"/>
   </g>
   <g stroke-linecap="round" font-size="29.1042" stroke="#000000" stroke-opacity="1" fill-opacity="1" font-family="MS Shell Dlg 2" transform="matrix(1,0,0,1,269.172,569.566)" stroke-width="3.5" font-style="normal" stroke-linejoin="bevel" fill="#000000" font-weight="400">
    <path fill-rule="evenodd" vector-effect="none" d="M0,0 L-5.83333,35 L5.83333,35 L0,0"/>
   </g>
   <g stroke-linecap="round" font-size="29.1042" stroke="#000000" stroke-opacity="1" fill-opacity="1" font-family="MS Shell Dlg 2" transform="matrix(1,0,0,1,269.172,489.566)" stroke-width="3.5" font-style="normal" stroke-linejoin="bevel" fill="#000000" font-weight="400">
    <path fill-rule="evenodd" vector-effect="none" d="M0,0 L5.83333,-35 L-5.83333,-35 L0,0"/>
   </g>
   <g stroke-linecap="square" font-size="29.1042" stroke="#000000" stroke-opacity="1" font-family="MS Shell Dlg 2" transform="matrix(1,0,0,1,289.419,275.031)" stroke-width="1" font-style="normal" stroke-linejoin="bevel" fill="none" font-weight="400">
    <text font-size="67" x="4" y="92" stroke="none" fill-opacity="1" font-family="osifont" font-style="normal" fill="#000000" font-weight="400" xml:space="preserve">12.4</text>
   </g>
   <g stroke-linecap="round" font-size="29.1042" stroke="#000000" stroke-opacity="1" font-family="MS Shell Dlg 2" transform="matrix(1,0,0,1,1153.05,1453.57)" stroke-width="3.5" font-style="normal" stroke-linejoin="bevel" fill="none" font-weight="400">
    <path fill-rule="evenodd" vector-effect="none" d="M-867.136,-1052.53 L-530,-1052.53 M-600,-884 L-600,-1080.53 M-699.192,-884 L-699.192,-1080.53"/>
   </g>
   <g stroke-linecap="round" font-size="29.1042" stroke="#000000" stroke-opacity="1" fill-opacity="1" font-family="MS Shell Dlg 2" transform="matrix(1,0,0,1,553.055,401.031)" stroke-width="3.5" font-style="normal" stroke-linejoin="bevel" fill="#000000" font-weight="400">
    <path fill-rule="evenodd" vector-effect="none" d="M0,0 L35,5.83333 L35,-5.83333 L0,0"/>
   </g>
   <g stroke-linecap="round" font-size="29.1042" stroke="#000000" stroke-opacity="1" fill-opacity="1" font-family="MS Shell Dlg 2" transform="matrix(1,0,0,1,453.862,401.031)" stroke-width="3.5" font-style="normal" stroke-linejoin="bevel" fill="#000000" font-weight="400">
    <path fill-rule="evenodd" vector-effect="none" d="M0,0 L-35,-5.83333 L-35,5.83333 L0,0"/>
   </g>
   <g stroke-linecap="square" font-size="29.1042" stroke="#000000" stroke-opacity="1" font-family="MS Shell Dlg 2" transform="matrix(1,0,0,1,1885.04,275.078)" stroke-width="1" font-style="normal" stroke-linejoin="bevel" fill="none" font-weight="400">
    <text font-size="67" x="4" y="92" stroke="none" fill-opacity="1" font-family="osifont" font-style="normal" fill="#000000" font-weight="400" xml:space="preserve">4.0 x45°</text>
   </g>
   <g stroke-linecap="round" font-size="29.1042" stroke="#000000" stroke-opacity="1" font-family="MS Shell Dlg 2" transform="matrix(1,0,0,1,1153.05,1453.57)" stroke-width="3.5" font-style="normal" stroke-linejoin="bevel" fill="none" font-weight="400">
    <path fill-rule="evenodd" vector-effect="none" d="M597.192,-1052.49 L984.98,-1052.49 M699.192,-932 L699.192,-1080.49 M667.192,-964 L667.192,-1080.49"/>
   </g>
   <g stroke-linecap="round" font-size="29.1042" stroke="#000000" stroke-opacity="1" fill-opacity="1" font-family="MS Shell Dlg 2" transform="matrix(1,0,0,1,1852.25,401.078)" stroke-width="3.5" font-style="normal" stroke-linejoin="bevel" fill="#000000" font-weight="400">
    <path fill-rule="evenodd" vector-effect="none" d="M0,0 L35,5.83333 L35,-5.83333 L0,0"/>
   </g>
   <g stroke-linecap="round" font-size="29.1042" stroke="#000000" stroke-opacity="1" fill-opacity="1" font-family="MS Shell Dlg 2" transform="matrix(1,0,0,1,1820.25,401.078)" stroke-width="3.5" font-style="normal" stroke-linejoin="bevel" fill="#000000" font-weight="400">
    <path fill-rule="evenodd" vector-effect="none" d="M0,0 L-35,-5.83333 L-35,5.83333 L0,0"/>
   </g>
   <g stroke-linecap="square" font-size="29.1042" stroke="#000000" stroke-opacity="1" font-family="MS Shell Dlg 2" transform="matrix(0,-1,1,0,1951.45,1376.19)" stroke-width="1" font-style="normal" stroke-linejoin="bevel" fill="none" font-weight="400">
    <text font-size="67" x="4" y="92" stroke="none" fill-opacity="1" font-family="osifont" font-style="normal" fill="#000000" font-weight="400" xml:space="preserve">36.5</text>
   </g>
   <g stroke-linecap="round" font-size="29.1042" stroke="#000000" stroke-opacity="1" font-family="MS Shell Dlg 2" transform="matrix(1,0,0,1,1153.05,1453.57)" stroke-width="3.5" font-style="normal" stroke-linejoin="bevel" fill="none" font-weight="400">
    <path fill-rule="evenodd" vector-effect="none" d="M924.398,4 L924.398,-288 M330.4,-288 L952.398,-288 M228.4,4 L952.398,4"/>
   </g>
   <g stroke-linecap="round" font-size="29.1042" stroke="#000000" stroke-opacity="1" fill-opacity="1" font-family="MS Shell Dlg 2" transform="matrix(1,0,0,1,2077.45,1165.57)" stroke-width="3.5" font-style="normal" stroke-linejoin="bevel" fill="#000000" font-weight="400">
    <path fill-rule="evenodd" vector-effect="none" d="M0,0 L-5.83333,35 L5.83333,35 L0,0"/>
   </g>
   <g stroke-linecap="round" font-size="29.1042" stroke="#000000" stroke-opacity="1" fill-opacity="1" font-family="MS Shell Dlg 2" transform="matrix(1,0,0,1,2077.45,1457.57)" stroke-width="3.5" font-style="normal" stroke-linejoin="bevel" fill="#000000" font-weight="400">
    <path fill-rule="evenodd" vector-effect="none" d="M0,0 L5.83333,-35 L-5.83333,-35 L0,0"/>
   </g>
   <g stroke-linecap="square" font-size="29.1042" stroke="#000000" stroke-opacity="1" font-family="MS Shell Dlg 2" transform="matrix(1,0,0,1,578.009,105.879)" stroke-width="1" font-style="normal" stroke-linejoin="bevel" fill="none" font-weight="400">
    <text font-size="67" x="4" y="92" stroke="none" fill-opacity="1" font-family="osifont" font-style="normal" fill="#000000" font-weight="400" xml:space="preserve">46.1</text>
   </g>
   <g stroke-linecap="round" font-size="29.1042" stroke="#000000" stroke-opacity="1" font-family="MS Shell Dlg 2" transform="matrix(1,0,0,1,1153.05,1453.57)" stroke-width="3.5" font-style="normal" stroke-linejoin="bevel" fill="none" font-weight="400">
    <path fill-rule="evenodd" vector-effect="none" d="M-699.192,-1221.69 L-330.4,-1221.69 M-330.4,-288 L-330.4,-1249.69 M-699.192,-288 L-699.192,-1249.69"/>
   </g>
   <g stroke-linecap="round" font-size="29.1042" stroke="#000000" stroke-opacity="1" fill-opacity="1" font-family="MS Shell Dlg 2" transform="matrix(1,0,0,1,822.655,231.879)" stroke-width="3.5" font-style="normal" stroke-linejoin="bevel" fill="#000000" font-weight="400">
    <path fill-rule="evenodd" vector-effect="none" d="M0,0 L-35,-5.83333 L-35,5.83333 L0,0"/>
   </g>
   <g stroke-linecap="round" font-size="29.1042" stroke="#000000" stroke-opacity="1" fill-opacity="1" font-family="MS Shell Dlg 2" transform="matrix(1,0,0,1,453.862,231.879)" stroke-width="3.5" font-style="normal" stroke-linejoin="bevel" fill="#000000" font-weight="400">
    <path fill-rule="evenodd" vector-effect="none" d="M0,0 L35,5.83333 L35,-5.83333 L0,0"/>
   </g>
   <g stroke-linecap="square" font-size="29.1042" stroke="#000000" stroke-opacity="1" font-family="MS Shell Dlg 2" transform="matrix(1,0,0,1,1088.18,105.879)" stroke-width="1" font-style="normal" stroke-linejoin="bevel" fill="none" font-weight="400">
    <text font-size="67" x="4" y="92" stroke="none" fill-opacity="1" font-family="osifont" font-style="normal" fill="#000000" font-weight="400" xml:space="preserve">82.6</text>
   </g>
   <g stroke-linecap="round" font-size="29.1042" stroke="#000000" stroke-opacity="1" font-family="MS Shell Dlg 2" transform="matrix(1,0,0,1,1153.05,1453.57)" stroke-width="3.5" font-style="normal" stroke-linejoin="bevel" fill="none" font-weight="400">
    <path fill-rule="evenodd" vector-effect="none" d="M-330.4,-1221.69 L330.4,-1221.69 M330.4,-288 L330.4,-1249.69 M-330.4,-288 L-330.4,-1249.69"/>
   </g>
   <g stroke-linecap="round" font-size="29.1042" stroke="#000000" stroke-opacity="1" fill-opacity="1" font-family="MS Shell Dlg 2" transform="matrix(1,0,0,1,1483.45,231.879)" stroke-width="3.5" font-style="normal" stroke-linejoin="bevel" fill="#000000" font-weight="400">
    <path fill-rule="evenodd" vector-effect="none" d="M0,0 L-35,-5.83333 L-35,5.83333 L0,0"/>
   </g>
   <g stroke-linecap="round" font-size="29.1042" stroke="#000000" stroke-opacity="1" fill-opacity="1" font-family="MS Shell Dlg 2" transform="matrix(1,0,0,1,822.655,231.879)" stroke-width="3.5" font-style="normal" stroke-linejoin="bevel" fill="#000000" font-weight="400">
    <path fill-rule="evenodd" vector-effect="none" d="M0,0 L35,5.83333 L35,-5.83333 L0,0"/>
   </g>
   <g stroke-linecap="square" font-size="29.1042" stroke="#000000" stroke-opacity="1" font-family="MS Shell Dlg 2" transform="matrix(1,0,0,1,1093.93,220.661)" stroke-width="1" font-style="normal" stroke-linejoin="bevel" fill="none" font-weight="400">
    <text font-size="67" x="4" y="92" stroke="none" fill-opacity="1" font-family="osifont" font-style="normal" fill="#000000" font-weight="400" xml:space="preserve">57.1</text>
   </g>
   <g stroke-linecap="round" font-size="29.1042" stroke="#000000" stroke-opacity="1" font-family="MS Shell Dlg 2" transform="matrix(1,0,0,1,1153.05,1453.57)" stroke-width="3.5" font-style="normal" stroke-linejoin="bevel" fill="none" font-weight="400">
    <path fill-rule="evenodd" vector-effect="none" d="M-228.4,-1106.91 L228.4,-1106.91 M228.4,4 L228.4,-1134.91 M-228.4,4 L-228.4,-1134.91"/>
   </g>
   <g stroke-linecap="round" font-size="29.1042" stroke="#000000" stroke-opacity="1" fill-opacity="1" font-family="MS Shell Dlg 2" transform="matrix(1,0,0,1,1381.45,346.661)" stroke-width="3.5" font-style="normal" stroke-linejoin="bevel" fill="#000000" font-weight="400">
    <path fill-rule="evenodd" vector-effect="none" d="M0,0 L-35,-5.83333 L-35,5.83333 L0,0"/>
   </g>
   <g stroke-linecap="round" font-size="29.1042" stroke="#000000" stroke-opacity="1" fill-opacity="1" font-family="MS Shell Dlg 2" transform="matrix(1,0,0,1,924.655,346.661)" stroke-width="3.5" font-style="normal" stroke-linejoin="bevel" fill="#000000" font-weight="400">
    <path fill-rule="evenodd" vector-effect="none" d="M0,0 L35,5.83333 L35,-5.83333 L0,0"/>
   </g>
   <g stroke-linecap="square" font-size="29.1042" stroke="#000000" stroke-opacity="1" font-family="MS Shell Dlg 2" transform="matrix(1,0,0,1,622.384,220.708)" stroke-width="1" font-style="normal" stroke-linejoin="bevel" fill="none" font-weight="400">
    <text font-size="67" x="4" y="92" stroke="none" fill-opacity="1" font-family="osifont" font-style="normal" fill="#000000" font-weight="400" xml:space="preserve">58.8</text>
   </g>
   <g stroke-linecap="round" font-size="29.1042" stroke="#000000" stroke-opacity="1" font-family="MS Shell Dlg 2" transform="matrix(1,0,0,1,1153.05,1453.57)" stroke-width="3.5" font-style="normal" stroke-linejoin="bevel" fill="none" font-weight="400">
    <path fill-rule="evenodd" vector-effect="none" d="M-699.192,-1106.86 L-228.4,-1106.86 M-228.4,4 L-228.4,-1134.86 M-699.192,4 L-699.192,-1134.86"/>
   </g>
   <g stroke-linecap="round" font-size="29.1042" stroke="#000000" stroke-opacity="1" fill-opacity="1" font-family="MS Shell Dlg 2" transform="matrix(1,0,0,1,924.655,346.708)" stroke-width="3.5" font-style="normal" stroke-linejoin="bevel" fill="#000000" font-weight="400">
    <path fill-rule="evenodd" vector-effect="none" d="M0,0 L-35,-5.83333 L-35,5.83333 L0,0"/>
   </g>
   <g stroke-linecap="round" font-size="29.1042" stroke="#000000" stroke-opacity="1" fill-opacity="1" font-family="MS Shell Dlg 2" transform="matrix(1,0,0,1,453.862,346.708)" stroke-width="3.5" font-style="normal" stroke-linejoin="bevel" fill="#000000" font-weight="400">
    <path fill-rule="evenodd" vector-effect="none" d="M0,0 L35,5.83333 L35,-5.83333 L0,0"/>
   </g>
   <g stroke-linecap="square" font-size="29.1042" stroke="#000000" stroke-opacity="1" font-family="MS Shell Dlg 2" transform="matrix(0.931751,-0.363099,0.363099,0.931751,2059.79,805.743)" stroke-width="1" font-style="normal" stroke-linejoin="bevel" fill="none" font-weight="400">
    <text font-size="67" x="4" y="92" stroke="none" fill-opacity="1" font-family="osifont" font-style="normal" fill="#000000" font-weight="400" xml:space="preserve">⌀5.1</text>
   </g>
   <g stroke-linecap="round" font-size="29.1042" stroke="#000000" stroke-opacity="1" font-family="MS Shell Dlg 2" transform="matrix(1,0,0,1,1153.05,1453.57)" stroke-width="3.5" font-style="normal" stroke-linejoin="bevel" fill="none" font-weight="400">
    <path fill-rule="evenodd" vector-effect="none" d="M246.17,-255.176 L1078.27,-579.44"/>
   </g>
   <g stroke-linecap="round" font-size="29.1042" stroke="#000000" stroke-opacity="1" fill-opacity="1" font-family="MS Shell Dlg 2" transform="matrix(1,0,0,1,1502.46,1158.16)" stroke-width="3.5" font-style="normal" stroke-linejoin="bevel" fill="#000000" font-weight="400">
    <path fill-rule="evenodd" vector-effect="none" d="M0,0 L34.7293,-7.27324 L30.4932,-18.1437 L0,0"/>
   </g>
   <g stroke-linecap="round" font-size="29.1042" stroke="#000000" stroke-opacity="1" fill-opacity="1" font-family="MS Shell Dlg 2" transform="matrix(1,0,0,1,1464.45,1172.97)" stroke-width="3.5" font-style="normal" stroke-linejoin="bevel" fill="#000000" font-weight="400">
    <path fill-rule="evenodd" vector-effect="none" d="M0,0 L-34.7293,7.27324 L-30.4932,18.1437 L0,0"/>
   </g>
   <g stroke-linecap="square" font-size="29.1042" stroke="#000000" stroke-opacity="1" font-family="MS Shell Dlg 2" transform="matrix(0.99996,-0.0089181,0.0089181,0.99996,2015.18,441.223)" stroke-width="1" font-style="normal" stroke-linejoin="bevel" fill="none" font-weight="400">
    <text font-size="67" x="4" y="92" stroke="none" fill-opacity="1" font-family="osifont" font-style="normal" fill="#000000" font-weight="400" xml:space="preserve">⌀4.2</text>
   </g>
   <g stroke-linecap="round" font-size="29.1042" stroke="#000000" stroke-opacity="1" font-family="MS Shell Dlg 2" transform="matrix(1,0,0,1,1153.05,1453.57)" stroke-width="3.5" font-style="normal" stroke-linejoin="bevel" fill="none" font-weight="400">
    <path fill-rule="evenodd" vector-effect="none" d="M513.203,-883.226 L1008.25,-887.641"/>
   </g>
   <g stroke-linecap="round" font-size="29.1042" stroke="#000000" stroke-opacity="1" fill-opacity="1" font-family="MS Shell Dlg 2" transform="matrix(1,0,0,1,1769.85,569.416)" stroke-width="3.5" font-style="normal" stroke-linejoin="bevel" fill="#000000" font-weight="400">
    <path fill-rule="evenodd" vector-effect="none" d="M0,0 L35.0506,5.52097 L34.9466,-6.14523 L0,0"/>
   </g>
   <g stroke-linecap="round" font-size="29.1042" stroke="#000000" stroke-opacity="1" fill-opacity="1" font-family="MS Shell Dlg 2" transform="matrix(1,0,0,1,1736.26,569.716)" stroke-width="3.5" font-style="normal" stroke-linejoin="bevel" fill="#000000" font-weight="400">
    <path fill-rule="evenodd" vector-effect="none" d="M0,0 L-35.0506,-5.52097 L-34.9466,6.14523 L0,0"/>
   </g>
  </g>
 </g>
</svg>
