<?xml version='1.0' encoding='UTF-8' standalone='no'?>
<svg baseProfile="tiny" viewBox="0 0 4200 2970" width="420mm" xmlns:cc="http://creativecommons.org/ns#" xmlns:xlink="http://www.w3.org/1999/xlink" xmlns:dc="http://purl.org/dc/elements/1.1/" xmlns:inkscape="http://www.inkscape.org/namespaces/inkscape" xmlns="http://www.w3.org/2000/svg" xmlns:sodipodi="http://sodipodi.sourceforge.net/DTD/sodipodi-0.dtd" xmlns:freecad="https://www.freecad.org/wiki/index.php?title=Svg_Namespace" xmlns:svg="http://www.w3.org/2000/svg" height="297mm" version="1.2" xmlns:rdf="http://www.w3.org/1999/02/22-rdf-syntax-ns#">
 <title>FreeCAD SVG Export</title>
 <desc>Drawing page: Page exported from FreeCAD document: OCT_URBLK_AB</desc>
 <defs/>
 <g inkscape:groupmode="layer" id="Page" inkscape:label="TechDraw">
  <g id="A3_Landscape_ISO5457_advanced.svg" style="stroke: none;" transform="scale(10.000000, 10.000000)">
   <title id="title">Drawing sheet ISO 5457 - A3T - Advanced</title>
   <metadata id="metadata">
    <rdf:RDF>
     <cc:Work rdf:about="">
      <cc:license rdf:resource="http://creativecommons.org/publicdomain/zero/1.0/"/>
      <dc:title>Drawing sheet ISO 5457 - A3T - Advanced</dc:title>
      <dc:creator>
       <cc:Agent>
        <dc:title>Benjamin May</dc:title>
       </cc:Agent>
      </dc:creator>
     </cc:Work>
     <cc:License rdf:about="http://creativecommons.org/publicdomain/zero/1.0/">
      <cc:permits rdf:resource="http://creativecommons.org/ns#Reproduction"/>
      <cc:permits rdf:resource="http://creativecommons.org/ns#Distribution"/>
      <cc:permits rdf:resource="http://creativecommons.org/ns#DerivativeWorks"/>
     </cc:License>
    </rdf:RDF>
   </metadata>
   <rect width="390" id="drawing_space_frame" style="fill:none;stroke:#000000;stroke-width:0.7;stroke-linecap:round;stroke-linejoin:round" y="10" x="20" height="277"/>
   <g id="centring_marks" style="fill:none;stroke:#000000;stroke-width:0.7;stroke-linecap:round">
    <path d="m 210,5 v 10" id="top_centering"/>
    <path d="m 415,148.5 h -10" id="right_centering"/>
    <path d="m 210,292 v -10" id="bottom_centering"/>
    <path d="m 15,148.5 h 10" id="left_centering"/>
   </g>
   <g id="grid_reference_system">
    <g id="grid_reference_borders" style="fill:none;stroke:#000000;stroke-width:0.35;stroke-linecap:round;stroke-linejoin:round">
     <rect width="400" id="grid_reference_border" y="5" x="15" height="287"/>
     <path d="m 60,5 v 5" id="upper_border_1"/>
     <path d="m 110,5 v 5" id="upper_border_2"/>
     <path d="m 160,5 v 5" id="upper_border_3"/>
     <path d="m 260,5 v 5" id="upper_border_5"/>
     <path d="m 310,5 v 5" id="upper_border_6"/>
     <path d="m 360,5 v 5" id="upper_border_7"/>
     <path d="m 415,48.5 h -5" id="right_border_1"/>
     <path d="m 415,98.5 h -5" id="right_border_2"/>
     <path d="m 415,198.5 h -5" id="right_border_4"/>
     <path d="m 415,248.5 h -5" id="right_border_5"/>
     <path d="m 60,292 v -5" id="lower_border_1"/>
     <path d="m 110,292 v -5" id="lower_border_2"/>
     <path d="m 160,292 v -5" id="lower_border_3"/>
     <path d="m 260,292 v -5" id="lower_border_5"/>
     <path d="m 310,292 v -5" id="lower_border_6"/>
     <path d="m 360,292 v -5" id="lower_border_7"/>
     <path d="m 15,48.5 h 5" id="left_border_1"/>
     <path d="m 15,98.5 h 5" id="left_border_2"/>
     <path d="m 15,198.5 h 5" id="left_border_4"/>
     <path d="m 15,248.5 h 5" id="left_border_5"/>
    </g>
    <g id="grid_reference_markers" style="font-size:3.5px;font-family:osifont;text-align:center;text-anchor:middle;fill:#000000;stroke:none">
     <text id="upper_marker_1" y="8.8" x="35">1</text>
     <text id="upper_marker_2" y="8.8" x="85">2</text>
     <text id="upper_marker_3" y="8.8" x="135">3</text>
     <text id="upper_marker_4" y="8.8" x="185">4</text>
     <text id="upper_marker_5" y="8.8" x="235">5</text>
     <text id="upper_marker_6" y="8.8" x="285">6</text>
     <text id="upper_marker_7" y="8.8" x="335">7</text>
     <text id="upper_marker_8" y="8.8" x="385">8</text>
     <text id="right_marker_1" y="24.8" x="412.5">A</text>
     <text id="right_marker_2" y="74.8" x="412.5">B</text>
     <text id="right_marker_3" y="124.8" x="412.5">C</text>
     <text id="right_marker_4" y="174.8" x="412.5">D</text>
     <text id="right_marker_5" y="224.8" x="412.5">E</text>
     <text id="right_marker_6" y="274.8" x="412.5">F</text>
     <text id="lower_marker_1" y="290.8" x="35">1</text>
     <text id="lower_marker_2" y="290.8" x="85">2</text>
     <text id="lower_marker_3" y="290.8" x="135">3</text>
     <text id="lower_marker_4" y="290.8" x="185">4</text>
     <text id="lower_marker_5" y="290.8" x="235">5</text>
     <text id="lower_marker_6" y="290.8" x="285">6</text>
     <text id="lower_marker_7" y="290.8" x="335">7</text>
     <text id="lower_marker_8" y="290.8" x="385">A3</text>
     <text id="left_marker_1" y="24.8" x="17.5">A</text>
     <text id="left_marker_2" y="74.8" x="17.5">B</text>
     <text id="left_marker_3" y="124.8" x="17.5">C</text>
     <text id="left_marker_4" y="174.8" x="17.5">D</text>
     <text id="left_marker_5" y="224.8" x="17.5">E</text>
     <text id="left_marker_6" y="274.8" x="17.5">F</text>
    </g>
   </g>
   <g id="trimming_marks" style="fill:#000000;stroke:none">>
    <path d="m 0,0 h 10 v 5 h -5 v 5 h -5 z" id="top_left_trimming"/>
    <path d="m 420,0 h -10 v 5 h 5 v 5 h 5 z" id="top_right_trimming"/>
    <path d="m 420,297 h -10 v -5 h 5 v -5 h 5 z" id="bottom_right_trimming"/>
    <path d="m 0,297 h 10 v -5 h -5 v -5 h -5 z" id="bottom_left_trimming"/>
   </g>
   <!-- Title block -->
   <g id="title_block_borders" style="fill:none;stroke:#000000;stroke-width:0.35;stroke-linecap:round;stroke-linejoin:round">
    <rect width="180" id="title_block_frame" style="stroke-width:0.7" y="239" x="230" height="48"/>
    <rect width="40" id="legal_owner_border" y="239" x="370" height="24"/>
    <rect width="60" id="identification_number_border" y="263" x="310" height="12"/>
    <rect width="20" id="revision_index_border" y="275" x="370" height="12"/>
    <rect width="40" id="date_of_issue_border" y="275" x="330" height="12"/>
    <rect width="20" id="sheet_number_border" y="275" x="390" height="12"/>
    <rect width="20" id="language_code_border" y="275" x="310" height="12"/>
    <rect width="80" id="title_border" y="239" x="230" height="24"/>
    <rect width="40" id="responsible_department_border" y="263" x="370" height="12"/>
    <rect width="60" id="approval_person_border" y="251" x="310" height="12"/>
    <rect width="60" id="creator_border" y="239" x="310" height="12"/>
    <rect width="80" id="document_type_border" y="263" x="230" height="12"/>
    <rect width="80" id="document_status_border" y="275" x="230" height="12"/>
   </g>
   <g id="title_block_labels" style="font-size:3.5px;font-family:osifont;text-anchor:start;fill:#000000;stroke:none">
    <text id="legal_owner_label" y="242.6" x="370.5">Owner:</text>
    <text id="identification_number_label" y="266.6" x="310.5">Drawing number:</text>
    <text id="revision_index_label" y="278.6" x="370.5">Revision:</text>
    <text id="date_of_issue_label" y="278.6" x="330.5">Issue date:</text>
    <text id="sheet_number_label" y="278.6" x="390.5">Sheet:</text>
    <text id="language_code_label" y="278.6" x="310.5">Language:</text>
    <text id="title_label" y="242.6" x="230.5">Title, supplementary title:</text>
    <text id="responsible_department_label" y="266.6" x="370.5">Responsible department:</text>
    <text id="approval_person_label" y="254.6" x="310.5">Approved by:</text>
    <text id="creator_label" y="242.6" x="310.5">Created by:</text>
    <text id="document_type label" y="266.6" x="230.5">Document type:</text>
    <text id="document_status_label" y="278.6" x="230.5">Document status:</text>
    <text id="sheet_scale_label" y="230.6" x="350.5">Scale:</text>
    <text id="general_tolerances_label" y="230.6" x="310.5">General tolerances:</text>
    <text id="part_material_label" y="230.6" x="230.5">Part Material:</text>
   </g>
   <g id="title_block_data_fields" style="font-size:5px;font-family:osifont;text-anchor:start;fill:#000000;stroke:none">
    <text freecad:editable="legal_owner_1" id="legal_owner_1_data_field" style="font-size:3.5px;text-align:center;text-anchor:middle" y="248.1" freecad:autofill="organization" x="390">
     <tspan xml:space="preserve"/>
    </text>
    <text freecad:editable="legal_owner_2" id="legal_owner_2_data_field" style="font-size:3.5px;text-align:center;text-anchor:middle" y="252.1" x="390">
     <tspan xml:space="preserve"/>
    </text>
    <text freecad:editable="legal_owner_3" id="legal_owner_3_data_field" style="font-size:3.5px;text-align:center;text-anchor:middle" y="256.1" x="390">
     <tspan xml:space="preserve"/>
    </text>
    <text freecad:editable="legal_owner_4" id="legal_owner_4_data_field" style="font-size:3.5px;text-align:center;text-anchor:middle" y="260.1" x="390">
     <tspan xml:space="preserve"/>
    </text>
    <text freecad:editable="drawing_number" id="identification_number_data_field" y="272.2" x="311">
     <tspan xml:space="preserve">DN</tspan>
    </text>
    <text freecad:editable="revision_index" id="revision_index_data_field" style="text-align:center;text-anchor:middle" y="284.2" x="380">
     <tspan xml:space="preserve">A</tspan>
    </text>
    <text freecad:editable="date_of_issue" id="date_of_issue_data_field" y="284.2" freecad:autofill="date" x="331">
     <tspan xml:space="preserve">13/02/2026</tspan>
    </text>
    <text freecad:editable="sheet_number" id="sheet_number_data_field" style="text-align:center;text-anchor:middle" y="284.2" freecad:autofill="sheet" x="400">
     <tspan xml:space="preserve">1 / 1</tspan>
    </text>
    <text freecad:editable="language_code" id="language_data_field" style="text-align:center;text-anchor:middle" y="284.2" x="320">
     <tspan xml:space="preserve">EN</tspan>
    </text>
    <text freecad:editable="title" id="title_data_field" y="248.2" freecad:autofill="title" x="231">
     <tspan xml:space="preserve">OCT-URBLK-AB</tspan>
    </text>
    <text freecad:editable="supplementary_title_1" id="supplementary_title_1_data_field" y="254.2" x="231">
     <tspan xml:space="preserve">Upper Right Panel Block</tspan>
    </text>
    <text freecad:editable="supplementary_title_2" id="supplementary_title_2_data_field" y="260.2" x="231">
     <tspan xml:space="preserve"/>
    </text>
    <text freecad:editable="responsible_department" id="responsible_department_data_field" y="272.2" x="371">
     <tspan xml:space="preserve">RD</tspan>
    </text>
    <text freecad:editable="approval_person" id="approval_person_data_field" y="260.2" x="311">
     <tspan xml:space="preserve">S. Aphelion</tspan>
    </text>
    <text freecad:editable="creator" id="creator_data_field" y="248.2" freecad:autofill="author" x="311">
     <tspan xml:space="preserve">Michael Stoll</tspan>
    </text>
    <text freecad:editable="document_type" id="document_type_data_field" y="272.2" x="231">
     <tspan xml:space="preserve">Component Drawing</tspan>
    </text>
    <text freecad:editable="document_status" id="document_status_data_field" y="284.2" x="231">
     <tspan xml:space="preserve">In preparation</tspan>
    </text>
    <text freecad:editable="scale" id="sheet_scale_data_field" style="text-align:center;text-anchor:middle" y="236.2" freecad:autofill="scale" x="360">
     <tspan xml:space="preserve">2 : 1</tspan>
    </text>
    <text freecad:editable="general_tolerances" id="general_tolerances_data_field" y="236.2" x="311">
     <tspan xml:space="preserve">ISO 2768-m</tspan>
    </text>
    <text freecad:editable="part_material" id="part_material_data_field" y="236.2" x="231">
     <tspan xml:space="preserve">Aluminium 6082 T6</tspan>
    </text>
   </g>
   <g id="extras_outlines" style="fill:none;stroke:#000000;stroke-width:0.5;stroke-linecap:round;stroke-linejoin:round">
    <path d="m 389,222 -10,2.5 v 5 l 10,2.5 z" id="first_angle_trapezoid"/>
    <circle id="first_angle_inner circle" cx="396" cy="227" r="2.5"/>
    <circle id="first_angle_outer circle" cx="396" cy="227" r="5"/>
   </g>
   <g id="extras_centre_lines" style="fill:none;stroke:#000000;stroke-width:0.25;stroke-linecap:round;stroke-linejoin:round;stroke-dasharray:6, 0.75, 0.125, 0.75">
    <path d="m 378,227 h 24" id="first_angle_horizontal" style="stroke-dashoffset:0.25"/>
    <path d="m 396,233 v -12" id="first_angle_vertical" style="stroke-dashoffset:4.625"/>
   </g>
  </g>
  <g stroke-width="1" fill="none" stroke-linecap="square" id="DrawingContent" stroke-linejoin="bevel" stroke="black" fill-rule="evenodd">
   <g font-weight="400" stroke-width="1" fill="none" stroke-linecap="square" stroke-linejoin="bevel" font-size="29.1042" stroke="#000000" stroke-opacity="1" transform="matrix(1,0,0,1,1582.46,1885.67)" font-family="MS Shell Dlg 2" font-style="normal">
    <rect width="0" y="0" x="0" height="0"/>
   </g>
   <g font-weight="400" fill="#f1f3f5" font-size="29.1042" fill-opacity="0" stroke="none" transform="matrix(1,0,0,1,1582.46,1885.67)" font-family="MS Shell Dlg 2" font-style="normal">
    <path d="M-200,400 L-200,-400 L200,-400 L200,400 L-200,400" vector-effect="non-scaling-stroke" fill-rule="evenodd"/>
   </g>
   <g font-weight="400" fill="#f1f3f5" font-size="29.1042" fill-opacity="0" stroke="none" transform="matrix(1,0,0,1,1582.46,1885.67)" font-family="MS Shell Dlg 2" font-style="normal">
    <path d="M33,200 C33,218.225 18.2254,233 0,233 C-18.2254,233 -33,218.225 -33,200 C-33,181.775 -18.2254,167 0,167 C18.2254,167 33,181.775 33,200 " vector-effect="non-scaling-stroke" fill-rule="evenodd"/>
   </g>
   <g font-weight="400" fill="#f1f3f5" font-size="29.1042" fill-opacity="0" stroke="none" transform="matrix(1,0,0,1,1582.46,1885.67)" font-family="MS Shell Dlg 2" font-style="normal">
    <path d="M33,-200 C33,-181.775 18.2254,-167 0,-167 C-18.2254,-167 -33,-181.775 -33,-200 C-33,-218.225 -18.2254,-233 0,-233 C18.2254,-233 33,-218.225 33,-200 " vector-effect="non-scaling-stroke" fill-rule="evenodd"/>
   </g>
   <g font-weight="400" stroke-width="7" fill="none" stroke-linecap="round" stroke-linejoin="bevel" font-size="29.1042" stroke="#000000" stroke-opacity="1" transform="matrix(1,0,0,1,1582.46,1885.67)" font-family="MS Shell Dlg 2" font-style="normal">
    <path d="M-200,400 L-200,-400" vector-effect="none" fill-rule="evenodd"/>
   </g>
   <g font-weight="400" stroke-width="7" fill="none" stroke-linecap="round" stroke-linejoin="bevel" font-size="29.1042" stroke="#000000" stroke-opacity="1" transform="matrix(1,0,0,1,1582.46,1885.67)" font-family="MS Shell Dlg 2" font-style="normal">
    <path d="M-200,400 L200,400" vector-effect="none" fill-rule="evenodd"/>
   </g>
   <g font-weight="400" stroke-width="7" fill="none" stroke-linecap="round" stroke-linejoin="bevel" font-size="29.1042" stroke="#000000" stroke-opacity="1" transform="matrix(1,0,0,1,1582.46,1885.67)" font-family="MS Shell Dlg 2" font-style="normal">
    <path d="M-200,-400 L200,-400" vector-effect="none" fill-rule="evenodd"/>
   </g>
   <g font-weight="400" stroke-width="7" fill="none" stroke-linecap="round" stroke-linejoin="bevel" font-size="29.1042" stroke="#000000" stroke-opacity="1" transform="matrix(1,0,0,1,1582.46,1885.67)" font-family="MS Shell Dlg 2" font-style="normal">
    <path d="M200,400 L200,-400" vector-effect="none" fill-rule="evenodd"/>
   </g>
   <g font-weight="400" stroke-width="7" fill="none" stroke-linecap="round" stroke-linejoin="bevel" font-size="29.1042" stroke="#000000" stroke-opacity="1" transform="matrix(1,0,0,1,1582.46,1885.67)" font-family="MS Shell Dlg 2" font-style="normal">
    <path d="M33,-200 C33,-181.775 18.2254,-167 0,-167 C-18.2254,-167 -33,-181.775 -33,-200 C-33,-218.225 -18.2254,-233 0,-233 C18.2254,-233 33,-218.225 33,-200 " vector-effect="none" fill-rule="evenodd"/>
   </g>
   <g font-weight="400" stroke-width="7" fill="none" stroke-linecap="round" stroke-linejoin="bevel" font-size="29.1042" stroke="#000000" stroke-opacity="1" transform="matrix(1,0,0,1,1582.46,1885.67)" font-family="MS Shell Dlg 2" font-style="normal">
    <path d="M33,200 C33,218.225 18.2254,233 0,233 C-18.2254,233 -33,218.225 -33,200 C-33,181.775 -18.2254,167 0,167 C18.2254,167 33,181.775 33,200 " vector-effect="none" fill-rule="evenodd"/>
   </g>
   <g font-weight="400" stroke-width="1" fill="none" stroke-linecap="square" stroke-linejoin="bevel" font-size="29.1042" stroke="#000000" stroke-opacity="1" transform="matrix(0,-1,1,0,1883.64,1949.42)" font-family="MS Shell Dlg 2" font-style="normal">
    <text xml:space="preserve" font-weight="400" fill="#000000" y="92" font-size="67" fill-opacity="1" stroke="none" x="4" font-family="osifont" font-style="normal">40.0</text>
   </g>
   <g font-weight="400" stroke-width="3.5" fill="none" stroke-linecap="round" stroke-linejoin="bevel" font-size="29.1042" stroke="#000000" stroke-opacity="1" transform="matrix(1,0,0,1,1582.46,1885.67)" font-family="MS Shell Dlg 2" font-style="normal">
    <path d="M427.181,400 L427.181,-400 M200,-400 L455.181,-400 M200,400 L455.181,400" vector-effect="none" fill-rule="evenodd"/>
   </g>
   <g font-weight="400" stroke-width="3.5" fill="#000000" stroke-linecap="round" stroke-linejoin="bevel" font-size="29.1042" fill-opacity="1" stroke="#000000" stroke-opacity="1" transform="matrix(1,0,0,1,2009.64,1485.67)" font-family="MS Shell Dlg 2" font-style="normal">
    <path d="M0,0 L-5.83333,35 L5.83333,35 L0,0" vector-effect="none" fill-rule="evenodd"/>
   </g>
   <g font-weight="400" stroke-width="3.5" fill="#000000" stroke-linecap="round" stroke-linejoin="bevel" font-size="29.1042" fill-opacity="1" stroke="#000000" stroke-opacity="1" transform="matrix(1,0,0,1,2009.64,2285.67)" font-family="MS Shell Dlg 2" font-style="normal">
    <path d="M0,0 L5.83333,-35 L-5.83333,-35 L0,0" vector-effect="none" fill-rule="evenodd"/>
   </g>
   <g font-weight="400" stroke-width="1" fill="none" stroke-linecap="square" stroke-linejoin="bevel" font-size="29.1042" stroke="#000000" stroke-opacity="1" transform="matrix(0,-1,1,0,1168.53,2244.05)" font-family="MS Shell Dlg 2" font-style="normal">
    <text xml:space="preserve" font-weight="400" fill="#000000" y="92" font-size="67" fill-opacity="1" stroke="none" x="4" font-family="osifont" font-style="normal">10.0</text>
   </g>
   <g font-weight="400" stroke-width="3.5" fill="none" stroke-linecap="round" stroke-linejoin="bevel" font-size="29.1042" stroke="#000000" stroke-opacity="1" transform="matrix(1,0,0,1,1582.46,1885.67)" font-family="MS Shell Dlg 2" font-style="normal">
    <path d="M-287.928,400 L-287.928,200 M0,200 L-315.928,200 M0,400 L-315.928,400" vector-effect="none" fill-rule="evenodd"/>
   </g>
   <g font-weight="400" stroke-width="3.5" fill="#000000" stroke-linecap="round" stroke-linejoin="bevel" font-size="29.1042" fill-opacity="1" stroke="#000000" stroke-opacity="1" transform="matrix(1,0,0,1,1294.53,2085.67)" font-family="MS Shell Dlg 2" font-style="normal">
    <path d="M0,0 L-5.83333,35 L5.83333,35 L0,0" vector-effect="none" fill-rule="evenodd"/>
   </g>
   <g font-weight="400" stroke-width="3.5" fill="#000000" stroke-linecap="round" stroke-linejoin="bevel" font-size="29.1042" fill-opacity="1" stroke="#000000" stroke-opacity="1" transform="matrix(1,0,0,1,1294.53,2285.67)" font-family="MS Shell Dlg 2" font-style="normal">
    <path d="M0,0 L5.83333,-35 L-5.83333,-35 L0,0" vector-effect="none" fill-rule="evenodd"/>
   </g>
   <g font-weight="400" stroke-width="1" fill="none" stroke-linecap="square" stroke-linejoin="bevel" font-size="29.1042" stroke="#000000" stroke-opacity="1" transform="matrix(0,-1,1,0,1168.53,1947.92)" font-family="MS Shell Dlg 2" font-style="normal">
    <text xml:space="preserve" font-weight="400" fill="#000000" y="92" font-size="67" fill-opacity="1" stroke="none" x="4" font-family="osifont" font-style="normal">20.0</text>
   </g>
   <g font-weight="400" stroke-width="3.5" fill="none" stroke-linecap="round" stroke-linejoin="bevel" font-size="29.1042" stroke="#000000" stroke-opacity="1" transform="matrix(1,0,0,1,1582.46,1885.67)" font-family="MS Shell Dlg 2" font-style="normal">
    <path d="M-287.928,200 L-287.928,-200 M0,-200 L-315.928,-200 M0,200 L-315.928,200" vector-effect="none" fill-rule="evenodd"/>
   </g>
   <g font-weight="400" stroke-width="3.5" fill="#000000" stroke-linecap="round" stroke-linejoin="bevel" font-size="29.1042" fill-opacity="1" stroke="#000000" stroke-opacity="1" transform="matrix(1,0,0,1,1294.53,1685.67)" font-family="MS Shell Dlg 2" font-style="normal">
    <path d="M0,0 L-5.83333,35 L5.83333,35 L0,0" vector-effect="none" fill-rule="evenodd"/>
   </g>
   <g font-weight="400" stroke-width="3.5" fill="#000000" stroke-linecap="round" stroke-linejoin="bevel" font-size="29.1042" fill-opacity="1" stroke="#000000" stroke-opacity="1" transform="matrix(1,0,0,1,1294.53,2085.67)" font-family="MS Shell Dlg 2" font-style="normal">
    <path d="M0,0 L5.83333,-35 L-5.83333,-35 L0,0" vector-effect="none" fill-rule="evenodd"/>
   </g>
   <g font-weight="400" stroke-width="1" fill="none" stroke-linecap="square" stroke-linejoin="bevel" font-size="29.1042" stroke="#000000" stroke-opacity="1" transform="matrix(1,0,0,1,1520.21,2479.21)" font-family="MS Shell Dlg 2" font-style="normal">
    <text xml:space="preserve" font-weight="400" fill="#000000" y="92" font-size="67" fill-opacity="1" stroke="none" x="4" font-family="osifont" font-style="normal">20.0</text>
   </g>
   <g font-weight="400" stroke-width="3.5" fill="none" stroke-linecap="round" stroke-linejoin="bevel" font-size="29.1042" stroke="#000000" stroke-opacity="1" transform="matrix(1,0,0,1,1582.46,1885.67)" font-family="MS Shell Dlg 2" font-style="normal">
    <path d="M-200,719.532 L200,719.532 M200,400 L200,747.532 M-200,400 L-200,747.532" vector-effect="none" fill-rule="evenodd"/>
   </g>
   <g font-weight="400" stroke-width="3.5" fill="#000000" stroke-linecap="round" stroke-linejoin="bevel" font-size="29.1042" fill-opacity="1" stroke="#000000" stroke-opacity="1" transform="matrix(1,0,0,1,1782.46,2605.21)" font-family="MS Shell Dlg 2" font-style="normal">
    <path d="M0,0 L-35,-5.83333 L-35,5.83333 L0,0" vector-effect="none" fill-rule="evenodd"/>
   </g>
   <g font-weight="400" stroke-width="3.5" fill="#000000" stroke-linecap="round" stroke-linejoin="bevel" font-size="29.1042" fill-opacity="1" stroke="#000000" stroke-opacity="1" transform="matrix(1,0,0,1,1382.46,2605.21)" font-family="MS Shell Dlg 2" font-style="normal">
    <path d="M0,0 L35,5.83333 L35,-5.83333 L0,0" vector-effect="none" fill-rule="evenodd"/>
   </g>
   <g font-weight="400" stroke-width="1" fill="none" stroke-linecap="square" stroke-linejoin="bevel" font-size="29.1042" stroke="#000000" stroke-opacity="1" transform="matrix(0.85508,0.518496,-0.518496,0.85508,1136.07,1267.64)" font-family="MS Shell Dlg 2" font-style="normal">
    <text xml:space="preserve" font-weight="400" fill="#000000" y="92" font-size="67" fill-opacity="1" stroke="none" x="4" font-family="osifont" font-style="normal">⌀3.3</text>
   </g>
   <g font-weight="400" stroke-width="3.5" fill="none" stroke-linecap="round" stroke-linejoin="bevel" font-size="29.1042" stroke="#000000" stroke-opacity="1" transform="matrix(1,0,0,1,1582.46,1885.67)" font-family="MS Shell Dlg 2" font-style="normal">
    <path d="M88.0732,-146.595 L-514.719,-512.111" vector-effect="none" fill-rule="evenodd"/>
   </g>
   <g font-weight="400" stroke-width="3.5" fill="#000000" stroke-linecap="round" stroke-linejoin="bevel" font-size="29.1042" fill-opacity="1" stroke="#000000" stroke-opacity="1" transform="matrix(1,0,0,1,1554.25,1668.56)" font-family="MS Shell Dlg 2" font-style="normal">
    <path d="M0,0 L-26.9032,-23.1353 L-32.9524,-13.1594 L0,0" vector-effect="none" fill-rule="evenodd"/>
   </g>
   <g font-weight="400" stroke-width="3.5" fill="#000000" stroke-linecap="round" stroke-linejoin="bevel" font-size="29.1042" fill-opacity="1" stroke="#000000" stroke-opacity="1" transform="matrix(1,0,0,1,1610.68,1702.78)" font-family="MS Shell Dlg 2" font-style="normal">
    <path d="M0,0 L26.9032,23.1353 L32.9524,13.1594 L0,0" vector-effect="none" fill-rule="evenodd"/>
   </g>
   <g font-weight="400" fill="#f1f3f5" font-size="29.1042" fill-opacity="0" stroke="none" transform="matrix(1,0,0,1,1582.46,785.674)" font-family="MS Shell Dlg 2" font-style="normal">
    <path d="M-200,-200 L-200,200 L200,200 L200,-200 L-200,-200" vector-effect="non-scaling-stroke" fill-rule="evenodd"/>
   </g>
   <g font-weight="400" fill="#f1f3f5" font-size="29.1042" fill-opacity="0" stroke="none" transform="matrix(1,0,0,1,1582.46,785.674)" font-family="MS Shell Dlg 2" font-style="normal">
    <path d="M-67,0 C-67,18.2254 -81.7746,33 -100,33 C-118.225,33 -133,18.2254 -133,0 C-133,-18.2254 -118.225,-33 -100,-33 C-81.7746,-33 -67,-18.2254 -67,0 " vector-effect="non-scaling-stroke" fill-rule="evenodd"/>
   </g>
   <g font-weight="400" stroke-width="7" fill="none" stroke-linecap="round" stroke-linejoin="bevel" font-size="29.1042" stroke="#000000" stroke-opacity="1" transform="matrix(1,0,0,1,1582.46,785.674)" font-family="MS Shell Dlg 2" font-style="normal">
    <path d="M-200,200 L200,200" vector-effect="none" fill-rule="evenodd"/>
   </g>
   <g font-weight="400" stroke-width="7" fill="none" stroke-linecap="round" stroke-linejoin="bevel" font-size="29.1042" stroke="#000000" stroke-opacity="1" transform="matrix(1,0,0,1,1582.46,785.674)" font-family="MS Shell Dlg 2" font-style="normal">
    <path d="M-200,-200 L-200,200" vector-effect="none" fill-rule="evenodd"/>
   </g>
   <g font-weight="400" stroke-width="7" fill="none" stroke-linecap="round" stroke-linejoin="bevel" font-size="29.1042" stroke="#000000" stroke-opacity="1" transform="matrix(1,0,0,1,1582.46,785.674)" font-family="MS Shell Dlg 2" font-style="normal">
    <path d="M200,200 L200,-200" vector-effect="none" fill-rule="evenodd"/>
   </g>
   <g font-weight="400" stroke-width="7" fill="none" stroke-linecap="round" stroke-linejoin="bevel" font-size="29.1042" stroke="#000000" stroke-opacity="1" transform="matrix(1,0,0,1,1582.46,785.674)" font-family="MS Shell Dlg 2" font-style="normal">
    <path d="M-200,-200 L200,-200" vector-effect="none" fill-rule="evenodd"/>
   </g>
   <g font-weight="400" stroke-width="7" fill="none" stroke-linecap="round" stroke-linejoin="bevel" font-size="29.1042" stroke="#000000" stroke-opacity="1" transform="matrix(1,0,0,1,1582.46,785.674)" font-family="MS Shell Dlg 2" font-style="normal">
    <path d="M-67,0 C-67,18.2254 -81.7746,33 -100,33 C-118.225,33 -133,18.2254 -133,0 C-133,-18.2254 -118.225,-33 -100,-33 C-81.7746,-33 -67,-18.2254 -67,0 " vector-effect="none" fill-rule="evenodd"/>
   </g>
   <g font-weight="400" stroke-width="1" fill="none" stroke-linecap="square" stroke-linejoin="bevel" font-size="29.1042" stroke="#000000" stroke-opacity="1" transform="matrix(1,0,0,1,1384.84,238.637)" font-family="MS Shell Dlg 2" font-style="normal">
    <text xml:space="preserve" font-weight="400" fill="#000000" y="92" font-size="67" fill-opacity="1" stroke="none" x="4" font-family="osifont" font-style="normal">5.0</text>
   </g>
   <g font-weight="400" stroke-width="3.5" fill="none" stroke-linecap="round" stroke-linejoin="bevel" font-size="29.1042" stroke="#000000" stroke-opacity="1" transform="matrix(1,0,0,1,1582.46,785.674)" font-family="MS Shell Dlg 2" font-style="normal">
    <path d="M-270,-421.036 L-30,-421.036 M-100,0 L-100,-449.036 M-200,0 L-200,-449.036" vector-effect="none" fill-rule="evenodd"/>
   </g>
   <g font-weight="400" stroke-width="3.5" fill="#000000" stroke-linecap="round" stroke-linejoin="bevel" font-size="29.1042" fill-opacity="1" stroke="#000000" stroke-opacity="1" transform="matrix(1,0,0,1,1482.46,364.637)" font-family="MS Shell Dlg 2" font-style="normal">
    <path d="M0,0 L35,5.83333 L35,-5.83333 L0,0" vector-effect="none" fill-rule="evenodd"/>
   </g>
   <g font-weight="400" stroke-width="3.5" fill="#000000" stroke-linecap="round" stroke-linejoin="bevel" font-size="29.1042" fill-opacity="1" stroke="#000000" stroke-opacity="1" transform="matrix(1,0,0,1,1382.46,364.637)" font-family="MS Shell Dlg 2" font-style="normal">
    <path d="M0,0 L-35,-5.83333 L-35,5.83333 L0,0" vector-effect="none" fill-rule="evenodd"/>
   </g>
   <g font-weight="400" stroke-width="1" fill="none" stroke-linecap="square" stroke-linejoin="bevel" font-size="29.1042" stroke="#000000" stroke-opacity="1" transform="matrix(0.931995,0.36247,-0.36247,0.931995,2193.41,926.98)" font-family="MS Shell Dlg 2" font-style="normal">
    <text xml:space="preserve" font-weight="400" fill="#000000" y="92" font-size="67" fill-opacity="1" stroke="none" x="4" font-family="osifont" font-style="normal">⌀3.3</text>
   </g>
   <g font-weight="400" stroke-width="3.5" fill="none" stroke-linecap="round" stroke-linejoin="bevel" font-size="29.1042" stroke="#000000" stroke-opacity="1" transform="matrix(1,0,0,1,1582.46,785.674)" font-family="MS Shell Dlg 2" font-style="normal">
    <path d="M-195.996,-37.3344 L699.249,310.843" vector-effect="none" fill-rule="evenodd"/>
   </g>
   <g font-weight="400" stroke-width="3.5" fill="#000000" stroke-linecap="round" stroke-linejoin="bevel" font-size="29.1042" fill-opacity="1" stroke="#000000" stroke-opacity="1" transform="matrix(1,0,0,1,1513.22,797.635)" font-family="MS Shell Dlg 2" font-style="normal">
    <path d="M0,0 L30.5054,18.1231 L34.7342,7.24982 L0,0" vector-effect="none" fill-rule="evenodd"/>
   </g>
   <g font-weight="400" stroke-width="3.5" fill="#000000" stroke-linecap="round" stroke-linejoin="bevel" font-size="29.1042" fill-opacity="1" stroke="#000000" stroke-opacity="1" transform="matrix(1,0,0,1,1451.71,773.712)" font-family="MS Shell Dlg 2" font-style="normal">
    <path d="M0,0 L-30.5054,-18.1231 L-34.7342,-7.24982 L0,0" vector-effect="none" fill-rule="evenodd"/>
   </g>
   <g font-weight="400" stroke-width="1" fill="none" stroke-linecap="square" stroke-linejoin="bevel" font-size="29.1042" stroke="#000000" stroke-opacity="1" transform="matrix(0,-1,1,0,953.22,847.924)" font-family="MS Shell Dlg 2" font-style="normal">
    <text xml:space="preserve" font-weight="400" fill="#000000" y="92" font-size="67" fill-opacity="1" stroke="none" x="4" font-family="osifont" font-style="normal">20.0</text>
   </g>
   <g font-weight="400" stroke-width="3.5" fill="none" stroke-linecap="round" stroke-linejoin="bevel" font-size="29.1042" stroke="#000000" stroke-opacity="1" transform="matrix(1,0,0,1,1582.46,785.674)" font-family="MS Shell Dlg 2" font-style="normal">
    <path d="M-503.243,-200 L-503.243,200 M-200,200 L-531.243,200 M-200,-200 L-531.243,-200" vector-effect="none" fill-rule="evenodd"/>
   </g>
   <g font-weight="400" stroke-width="3.5" fill="#000000" stroke-linecap="round" stroke-linejoin="bevel" font-size="29.1042" fill-opacity="1" stroke="#000000" stroke-opacity="1" transform="matrix(1,0,0,1,1079.22,985.674)" font-family="MS Shell Dlg 2" font-style="normal">
    <path d="M0,0 L5.83333,-35 L-5.83333,-35 L0,0" vector-effect="none" fill-rule="evenodd"/>
   </g>
   <g font-weight="400" stroke-width="3.5" fill="#000000" stroke-linecap="round" stroke-linejoin="bevel" font-size="29.1042" fill-opacity="1" stroke="#000000" stroke-opacity="1" transform="matrix(1,0,0,1,1079.22,585.674)" font-family="MS Shell Dlg 2" font-style="normal">
    <path d="M0,0 L-5.83333,35 L5.83333,35 L0,0" vector-effect="none" fill-rule="evenodd"/>
   </g>
   <g font-weight="400" stroke-width="1" fill="none" stroke-linecap="square" stroke-linejoin="bevel" font-size="29.1042" stroke="#000000" stroke-opacity="1" transform="matrix(0,-1,1,0,2025.04,744.049)" font-family="MS Shell Dlg 2" font-style="normal">
    <text xml:space="preserve" font-weight="400" fill="#000000" y="92" font-size="67" fill-opacity="1" stroke="none" x="4" font-family="osifont" font-style="normal">10.0</text>
   </g>
   <g font-weight="400" stroke-width="3.5" fill="none" stroke-linecap="round" stroke-linejoin="bevel" font-size="29.1042" stroke="#000000" stroke-opacity="1" transform="matrix(1,0,0,1,1582.46,785.674)" font-family="MS Shell Dlg 2" font-style="normal">
    <path d="M568.573,-200 L568.573,3.55271e-14 M-100,0 L596.573,3.7015e-14 M-100,-200 L596.573,-200" vector-effect="none" fill-rule="evenodd"/>
   </g>
   <g font-weight="400" stroke-width="3.5" fill="#000000" stroke-linecap="round" stroke-linejoin="bevel" font-size="29.1042" fill-opacity="1" stroke="#000000" stroke-opacity="1" transform="matrix(1,0,0,1,2151.04,785.674)" font-family="MS Shell Dlg 2" font-style="normal">
    <path d="M0,0 L5.83333,-35 L-5.83333,-35 L0,0" vector-effect="none" fill-rule="evenodd"/>
   </g>
   <g font-weight="400" stroke-width="3.5" fill="#000000" stroke-linecap="round" stroke-linejoin="bevel" font-size="29.1042" fill-opacity="1" stroke="#000000" stroke-opacity="1" transform="matrix(1,0,0,1,2151.04,585.674)" font-family="MS Shell Dlg 2" font-style="normal">
    <path d="M0,0 L-5.83333,35 L5.83333,35 L0,0" vector-effect="none" fill-rule="evenodd"/>
   </g>
  </g>
 </g>
</svg>
