<?xml version='1.0' encoding='UTF-8' standalone='no'?>
<svg height="297mm" width="420mm" viewBox="0 0 4200 2970" version="1.2" xmlns:cc="http://creativecommons.org/ns#" xmlns:inkscape="http://www.inkscape.org/namespaces/inkscape" xmlns:dc="http://purl.org/dc/elements/1.1/" xmlns="http://www.w3.org/2000/svg" xmlns:xlink="http://www.w3.org/1999/xlink" xmlns:svg="http://www.w3.org/2000/svg" xmlns:sodipodi="http://sodipodi.sourceforge.net/DTD/sodipodi-0.dtd" xmlns:freecad="https://www.freecad.org/wiki/index.php?title=Svg_Namespace" baseProfile="tiny" xmlns:rdf="http://www.w3.org/1999/02/22-rdf-syntax-ns#">
 <title>FreeCAD SVG Export</title>
 <desc>Drawing page: Page exported from FreeCAD document: OCT_LBLOK_AA</desc>
 <defs/>
 <g inkscape:label="TechDraw" id="Page" inkscape:groupmode="layer">
  <g style="stroke: none;" id="A3_Landscape_ISO5457_advanced.svg" transform="scale(10.000000, 10.000000)">
   <title id="title">Drawing sheet ISO 5457 - A3T - Advanced</title>
   <metadata id="metadata">
    <rdf:RDF>
     <cc:Work rdf:about="">
      <cc:license rdf:resource="http://creativecommons.org/publicdomain/zero/1.0/"/>
      <dc:title>Drawing sheet ISO 5457 - A3T - Advanced</dc:title>
      <dc:creator>
       <cc:Agent>
        <dc:title>Benjamin May</dc:title>
       </cc:Agent>
      </dc:creator>
     </cc:Work>
     <cc:License rdf:about="http://creativecommons.org/publicdomain/zero/1.0/">
      <cc:permits rdf:resource="http://creativecommons.org/ns#Reproduction"/>
      <cc:permits rdf:resource="http://creativecommons.org/ns#Distribution"/>
      <cc:permits rdf:resource="http://creativecommons.org/ns#DerivativeWorks"/>
     </cc:License>
    </rdf:RDF>
   </metadata>
   <rect height="277" width="390" y="10" style="fill:none;stroke:#000000;stroke-width:0.7;stroke-linecap:round;stroke-linejoin:round" x="20" id="drawing_space_frame"/>
   <g style="fill:none;stroke:#000000;stroke-width:0.7;stroke-linecap:round" id="centring_marks">
    <path d="m 210,5 v 10" id="top_centering"/>
    <path d="m 415,148.5 h -10" id="right_centering"/>
    <path d="m 210,292 v -10" id="bottom_centering"/>
    <path d="m 15,148.5 h 10" id="left_centering"/>
   </g>
   <g id="grid_reference_system">
    <g style="fill:none;stroke:#000000;stroke-width:0.35;stroke-linecap:round;stroke-linejoin:round" id="grid_reference_borders">
     <rect height="287" width="400" y="5" x="15" id="grid_reference_border"/>
     <path d="m 60,5 v 5" id="upper_border_1"/>
     <path d="m 110,5 v 5" id="upper_border_2"/>
     <path d="m 160,5 v 5" id="upper_border_3"/>
     <path d="m 260,5 v 5" id="upper_border_5"/>
     <path d="m 310,5 v 5" id="upper_border_6"/>
     <path d="m 360,5 v 5" id="upper_border_7"/>
     <path d="m 415,48.5 h -5" id="right_border_1"/>
     <path d="m 415,98.5 h -5" id="right_border_2"/>
     <path d="m 415,198.5 h -5" id="right_border_4"/>
     <path d="m 415,248.5 h -5" id="right_border_5"/>
     <path d="m 60,292 v -5" id="lower_border_1"/>
     <path d="m 110,292 v -5" id="lower_border_2"/>
     <path d="m 160,292 v -5" id="lower_border_3"/>
     <path d="m 260,292 v -5" id="lower_border_5"/>
     <path d="m 310,292 v -5" id="lower_border_6"/>
     <path d="m 360,292 v -5" id="lower_border_7"/>
     <path d="m 15,48.5 h 5" id="left_border_1"/>
     <path d="m 15,98.5 h 5" id="left_border_2"/>
     <path d="m 15,198.5 h 5" id="left_border_4"/>
     <path d="m 15,248.5 h 5" id="left_border_5"/>
    </g>
    <g style="font-size:3.5px;font-family:osifont;text-align:center;text-anchor:middle;fill:#000000;stroke:none" id="grid_reference_markers">
     <text y="8.8" x="35" id="upper_marker_1">1</text>
     <text y="8.8" x="85" id="upper_marker_2">2</text>
     <text y="8.8" x="135" id="upper_marker_3">3</text>
     <text y="8.8" x="185" id="upper_marker_4">4</text>
     <text y="8.8" x="235" id="upper_marker_5">5</text>
     <text y="8.8" x="285" id="upper_marker_6">6</text>
     <text y="8.8" x="335" id="upper_marker_7">7</text>
     <text y="8.8" x="385" id="upper_marker_8">8</text>
     <text y="24.8" x="412.5" id="right_marker_1">A</text>
     <text y="74.8" x="412.5" id="right_marker_2">B</text>
     <text y="124.8" x="412.5" id="right_marker_3">C</text>
     <text y="174.8" x="412.5" id="right_marker_4">D</text>
     <text y="224.8" x="412.5" id="right_marker_5">E</text>
     <text y="274.8" x="412.5" id="right_marker_6">F</text>
     <text y="290.8" x="35" id="lower_marker_1">1</text>
     <text y="290.8" x="85" id="lower_marker_2">2</text>
     <text y="290.8" x="135" id="lower_marker_3">3</text>
     <text y="290.8" x="185" id="lower_marker_4">4</text>
     <text y="290.8" x="235" id="lower_marker_5">5</text>
     <text y="290.8" x="285" id="lower_marker_6">6</text>
     <text y="290.8" x="335" id="lower_marker_7">7</text>
     <text y="290.8" x="385" id="lower_marker_8">A3</text>
     <text y="24.8" x="17.5" id="left_marker_1">A</text>
     <text y="74.8" x="17.5" id="left_marker_2">B</text>
     <text y="124.8" x="17.5" id="left_marker_3">C</text>
     <text y="174.8" x="17.5" id="left_marker_4">D</text>
     <text y="224.8" x="17.5" id="left_marker_5">E</text>
     <text y="274.8" x="17.5" id="left_marker_6">F</text>
    </g>
   </g>
   <g style="fill:#000000;stroke:none" id="trimming_marks">>
    <path d="m 0,0 h 10 v 5 h -5 v 5 h -5 z" id="top_left_trimming"/>
    <path d="m 420,0 h -10 v 5 h 5 v 5 h 5 z" id="top_right_trimming"/>
    <path d="m 420,297 h -10 v -5 h 5 v -5 h 5 z" id="bottom_right_trimming"/>
    <path d="m 0,297 h 10 v -5 h -5 v -5 h -5 z" id="bottom_left_trimming"/>
   </g>
   <!-- Title block -->
   <g style="fill:none;stroke:#000000;stroke-width:0.35;stroke-linecap:round;stroke-linejoin:round" id="title_block_borders">
    <rect height="48" width="180" y="239" style="stroke-width:0.7" x="230" id="title_block_frame"/>
    <rect height="24" width="40" y="239" x="370" id="legal_owner_border"/>
    <rect height="12" width="60" y="263" x="310" id="identification_number_border"/>
    <rect height="12" width="20" y="275" x="370" id="revision_index_border"/>
    <rect height="12" width="40" y="275" x="330" id="date_of_issue_border"/>
    <rect height="12" width="20" y="275" x="390" id="sheet_number_border"/>
    <rect height="12" width="20" y="275" x="310" id="language_code_border"/>
    <rect height="24" width="80" y="239" x="230" id="title_border"/>
    <rect height="12" width="40" y="263" x="370" id="responsible_department_border"/>
    <rect height="12" width="60" y="251" x="310" id="approval_person_border"/>
    <rect height="12" width="60" y="239" x="310" id="creator_border"/>
    <rect height="12" width="80" y="263" x="230" id="document_type_border"/>
    <rect height="12" width="80" y="275" x="230" id="document_status_border"/>
   </g>
   <g style="font-size:3.5px;font-family:osifont;text-anchor:start;fill:#000000;stroke:none" id="title_block_labels">
    <text y="242.6" x="370.5" id="legal_owner_label">Owner:</text>
    <text y="266.6" x="310.5" id="identification_number_label">Drawing number:</text>
    <text y="278.6" x="370.5" id="revision_index_label">Revision:</text>
    <text y="278.6" x="330.5" id="date_of_issue_label">Issue date:</text>
    <text y="278.6" x="390.5" id="sheet_number_label">Sheet:</text>
    <text y="278.6" x="310.5" id="language_code_label">Language:</text>
    <text y="242.6" x="230.5" id="title_label">Title, supplementary title:</text>
    <text y="266.6" x="370.5" id="responsible_department_label">Responsible department:</text>
    <text y="254.6" x="310.5" id="approval_person_label">Approved by:</text>
    <text y="242.6" x="310.5" id="creator_label">Created by:</text>
    <text y="266.6" x="230.5" id="document_type label">Document type:</text>
    <text y="278.6" x="230.5" id="document_status_label">Document status:</text>
    <text y="230.6" x="350.5" id="sheet_scale_label">Scale:</text>
    <text y="230.6" x="310.5" id="general_tolerances_label">General tolerances:</text>
    <text y="230.6" x="230.5" id="part_material_label">Part Material:</text>
   </g>
   <g style="font-size:5px;font-family:osifont;text-anchor:start;fill:#000000;stroke:none" id="title_block_data_fields">
    <text y="248.1" freecad:editable="legal_owner_1" style="font-size:3.5px;text-align:center;text-anchor:middle" x="390" id="legal_owner_1_data_field" freecad:autofill="organization">
     <tspan xml:space="preserve"/>
    </text>
    <text y="252.1" freecad:editable="legal_owner_2" style="font-size:3.5px;text-align:center;text-anchor:middle" x="390" id="legal_owner_2_data_field">
     <tspan xml:space="preserve"/>
    </text>
    <text y="256.1" freecad:editable="legal_owner_3" style="font-size:3.5px;text-align:center;text-anchor:middle" x="390" id="legal_owner_3_data_field">
     <tspan xml:space="preserve"/>
    </text>
    <text y="260.1" freecad:editable="legal_owner_4" style="font-size:3.5px;text-align:center;text-anchor:middle" x="390" id="legal_owner_4_data_field">
     <tspan xml:space="preserve"/>
    </text>
    <text y="272.2" freecad:editable="drawing_number" x="311" id="identification_number_data_field">
     <tspan xml:space="preserve">DN</tspan>
    </text>
    <text y="284.2" freecad:editable="revision_index" style="text-align:center;text-anchor:middle" x="380" id="revision_index_data_field">
     <tspan xml:space="preserve">A</tspan>
    </text>
    <text y="284.2" freecad:editable="date_of_issue" x="331" id="date_of_issue_data_field" freecad:autofill="date">
     <tspan xml:space="preserve">08/02/2026</tspan>
    </text>
    <text y="284.2" freecad:editable="sheet_number" style="text-align:center;text-anchor:middle" x="400" id="sheet_number_data_field" freecad:autofill="sheet">
     <tspan xml:space="preserve">1 / 1</tspan>
    </text>
    <text y="284.2" freecad:editable="language_code" style="text-align:center;text-anchor:middle" x="320" id="language_data_field">
     <tspan xml:space="preserve">EN</tspan>
    </text>
    <text y="248.2" freecad:editable="title" x="231" id="title_data_field" freecad:autofill="title">
     <tspan xml:space="preserve">OCT-LBLOK-AA</tspan>
    </text>
    <text y="254.2" freecad:editable="supplementary_title_1" x="231" id="supplementary_title_1_data_field">
     <tspan xml:space="preserve">Lower Panel Block</tspan>
    </text>
    <text y="260.2" freecad:editable="supplementary_title_2" x="231" id="supplementary_title_2_data_field">
     <tspan xml:space="preserve"/>
    </text>
    <text y="272.2" freecad:editable="responsible_department" x="371" id="responsible_department_data_field">
     <tspan xml:space="preserve">RD</tspan>
    </text>
    <text y="260.2" freecad:editable="approval_person" x="311" id="approval_person_data_field">
     <tspan xml:space="preserve">S. Aphelion</tspan>
    </text>
    <text y="248.2" freecad:editable="creator" x="311" id="creator_data_field" freecad:autofill="author">
     <tspan xml:space="preserve">Michael Stoll</tspan>
    </text>
    <text y="272.2" freecad:editable="document_type" x="231" id="document_type_data_field">
     <tspan xml:space="preserve">Component Drawing</tspan>
    </text>
    <text y="284.2" freecad:editable="document_status" x="231" id="document_status_data_field">
     <tspan xml:space="preserve">In preparation</tspan>
    </text>
    <text y="236.2" freecad:editable="scale" style="text-align:center;text-anchor:middle" x="360" id="sheet_scale_data_field" freecad:autofill="scale">
     <tspan xml:space="preserve">2 : 1</tspan>
    </text>
    <text y="236.2" freecad:editable="general_tolerances" x="311" id="general_tolerances_data_field">
     <tspan xml:space="preserve">ISO 2768-m</tspan>
    </text>
    <text y="236.2" freecad:editable="part_material" x="231" id="part_material_data_field">
     <tspan xml:space="preserve">Aluminium 6082 T6</tspan>
    </text>
   </g>
   <g style="fill:none;stroke:#000000;stroke-width:0.5;stroke-linecap:round;stroke-linejoin:round" id="extras_outlines">
    <path d="m 389,222 -10,2.5 v 5 l 10,2.5 z" id="first_angle_trapezoid"/>
    <circle cx="396" r="2.5" id="first_angle_inner circle" cy="227"/>
    <circle cx="396" r="5" id="first_angle_outer circle" cy="227"/>
   </g>
   <g style="fill:none;stroke:#000000;stroke-width:0.25;stroke-linecap:round;stroke-linejoin:round;stroke-dasharray:6, 0.75, 0.125, 0.75" id="extras_centre_lines">
    <path d="m 378,227 h 24" style="stroke-dashoffset:0.25" id="first_angle_horizontal"/>
    <path d="m 396,233 v -12" style="stroke-dashoffset:4.625" id="first_angle_vertical"/>
   </g>
  </g>
  <g fill="none" stroke-width="1" fill-rule="evenodd" id="DrawingContent" stroke-linecap="square" stroke="black" stroke-linejoin="bevel">
   <g fill="none" font-size="29.1042" font-weight="400" stroke-width="1" font-family="MS Shell Dlg 2" stroke-opacity="1" font-style="normal" stroke-linecap="square" stroke="#000000" transform="matrix(1,0,0,1,1878.59,1845.01)" stroke-linejoin="bevel">
    <rect height="0" width="0" y="0" x="0"/>
   </g>
   <g fill="#f1f3f5" font-size="29.1042" font-weight="400" font-family="MS Shell Dlg 2" font-style="normal" fill-opacity="0" stroke="none" transform="matrix(1,0,0,1,1878.59,1845.01)">
    <path vector-effect="non-scaling-stroke" d="M200,200 L200,-200 L-200,-200 L-200,200 L200,200" fill-rule="evenodd"/>
   </g>
   <g fill="#f1f3f5" font-size="29.1042" font-weight="400" font-family="MS Shell Dlg 2" font-style="normal" fill-opacity="0" stroke="none" transform="matrix(1,0,0,1,1878.59,1845.01)">
    <path vector-effect="non-scaling-stroke" d="M33,0 C33,18.2254 18.2254,33 0,33 C-18.2254,33 -33,18.2254 -33,0 C-33,-18.2254 -18.2254,-33 0,-33 C18.2254,-33 33,-18.2254 33,0 " fill-rule="evenodd"/>
   </g>
   <g fill="none" font-size="29.1042" font-weight="400" stroke-width="7" font-family="MS Shell Dlg 2" stroke-opacity="1" font-style="normal" stroke-linecap="round" stroke="#000000" transform="matrix(1,0,0,1,1878.59,1845.01)" stroke-linejoin="bevel">
    <path vector-effect="none" d="M200,200 L200,-200" fill-rule="evenodd"/>
   </g>
   <g fill="none" font-size="29.1042" font-weight="400" stroke-width="7" font-family="MS Shell Dlg 2" stroke-opacity="1" font-style="normal" stroke-linecap="round" stroke="#000000" transform="matrix(1,0,0,1,1878.59,1845.01)" stroke-linejoin="bevel">
    <path vector-effect="none" d="M200,200 L-200,200" fill-rule="evenodd"/>
   </g>
   <g fill="none" font-size="29.1042" font-weight="400" stroke-width="7" font-family="MS Shell Dlg 2" stroke-opacity="1" font-style="normal" stroke-linecap="round" stroke="#000000" transform="matrix(1,0,0,1,1878.59,1845.01)" stroke-linejoin="bevel">
    <path vector-effect="none" d="M200,-200 L-200,-200" fill-rule="evenodd"/>
   </g>
   <g fill="none" font-size="29.1042" font-weight="400" stroke-width="7" font-family="MS Shell Dlg 2" stroke-opacity="1" font-style="normal" stroke-linecap="round" stroke="#000000" transform="matrix(1,0,0,1,1878.59,1845.01)" stroke-linejoin="bevel">
    <path vector-effect="none" d="M-200,200 L-200,-200" fill-rule="evenodd"/>
   </g>
   <g fill="none" font-size="29.1042" font-weight="400" stroke-width="7" font-family="MS Shell Dlg 2" stroke-opacity="1" font-style="normal" stroke-linecap="round" stroke="#000000" transform="matrix(1,0,0,1,1878.59,1845.01)" stroke-linejoin="bevel">
    <path vector-effect="none" d="M33,0 C33,18.2254 18.2254,33 0,33 C-18.2254,33 -33,18.2254 -33,0 C-33,-18.2254 -18.2254,-33 0,-33 C18.2254,-33 33,-18.2254 33,0 " fill-rule="evenodd"/>
   </g>
   <g fill="none" font-size="29.1042" font-weight="400" stroke-width="1" font-family="MS Shell Dlg 2" stroke-opacity="1" font-style="normal" stroke-linecap="square" stroke="#000000" transform="matrix(0,-1,1,0,2262.9,1907.26)" stroke-linejoin="bevel">
    <text fill="#000000" font-size="67" font-weight="400" y="92" font-family="osifont" x="4" font-style="normal" xml:space="preserve" fill-opacity="1" stroke="none">20.0</text>
   </g>
   <g fill="none" font-size="29.1042" font-weight="400" stroke-width="3.5" font-family="MS Shell Dlg 2" stroke-opacity="1" font-style="normal" stroke-linecap="round" stroke="#000000" transform="matrix(1,0,0,1,1878.59,1845.01)" stroke-linejoin="bevel">
    <path vector-effect="none" d="M510.313,200 L510.313,-200 M200,-200 L538.313,-200 M200,200 L538.313,200" fill-rule="evenodd"/>
   </g>
   <g fill="#000000" font-size="29.1042" font-weight="400" stroke-width="3.5" font-family="MS Shell Dlg 2" stroke-opacity="1" font-style="normal" stroke-linecap="round" fill-opacity="1" stroke="#000000" transform="matrix(1,0,0,1,2388.9,1645.01)" stroke-linejoin="bevel">
    <path vector-effect="none" d="M0,0 L-5.83333,35 L5.83333,35 L0,0" fill-rule="evenodd"/>
   </g>
   <g fill="#000000" font-size="29.1042" font-weight="400" stroke-width="3.5" font-family="MS Shell Dlg 2" stroke-opacity="1" font-style="normal" stroke-linecap="round" fill-opacity="1" stroke="#000000" transform="matrix(1,0,0,1,2388.9,2045.01)" stroke-linejoin="bevel">
    <path vector-effect="none" d="M0,0 L5.83333,-35 L-5.83333,-35 L0,0" fill-rule="evenodd"/>
   </g>
   <g fill="none" font-size="29.1042" font-weight="400" stroke-width="1" font-family="MS Shell Dlg 2" stroke-opacity="1" font-style="normal" stroke-linecap="square" stroke="#000000" transform="matrix(1,0,0,1,1816.34,2181.57)" stroke-linejoin="bevel">
    <text fill="#000000" font-size="67" font-weight="400" y="92" font-family="osifont" x="4" font-style="normal" xml:space="preserve" fill-opacity="1" stroke="none">20.0</text>
   </g>
   <g fill="none" font-size="29.1042" font-weight="400" stroke-width="3.5" font-family="MS Shell Dlg 2" stroke-opacity="1" font-style="normal" stroke-linecap="round" stroke="#000000" transform="matrix(1,0,0,1,1878.59,1845.01)" stroke-linejoin="bevel">
    <path vector-effect="none" d="M200,462.556 L-200,462.556 M-200,200 L-200,490.556 M200,200 L200,490.556" fill-rule="evenodd"/>
   </g>
   <g fill="#000000" font-size="29.1042" font-weight="400" stroke-width="3.5" font-family="MS Shell Dlg 2" stroke-opacity="1" font-style="normal" stroke-linecap="round" fill-opacity="1" stroke="#000000" transform="matrix(1,0,0,1,1678.59,2307.57)" stroke-linejoin="bevel">
    <path vector-effect="none" d="M0,0 L35,5.83333 L35,-5.83333 L0,0" fill-rule="evenodd"/>
   </g>
   <g fill="#000000" font-size="29.1042" font-weight="400" stroke-width="3.5" font-family="MS Shell Dlg 2" stroke-opacity="1" font-style="normal" stroke-linecap="round" fill-opacity="1" stroke="#000000" transform="matrix(1,0,0,1,2078.59,2307.57)" stroke-linejoin="bevel">
    <path vector-effect="none" d="M0,0 L-35,-5.83333 L-35,5.83333 L0,0" fill-rule="evenodd"/>
   </g>
   <g fill="none" font-size="29.1042" font-weight="400" stroke-width="1" font-family="MS Shell Dlg 2" stroke-opacity="1" font-style="normal" stroke-linecap="square" stroke="#000000" transform="matrix(0,-1,1,0,1394,2003.39)" stroke-linejoin="bevel">
    <text fill="#000000" font-size="67" font-weight="400" y="92" font-family="osifont" x="4" font-style="normal" xml:space="preserve" fill-opacity="1" stroke="none">10.0</text>
   </g>
   <g fill="none" font-size="29.1042" font-weight="400" stroke-width="3.5" font-family="MS Shell Dlg 2" stroke-opacity="1" font-style="normal" stroke-linecap="round" stroke="#000000" transform="matrix(1,0,0,1,1878.59,1845.01)" stroke-linejoin="bevel">
    <path vector-effect="none" d="M-358.588,200 L-358.588,-1.77636e-14 M0,0 L-386.588,-1.91506e-14 M0,200 L-386.588,200" fill-rule="evenodd"/>
   </g>
   <g fill="#000000" font-size="29.1042" font-weight="400" stroke-width="3.5" font-family="MS Shell Dlg 2" stroke-opacity="1" font-style="normal" stroke-linecap="round" fill-opacity="1" stroke="#000000" transform="matrix(1,0,0,1,1520,1845.01)" stroke-linejoin="bevel">
    <path vector-effect="none" d="M0,0 L-5.83333,35 L5.83333,35 L0,0" fill-rule="evenodd"/>
   </g>
   <g fill="#000000" font-size="29.1042" font-weight="400" stroke-width="3.5" font-family="MS Shell Dlg 2" stroke-opacity="1" font-style="normal" stroke-linecap="round" fill-opacity="1" stroke="#000000" transform="matrix(1,0,0,1,1520,2045.01)" stroke-linejoin="bevel">
    <path vector-effect="none" d="M0,0 L5.83333,-35 L-5.83333,-35 L0,0" fill-rule="evenodd"/>
   </g>
   <g fill="none" font-size="29.1042" font-weight="400" stroke-width="1" font-family="MS Shell Dlg 2" stroke-opacity="1" font-style="normal" stroke-linecap="square" stroke="#000000" transform="matrix(1,0,0,1,1920.22,1429.13)" stroke-linejoin="bevel">
    <text fill="#000000" font-size="67" font-weight="400" y="92" font-family="osifont" x="4" font-style="normal" xml:space="preserve" fill-opacity="1" stroke="none">10.0</text>
   </g>
   <g fill="none" font-size="29.1042" font-weight="400" stroke-width="3.5" font-family="MS Shell Dlg 2" stroke-opacity="1" font-style="normal" stroke-linecap="round" stroke="#000000" transform="matrix(1,0,0,1,1878.59,1845.01)" stroke-linejoin="bevel">
    <path vector-effect="none" d="M200,-289.888 L0,-289.888 M0,0 L0,-317.888 M200,0 L200,-317.888" fill-rule="evenodd"/>
   </g>
   <g fill="#000000" font-size="29.1042" font-weight="400" stroke-width="3.5" font-family="MS Shell Dlg 2" stroke-opacity="1" font-style="normal" stroke-linecap="round" fill-opacity="1" stroke="#000000" transform="matrix(1,0,0,1,1878.59,1555.13)" stroke-linejoin="bevel">
    <path vector-effect="none" d="M0,0 L35,5.83333 L35,-5.83333 L0,0" fill-rule="evenodd"/>
   </g>
   <g fill="#000000" font-size="29.1042" font-weight="400" stroke-width="3.5" font-family="MS Shell Dlg 2" stroke-opacity="1" font-style="normal" stroke-linecap="round" fill-opacity="1" stroke="#000000" transform="matrix(1,0,0,1,2078.59,1555.13)" stroke-linejoin="bevel">
    <path vector-effect="none" d="M0,0 L-35,-5.83333 L-35,5.83333 L0,0" fill-rule="evenodd"/>
   </g>
   <g fill="none" font-size="29.1042" font-weight="400" stroke-width="1" font-family="MS Shell Dlg 2" stroke-opacity="1" font-style="normal" stroke-linecap="square" stroke="#000000" transform="matrix(0.943902,0.330225,-0.330225,0.943902,1416.71,1549.94)" stroke-linejoin="bevel">
    <text fill="#000000" font-size="67" font-weight="400" y="92" font-family="osifont" x="4" font-style="normal" xml:space="preserve" fill-opacity="1" stroke="none">⌀3.3</text>
   </g>
   <g fill="none" font-size="29.1042" font-weight="400" stroke-width="3.5" font-family="MS Shell Dlg 2" stroke-opacity="1" font-style="normal" stroke-linecap="round" stroke="#000000" transform="matrix(1,0,0,1,1878.59,1845.01)" stroke-linejoin="bevel">
    <path vector-effect="none" d="M97.2219,34.0132 L-506.79,-177.301" fill-rule="evenodd"/>
   </g>
   <g fill="#000000" font-size="29.1042" font-weight="400" stroke-width="3.5" font-family="MS Shell Dlg 2" stroke-opacity="1" font-style="normal" stroke-linecap="round" fill-opacity="1" stroke="#000000" transform="matrix(1,0,0,1,1847.44,1834.12)" stroke-linejoin="bevel">
    <path vector-effect="none" d="M0,0 L-31.1103,-17.064 L-34.9629,-6.05178 L0,0" fill-rule="evenodd"/>
   </g>
   <g fill="#000000" font-size="29.1042" font-weight="400" stroke-width="3.5" font-family="MS Shell Dlg 2" stroke-opacity="1" font-style="normal" stroke-linecap="round" fill-opacity="1" stroke="#000000" transform="matrix(1,0,0,1,1909.74,1855.91)" stroke-linejoin="bevel">
    <path vector-effect="none" d="M0,0 L31.1103,17.064 L34.9629,6.05178 L0,0" fill-rule="evenodd"/>
   </g>
   <g fill="#f1f3f5" font-size="29.1042" font-weight="400" font-family="MS Shell Dlg 2" font-style="normal" fill-opacity="0" stroke="none" transform="matrix(1,0,0,1,1878.59,945.014)">
    <path vector-effect="non-scaling-stroke" d="M200,200 L-200,200 L-200,112 L112,-200 L200,-200 L200,200" fill-rule="evenodd"/>
   </g>
   <g fill="#f1f3f5" font-size="29.1042" font-weight="400" font-family="MS Shell Dlg 2" font-style="normal" fill-opacity="0" stroke="none" transform="matrix(1,0,0,1,1878.59,945.014)">
    <path vector-effect="non-scaling-stroke" d="M133,0 C133,18.2254 118.225,33 100,33 C81.7746,33 67,18.2254 67,0 C67,-18.2254 81.7746,-33 100,-33 C118.225,-33 133,-18.2254 133,0 " fill-rule="evenodd"/>
   </g>
   <g fill="none" font-size="29.1042" font-weight="400" stroke-width="7" font-family="MS Shell Dlg 2" stroke-opacity="1" font-style="normal" stroke-linecap="round" stroke="#000000" transform="matrix(1,0,0,1,1878.59,945.014)" stroke-linejoin="bevel">
    <path vector-effect="none" d="M200,200 L-200,200" fill-rule="evenodd"/>
   </g>
   <g fill="none" font-size="29.1042" font-weight="400" stroke-width="7" font-family="MS Shell Dlg 2" stroke-opacity="1" font-style="normal" stroke-linecap="round" stroke="#000000" transform="matrix(1,0,0,1,1878.59,945.014)" stroke-linejoin="bevel">
    <path vector-effect="none" d="M200,-200 L200,200" fill-rule="evenodd"/>
   </g>
   <g fill="none" font-size="29.1042" font-weight="400" stroke-width="7" font-family="MS Shell Dlg 2" stroke-opacity="1" font-style="normal" stroke-linecap="round" stroke="#000000" transform="matrix(1,0,0,1,1878.59,945.014)" stroke-linejoin="bevel">
    <path vector-effect="none" d="M-200,200 L-200,112" fill-rule="evenodd"/>
   </g>
   <g fill="none" font-size="29.1042" font-weight="400" stroke-width="7" font-family="MS Shell Dlg 2" stroke-opacity="1" font-style="normal" stroke-linecap="round" stroke="#000000" transform="matrix(1,0,0,1,1878.59,945.014)" stroke-linejoin="bevel">
    <path vector-effect="none" d="M112,-200 L200,-200" fill-rule="evenodd"/>
   </g>
   <g fill="none" font-size="29.1042" font-weight="400" stroke-width="7" font-family="MS Shell Dlg 2" stroke-opacity="1" font-style="normal" stroke-linecap="round" stroke="#000000" transform="matrix(1,0,0,1,1878.59,945.014)" stroke-linejoin="bevel">
    <path vector-effect="none" d="M-200,112 L112,-200" fill-rule="evenodd"/>
   </g>
   <g fill="none" font-size="29.1042" font-weight="400" stroke-width="7" font-family="MS Shell Dlg 2" stroke-opacity="1" font-style="normal" stroke-linecap="round" stroke="#000000" transform="matrix(1,0,0,1,1878.59,945.014)" stroke-linejoin="bevel">
    <path vector-effect="none" d="M133,0 C133,18.2254 118.225,33 100,33 C81.7746,33 67,18.2254 67,0 C67,-18.2254 81.7746,-33 100,-33 C118.225,-33 133,-18.2254 133,0 " fill-rule="evenodd"/>
   </g>
   <g fill="none" font-size="29.1042" font-weight="400" stroke-width="1" font-family="MS Shell Dlg 2" stroke-opacity="1" font-style="normal" stroke-linecap="square" stroke="#000000" transform="matrix(0,-1,1,0,2283.1,1007.26)" stroke-linejoin="bevel">
    <text fill="#000000" font-size="67" font-weight="400" y="92" font-family="osifont" x="4" font-style="normal" xml:space="preserve" fill-opacity="1" stroke="none">20.0</text>
   </g>
   <g fill="none" font-size="29.1042" font-weight="400" stroke-width="3.5" font-family="MS Shell Dlg 2" stroke-opacity="1" font-style="normal" stroke-linecap="round" stroke="#000000" transform="matrix(1,0,0,1,1878.59,945.014)" stroke-linejoin="bevel">
    <path vector-effect="none" d="M530.507,-200 L530.507,200 M200,200 L558.507,200 M200,-200 L558.507,-200" fill-rule="evenodd"/>
   </g>
   <g fill="#000000" font-size="29.1042" font-weight="400" stroke-width="3.5" font-family="MS Shell Dlg 2" stroke-opacity="1" font-style="normal" stroke-linecap="round" fill-opacity="1" stroke="#000000" transform="matrix(1,0,0,1,2409.1,1145.01)" stroke-linejoin="bevel">
    <path vector-effect="none" d="M0,0 L5.83333,-35 L-5.83333,-35 L0,0" fill-rule="evenodd"/>
   </g>
   <g fill="#000000" font-size="29.1042" font-weight="400" stroke-width="3.5" font-family="MS Shell Dlg 2" stroke-opacity="1" font-style="normal" stroke-linecap="round" fill-opacity="1" stroke="#000000" transform="matrix(1,0,0,1,2409.1,745.014)" stroke-linejoin="bevel">
    <path vector-effect="none" d="M0,0 L-5.83333,35 L5.83333,35 L0,0" fill-rule="evenodd"/>
   </g>
   <g fill="none" font-size="29.1042" font-weight="400" stroke-width="1" font-family="MS Shell Dlg 2" stroke-opacity="1" font-style="normal" stroke-linecap="square" stroke="#000000" transform="matrix(0,-1,1,0,1368.57,1151.01)" stroke-linejoin="bevel">
    <text fill="#000000" font-size="67" font-weight="400" y="92" font-family="osifont" x="4" font-style="normal" xml:space="preserve" fill-opacity="1" stroke="none">4.4</text>
   </g>
   <g fill="none" font-size="29.1042" font-weight="400" stroke-width="3.5" font-family="MS Shell Dlg 2" stroke-opacity="1" font-style="normal" stroke-linecap="round" stroke="#000000" transform="matrix(1,0,0,1,1878.59,945.014)" stroke-linejoin="bevel">
    <path vector-effect="none" d="M-384.018,270 L-384.018,42 M-200,112 L-412.018,112 M-200,200 L-412.018,200" fill-rule="evenodd"/>
   </g>
   <g fill="#000000" font-size="29.1042" font-weight="400" stroke-width="3.5" font-family="MS Shell Dlg 2" stroke-opacity="1" font-style="normal" stroke-linecap="round" fill-opacity="1" stroke="#000000" transform="matrix(1,0,0,1,1494.57,1057.01)" stroke-linejoin="bevel">
    <path vector-effect="none" d="M0,0 L5.83333,-35 L-5.83333,-35 L0,0" fill-rule="evenodd"/>
   </g>
   <g fill="#000000" font-size="29.1042" font-weight="400" stroke-width="3.5" font-family="MS Shell Dlg 2" stroke-opacity="1" font-style="normal" stroke-linecap="round" fill-opacity="1" stroke="#000000" transform="matrix(1,0,0,1,1494.57,1145.01)" stroke-linejoin="bevel">
    <path vector-effect="none" d="M0,0 L-5.83333,35 L5.83333,35 L0,0" fill-rule="evenodd"/>
   </g>
   <g fill="none" font-size="29.1042" font-weight="400" stroke-width="1" font-family="MS Shell Dlg 2" stroke-opacity="1" font-style="normal" stroke-linecap="square" stroke="#000000" transform="matrix(0,-1,1,0,2144.75,1103.39)" stroke-linejoin="bevel">
    <text fill="#000000" font-size="67" font-weight="400" y="92" font-family="osifont" x="4" font-style="normal" xml:space="preserve" fill-opacity="1" stroke="none">10.0</text>
   </g>
   <g fill="none" font-size="29.1042" font-weight="400" stroke-width="3.5" font-family="MS Shell Dlg 2" stroke-opacity="1" font-style="normal" stroke-linecap="round" stroke="#000000" transform="matrix(1,0,0,1,1878.59,945.014)" stroke-linejoin="bevel">
    <path vector-effect="none" d="M392.155,200 L392.155,1.77636e-14 M100,0 L420.155,1.9466e-14 M100,200 L420.155,200" fill-rule="evenodd"/>
   </g>
   <g fill="#000000" font-size="29.1042" font-weight="400" stroke-width="3.5" font-family="MS Shell Dlg 2" stroke-opacity="1" font-style="normal" stroke-linecap="round" fill-opacity="1" stroke="#000000" transform="matrix(1,0,0,1,2270.75,945.014)" stroke-linejoin="bevel">
    <path vector-effect="none" d="M0,0 L-5.83333,35 L5.83333,35 L0,0" fill-rule="evenodd"/>
   </g>
   <g fill="#000000" font-size="29.1042" font-weight="400" stroke-width="3.5" font-family="MS Shell Dlg 2" stroke-opacity="1" font-style="normal" stroke-linecap="round" fill-opacity="1" stroke="#000000" transform="matrix(1,0,0,1,2270.75,1145.01)" stroke-linejoin="bevel">
    <path vector-effect="none" d="M0,0 L5.83333,-35 L-5.83333,-35 L0,0" fill-rule="evenodd"/>
   </g>
   <g fill="none" font-size="29.1042" font-weight="400" stroke-width="1" font-family="MS Shell Dlg 2" stroke-opacity="1" font-style="normal" stroke-linecap="square" stroke="#000000" transform="matrix(1,0,0,1,1980.97,540.411)" stroke-linejoin="bevel">
    <text fill="#000000" font-size="67" font-weight="400" y="92" font-family="osifont" x="4" font-style="normal" xml:space="preserve" fill-opacity="1" stroke="none">5.0</text>
   </g>
   <g fill="none" font-size="29.1042" font-weight="400" stroke-width="3.5" font-family="MS Shell Dlg 2" stroke-opacity="1" font-style="normal" stroke-linecap="round" stroke="#000000" transform="matrix(1,0,0,1,1878.59,945.014)" stroke-linejoin="bevel">
    <path vector-effect="none" d="M270,-278.603 L30,-278.603 M100,0 L100,-306.603 M200,0 L200,-306.603" fill-rule="evenodd"/>
   </g>
   <g fill="#000000" font-size="29.1042" font-weight="400" stroke-width="3.5" font-family="MS Shell Dlg 2" stroke-opacity="1" font-style="normal" stroke-linecap="round" fill-opacity="1" stroke="#000000" transform="matrix(1,0,0,1,1978.59,666.411)" stroke-linejoin="bevel">
    <path vector-effect="none" d="M0,0 L-35,-5.83333 L-35,5.83333 L0,0" fill-rule="evenodd"/>
   </g>
   <g fill="#000000" font-size="29.1042" font-weight="400" stroke-width="3.5" font-family="MS Shell Dlg 2" stroke-opacity="1" font-style="normal" stroke-linecap="round" fill-opacity="1" stroke="#000000" transform="matrix(1,0,0,1,2078.59,666.411)" stroke-linejoin="bevel">
    <path vector-effect="none" d="M0,0 L35,5.83333 L35,-5.83333 L0,0" fill-rule="evenodd"/>
   </g>
   <g fill="none" font-size="29.1042" font-weight="400" stroke-width="1" font-family="MS Shell Dlg 2" stroke-opacity="1" font-style="normal" stroke-linecap="square" stroke="#000000" transform="matrix(1,0,0,1,1699.97,1023.19)" stroke-linejoin="bevel">
    <text fill="#000000" font-size="67" font-weight="400" y="92" font-family="osifont" x="4" font-style="normal" xml:space="preserve" fill-opacity="1" stroke="none">20.0</text>
   </g>
   <g fill="none" font-size="29.1042" font-weight="400" stroke-width="3.5" font-family="MS Shell Dlg 2" stroke-opacity="1" font-style="normal" stroke-linecap="round" stroke="#000000" transform="matrix(1,0,0,1,1878.59,945.014)" stroke-linejoin="bevel">
    <path vector-effect="none" d="M200,204.175 L-200,204.175 M-200,176.175 L-200,232.175 M200,176.175 L200,232.175" fill-rule="evenodd"/>
   </g>
   <g fill="#000000" font-size="29.1042" font-weight="400" stroke-width="3.5" font-family="MS Shell Dlg 2" stroke-opacity="1" font-style="normal" stroke-linecap="round" fill-opacity="1" stroke="#000000" transform="matrix(1,0,0,1,1678.59,1149.19)" stroke-linejoin="bevel">
    <path vector-effect="none" d="M0,0 L35,5.83333 L35,-5.83333 L0,0" fill-rule="evenodd"/>
   </g>
   <g fill="#000000" font-size="29.1042" font-weight="400" stroke-width="3.5" font-family="MS Shell Dlg 2" stroke-opacity="1" font-style="normal" stroke-linecap="round" fill-opacity="1" stroke="#000000" transform="matrix(1,0,0,1,2078.59,1149.19)" stroke-linejoin="bevel">
    <path vector-effect="none" d="M0,0 L-35,-5.83333 L-35,5.83333 L0,0" fill-rule="evenodd"/>
   </g>
   <g fill="none" font-size="29.1042" font-weight="400" stroke-width="1" font-family="MS Shell Dlg 2" stroke-opacity="1" font-style="normal" stroke-linecap="square" stroke="#000000" transform="matrix(0.461424,0.88718,-0.88718,0.461424,2539.41,563.895)" stroke-linejoin="bevel">
    <text fill="#000000" font-size="67" font-weight="400" y="92" font-family="osifont" x="4" font-style="normal" xml:space="preserve" fill-opacity="1" stroke="none">45.0°</text>
   </g>
   <g fill="none" font-size="29.1042" font-weight="400" stroke-width="3.5" font-family="MS Shell Dlg 2" stroke-opacity="1" font-style="normal" stroke-linecap="round" stroke="#000000" transform="matrix(1,0,0,1,1878.59,945.014)" stroke-linejoin="bevel">
    <path vector-effect="none" d="M695.914,200 C695.914,-71.7005 585.786,-317.679 407.733,-495.733 M112,200 L723.914,200 M112,-200 L427.532,-515.532" fill-rule="evenodd"/>
   </g>
   <g fill="#000000" font-size="29.1042" font-weight="400" stroke-width="3.5" font-family="MS Shell Dlg 2" stroke-opacity="1" font-style="normal" stroke-linecap="round" fill-opacity="1" stroke="#000000" transform="matrix(1,0,0,1,2574.5,1145.01)" stroke-linejoin="bevel">
    <path vector-effect="none" d="M0,0 L5.83333,-35 L-5.83333,-35 L0,0" fill-rule="evenodd"/>
   </g>
   <g fill="#000000" font-size="29.1042" font-weight="400" stroke-width="3.5" font-family="MS Shell Dlg 2" stroke-opacity="1" font-style="normal" stroke-linecap="round" fill-opacity="1" stroke="#000000" transform="matrix(1,0,0,1,2286.32,449.281)" stroke-linejoin="bevel">
    <path vector-effect="none" d="M0,0 L20.6239,28.8735 L28.8735,20.6239 L0,0" fill-rule="evenodd"/>
   </g>
   <g fill="none" font-size="29.1042" font-weight="400" stroke-width="1" font-family="MS Shell Dlg 2" stroke-opacity="1" font-style="normal" stroke-linecap="square" stroke="#000000" transform="matrix(0.964226,0.265081,-0.265081,0.964226,1548.05,695.978)" stroke-linejoin="bevel">
    <text fill="#000000" font-size="67" font-weight="400" y="92" font-family="osifont" x="4" font-style="normal" xml:space="preserve" fill-opacity="1" stroke="none">⌀3.3</text>
   </g>
   <g fill="none" font-size="29.1042" font-weight="400" stroke-width="3.5" font-family="MS Shell Dlg 2" stroke-opacity="1" font-style="normal" stroke-linecap="round" stroke="#000000" transform="matrix(1,0,0,1,1878.59,945.014)" stroke-linejoin="bevel">
    <path vector-effect="none" d="M199.315,27.3034 L-367.311,-128.471" fill-rule="evenodd"/>
   </g>
   <g fill="#000000" font-size="29.1042" font-weight="400" stroke-width="3.5" font-family="MS Shell Dlg 2" stroke-opacity="1" font-style="normal" stroke-linecap="round" fill-opacity="1" stroke="#000000" transform="matrix(1,0,0,1,1946.77,936.266)" stroke-linejoin="bevel">
    <path vector-effect="none" d="M0,0 L-32.2016,-14.9025 L-35.2942,-3.65319 L0,0" fill-rule="evenodd"/>
   </g>
   <g fill="#000000" font-size="29.1042" font-weight="400" stroke-width="3.5" font-family="MS Shell Dlg 2" stroke-opacity="1" font-style="normal" stroke-linecap="round" fill-opacity="1" stroke="#000000" transform="matrix(1,0,0,1,2010.41,953.762)" stroke-linejoin="bevel">
    <path vector-effect="none" d="M0,0 L32.2016,14.9025 L35.2942,3.65319 L0,0" fill-rule="evenodd"/>
   </g>
  </g>
 </g>
</svg>
