G04 #@! TF.GenerationSoftware,KiCad,Pcbnew,9.0.5*
G04 #@! TF.CreationDate,2025-10-18T17:06:13+01:00*
G04 #@! TF.ProjectId,PowerDelivery,506f7765-7244-4656-9c69-766572792e6b,rev?*
G04 #@! TF.SameCoordinates,Original*
G04 #@! TF.FileFunction,Legend,Bot*
G04 #@! TF.FilePolarity,Positive*
%FSLAX46Y46*%
G04 Gerber Fmt 4.6, Leading zero omitted, Abs format (unit mm)*
G04 Created by KiCad (PCBNEW 9.0.5) date 2025-10-18 17:06:13*
%MOMM*%
%LPD*%
G01*
G04 APERTURE LIST*
G04 Aperture macros list*
%AMRoundRect*
0 Rectangle with rounded corners*
0 $1 Rounding radius*
0 $2 $3 $4 $5 $6 $7 $8 $9 X,Y pos of 4 corners*
0 Add a 4 corners polygon primitive as box body*
4,1,4,$2,$3,$4,$5,$6,$7,$8,$9,$2,$3,0*
0 Add four circle primitives for the rounded corners*
1,1,$1+$1,$2,$3*
1,1,$1+$1,$4,$5*
1,1,$1+$1,$6,$7*
1,1,$1+$1,$8,$9*
0 Add four rect primitives between the rounded corners*
20,1,$1+$1,$2,$3,$4,$5,0*
20,1,$1+$1,$4,$5,$6,$7,0*
20,1,$1+$1,$6,$7,$8,$9,0*
20,1,$1+$1,$8,$9,$2,$3,0*%
G04 Aperture macros list end*
%ADD10C,0.200000*%
%ADD11C,0.150000*%
%ADD12C,0.120000*%
%ADD13RoundRect,0.250001X-1.399999X1.099999X-1.399999X-1.099999X1.399999X-1.099999X1.399999X1.099999X0*%
%ADD14O,3.300000X2.700000*%
%ADD15C,1.600000*%
%ADD16O,1.600000X1.600000*%
%ADD17R,3.000000X3.000000*%
%ADD18C,3.000000*%
%ADD19R,1.600000X1.600000*%
%ADD20R,2.200000X2.200000*%
%ADD21O,2.200000X2.200000*%
%ADD22C,2.400000*%
%ADD23O,2.400000X2.400000*%
%ADD24C,1.440000*%
%ADD25R,1.500000X1.500000*%
%ADD26C,1.500000*%
%ADD27C,5.700000*%
%ADD28O,3.500000X3.500000*%
%ADD29R,2.000000X1.905000*%
%ADD30O,2.000000X1.905000*%
%ADD31R,1.800000X1.800000*%
%ADD32C,1.800000*%
%ADD33R,1.700000X1.700000*%
%ADD34O,1.700000X1.700000*%
G04 APERTURE END LIST*
D10*
X126681279Y-81901028D02*
X126681279Y-80401028D01*
X126681279Y-80401028D02*
X126109850Y-80401028D01*
X126109850Y-80401028D02*
X125966993Y-80472457D01*
X125966993Y-80472457D02*
X125895564Y-80543885D01*
X125895564Y-80543885D02*
X125824136Y-80686742D01*
X125824136Y-80686742D02*
X125824136Y-80901028D01*
X125824136Y-80901028D02*
X125895564Y-81043885D01*
X125895564Y-81043885D02*
X125966993Y-81115314D01*
X125966993Y-81115314D02*
X126109850Y-81186742D01*
X126109850Y-81186742D02*
X126681279Y-81186742D01*
X125252707Y-81829600D02*
X125038422Y-81901028D01*
X125038422Y-81901028D02*
X124681279Y-81901028D01*
X124681279Y-81901028D02*
X124538422Y-81829600D01*
X124538422Y-81829600D02*
X124466993Y-81758171D01*
X124466993Y-81758171D02*
X124395564Y-81615314D01*
X124395564Y-81615314D02*
X124395564Y-81472457D01*
X124395564Y-81472457D02*
X124466993Y-81329600D01*
X124466993Y-81329600D02*
X124538422Y-81258171D01*
X124538422Y-81258171D02*
X124681279Y-81186742D01*
X124681279Y-81186742D02*
X124966993Y-81115314D01*
X124966993Y-81115314D02*
X125109850Y-81043885D01*
X125109850Y-81043885D02*
X125181279Y-80972457D01*
X125181279Y-80972457D02*
X125252707Y-80829600D01*
X125252707Y-80829600D02*
X125252707Y-80686742D01*
X125252707Y-80686742D02*
X125181279Y-80543885D01*
X125181279Y-80543885D02*
X125109850Y-80472457D01*
X125109850Y-80472457D02*
X124966993Y-80401028D01*
X124966993Y-80401028D02*
X124609850Y-80401028D01*
X124609850Y-80401028D02*
X124395564Y-80472457D01*
X124109851Y-82043885D02*
X122966993Y-82043885D01*
X122324136Y-80401028D02*
X122038422Y-80401028D01*
X122038422Y-80401028D02*
X121895565Y-80472457D01*
X121895565Y-80472457D02*
X121752708Y-80615314D01*
X121752708Y-80615314D02*
X121681279Y-80901028D01*
X121681279Y-80901028D02*
X121681279Y-81401028D01*
X121681279Y-81401028D02*
X121752708Y-81686742D01*
X121752708Y-81686742D02*
X121895565Y-81829600D01*
X121895565Y-81829600D02*
X122038422Y-81901028D01*
X122038422Y-81901028D02*
X122324136Y-81901028D01*
X122324136Y-81901028D02*
X122466994Y-81829600D01*
X122466994Y-81829600D02*
X122609851Y-81686742D01*
X122609851Y-81686742D02*
X122681279Y-81401028D01*
X122681279Y-81401028D02*
X122681279Y-80901028D01*
X122681279Y-80901028D02*
X122609851Y-80615314D01*
X122609851Y-80615314D02*
X122466994Y-80472457D01*
X122466994Y-80472457D02*
X122324136Y-80401028D01*
X121038422Y-81901028D02*
X121038422Y-80401028D01*
X121038422Y-80401028D02*
X120181279Y-81901028D01*
X120181279Y-81901028D02*
X120181279Y-80401028D01*
X191082707Y-97734600D02*
X190868422Y-97806028D01*
X190868422Y-97806028D02*
X190511279Y-97806028D01*
X190511279Y-97806028D02*
X190368422Y-97734600D01*
X190368422Y-97734600D02*
X190296993Y-97663171D01*
X190296993Y-97663171D02*
X190225564Y-97520314D01*
X190225564Y-97520314D02*
X190225564Y-97377457D01*
X190225564Y-97377457D02*
X190296993Y-97234600D01*
X190296993Y-97234600D02*
X190368422Y-97163171D01*
X190368422Y-97163171D02*
X190511279Y-97091742D01*
X190511279Y-97091742D02*
X190796993Y-97020314D01*
X190796993Y-97020314D02*
X190939850Y-96948885D01*
X190939850Y-96948885D02*
X191011279Y-96877457D01*
X191011279Y-96877457D02*
X191082707Y-96734600D01*
X191082707Y-96734600D02*
X191082707Y-96591742D01*
X191082707Y-96591742D02*
X191011279Y-96448885D01*
X191011279Y-96448885D02*
X190939850Y-96377457D01*
X190939850Y-96377457D02*
X190796993Y-96306028D01*
X190796993Y-96306028D02*
X190439850Y-96306028D01*
X190439850Y-96306028D02*
X190225564Y-96377457D01*
X189582708Y-97806028D02*
X189582708Y-96306028D01*
X188082707Y-96377457D02*
X188225565Y-96306028D01*
X188225565Y-96306028D02*
X188439850Y-96306028D01*
X188439850Y-96306028D02*
X188654136Y-96377457D01*
X188654136Y-96377457D02*
X188796993Y-96520314D01*
X188796993Y-96520314D02*
X188868422Y-96663171D01*
X188868422Y-96663171D02*
X188939850Y-96948885D01*
X188939850Y-96948885D02*
X188939850Y-97163171D01*
X188939850Y-97163171D02*
X188868422Y-97448885D01*
X188868422Y-97448885D02*
X188796993Y-97591742D01*
X188796993Y-97591742D02*
X188654136Y-97734600D01*
X188654136Y-97734600D02*
X188439850Y-97806028D01*
X188439850Y-97806028D02*
X188296993Y-97806028D01*
X188296993Y-97806028D02*
X188082707Y-97734600D01*
X188082707Y-97734600D02*
X188011279Y-97663171D01*
X188011279Y-97663171D02*
X188011279Y-97163171D01*
X188011279Y-97163171D02*
X188296993Y-97163171D01*
X187725565Y-97948885D02*
X186582707Y-97948885D01*
X186225565Y-97806028D02*
X186225565Y-96306028D01*
X185511279Y-97806028D02*
X185511279Y-96306028D01*
X185511279Y-96306028D02*
X184654136Y-97806028D01*
X184654136Y-97806028D02*
X184654136Y-96306028D01*
X190225564Y-91377457D02*
X190368422Y-91306028D01*
X190368422Y-91306028D02*
X190582707Y-91306028D01*
X190582707Y-91306028D02*
X190796993Y-91377457D01*
X190796993Y-91377457D02*
X190939850Y-91520314D01*
X190939850Y-91520314D02*
X191011279Y-91663171D01*
X191011279Y-91663171D02*
X191082707Y-91948885D01*
X191082707Y-91948885D02*
X191082707Y-92163171D01*
X191082707Y-92163171D02*
X191011279Y-92448885D01*
X191011279Y-92448885D02*
X190939850Y-92591742D01*
X190939850Y-92591742D02*
X190796993Y-92734600D01*
X190796993Y-92734600D02*
X190582707Y-92806028D01*
X190582707Y-92806028D02*
X190439850Y-92806028D01*
X190439850Y-92806028D02*
X190225564Y-92734600D01*
X190225564Y-92734600D02*
X190154136Y-92663171D01*
X190154136Y-92663171D02*
X190154136Y-92163171D01*
X190154136Y-92163171D02*
X190439850Y-92163171D01*
X189511279Y-92806028D02*
X189511279Y-91306028D01*
X189511279Y-91306028D02*
X188654136Y-92806028D01*
X188654136Y-92806028D02*
X188654136Y-91306028D01*
X187939850Y-92806028D02*
X187939850Y-91306028D01*
X187939850Y-91306028D02*
X187582707Y-91306028D01*
X187582707Y-91306028D02*
X187368421Y-91377457D01*
X187368421Y-91377457D02*
X187225564Y-91520314D01*
X187225564Y-91520314D02*
X187154135Y-91663171D01*
X187154135Y-91663171D02*
X187082707Y-91948885D01*
X187082707Y-91948885D02*
X187082707Y-92163171D01*
X187082707Y-92163171D02*
X187154135Y-92448885D01*
X187154135Y-92448885D02*
X187225564Y-92591742D01*
X187225564Y-92591742D02*
X187368421Y-92734600D01*
X187368421Y-92734600D02*
X187582707Y-92806028D01*
X187582707Y-92806028D02*
X187939850Y-92806028D01*
X191082707Y-102377457D02*
X190368422Y-102377457D01*
X191225564Y-102806028D02*
X190725564Y-101306028D01*
X190725564Y-101306028D02*
X190225564Y-102806028D01*
X190082708Y-102948885D02*
X188939850Y-102948885D01*
X188654136Y-102734600D02*
X188439851Y-102806028D01*
X188439851Y-102806028D02*
X188082708Y-102806028D01*
X188082708Y-102806028D02*
X187939851Y-102734600D01*
X187939851Y-102734600D02*
X187868422Y-102663171D01*
X187868422Y-102663171D02*
X187796993Y-102520314D01*
X187796993Y-102520314D02*
X187796993Y-102377457D01*
X187796993Y-102377457D02*
X187868422Y-102234600D01*
X187868422Y-102234600D02*
X187939851Y-102163171D01*
X187939851Y-102163171D02*
X188082708Y-102091742D01*
X188082708Y-102091742D02*
X188368422Y-102020314D01*
X188368422Y-102020314D02*
X188511279Y-101948885D01*
X188511279Y-101948885D02*
X188582708Y-101877457D01*
X188582708Y-101877457D02*
X188654136Y-101734600D01*
X188654136Y-101734600D02*
X188654136Y-101591742D01*
X188654136Y-101591742D02*
X188582708Y-101448885D01*
X188582708Y-101448885D02*
X188511279Y-101377457D01*
X188511279Y-101377457D02*
X188368422Y-101306028D01*
X188368422Y-101306028D02*
X188011279Y-101306028D01*
X188011279Y-101306028D02*
X187796993Y-101377457D01*
X187154137Y-102020314D02*
X186654137Y-102020314D01*
X186439851Y-102806028D02*
X187154137Y-102806028D01*
X187154137Y-102806028D02*
X187154137Y-101306028D01*
X187154137Y-101306028D02*
X186439851Y-101306028D01*
X185796994Y-102806028D02*
X185796994Y-101306028D01*
X185796994Y-101306028D02*
X184939851Y-102806028D01*
X184939851Y-102806028D02*
X184939851Y-101306028D01*
X184296993Y-102734600D02*
X184082708Y-102806028D01*
X184082708Y-102806028D02*
X183725565Y-102806028D01*
X183725565Y-102806028D02*
X183582708Y-102734600D01*
X183582708Y-102734600D02*
X183511279Y-102663171D01*
X183511279Y-102663171D02*
X183439850Y-102520314D01*
X183439850Y-102520314D02*
X183439850Y-102377457D01*
X183439850Y-102377457D02*
X183511279Y-102234600D01*
X183511279Y-102234600D02*
X183582708Y-102163171D01*
X183582708Y-102163171D02*
X183725565Y-102091742D01*
X183725565Y-102091742D02*
X184011279Y-102020314D01*
X184011279Y-102020314D02*
X184154136Y-101948885D01*
X184154136Y-101948885D02*
X184225565Y-101877457D01*
X184225565Y-101877457D02*
X184296993Y-101734600D01*
X184296993Y-101734600D02*
X184296993Y-101591742D01*
X184296993Y-101591742D02*
X184225565Y-101448885D01*
X184225565Y-101448885D02*
X184154136Y-101377457D01*
X184154136Y-101377457D02*
X184011279Y-101306028D01*
X184011279Y-101306028D02*
X183654136Y-101306028D01*
X183654136Y-101306028D02*
X183439850Y-101377457D01*
X190511279Y-99520314D02*
X191011279Y-99520314D01*
X191011279Y-100306028D02*
X191011279Y-98806028D01*
X191011279Y-98806028D02*
X190296993Y-98806028D01*
X189796993Y-99877457D02*
X189082708Y-99877457D01*
X189939850Y-100306028D02*
X189439850Y-98806028D01*
X189439850Y-98806028D02*
X188939850Y-100306028D01*
X188439851Y-98806028D02*
X188439851Y-100020314D01*
X188439851Y-100020314D02*
X188368422Y-100163171D01*
X188368422Y-100163171D02*
X188296994Y-100234600D01*
X188296994Y-100234600D02*
X188154136Y-100306028D01*
X188154136Y-100306028D02*
X187868422Y-100306028D01*
X187868422Y-100306028D02*
X187725565Y-100234600D01*
X187725565Y-100234600D02*
X187654136Y-100163171D01*
X187654136Y-100163171D02*
X187582708Y-100020314D01*
X187582708Y-100020314D02*
X187582708Y-98806028D01*
X186154136Y-100306028D02*
X186868422Y-100306028D01*
X186868422Y-100306028D02*
X186868422Y-98806028D01*
X185868421Y-98806028D02*
X185011279Y-98806028D01*
X185439850Y-100306028D02*
X185439850Y-98806028D01*
X191225564Y-103806028D02*
X190725564Y-105306028D01*
X190725564Y-105306028D02*
X190225564Y-103806028D01*
X190082708Y-105448885D02*
X188939850Y-105448885D01*
X188654136Y-105234600D02*
X188439851Y-105306028D01*
X188439851Y-105306028D02*
X188082708Y-105306028D01*
X188082708Y-105306028D02*
X187939851Y-105234600D01*
X187939851Y-105234600D02*
X187868422Y-105163171D01*
X187868422Y-105163171D02*
X187796993Y-105020314D01*
X187796993Y-105020314D02*
X187796993Y-104877457D01*
X187796993Y-104877457D02*
X187868422Y-104734600D01*
X187868422Y-104734600D02*
X187939851Y-104663171D01*
X187939851Y-104663171D02*
X188082708Y-104591742D01*
X188082708Y-104591742D02*
X188368422Y-104520314D01*
X188368422Y-104520314D02*
X188511279Y-104448885D01*
X188511279Y-104448885D02*
X188582708Y-104377457D01*
X188582708Y-104377457D02*
X188654136Y-104234600D01*
X188654136Y-104234600D02*
X188654136Y-104091742D01*
X188654136Y-104091742D02*
X188582708Y-103948885D01*
X188582708Y-103948885D02*
X188511279Y-103877457D01*
X188511279Y-103877457D02*
X188368422Y-103806028D01*
X188368422Y-103806028D02*
X188011279Y-103806028D01*
X188011279Y-103806028D02*
X187796993Y-103877457D01*
X187154137Y-104520314D02*
X186654137Y-104520314D01*
X186439851Y-105306028D02*
X187154137Y-105306028D01*
X187154137Y-105306028D02*
X187154137Y-103806028D01*
X187154137Y-103806028D02*
X186439851Y-103806028D01*
X185796994Y-105306028D02*
X185796994Y-103806028D01*
X185796994Y-103806028D02*
X184939851Y-105306028D01*
X184939851Y-105306028D02*
X184939851Y-103806028D01*
X184296993Y-105234600D02*
X184082708Y-105306028D01*
X184082708Y-105306028D02*
X183725565Y-105306028D01*
X183725565Y-105306028D02*
X183582708Y-105234600D01*
X183582708Y-105234600D02*
X183511279Y-105163171D01*
X183511279Y-105163171D02*
X183439850Y-105020314D01*
X183439850Y-105020314D02*
X183439850Y-104877457D01*
X183439850Y-104877457D02*
X183511279Y-104734600D01*
X183511279Y-104734600D02*
X183582708Y-104663171D01*
X183582708Y-104663171D02*
X183725565Y-104591742D01*
X183725565Y-104591742D02*
X184011279Y-104520314D01*
X184011279Y-104520314D02*
X184154136Y-104448885D01*
X184154136Y-104448885D02*
X184225565Y-104377457D01*
X184225565Y-104377457D02*
X184296993Y-104234600D01*
X184296993Y-104234600D02*
X184296993Y-104091742D01*
X184296993Y-104091742D02*
X184225565Y-103948885D01*
X184225565Y-103948885D02*
X184154136Y-103877457D01*
X184154136Y-103877457D02*
X184011279Y-103806028D01*
X184011279Y-103806028D02*
X183654136Y-103806028D01*
X183654136Y-103806028D02*
X183439850Y-103877457D01*
X191154136Y-93806028D02*
X190225564Y-93806028D01*
X190225564Y-93806028D02*
X190725564Y-94377457D01*
X190725564Y-94377457D02*
X190511279Y-94377457D01*
X190511279Y-94377457D02*
X190368422Y-94448885D01*
X190368422Y-94448885D02*
X190296993Y-94520314D01*
X190296993Y-94520314D02*
X190225564Y-94663171D01*
X190225564Y-94663171D02*
X190225564Y-95020314D01*
X190225564Y-95020314D02*
X190296993Y-95163171D01*
X190296993Y-95163171D02*
X190368422Y-95234600D01*
X190368422Y-95234600D02*
X190511279Y-95306028D01*
X190511279Y-95306028D02*
X190939850Y-95306028D01*
X190939850Y-95306028D02*
X191082707Y-95234600D01*
X191082707Y-95234600D02*
X191154136Y-95163171D01*
X189582708Y-95163171D02*
X189511279Y-95234600D01*
X189511279Y-95234600D02*
X189582708Y-95306028D01*
X189582708Y-95306028D02*
X189654136Y-95234600D01*
X189654136Y-95234600D02*
X189582708Y-95163171D01*
X189582708Y-95163171D02*
X189582708Y-95306028D01*
X189011279Y-93806028D02*
X188082707Y-93806028D01*
X188082707Y-93806028D02*
X188582707Y-94377457D01*
X188582707Y-94377457D02*
X188368422Y-94377457D01*
X188368422Y-94377457D02*
X188225565Y-94448885D01*
X188225565Y-94448885D02*
X188154136Y-94520314D01*
X188154136Y-94520314D02*
X188082707Y-94663171D01*
X188082707Y-94663171D02*
X188082707Y-95020314D01*
X188082707Y-95020314D02*
X188154136Y-95163171D01*
X188154136Y-95163171D02*
X188225565Y-95234600D01*
X188225565Y-95234600D02*
X188368422Y-95306028D01*
X188368422Y-95306028D02*
X188796993Y-95306028D01*
X188796993Y-95306028D02*
X188939850Y-95234600D01*
X188939850Y-95234600D02*
X189011279Y-95163171D01*
X187654136Y-93806028D02*
X187154136Y-95306028D01*
X187154136Y-95306028D02*
X186654136Y-93806028D01*
D11*
X193833333Y-106954819D02*
X193833333Y-107669104D01*
X193833333Y-107669104D02*
X193880952Y-107811961D01*
X193880952Y-107811961D02*
X193976190Y-107907200D01*
X193976190Y-107907200D02*
X194119047Y-107954819D01*
X194119047Y-107954819D02*
X194214285Y-107954819D01*
X192833333Y-107954819D02*
X193404761Y-107954819D01*
X193119047Y-107954819D02*
X193119047Y-106954819D01*
X193119047Y-106954819D02*
X193214285Y-107097676D01*
X193214285Y-107097676D02*
X193309523Y-107192914D01*
X193309523Y-107192914D02*
X193404761Y-107240533D01*
X128833333Y-75349819D02*
X128833333Y-76064104D01*
X128833333Y-76064104D02*
X128880952Y-76206961D01*
X128880952Y-76206961D02*
X128976190Y-76302200D01*
X128976190Y-76302200D02*
X129119047Y-76349819D01*
X129119047Y-76349819D02*
X129214285Y-76349819D01*
X127880952Y-75349819D02*
X128357142Y-75349819D01*
X128357142Y-75349819D02*
X128404761Y-75826009D01*
X128404761Y-75826009D02*
X128357142Y-75778390D01*
X128357142Y-75778390D02*
X128261904Y-75730771D01*
X128261904Y-75730771D02*
X128023809Y-75730771D01*
X128023809Y-75730771D02*
X127928571Y-75778390D01*
X127928571Y-75778390D02*
X127880952Y-75826009D01*
X127880952Y-75826009D02*
X127833333Y-75921247D01*
X127833333Y-75921247D02*
X127833333Y-76159342D01*
X127833333Y-76159342D02*
X127880952Y-76254580D01*
X127880952Y-76254580D02*
X127928571Y-76302200D01*
X127928571Y-76302200D02*
X128023809Y-76349819D01*
X128023809Y-76349819D02*
X128261904Y-76349819D01*
X128261904Y-76349819D02*
X128357142Y-76302200D01*
X128357142Y-76302200D02*
X128404761Y-76254580D01*
D12*
X192170000Y-93420000D02*
X194830000Y-93420000D01*
X192170000Y-106180000D02*
X192170000Y-93420000D01*
X192170000Y-106180000D02*
X194830000Y-106180000D01*
X193500000Y-90820000D02*
X194830000Y-90820000D01*
X194830000Y-90820000D02*
X194830000Y-92150000D01*
X194830000Y-106180000D02*
X194830000Y-93420000D01*
X129830000Y-82095000D02*
X129830000Y-79495000D01*
X129830000Y-76895000D02*
X129830000Y-78225000D01*
X128500000Y-76895000D02*
X129830000Y-76895000D01*
X127170000Y-82095000D02*
X129830000Y-82095000D01*
X127170000Y-82095000D02*
X127170000Y-79495000D01*
X127170000Y-79495000D02*
X129830000Y-79495000D01*
%LPC*%
D13*
X141250000Y-122700000D03*
D14*
X141250000Y-126900000D03*
X141250000Y-131100000D03*
X141250000Y-135300000D03*
X135750000Y-122700000D03*
X135750000Y-126900000D03*
X135750000Y-131100000D03*
X135750000Y-135300000D03*
D15*
X172000000Y-77190000D03*
D16*
X172000000Y-84810000D03*
D17*
X120000000Y-72960000D03*
D18*
X120000000Y-78040000D03*
D15*
X164000000Y-92250000D03*
X164000000Y-94750000D03*
D17*
X120000000Y-106460000D03*
D18*
X120000000Y-111540000D03*
D19*
X162700000Y-126700000D03*
D16*
X162700000Y-129240000D03*
X162700000Y-131780000D03*
X162700000Y-134320000D03*
X170320000Y-134320000D03*
X170320000Y-131780000D03*
X170320000Y-129240000D03*
X170320000Y-126700000D03*
D20*
X175500000Y-69690000D03*
D21*
X175500000Y-77310000D03*
D22*
X136840000Y-60500000D03*
D23*
X157160000Y-60500000D03*
D15*
X169690000Y-93500000D03*
D16*
X177310000Y-93500000D03*
D15*
X173750000Y-126000000D03*
X176250000Y-126000000D03*
X150750000Y-116000000D03*
X153250000Y-116000000D03*
X158000000Y-70190000D03*
D16*
X158000000Y-77810000D03*
D19*
X181300000Y-105800000D03*
D16*
X181300000Y-103260000D03*
X181300000Y-100720000D03*
X181300000Y-98180000D03*
X173680000Y-98180000D03*
X173680000Y-100720000D03*
X173680000Y-103260000D03*
X173680000Y-105800000D03*
D15*
X152250000Y-81500000D03*
X149750000Y-81500000D03*
D24*
X158000000Y-93960000D03*
X158000000Y-96500000D03*
X158000000Y-99040000D03*
D25*
X175770000Y-115040000D03*
D26*
X173230000Y-112500000D03*
X175770000Y-109960000D03*
D15*
X180500000Y-113750000D03*
X180500000Y-111250000D03*
X162750000Y-138000000D03*
X165250000Y-138000000D03*
X150690000Y-125000000D03*
D16*
X158310000Y-125000000D03*
D19*
X158300000Y-112300000D03*
D16*
X158300000Y-109760000D03*
X158300000Y-107220000D03*
X158300000Y-104680000D03*
X150680000Y-104680000D03*
X150680000Y-107220000D03*
X150680000Y-109760000D03*
X150680000Y-112300000D03*
D17*
X120000000Y-118960000D03*
D18*
X120000000Y-124040000D03*
D15*
X163000000Y-105310000D03*
D16*
X163000000Y-97690000D03*
D27*
X117000000Y-61000000D03*
D13*
X141250000Y-68400000D03*
D14*
X141250000Y-72600000D03*
X141250000Y-76800000D03*
X141250000Y-81000000D03*
X141250000Y-85200000D03*
X141250000Y-89400000D03*
X141250000Y-93600000D03*
X141250000Y-97800000D03*
X141250000Y-102000000D03*
X141250000Y-106200000D03*
X141250000Y-110400000D03*
X141250000Y-114600000D03*
X135750000Y-68400000D03*
X135750000Y-72600000D03*
X135750000Y-76800000D03*
X135750000Y-81000000D03*
X135750000Y-85200000D03*
X135750000Y-89400000D03*
X135750000Y-93600000D03*
X135750000Y-97800000D03*
X135750000Y-102000000D03*
X135750000Y-106200000D03*
X135750000Y-110400000D03*
X135750000Y-114600000D03*
D27*
X192000000Y-136000000D03*
D15*
X165000000Y-70190000D03*
D16*
X165000000Y-77810000D03*
D15*
X150690000Y-132000000D03*
D16*
X158310000Y-132000000D03*
D28*
X177930000Y-62000000D03*
D29*
X161270000Y-59460000D03*
D30*
X161270000Y-62000000D03*
X161270000Y-64540000D03*
D19*
X163300000Y-81200000D03*
D16*
X160760000Y-81200000D03*
X158220000Y-81200000D03*
X155680000Y-81200000D03*
X155680000Y-88820000D03*
X158220000Y-88820000D03*
X160760000Y-88820000D03*
X163300000Y-88820000D03*
D15*
X173690000Y-90000000D03*
D16*
X181310000Y-90000000D03*
D27*
X192000000Y-61000000D03*
X117000000Y-136000000D03*
D15*
X154500000Y-70190000D03*
D16*
X154500000Y-77810000D03*
D15*
X179500000Y-69690000D03*
D16*
X179500000Y-77310000D03*
D15*
X174690000Y-129500000D03*
D16*
X182310000Y-129500000D03*
D15*
X170310000Y-109000000D03*
D16*
X162690000Y-109000000D03*
D15*
X162690000Y-112500000D03*
D16*
X170310000Y-112500000D03*
D31*
X167775000Y-120500000D03*
D32*
X165235000Y-120500000D03*
D15*
X150690000Y-135500000D03*
D16*
X158310000Y-135500000D03*
D15*
X152750000Y-101000000D03*
X150250000Y-101000000D03*
X158310000Y-121000000D03*
D16*
X150690000Y-121000000D03*
D15*
X150690000Y-128500000D03*
D16*
X158310000Y-128500000D03*
D15*
X161500000Y-70190000D03*
D16*
X161500000Y-77810000D03*
D17*
X120000000Y-85460000D03*
D18*
X120000000Y-90540000D03*
D33*
X193500000Y-92150000D03*
D34*
X193500000Y-94690000D03*
X193500000Y-97230000D03*
X193500000Y-99770000D03*
X193500000Y-102310000D03*
X193500000Y-104850000D03*
D33*
X128500000Y-78225000D03*
D34*
X128500000Y-80765000D03*
%LPD*%
M02*
