ISO-10303-21;
HEADER;
FILE_DESCRIPTION(('FreeCAD Model'),'2;1');
FILE_NAME('Open CASCADE Shape Model','2026-03-02T22:07:45',(''),(''),
  'Open CASCADE STEP processor 7.8','FreeCAD','Unknown');
FILE_SCHEMA(('AUTOMOTIVE_DESIGN { 1 0 10303 214 1 1 1 1 }'));
ENDSEC;
DATA;
#1 = APPLICATION_PROTOCOL_DEFINITION('international standard',
  'automotive_design',2000,#2);
#2 = APPLICATION_CONTEXT(
  'core data for automotive mechanical design processes');
#3 = SHAPE_DEFINITION_REPRESENTATION(#4,#10);
#4 = PRODUCT_DEFINITION_SHAPE('','',#5);
#5 = PRODUCT_DEFINITION('design','',#6,#9);
#6 = PRODUCT_DEFINITION_FORMATION('','',#7);
#7 = PRODUCT('Hole001','Hole001','',(#8));
#8 = PRODUCT_CONTEXT('',#2,'mechanical');
#9 = PRODUCT_DEFINITION_CONTEXT('part definition',#2,'design');
#10 = ADVANCED_BREP_SHAPE_REPRESENTATION('',(#11,#15),#609);
#11 = AXIS2_PLACEMENT_3D('',#12,#13,#14);
#12 = CARTESIAN_POINT('',(0.,0.,0.));
#13 = DIRECTION('',(0.,0.,1.));
#14 = DIRECTION('',(1.,0.,-0.));
#15 = MANIFOLD_SOLID_BREP('',#16);
#16 = CLOSED_SHELL('',(#17,#57,#208,#232,#256,#393,#410,#427,#444,#461,
    #473,#490,#507,#524,#541,#558,#575,#592));
#17 = ADVANCED_FACE('',(#18),#52,.F.);
#18 = FACE_BOUND('',#19,.F.);
#19 = EDGE_LOOP('',(#20,#30,#38,#46));
#20 = ORIENTED_EDGE('',*,*,#21,.F.);
#21 = EDGE_CURVE('',#22,#24,#26,.T.);
#22 = VERTEX_POINT('',#23);
#23 = CARTESIAN_POINT('',(-83.39906166072,0.,-1.E-15));
#24 = VERTEX_POINT('',#25);
#25 = CARTESIAN_POINT('',(83.399061660723,0.,-1.E-15));
#26 = LINE('',#27,#28);
#27 = CARTESIAN_POINT('',(-87.39906166072,0.,0.));
#28 = VECTOR('',#29,1.);
#29 = DIRECTION('',(1.,0.,0.));
#30 = ORIENTED_EDGE('',*,*,#31,.T.);
#31 = EDGE_CURVE('',#22,#32,#34,.T.);
#32 = VERTEX_POINT('',#33);
#33 = CARTESIAN_POINT('',(-83.39906166072,-1.5,-1.E-15));
#34 = LINE('',#35,#36);
#35 = CARTESIAN_POINT('',(-83.39906166072,0.,0.));
#36 = VECTOR('',#37,1.);
#37 = DIRECTION('',(0.,-1.,2.2E-16));
#38 = ORIENTED_EDGE('',*,*,#39,.T.);
#39 = EDGE_CURVE('',#32,#40,#42,.T.);
#40 = VERTEX_POINT('',#41);
#41 = CARTESIAN_POINT('',(83.399061660723,-1.5,-2.E-15));
#42 = LINE('',#43,#44);
#43 = CARTESIAN_POINT('',(-87.39906166072,-1.5,-4.440892098501E-16));
#44 = VECTOR('',#45,1.);
#45 = DIRECTION('',(1.,0.,0.));
#46 = ORIENTED_EDGE('',*,*,#47,.F.);
#47 = EDGE_CURVE('',#24,#40,#48,.T.);
#48 = LINE('',#49,#50);
#49 = CARTESIAN_POINT('',(83.399061660723,0.,0.));
#50 = VECTOR('',#51,1.);
#51 = DIRECTION('',(0.,-1.,2.2E-16));
#52 = PLANE('',#53);
#53 = AXIS2_PLACEMENT_3D('',#54,#55,#56);
#54 = CARTESIAN_POINT('',(-87.39906166072,0.,0.));
#55 = DIRECTION('',(0.,2.2E-16,1.));
#56 = DIRECTION('',(1.,0.,0.));
#57 = ADVANCED_FACE('',(#58,#115,#126,#137,#148,#159,#170,#181,#192),
  #203,.T.);
#58 = FACE_BOUND('',#59,.T.);
#59 = EDGE_LOOP('',(#60,#61,#69,#77,#85,#93,#101,#109));
#60 = ORIENTED_EDGE('',*,*,#21,.F.);
#61 = ORIENTED_EDGE('',*,*,#62,.T.);
#62 = EDGE_CURVE('',#22,#63,#65,.T.);
#63 = VERTEX_POINT('',#64);
#64 = CARTESIAN_POINT('',(-87.39906166072,0.,4.));
#65 = LINE('',#66,#67);
#66 = CARTESIAN_POINT('',(-93.67429624554,2.676E-14,10.275234584819));
#67 = VECTOR('',#68,1.);
#68 = DIRECTION('',(-0.707106781187,0.,0.707106781187));
#69 = ORIENTED_EDGE('',*,*,#70,.F.);
#70 = EDGE_CURVE('',#71,#63,#73,.T.);
#71 = VERTEX_POINT('',#72);
#72 = CARTESIAN_POINT('',(-87.39906166072,0.,237.));
#73 = LINE('',#74,#75);
#74 = CARTESIAN_POINT('',(-87.39906166072,-5.351E-14,241.));
#75 = VECTOR('',#76,1.);
#76 = DIRECTION('',(0.,2.2E-16,-1.));
#77 = ORIENTED_EDGE('',*,*,#78,.T.);
#78 = EDGE_CURVE('',#71,#79,#81,.T.);
#79 = VERTEX_POINT('',#80);
#80 = CARTESIAN_POINT('',(-83.39906166072,0.,241.));
#81 = LINE('',#82,#83);
#82 = CARTESIAN_POINT('',(-93.67429624554,2.676E-14,230.72476541518));
#83 = VECTOR('',#84,1.);
#84 = DIRECTION('',(0.707106781187,0.,0.707106781187));
#85 = ORIENTED_EDGE('',*,*,#86,.F.);
#86 = EDGE_CURVE('',#87,#79,#89,.T.);
#87 = VERTEX_POINT('',#88);
#88 = CARTESIAN_POINT('',(83.399061660723,0.,241.));
#89 = LINE('',#90,#91);
#90 = CARTESIAN_POINT('',(87.399061660723,-5.351E-14,241.));
#91 = VECTOR('',#92,1.);
#92 = DIRECTION('',(-1.,0.,0.));
#93 = ORIENTED_EDGE('',*,*,#94,.F.);
#94 = EDGE_CURVE('',#95,#87,#97,.T.);
#95 = VERTEX_POINT('',#96);
#96 = CARTESIAN_POINT('',(87.399061660723,0.,237.));
#97 = LINE('',#98,#99);
#98 = CARTESIAN_POINT('',(93.674296245542,2.676E-14,230.72476541518));
#99 = VECTOR('',#100,1.);
#100 = DIRECTION('',(-0.707106781187,0.,0.707106781187));
#101 = ORIENTED_EDGE('',*,*,#102,.F.);
#102 = EDGE_CURVE('',#103,#95,#105,.T.);
#103 = VERTEX_POINT('',#104);
#104 = CARTESIAN_POINT('',(87.399061660723,0.,4.));
#105 = LINE('',#106,#107);
#106 = CARTESIAN_POINT('',(87.399061660723,0.,0.));
#107 = VECTOR('',#108,1.);
#108 = DIRECTION('',(0.,-2.2E-16,1.));
#109 = ORIENTED_EDGE('',*,*,#110,.F.);
#110 = EDGE_CURVE('',#24,#103,#111,.T.);
#111 = LINE('',#112,#113);
#112 = CARTESIAN_POINT('',(93.674296245542,2.676E-14,10.275234584819));
#113 = VECTOR('',#114,1.);
#114 = DIRECTION('',(0.707106781187,0.,0.707106781187));
#115 = FACE_BOUND('',#116,.T.);
#116 = EDGE_LOOP('',(#117));
#117 = ORIENTED_EDGE('',*,*,#118,.F.);
#118 = EDGE_CURVE('',#119,#119,#121,.T.);
#119 = VERTEX_POINT('',#120);
#120 = CARTESIAN_POINT('',(-72.9,2.4E-14,10.));
#121 = CIRCLE('',#122,2.1);
#122 = AXIS2_PLACEMENT_3D('',#123,#124,#125);
#123 = CARTESIAN_POINT('',(-75.,2.665E-14,10.));
#124 = DIRECTION('',(0.,1.,-2.2E-16));
#125 = DIRECTION('',(1.,0.,0.));
#126 = FACE_BOUND('',#127,.T.);
#127 = EDGE_LOOP('',(#128));
#128 = ORIENTED_EDGE('',*,*,#129,.F.);
#129 = EDGE_CURVE('',#130,#130,#132,.T.);
#130 = VERTEX_POINT('',#131);
#131 = CARTESIAN_POINT('',(-72.9,-2.4E-14,231.));
#132 = CIRCLE('',#133,2.1);
#133 = AXIS2_PLACEMENT_3D('',#134,#135,#136);
#134 = CARTESIAN_POINT('',(-75.,2.687E-14,231.));
#135 = DIRECTION('',(0.,1.,-2.2E-16));
#136 = DIRECTION('',(1.,0.,0.));
#137 = FACE_BOUND('',#138,.T.);
#138 = EDGE_LOOP('',(#139));
#139 = ORIENTED_EDGE('',*,*,#140,.F.);
#140 = EDGE_CURVE('',#141,#141,#143,.T.);
#141 = VERTEX_POINT('',#142);
#142 = CARTESIAN_POINT('',(-41.6,2.7E-14,230.));
#143 = CIRCLE('',#144,3.5);
#144 = AXIS2_PLACEMENT_3D('',#145,#146,#147);
#145 = CARTESIAN_POINT('',(-38.1,2.665E-14,230.));
#146 = DIRECTION('',(0.,1.,-2.2E-16));
#147 = DIRECTION('',(-1.,0.,0.));
#148 = FACE_BOUND('',#149,.T.);
#149 = EDGE_LOOP('',(#150));
#150 = ORIENTED_EDGE('',*,*,#151,.F.);
#151 = EDGE_CURVE('',#152,#152,#154,.T.);
#152 = VERTEX_POINT('',#153);
#153 = CARTESIAN_POINT('',(-16.2,2.7E-14,221.5));
#154 = CIRCLE('',#155,3.5);
#155 = AXIS2_PLACEMENT_3D('',#156,#157,#158);
#156 = CARTESIAN_POINT('',(-12.7,2.665E-14,221.5));
#157 = DIRECTION('',(0.,1.,-2.2E-16));
#158 = DIRECTION('',(-1.,0.,0.));
#159 = FACE_BOUND('',#160,.T.);
#160 = EDGE_LOOP('',(#161));
#161 = ORIENTED_EDGE('',*,*,#162,.F.);
#162 = EDGE_CURVE('',#163,#163,#165,.T.);
#163 = VERTEX_POINT('',#164);
#164 = CARTESIAN_POINT('',(77.1,2.4E-14,10.));
#165 = CIRCLE('',#166,2.1);
#166 = AXIS2_PLACEMENT_3D('',#167,#168,#169);
#167 = CARTESIAN_POINT('',(75.,2.665E-14,10.));
#168 = DIRECTION('',(0.,1.,-2.2E-16));
#169 = DIRECTION('',(1.,0.,0.));
#170 = FACE_BOUND('',#171,.T.);
#171 = EDGE_LOOP('',(#172));
#172 = ORIENTED_EDGE('',*,*,#173,.F.);
#173 = EDGE_CURVE('',#174,#174,#176,.T.);
#174 = VERTEX_POINT('',#175);
#175 = CARTESIAN_POINT('',(9.2,2.7E-14,221.5));
#176 = CIRCLE('',#177,3.5);
#177 = AXIS2_PLACEMENT_3D('',#178,#179,#180);
#178 = CARTESIAN_POINT('',(12.7,2.665E-14,221.5));
#179 = DIRECTION('',(0.,1.,-2.2E-16));
#180 = DIRECTION('',(-1.,0.,0.));
#181 = FACE_BOUND('',#182,.T.);
#182 = EDGE_LOOP('',(#183));
#183 = ORIENTED_EDGE('',*,*,#184,.F.);
#184 = EDGE_CURVE('',#185,#185,#187,.T.);
#185 = VERTEX_POINT('',#186);
#186 = CARTESIAN_POINT('',(34.6,2.7E-14,230.));
#187 = CIRCLE('',#188,3.5);
#188 = AXIS2_PLACEMENT_3D('',#189,#190,#191);
#189 = CARTESIAN_POINT('',(38.1,2.665E-14,230.));
#190 = DIRECTION('',(0.,1.,-2.2E-16));
#191 = DIRECTION('',(-1.,0.,0.));
#192 = FACE_BOUND('',#193,.T.);
#193 = EDGE_LOOP('',(#194));
#194 = ORIENTED_EDGE('',*,*,#195,.F.);
#195 = EDGE_CURVE('',#196,#196,#198,.T.);
#196 = VERTEX_POINT('',#197);
#197 = CARTESIAN_POINT('',(77.1,-2.4E-14,231.));
#198 = CIRCLE('',#199,2.1);
#199 = AXIS2_PLACEMENT_3D('',#200,#201,#202);
#200 = CARTESIAN_POINT('',(75.,2.687E-14,231.));
#201 = DIRECTION('',(0.,1.,-2.2E-16));
#202 = DIRECTION('',(1.,0.,0.));
#203 = PLANE('',#204);
#204 = AXIS2_PLACEMENT_3D('',#205,#206,#207);
#205 = CARTESIAN_POINT('',(0.,0.,120.5));
#206 = DIRECTION('',(0.,1.,2.2E-16));
#207 = DIRECTION('',(0.,-2.2E-16,1.));
#208 = ADVANCED_FACE('',(#209),#227,.T.);
#209 = FACE_BOUND('',#210,.T.);
#210 = EDGE_LOOP('',(#211,#212,#213,#221));
#211 = ORIENTED_EDGE('',*,*,#62,.F.);
#212 = ORIENTED_EDGE('',*,*,#31,.T.);
#213 = ORIENTED_EDGE('',*,*,#214,.T.);
#214 = EDGE_CURVE('',#32,#215,#217,.T.);
#215 = VERTEX_POINT('',#216);
#216 = CARTESIAN_POINT('',(-87.39906166072,-1.5,4.));
#217 = LINE('',#218,#219);
#218 = CARTESIAN_POINT('',(-93.67429624554,-1.5,10.275234584819));
#219 = VECTOR('',#220,1.);
#220 = DIRECTION('',(-0.707106781187,0.,0.707106781187));
#221 = ORIENTED_EDGE('',*,*,#222,.F.);
#222 = EDGE_CURVE('',#63,#215,#223,.T.);
#223 = LINE('',#224,#225);
#224 = CARTESIAN_POINT('',(-87.39906166072,8.9E-16,4.));
#225 = VECTOR('',#226,1.);
#226 = DIRECTION('',(0.,-1.,2.2E-16));
#227 = PLANE('',#228);
#228 = AXIS2_PLACEMENT_3D('',#229,#230,#231);
#229 = CARTESIAN_POINT('',(-85.39906166072,4.4E-16,2.));
#230 = DIRECTION('',(-0.707106781187,-1.6E-16,-0.707106781187));
#231 = DIRECTION('',(-1.862915010152E-18,-1.,2.281370849898E-16));
#232 = ADVANCED_FACE('',(#233),#251,.T.);
#233 = FACE_BOUND('',#234,.F.);
#234 = EDGE_LOOP('',(#235,#236,#237,#245));
#235 = ORIENTED_EDGE('',*,*,#110,.F.);
#236 = ORIENTED_EDGE('',*,*,#47,.T.);
#237 = ORIENTED_EDGE('',*,*,#238,.T.);
#238 = EDGE_CURVE('',#40,#239,#241,.T.);
#239 = VERTEX_POINT('',#240);
#240 = CARTESIAN_POINT('',(87.399061660723,-1.5,4.));
#241 = LINE('',#242,#243);
#242 = CARTESIAN_POINT('',(93.674296245542,-1.5,10.275234584819));
#243 = VECTOR('',#244,1.);
#244 = DIRECTION('',(0.707106781187,0.,0.707106781187));
#245 = ORIENTED_EDGE('',*,*,#246,.F.);
#246 = EDGE_CURVE('',#103,#239,#247,.T.);
#247 = LINE('',#248,#249);
#248 = CARTESIAN_POINT('',(87.399061660723,8.9E-16,4.));
#249 = VECTOR('',#250,1.);
#250 = DIRECTION('',(0.,-1.,2.2E-16));
#251 = PLANE('',#252);
#252 = AXIS2_PLACEMENT_3D('',#253,#254,#255);
#253 = CARTESIAN_POINT('',(85.399061660723,4.4E-16,2.));
#254 = DIRECTION('',(0.707106781187,-1.3E-16,-0.707106781187));
#255 = DIRECTION('',(-1.807611844575E-17,1.,-2.019238815543E-16));
#256 = ADVANCED_FACE('',(#257,#300,#311,#322,#333,#344,#355,#366,#377),
  #388,.F.);
#257 = FACE_BOUND('',#258,.F.);
#258 = EDGE_LOOP('',(#259,#260,#261,#269,#277,#285,#293,#299));
#259 = ORIENTED_EDGE('',*,*,#39,.F.);
#260 = ORIENTED_EDGE('',*,*,#214,.T.);
#261 = ORIENTED_EDGE('',*,*,#262,.F.);
#262 = EDGE_CURVE('',#263,#215,#265,.T.);
#263 = VERTEX_POINT('',#264);
#264 = CARTESIAN_POINT('',(-87.39906166072,-1.5,237.));
#265 = LINE('',#266,#267);
#266 = CARTESIAN_POINT('',(-87.39906166072,-1.5,241.));
#267 = VECTOR('',#268,1.);
#268 = DIRECTION('',(0.,2.2E-16,-1.));
#269 = ORIENTED_EDGE('',*,*,#270,.T.);
#270 = EDGE_CURVE('',#263,#271,#273,.T.);
#271 = VERTEX_POINT('',#272);
#272 = CARTESIAN_POINT('',(-83.39906166072,-1.5,241.));
#273 = LINE('',#274,#275);
#274 = CARTESIAN_POINT('',(-93.67429624554,-1.5,230.72476541518));
#275 = VECTOR('',#276,1.);
#276 = DIRECTION('',(0.707106781187,0.,0.707106781187));
#277 = ORIENTED_EDGE('',*,*,#278,.F.);
#278 = EDGE_CURVE('',#279,#271,#281,.T.);
#279 = VERTEX_POINT('',#280);
#280 = CARTESIAN_POINT('',(83.399061660723,-1.5,241.));
#281 = LINE('',#282,#283);
#282 = CARTESIAN_POINT('',(87.399061660723,-1.5,241.));
#283 = VECTOR('',#284,1.);
#284 = DIRECTION('',(-1.,0.,0.));
#285 = ORIENTED_EDGE('',*,*,#286,.F.);
#286 = EDGE_CURVE('',#287,#279,#289,.T.);
#287 = VERTEX_POINT('',#288);
#288 = CARTESIAN_POINT('',(87.399061660723,-1.5,237.));
#289 = LINE('',#290,#291);
#290 = CARTESIAN_POINT('',(93.674296245542,-1.5,230.72476541518));
#291 = VECTOR('',#292,1.);
#292 = DIRECTION('',(-0.707106781187,0.,0.707106781187));
#293 = ORIENTED_EDGE('',*,*,#294,.F.);
#294 = EDGE_CURVE('',#239,#287,#295,.T.);
#295 = LINE('',#296,#297);
#296 = CARTESIAN_POINT('',(87.399061660723,-1.5,-4.440892098501E-16));
#297 = VECTOR('',#298,1.);
#298 = DIRECTION('',(0.,-2.2E-16,1.));
#299 = ORIENTED_EDGE('',*,*,#238,.F.);
#300 = FACE_BOUND('',#301,.F.);
#301 = EDGE_LOOP('',(#302));
#302 = ORIENTED_EDGE('',*,*,#303,.T.);
#303 = EDGE_CURVE('',#304,#304,#306,.T.);
#304 = VERTEX_POINT('',#305);
#305 = CARTESIAN_POINT('',(-72.9,-1.5,10.));
#306 = CIRCLE('',#307,2.1);
#307 = AXIS2_PLACEMENT_3D('',#308,#309,#310);
#308 = CARTESIAN_POINT('',(-75.,-1.5,10.));
#309 = DIRECTION('',(0.,-1.,2.2E-16));
#310 = DIRECTION('',(1.,0.,0.));
#311 = FACE_BOUND('',#312,.F.);
#312 = EDGE_LOOP('',(#313));
#313 = ORIENTED_EDGE('',*,*,#314,.T.);
#314 = EDGE_CURVE('',#315,#315,#317,.T.);
#315 = VERTEX_POINT('',#316);
#316 = CARTESIAN_POINT('',(-72.9,-1.5,231.));
#317 = CIRCLE('',#318,2.1);
#318 = AXIS2_PLACEMENT_3D('',#319,#320,#321);
#319 = CARTESIAN_POINT('',(-75.,-1.5,231.));
#320 = DIRECTION('',(0.,-1.,2.2E-16));
#321 = DIRECTION('',(1.,0.,0.));
#322 = FACE_BOUND('',#323,.F.);
#323 = EDGE_LOOP('',(#324));
#324 = ORIENTED_EDGE('',*,*,#325,.T.);
#325 = EDGE_CURVE('',#326,#326,#328,.T.);
#326 = VERTEX_POINT('',#327);
#327 = CARTESIAN_POINT('',(-41.6,-1.5,230.));
#328 = CIRCLE('',#329,3.5);
#329 = AXIS2_PLACEMENT_3D('',#330,#331,#332);
#330 = CARTESIAN_POINT('',(-38.1,-1.5,230.));
#331 = DIRECTION('',(0.,-1.,2.2E-16));
#332 = DIRECTION('',(-1.,0.,0.));
#333 = FACE_BOUND('',#334,.F.);
#334 = EDGE_LOOP('',(#335));
#335 = ORIENTED_EDGE('',*,*,#336,.T.);
#336 = EDGE_CURVE('',#337,#337,#339,.T.);
#337 = VERTEX_POINT('',#338);
#338 = CARTESIAN_POINT('',(-16.2,-1.5,221.5));
#339 = CIRCLE('',#340,3.5);
#340 = AXIS2_PLACEMENT_3D('',#341,#342,#343);
#341 = CARTESIAN_POINT('',(-12.7,-1.5,221.5));
#342 = DIRECTION('',(0.,-1.,2.2E-16));
#343 = DIRECTION('',(-1.,0.,0.));
#344 = FACE_BOUND('',#345,.F.);
#345 = EDGE_LOOP('',(#346));
#346 = ORIENTED_EDGE('',*,*,#347,.T.);
#347 = EDGE_CURVE('',#348,#348,#350,.T.);
#348 = VERTEX_POINT('',#349);
#349 = CARTESIAN_POINT('',(77.1,-1.5,10.));
#350 = CIRCLE('',#351,2.1);
#351 = AXIS2_PLACEMENT_3D('',#352,#353,#354);
#352 = CARTESIAN_POINT('',(75.,-1.5,10.));
#353 = DIRECTION('',(0.,-1.,2.2E-16));
#354 = DIRECTION('',(1.,0.,0.));
#355 = FACE_BOUND('',#356,.F.);
#356 = EDGE_LOOP('',(#357));
#357 = ORIENTED_EDGE('',*,*,#358,.T.);
#358 = EDGE_CURVE('',#359,#359,#361,.T.);
#359 = VERTEX_POINT('',#360);
#360 = CARTESIAN_POINT('',(9.2,-1.5,221.5));
#361 = CIRCLE('',#362,3.5);
#362 = AXIS2_PLACEMENT_3D('',#363,#364,#365);
#363 = CARTESIAN_POINT('',(12.7,-1.5,221.5));
#364 = DIRECTION('',(0.,-1.,2.2E-16));
#365 = DIRECTION('',(-1.,0.,0.));
#366 = FACE_BOUND('',#367,.F.);
#367 = EDGE_LOOP('',(#368));
#368 = ORIENTED_EDGE('',*,*,#369,.T.);
#369 = EDGE_CURVE('',#370,#370,#372,.T.);
#370 = VERTEX_POINT('',#371);
#371 = CARTESIAN_POINT('',(34.6,-1.5,230.));
#372 = CIRCLE('',#373,3.5);
#373 = AXIS2_PLACEMENT_3D('',#374,#375,#376);
#374 = CARTESIAN_POINT('',(38.1,-1.5,230.));
#375 = DIRECTION('',(0.,-1.,2.2E-16));
#376 = DIRECTION('',(-1.,0.,0.));
#377 = FACE_BOUND('',#378,.F.);
#378 = EDGE_LOOP('',(#379));
#379 = ORIENTED_EDGE('',*,*,#380,.T.);
#380 = EDGE_CURVE('',#381,#381,#383,.T.);
#381 = VERTEX_POINT('',#382);
#382 = CARTESIAN_POINT('',(77.1,-1.5,231.));
#383 = CIRCLE('',#384,2.1);
#384 = AXIS2_PLACEMENT_3D('',#385,#386,#387);
#385 = CARTESIAN_POINT('',(75.,-1.5,231.));
#386 = DIRECTION('',(0.,-1.,2.2E-16));
#387 = DIRECTION('',(1.,0.,0.));
#388 = PLANE('',#389);
#389 = AXIS2_PLACEMENT_3D('',#390,#391,#392);
#390 = CARTESIAN_POINT('',(0.,-1.5,120.5));
#391 = DIRECTION('',(0.,1.,2.2E-16));
#392 = DIRECTION('',(0.,-2.2E-16,1.));
#393 = ADVANCED_FACE('',(#394),#405,.F.);
#394 = FACE_BOUND('',#395,.F.);
#395 = EDGE_LOOP('',(#396,#397,#403,#404));
#396 = ORIENTED_EDGE('',*,*,#70,.F.);
#397 = ORIENTED_EDGE('',*,*,#398,.T.);
#398 = EDGE_CURVE('',#71,#263,#399,.T.);
#399 = LINE('',#400,#401);
#400 = CARTESIAN_POINT('',(-87.39906166072,5.262E-14,237.));
#401 = VECTOR('',#402,1.);
#402 = DIRECTION('',(0.,-1.,2.2E-16));
#403 = ORIENTED_EDGE('',*,*,#262,.T.);
#404 = ORIENTED_EDGE('',*,*,#222,.F.);
#405 = PLANE('',#406);
#406 = AXIS2_PLACEMENT_3D('',#407,#408,#409);
#407 = CARTESIAN_POINT('',(-87.39906166072,5.351E-14,241.));
#408 = DIRECTION('',(1.,0.,0.));
#409 = DIRECTION('',(0.,-2.2E-16,-1.));
#410 = ADVANCED_FACE('',(#411),#422,.F.);
#411 = FACE_BOUND('',#412,.F.);
#412 = EDGE_LOOP('',(#413,#414,#415,#416));
#413 = ORIENTED_EDGE('',*,*,#102,.F.);
#414 = ORIENTED_EDGE('',*,*,#246,.T.);
#415 = ORIENTED_EDGE('',*,*,#294,.T.);
#416 = ORIENTED_EDGE('',*,*,#417,.F.);
#417 = EDGE_CURVE('',#95,#287,#418,.T.);
#418 = LINE('',#419,#420);
#419 = CARTESIAN_POINT('',(87.399061660723,5.262E-14,237.));
#420 = VECTOR('',#421,1.);
#421 = DIRECTION('',(0.,-1.,2.2E-16));
#422 = PLANE('',#423);
#423 = AXIS2_PLACEMENT_3D('',#424,#425,#426);
#424 = CARTESIAN_POINT('',(87.399061660723,0.,0.));
#425 = DIRECTION('',(-1.,0.,0.));
#426 = DIRECTION('',(0.,2.2E-16,1.));
#427 = ADVANCED_FACE('',(#428),#439,.T.);
#428 = FACE_BOUND('',#429,.T.);
#429 = EDGE_LOOP('',(#430,#431,#432,#433));
#430 = ORIENTED_EDGE('',*,*,#78,.F.);
#431 = ORIENTED_EDGE('',*,*,#398,.T.);
#432 = ORIENTED_EDGE('',*,*,#270,.T.);
#433 = ORIENTED_EDGE('',*,*,#434,.F.);
#434 = EDGE_CURVE('',#79,#271,#435,.T.);
#435 = LINE('',#436,#437);
#436 = CARTESIAN_POINT('',(-83.39906166072,5.351E-14,241.));
#437 = VECTOR('',#438,1.);
#438 = DIRECTION('',(0.,-1.,2.2E-16));
#439 = PLANE('',#440);
#440 = AXIS2_PLACEMENT_3D('',#441,#442,#443);
#441 = CARTESIAN_POINT('',(-85.39906166072,5.307E-14,239.));
#442 = DIRECTION('',(-0.707106781187,-1.6E-16,0.707106781187));
#443 = DIRECTION('',(2.231370849898E-16,-1.,-3.137084989848E-18));
#444 = ADVANCED_FACE('',(#445),#456,.T.);
#445 = FACE_BOUND('',#446,.F.);
#446 = EDGE_LOOP('',(#447,#448,#449,#450));
#447 = ORIENTED_EDGE('',*,*,#94,.F.);
#448 = ORIENTED_EDGE('',*,*,#417,.T.);
#449 = ORIENTED_EDGE('',*,*,#286,.T.);
#450 = ORIENTED_EDGE('',*,*,#451,.F.);
#451 = EDGE_CURVE('',#87,#279,#452,.T.);
#452 = LINE('',#453,#454);
#453 = CARTESIAN_POINT('',(83.399061660723,5.351E-14,241.));
#454 = VECTOR('',#455,1.);
#455 = DIRECTION('',(0.,-1.,2.2E-16));
#456 = PLANE('',#457);
#457 = AXIS2_PLACEMENT_3D('',#458,#459,#460);
#458 = CARTESIAN_POINT('',(85.399061660723,5.307E-14,239.));
#459 = DIRECTION('',(0.707106781187,-1.6E-16,0.707106781187));
#460 = DIRECTION('',(2.231370849898E-16,1.,3.137084989848E-18));
#461 = ADVANCED_FACE('',(#462),#468,.F.);
#462 = FACE_BOUND('',#463,.F.);
#463 = EDGE_LOOP('',(#464,#465,#466,#467));
#464 = ORIENTED_EDGE('',*,*,#86,.F.);
#465 = ORIENTED_EDGE('',*,*,#451,.T.);
#466 = ORIENTED_EDGE('',*,*,#278,.T.);
#467 = ORIENTED_EDGE('',*,*,#434,.F.);
#468 = PLANE('',#469);
#469 = AXIS2_PLACEMENT_3D('',#470,#471,#472);
#470 = CARTESIAN_POINT('',(87.399061660723,5.351E-14,241.));
#471 = DIRECTION('',(0.,-2.2E-16,-1.));
#472 = DIRECTION('',(-1.,0.,0.));
#473 = ADVANCED_FACE('',(#474),#485,.F.);
#474 = FACE_BOUND('',#475,.T.);
#475 = EDGE_LOOP('',(#476,#482,#483,#484));
#476 = ORIENTED_EDGE('',*,*,#477,.F.);
#477 = EDGE_CURVE('',#304,#119,#478,.T.);
#478 = LINE('',#479,#480);
#479 = CARTESIAN_POINT('',(-72.9,-1.5,10.));
#480 = VECTOR('',#481,1.);
#481 = DIRECTION('',(-6.E-17,1.,-2.2E-16));
#482 = ORIENTED_EDGE('',*,*,#303,.T.);
#483 = ORIENTED_EDGE('',*,*,#477,.T.);
#484 = ORIENTED_EDGE('',*,*,#118,.T.);
#485 = CYLINDRICAL_SURFACE('',#486,2.1);
#486 = AXIS2_PLACEMENT_3D('',#487,#488,#489);
#487 = CARTESIAN_POINT('',(-75.,-1.5,10.));
#488 = DIRECTION('',(0.,1.,-2.2E-16));
#489 = DIRECTION('',(1.,0.,0.));
#490 = ADVANCED_FACE('',(#491),#502,.F.);
#491 = FACE_BOUND('',#492,.T.);
#492 = EDGE_LOOP('',(#493,#499,#500,#501));
#493 = ORIENTED_EDGE('',*,*,#494,.F.);
#494 = EDGE_CURVE('',#315,#130,#495,.T.);
#495 = LINE('',#496,#497);
#496 = CARTESIAN_POINT('',(-72.9,-1.5,231.));
#497 = VECTOR('',#498,1.);
#498 = DIRECTION('',(-6.E-17,1.,-2.2E-16));
#499 = ORIENTED_EDGE('',*,*,#314,.T.);
#500 = ORIENTED_EDGE('',*,*,#494,.T.);
#501 = ORIENTED_EDGE('',*,*,#129,.T.);
#502 = CYLINDRICAL_SURFACE('',#503,2.1);
#503 = AXIS2_PLACEMENT_3D('',#504,#505,#506);
#504 = CARTESIAN_POINT('',(-75.,-1.5,231.));
#505 = DIRECTION('',(0.,1.,-2.2E-16));
#506 = DIRECTION('',(1.,0.,0.));
#507 = ADVANCED_FACE('',(#508),#519,.F.);
#508 = FACE_BOUND('',#509,.T.);
#509 = EDGE_LOOP('',(#510,#516,#517,#518));
#510 = ORIENTED_EDGE('',*,*,#511,.F.);
#511 = EDGE_CURVE('',#326,#141,#512,.T.);
#512 = LINE('',#513,#514);
#513 = CARTESIAN_POINT('',(-41.6,-1.5,230.));
#514 = VECTOR('',#515,1.);
#515 = DIRECTION('',(5.E-17,1.,-2.2E-16));
#516 = ORIENTED_EDGE('',*,*,#325,.T.);
#517 = ORIENTED_EDGE('',*,*,#511,.T.);
#518 = ORIENTED_EDGE('',*,*,#140,.T.);
#519 = CYLINDRICAL_SURFACE('',#520,3.5);
#520 = AXIS2_PLACEMENT_3D('',#521,#522,#523);
#521 = CARTESIAN_POINT('',(-38.1,-1.5,230.));
#522 = DIRECTION('',(0.,1.,-2.2E-16));
#523 = DIRECTION('',(-1.,0.,0.));
#524 = ADVANCED_FACE('',(#525),#536,.F.);
#525 = FACE_BOUND('',#526,.T.);
#526 = EDGE_LOOP('',(#527,#533,#534,#535));
#527 = ORIENTED_EDGE('',*,*,#528,.F.);
#528 = EDGE_CURVE('',#337,#152,#529,.T.);
#529 = LINE('',#530,#531);
#530 = CARTESIAN_POINT('',(-16.2,-1.5,221.5));
#531 = VECTOR('',#532,1.);
#532 = DIRECTION('',(5.E-17,1.,-2.2E-16));
#533 = ORIENTED_EDGE('',*,*,#336,.T.);
#534 = ORIENTED_EDGE('',*,*,#528,.T.);
#535 = ORIENTED_EDGE('',*,*,#151,.T.);
#536 = CYLINDRICAL_SURFACE('',#537,3.5);
#537 = AXIS2_PLACEMENT_3D('',#538,#539,#540);
#538 = CARTESIAN_POINT('',(-12.7,-1.5,221.5));
#539 = DIRECTION('',(0.,1.,-2.2E-16));
#540 = DIRECTION('',(-1.,0.,0.));
#541 = ADVANCED_FACE('',(#542),#553,.F.);
#542 = FACE_BOUND('',#543,.T.);
#543 = EDGE_LOOP('',(#544,#550,#551,#552));
#544 = ORIENTED_EDGE('',*,*,#545,.F.);
#545 = EDGE_CURVE('',#348,#163,#546,.T.);
#546 = LINE('',#547,#548);
#547 = CARTESIAN_POINT('',(77.1,-1.5,10.));
#548 = VECTOR('',#549,1.);
#549 = DIRECTION('',(-6.E-17,1.,-2.2E-16));
#550 = ORIENTED_EDGE('',*,*,#347,.T.);
#551 = ORIENTED_EDGE('',*,*,#545,.T.);
#552 = ORIENTED_EDGE('',*,*,#162,.T.);
#553 = CYLINDRICAL_SURFACE('',#554,2.1);
#554 = AXIS2_PLACEMENT_3D('',#555,#556,#557);
#555 = CARTESIAN_POINT('',(75.,-1.5,10.));
#556 = DIRECTION('',(0.,1.,-2.2E-16));
#557 = DIRECTION('',(1.,0.,0.));
#558 = ADVANCED_FACE('',(#559),#570,.F.);
#559 = FACE_BOUND('',#560,.T.);
#560 = EDGE_LOOP('',(#561,#567,#568,#569));
#561 = ORIENTED_EDGE('',*,*,#562,.F.);
#562 = EDGE_CURVE('',#359,#174,#563,.T.);
#563 = LINE('',#564,#565);
#564 = CARTESIAN_POINT('',(9.2,-1.5,221.5));
#565 = VECTOR('',#566,1.);
#566 = DIRECTION('',(5.E-17,1.,-2.2E-16));
#567 = ORIENTED_EDGE('',*,*,#358,.T.);
#568 = ORIENTED_EDGE('',*,*,#562,.T.);
#569 = ORIENTED_EDGE('',*,*,#173,.T.);
#570 = CYLINDRICAL_SURFACE('',#571,3.5);
#571 = AXIS2_PLACEMENT_3D('',#572,#573,#574);
#572 = CARTESIAN_POINT('',(12.7,-1.5,221.5));
#573 = DIRECTION('',(0.,1.,-2.2E-16));
#574 = DIRECTION('',(-1.,0.,0.));
#575 = ADVANCED_FACE('',(#576),#587,.F.);
#576 = FACE_BOUND('',#577,.T.);
#577 = EDGE_LOOP('',(#578,#584,#585,#586));
#578 = ORIENTED_EDGE('',*,*,#579,.F.);
#579 = EDGE_CURVE('',#370,#185,#580,.T.);
#580 = LINE('',#581,#582);
#581 = CARTESIAN_POINT('',(34.6,-1.5,230.));
#582 = VECTOR('',#583,1.);
#583 = DIRECTION('',(5.E-17,1.,-2.2E-16));
#584 = ORIENTED_EDGE('',*,*,#369,.T.);
#585 = ORIENTED_EDGE('',*,*,#579,.T.);
#586 = ORIENTED_EDGE('',*,*,#184,.T.);
#587 = CYLINDRICAL_SURFACE('',#588,3.5);
#588 = AXIS2_PLACEMENT_3D('',#589,#590,#591);
#589 = CARTESIAN_POINT('',(38.1,-1.5,230.));
#590 = DIRECTION('',(0.,1.,-2.2E-16));
#591 = DIRECTION('',(-1.,0.,0.));
#592 = ADVANCED_FACE('',(#593),#604,.F.);
#593 = FACE_BOUND('',#594,.T.);
#594 = EDGE_LOOP('',(#595,#601,#602,#603));
#595 = ORIENTED_EDGE('',*,*,#596,.F.);
#596 = EDGE_CURVE('',#381,#196,#597,.T.);
#597 = LINE('',#598,#599);
#598 = CARTESIAN_POINT('',(77.1,-1.5,231.));
#599 = VECTOR('',#600,1.);
#600 = DIRECTION('',(-6.E-17,1.,-2.2E-16));
#601 = ORIENTED_EDGE('',*,*,#380,.T.);
#602 = ORIENTED_EDGE('',*,*,#596,.T.);
#603 = ORIENTED_EDGE('',*,*,#195,.T.);
#604 = CYLINDRICAL_SURFACE('',#605,2.1);
#605 = AXIS2_PLACEMENT_3D('',#606,#607,#608);
#606 = CARTESIAN_POINT('',(75.,-1.5,231.));
#607 = DIRECTION('',(0.,1.,-2.2E-16));
#608 = DIRECTION('',(1.,0.,0.));
#609 = ( GEOMETRIC_REPRESENTATION_CONTEXT(3) 
GLOBAL_UNCERTAINTY_ASSIGNED_CONTEXT((#613)) GLOBAL_UNIT_ASSIGNED_CONTEXT
((#610,#611,#612)) REPRESENTATION_CONTEXT('Context #1',
  '3D Context with UNIT and UNCERTAINTY') );
#610 = ( LENGTH_UNIT() NAMED_UNIT(*) SI_UNIT(.MILLI.,.METRE.) );
#611 = ( NAMED_UNIT(*) PLANE_ANGLE_UNIT() SI_UNIT($,.RADIAN.) );
#612 = ( NAMED_UNIT(*) SI_UNIT($,.STERADIAN.) SOLID_ANGLE_UNIT() );
#613 = UNCERTAINTY_MEASURE_WITH_UNIT(LENGTH_MEASURE(1.E-07),#610,
  'distance_accuracy_value','confusion accuracy');
#614 = PRODUCT_RELATED_PRODUCT_CATEGORY('part',$,(#7));
#615 = MECHANICAL_DESIGN_GEOMETRIC_PRESENTATION_REPRESENTATION('',(#616)
  ,#609);
#616 = STYLED_ITEM('color',(#617),#15);
#617 = PRESENTATION_STYLE_ASSIGNMENT((#618,#624));
#618 = SURFACE_STYLE_USAGE(.BOTH.,#619);
#619 = SURFACE_SIDE_STYLE('',(#620));
#620 = SURFACE_STYLE_FILL_AREA(#621);
#621 = FILL_AREA_STYLE('',(#622));
#622 = FILL_AREA_STYLE_COLOUR('',#623);
#623 = COLOUR_RGB('',1.,0.976470577825,0.807843143701);
#624 = CURVE_STYLE('',#625,POSITIVE_LENGTH_MEASURE(0.1),#626);
#625 = DRAUGHTING_PRE_DEFINED_CURVE_FONT('continuous');
#626 = DRAUGHTING_PRE_DEFINED_COLOUR('black');
ENDSEC;
END-ISO-10303-21;
