ISO-10303-21;
HEADER;
FILE_DESCRIPTION(('FreeCAD Model'),'2;1');
FILE_NAME('Open CASCADE Shape Model','2026-02-22T20:27:38',(''),(''),
  'Open CASCADE STEP processor 7.8','FreeCAD','Unknown');
FILE_SCHEMA(('AUTOMOTIVE_DESIGN { 1 0 10303 214 1 1 1 1 }'));
ENDSEC;
DATA;
#1 = APPLICATION_PROTOCOL_DEFINITION('international standard',
  'automotive_design',2000,#2);
#2 = APPLICATION_CONTEXT(
  'core data for automotive mechanical design processes');
#3 = SHAPE_DEFINITION_REPRESENTATION(#4,#10);
#4 = PRODUCT_DEFINITION_SHAPE('','',#5);
#5 = PRODUCT_DEFINITION('design','',#6,#9);
#6 = PRODUCT_DEFINITION_FORMATION('','',#7);
#7 = PRODUCT('Fillet','Fillet','',(#8));
#8 = PRODUCT_CONTEXT('',#2,'mechanical');
#9 = PRODUCT_DEFINITION_CONTEXT('part definition',#2,'design');
#10 = ADVANCED_BREP_SHAPE_REPRESENTATION('',(#11,#15),#1565);
#11 = AXIS2_PLACEMENT_3D('',#12,#13,#14);
#12 = CARTESIAN_POINT('',(0.,0.,0.));
#13 = DIRECTION('',(0.,0.,1.));
#14 = DIRECTION('',(1.,0.,-0.));
#15 = MANIFOLD_SOLID_BREP('',#16);
#16 = CLOSED_SHELL('',(#17,#417,#448,#473,#498,#522,#546,#571,#596,#620,
    #644,#669,#694,#718,#742,#767,#792,#816,#840,#865,#890,#914,#938,
    #963,#988,#1012,#1036,#1061,#1086,#1103,#1134,#1158,#1182,#1206,
    #1230,#1254,#1278,#1295,#1320,#1345,#1370,#1395,#1420,#1445,#1470,
    #1495));
#17 = ADVANCED_FACE('',(#18,#258,#324,#335,#346,#357,#368,#379,#390,#401
    ),#412,.F.);
#18 = FACE_BOUND('',#19,.F.);
#19 = EDGE_LOOP('',(#20,#30,#39,#47,#56,#64,#73,#81,#90,#98,#107,#115,
    #124,#132,#141,#149,#158,#166,#175,#183,#192,#200,#209,#217,#226,
    #234,#243,#251));
#20 = ORIENTED_EDGE('',*,*,#21,.T.);
#21 = EDGE_CURVE('',#22,#24,#26,.T.);
#22 = VERTEX_POINT('',#23);
#23 = CARTESIAN_POINT('',(63.,39.,-1.7E-14));
#24 = VERTEX_POINT('',#25);
#25 = CARTESIAN_POINT('',(-39.,39.,-1.7E-14));
#26 = LINE('',#27,#28);
#27 = CARTESIAN_POINT('',(64.,39.,0.));
#28 = VECTOR('',#29,1.);
#29 = DIRECTION('',(-1.,0.,0.));
#30 = ORIENTED_EDGE('',*,*,#31,.T.);
#31 = EDGE_CURVE('',#24,#32,#34,.T.);
#32 = VERTEX_POINT('',#33);
#33 = CARTESIAN_POINT('',(-40.,38.,-1.7E-14));
#34 = CIRCLE('',#35,1.);
#35 = AXIS2_PLACEMENT_3D('',#36,#37,#38);
#36 = CARTESIAN_POINT('',(-39.,38.,-8.44E-15));
#37 = DIRECTION('',(0.,4.4E-16,1.));
#38 = DIRECTION('',(0.,1.,-4.4E-16));
#39 = ORIENTED_EDGE('',*,*,#40,.T.);
#40 = EDGE_CURVE('',#32,#41,#43,.T.);
#41 = VERTEX_POINT('',#42);
#42 = CARTESIAN_POINT('',(-40.,33.,-1.5E-14));
#43 = LINE('',#44,#45);
#44 = CARTESIAN_POINT('',(-40.,39.,0.));
#45 = VECTOR('',#46,1.);
#46 = DIRECTION('',(0.,-1.,0.));
#47 = ORIENTED_EDGE('',*,*,#48,.T.);
#48 = EDGE_CURVE('',#41,#49,#51,.T.);
#49 = VERTEX_POINT('',#50);
#50 = CARTESIAN_POINT('',(-41.,32.,-1.4E-14));
#51 = CIRCLE('',#52,1.);
#52 = AXIS2_PLACEMENT_3D('',#53,#54,#55);
#53 = CARTESIAN_POINT('',(-41.,33.,-7.33E-15));
#54 = DIRECTION('',(0.,-4.4E-16,-1.));
#55 = DIRECTION('',(0.,1.,-4.4E-16));
#56 = ORIENTED_EDGE('',*,*,#57,.T.);
#57 = EDGE_CURVE('',#49,#58,#60,.T.);
#58 = VERTEX_POINT('',#59);
#59 = CARTESIAN_POINT('',(-49.,32.,-1.4E-14));
#60 = LINE('',#61,#62);
#61 = CARTESIAN_POINT('',(-40.,32.,0.));
#62 = VECTOR('',#63,1.);
#63 = DIRECTION('',(-1.,0.,0.));
#64 = ORIENTED_EDGE('',*,*,#65,.T.);
#65 = EDGE_CURVE('',#58,#66,#68,.T.);
#66 = VERTEX_POINT('',#67);
#67 = CARTESIAN_POINT('',(-50.,33.,-1.5E-14));
#68 = CIRCLE('',#69,1.);
#69 = AXIS2_PLACEMENT_3D('',#70,#71,#72);
#70 = CARTESIAN_POINT('',(-49.,33.,-7.33E-15));
#71 = DIRECTION('',(0.,-4.4E-16,-1.));
#72 = DIRECTION('',(0.,1.,-4.4E-16));
#73 = ORIENTED_EDGE('',*,*,#74,.T.);
#74 = EDGE_CURVE('',#66,#75,#77,.T.);
#75 = VERTEX_POINT('',#76);
#76 = CARTESIAN_POINT('',(-50.,38.,-1.7E-14));
#77 = LINE('',#78,#79);
#78 = CARTESIAN_POINT('',(-50.,32.,0.));
#79 = VECTOR('',#80,1.);
#80 = DIRECTION('',(0.,1.,0.));
#81 = ORIENTED_EDGE('',*,*,#82,.T.);
#82 = EDGE_CURVE('',#75,#83,#85,.T.);
#83 = VERTEX_POINT('',#84);
#84 = CARTESIAN_POINT('',(-51.,39.,-1.7E-14));
#85 = CIRCLE('',#86,1.);
#86 = AXIS2_PLACEMENT_3D('',#87,#88,#89);
#87 = CARTESIAN_POINT('',(-51.,38.,-8.44E-15));
#88 = DIRECTION('',(0.,4.4E-16,1.));
#89 = DIRECTION('',(0.,1.,-4.4E-16));
#90 = ORIENTED_EDGE('',*,*,#91,.T.);
#91 = EDGE_CURVE('',#83,#92,#94,.T.);
#92 = VERTEX_POINT('',#93);
#93 = CARTESIAN_POINT('',(-70.,39.,-1.7E-14));
#94 = LINE('',#95,#96);
#95 = CARTESIAN_POINT('',(-50.,39.,0.));
#96 = VECTOR('',#97,1.);
#97 = DIRECTION('',(-1.,0.,0.));
#98 = ORIENTED_EDGE('',*,*,#99,.T.);
#99 = EDGE_CURVE('',#92,#100,#102,.T.);
#100 = VERTEX_POINT('',#101);
#101 = CARTESIAN_POINT('',(-71.,38.,-1.7E-14));
#102 = CIRCLE('',#103,1.);
#103 = AXIS2_PLACEMENT_3D('',#104,#105,#106);
#104 = CARTESIAN_POINT('',(-70.,38.,-8.44E-15));
#105 = DIRECTION('',(0.,4.4E-16,1.));
#106 = DIRECTION('',(0.,1.,-4.4E-16));
#107 = ORIENTED_EDGE('',*,*,#108,.T.);
#108 = EDGE_CURVE('',#100,#109,#111,.T.);
#109 = VERTEX_POINT('',#110);
#110 = CARTESIAN_POINT('',(-71.,-31.,1.4E-14));
#111 = LINE('',#112,#113);
#112 = CARTESIAN_POINT('',(-71.,39.,0.));
#113 = VECTOR('',#114,1.);
#114 = DIRECTION('',(0.,-1.,0.));
#115 = ORIENTED_EDGE('',*,*,#116,.T.);
#116 = EDGE_CURVE('',#109,#117,#119,.T.);
#117 = VERTEX_POINT('',#118);
#118 = CARTESIAN_POINT('',(-70.,-32.,1.4E-14));
#119 = CIRCLE('',#120,1.);
#120 = AXIS2_PLACEMENT_3D('',#121,#122,#123);
#121 = CARTESIAN_POINT('',(-70.,-31.,6.88E-15));
#122 = DIRECTION('',(0.,4.4E-16,1.));
#123 = DIRECTION('',(0.,1.,-4.4E-16));
#124 = ORIENTED_EDGE('',*,*,#125,.T.);
#125 = EDGE_CURVE('',#117,#126,#128,.T.);
#126 = VERTEX_POINT('',#127);
#127 = CARTESIAN_POINT('',(-65.,-32.,1.4E-14));
#128 = LINE('',#129,#130);
#129 = CARTESIAN_POINT('',(-71.,-32.,0.));
#130 = VECTOR('',#131,1.);
#131 = DIRECTION('',(1.,0.,0.));
#132 = ORIENTED_EDGE('',*,*,#133,.T.);
#133 = EDGE_CURVE('',#126,#134,#136,.T.);
#134 = VERTEX_POINT('',#135);
#135 = CARTESIAN_POINT('',(-64.,-33.,1.5E-14));
#136 = CIRCLE('',#137,1.);
#137 = AXIS2_PLACEMENT_3D('',#138,#139,#140);
#138 = CARTESIAN_POINT('',(-65.,-33.,7.33E-15));
#139 = DIRECTION('',(0.,-4.4E-16,-1.));
#140 = DIRECTION('',(0.,1.,-4.4E-16));
#141 = ORIENTED_EDGE('',*,*,#142,.T.);
#142 = EDGE_CURVE('',#134,#143,#145,.T.);
#143 = VERTEX_POINT('',#144);
#144 = CARTESIAN_POINT('',(-64.,-38.,1.7E-14));
#145 = LINE('',#146,#147);
#146 = CARTESIAN_POINT('',(-64.,-32.,0.));
#147 = VECTOR('',#148,1.);
#148 = DIRECTION('',(0.,-1.,0.));
#149 = ORIENTED_EDGE('',*,*,#150,.F.);
#150 = EDGE_CURVE('',#151,#143,#153,.T.);
#151 = VERTEX_POINT('',#152);
#152 = CARTESIAN_POINT('',(-63.,-39.,1.7E-14));
#153 = CIRCLE('',#154,1.);
#154 = AXIS2_PLACEMENT_3D('',#155,#156,#157);
#155 = CARTESIAN_POINT('',(-63.,-38.,8.44E-15));
#156 = DIRECTION('',(0.,-4.4E-16,-1.));
#157 = DIRECTION('',(0.,1.,-4.4E-16));
#158 = ORIENTED_EDGE('',*,*,#159,.T.);
#159 = EDGE_CURVE('',#151,#160,#162,.T.);
#160 = VERTEX_POINT('',#161);
#161 = CARTESIAN_POINT('',(63.,-39.,1.7E-14));
#162 = LINE('',#163,#164);
#163 = CARTESIAN_POINT('',(-64.,-39.,0.));
#164 = VECTOR('',#165,1.);
#165 = DIRECTION('',(1.,0.,0.));
#166 = ORIENTED_EDGE('',*,*,#167,.F.);
#167 = EDGE_CURVE('',#168,#160,#170,.T.);
#168 = VERTEX_POINT('',#169);
#169 = CARTESIAN_POINT('',(64.,-38.,1.7E-14));
#170 = CIRCLE('',#171,1.);
#171 = AXIS2_PLACEMENT_3D('',#172,#173,#174);
#172 = CARTESIAN_POINT('',(63.,-38.,8.44E-15));
#173 = DIRECTION('',(0.,-4.4E-16,-1.));
#174 = DIRECTION('',(0.,1.,-4.4E-16));
#175 = ORIENTED_EDGE('',*,*,#176,.T.);
#176 = EDGE_CURVE('',#168,#177,#179,.T.);
#177 = VERTEX_POINT('',#178);
#178 = CARTESIAN_POINT('',(64.,-33.,1.5E-14));
#179 = LINE('',#180,#181);
#180 = CARTESIAN_POINT('',(64.,-39.,0.));
#181 = VECTOR('',#182,1.);
#182 = DIRECTION('',(0.,1.,0.));
#183 = ORIENTED_EDGE('',*,*,#184,.F.);
#184 = EDGE_CURVE('',#185,#177,#187,.T.);
#185 = VERTEX_POINT('',#186);
#186 = CARTESIAN_POINT('',(65.,-32.,1.4E-14));
#187 = CIRCLE('',#188,1.);
#188 = AXIS2_PLACEMENT_3D('',#189,#190,#191);
#189 = CARTESIAN_POINT('',(65.,-33.,7.33E-15));
#190 = DIRECTION('',(0.,4.4E-16,1.));
#191 = DIRECTION('',(0.,1.,-4.4E-16));
#192 = ORIENTED_EDGE('',*,*,#193,.T.);
#193 = EDGE_CURVE('',#185,#194,#196,.T.);
#194 = VERTEX_POINT('',#195);
#195 = CARTESIAN_POINT('',(70.,-32.,1.4E-14));
#196 = LINE('',#197,#198);
#197 = CARTESIAN_POINT('',(64.,-32.,0.));
#198 = VECTOR('',#199,1.);
#199 = DIRECTION('',(1.,0.,0.));
#200 = ORIENTED_EDGE('',*,*,#201,.F.);
#201 = EDGE_CURVE('',#202,#194,#204,.T.);
#202 = VERTEX_POINT('',#203);
#203 = CARTESIAN_POINT('',(71.,-31.,1.4E-14));
#204 = CIRCLE('',#205,1.);
#205 = AXIS2_PLACEMENT_3D('',#206,#207,#208);
#206 = CARTESIAN_POINT('',(70.,-31.,6.88E-15));
#207 = DIRECTION('',(0.,-4.4E-16,-1.));
#208 = DIRECTION('',(0.,1.,-4.4E-16));
#209 = ORIENTED_EDGE('',*,*,#210,.T.);
#210 = EDGE_CURVE('',#202,#211,#213,.T.);
#211 = VERTEX_POINT('',#212);
#212 = CARTESIAN_POINT('',(71.,21.,-9.E-15));
#213 = LINE('',#214,#215);
#214 = CARTESIAN_POINT('',(71.,-32.,0.));
#215 = VECTOR('',#216,1.);
#216 = DIRECTION('',(0.,1.,0.));
#217 = ORIENTED_EDGE('',*,*,#218,.F.);
#218 = EDGE_CURVE('',#219,#211,#221,.T.);
#219 = VERTEX_POINT('',#220);
#220 = CARTESIAN_POINT('',(70.,22.,-1.E-14));
#221 = CIRCLE('',#222,1.);
#222 = AXIS2_PLACEMENT_3D('',#223,#224,#225);
#223 = CARTESIAN_POINT('',(70.,21.,-4.66E-15));
#224 = DIRECTION('',(0.,-4.4E-16,-1.));
#225 = DIRECTION('',(0.,1.,-4.4E-16));
#226 = ORIENTED_EDGE('',*,*,#227,.T.);
#227 = EDGE_CURVE('',#219,#228,#230,.T.);
#228 = VERTEX_POINT('',#229);
#229 = CARTESIAN_POINT('',(65.,22.,-1.E-14));
#230 = LINE('',#231,#232);
#231 = CARTESIAN_POINT('',(71.,22.,0.));
#232 = VECTOR('',#233,1.);
#233 = DIRECTION('',(-1.,0.,0.));
#234 = ORIENTED_EDGE('',*,*,#235,.F.);
#235 = EDGE_CURVE('',#236,#228,#238,.T.);
#236 = VERTEX_POINT('',#237);
#237 = CARTESIAN_POINT('',(64.,23.,-1.E-14));
#238 = CIRCLE('',#239,1.);
#239 = AXIS2_PLACEMENT_3D('',#240,#241,#242);
#240 = CARTESIAN_POINT('',(65.,23.,-5.11E-15));
#241 = DIRECTION('',(0.,4.4E-16,1.));
#242 = DIRECTION('',(0.,1.,-4.4E-16));
#243 = ORIENTED_EDGE('',*,*,#244,.T.);
#244 = EDGE_CURVE('',#236,#245,#247,.T.);
#245 = VERTEX_POINT('',#246);
#246 = CARTESIAN_POINT('',(64.,38.,-1.7E-14));
#247 = LINE('',#248,#249);
#248 = CARTESIAN_POINT('',(64.,22.,0.));
#249 = VECTOR('',#250,1.);
#250 = DIRECTION('',(0.,1.,0.));
#251 = ORIENTED_EDGE('',*,*,#252,.F.);
#252 = EDGE_CURVE('',#22,#245,#253,.T.);
#253 = CIRCLE('',#254,1.);
#254 = AXIS2_PLACEMENT_3D('',#255,#256,#257);
#255 = CARTESIAN_POINT('',(63.,38.,-8.44E-15));
#256 = DIRECTION('',(0.,-4.4E-16,-1.));
#257 = DIRECTION('',(0.,1.,-4.4E-16));
#258 = FACE_BOUND('',#259,.F.);
#259 = EDGE_LOOP('',(#260,#270,#278,#286,#294,#302,#310,#318));
#260 = ORIENTED_EDGE('',*,*,#261,.F.);
#261 = EDGE_CURVE('',#262,#264,#266,.T.);
#262 = VERTEX_POINT('',#263);
#263 = CARTESIAN_POINT('',(-83.39906166072,-70.,3.1E-14));
#264 = VERTEX_POINT('',#265);
#265 = CARTESIAN_POINT('',(83.399061660723,-70.,3.1E-14));
#266 = LINE('',#267,#268);
#267 = CARTESIAN_POINT('',(-87.39906166072,-70.,0.));
#268 = VECTOR('',#269,1.);
#269 = DIRECTION('',(1.,0.,0.));
#270 = ORIENTED_EDGE('',*,*,#271,.T.);
#271 = EDGE_CURVE('',#262,#272,#274,.T.);
#272 = VERTEX_POINT('',#273);
#273 = CARTESIAN_POINT('',(-87.39906166072,-66.,2.9E-14));
#274 = LINE('',#275,#276);
#275 = CARTESIAN_POINT('',(-81.04929624554,-72.34976541518,1.606E-14));
#276 = VECTOR('',#277,1.);
#277 = DIRECTION('',(-0.707106781187,0.707106781187,-1.6E-16));
#278 = ORIENTED_EDGE('',*,*,#279,.F.);
#279 = EDGE_CURVE('',#280,#272,#282,.T.);
#280 = VERTEX_POINT('',#281);
#281 = CARTESIAN_POINT('',(-87.39906166072,66.,-2.9E-14));
#282 = LINE('',#283,#284);
#283 = CARTESIAN_POINT('',(-87.39906166072,70.,0.));
#284 = VECTOR('',#285,1.);
#285 = DIRECTION('',(0.,-1.,0.));
#286 = ORIENTED_EDGE('',*,*,#287,.T.);
#287 = EDGE_CURVE('',#280,#288,#290,.T.);
#288 = VERTEX_POINT('',#289);
#289 = CARTESIAN_POINT('',(-83.39906166072,70.,-3.1E-14));
#290 = LINE('',#291,#292);
#291 = CARTESIAN_POINT('',(-81.04929624554,72.349765415181,-1.606E-14));
#292 = VECTOR('',#293,1.);
#293 = DIRECTION('',(0.707106781187,0.707106781187,-1.6E-16));
#294 = ORIENTED_EDGE('',*,*,#295,.F.);
#295 = EDGE_CURVE('',#296,#288,#298,.T.);
#296 = VERTEX_POINT('',#297);
#297 = CARTESIAN_POINT('',(83.399061660723,70.,-3.1E-14));
#298 = LINE('',#299,#300);
#299 = CARTESIAN_POINT('',(87.399061660723,70.,0.));
#300 = VECTOR('',#301,1.);
#301 = DIRECTION('',(-1.,0.,0.));
#302 = ORIENTED_EDGE('',*,*,#303,.F.);
#303 = EDGE_CURVE('',#304,#296,#306,.T.);
#304 = VERTEX_POINT('',#305);
#305 = CARTESIAN_POINT('',(87.399061660723,66.,-2.9E-14));
#306 = LINE('',#307,#308);
#307 = CARTESIAN_POINT('',(81.049296245542,72.349765415181,-1.606E-14));
#308 = VECTOR('',#309,1.);
#309 = DIRECTION('',(-0.707106781187,0.707106781187,-1.6E-16));
#310 = ORIENTED_EDGE('',*,*,#311,.F.);
#311 = EDGE_CURVE('',#312,#304,#314,.T.);
#312 = VERTEX_POINT('',#313);
#313 = CARTESIAN_POINT('',(87.399061660723,-66.,2.9E-14));
#314 = LINE('',#315,#316);
#315 = CARTESIAN_POINT('',(87.399061660723,-70.,0.));
#316 = VECTOR('',#317,1.);
#317 = DIRECTION('',(0.,1.,0.));
#318 = ORIENTED_EDGE('',*,*,#319,.F.);
#319 = EDGE_CURVE('',#264,#312,#320,.T.);
#320 = LINE('',#321,#322);
#321 = CARTESIAN_POINT('',(81.049296245542,-72.34976541518,1.606E-14));
#322 = VECTOR('',#323,1.);
#323 = DIRECTION('',(0.707106781187,0.707106781187,-1.6E-16));
#324 = FACE_BOUND('',#325,.F.);
#325 = EDGE_LOOP('',(#326));
#326 = ORIENTED_EDGE('',*,*,#327,.T.);
#327 = EDGE_CURVE('',#328,#328,#330,.T.);
#328 = VERTEX_POINT('',#329);
#329 = CARTESIAN_POINT('',(-72.6,-60.,2.7E-14));
#330 = CIRCLE('',#331,2.4);
#331 = AXIS2_PLACEMENT_3D('',#332,#333,#334);
#332 = CARTESIAN_POINT('',(-75.,-60.,2.7E-14));
#333 = DIRECTION('',(-0.,4.4E-16,1.));
#334 = DIRECTION('',(1.,0.,0.));
#335 = FACE_BOUND('',#336,.F.);
#336 = EDGE_LOOP('',(#337));
#337 = ORIENTED_EDGE('',*,*,#338,.T.);
#338 = EDGE_CURVE('',#339,#339,#341,.T.);
#339 = VERTEX_POINT('',#340);
#340 = CARTESIAN_POINT('',(-66.75,-37.,1.6E-14));
#341 = CIRCLE('',#342,2.25);
#342 = AXIS2_PLACEMENT_3D('',#343,#344,#345);
#343 = CARTESIAN_POINT('',(-69.,-37.,1.6E-14));
#344 = DIRECTION('',(-0.,4.4E-16,1.));
#345 = DIRECTION('',(1.,0.,0.));
#346 = FACE_BOUND('',#347,.F.);
#347 = EDGE_LOOP('',(#348));
#348 = ORIENTED_EDGE('',*,*,#349,.T.);
#349 = EDGE_CURVE('',#350,#350,#352,.T.);
#350 = VERTEX_POINT('',#351);
#351 = CARTESIAN_POINT('',(-72.6,60.,-2.7E-14));
#352 = CIRCLE('',#353,2.4);
#353 = AXIS2_PLACEMENT_3D('',#354,#355,#356);
#354 = CARTESIAN_POINT('',(-75.,60.,-2.7E-14));
#355 = DIRECTION('',(-0.,4.4E-16,1.));
#356 = DIRECTION('',(1.,0.,0.));
#357 = FACE_BOUND('',#358,.F.);
#358 = EDGE_LOOP('',(#359));
#359 = ORIENTED_EDGE('',*,*,#360,.T.);
#360 = EDGE_CURVE('',#361,#361,#363,.T.);
#361 = VERTEX_POINT('',#362);
#362 = CARTESIAN_POINT('',(-42.75,37.,-1.6E-14));
#363 = CIRCLE('',#364,2.25);
#364 = AXIS2_PLACEMENT_3D('',#365,#366,#367);
#365 = CARTESIAN_POINT('',(-45.,37.,-1.6E-14));
#366 = DIRECTION('',(-0.,4.4E-16,1.));
#367 = DIRECTION('',(1.,0.,0.));
#368 = FACE_BOUND('',#369,.F.);
#369 = EDGE_LOOP('',(#370));
#370 = ORIENTED_EDGE('',*,*,#371,.T.);
#371 = EDGE_CURVE('',#372,#372,#374,.T.);
#372 = VERTEX_POINT('',#373);
#373 = CARTESIAN_POINT('',(77.4,-60.,2.7E-14));
#374 = CIRCLE('',#375,2.4);
#375 = AXIS2_PLACEMENT_3D('',#376,#377,#378);
#376 = CARTESIAN_POINT('',(75.,-60.,2.7E-14));
#377 = DIRECTION('',(-0.,4.4E-16,1.));
#378 = DIRECTION('',(1.,0.,0.));
#379 = FACE_BOUND('',#380,.F.);
#380 = EDGE_LOOP('',(#381));
#381 = ORIENTED_EDGE('',*,*,#382,.T.);
#382 = EDGE_CURVE('',#383,#383,#385,.T.);
#383 = VERTEX_POINT('',#384);
#384 = CARTESIAN_POINT('',(71.25,-37.,1.6E-14));
#385 = CIRCLE('',#386,2.25);
#386 = AXIS2_PLACEMENT_3D('',#387,#388,#389);
#387 = CARTESIAN_POINT('',(69.,-37.,1.6E-14));
#388 = DIRECTION('',(-0.,4.4E-16,1.));
#389 = DIRECTION('',(1.,0.,0.));
#390 = FACE_BOUND('',#391,.F.);
#391 = EDGE_LOOP('',(#392));
#392 = ORIENTED_EDGE('',*,*,#393,.T.);
#393 = EDGE_CURVE('',#394,#394,#396,.T.);
#394 = VERTEX_POINT('',#395);
#395 = CARTESIAN_POINT('',(71.25,27.,-1.2E-14));
#396 = CIRCLE('',#397,2.25);
#397 = AXIS2_PLACEMENT_3D('',#398,#399,#400);
#398 = CARTESIAN_POINT('',(69.,27.,-1.2E-14));
#399 = DIRECTION('',(-0.,4.4E-16,1.));
#400 = DIRECTION('',(1.,0.,0.));
#401 = FACE_BOUND('',#402,.F.);
#402 = EDGE_LOOP('',(#403));
#403 = ORIENTED_EDGE('',*,*,#404,.T.);
#404 = EDGE_CURVE('',#405,#405,#407,.T.);
#405 = VERTEX_POINT('',#406);
#406 = CARTESIAN_POINT('',(77.4,60.,-2.7E-14));
#407 = CIRCLE('',#408,2.4);
#408 = AXIS2_PLACEMENT_3D('',#409,#410,#411);
#409 = CARTESIAN_POINT('',(75.,60.,-2.7E-14));
#410 = DIRECTION('',(-0.,4.4E-16,1.));
#411 = DIRECTION('',(1.,0.,0.));
#412 = PLANE('',#413);
#413 = AXIS2_PLACEMENT_3D('',#414,#415,#416);
#414 = CARTESIAN_POINT('',(-2.89E-15,-2.89E-15,0.));
#415 = DIRECTION('',(0.,0.,-1.));
#416 = DIRECTION('',(0.,1.,0.));
#417 = ADVANCED_FACE('',(#418),#443,.F.);
#418 = FACE_BOUND('',#419,.F.);
#419 = EDGE_LOOP('',(#420,#421,#429,#437));
#420 = ORIENTED_EDGE('',*,*,#21,.F.);
#421 = ORIENTED_EDGE('',*,*,#422,.T.);
#422 = EDGE_CURVE('',#22,#423,#425,.T.);
#423 = VERTEX_POINT('',#424);
#424 = CARTESIAN_POINT('',(63.,39.,-2.));
#425 = LINE('',#426,#427);
#426 = CARTESIAN_POINT('',(63.,39.,-1.732E-14));
#427 = VECTOR('',#428,1.);
#428 = DIRECTION('',(0.,-4.4E-16,-1.));
#429 = ORIENTED_EDGE('',*,*,#430,.F.);
#430 = EDGE_CURVE('',#431,#423,#433,.T.);
#431 = VERTEX_POINT('',#432);
#432 = CARTESIAN_POINT('',(-39.,39.,-2.));
#433 = LINE('',#434,#435);
#434 = CARTESIAN_POINT('',(32.,39.,-2.));
#435 = VECTOR('',#436,1.);
#436 = DIRECTION('',(1.,0.,0.));
#437 = ORIENTED_EDGE('',*,*,#438,.F.);
#438 = EDGE_CURVE('',#24,#431,#439,.T.);
#439 = LINE('',#440,#441);
#440 = CARTESIAN_POINT('',(-39.,39.,-1.732E-14));
#441 = VECTOR('',#442,1.);
#442 = DIRECTION('',(0.,-4.4E-16,-1.));
#443 = PLANE('',#444);
#444 = AXIS2_PLACEMENT_3D('',#445,#446,#447);
#445 = CARTESIAN_POINT('',(64.,39.,-1.732E-14));
#446 = DIRECTION('',(0.,1.,-4.4E-16));
#447 = DIRECTION('',(-1.,0.,0.));
#448 = ADVANCED_FACE('',(#449),#468,.F.);
#449 = FACE_BOUND('',#450,.F.);
#450 = EDGE_LOOP('',(#451,#452,#460,#467));
#451 = ORIENTED_EDGE('',*,*,#252,.T.);
#452 = ORIENTED_EDGE('',*,*,#453,.T.);
#453 = EDGE_CURVE('',#245,#454,#456,.T.);
#454 = VERTEX_POINT('',#455);
#455 = CARTESIAN_POINT('',(64.,38.,-2.));
#456 = LINE('',#457,#458);
#457 = CARTESIAN_POINT('',(64.,38.,-1.688E-14));
#458 = VECTOR('',#459,1.);
#459 = DIRECTION('',(0.,-4.4E-16,-1.));
#460 = ORIENTED_EDGE('',*,*,#461,.F.);
#461 = EDGE_CURVE('',#423,#454,#462,.T.);
#462 = CIRCLE('',#463,1.);
#463 = AXIS2_PLACEMENT_3D('',#464,#465,#466);
#464 = CARTESIAN_POINT('',(63.,38.,-2.));
#465 = DIRECTION('',(0.,-4.4E-16,-1.));
#466 = DIRECTION('',(0.,1.,-4.4E-16));
#467 = ORIENTED_EDGE('',*,*,#422,.F.);
#468 = CYLINDRICAL_SURFACE('',#469,1.);
#469 = AXIS2_PLACEMENT_3D('',#470,#471,#472);
#470 = CARTESIAN_POINT('',(63.,38.,-1.688E-14));
#471 = DIRECTION('',(0.,-4.4E-16,-1.));
#472 = DIRECTION('',(0.,1.,-4.4E-16));
#473 = ADVANCED_FACE('',(#474),#493,.F.);
#474 = FACE_BOUND('',#475,.T.);
#475 = EDGE_LOOP('',(#476,#477,#485,#492));
#476 = ORIENTED_EDGE('',*,*,#31,.T.);
#477 = ORIENTED_EDGE('',*,*,#478,.T.);
#478 = EDGE_CURVE('',#32,#479,#481,.T.);
#479 = VERTEX_POINT('',#480);
#480 = CARTESIAN_POINT('',(-40.,38.,-2.));
#481 = LINE('',#482,#483);
#482 = CARTESIAN_POINT('',(-40.,38.,-1.688E-14));
#483 = VECTOR('',#484,1.);
#484 = DIRECTION('',(0.,-4.4E-16,-1.));
#485 = ORIENTED_EDGE('',*,*,#486,.F.);
#486 = EDGE_CURVE('',#431,#479,#487,.T.);
#487 = CIRCLE('',#488,1.);
#488 = AXIS2_PLACEMENT_3D('',#489,#490,#491);
#489 = CARTESIAN_POINT('',(-39.,38.,-2.));
#490 = DIRECTION('',(0.,4.4E-16,1.));
#491 = DIRECTION('',(0.,1.,-4.4E-16));
#492 = ORIENTED_EDGE('',*,*,#438,.F.);
#493 = CYLINDRICAL_SURFACE('',#494,1.);
#494 = AXIS2_PLACEMENT_3D('',#495,#496,#497);
#495 = CARTESIAN_POINT('',(-39.,38.,-1.688E-14));
#496 = DIRECTION('',(0.,-4.4E-16,-1.));
#497 = DIRECTION('',(0.,1.,-4.4E-16));
#498 = ADVANCED_FACE('',(#499),#517,.F.);
#499 = FACE_BOUND('',#500,.F.);
#500 = EDGE_LOOP('',(#501,#502,#510,#516));
#501 = ORIENTED_EDGE('',*,*,#244,.F.);
#502 = ORIENTED_EDGE('',*,*,#503,.T.);
#503 = EDGE_CURVE('',#236,#504,#506,.T.);
#504 = VERTEX_POINT('',#505);
#505 = CARTESIAN_POINT('',(64.,23.,-2.));
#506 = LINE('',#507,#508);
#507 = CARTESIAN_POINT('',(64.,23.,-1.021E-14));
#508 = VECTOR('',#509,1.);
#509 = DIRECTION('',(0.,-4.4E-16,-1.));
#510 = ORIENTED_EDGE('',*,*,#511,.F.);
#511 = EDGE_CURVE('',#454,#504,#512,.T.);
#512 = LINE('',#513,#514);
#513 = CARTESIAN_POINT('',(64.,11.,-2.));
#514 = VECTOR('',#515,1.);
#515 = DIRECTION('',(0.,-1.,2.2E-16));
#516 = ORIENTED_EDGE('',*,*,#453,.F.);
#517 = PLANE('',#518);
#518 = AXIS2_PLACEMENT_3D('',#519,#520,#521);
#519 = CARTESIAN_POINT('',(64.,22.,-9.77E-15));
#520 = DIRECTION('',(1.,0.,0.));
#521 = DIRECTION('',(0.,1.,-4.4E-16));
#522 = ADVANCED_FACE('',(#523),#541,.F.);
#523 = FACE_BOUND('',#524,.F.);
#524 = EDGE_LOOP('',(#525,#526,#527,#535));
#525 = ORIENTED_EDGE('',*,*,#40,.F.);
#526 = ORIENTED_EDGE('',*,*,#478,.T.);
#527 = ORIENTED_EDGE('',*,*,#528,.F.);
#528 = EDGE_CURVE('',#529,#479,#531,.T.);
#529 = VERTEX_POINT('',#530);
#530 = CARTESIAN_POINT('',(-40.,33.,-2.));
#531 = LINE('',#532,#533);
#532 = CARTESIAN_POINT('',(-40.,19.5,-2.));
#533 = VECTOR('',#534,1.);
#534 = DIRECTION('',(0.,1.,-2.2E-16));
#535 = ORIENTED_EDGE('',*,*,#536,.F.);
#536 = EDGE_CURVE('',#41,#529,#537,.T.);
#537 = LINE('',#538,#539);
#538 = CARTESIAN_POINT('',(-40.,33.,-1.465E-14));
#539 = VECTOR('',#540,1.);
#540 = DIRECTION('',(0.,-4.4E-16,-1.));
#541 = PLANE('',#542);
#542 = AXIS2_PLACEMENT_3D('',#543,#544,#545);
#543 = CARTESIAN_POINT('',(-40.,39.,-1.732E-14));
#544 = DIRECTION('',(-1.,0.,0.));
#545 = DIRECTION('',(0.,-1.,4.4E-16));
#546 = ADVANCED_FACE('',(#547),#566,.T.);
#547 = FACE_BOUND('',#548,.F.);
#548 = EDGE_LOOP('',(#549,#550,#558,#565));
#549 = ORIENTED_EDGE('',*,*,#235,.T.);
#550 = ORIENTED_EDGE('',*,*,#551,.T.);
#551 = EDGE_CURVE('',#228,#552,#554,.T.);
#552 = VERTEX_POINT('',#553);
#553 = CARTESIAN_POINT('',(65.,22.,-2.));
#554 = LINE('',#555,#556);
#555 = CARTESIAN_POINT('',(65.,22.,-9.77E-15));
#556 = VECTOR('',#557,1.);
#557 = DIRECTION('',(0.,-4.4E-16,-1.));
#558 = ORIENTED_EDGE('',*,*,#559,.F.);
#559 = EDGE_CURVE('',#504,#552,#560,.T.);
#560 = CIRCLE('',#561,1.);
#561 = AXIS2_PLACEMENT_3D('',#562,#563,#564);
#562 = CARTESIAN_POINT('',(65.,23.,-2.));
#563 = DIRECTION('',(0.,4.4E-16,1.));
#564 = DIRECTION('',(0.,1.,-4.4E-16));
#565 = ORIENTED_EDGE('',*,*,#503,.F.);
#566 = CYLINDRICAL_SURFACE('',#567,1.);
#567 = AXIS2_PLACEMENT_3D('',#568,#569,#570);
#568 = CARTESIAN_POINT('',(65.,23.,-1.021E-14));
#569 = DIRECTION('',(0.,-4.4E-16,-1.));
#570 = DIRECTION('',(-1.,0.,-0.));
#571 = ADVANCED_FACE('',(#572),#591,.T.);
#572 = FACE_BOUND('',#573,.T.);
#573 = EDGE_LOOP('',(#574,#575,#583,#590));
#574 = ORIENTED_EDGE('',*,*,#48,.T.);
#575 = ORIENTED_EDGE('',*,*,#576,.T.);
#576 = EDGE_CURVE('',#49,#577,#579,.T.);
#577 = VERTEX_POINT('',#578);
#578 = CARTESIAN_POINT('',(-41.,32.,-2.));
#579 = LINE('',#580,#581);
#580 = CARTESIAN_POINT('',(-41.,32.,-1.421E-14));
#581 = VECTOR('',#582,1.);
#582 = DIRECTION('',(0.,-4.4E-16,-1.));
#583 = ORIENTED_EDGE('',*,*,#584,.F.);
#584 = EDGE_CURVE('',#529,#577,#585,.T.);
#585 = CIRCLE('',#586,1.);
#586 = AXIS2_PLACEMENT_3D('',#587,#588,#589);
#587 = CARTESIAN_POINT('',(-41.,33.,-2.));
#588 = DIRECTION('',(0.,-4.4E-16,-1.));
#589 = DIRECTION('',(0.,1.,-4.4E-16));
#590 = ORIENTED_EDGE('',*,*,#536,.F.);
#591 = CYLINDRICAL_SURFACE('',#592,1.);
#592 = AXIS2_PLACEMENT_3D('',#593,#594,#595);
#593 = CARTESIAN_POINT('',(-41.,33.,-1.465E-14));
#594 = DIRECTION('',(0.,-4.4E-16,-1.));
#595 = DIRECTION('',(1.,0.,0.));
#596 = ADVANCED_FACE('',(#597),#615,.F.);
#597 = FACE_BOUND('',#598,.F.);
#598 = EDGE_LOOP('',(#599,#600,#608,#614));
#599 = ORIENTED_EDGE('',*,*,#227,.F.);
#600 = ORIENTED_EDGE('',*,*,#601,.T.);
#601 = EDGE_CURVE('',#219,#602,#604,.T.);
#602 = VERTEX_POINT('',#603);
#603 = CARTESIAN_POINT('',(70.,22.,-2.));
#604 = LINE('',#605,#606);
#605 = CARTESIAN_POINT('',(70.,22.,-9.77E-15));
#606 = VECTOR('',#607,1.);
#607 = DIRECTION('',(0.,-4.4E-16,-1.));
#608 = ORIENTED_EDGE('',*,*,#609,.F.);
#609 = EDGE_CURVE('',#552,#602,#610,.T.);
#610 = LINE('',#611,#612);
#611 = CARTESIAN_POINT('',(35.5,22.,-2.));
#612 = VECTOR('',#613,1.);
#613 = DIRECTION('',(1.,0.,0.));
#614 = ORIENTED_EDGE('',*,*,#551,.F.);
#615 = PLANE('',#616);
#616 = AXIS2_PLACEMENT_3D('',#617,#618,#619);
#617 = CARTESIAN_POINT('',(71.,22.,-9.77E-15));
#618 = DIRECTION('',(0.,1.,-4.4E-16));
#619 = DIRECTION('',(-1.,0.,0.));
#620 = ADVANCED_FACE('',(#621),#639,.F.);
#621 = FACE_BOUND('',#622,.F.);
#622 = EDGE_LOOP('',(#623,#624,#625,#633));
#623 = ORIENTED_EDGE('',*,*,#57,.F.);
#624 = ORIENTED_EDGE('',*,*,#576,.T.);
#625 = ORIENTED_EDGE('',*,*,#626,.F.);
#626 = EDGE_CURVE('',#627,#577,#629,.T.);
#627 = VERTEX_POINT('',#628);
#628 = CARTESIAN_POINT('',(-49.,32.,-2.));
#629 = LINE('',#630,#631);
#630 = CARTESIAN_POINT('',(-20.,32.,-2.));
#631 = VECTOR('',#632,1.);
#632 = DIRECTION('',(1.,0.,0.));
#633 = ORIENTED_EDGE('',*,*,#634,.F.);
#634 = EDGE_CURVE('',#58,#627,#635,.T.);
#635 = LINE('',#636,#637);
#636 = CARTESIAN_POINT('',(-49.,32.,-1.421E-14));
#637 = VECTOR('',#638,1.);
#638 = DIRECTION('',(0.,-4.4E-16,-1.));
#639 = PLANE('',#640);
#640 = AXIS2_PLACEMENT_3D('',#641,#642,#643);
#641 = CARTESIAN_POINT('',(-40.,32.,-1.421E-14));
#642 = DIRECTION('',(0.,1.,-4.4E-16));
#643 = DIRECTION('',(-1.,0.,0.));
#644 = ADVANCED_FACE('',(#645),#664,.F.);
#645 = FACE_BOUND('',#646,.F.);
#646 = EDGE_LOOP('',(#647,#648,#656,#663));
#647 = ORIENTED_EDGE('',*,*,#218,.T.);
#648 = ORIENTED_EDGE('',*,*,#649,.T.);
#649 = EDGE_CURVE('',#211,#650,#652,.T.);
#650 = VERTEX_POINT('',#651);
#651 = CARTESIAN_POINT('',(71.,21.,-2.));
#652 = LINE('',#653,#654);
#653 = CARTESIAN_POINT('',(71.,21.,-9.33E-15));
#654 = VECTOR('',#655,1.);
#655 = DIRECTION('',(0.,-4.4E-16,-1.));
#656 = ORIENTED_EDGE('',*,*,#657,.F.);
#657 = EDGE_CURVE('',#602,#650,#658,.T.);
#658 = CIRCLE('',#659,1.);
#659 = AXIS2_PLACEMENT_3D('',#660,#661,#662);
#660 = CARTESIAN_POINT('',(70.,21.,-2.));
#661 = DIRECTION('',(0.,-4.4E-16,-1.));
#662 = DIRECTION('',(0.,1.,-4.4E-16));
#663 = ORIENTED_EDGE('',*,*,#601,.F.);
#664 = CYLINDRICAL_SURFACE('',#665,1.);
#665 = AXIS2_PLACEMENT_3D('',#666,#667,#668);
#666 = CARTESIAN_POINT('',(70.,21.,-9.33E-15));
#667 = DIRECTION('',(0.,-4.4E-16,-1.));
#668 = DIRECTION('',(0.,1.,-4.4E-16));
#669 = ADVANCED_FACE('',(#670),#689,.T.);
#670 = FACE_BOUND('',#671,.T.);
#671 = EDGE_LOOP('',(#672,#673,#681,#688));
#672 = ORIENTED_EDGE('',*,*,#65,.T.);
#673 = ORIENTED_EDGE('',*,*,#674,.T.);
#674 = EDGE_CURVE('',#66,#675,#677,.T.);
#675 = VERTEX_POINT('',#676);
#676 = CARTESIAN_POINT('',(-50.,33.,-2.));
#677 = LINE('',#678,#679);
#678 = CARTESIAN_POINT('',(-50.,33.,-1.465E-14));
#679 = VECTOR('',#680,1.);
#680 = DIRECTION('',(0.,-4.4E-16,-1.));
#681 = ORIENTED_EDGE('',*,*,#682,.F.);
#682 = EDGE_CURVE('',#627,#675,#683,.T.);
#683 = CIRCLE('',#684,1.);
#684 = AXIS2_PLACEMENT_3D('',#685,#686,#687);
#685 = CARTESIAN_POINT('',(-49.,33.,-2.));
#686 = DIRECTION('',(0.,-4.4E-16,-1.));
#687 = DIRECTION('',(0.,1.,-4.4E-16));
#688 = ORIENTED_EDGE('',*,*,#634,.F.);
#689 = CYLINDRICAL_SURFACE('',#690,1.);
#690 = AXIS2_PLACEMENT_3D('',#691,#692,#693);
#691 = CARTESIAN_POINT('',(-49.,33.,-1.465E-14));
#692 = DIRECTION('',(0.,-4.4E-16,-1.));
#693 = DIRECTION('',(0.,-1.,4.4E-16));
#694 = ADVANCED_FACE('',(#695),#713,.F.);
#695 = FACE_BOUND('',#696,.F.);
#696 = EDGE_LOOP('',(#697,#698,#706,#712));
#697 = ORIENTED_EDGE('',*,*,#210,.F.);
#698 = ORIENTED_EDGE('',*,*,#699,.T.);
#699 = EDGE_CURVE('',#202,#700,#702,.T.);
#700 = VERTEX_POINT('',#701);
#701 = CARTESIAN_POINT('',(71.,-31.,-2.));
#702 = LINE('',#703,#704);
#703 = CARTESIAN_POINT('',(71.,-31.,1.377E-14));
#704 = VECTOR('',#705,1.);
#705 = DIRECTION('',(0.,-4.4E-16,-1.));
#706 = ORIENTED_EDGE('',*,*,#707,.F.);
#707 = EDGE_CURVE('',#650,#700,#708,.T.);
#708 = LINE('',#709,#710);
#709 = CARTESIAN_POINT('',(71.,-16.,-2.));
#710 = VECTOR('',#711,1.);
#711 = DIRECTION('',(0.,-1.,2.2E-16));
#712 = ORIENTED_EDGE('',*,*,#649,.F.);
#713 = PLANE('',#714);
#714 = AXIS2_PLACEMENT_3D('',#715,#716,#717);
#715 = CARTESIAN_POINT('',(71.,-32.,1.421E-14));
#716 = DIRECTION('',(1.,0.,0.));
#717 = DIRECTION('',(0.,1.,-4.4E-16));
#718 = ADVANCED_FACE('',(#719),#737,.F.);
#719 = FACE_BOUND('',#720,.F.);
#720 = EDGE_LOOP('',(#721,#722,#723,#731));
#721 = ORIENTED_EDGE('',*,*,#74,.F.);
#722 = ORIENTED_EDGE('',*,*,#674,.T.);
#723 = ORIENTED_EDGE('',*,*,#724,.F.);
#724 = EDGE_CURVE('',#725,#675,#727,.T.);
#725 = VERTEX_POINT('',#726);
#726 = CARTESIAN_POINT('',(-50.,38.,-2.));
#727 = LINE('',#728,#729);
#728 = CARTESIAN_POINT('',(-50.,16.,-2.));
#729 = VECTOR('',#730,1.);
#730 = DIRECTION('',(0.,-1.,2.2E-16));
#731 = ORIENTED_EDGE('',*,*,#732,.F.);
#732 = EDGE_CURVE('',#75,#725,#733,.T.);
#733 = LINE('',#734,#735);
#734 = CARTESIAN_POINT('',(-50.,38.,-1.688E-14));
#735 = VECTOR('',#736,1.);
#736 = DIRECTION('',(0.,-4.4E-16,-1.));
#737 = PLANE('',#738);
#738 = AXIS2_PLACEMENT_3D('',#739,#740,#741);
#739 = CARTESIAN_POINT('',(-50.,32.,-1.421E-14));
#740 = DIRECTION('',(1.,0.,0.));
#741 = DIRECTION('',(0.,1.,-4.4E-16));
#742 = ADVANCED_FACE('',(#743),#762,.F.);
#743 = FACE_BOUND('',#744,.F.);
#744 = EDGE_LOOP('',(#745,#746,#754,#761));
#745 = ORIENTED_EDGE('',*,*,#201,.T.);
#746 = ORIENTED_EDGE('',*,*,#747,.T.);
#747 = EDGE_CURVE('',#194,#748,#750,.T.);
#748 = VERTEX_POINT('',#749);
#749 = CARTESIAN_POINT('',(70.,-32.,-2.));
#750 = LINE('',#751,#752);
#751 = CARTESIAN_POINT('',(70.,-32.,1.421E-14));
#752 = VECTOR('',#753,1.);
#753 = DIRECTION('',(0.,-4.4E-16,-1.));
#754 = ORIENTED_EDGE('',*,*,#755,.F.);
#755 = EDGE_CURVE('',#700,#748,#756,.T.);
#756 = CIRCLE('',#757,1.);
#757 = AXIS2_PLACEMENT_3D('',#758,#759,#760);
#758 = CARTESIAN_POINT('',(70.,-31.,-2.));
#759 = DIRECTION('',(0.,-4.4E-16,-1.));
#760 = DIRECTION('',(0.,1.,-4.4E-16));
#761 = ORIENTED_EDGE('',*,*,#699,.F.);
#762 = CYLINDRICAL_SURFACE('',#763,1.);
#763 = AXIS2_PLACEMENT_3D('',#764,#765,#766);
#764 = CARTESIAN_POINT('',(70.,-31.,1.377E-14));
#765 = DIRECTION('',(0.,-4.4E-16,-1.));
#766 = DIRECTION('',(1.,0.,0.));
#767 = ADVANCED_FACE('',(#768),#787,.F.);
#768 = FACE_BOUND('',#769,.T.);
#769 = EDGE_LOOP('',(#770,#771,#779,#786));
#770 = ORIENTED_EDGE('',*,*,#82,.T.);
#771 = ORIENTED_EDGE('',*,*,#772,.T.);
#772 = EDGE_CURVE('',#83,#773,#775,.T.);
#773 = VERTEX_POINT('',#774);
#774 = CARTESIAN_POINT('',(-51.,39.,-2.));
#775 = LINE('',#776,#777);
#776 = CARTESIAN_POINT('',(-51.,39.,-1.732E-14));
#777 = VECTOR('',#778,1.);
#778 = DIRECTION('',(0.,-4.4E-16,-1.));
#779 = ORIENTED_EDGE('',*,*,#780,.F.);
#780 = EDGE_CURVE('',#725,#773,#781,.T.);
#781 = CIRCLE('',#782,1.);
#782 = AXIS2_PLACEMENT_3D('',#783,#784,#785);
#783 = CARTESIAN_POINT('',(-51.,38.,-2.));
#784 = DIRECTION('',(0.,4.4E-16,1.));
#785 = DIRECTION('',(0.,1.,-4.4E-16));
#786 = ORIENTED_EDGE('',*,*,#732,.F.);
#787 = CYLINDRICAL_SURFACE('',#788,1.);
#788 = AXIS2_PLACEMENT_3D('',#789,#790,#791);
#789 = CARTESIAN_POINT('',(-51.,38.,-1.688E-14));
#790 = DIRECTION('',(0.,-4.4E-16,-1.));
#791 = DIRECTION('',(1.,0.,0.));
#792 = ADVANCED_FACE('',(#793),#811,.F.);
#793 = FACE_BOUND('',#794,.F.);
#794 = EDGE_LOOP('',(#795,#796,#804,#810));
#795 = ORIENTED_EDGE('',*,*,#193,.F.);
#796 = ORIENTED_EDGE('',*,*,#797,.T.);
#797 = EDGE_CURVE('',#185,#798,#800,.T.);
#798 = VERTEX_POINT('',#799);
#799 = CARTESIAN_POINT('',(65.,-32.,-2.));
#800 = LINE('',#801,#802);
#801 = CARTESIAN_POINT('',(65.,-32.,1.421E-14));
#802 = VECTOR('',#803,1.);
#803 = DIRECTION('',(0.,-4.4E-16,-1.));
#804 = ORIENTED_EDGE('',*,*,#805,.F.);
#805 = EDGE_CURVE('',#748,#798,#806,.T.);
#806 = LINE('',#807,#808);
#807 = CARTESIAN_POINT('',(32.,-32.,-2.));
#808 = VECTOR('',#809,1.);
#809 = DIRECTION('',(-1.,0.,0.));
#810 = ORIENTED_EDGE('',*,*,#747,.F.);
#811 = PLANE('',#812);
#812 = AXIS2_PLACEMENT_3D('',#813,#814,#815);
#813 = CARTESIAN_POINT('',(64.,-32.,1.421E-14));
#814 = DIRECTION('',(0.,-1.,4.4E-16));
#815 = DIRECTION('',(1.,0.,0.));
#816 = ADVANCED_FACE('',(#817),#835,.F.);
#817 = FACE_BOUND('',#818,.F.);
#818 = EDGE_LOOP('',(#819,#820,#821,#829));
#819 = ORIENTED_EDGE('',*,*,#91,.F.);
#820 = ORIENTED_EDGE('',*,*,#772,.T.);
#821 = ORIENTED_EDGE('',*,*,#822,.F.);
#822 = EDGE_CURVE('',#823,#773,#825,.T.);
#823 = VERTEX_POINT('',#824);
#824 = CARTESIAN_POINT('',(-70.,39.,-2.));
#825 = LINE('',#826,#827);
#826 = CARTESIAN_POINT('',(-25.,39.,-2.));
#827 = VECTOR('',#828,1.);
#828 = DIRECTION('',(1.,0.,0.));
#829 = ORIENTED_EDGE('',*,*,#830,.F.);
#830 = EDGE_CURVE('',#92,#823,#831,.T.);
#831 = LINE('',#832,#833);
#832 = CARTESIAN_POINT('',(-70.,39.,-1.732E-14));
#833 = VECTOR('',#834,1.);
#834 = DIRECTION('',(0.,-4.4E-16,-1.));
#835 = PLANE('',#836);
#836 = AXIS2_PLACEMENT_3D('',#837,#838,#839);
#837 = CARTESIAN_POINT('',(-50.,39.,-1.732E-14));
#838 = DIRECTION('',(0.,1.,-4.4E-16));
#839 = DIRECTION('',(-1.,0.,0.));
#840 = ADVANCED_FACE('',(#841),#860,.T.);
#841 = FACE_BOUND('',#842,.F.);
#842 = EDGE_LOOP('',(#843,#844,#852,#859));
#843 = ORIENTED_EDGE('',*,*,#184,.T.);
#844 = ORIENTED_EDGE('',*,*,#845,.T.);
#845 = EDGE_CURVE('',#177,#846,#848,.T.);
#846 = VERTEX_POINT('',#847);
#847 = CARTESIAN_POINT('',(64.,-33.,-2.));
#848 = LINE('',#849,#850);
#849 = CARTESIAN_POINT('',(64.,-33.,1.465E-14));
#850 = VECTOR('',#851,1.);
#851 = DIRECTION('',(0.,-4.4E-16,-1.));
#852 = ORIENTED_EDGE('',*,*,#853,.F.);
#853 = EDGE_CURVE('',#798,#846,#854,.T.);
#854 = CIRCLE('',#855,1.);
#855 = AXIS2_PLACEMENT_3D('',#856,#857,#858);
#856 = CARTESIAN_POINT('',(65.,-33.,-2.));
#857 = DIRECTION('',(0.,4.4E-16,1.));
#858 = DIRECTION('',(0.,1.,-4.4E-16));
#859 = ORIENTED_EDGE('',*,*,#797,.F.);
#860 = CYLINDRICAL_SURFACE('',#861,1.);
#861 = AXIS2_PLACEMENT_3D('',#862,#863,#864);
#862 = CARTESIAN_POINT('',(65.,-33.,1.465E-14));
#863 = DIRECTION('',(0.,-4.4E-16,-1.));
#864 = DIRECTION('',(-0.,1.,-4.4E-16));
#865 = ADVANCED_FACE('',(#866),#885,.F.);
#866 = FACE_BOUND('',#867,.T.);
#867 = EDGE_LOOP('',(#868,#869,#877,#884));
#868 = ORIENTED_EDGE('',*,*,#99,.T.);
#869 = ORIENTED_EDGE('',*,*,#870,.T.);
#870 = EDGE_CURVE('',#100,#871,#873,.T.);
#871 = VERTEX_POINT('',#872);
#872 = CARTESIAN_POINT('',(-71.,38.,-2.));
#873 = LINE('',#874,#875);
#874 = CARTESIAN_POINT('',(-71.,38.,-1.688E-14));
#875 = VECTOR('',#876,1.);
#876 = DIRECTION('',(0.,-4.4E-16,-1.));
#877 = ORIENTED_EDGE('',*,*,#878,.F.);
#878 = EDGE_CURVE('',#823,#871,#879,.T.);
#879 = CIRCLE('',#880,1.);
#880 = AXIS2_PLACEMENT_3D('',#881,#882,#883);
#881 = CARTESIAN_POINT('',(-70.,38.,-2.));
#882 = DIRECTION('',(0.,4.4E-16,1.));
#883 = DIRECTION('',(0.,1.,-4.4E-16));
#884 = ORIENTED_EDGE('',*,*,#830,.F.);
#885 = CYLINDRICAL_SURFACE('',#886,1.);
#886 = AXIS2_PLACEMENT_3D('',#887,#888,#889);
#887 = CARTESIAN_POINT('',(-70.,38.,-1.688E-14));
#888 = DIRECTION('',(0.,-4.4E-16,-1.));
#889 = DIRECTION('',(0.,1.,-4.4E-16));
#890 = ADVANCED_FACE('',(#891),#909,.F.);
#891 = FACE_BOUND('',#892,.F.);
#892 = EDGE_LOOP('',(#893,#894,#902,#908));
#893 = ORIENTED_EDGE('',*,*,#176,.F.);
#894 = ORIENTED_EDGE('',*,*,#895,.T.);
#895 = EDGE_CURVE('',#168,#896,#898,.T.);
#896 = VERTEX_POINT('',#897);
#897 = CARTESIAN_POINT('',(64.,-38.,-2.));
#898 = LINE('',#899,#900);
#899 = CARTESIAN_POINT('',(64.,-38.,1.688E-14));
#900 = VECTOR('',#901,1.);
#901 = DIRECTION('',(0.,-4.4E-16,-1.));
#902 = ORIENTED_EDGE('',*,*,#903,.F.);
#903 = EDGE_CURVE('',#846,#896,#904,.T.);
#904 = LINE('',#905,#906);
#905 = CARTESIAN_POINT('',(64.,-19.5,-2.));
#906 = VECTOR('',#907,1.);
#907 = DIRECTION('',(0.,-1.,2.2E-16));
#908 = ORIENTED_EDGE('',*,*,#845,.F.);
#909 = PLANE('',#910);
#910 = AXIS2_PLACEMENT_3D('',#911,#912,#913);
#911 = CARTESIAN_POINT('',(64.,-39.,1.732E-14));
#912 = DIRECTION('',(1.,0.,0.));
#913 = DIRECTION('',(0.,1.,-4.4E-16));
#914 = ADVANCED_FACE('',(#915),#933,.F.);
#915 = FACE_BOUND('',#916,.F.);
#916 = EDGE_LOOP('',(#917,#918,#919,#927));
#917 = ORIENTED_EDGE('',*,*,#108,.F.);
#918 = ORIENTED_EDGE('',*,*,#870,.T.);
#919 = ORIENTED_EDGE('',*,*,#920,.F.);
#920 = EDGE_CURVE('',#921,#871,#923,.T.);
#921 = VERTEX_POINT('',#922);
#922 = CARTESIAN_POINT('',(-71.,-31.,-2.));
#923 = LINE('',#924,#925);
#924 = CARTESIAN_POINT('',(-71.,19.5,-2.));
#925 = VECTOR('',#926,1.);
#926 = DIRECTION('',(0.,1.,-2.2E-16));
#927 = ORIENTED_EDGE('',*,*,#928,.F.);
#928 = EDGE_CURVE('',#109,#921,#929,.T.);
#929 = LINE('',#930,#931);
#930 = CARTESIAN_POINT('',(-71.,-31.,1.377E-14));
#931 = VECTOR('',#932,1.);
#932 = DIRECTION('',(0.,-4.4E-16,-1.));
#933 = PLANE('',#934);
#934 = AXIS2_PLACEMENT_3D('',#935,#936,#937);
#935 = CARTESIAN_POINT('',(-71.,39.,-1.732E-14));
#936 = DIRECTION('',(-1.,0.,0.));
#937 = DIRECTION('',(0.,-1.,4.4E-16));
#938 = ADVANCED_FACE('',(#939),#958,.F.);
#939 = FACE_BOUND('',#940,.F.);
#940 = EDGE_LOOP('',(#941,#942,#950,#957));
#941 = ORIENTED_EDGE('',*,*,#167,.T.);
#942 = ORIENTED_EDGE('',*,*,#943,.T.);
#943 = EDGE_CURVE('',#160,#944,#946,.T.);
#944 = VERTEX_POINT('',#945);
#945 = CARTESIAN_POINT('',(63.,-39.,-2.));
#946 = LINE('',#947,#948);
#947 = CARTESIAN_POINT('',(63.,-39.,1.732E-14));
#948 = VECTOR('',#949,1.);
#949 = DIRECTION('',(0.,-4.4E-16,-1.));
#950 = ORIENTED_EDGE('',*,*,#951,.F.);
#951 = EDGE_CURVE('',#896,#944,#952,.T.);
#952 = CIRCLE('',#953,1.);
#953 = AXIS2_PLACEMENT_3D('',#954,#955,#956);
#954 = CARTESIAN_POINT('',(63.,-38.,-2.));
#955 = DIRECTION('',(0.,-4.4E-16,-1.));
#956 = DIRECTION('',(0.,1.,-4.4E-16));
#957 = ORIENTED_EDGE('',*,*,#895,.F.);
#958 = CYLINDRICAL_SURFACE('',#959,1.);
#959 = AXIS2_PLACEMENT_3D('',#960,#961,#962);
#960 = CARTESIAN_POINT('',(63.,-38.,1.688E-14));
#961 = DIRECTION('',(0.,-4.4E-16,-1.));
#962 = DIRECTION('',(1.,0.,0.));
#963 = ADVANCED_FACE('',(#964),#983,.F.);
#964 = FACE_BOUND('',#965,.T.);
#965 = EDGE_LOOP('',(#966,#967,#975,#982));
#966 = ORIENTED_EDGE('',*,*,#116,.T.);
#967 = ORIENTED_EDGE('',*,*,#968,.T.);
#968 = EDGE_CURVE('',#117,#969,#971,.T.);
#969 = VERTEX_POINT('',#970);
#970 = CARTESIAN_POINT('',(-70.,-32.,-2.));
#971 = LINE('',#972,#973);
#972 = CARTESIAN_POINT('',(-70.,-32.,1.421E-14));
#973 = VECTOR('',#974,1.);
#974 = DIRECTION('',(0.,-4.4E-16,-1.));
#975 = ORIENTED_EDGE('',*,*,#976,.F.);
#976 = EDGE_CURVE('',#921,#969,#977,.T.);
#977 = CIRCLE('',#978,1.);
#978 = AXIS2_PLACEMENT_3D('',#979,#980,#981);
#979 = CARTESIAN_POINT('',(-70.,-31.,-2.));
#980 = DIRECTION('',(0.,4.4E-16,1.));
#981 = DIRECTION('',(0.,1.,-4.4E-16));
#982 = ORIENTED_EDGE('',*,*,#928,.F.);
#983 = CYLINDRICAL_SURFACE('',#984,1.);
#984 = AXIS2_PLACEMENT_3D('',#985,#986,#987);
#985 = CARTESIAN_POINT('',(-70.,-31.,1.377E-14));
#986 = DIRECTION('',(0.,-4.4E-16,-1.));
#987 = DIRECTION('',(-1.,-0.,0.));
#988 = ADVANCED_FACE('',(#989),#1007,.F.);
#989 = FACE_BOUND('',#990,.F.);
#990 = EDGE_LOOP('',(#991,#992,#1000,#1006));
#991 = ORIENTED_EDGE('',*,*,#159,.F.);
#992 = ORIENTED_EDGE('',*,*,#993,.T.);
#993 = EDGE_CURVE('',#151,#994,#996,.T.);
#994 = VERTEX_POINT('',#995);
#995 = CARTESIAN_POINT('',(-63.,-39.,-2.));
#996 = LINE('',#997,#998);
#997 = CARTESIAN_POINT('',(-63.,-39.,1.732E-14));
#998 = VECTOR('',#999,1.);
#999 = DIRECTION('',(0.,-4.4E-16,-1.));
#1000 = ORIENTED_EDGE('',*,*,#1001,.F.);
#1001 = EDGE_CURVE('',#944,#994,#1002,.T.);
#1002 = LINE('',#1003,#1004);
#1003 = CARTESIAN_POINT('',(-32.,-39.,-2.));
#1004 = VECTOR('',#1005,1.);
#1005 = DIRECTION('',(-1.,0.,0.));
#1006 = ORIENTED_EDGE('',*,*,#943,.F.);
#1007 = PLANE('',#1008);
#1008 = AXIS2_PLACEMENT_3D('',#1009,#1010,#1011);
#1009 = CARTESIAN_POINT('',(-64.,-39.,1.732E-14));
#1010 = DIRECTION('',(0.,-1.,4.4E-16));
#1011 = DIRECTION('',(1.,0.,0.));
#1012 = ADVANCED_FACE('',(#1013),#1031,.F.);
#1013 = FACE_BOUND('',#1014,.F.);
#1014 = EDGE_LOOP('',(#1015,#1016,#1017,#1025));
#1015 = ORIENTED_EDGE('',*,*,#125,.F.);
#1016 = ORIENTED_EDGE('',*,*,#968,.T.);
#1017 = ORIENTED_EDGE('',*,*,#1018,.F.);
#1018 = EDGE_CURVE('',#1019,#969,#1021,.T.);
#1019 = VERTEX_POINT('',#1020);
#1020 = CARTESIAN_POINT('',(-65.,-32.,-2.));
#1021 = LINE('',#1022,#1023);
#1022 = CARTESIAN_POINT('',(-35.5,-32.,-2.));
#1023 = VECTOR('',#1024,1.);
#1024 = DIRECTION('',(-1.,0.,0.));
#1025 = ORIENTED_EDGE('',*,*,#1026,.F.);
#1026 = EDGE_CURVE('',#126,#1019,#1027,.T.);
#1027 = LINE('',#1028,#1029);
#1028 = CARTESIAN_POINT('',(-65.,-32.,1.421E-14));
#1029 = VECTOR('',#1030,1.);
#1030 = DIRECTION('',(0.,-4.4E-16,-1.));
#1031 = PLANE('',#1032);
#1032 = AXIS2_PLACEMENT_3D('',#1033,#1034,#1035);
#1033 = CARTESIAN_POINT('',(-71.,-32.,1.421E-14));
#1034 = DIRECTION('',(0.,-1.,4.4E-16));
#1035 = DIRECTION('',(1.,0.,0.));
#1036 = ADVANCED_FACE('',(#1037),#1056,.F.);
#1037 = FACE_BOUND('',#1038,.F.);
#1038 = EDGE_LOOP('',(#1039,#1040,#1048,#1055));
#1039 = ORIENTED_EDGE('',*,*,#150,.T.);
#1040 = ORIENTED_EDGE('',*,*,#1041,.T.);
#1041 = EDGE_CURVE('',#143,#1042,#1044,.T.);
#1042 = VERTEX_POINT('',#1043);
#1043 = CARTESIAN_POINT('',(-64.,-38.,-2.));
#1044 = LINE('',#1045,#1046);
#1045 = CARTESIAN_POINT('',(-64.,-38.,1.688E-14));
#1046 = VECTOR('',#1047,1.);
#1047 = DIRECTION('',(0.,-4.4E-16,-1.));
#1048 = ORIENTED_EDGE('',*,*,#1049,.F.);
#1049 = EDGE_CURVE('',#994,#1042,#1050,.T.);
#1050 = CIRCLE('',#1051,1.);
#1051 = AXIS2_PLACEMENT_3D('',#1052,#1053,#1054);
#1052 = CARTESIAN_POINT('',(-63.,-38.,-2.));
#1053 = DIRECTION('',(0.,-4.4E-16,-1.));
#1054 = DIRECTION('',(0.,1.,-4.4E-16));
#1055 = ORIENTED_EDGE('',*,*,#993,.F.);
#1056 = CYLINDRICAL_SURFACE('',#1057,1.);
#1057 = AXIS2_PLACEMENT_3D('',#1058,#1059,#1060);
#1058 = CARTESIAN_POINT('',(-63.,-38.,1.688E-14));
#1059 = DIRECTION('',(0.,-4.4E-16,-1.));
#1060 = DIRECTION('',(0.,-1.,4.4E-16));
#1061 = ADVANCED_FACE('',(#1062),#1081,.T.);
#1062 = FACE_BOUND('',#1063,.T.);
#1063 = EDGE_LOOP('',(#1064,#1065,#1073,#1080));
#1064 = ORIENTED_EDGE('',*,*,#133,.T.);
#1065 = ORIENTED_EDGE('',*,*,#1066,.T.);
#1066 = EDGE_CURVE('',#134,#1067,#1069,.T.);
#1067 = VERTEX_POINT('',#1068);
#1068 = CARTESIAN_POINT('',(-64.,-33.,-2.));
#1069 = LINE('',#1070,#1071);
#1070 = CARTESIAN_POINT('',(-64.,-33.,1.465E-14));
#1071 = VECTOR('',#1072,1.);
#1072 = DIRECTION('',(0.,-4.4E-16,-1.));
#1073 = ORIENTED_EDGE('',*,*,#1074,.F.);
#1074 = EDGE_CURVE('',#1019,#1067,#1075,.T.);
#1075 = CIRCLE('',#1076,1.);
#1076 = AXIS2_PLACEMENT_3D('',#1077,#1078,#1079);
#1077 = CARTESIAN_POINT('',(-65.,-33.,-2.));
#1078 = DIRECTION('',(0.,-4.4E-16,-1.));
#1079 = DIRECTION('',(0.,1.,-4.4E-16));
#1080 = ORIENTED_EDGE('',*,*,#1026,.F.);
#1081 = CYLINDRICAL_SURFACE('',#1082,1.);
#1082 = AXIS2_PLACEMENT_3D('',#1083,#1084,#1085);
#1083 = CARTESIAN_POINT('',(-65.,-33.,1.465E-14));
#1084 = DIRECTION('',(0.,-4.4E-16,-1.));
#1085 = DIRECTION('',(-0.,1.,-4.4E-16));
#1086 = ADVANCED_FACE('',(#1087),#1098,.F.);
#1087 = FACE_BOUND('',#1088,.F.);
#1088 = EDGE_LOOP('',(#1089,#1090,#1091,#1097));
#1089 = ORIENTED_EDGE('',*,*,#142,.F.);
#1090 = ORIENTED_EDGE('',*,*,#1066,.T.);
#1091 = ORIENTED_EDGE('',*,*,#1092,.F.);
#1092 = EDGE_CURVE('',#1042,#1067,#1093,.T.);
#1093 = LINE('',#1094,#1095);
#1094 = CARTESIAN_POINT('',(-64.,-16.,-2.));
#1095 = VECTOR('',#1096,1.);
#1096 = DIRECTION('',(0.,1.,-2.2E-16));
#1097 = ORIENTED_EDGE('',*,*,#1041,.F.);
#1098 = PLANE('',#1099);
#1099 = AXIS2_PLACEMENT_3D('',#1100,#1101,#1102);
#1100 = CARTESIAN_POINT('',(-64.,-32.,1.421E-14));
#1101 = DIRECTION('',(-1.,0.,0.));
#1102 = DIRECTION('',(0.,-1.,4.4E-16));
#1103 = ADVANCED_FACE('',(#1104),#1129,.T.);
#1104 = FACE_BOUND('',#1105,.T.);
#1105 = EDGE_LOOP('',(#1106,#1107,#1115,#1123));
#1106 = ORIENTED_EDGE('',*,*,#261,.F.);
#1107 = ORIENTED_EDGE('',*,*,#1108,.T.);
#1108 = EDGE_CURVE('',#262,#1109,#1111,.T.);
#1109 = VERTEX_POINT('',#1110);
#1110 = CARTESIAN_POINT('',(-83.39906166072,-70.,-2.));
#1111 = LINE('',#1112,#1113);
#1112 = CARTESIAN_POINT('',(-83.39906166072,-70.,3.109E-14));
#1113 = VECTOR('',#1114,1.);
#1114 = DIRECTION('',(-0.,-4.4E-16,-1.));
#1115 = ORIENTED_EDGE('',*,*,#1116,.T.);
#1116 = EDGE_CURVE('',#1109,#1117,#1119,.T.);
#1117 = VERTEX_POINT('',#1118);
#1118 = CARTESIAN_POINT('',(83.399061660723,-70.,-2.));
#1119 = LINE('',#1120,#1121);
#1120 = CARTESIAN_POINT('',(-87.39906166072,-70.,-2.));
#1121 = VECTOR('',#1122,1.);
#1122 = DIRECTION('',(1.,0.,0.));
#1123 = ORIENTED_EDGE('',*,*,#1124,.F.);
#1124 = EDGE_CURVE('',#264,#1117,#1125,.T.);
#1125 = LINE('',#1126,#1127);
#1126 = CARTESIAN_POINT('',(83.399061660723,-70.,3.109E-14));
#1127 = VECTOR('',#1128,1.);
#1128 = DIRECTION('',(-0.,-4.4E-16,-1.));
#1129 = PLANE('',#1130);
#1130 = AXIS2_PLACEMENT_3D('',#1131,#1132,#1133);
#1131 = CARTESIAN_POINT('',(-87.39906166072,-70.,3.109E-14));
#1132 = DIRECTION('',(0.,-1.,4.4E-16));
#1133 = DIRECTION('',(1.,0.,0.));
#1134 = ADVANCED_FACE('',(#1135),#1153,.T.);
#1135 = FACE_BOUND('',#1136,.F.);
#1136 = EDGE_LOOP('',(#1137,#1138,#1139,#1147));
#1137 = ORIENTED_EDGE('',*,*,#271,.F.);
#1138 = ORIENTED_EDGE('',*,*,#1108,.T.);
#1139 = ORIENTED_EDGE('',*,*,#1140,.T.);
#1140 = EDGE_CURVE('',#1109,#1141,#1143,.T.);
#1141 = VERTEX_POINT('',#1142);
#1142 = CARTESIAN_POINT('',(-87.39906166072,-66.,-2.));
#1143 = LINE('',#1144,#1145);
#1144 = CARTESIAN_POINT('',(-81.04929624554,-72.34976541518,-2.));
#1145 = VECTOR('',#1146,1.);
#1146 = DIRECTION('',(-0.707106781187,0.707106781187,-1.6E-16));
#1147 = ORIENTED_EDGE('',*,*,#1148,.F.);
#1148 = EDGE_CURVE('',#272,#1141,#1149,.T.);
#1149 = LINE('',#1150,#1151);
#1150 = CARTESIAN_POINT('',(-87.39906166072,-66.,2.931E-14));
#1151 = VECTOR('',#1152,1.);
#1152 = DIRECTION('',(-0.,-4.4E-16,-1.));
#1153 = PLANE('',#1154);
#1154 = AXIS2_PLACEMENT_3D('',#1155,#1156,#1157);
#1155 = CARTESIAN_POINT('',(-85.39906166072,-68.,3.02E-14));
#1156 = DIRECTION('',(-0.707106781187,-0.707106781187,0.));
#1157 = DIRECTION('',(-2.2E-16,2.2E-16,1.));
#1158 = ADVANCED_FACE('',(#1159),#1177,.T.);
#1159 = FACE_BOUND('',#1160,.T.);
#1160 = EDGE_LOOP('',(#1161,#1162,#1163,#1171));
#1161 = ORIENTED_EDGE('',*,*,#319,.F.);
#1162 = ORIENTED_EDGE('',*,*,#1124,.T.);
#1163 = ORIENTED_EDGE('',*,*,#1164,.T.);
#1164 = EDGE_CURVE('',#1117,#1165,#1167,.T.);
#1165 = VERTEX_POINT('',#1166);
#1166 = CARTESIAN_POINT('',(87.399061660723,-66.,-2.));
#1167 = LINE('',#1168,#1169);
#1168 = CARTESIAN_POINT('',(81.049296245542,-72.34976541518,-2.));
#1169 = VECTOR('',#1170,1.);
#1170 = DIRECTION('',(0.707106781187,0.707106781187,-1.6E-16));
#1171 = ORIENTED_EDGE('',*,*,#1172,.F.);
#1172 = EDGE_CURVE('',#312,#1165,#1173,.T.);
#1173 = LINE('',#1174,#1175);
#1174 = CARTESIAN_POINT('',(87.399061660723,-66.,2.931E-14));
#1175 = VECTOR('',#1176,1.);
#1176 = DIRECTION('',(-0.,-4.4E-16,-1.));
#1177 = PLANE('',#1178);
#1178 = AXIS2_PLACEMENT_3D('',#1179,#1180,#1181);
#1179 = CARTESIAN_POINT('',(85.399061660723,-68.,3.02E-14));
#1180 = DIRECTION('',(0.707106781187,-0.707106781187,0.));
#1181 = DIRECTION('',(-2.2E-16,-2.2E-16,-1.));
#1182 = ADVANCED_FACE('',(#1183),#1201,.T.);
#1183 = FACE_BOUND('',#1184,.T.);
#1184 = EDGE_LOOP('',(#1185,#1186,#1194,#1200));
#1185 = ORIENTED_EDGE('',*,*,#279,.F.);
#1186 = ORIENTED_EDGE('',*,*,#1187,.T.);
#1187 = EDGE_CURVE('',#280,#1188,#1190,.T.);
#1188 = VERTEX_POINT('',#1189);
#1189 = CARTESIAN_POINT('',(-87.39906166072,66.,-2.));
#1190 = LINE('',#1191,#1192);
#1191 = CARTESIAN_POINT('',(-87.39906166072,66.,-2.931E-14));
#1192 = VECTOR('',#1193,1.);
#1193 = DIRECTION('',(-0.,-4.4E-16,-1.));
#1194 = ORIENTED_EDGE('',*,*,#1195,.T.);
#1195 = EDGE_CURVE('',#1188,#1141,#1196,.T.);
#1196 = LINE('',#1197,#1198);
#1197 = CARTESIAN_POINT('',(-87.39906166072,70.,-2.));
#1198 = VECTOR('',#1199,1.);
#1199 = DIRECTION('',(0.,-1.,0.));
#1200 = ORIENTED_EDGE('',*,*,#1148,.F.);
#1201 = PLANE('',#1202);
#1202 = AXIS2_PLACEMENT_3D('',#1203,#1204,#1205);
#1203 = CARTESIAN_POINT('',(-87.39906166072,70.,-3.109E-14));
#1204 = DIRECTION('',(-1.,0.,0.));
#1205 = DIRECTION('',(0.,-1.,4.4E-16));
#1206 = ADVANCED_FACE('',(#1207),#1225,.T.);
#1207 = FACE_BOUND('',#1208,.T.);
#1208 = EDGE_LOOP('',(#1209,#1210,#1211,#1219));
#1209 = ORIENTED_EDGE('',*,*,#311,.F.);
#1210 = ORIENTED_EDGE('',*,*,#1172,.T.);
#1211 = ORIENTED_EDGE('',*,*,#1212,.T.);
#1212 = EDGE_CURVE('',#1165,#1213,#1215,.T.);
#1213 = VERTEX_POINT('',#1214);
#1214 = CARTESIAN_POINT('',(87.399061660723,66.,-2.));
#1215 = LINE('',#1216,#1217);
#1216 = CARTESIAN_POINT('',(87.399061660723,-70.,-2.));
#1217 = VECTOR('',#1218,1.);
#1218 = DIRECTION('',(0.,1.,0.));
#1219 = ORIENTED_EDGE('',*,*,#1220,.F.);
#1220 = EDGE_CURVE('',#304,#1213,#1221,.T.);
#1221 = LINE('',#1222,#1223);
#1222 = CARTESIAN_POINT('',(87.399061660723,66.,-2.931E-14));
#1223 = VECTOR('',#1224,1.);
#1224 = DIRECTION('',(-0.,-4.4E-16,-1.));
#1225 = PLANE('',#1226);
#1226 = AXIS2_PLACEMENT_3D('',#1227,#1228,#1229);
#1227 = CARTESIAN_POINT('',(87.399061660723,-70.,3.109E-14));
#1228 = DIRECTION('',(1.,0.,0.));
#1229 = DIRECTION('',(0.,1.,-4.4E-16));
#1230 = ADVANCED_FACE('',(#1231),#1249,.T.);
#1231 = FACE_BOUND('',#1232,.F.);
#1232 = EDGE_LOOP('',(#1233,#1234,#1235,#1243));
#1233 = ORIENTED_EDGE('',*,*,#287,.F.);
#1234 = ORIENTED_EDGE('',*,*,#1187,.T.);
#1235 = ORIENTED_EDGE('',*,*,#1236,.T.);
#1236 = EDGE_CURVE('',#1188,#1237,#1239,.T.);
#1237 = VERTEX_POINT('',#1238);
#1238 = CARTESIAN_POINT('',(-83.39906166072,70.,-2.));
#1239 = LINE('',#1240,#1241);
#1240 = CARTESIAN_POINT('',(-81.04929624554,72.349765415181,-2.));
#1241 = VECTOR('',#1242,1.);
#1242 = DIRECTION('',(0.707106781187,0.707106781187,-1.6E-16));
#1243 = ORIENTED_EDGE('',*,*,#1244,.F.);
#1244 = EDGE_CURVE('',#288,#1237,#1245,.T.);
#1245 = LINE('',#1246,#1247);
#1246 = CARTESIAN_POINT('',(-83.39906166072,70.,-3.109E-14));
#1247 = VECTOR('',#1248,1.);
#1248 = DIRECTION('',(-0.,-4.4E-16,-1.));
#1249 = PLANE('',#1250);
#1250 = AXIS2_PLACEMENT_3D('',#1251,#1252,#1253);
#1251 = CARTESIAN_POINT('',(-85.39906166072,68.,-3.02E-14));
#1252 = DIRECTION('',(-0.707106781187,0.707106781187,0.));
#1253 = DIRECTION('',(2.2E-16,2.2E-16,1.));
#1254 = ADVANCED_FACE('',(#1255),#1273,.T.);
#1255 = FACE_BOUND('',#1256,.T.);
#1256 = EDGE_LOOP('',(#1257,#1258,#1259,#1267));
#1257 = ORIENTED_EDGE('',*,*,#303,.F.);
#1258 = ORIENTED_EDGE('',*,*,#1220,.T.);
#1259 = ORIENTED_EDGE('',*,*,#1260,.T.);
#1260 = EDGE_CURVE('',#1213,#1261,#1263,.T.);
#1261 = VERTEX_POINT('',#1262);
#1262 = CARTESIAN_POINT('',(83.399061660723,70.,-2.));
#1263 = LINE('',#1264,#1265);
#1264 = CARTESIAN_POINT('',(81.049296245542,72.349765415181,-2.));
#1265 = VECTOR('',#1266,1.);
#1266 = DIRECTION('',(-0.707106781187,0.707106781187,-1.6E-16));
#1267 = ORIENTED_EDGE('',*,*,#1268,.F.);
#1268 = EDGE_CURVE('',#296,#1261,#1269,.T.);
#1269 = LINE('',#1270,#1271);
#1270 = CARTESIAN_POINT('',(83.399061660723,70.,-3.109E-14));
#1271 = VECTOR('',#1272,1.);
#1272 = DIRECTION('',(-0.,-4.4E-16,-1.));
#1273 = PLANE('',#1274);
#1274 = AXIS2_PLACEMENT_3D('',#1275,#1276,#1277);
#1275 = CARTESIAN_POINT('',(85.399061660723,68.,-3.02E-14));
#1276 = DIRECTION('',(0.707106781187,0.707106781187,0.));
#1277 = DIRECTION('',(2.2E-16,-2.2E-16,-1.));
#1278 = ADVANCED_FACE('',(#1279),#1290,.T.);
#1279 = FACE_BOUND('',#1280,.T.);
#1280 = EDGE_LOOP('',(#1281,#1282,#1283,#1289));
#1281 = ORIENTED_EDGE('',*,*,#295,.F.);
#1282 = ORIENTED_EDGE('',*,*,#1268,.T.);
#1283 = ORIENTED_EDGE('',*,*,#1284,.T.);
#1284 = EDGE_CURVE('',#1261,#1237,#1285,.T.);
#1285 = LINE('',#1286,#1287);
#1286 = CARTESIAN_POINT('',(87.399061660723,70.,-2.));
#1287 = VECTOR('',#1288,1.);
#1288 = DIRECTION('',(-1.,0.,0.));
#1289 = ORIENTED_EDGE('',*,*,#1244,.F.);
#1290 = PLANE('',#1291);
#1291 = AXIS2_PLACEMENT_3D('',#1292,#1293,#1294);
#1292 = CARTESIAN_POINT('',(87.399061660723,70.,-3.109E-14));
#1293 = DIRECTION('',(0.,1.,-4.4E-16));
#1294 = DIRECTION('',(-1.,0.,0.));
#1295 = ADVANCED_FACE('',(#1296),#1315,.F.);
#1296 = FACE_BOUND('',#1297,.T.);
#1297 = EDGE_LOOP('',(#1298,#1306,#1307,#1308));
#1298 = ORIENTED_EDGE('',*,*,#1299,.F.);
#1299 = EDGE_CURVE('',#328,#1300,#1302,.T.);
#1300 = VERTEX_POINT('',#1301);
#1301 = CARTESIAN_POINT('',(-72.6,-60.,-2.));
#1302 = LINE('',#1303,#1304);
#1303 = CARTESIAN_POINT('',(-72.6,-60.,2.7E-14));
#1304 = VECTOR('',#1305,1.);
#1305 = DIRECTION('',(-6.E-17,-4.4E-16,-1.));
#1306 = ORIENTED_EDGE('',*,*,#327,.T.);
#1307 = ORIENTED_EDGE('',*,*,#1299,.T.);
#1308 = ORIENTED_EDGE('',*,*,#1309,.T.);
#1309 = EDGE_CURVE('',#1300,#1300,#1310,.T.);
#1310 = CIRCLE('',#1311,2.4);
#1311 = AXIS2_PLACEMENT_3D('',#1312,#1313,#1314);
#1312 = CARTESIAN_POINT('',(-75.,-60.,-2.));
#1313 = DIRECTION('',(0.,-4.4E-16,-1.));
#1314 = DIRECTION('',(1.,0.,0.));
#1315 = CYLINDRICAL_SURFACE('',#1316,2.4);
#1316 = AXIS2_PLACEMENT_3D('',#1317,#1318,#1319);
#1317 = CARTESIAN_POINT('',(-75.,-60.,2.7E-14));
#1318 = DIRECTION('',(-0.,-4.4E-16,-1.));
#1319 = DIRECTION('',(1.,0.,0.));
#1320 = ADVANCED_FACE('',(#1321),#1340,.F.);
#1321 = FACE_BOUND('',#1322,.T.);
#1322 = EDGE_LOOP('',(#1323,#1331,#1332,#1333));
#1323 = ORIENTED_EDGE('',*,*,#1324,.F.);
#1324 = EDGE_CURVE('',#339,#1325,#1327,.T.);
#1325 = VERTEX_POINT('',#1326);
#1326 = CARTESIAN_POINT('',(-66.75,-37.,-2.));
#1327 = LINE('',#1328,#1329);
#1328 = CARTESIAN_POINT('',(-66.75,-37.,1.6E-14));
#1329 = VECTOR('',#1330,1.);
#1330 = DIRECTION('',(-6.E-17,-4.4E-16,-1.));
#1331 = ORIENTED_EDGE('',*,*,#338,.T.);
#1332 = ORIENTED_EDGE('',*,*,#1324,.T.);
#1333 = ORIENTED_EDGE('',*,*,#1334,.T.);
#1334 = EDGE_CURVE('',#1325,#1325,#1335,.T.);
#1335 = CIRCLE('',#1336,2.25);
#1336 = AXIS2_PLACEMENT_3D('',#1337,#1338,#1339);
#1337 = CARTESIAN_POINT('',(-69.,-37.,-2.));
#1338 = DIRECTION('',(0.,-4.4E-16,-1.));
#1339 = DIRECTION('',(1.,0.,0.));
#1340 = CYLINDRICAL_SURFACE('',#1341,2.25);
#1341 = AXIS2_PLACEMENT_3D('',#1342,#1343,#1344);
#1342 = CARTESIAN_POINT('',(-69.,-37.,1.6E-14));
#1343 = DIRECTION('',(-0.,-4.4E-16,-1.));
#1344 = DIRECTION('',(1.,0.,0.));
#1345 = ADVANCED_FACE('',(#1346),#1365,.F.);
#1346 = FACE_BOUND('',#1347,.T.);
#1347 = EDGE_LOOP('',(#1348,#1356,#1357,#1358));
#1348 = ORIENTED_EDGE('',*,*,#1349,.F.);
#1349 = EDGE_CURVE('',#350,#1350,#1352,.T.);
#1350 = VERTEX_POINT('',#1351);
#1351 = CARTESIAN_POINT('',(-72.6,60.,-2.));
#1352 = LINE('',#1353,#1354);
#1353 = CARTESIAN_POINT('',(-72.6,60.,-2.7E-14));
#1354 = VECTOR('',#1355,1.);
#1355 = DIRECTION('',(-6.E-17,-4.4E-16,-1.));
#1356 = ORIENTED_EDGE('',*,*,#349,.T.);
#1357 = ORIENTED_EDGE('',*,*,#1349,.T.);
#1358 = ORIENTED_EDGE('',*,*,#1359,.T.);
#1359 = EDGE_CURVE('',#1350,#1350,#1360,.T.);
#1360 = CIRCLE('',#1361,2.4);
#1361 = AXIS2_PLACEMENT_3D('',#1362,#1363,#1364);
#1362 = CARTESIAN_POINT('',(-75.,60.,-2.));
#1363 = DIRECTION('',(0.,-4.4E-16,-1.));
#1364 = DIRECTION('',(1.,0.,0.));
#1365 = CYLINDRICAL_SURFACE('',#1366,2.4);
#1366 = AXIS2_PLACEMENT_3D('',#1367,#1368,#1369);
#1367 = CARTESIAN_POINT('',(-75.,60.,-2.7E-14));
#1368 = DIRECTION('',(-0.,-4.4E-16,-1.));
#1369 = DIRECTION('',(1.,0.,0.));
#1370 = ADVANCED_FACE('',(#1371),#1390,.F.);
#1371 = FACE_BOUND('',#1372,.T.);
#1372 = EDGE_LOOP('',(#1373,#1381,#1382,#1383));
#1373 = ORIENTED_EDGE('',*,*,#1374,.F.);
#1374 = EDGE_CURVE('',#361,#1375,#1377,.T.);
#1375 = VERTEX_POINT('',#1376);
#1376 = CARTESIAN_POINT('',(-42.75,37.,-2.));
#1377 = LINE('',#1378,#1379);
#1378 = CARTESIAN_POINT('',(-42.75,37.,-1.6E-14));
#1379 = VECTOR('',#1380,1.);
#1380 = DIRECTION('',(-6.E-17,-4.4E-16,-1.));
#1381 = ORIENTED_EDGE('',*,*,#360,.T.);
#1382 = ORIENTED_EDGE('',*,*,#1374,.T.);
#1383 = ORIENTED_EDGE('',*,*,#1384,.T.);
#1384 = EDGE_CURVE('',#1375,#1375,#1385,.T.);
#1385 = CIRCLE('',#1386,2.25);
#1386 = AXIS2_PLACEMENT_3D('',#1387,#1388,#1389);
#1387 = CARTESIAN_POINT('',(-45.,37.,-2.));
#1388 = DIRECTION('',(0.,-4.4E-16,-1.));
#1389 = DIRECTION('',(1.,0.,0.));
#1390 = CYLINDRICAL_SURFACE('',#1391,2.25);
#1391 = AXIS2_PLACEMENT_3D('',#1392,#1393,#1394);
#1392 = CARTESIAN_POINT('',(-45.,37.,-1.6E-14));
#1393 = DIRECTION('',(-0.,-4.4E-16,-1.));
#1394 = DIRECTION('',(1.,0.,0.));
#1395 = ADVANCED_FACE('',(#1396),#1415,.F.);
#1396 = FACE_BOUND('',#1397,.T.);
#1397 = EDGE_LOOP('',(#1398,#1406,#1407,#1408));
#1398 = ORIENTED_EDGE('',*,*,#1399,.F.);
#1399 = EDGE_CURVE('',#372,#1400,#1402,.T.);
#1400 = VERTEX_POINT('',#1401);
#1401 = CARTESIAN_POINT('',(77.4,-60.,-2.));
#1402 = LINE('',#1403,#1404);
#1403 = CARTESIAN_POINT('',(77.4,-60.,2.7E-14));
#1404 = VECTOR('',#1405,1.);
#1405 = DIRECTION('',(-6.E-17,-4.4E-16,-1.));
#1406 = ORIENTED_EDGE('',*,*,#371,.T.);
#1407 = ORIENTED_EDGE('',*,*,#1399,.T.);
#1408 = ORIENTED_EDGE('',*,*,#1409,.T.);
#1409 = EDGE_CURVE('',#1400,#1400,#1410,.T.);
#1410 = CIRCLE('',#1411,2.4);
#1411 = AXIS2_PLACEMENT_3D('',#1412,#1413,#1414);
#1412 = CARTESIAN_POINT('',(75.,-60.,-2.));
#1413 = DIRECTION('',(0.,-4.4E-16,-1.));
#1414 = DIRECTION('',(1.,0.,0.));
#1415 = CYLINDRICAL_SURFACE('',#1416,2.4);
#1416 = AXIS2_PLACEMENT_3D('',#1417,#1418,#1419);
#1417 = CARTESIAN_POINT('',(75.,-60.,2.7E-14));
#1418 = DIRECTION('',(-0.,-4.4E-16,-1.));
#1419 = DIRECTION('',(1.,0.,0.));
#1420 = ADVANCED_FACE('',(#1421),#1440,.F.);
#1421 = FACE_BOUND('',#1422,.T.);
#1422 = EDGE_LOOP('',(#1423,#1431,#1432,#1433));
#1423 = ORIENTED_EDGE('',*,*,#1424,.F.);
#1424 = EDGE_CURVE('',#383,#1425,#1427,.T.);
#1425 = VERTEX_POINT('',#1426);
#1426 = CARTESIAN_POINT('',(71.25,-37.,-2.));
#1427 = LINE('',#1428,#1429);
#1428 = CARTESIAN_POINT('',(71.25,-37.,1.6E-14));
#1429 = VECTOR('',#1430,1.);
#1430 = DIRECTION('',(-6.E-17,-4.4E-16,-1.));
#1431 = ORIENTED_EDGE('',*,*,#382,.T.);
#1432 = ORIENTED_EDGE('',*,*,#1424,.T.);
#1433 = ORIENTED_EDGE('',*,*,#1434,.T.);
#1434 = EDGE_CURVE('',#1425,#1425,#1435,.T.);
#1435 = CIRCLE('',#1436,2.25);
#1436 = AXIS2_PLACEMENT_3D('',#1437,#1438,#1439);
#1437 = CARTESIAN_POINT('',(69.,-37.,-2.));
#1438 = DIRECTION('',(0.,-4.4E-16,-1.));
#1439 = DIRECTION('',(1.,0.,0.));
#1440 = CYLINDRICAL_SURFACE('',#1441,2.25);
#1441 = AXIS2_PLACEMENT_3D('',#1442,#1443,#1444);
#1442 = CARTESIAN_POINT('',(69.,-37.,1.6E-14));
#1443 = DIRECTION('',(-0.,-4.4E-16,-1.));
#1444 = DIRECTION('',(1.,0.,0.));
#1445 = ADVANCED_FACE('',(#1446),#1465,.F.);
#1446 = FACE_BOUND('',#1447,.T.);
#1447 = EDGE_LOOP('',(#1448,#1456,#1457,#1458));
#1448 = ORIENTED_EDGE('',*,*,#1449,.F.);
#1449 = EDGE_CURVE('',#394,#1450,#1452,.T.);
#1450 = VERTEX_POINT('',#1451);
#1451 = CARTESIAN_POINT('',(71.25,27.,-2.));
#1452 = LINE('',#1453,#1454);
#1453 = CARTESIAN_POINT('',(71.25,27.,-1.2E-14));
#1454 = VECTOR('',#1455,1.);
#1455 = DIRECTION('',(-6.E-17,-4.4E-16,-1.));
#1456 = ORIENTED_EDGE('',*,*,#393,.T.);
#1457 = ORIENTED_EDGE('',*,*,#1449,.T.);
#1458 = ORIENTED_EDGE('',*,*,#1459,.T.);
#1459 = EDGE_CURVE('',#1450,#1450,#1460,.T.);
#1460 = CIRCLE('',#1461,2.25);
#1461 = AXIS2_PLACEMENT_3D('',#1462,#1463,#1464);
#1462 = CARTESIAN_POINT('',(69.,27.,-2.));
#1463 = DIRECTION('',(0.,-4.4E-16,-1.));
#1464 = DIRECTION('',(1.,0.,0.));
#1465 = CYLINDRICAL_SURFACE('',#1466,2.25);
#1466 = AXIS2_PLACEMENT_3D('',#1467,#1468,#1469);
#1467 = CARTESIAN_POINT('',(69.,27.,-1.2E-14));
#1468 = DIRECTION('',(-0.,-4.4E-16,-1.));
#1469 = DIRECTION('',(1.,0.,0.));
#1470 = ADVANCED_FACE('',(#1471),#1490,.F.);
#1471 = FACE_BOUND('',#1472,.T.);
#1472 = EDGE_LOOP('',(#1473,#1481,#1482,#1483));
#1473 = ORIENTED_EDGE('',*,*,#1474,.F.);
#1474 = EDGE_CURVE('',#405,#1475,#1477,.T.);
#1475 = VERTEX_POINT('',#1476);
#1476 = CARTESIAN_POINT('',(77.4,60.,-2.));
#1477 = LINE('',#1478,#1479);
#1478 = CARTESIAN_POINT('',(77.4,60.,-2.7E-14));
#1479 = VECTOR('',#1480,1.);
#1480 = DIRECTION('',(-6.E-17,-4.4E-16,-1.));
#1481 = ORIENTED_EDGE('',*,*,#404,.T.);
#1482 = ORIENTED_EDGE('',*,*,#1474,.T.);
#1483 = ORIENTED_EDGE('',*,*,#1484,.T.);
#1484 = EDGE_CURVE('',#1475,#1475,#1485,.T.);
#1485 = CIRCLE('',#1486,2.4);
#1486 = AXIS2_PLACEMENT_3D('',#1487,#1488,#1489);
#1487 = CARTESIAN_POINT('',(75.,60.,-2.));
#1488 = DIRECTION('',(0.,-4.4E-16,-1.));
#1489 = DIRECTION('',(1.,0.,0.));
#1490 = CYLINDRICAL_SURFACE('',#1491,2.4);
#1491 = AXIS2_PLACEMENT_3D('',#1492,#1493,#1494);
#1492 = CARTESIAN_POINT('',(75.,60.,-2.7E-14));
#1493 = DIRECTION('',(-0.,-4.4E-16,-1.));
#1494 = DIRECTION('',(1.,0.,0.));
#1495 = ADVANCED_FACE('',(#1496,#1526,#1536,#1539,#1542,#1545,#1548,
    #1551,#1554,#1557),#1560,.T.);
#1496 = FACE_BOUND('',#1497,.T.);
#1497 = EDGE_LOOP('',(#1498,#1499,#1500,#1501,#1502,#1503,#1504,#1505,
    #1506,#1507,#1508,#1509,#1510,#1511,#1512,#1513,#1514,#1515,#1516,
    #1517,#1518,#1519,#1520,#1521,#1522,#1523,#1524,#1525));
#1498 = ORIENTED_EDGE('',*,*,#528,.F.);
#1499 = ORIENTED_EDGE('',*,*,#584,.T.);
#1500 = ORIENTED_EDGE('',*,*,#626,.F.);
#1501 = ORIENTED_EDGE('',*,*,#682,.T.);
#1502 = ORIENTED_EDGE('',*,*,#724,.F.);
#1503 = ORIENTED_EDGE('',*,*,#780,.T.);
#1504 = ORIENTED_EDGE('',*,*,#822,.F.);
#1505 = ORIENTED_EDGE('',*,*,#878,.T.);
#1506 = ORIENTED_EDGE('',*,*,#920,.F.);
#1507 = ORIENTED_EDGE('',*,*,#976,.T.);
#1508 = ORIENTED_EDGE('',*,*,#1018,.F.);
#1509 = ORIENTED_EDGE('',*,*,#1074,.T.);
#1510 = ORIENTED_EDGE('',*,*,#1092,.F.);
#1511 = ORIENTED_EDGE('',*,*,#1049,.F.);
#1512 = ORIENTED_EDGE('',*,*,#1001,.F.);
#1513 = ORIENTED_EDGE('',*,*,#951,.F.);
#1514 = ORIENTED_EDGE('',*,*,#903,.F.);
#1515 = ORIENTED_EDGE('',*,*,#853,.F.);
#1516 = ORIENTED_EDGE('',*,*,#805,.F.);
#1517 = ORIENTED_EDGE('',*,*,#755,.F.);
#1518 = ORIENTED_EDGE('',*,*,#707,.F.);
#1519 = ORIENTED_EDGE('',*,*,#657,.F.);
#1520 = ORIENTED_EDGE('',*,*,#609,.F.);
#1521 = ORIENTED_EDGE('',*,*,#559,.F.);
#1522 = ORIENTED_EDGE('',*,*,#511,.F.);
#1523 = ORIENTED_EDGE('',*,*,#461,.F.);
#1524 = ORIENTED_EDGE('',*,*,#430,.F.);
#1525 = ORIENTED_EDGE('',*,*,#486,.T.);
#1526 = FACE_BOUND('',#1527,.T.);
#1527 = EDGE_LOOP('',(#1528,#1529,#1530,#1531,#1532,#1533,#1534,#1535));
#1528 = ORIENTED_EDGE('',*,*,#1116,.F.);
#1529 = ORIENTED_EDGE('',*,*,#1140,.T.);
#1530 = ORIENTED_EDGE('',*,*,#1195,.F.);
#1531 = ORIENTED_EDGE('',*,*,#1236,.T.);
#1532 = ORIENTED_EDGE('',*,*,#1284,.F.);
#1533 = ORIENTED_EDGE('',*,*,#1260,.F.);
#1534 = ORIENTED_EDGE('',*,*,#1212,.F.);
#1535 = ORIENTED_EDGE('',*,*,#1164,.F.);
#1536 = FACE_BOUND('',#1537,.T.);
#1537 = EDGE_LOOP('',(#1538));
#1538 = ORIENTED_EDGE('',*,*,#1309,.F.);
#1539 = FACE_BOUND('',#1540,.T.);
#1540 = EDGE_LOOP('',(#1541));
#1541 = ORIENTED_EDGE('',*,*,#1334,.F.);
#1542 = FACE_BOUND('',#1543,.T.);
#1543 = EDGE_LOOP('',(#1544));
#1544 = ORIENTED_EDGE('',*,*,#1359,.F.);
#1545 = FACE_BOUND('',#1546,.T.);
#1546 = EDGE_LOOP('',(#1547));
#1547 = ORIENTED_EDGE('',*,*,#1384,.F.);
#1548 = FACE_BOUND('',#1549,.T.);
#1549 = EDGE_LOOP('',(#1550));
#1550 = ORIENTED_EDGE('',*,*,#1409,.F.);
#1551 = FACE_BOUND('',#1552,.T.);
#1552 = EDGE_LOOP('',(#1553));
#1553 = ORIENTED_EDGE('',*,*,#1434,.F.);
#1554 = FACE_BOUND('',#1555,.T.);
#1555 = EDGE_LOOP('',(#1556));
#1556 = ORIENTED_EDGE('',*,*,#1459,.F.);
#1557 = FACE_BOUND('',#1558,.T.);
#1558 = EDGE_LOOP('',(#1559));
#1559 = ORIENTED_EDGE('',*,*,#1484,.F.);
#1560 = PLANE('',#1561);
#1561 = AXIS2_PLACEMENT_3D('',#1562,#1563,#1564);
#1562 = CARTESIAN_POINT('',(-2.89E-15,-3.89E-15,-2.));
#1563 = DIRECTION('',(0.,0.,-1.));
#1564 = DIRECTION('',(0.,1.,0.));
#1565 = ( GEOMETRIC_REPRESENTATION_CONTEXT(3) 
GLOBAL_UNCERTAINTY_ASSIGNED_CONTEXT((#1569)) 
GLOBAL_UNIT_ASSIGNED_CONTEXT((#1566,#1567,#1568)) REPRESENTATION_CONTEXT
('Context #1','3D Context with UNIT and UNCERTAINTY') );
#1566 = ( LENGTH_UNIT() NAMED_UNIT(*) SI_UNIT(.MILLI.,.METRE.) );
#1567 = ( NAMED_UNIT(*) PLANE_ANGLE_UNIT() SI_UNIT($,.RADIAN.) );
#1568 = ( NAMED_UNIT(*) SI_UNIT($,.STERADIAN.) SOLID_ANGLE_UNIT() );
#1569 = UNCERTAINTY_MEASURE_WITH_UNIT(LENGTH_MEASURE(5.E-05),#1566,
  'distance_accuracy_value','confusion accuracy');
#1570 = PRODUCT_RELATED_PRODUCT_CATEGORY('part',$,(#7));
#1571 = MECHANICAL_DESIGN_GEOMETRIC_PRESENTATION_REPRESENTATION('',(
    #1572),#1565);
#1572 = STYLED_ITEM('color',(#1573),#15);
#1573 = PRESENTATION_STYLE_ASSIGNMENT((#1574,#1580));
#1574 = SURFACE_STYLE_USAGE(.BOTH.,#1575);
#1575 = SURFACE_SIDE_STYLE('',(#1576));
#1576 = SURFACE_STYLE_FILL_AREA(#1577);
#1577 = FILL_AREA_STYLE('',(#1578));
#1578 = FILL_AREA_STYLE_COLOUR('',#1579);
#1579 = COLOUR_RGB('',1.,0.976470577825,0.807843143701);
#1580 = CURVE_STYLE('',#1581,POSITIVE_LENGTH_MEASURE(0.1),#1582);
#1581 = DRAUGHTING_PRE_DEFINED_CURVE_FONT('continuous');
#1582 = DRAUGHTING_PRE_DEFINED_COLOUR('black');
ENDSEC;
END-ISO-10303-21;
