ISO-10303-21;
HEADER;
FILE_DESCRIPTION(('FreeCAD Model'),'2;1');
FILE_NAME('Open CASCADE Shape Model','2026-02-22T20:26:32',(''),(''),
  'Open CASCADE STEP processor 7.8','FreeCAD','Unknown');
FILE_SCHEMA(('AUTOMOTIVE_DESIGN { 1 0 10303 214 1 1 1 1 }'));
ENDSEC;
DATA;
#1 = APPLICATION_PROTOCOL_DEFINITION('international standard',
  'automotive_design',2000,#2);
#2 = APPLICATION_CONTEXT(
  'core data for automotive mechanical design processes');
#3 = SHAPE_DEFINITION_REPRESENTATION(#4,#10);
#4 = PRODUCT_DEFINITION_SHAPE('','',#5);
#5 = PRODUCT_DEFINITION('design','',#6,#9);
#6 = PRODUCT_DEFINITION_FORMATION('','',#7);
#7 = PRODUCT('adaptor mount pocket','adaptor mount pocket','',(#8));
#8 = PRODUCT_CONTEXT('',#2,'mechanical');
#9 = PRODUCT_DEFINITION_CONTEXT('part definition',#2,'design');
#10 = ADVANCED_BREP_SHAPE_REPRESENTATION('',(#11,#15),#877);
#11 = AXIS2_PLACEMENT_3D('',#12,#13,#14);
#12 = CARTESIAN_POINT('',(0.,0.,0.));
#13 = DIRECTION('',(0.,0.,1.));
#14 = DIRECTION('',(1.,0.,-0.));
#15 = MANIFOLD_SOLID_BREP('',#16);
#16 = CLOSED_SHELL('',(#17,#57,#274,#298,#322,#525,#542,#559,#576,#593,
    #605,#622,#639,#656,#673,#690,#707,#729,#746,#763,#780,#797,#814,
    #831,#843,#860));
#17 = ADVANCED_FACE('',(#18),#52,.T.);
#18 = FACE_BOUND('',#19,.T.);
#19 = EDGE_LOOP('',(#20,#30,#38,#46));
#20 = ORIENTED_EDGE('',*,*,#21,.F.);
#21 = EDGE_CURVE('',#22,#24,#26,.T.);
#22 = VERTEX_POINT('',#23);
#23 = CARTESIAN_POINT('',(-83.39906166072,-70.,3.1E-14));
#24 = VERTEX_POINT('',#25);
#25 = CARTESIAN_POINT('',(83.399061660723,-70.,3.1E-14));
#26 = LINE('',#27,#28);
#27 = CARTESIAN_POINT('',(-87.39906166072,-70.,0.));
#28 = VECTOR('',#29,1.);
#29 = DIRECTION('',(1.,0.,0.));
#30 = ORIENTED_EDGE('',*,*,#31,.T.);
#31 = EDGE_CURVE('',#22,#32,#34,.T.);
#32 = VERTEX_POINT('',#33);
#33 = CARTESIAN_POINT('',(-83.39906166072,-70.,-2.));
#34 = LINE('',#35,#36);
#35 = CARTESIAN_POINT('',(-83.39906166072,-70.,3.109E-14));
#36 = VECTOR('',#37,1.);
#37 = DIRECTION('',(-0.,-4.4E-16,-1.));
#38 = ORIENTED_EDGE('',*,*,#39,.T.);
#39 = EDGE_CURVE('',#32,#40,#42,.T.);
#40 = VERTEX_POINT('',#41);
#41 = CARTESIAN_POINT('',(83.399061660723,-70.,-2.));
#42 = LINE('',#43,#44);
#43 = CARTESIAN_POINT('',(-87.39906166072,-70.,-2.));
#44 = VECTOR('',#45,1.);
#45 = DIRECTION('',(1.,0.,0.));
#46 = ORIENTED_EDGE('',*,*,#47,.F.);
#47 = EDGE_CURVE('',#24,#40,#48,.T.);
#48 = LINE('',#49,#50);
#49 = CARTESIAN_POINT('',(83.399061660723,-70.,3.109E-14));
#50 = VECTOR('',#51,1.);
#51 = DIRECTION('',(-0.,-4.4E-16,-1.));
#52 = PLANE('',#53);
#53 = AXIS2_PLACEMENT_3D('',#54,#55,#56);
#54 = CARTESIAN_POINT('',(-87.39906166072,-70.,3.109E-14));
#55 = DIRECTION('',(0.,-1.,4.4E-16));
#56 = DIRECTION('',(1.,0.,0.));
#57 = ADVANCED_FACE('',(#58,#115,#126,#137,#148,#159,#170,#181,#247,#258
    ),#269,.F.);
#58 = FACE_BOUND('',#59,.F.);
#59 = EDGE_LOOP('',(#60,#61,#69,#77,#85,#93,#101,#109));
#60 = ORIENTED_EDGE('',*,*,#21,.F.);
#61 = ORIENTED_EDGE('',*,*,#62,.T.);
#62 = EDGE_CURVE('',#22,#63,#65,.T.);
#63 = VERTEX_POINT('',#64);
#64 = CARTESIAN_POINT('',(-87.39906166072,-66.,2.9E-14));
#65 = LINE('',#66,#67);
#66 = CARTESIAN_POINT('',(-81.04929624554,-72.34976541518,1.606E-14));
#67 = VECTOR('',#68,1.);
#68 = DIRECTION('',(-0.707106781187,0.707106781187,-1.6E-16));
#69 = ORIENTED_EDGE('',*,*,#70,.F.);
#70 = EDGE_CURVE('',#71,#63,#73,.T.);
#71 = VERTEX_POINT('',#72);
#72 = CARTESIAN_POINT('',(-87.39906166072,66.,-2.9E-14));
#73 = LINE('',#74,#75);
#74 = CARTESIAN_POINT('',(-87.39906166072,70.,0.));
#75 = VECTOR('',#76,1.);
#76 = DIRECTION('',(0.,-1.,0.));
#77 = ORIENTED_EDGE('',*,*,#78,.T.);
#78 = EDGE_CURVE('',#71,#79,#81,.T.);
#79 = VERTEX_POINT('',#80);
#80 = CARTESIAN_POINT('',(-83.39906166072,70.,-3.1E-14));
#81 = LINE('',#82,#83);
#82 = CARTESIAN_POINT('',(-81.04929624554,72.349765415181,-1.606E-14));
#83 = VECTOR('',#84,1.);
#84 = DIRECTION('',(0.707106781187,0.707106781187,-1.6E-16));
#85 = ORIENTED_EDGE('',*,*,#86,.F.);
#86 = EDGE_CURVE('',#87,#79,#89,.T.);
#87 = VERTEX_POINT('',#88);
#88 = CARTESIAN_POINT('',(83.399061660723,70.,-3.1E-14));
#89 = LINE('',#90,#91);
#90 = CARTESIAN_POINT('',(87.399061660723,70.,0.));
#91 = VECTOR('',#92,1.);
#92 = DIRECTION('',(-1.,0.,0.));
#93 = ORIENTED_EDGE('',*,*,#94,.F.);
#94 = EDGE_CURVE('',#95,#87,#97,.T.);
#95 = VERTEX_POINT('',#96);
#96 = CARTESIAN_POINT('',(87.399061660723,66.,-2.9E-14));
#97 = LINE('',#98,#99);
#98 = CARTESIAN_POINT('',(81.049296245542,72.349765415181,-1.606E-14));
#99 = VECTOR('',#100,1.);
#100 = DIRECTION('',(-0.707106781187,0.707106781187,-1.6E-16));
#101 = ORIENTED_EDGE('',*,*,#102,.F.);
#102 = EDGE_CURVE('',#103,#95,#105,.T.);
#103 = VERTEX_POINT('',#104);
#104 = CARTESIAN_POINT('',(87.399061660723,-66.,2.9E-14));
#105 = LINE('',#106,#107);
#106 = CARTESIAN_POINT('',(87.399061660723,-70.,0.));
#107 = VECTOR('',#108,1.);
#108 = DIRECTION('',(0.,1.,0.));
#109 = ORIENTED_EDGE('',*,*,#110,.F.);
#110 = EDGE_CURVE('',#24,#103,#111,.T.);
#111 = LINE('',#112,#113);
#112 = CARTESIAN_POINT('',(81.049296245542,-72.34976541518,1.606E-14));
#113 = VECTOR('',#114,1.);
#114 = DIRECTION('',(0.707106781187,0.707106781187,-1.6E-16));
#115 = FACE_BOUND('',#116,.F.);
#116 = EDGE_LOOP('',(#117));
#117 = ORIENTED_EDGE('',*,*,#118,.T.);
#118 = EDGE_CURVE('',#119,#119,#121,.T.);
#119 = VERTEX_POINT('',#120);
#120 = CARTESIAN_POINT('',(-72.6,-60.,2.7E-14));
#121 = CIRCLE('',#122,2.4);
#122 = AXIS2_PLACEMENT_3D('',#123,#124,#125);
#123 = CARTESIAN_POINT('',(-75.,-60.,2.7E-14));
#124 = DIRECTION('',(-0.,4.4E-16,1.));
#125 = DIRECTION('',(1.,0.,0.));
#126 = FACE_BOUND('',#127,.F.);
#127 = EDGE_LOOP('',(#128));
#128 = ORIENTED_EDGE('',*,*,#129,.T.);
#129 = EDGE_CURVE('',#130,#130,#132,.T.);
#130 = VERTEX_POINT('',#131);
#131 = CARTESIAN_POINT('',(-47.75,-50.,2.2E-14));
#132 = CIRCLE('',#133,2.25);
#133 = AXIS2_PLACEMENT_3D('',#134,#135,#136);
#134 = CARTESIAN_POINT('',(-50.,-50.,2.2E-14));
#135 = DIRECTION('',(-0.,4.4E-16,1.));
#136 = DIRECTION('',(1.,0.,0.));
#137 = FACE_BOUND('',#138,.F.);
#138 = EDGE_LOOP('',(#139));
#139 = ORIENTED_EDGE('',*,*,#140,.T.);
#140 = EDGE_CURVE('',#141,#141,#143,.T.);
#141 = VERTEX_POINT('',#142);
#142 = CARTESIAN_POINT('',(-72.6,60.,-2.7E-14));
#143 = CIRCLE('',#144,2.4);
#144 = AXIS2_PLACEMENT_3D('',#145,#146,#147);
#145 = CARTESIAN_POINT('',(-75.,60.,-2.7E-14));
#146 = DIRECTION('',(-0.,4.4E-16,1.));
#147 = DIRECTION('',(1.,0.,0.));
#148 = FACE_BOUND('',#149,.F.);
#149 = EDGE_LOOP('',(#150));
#150 = ORIENTED_EDGE('',*,*,#151,.T.);
#151 = EDGE_CURVE('',#152,#152,#154,.T.);
#152 = VERTEX_POINT('',#153);
#153 = CARTESIAN_POINT('',(-47.75,50.,-2.2E-14));
#154 = CIRCLE('',#155,2.25);
#155 = AXIS2_PLACEMENT_3D('',#156,#157,#158);
#156 = CARTESIAN_POINT('',(-50.,50.,-2.2E-14));
#157 = DIRECTION('',(-0.,4.4E-16,1.));
#158 = DIRECTION('',(1.,0.,0.));
#159 = FACE_BOUND('',#160,.F.);
#160 = EDGE_LOOP('',(#161));
#161 = ORIENTED_EDGE('',*,*,#162,.T.);
#162 = EDGE_CURVE('',#163,#163,#165,.T.);
#163 = VERTEX_POINT('',#164);
#164 = CARTESIAN_POINT('',(52.25,-50.,2.2E-14));
#165 = CIRCLE('',#166,2.25);
#166 = AXIS2_PLACEMENT_3D('',#167,#168,#169);
#167 = CARTESIAN_POINT('',(50.,-50.,2.2E-14));
#168 = DIRECTION('',(-0.,4.4E-16,1.));
#169 = DIRECTION('',(1.,0.,0.));
#170 = FACE_BOUND('',#171,.F.);
#171 = EDGE_LOOP('',(#172));
#172 = ORIENTED_EDGE('',*,*,#173,.T.);
#173 = EDGE_CURVE('',#174,#174,#176,.T.);
#174 = VERTEX_POINT('',#175);
#175 = CARTESIAN_POINT('',(77.4,-60.,2.7E-14));
#176 = CIRCLE('',#177,2.4);
#177 = AXIS2_PLACEMENT_3D('',#178,#179,#180);
#178 = CARTESIAN_POINT('',(75.,-60.,2.7E-14));
#179 = DIRECTION('',(-0.,4.4E-16,1.));
#180 = DIRECTION('',(1.,0.,0.));
#181 = FACE_BOUND('',#182,.F.);
#182 = EDGE_LOOP('',(#183,#193,#201,#209,#217,#225,#233,#241));
#183 = ORIENTED_EDGE('',*,*,#184,.T.);
#184 = EDGE_CURVE('',#185,#187,#189,.T.);
#185 = VERTEX_POINT('',#186);
#186 = CARTESIAN_POINT('',(50.,40.,-1.8E-14));
#187 = VERTEX_POINT('',#188);
#188 = CARTESIAN_POINT('',(40.,50.,-2.2E-14));
#189 = LINE('',#190,#191);
#190 = CARTESIAN_POINT('',(50.,40.,0.));
#191 = VECTOR('',#192,1.);
#192 = DIRECTION('',(-0.707106781187,0.707106781187,0.));
#193 = ORIENTED_EDGE('',*,*,#194,.T.);
#194 = EDGE_CURVE('',#187,#195,#197,.T.);
#195 = VERTEX_POINT('',#196);
#196 = CARTESIAN_POINT('',(-40.,50.,-2.2E-14));
#197 = LINE('',#198,#199);
#198 = CARTESIAN_POINT('',(40.,50.,0.));
#199 = VECTOR('',#200,1.);
#200 = DIRECTION('',(-1.,0.,0.));
#201 = ORIENTED_EDGE('',*,*,#202,.T.);
#202 = EDGE_CURVE('',#195,#203,#205,.T.);
#203 = VERTEX_POINT('',#204);
#204 = CARTESIAN_POINT('',(-50.,40.,-1.8E-14));
#205 = LINE('',#206,#207);
#206 = CARTESIAN_POINT('',(-40.,50.,0.));
#207 = VECTOR('',#208,1.);
#208 = DIRECTION('',(-0.707106781187,-0.707106781187,0.));
#209 = ORIENTED_EDGE('',*,*,#210,.T.);
#210 = EDGE_CURVE('',#203,#211,#213,.T.);
#211 = VERTEX_POINT('',#212);
#212 = CARTESIAN_POINT('',(-50.,-40.,1.8E-14));
#213 = LINE('',#214,#215);
#214 = CARTESIAN_POINT('',(-50.,40.,0.));
#215 = VECTOR('',#216,1.);
#216 = DIRECTION('',(0.,-1.,0.));
#217 = ORIENTED_EDGE('',*,*,#218,.T.);
#218 = EDGE_CURVE('',#211,#219,#221,.T.);
#219 = VERTEX_POINT('',#220);
#220 = CARTESIAN_POINT('',(-40.,-50.,2.2E-14));
#221 = LINE('',#222,#223);
#222 = CARTESIAN_POINT('',(-50.,-40.,0.));
#223 = VECTOR('',#224,1.);
#224 = DIRECTION('',(0.707106781187,-0.707106781187,0.));
#225 = ORIENTED_EDGE('',*,*,#226,.T.);
#226 = EDGE_CURVE('',#219,#227,#229,.T.);
#227 = VERTEX_POINT('',#228);
#228 = CARTESIAN_POINT('',(40.,-50.,2.2E-14));
#229 = LINE('',#230,#231);
#230 = CARTESIAN_POINT('',(-40.,-50.,0.));
#231 = VECTOR('',#232,1.);
#232 = DIRECTION('',(1.,0.,0.));
#233 = ORIENTED_EDGE('',*,*,#234,.T.);
#234 = EDGE_CURVE('',#227,#235,#237,.T.);
#235 = VERTEX_POINT('',#236);
#236 = CARTESIAN_POINT('',(50.,-40.,1.8E-14));
#237 = LINE('',#238,#239);
#238 = CARTESIAN_POINT('',(40.,-50.,0.));
#239 = VECTOR('',#240,1.);
#240 = DIRECTION('',(0.707106781187,0.707106781187,0.));
#241 = ORIENTED_EDGE('',*,*,#242,.T.);
#242 = EDGE_CURVE('',#235,#185,#243,.T.);
#243 = LINE('',#244,#245);
#244 = CARTESIAN_POINT('',(50.,-40.,0.));
#245 = VECTOR('',#246,1.);
#246 = DIRECTION('',(0.,1.,0.));
#247 = FACE_BOUND('',#248,.F.);
#248 = EDGE_LOOP('',(#249));
#249 = ORIENTED_EDGE('',*,*,#250,.T.);
#250 = EDGE_CURVE('',#251,#251,#253,.T.);
#251 = VERTEX_POINT('',#252);
#252 = CARTESIAN_POINT('',(52.25,50.,-2.2E-14));
#253 = CIRCLE('',#254,2.25);
#254 = AXIS2_PLACEMENT_3D('',#255,#256,#257);
#255 = CARTESIAN_POINT('',(50.,50.,-2.2E-14));
#256 = DIRECTION('',(-0.,4.4E-16,1.));
#257 = DIRECTION('',(1.,0.,0.));
#258 = FACE_BOUND('',#259,.F.);
#259 = EDGE_LOOP('',(#260));
#260 = ORIENTED_EDGE('',*,*,#261,.T.);
#261 = EDGE_CURVE('',#262,#262,#264,.T.);
#262 = VERTEX_POINT('',#263);
#263 = CARTESIAN_POINT('',(77.4,60.,-2.7E-14));
#264 = CIRCLE('',#265,2.4);
#265 = AXIS2_PLACEMENT_3D('',#266,#267,#268);
#266 = CARTESIAN_POINT('',(75.,60.,-2.7E-14));
#267 = DIRECTION('',(-0.,4.4E-16,1.));
#268 = DIRECTION('',(1.,0.,0.));
#269 = PLANE('',#270);
#270 = AXIS2_PLACEMENT_3D('',#271,#272,#273);
#271 = CARTESIAN_POINT('',(-2.89E-15,-2.89E-15,0.));
#272 = DIRECTION('',(0.,0.,-1.));
#273 = DIRECTION('',(0.,1.,0.));
#274 = ADVANCED_FACE('',(#275),#293,.T.);
#275 = FACE_BOUND('',#276,.F.);
#276 = EDGE_LOOP('',(#277,#278,#279,#287));
#277 = ORIENTED_EDGE('',*,*,#62,.F.);
#278 = ORIENTED_EDGE('',*,*,#31,.T.);
#279 = ORIENTED_EDGE('',*,*,#280,.T.);
#280 = EDGE_CURVE('',#32,#281,#283,.T.);
#281 = VERTEX_POINT('',#282);
#282 = CARTESIAN_POINT('',(-87.39906166072,-66.,-2.));
#283 = LINE('',#284,#285);
#284 = CARTESIAN_POINT('',(-81.04929624554,-72.34976541518,-2.));
#285 = VECTOR('',#286,1.);
#286 = DIRECTION('',(-0.707106781187,0.707106781187,-1.6E-16));
#287 = ORIENTED_EDGE('',*,*,#288,.F.);
#288 = EDGE_CURVE('',#63,#281,#289,.T.);
#289 = LINE('',#290,#291);
#290 = CARTESIAN_POINT('',(-87.39906166072,-66.,2.931E-14));
#291 = VECTOR('',#292,1.);
#292 = DIRECTION('',(-0.,-4.4E-16,-1.));
#293 = PLANE('',#294);
#294 = AXIS2_PLACEMENT_3D('',#295,#296,#297);
#295 = CARTESIAN_POINT('',(-85.39906166072,-68.,3.02E-14));
#296 = DIRECTION('',(-0.707106781187,-0.707106781187,0.));
#297 = DIRECTION('',(-2.2E-16,2.2E-16,1.));
#298 = ADVANCED_FACE('',(#299),#317,.T.);
#299 = FACE_BOUND('',#300,.T.);
#300 = EDGE_LOOP('',(#301,#302,#303,#311));
#301 = ORIENTED_EDGE('',*,*,#110,.F.);
#302 = ORIENTED_EDGE('',*,*,#47,.T.);
#303 = ORIENTED_EDGE('',*,*,#304,.T.);
#304 = EDGE_CURVE('',#40,#305,#307,.T.);
#305 = VERTEX_POINT('',#306);
#306 = CARTESIAN_POINT('',(87.399061660723,-66.,-2.));
#307 = LINE('',#308,#309);
#308 = CARTESIAN_POINT('',(81.049296245542,-72.34976541518,-2.));
#309 = VECTOR('',#310,1.);
#310 = DIRECTION('',(0.707106781187,0.707106781187,-1.6E-16));
#311 = ORIENTED_EDGE('',*,*,#312,.F.);
#312 = EDGE_CURVE('',#103,#305,#313,.T.);
#313 = LINE('',#314,#315);
#314 = CARTESIAN_POINT('',(87.399061660723,-66.,2.931E-14));
#315 = VECTOR('',#316,1.);
#316 = DIRECTION('',(-0.,-4.4E-16,-1.));
#317 = PLANE('',#318);
#318 = AXIS2_PLACEMENT_3D('',#319,#320,#321);
#319 = CARTESIAN_POINT('',(85.399061660723,-68.,3.02E-14));
#320 = DIRECTION('',(0.707106781187,-0.707106781187,0.));
#321 = DIRECTION('',(-2.2E-16,-2.2E-16,-1.));
#322 = ADVANCED_FACE('',(#323,#366,#377,#388,#399,#410,#421,#432,#498,
    #509),#520,.T.);
#323 = FACE_BOUND('',#324,.T.);
#324 = EDGE_LOOP('',(#325,#326,#327,#335,#343,#351,#359,#365));
#325 = ORIENTED_EDGE('',*,*,#39,.F.);
#326 = ORIENTED_EDGE('',*,*,#280,.T.);
#327 = ORIENTED_EDGE('',*,*,#328,.F.);
#328 = EDGE_CURVE('',#329,#281,#331,.T.);
#329 = VERTEX_POINT('',#330);
#330 = CARTESIAN_POINT('',(-87.39906166072,66.,-2.));
#331 = LINE('',#332,#333);
#332 = CARTESIAN_POINT('',(-87.39906166072,70.,-2.));
#333 = VECTOR('',#334,1.);
#334 = DIRECTION('',(0.,-1.,0.));
#335 = ORIENTED_EDGE('',*,*,#336,.T.);
#336 = EDGE_CURVE('',#329,#337,#339,.T.);
#337 = VERTEX_POINT('',#338);
#338 = CARTESIAN_POINT('',(-83.39906166072,70.,-2.));
#339 = LINE('',#340,#341);
#340 = CARTESIAN_POINT('',(-81.04929624554,72.349765415181,-2.));
#341 = VECTOR('',#342,1.);
#342 = DIRECTION('',(0.707106781187,0.707106781187,-1.6E-16));
#343 = ORIENTED_EDGE('',*,*,#344,.F.);
#344 = EDGE_CURVE('',#345,#337,#347,.T.);
#345 = VERTEX_POINT('',#346);
#346 = CARTESIAN_POINT('',(83.399061660723,70.,-2.));
#347 = LINE('',#348,#349);
#348 = CARTESIAN_POINT('',(87.399061660723,70.,-2.));
#349 = VECTOR('',#350,1.);
#350 = DIRECTION('',(-1.,0.,0.));
#351 = ORIENTED_EDGE('',*,*,#352,.F.);
#352 = EDGE_CURVE('',#353,#345,#355,.T.);
#353 = VERTEX_POINT('',#354);
#354 = CARTESIAN_POINT('',(87.399061660723,66.,-2.));
#355 = LINE('',#356,#357);
#356 = CARTESIAN_POINT('',(81.049296245542,72.349765415181,-2.));
#357 = VECTOR('',#358,1.);
#358 = DIRECTION('',(-0.707106781187,0.707106781187,-1.6E-16));
#359 = ORIENTED_EDGE('',*,*,#360,.F.);
#360 = EDGE_CURVE('',#305,#353,#361,.T.);
#361 = LINE('',#362,#363);
#362 = CARTESIAN_POINT('',(87.399061660723,-70.,-2.));
#363 = VECTOR('',#364,1.);
#364 = DIRECTION('',(0.,1.,0.));
#365 = ORIENTED_EDGE('',*,*,#304,.F.);
#366 = FACE_BOUND('',#367,.T.);
#367 = EDGE_LOOP('',(#368));
#368 = ORIENTED_EDGE('',*,*,#369,.F.);
#369 = EDGE_CURVE('',#370,#370,#372,.T.);
#370 = VERTEX_POINT('',#371);
#371 = CARTESIAN_POINT('',(-72.6,-60.,-2.));
#372 = CIRCLE('',#373,2.4);
#373 = AXIS2_PLACEMENT_3D('',#374,#375,#376);
#374 = CARTESIAN_POINT('',(-75.,-60.,-2.));
#375 = DIRECTION('',(0.,-4.4E-16,-1.));
#376 = DIRECTION('',(1.,0.,0.));
#377 = FACE_BOUND('',#378,.T.);
#378 = EDGE_LOOP('',(#379));
#379 = ORIENTED_EDGE('',*,*,#380,.F.);
#380 = EDGE_CURVE('',#381,#381,#383,.T.);
#381 = VERTEX_POINT('',#382);
#382 = CARTESIAN_POINT('',(-47.75,-50.,-2.));
#383 = CIRCLE('',#384,2.25);
#384 = AXIS2_PLACEMENT_3D('',#385,#386,#387);
#385 = CARTESIAN_POINT('',(-50.,-50.,-2.));
#386 = DIRECTION('',(0.,-4.4E-16,-1.));
#387 = DIRECTION('',(1.,0.,0.));
#388 = FACE_BOUND('',#389,.T.);
#389 = EDGE_LOOP('',(#390));
#390 = ORIENTED_EDGE('',*,*,#391,.F.);
#391 = EDGE_CURVE('',#392,#392,#394,.T.);
#392 = VERTEX_POINT('',#393);
#393 = CARTESIAN_POINT('',(-72.6,60.,-2.));
#394 = CIRCLE('',#395,2.4);
#395 = AXIS2_PLACEMENT_3D('',#396,#397,#398);
#396 = CARTESIAN_POINT('',(-75.,60.,-2.));
#397 = DIRECTION('',(0.,-4.4E-16,-1.));
#398 = DIRECTION('',(1.,0.,0.));
#399 = FACE_BOUND('',#400,.T.);
#400 = EDGE_LOOP('',(#401));
#401 = ORIENTED_EDGE('',*,*,#402,.F.);
#402 = EDGE_CURVE('',#403,#403,#405,.T.);
#403 = VERTEX_POINT('',#404);
#404 = CARTESIAN_POINT('',(-47.75,50.,-2.));
#405 = CIRCLE('',#406,2.25);
#406 = AXIS2_PLACEMENT_3D('',#407,#408,#409);
#407 = CARTESIAN_POINT('',(-50.,50.,-2.));
#408 = DIRECTION('',(0.,-4.4E-16,-1.));
#409 = DIRECTION('',(1.,0.,0.));
#410 = FACE_BOUND('',#411,.T.);
#411 = EDGE_LOOP('',(#412));
#412 = ORIENTED_EDGE('',*,*,#413,.F.);
#413 = EDGE_CURVE('',#414,#414,#416,.T.);
#414 = VERTEX_POINT('',#415);
#415 = CARTESIAN_POINT('',(52.25,-50.,-2.));
#416 = CIRCLE('',#417,2.25);
#417 = AXIS2_PLACEMENT_3D('',#418,#419,#420);
#418 = CARTESIAN_POINT('',(50.,-50.,-2.));
#419 = DIRECTION('',(0.,-4.4E-16,-1.));
#420 = DIRECTION('',(1.,0.,0.));
#421 = FACE_BOUND('',#422,.T.);
#422 = EDGE_LOOP('',(#423));
#423 = ORIENTED_EDGE('',*,*,#424,.F.);
#424 = EDGE_CURVE('',#425,#425,#427,.T.);
#425 = VERTEX_POINT('',#426);
#426 = CARTESIAN_POINT('',(77.4,-60.,-2.));
#427 = CIRCLE('',#428,2.4);
#428 = AXIS2_PLACEMENT_3D('',#429,#430,#431);
#429 = CARTESIAN_POINT('',(75.,-60.,-2.));
#430 = DIRECTION('',(0.,-4.4E-16,-1.));
#431 = DIRECTION('',(1.,0.,0.));
#432 = FACE_BOUND('',#433,.T.);
#433 = EDGE_LOOP('',(#434,#444,#452,#460,#468,#476,#484,#492));
#434 = ORIENTED_EDGE('',*,*,#435,.F.);
#435 = EDGE_CURVE('',#436,#438,#440,.T.);
#436 = VERTEX_POINT('',#437);
#437 = CARTESIAN_POINT('',(-40.,50.,-2.));
#438 = VERTEX_POINT('',#439);
#439 = CARTESIAN_POINT('',(40.,50.,-2.));
#440 = LINE('',#441,#442);
#441 = CARTESIAN_POINT('',(20.,50.,-2.));
#442 = VECTOR('',#443,1.);
#443 = DIRECTION('',(1.,0.,0.));
#444 = ORIENTED_EDGE('',*,*,#445,.F.);
#445 = EDGE_CURVE('',#446,#436,#448,.T.);
#446 = VERTEX_POINT('',#447);
#447 = CARTESIAN_POINT('',(-50.,40.,-2.));
#448 = LINE('',#449,#450);
#449 = CARTESIAN_POINT('',(-42.5,47.5,-2.));
#450 = VECTOR('',#451,1.);
#451 = DIRECTION('',(0.707106781187,0.707106781187,-1.6E-16));
#452 = ORIENTED_EDGE('',*,*,#453,.F.);
#453 = EDGE_CURVE('',#454,#446,#456,.T.);
#454 = VERTEX_POINT('',#455);
#455 = CARTESIAN_POINT('',(-50.,-40.,-2.));
#456 = LINE('',#457,#458);
#457 = CARTESIAN_POINT('',(-50.,20.,-2.));
#458 = VECTOR('',#459,1.);
#459 = DIRECTION('',(-0.,1.,-2.2E-16));
#460 = ORIENTED_EDGE('',*,*,#461,.F.);
#461 = EDGE_CURVE('',#462,#454,#464,.T.);
#462 = VERTEX_POINT('',#463);
#463 = CARTESIAN_POINT('',(-40.,-50.,-2.));
#464 = LINE('',#465,#466);
#465 = CARTESIAN_POINT('',(-47.5,-42.5,-2.));
#466 = VECTOR('',#467,1.);
#467 = DIRECTION('',(-0.707106781187,0.707106781187,-1.6E-16));
#468 = ORIENTED_EDGE('',*,*,#469,.F.);
#469 = EDGE_CURVE('',#470,#462,#472,.T.);
#470 = VERTEX_POINT('',#471);
#471 = CARTESIAN_POINT('',(40.,-50.,-2.));
#472 = LINE('',#473,#474);
#473 = CARTESIAN_POINT('',(-20.,-50.,-2.));
#474 = VECTOR('',#475,1.);
#475 = DIRECTION('',(-1.,-0.,0.));
#476 = ORIENTED_EDGE('',*,*,#477,.F.);
#477 = EDGE_CURVE('',#478,#470,#480,.T.);
#478 = VERTEX_POINT('',#479);
#479 = CARTESIAN_POINT('',(50.,-40.,-2.));
#480 = LINE('',#481,#482);
#481 = CARTESIAN_POINT('',(42.5,-47.5,-2.));
#482 = VECTOR('',#483,1.);
#483 = DIRECTION('',(-0.707106781187,-0.707106781187,1.6E-16));
#484 = ORIENTED_EDGE('',*,*,#485,.F.);
#485 = EDGE_CURVE('',#486,#478,#488,.T.);
#486 = VERTEX_POINT('',#487);
#487 = CARTESIAN_POINT('',(50.,40.,-2.));
#488 = LINE('',#489,#490);
#489 = CARTESIAN_POINT('',(50.,-20.,-2.));
#490 = VECTOR('',#491,1.);
#491 = DIRECTION('',(0.,-1.,2.2E-16));
#492 = ORIENTED_EDGE('',*,*,#493,.F.);
#493 = EDGE_CURVE('',#438,#486,#494,.T.);
#494 = LINE('',#495,#496);
#495 = CARTESIAN_POINT('',(47.5,42.5,-2.));
#496 = VECTOR('',#497,1.);
#497 = DIRECTION('',(0.707106781187,-0.707106781187,1.6E-16));
#498 = FACE_BOUND('',#499,.T.);
#499 = EDGE_LOOP('',(#500));
#500 = ORIENTED_EDGE('',*,*,#501,.F.);
#501 = EDGE_CURVE('',#502,#502,#504,.T.);
#502 = VERTEX_POINT('',#503);
#503 = CARTESIAN_POINT('',(52.25,50.,-2.));
#504 = CIRCLE('',#505,2.25);
#505 = AXIS2_PLACEMENT_3D('',#506,#507,#508);
#506 = CARTESIAN_POINT('',(50.,50.,-2.));
#507 = DIRECTION('',(0.,-4.4E-16,-1.));
#508 = DIRECTION('',(1.,0.,0.));
#509 = FACE_BOUND('',#510,.T.);
#510 = EDGE_LOOP('',(#511));
#511 = ORIENTED_EDGE('',*,*,#512,.F.);
#512 = EDGE_CURVE('',#513,#513,#515,.T.);
#513 = VERTEX_POINT('',#514);
#514 = CARTESIAN_POINT('',(77.4,60.,-2.));
#515 = CIRCLE('',#516,2.4);
#516 = AXIS2_PLACEMENT_3D('',#517,#518,#519);
#517 = CARTESIAN_POINT('',(75.,60.,-2.));
#518 = DIRECTION('',(0.,-4.4E-16,-1.));
#519 = DIRECTION('',(1.,0.,0.));
#520 = PLANE('',#521);
#521 = AXIS2_PLACEMENT_3D('',#522,#523,#524);
#522 = CARTESIAN_POINT('',(-2.89E-15,-3.89E-15,-2.));
#523 = DIRECTION('',(0.,0.,-1.));
#524 = DIRECTION('',(0.,1.,0.));
#525 = ADVANCED_FACE('',(#526),#537,.T.);
#526 = FACE_BOUND('',#527,.T.);
#527 = EDGE_LOOP('',(#528,#529,#535,#536));
#528 = ORIENTED_EDGE('',*,*,#70,.F.);
#529 = ORIENTED_EDGE('',*,*,#530,.T.);
#530 = EDGE_CURVE('',#71,#329,#531,.T.);
#531 = LINE('',#532,#533);
#532 = CARTESIAN_POINT('',(-87.39906166072,66.,-2.931E-14));
#533 = VECTOR('',#534,1.);
#534 = DIRECTION('',(-0.,-4.4E-16,-1.));
#535 = ORIENTED_EDGE('',*,*,#328,.T.);
#536 = ORIENTED_EDGE('',*,*,#288,.F.);
#537 = PLANE('',#538);
#538 = AXIS2_PLACEMENT_3D('',#539,#540,#541);
#539 = CARTESIAN_POINT('',(-87.39906166072,70.,-3.109E-14));
#540 = DIRECTION('',(-1.,0.,0.));
#541 = DIRECTION('',(0.,-1.,4.4E-16));
#542 = ADVANCED_FACE('',(#543),#554,.T.);
#543 = FACE_BOUND('',#544,.T.);
#544 = EDGE_LOOP('',(#545,#546,#547,#548));
#545 = ORIENTED_EDGE('',*,*,#102,.F.);
#546 = ORIENTED_EDGE('',*,*,#312,.T.);
#547 = ORIENTED_EDGE('',*,*,#360,.T.);
#548 = ORIENTED_EDGE('',*,*,#549,.F.);
#549 = EDGE_CURVE('',#95,#353,#550,.T.);
#550 = LINE('',#551,#552);
#551 = CARTESIAN_POINT('',(87.399061660723,66.,-2.931E-14));
#552 = VECTOR('',#553,1.);
#553 = DIRECTION('',(-0.,-4.4E-16,-1.));
#554 = PLANE('',#555);
#555 = AXIS2_PLACEMENT_3D('',#556,#557,#558);
#556 = CARTESIAN_POINT('',(87.399061660723,-70.,3.109E-14));
#557 = DIRECTION('',(1.,0.,0.));
#558 = DIRECTION('',(0.,1.,-4.4E-16));
#559 = ADVANCED_FACE('',(#560),#571,.T.);
#560 = FACE_BOUND('',#561,.F.);
#561 = EDGE_LOOP('',(#562,#563,#564,#565));
#562 = ORIENTED_EDGE('',*,*,#78,.F.);
#563 = ORIENTED_EDGE('',*,*,#530,.T.);
#564 = ORIENTED_EDGE('',*,*,#336,.T.);
#565 = ORIENTED_EDGE('',*,*,#566,.F.);
#566 = EDGE_CURVE('',#79,#337,#567,.T.);
#567 = LINE('',#568,#569);
#568 = CARTESIAN_POINT('',(-83.39906166072,70.,-3.109E-14));
#569 = VECTOR('',#570,1.);
#570 = DIRECTION('',(-0.,-4.4E-16,-1.));
#571 = PLANE('',#572);
#572 = AXIS2_PLACEMENT_3D('',#573,#574,#575);
#573 = CARTESIAN_POINT('',(-85.39906166072,68.,-3.02E-14));
#574 = DIRECTION('',(-0.707106781187,0.707106781187,0.));
#575 = DIRECTION('',(2.2E-16,2.2E-16,1.));
#576 = ADVANCED_FACE('',(#577),#588,.T.);
#577 = FACE_BOUND('',#578,.T.);
#578 = EDGE_LOOP('',(#579,#580,#581,#582));
#579 = ORIENTED_EDGE('',*,*,#94,.F.);
#580 = ORIENTED_EDGE('',*,*,#549,.T.);
#581 = ORIENTED_EDGE('',*,*,#352,.T.);
#582 = ORIENTED_EDGE('',*,*,#583,.F.);
#583 = EDGE_CURVE('',#87,#345,#584,.T.);
#584 = LINE('',#585,#586);
#585 = CARTESIAN_POINT('',(83.399061660723,70.,-3.109E-14));
#586 = VECTOR('',#587,1.);
#587 = DIRECTION('',(-0.,-4.4E-16,-1.));
#588 = PLANE('',#589);
#589 = AXIS2_PLACEMENT_3D('',#590,#591,#592);
#590 = CARTESIAN_POINT('',(85.399061660723,68.,-3.02E-14));
#591 = DIRECTION('',(0.707106781187,0.707106781187,0.));
#592 = DIRECTION('',(2.2E-16,-2.2E-16,-1.));
#593 = ADVANCED_FACE('',(#594),#600,.T.);
#594 = FACE_BOUND('',#595,.T.);
#595 = EDGE_LOOP('',(#596,#597,#598,#599));
#596 = ORIENTED_EDGE('',*,*,#86,.F.);
#597 = ORIENTED_EDGE('',*,*,#583,.T.);
#598 = ORIENTED_EDGE('',*,*,#344,.T.);
#599 = ORIENTED_EDGE('',*,*,#566,.F.);
#600 = PLANE('',#601);
#601 = AXIS2_PLACEMENT_3D('',#602,#603,#604);
#602 = CARTESIAN_POINT('',(87.399061660723,70.,-3.109E-14));
#603 = DIRECTION('',(0.,1.,-4.4E-16));
#604 = DIRECTION('',(-1.,0.,0.));
#605 = ADVANCED_FACE('',(#606),#617,.F.);
#606 = FACE_BOUND('',#607,.T.);
#607 = EDGE_LOOP('',(#608,#614,#615,#616));
#608 = ORIENTED_EDGE('',*,*,#609,.F.);
#609 = EDGE_CURVE('',#119,#370,#610,.T.);
#610 = LINE('',#611,#612);
#611 = CARTESIAN_POINT('',(-72.6,-60.,2.7E-14));
#612 = VECTOR('',#613,1.);
#613 = DIRECTION('',(-6.E-17,-4.4E-16,-1.));
#614 = ORIENTED_EDGE('',*,*,#118,.T.);
#615 = ORIENTED_EDGE('',*,*,#609,.T.);
#616 = ORIENTED_EDGE('',*,*,#369,.T.);
#617 = CYLINDRICAL_SURFACE('',#618,2.4);
#618 = AXIS2_PLACEMENT_3D('',#619,#620,#621);
#619 = CARTESIAN_POINT('',(-75.,-60.,2.7E-14));
#620 = DIRECTION('',(-0.,-4.4E-16,-1.));
#621 = DIRECTION('',(1.,0.,0.));
#622 = ADVANCED_FACE('',(#623),#634,.F.);
#623 = FACE_BOUND('',#624,.T.);
#624 = EDGE_LOOP('',(#625,#631,#632,#633));
#625 = ORIENTED_EDGE('',*,*,#626,.F.);
#626 = EDGE_CURVE('',#130,#381,#627,.T.);
#627 = LINE('',#628,#629);
#628 = CARTESIAN_POINT('',(-47.75,-50.,2.2E-14));
#629 = VECTOR('',#630,1.);
#630 = DIRECTION('',(-6.E-17,-4.4E-16,-1.));
#631 = ORIENTED_EDGE('',*,*,#129,.T.);
#632 = ORIENTED_EDGE('',*,*,#626,.T.);
#633 = ORIENTED_EDGE('',*,*,#380,.T.);
#634 = CYLINDRICAL_SURFACE('',#635,2.25);
#635 = AXIS2_PLACEMENT_3D('',#636,#637,#638);
#636 = CARTESIAN_POINT('',(-50.,-50.,2.2E-14));
#637 = DIRECTION('',(-0.,-4.4E-16,-1.));
#638 = DIRECTION('',(1.,0.,0.));
#639 = ADVANCED_FACE('',(#640),#651,.F.);
#640 = FACE_BOUND('',#641,.T.);
#641 = EDGE_LOOP('',(#642,#648,#649,#650));
#642 = ORIENTED_EDGE('',*,*,#643,.F.);
#643 = EDGE_CURVE('',#141,#392,#644,.T.);
#644 = LINE('',#645,#646);
#645 = CARTESIAN_POINT('',(-72.6,60.,-2.7E-14));
#646 = VECTOR('',#647,1.);
#647 = DIRECTION('',(-6.E-17,-4.4E-16,-1.));
#648 = ORIENTED_EDGE('',*,*,#140,.T.);
#649 = ORIENTED_EDGE('',*,*,#643,.T.);
#650 = ORIENTED_EDGE('',*,*,#391,.T.);
#651 = CYLINDRICAL_SURFACE('',#652,2.4);
#652 = AXIS2_PLACEMENT_3D('',#653,#654,#655);
#653 = CARTESIAN_POINT('',(-75.,60.,-2.7E-14));
#654 = DIRECTION('',(-0.,-4.4E-16,-1.));
#655 = DIRECTION('',(1.,0.,0.));
#656 = ADVANCED_FACE('',(#657),#668,.F.);
#657 = FACE_BOUND('',#658,.T.);
#658 = EDGE_LOOP('',(#659,#665,#666,#667));
#659 = ORIENTED_EDGE('',*,*,#660,.F.);
#660 = EDGE_CURVE('',#152,#403,#661,.T.);
#661 = LINE('',#662,#663);
#662 = CARTESIAN_POINT('',(-47.75,50.,-2.2E-14));
#663 = VECTOR('',#664,1.);
#664 = DIRECTION('',(-6.E-17,-4.4E-16,-1.));
#665 = ORIENTED_EDGE('',*,*,#151,.T.);
#666 = ORIENTED_EDGE('',*,*,#660,.T.);
#667 = ORIENTED_EDGE('',*,*,#402,.T.);
#668 = CYLINDRICAL_SURFACE('',#669,2.25);
#669 = AXIS2_PLACEMENT_3D('',#670,#671,#672);
#670 = CARTESIAN_POINT('',(-50.,50.,-2.2E-14));
#671 = DIRECTION('',(-0.,-4.4E-16,-1.));
#672 = DIRECTION('',(1.,0.,0.));
#673 = ADVANCED_FACE('',(#674),#685,.F.);
#674 = FACE_BOUND('',#675,.T.);
#675 = EDGE_LOOP('',(#676,#682,#683,#684));
#676 = ORIENTED_EDGE('',*,*,#677,.F.);
#677 = EDGE_CURVE('',#163,#414,#678,.T.);
#678 = LINE('',#679,#680);
#679 = CARTESIAN_POINT('',(52.25,-50.,2.2E-14));
#680 = VECTOR('',#681,1.);
#681 = DIRECTION('',(-6.E-17,-4.4E-16,-1.));
#682 = ORIENTED_EDGE('',*,*,#162,.T.);
#683 = ORIENTED_EDGE('',*,*,#677,.T.);
#684 = ORIENTED_EDGE('',*,*,#413,.T.);
#685 = CYLINDRICAL_SURFACE('',#686,2.25);
#686 = AXIS2_PLACEMENT_3D('',#687,#688,#689);
#687 = CARTESIAN_POINT('',(50.,-50.,2.2E-14));
#688 = DIRECTION('',(-0.,-4.4E-16,-1.));
#689 = DIRECTION('',(1.,0.,0.));
#690 = ADVANCED_FACE('',(#691),#702,.F.);
#691 = FACE_BOUND('',#692,.T.);
#692 = EDGE_LOOP('',(#693,#699,#700,#701));
#693 = ORIENTED_EDGE('',*,*,#694,.F.);
#694 = EDGE_CURVE('',#174,#425,#695,.T.);
#695 = LINE('',#696,#697);
#696 = CARTESIAN_POINT('',(77.4,-60.,2.7E-14));
#697 = VECTOR('',#698,1.);
#698 = DIRECTION('',(-6.E-17,-4.4E-16,-1.));
#699 = ORIENTED_EDGE('',*,*,#173,.T.);
#700 = ORIENTED_EDGE('',*,*,#694,.T.);
#701 = ORIENTED_EDGE('',*,*,#424,.T.);
#702 = CYLINDRICAL_SURFACE('',#703,2.4);
#703 = AXIS2_PLACEMENT_3D('',#704,#705,#706);
#704 = CARTESIAN_POINT('',(75.,-60.,2.7E-14));
#705 = DIRECTION('',(-0.,-4.4E-16,-1.));
#706 = DIRECTION('',(1.,0.,0.));
#707 = ADVANCED_FACE('',(#708),#724,.F.);
#708 = FACE_BOUND('',#709,.F.);
#709 = EDGE_LOOP('',(#710,#711,#717,#718));
#710 = ORIENTED_EDGE('',*,*,#184,.F.);
#711 = ORIENTED_EDGE('',*,*,#712,.T.);
#712 = EDGE_CURVE('',#185,#486,#713,.T.);
#713 = LINE('',#714,#715);
#714 = CARTESIAN_POINT('',(50.,40.,-1.776E-14));
#715 = VECTOR('',#716,1.);
#716 = DIRECTION('',(0.,-4.4E-16,-1.));
#717 = ORIENTED_EDGE('',*,*,#493,.F.);
#718 = ORIENTED_EDGE('',*,*,#719,.F.);
#719 = EDGE_CURVE('',#187,#438,#720,.T.);
#720 = LINE('',#721,#722);
#721 = CARTESIAN_POINT('',(40.,50.,-2.22E-14));
#722 = VECTOR('',#723,1.);
#723 = DIRECTION('',(0.,-4.4E-16,-1.));
#724 = PLANE('',#725);
#725 = AXIS2_PLACEMENT_3D('',#726,#727,#728);
#726 = CARTESIAN_POINT('',(50.,40.,-1.776E-14));
#727 = DIRECTION('',(0.707106781187,0.707106781187,-3.1E-16));
#728 = DIRECTION('',(-0.707106781187,0.707106781187,-3.1E-16));
#729 = ADVANCED_FACE('',(#730),#741,.F.);
#730 = FACE_BOUND('',#731,.F.);
#731 = EDGE_LOOP('',(#732,#733,#739,#740));
#732 = ORIENTED_EDGE('',*,*,#242,.F.);
#733 = ORIENTED_EDGE('',*,*,#734,.T.);
#734 = EDGE_CURVE('',#235,#478,#735,.T.);
#735 = LINE('',#736,#737);
#736 = CARTESIAN_POINT('',(50.,-40.,1.776E-14));
#737 = VECTOR('',#738,1.);
#738 = DIRECTION('',(0.,-4.4E-16,-1.));
#739 = ORIENTED_EDGE('',*,*,#485,.F.);
#740 = ORIENTED_EDGE('',*,*,#712,.F.);
#741 = PLANE('',#742);
#742 = AXIS2_PLACEMENT_3D('',#743,#744,#745);
#743 = CARTESIAN_POINT('',(50.,-40.,1.776E-14));
#744 = DIRECTION('',(1.,0.,0.));
#745 = DIRECTION('',(0.,1.,-4.4E-16));
#746 = ADVANCED_FACE('',(#747),#758,.F.);
#747 = FACE_BOUND('',#748,.F.);
#748 = EDGE_LOOP('',(#749,#750,#756,#757));
#749 = ORIENTED_EDGE('',*,*,#234,.F.);
#750 = ORIENTED_EDGE('',*,*,#751,.T.);
#751 = EDGE_CURVE('',#227,#470,#752,.T.);
#752 = LINE('',#753,#754);
#753 = CARTESIAN_POINT('',(40.,-50.,2.22E-14));
#754 = VECTOR('',#755,1.);
#755 = DIRECTION('',(0.,-4.4E-16,-1.));
#756 = ORIENTED_EDGE('',*,*,#477,.F.);
#757 = ORIENTED_EDGE('',*,*,#734,.F.);
#758 = PLANE('',#759);
#759 = AXIS2_PLACEMENT_3D('',#760,#761,#762);
#760 = CARTESIAN_POINT('',(40.,-50.,2.22E-14));
#761 = DIRECTION('',(0.707106781187,-0.707106781187,3.1E-16));
#762 = DIRECTION('',(0.707106781187,0.707106781187,-3.1E-16));
#763 = ADVANCED_FACE('',(#764),#775,.F.);
#764 = FACE_BOUND('',#765,.F.);
#765 = EDGE_LOOP('',(#766,#767,#773,#774));
#766 = ORIENTED_EDGE('',*,*,#226,.F.);
#767 = ORIENTED_EDGE('',*,*,#768,.T.);
#768 = EDGE_CURVE('',#219,#462,#769,.T.);
#769 = LINE('',#770,#771);
#770 = CARTESIAN_POINT('',(-40.,-50.,2.22E-14));
#771 = VECTOR('',#772,1.);
#772 = DIRECTION('',(0.,-4.4E-16,-1.));
#773 = ORIENTED_EDGE('',*,*,#469,.F.);
#774 = ORIENTED_EDGE('',*,*,#751,.F.);
#775 = PLANE('',#776);
#776 = AXIS2_PLACEMENT_3D('',#777,#778,#779);
#777 = CARTESIAN_POINT('',(-40.,-50.,2.22E-14));
#778 = DIRECTION('',(0.,-1.,4.4E-16));
#779 = DIRECTION('',(1.,0.,0.));
#780 = ADVANCED_FACE('',(#781),#792,.F.);
#781 = FACE_BOUND('',#782,.F.);
#782 = EDGE_LOOP('',(#783,#784,#790,#791));
#783 = ORIENTED_EDGE('',*,*,#218,.F.);
#784 = ORIENTED_EDGE('',*,*,#785,.T.);
#785 = EDGE_CURVE('',#211,#454,#786,.T.);
#786 = LINE('',#787,#788);
#787 = CARTESIAN_POINT('',(-50.,-40.,1.776E-14));
#788 = VECTOR('',#789,1.);
#789 = DIRECTION('',(0.,-4.4E-16,-1.));
#790 = ORIENTED_EDGE('',*,*,#461,.F.);
#791 = ORIENTED_EDGE('',*,*,#768,.F.);
#792 = PLANE('',#793);
#793 = AXIS2_PLACEMENT_3D('',#794,#795,#796);
#794 = CARTESIAN_POINT('',(-50.,-40.,1.776E-14));
#795 = DIRECTION('',(-0.707106781187,-0.707106781187,3.1E-16));
#796 = DIRECTION('',(0.707106781187,-0.707106781187,3.1E-16));
#797 = ADVANCED_FACE('',(#798),#809,.F.);
#798 = FACE_BOUND('',#799,.F.);
#799 = EDGE_LOOP('',(#800,#801,#807,#808));
#800 = ORIENTED_EDGE('',*,*,#210,.F.);
#801 = ORIENTED_EDGE('',*,*,#802,.T.);
#802 = EDGE_CURVE('',#203,#446,#803,.T.);
#803 = LINE('',#804,#805);
#804 = CARTESIAN_POINT('',(-50.,40.,-1.776E-14));
#805 = VECTOR('',#806,1.);
#806 = DIRECTION('',(0.,-4.4E-16,-1.));
#807 = ORIENTED_EDGE('',*,*,#453,.F.);
#808 = ORIENTED_EDGE('',*,*,#785,.F.);
#809 = PLANE('',#810);
#810 = AXIS2_PLACEMENT_3D('',#811,#812,#813);
#811 = CARTESIAN_POINT('',(-50.,40.,-1.776E-14));
#812 = DIRECTION('',(-1.,-0.,0.));
#813 = DIRECTION('',(0.,-1.,4.4E-16));
#814 = ADVANCED_FACE('',(#815),#826,.F.);
#815 = FACE_BOUND('',#816,.F.);
#816 = EDGE_LOOP('',(#817,#818,#824,#825));
#817 = ORIENTED_EDGE('',*,*,#202,.F.);
#818 = ORIENTED_EDGE('',*,*,#819,.T.);
#819 = EDGE_CURVE('',#195,#436,#820,.T.);
#820 = LINE('',#821,#822);
#821 = CARTESIAN_POINT('',(-40.,50.,-2.22E-14));
#822 = VECTOR('',#823,1.);
#823 = DIRECTION('',(0.,-4.4E-16,-1.));
#824 = ORIENTED_EDGE('',*,*,#445,.F.);
#825 = ORIENTED_EDGE('',*,*,#802,.F.);
#826 = PLANE('',#827);
#827 = AXIS2_PLACEMENT_3D('',#828,#829,#830);
#828 = CARTESIAN_POINT('',(-40.,50.,-2.22E-14));
#829 = DIRECTION('',(-0.707106781187,0.707106781187,-3.1E-16));
#830 = DIRECTION('',(-0.707106781187,-0.707106781187,3.1E-16));
#831 = ADVANCED_FACE('',(#832),#838,.F.);
#832 = FACE_BOUND('',#833,.F.);
#833 = EDGE_LOOP('',(#834,#835,#836,#837));
#834 = ORIENTED_EDGE('',*,*,#194,.F.);
#835 = ORIENTED_EDGE('',*,*,#719,.T.);
#836 = ORIENTED_EDGE('',*,*,#435,.F.);
#837 = ORIENTED_EDGE('',*,*,#819,.F.);
#838 = PLANE('',#839);
#839 = AXIS2_PLACEMENT_3D('',#840,#841,#842);
#840 = CARTESIAN_POINT('',(40.,50.,-2.22E-14));
#841 = DIRECTION('',(0.,1.,-4.4E-16));
#842 = DIRECTION('',(-1.,0.,0.));
#843 = ADVANCED_FACE('',(#844),#855,.F.);
#844 = FACE_BOUND('',#845,.T.);
#845 = EDGE_LOOP('',(#846,#852,#853,#854));
#846 = ORIENTED_EDGE('',*,*,#847,.F.);
#847 = EDGE_CURVE('',#251,#502,#848,.T.);
#848 = LINE('',#849,#850);
#849 = CARTESIAN_POINT('',(52.25,50.,-2.2E-14));
#850 = VECTOR('',#851,1.);
#851 = DIRECTION('',(-6.E-17,-4.4E-16,-1.));
#852 = ORIENTED_EDGE('',*,*,#250,.T.);
#853 = ORIENTED_EDGE('',*,*,#847,.T.);
#854 = ORIENTED_EDGE('',*,*,#501,.T.);
#855 = CYLINDRICAL_SURFACE('',#856,2.25);
#856 = AXIS2_PLACEMENT_3D('',#857,#858,#859);
#857 = CARTESIAN_POINT('',(50.,50.,-2.2E-14));
#858 = DIRECTION('',(-0.,-4.4E-16,-1.));
#859 = DIRECTION('',(1.,0.,0.));
#860 = ADVANCED_FACE('',(#861),#872,.F.);
#861 = FACE_BOUND('',#862,.T.);
#862 = EDGE_LOOP('',(#863,#869,#870,#871));
#863 = ORIENTED_EDGE('',*,*,#864,.F.);
#864 = EDGE_CURVE('',#262,#513,#865,.T.);
#865 = LINE('',#866,#867);
#866 = CARTESIAN_POINT('',(77.4,60.,-2.7E-14));
#867 = VECTOR('',#868,1.);
#868 = DIRECTION('',(-6.E-17,-4.4E-16,-1.));
#869 = ORIENTED_EDGE('',*,*,#261,.T.);
#870 = ORIENTED_EDGE('',*,*,#864,.T.);
#871 = ORIENTED_EDGE('',*,*,#512,.T.);
#872 = CYLINDRICAL_SURFACE('',#873,2.4);
#873 = AXIS2_PLACEMENT_3D('',#874,#875,#876);
#874 = CARTESIAN_POINT('',(75.,60.,-2.7E-14));
#875 = DIRECTION('',(-0.,-4.4E-16,-1.));
#876 = DIRECTION('',(1.,0.,0.));
#877 = ( GEOMETRIC_REPRESENTATION_CONTEXT(3) 
GLOBAL_UNCERTAINTY_ASSIGNED_CONTEXT((#881)) GLOBAL_UNIT_ASSIGNED_CONTEXT
((#878,#879,#880)) REPRESENTATION_CONTEXT('Context #1',
  '3D Context with UNIT and UNCERTAINTY') );
#878 = ( LENGTH_UNIT() NAMED_UNIT(*) SI_UNIT(.MILLI.,.METRE.) );
#879 = ( NAMED_UNIT(*) PLANE_ANGLE_UNIT() SI_UNIT($,.RADIAN.) );
#880 = ( NAMED_UNIT(*) SI_UNIT($,.STERADIAN.) SOLID_ANGLE_UNIT() );
#881 = UNCERTAINTY_MEASURE_WITH_UNIT(LENGTH_MEASURE(5.E-05),#878,
  'distance_accuracy_value','confusion accuracy');
#882 = PRODUCT_RELATED_PRODUCT_CATEGORY('part',$,(#7));
#883 = MECHANICAL_DESIGN_GEOMETRIC_PRESENTATION_REPRESENTATION('',(#884)
  ,#877);
#884 = STYLED_ITEM('color',(#885),#15);
#885 = PRESENTATION_STYLE_ASSIGNMENT((#886,#892));
#886 = SURFACE_STYLE_USAGE(.BOTH.,#887);
#887 = SURFACE_SIDE_STYLE('',(#888));
#888 = SURFACE_STYLE_FILL_AREA(#889);
#889 = FILL_AREA_STYLE('',(#890));
#890 = FILL_AREA_STYLE_COLOUR('',#891);
#891 = COLOUR_RGB('',1.,0.976470577825,0.807843143701);
#892 = CURVE_STYLE('',#893,POSITIVE_LENGTH_MEASURE(0.1),#894);
#893 = DRAUGHTING_PRE_DEFINED_CURVE_FONT('continuous');
#894 = DRAUGHTING_PRE_DEFINED_COLOUR('black');
ENDSEC;
END-ISO-10303-21;
